<?xml version="1.0" encoding="UTF-8" standalone="no"?>
<!-- Created with Inkscape (http://www.inkscape.org/) -->

<svg
   xmlns:dc="http://purl.org/dc/elements/1.1/"
   xmlns:cc="http://creativecommons.org/ns#"
   xmlns:rdf="http://www.w3.org/1999/02/22-rdf-syntax-ns#"
   xmlns:svg="http://www.w3.org/2000/svg"
   xmlns="http://www.w3.org/2000/svg"
   xmlns:sodipodi="http://sodipodi.sourceforge.net/DTD/sodipodi-0.dtd"
   xmlns:inkscape="http://www.inkscape.org/namespaces/inkscape"
   version="1.1"
   id="svg19469"
   xml:space="preserve"
   width="1264.3702"
   height="1045.7513"
   viewBox="0 0 1264.3702 1045.7513"
   sodipodi:docname="LearningMechanism_TERMINAL_vs_TARGET_fig.svg"
   inkscape:version="0.92.4 (5da689c313, 2019-01-14)"><metadata
     id="metadata19475"><rdf:RDF><cc:Work
         rdf:about=""><dc:format>image/svg+xml</dc:format><dc:type
           rdf:resource="http://purl.org/dc/dcmitype/StillImage" /><dc:title></dc:title></cc:Work></rdf:RDF></metadata><defs
     id="defs19473"><clipPath
       clipPathUnits="userSpaceOnUse"
       id="clipPath19487"><path
         d="M 0,0 H 1500 V 1000 H 0 Z"
         id="path19485"
         inkscape:connector-curvature="0" /></clipPath><clipPath
       clipPathUnits="userSpaceOnUse"
       id="clipPath19527"><path
         d="m 727.8329,362.9496 h 186.883 v 56.58413 h -186.883 z"
         id="path19525"
         inkscape:connector-curvature="0" /></clipPath><clipPath
       clipPathUnits="userSpaceOnUse"
       id="clipPath19541"><path
         d="m 726.2768,365.0746 h 189.9954 v 52.33413 H 726.2768 Z"
         id="path19539"
         inkscape:connector-curvature="0" /></clipPath><clipPath
       clipPathUnits="userSpaceOnUse"
       id="clipPath19551"><path
         d="M 0,0 H 1500 V 1000 H 0 Z"
         id="path19549"
         inkscape:connector-curvature="0" /></clipPath><clipPath
       clipPathUnits="userSpaceOnUse"
       id="clipPath19655"><path
         d="m 456.4799,359.6088 h 221.9069 v 66.89102 H 456.4799 Z"
         id="path19653"
         inkscape:connector-curvature="0" /></clipPath><clipPath
       clipPathUnits="userSpaceOnUse"
       id="clipPath19669"><path
         d="m 456.5995,361.7338 h 221.6677 v 62.64102 H 456.5995 Z"
         id="path19667"
         inkscape:connector-curvature="0" /></clipPath><clipPath
       clipPathUnits="userSpaceOnUse"
       id="clipPath19689"><path
         d="m 950.942,414.8643 h 221.9069 v 66.89102 H 950.942 Z"
         id="path19687"
         inkscape:connector-curvature="0" /></clipPath><clipPath
       clipPathUnits="userSpaceOnUse"
       id="clipPath19703"><path
         d="m 951.0616,416.9893 h 221.6677 v 62.64102 H 951.0616 Z"
         id="path19701"
         inkscape:connector-curvature="0" /></clipPath><clipPath
       clipPathUnits="userSpaceOnUse"
       id="clipPath19729"><path
         d="M 0,0 H 1500 V 1000 H 0 Z"
         id="path19727"
         inkscape:connector-curvature="0" /></clipPath><clipPath
       clipPathUnits="userSpaceOnUse"
       id="clipPath19755"><path
         d="m 549.2615,184.0259 h 186.883 v 66.26509 h -186.883 z"
         id="path19753"
         inkscape:connector-curvature="0" /></clipPath><clipPath
       clipPathUnits="userSpaceOnUse"
       id="clipPath19769"><path
         d="m 547.7054,186.1509 h 189.9954 v 62.01509 H 547.7054 Z"
         id="path19767"
         inkscape:connector-curvature="0" /></clipPath><clipPath
       clipPathUnits="userSpaceOnUse"
       id="clipPath19779"><path
         d="m 531.5982,187.0332 h 198.4707 v 56.54708 H 531.5982 Z"
         id="path19777"
         inkscape:connector-curvature="0" /></clipPath><clipPath
       clipPathUnits="userSpaceOnUse"
       id="clipPath19811"><path
         d="M 0,0 H 1500 V 1000 H 0 Z"
         id="path19809"
         inkscape:connector-curvature="0" /></clipPath><clipPath
       clipPathUnits="userSpaceOnUse"
       id="clipPath19837"><path
         d="m 880.6901,184.8592 h 186.883 v 65.43179 h -186.883 z"
         id="path19835"
         inkscape:connector-curvature="0" /></clipPath><clipPath
       clipPathUnits="userSpaceOnUse"
       id="clipPath19851"><path
         d="m 879.1339,186.9842 h 189.9954 v 61.18179 H 879.1339 Z"
         id="path19849"
         inkscape:connector-curvature="0" /></clipPath><clipPath
       clipPathUnits="userSpaceOnUse"
       id="clipPath19861"><path
         d="M 0,0 H 1500 V 1000 H 0 Z"
         id="path19859"
         inkscape:connector-curvature="0" /></clipPath><clipPath
       clipPathUnits="userSpaceOnUse"
       id="clipPath19893"><path
         d="m 600.1878,537.1606 h 186.883 v 56.58413 h -186.883 z"
         id="path19891"
         inkscape:connector-curvature="0" /></clipPath><clipPath
       clipPathUnits="userSpaceOnUse"
       id="clipPath19907"><path
         d="M 598.6316,539.2856 H 788.627 v 52.33413 H 598.6316 Z"
         id="path19905"
         inkscape:connector-curvature="0" /></clipPath><clipPath
       clipPathUnits="userSpaceOnUse"
       id="clipPath19917"><path
         d="M 0,0 H 1500 V 1000 H 0 Z"
         id="path19915"
         inkscape:connector-curvature="0" /></clipPath><clipPath
       clipPathUnits="userSpaceOnUse"
       id="clipPath19987"><path
         d="m 850.942,554.8643 h 221.9069 v 66.89102 H 850.942 Z"
         id="path19985"
         inkscape:connector-curvature="0" /></clipPath><clipPath
       clipPathUnits="userSpaceOnUse"
       id="clipPath20001"><path
         d="m 851.0616,556.9893 h 221.6677 v 62.64102 H 851.0616 Z"
         id="path19999"
         inkscape:connector-curvature="0" /></clipPath><clipPath
       clipPathUnits="userSpaceOnUse"
       id="clipPath20021"><path
         d="M 0,0 H 1500 V 1000 H 0 Z"
         id="path20019"
         inkscape:connector-curvature="0" /></clipPath><clipPath
       clipPathUnits="userSpaceOnUse"
       id="clipPath20041"><path
         d="m 584.3446,681.8458 h 212.2116 v 64.03787 H 584.3446 Z"
         id="path20039"
         inkscape:connector-curvature="0" /></clipPath><clipPath
       clipPathUnits="userSpaceOnUse"
       id="clipPath20055"><path
         d="m 584.4642,683.9708 h 211.9724 v 59.78787 H 584.4642 Z"
         id="path20053"
         inkscape:connector-curvature="0" /></clipPath></defs><sodipodi:namedview
     pagecolor="#ffffff"
     bordercolor="#666666"
     borderopacity="1"
     objecttolerance="10"
     gridtolerance="10"
     guidetolerance="10"
     inkscape:pageopacity="0"
     inkscape:pageshadow="2"
     inkscape:window-width="678"
     inkscape:window-height="480"
     id="namedview19471"
     showgrid="false"
     inkscape:zoom="0.76691271"
     inkscape:cx="632.18512"
     inkscape:cy="940.13307"
     inkscape:window-x="0"
     inkscape:window-y="0"
     inkscape:window-maximized="0"
     inkscape:current-layer="g19477" /><g
     id="g19477"
     inkscape:groupmode="layer"
     inkscape:label="LearningMechanism_TERMINAL_vs_TARGET_fig"
     transform="matrix(1.3333333,0,0,-1.3333333,-438.19507,1142.6401)"><g
       id="g19479" /><g
       id="g19481"><g
         id="g19483"
         clip-path="url(#clipPath19487)"><path
           d="M 0,1000 H 1500 V 0 H 0 Z"
           style="fill:#ffffff;fill-opacity:1;fill-rule:nonzero;stroke:none"
           id="path19489"
           inkscape:connector-curvature="0" /><path
           d="M 331.5705,853.7195 H 1274.34 V 75.79025 H 331.5705 Z"
           style="fill:#4b5d56;fill-opacity:0.8423;fill-rule:nonzero;stroke:none"
           id="path19491"
           inkscape:connector-curvature="0" /><g
           id="g19493"
           transform="matrix(1,0,0,-1,331.5705,853.7195)"><path
             d="M 0,-9.954834e-6 H 942.7695 V 777.9292 H 0 Z"
             style="fill:none;stroke:#a37512;stroke-width:7;stroke-linecap:butt;stroke-linejoin:miter;stroke-miterlimit:4;stroke-dasharray:none;stroke-opacity:1"
             id="path19495"
             inkscape:connector-curvature="0" /></g><path
           d="m 548.7097,770.3638 463.6733,0.3387 192.446,-169.3901 7.985,-479.715 -335.5313,-2.2029 -324.1106,395.2614 z"
           style="fill:#ccba85;fill-opacity:1;fill-rule:nonzero;stroke:none"
           id="path19497"
           inkscape:connector-curvature="0" /><g
           id="g19499"
           transform="rotate(-179.59612,605.47025,385.37718)"><path
             d="M 659.5153,0 195.8514,2.929652 4.604213,173.6721 0,653.4315 335.5389,653.2692 656.8554,255.733 Z"
             style="fill:none;stroke:#a37512;stroke-width:7;stroke-linecap:butt;stroke-linejoin:miter;stroke-miterlimit:4;stroke-dasharray:none;stroke-opacity:1"
             id="path19501"
             inkscape:connector-curvature="0" /></g><path
           d="m 934.3989,444.3293 -377.9208,1.0827 -138.6471,-3.6277 -2.8,-329.809 362.0027,3.4146 154.5465,219.7095 z"
           style="fill:#ffe8a7;fill-opacity:0.8;fill-rule:nonzero;stroke:none"
           id="path19503"
           inkscape:connector-curvature="0" /><g
           id="g19505"
           transform="matrix(1,0,0,-1,415.031,445.412)"><path
             d="M 519.3679,1.082638 141.4471,0 2.800001,3.627725 0,333.4367 362.0027,330.0221 516.5492,110.3126 Z"
             style="fill:none;stroke:#a37512;stroke-width:7;stroke-linecap:butt;stroke-linejoin:miter;stroke-miterlimit:4;stroke-dasharray:none;stroke-opacity:1"
             id="path19507"
             inkscape:connector-curvature="0" /></g><path
           d="m 724.3726,476.1472 -17.6307,-13.9635 -0.0552,77.2486 75.1821,-17.7482 -17.6307,-13.9635 82.6196,-104.3179 -39.8655,-31.5735 z"
           style="fill:#de6a0f;fill-opacity:1;fill-rule:nonzero;stroke:none"
           id="path19509"
           inkscape:connector-curvature="0" /><g
           id="g19511"
           transform="matrix(0.6208626,-0.7839194,-0.7839194,-0.6208626,744.2501,569.1825)"><path
             d="M 60.59098,73.34455 V 95.83496 L 0,47.91748 60.59098,0 V 22.49041 H 193.6633 v 50.85414 z"
             style="fill:none;stroke:#fdfdc5;stroke-width:0.25;stroke-linecap:butt;stroke-linejoin:round;stroke-miterlimit:4;stroke-dasharray:none;stroke-opacity:1"
             id="path19513"
             inkscape:connector-curvature="0" /></g><path
           d="m 663.9039,618.372 h -21.2168 l 45.204,60.591 45.204,-60.591 h -21.2168 v -67.9714 h -47.9744 z"
           style="fill:#de6a0f;fill-opacity:1;fill-rule:nonzero;stroke:none"
           id="path19515"
           inkscape:connector-curvature="0" /><g
           id="g19517"
           transform="matrix(0,-1,-1,0,733.0951,678.963)"><path
             d="M 60.59098,69.19122 V 90.40805 L 0,45.20403 60.59098,0 v 21.21683 h 67.97142 v 47.97439 z"
             style="fill:none;stroke:#fdfdc5;stroke-width:0.25;stroke-linecap:butt;stroke-linejoin:round;stroke-miterlimit:4;stroke-dasharray:none;stroke-opacity:1"
             id="path19519"
             inkscape:connector-curvature="0" /></g></g></g><g
       id="g19521"><g
         id="g19523"
         clip-path="url(#clipPath19527)"><path
           d="M 728.9579,418.4087 H 913.591 V 364.0746 H 728.9579 Z"
           style="fill:#fdfdc5;fill-opacity:1;fill-rule:nonzero;stroke:none"
           id="path19529"
           inkscape:connector-curvature="0" /><g
           id="g19531"
           transform="matrix(1,0,0,-1,728.9579,418.4087)"><path
             d="M 0,0 H 184.633 V 54.33413 H 0 Z"
             style="fill:none;stroke:#fdfdc5;stroke-width:0.25;stroke-linecap:butt;stroke-linejoin:round;stroke-miterlimit:4;stroke-dasharray:none;stroke-opacity:1"
             id="path19533"
             inkscape:connector-curvature="0" /></g></g></g><g
       id="g19535"><g
         id="g19537"
         clip-path="url(#clipPath19541)"><g
           id="g19543"
           transform="translate(738,384)" /></g></g><g
       id="g19545"><g
         id="g19547"
         clip-path="url(#clipPath19551)"><g
           id="g19553"
           transform="translate(722,496)"><text
             transform="scale(1,-1)"
             style="font-variant:normal;font-weight:bold;font-size:10px;font-family:Arial;-inkscape-font-specification:Arial-BoldMT;writing-mode:lr-tb;fill:#fdfdc5;fill-opacity:1;fill-rule:nonzero;stroke:none"
             id="text19557"><tspan
               x="0 8.3299999 13.892 20 26.108 28.886 34.993999 41.102001"
               y="0"
               sodipodi:role="line"
               id="tspan19555">Mapping </tspan></text>
</g><g
           id="g19559"
           transform="translate(718,485)"><text
             transform="scale(1,-1)"
             style="font-variant:normal;font-weight:bold;font-size:10px;font-family:Arial;-inkscape-font-specification:Arial-BoldMT;writing-mode:lr-tb;fill:#fdfdc5;fill-opacity:1;fill-rule:nonzero;stroke:none"
             id="text19563"><tspan
               x="0 6.6700001 10.562 16.67 19.448 25.01 30.572001 33.902 36.68 42.787998"
               y="0"
               sodipodi:role="line"
               id="tspan19561">Projection</tspan></text>
</g><g
           id="g19565"
           transform="translate(522,134)"><text
             transform="scale(1,-1)"
             style="font-variant:normal;font-weight:bold;font-size:34px;font-family:Arial;-inkscape-font-specification:Arial-BoldMT;writing-mode:lr-tb;fill:#53585f;fill-opacity:1;fill-rule:nonzero;stroke:none"
             id="text19569"><tspan
               x="0 22.677999 41.588799 52.910801 73.678001 100.1232 119.034 137.94479 146.1286"
               y="0"
               sodipodi:role="line"
               id="tspan19567">Pathway A</tspan></text>
</g><g
           id="g19571"
           transform="translate(953,141)"><text
             transform="scale(1,-1)"
             style="font-variant:normal;font-weight:bold;font-size:34px;font-family:Arial;-inkscape-font-specification:Arial-BoldMT;writing-mode:lr-tb;fill:#53585f;fill-opacity:1;fill-rule:nonzero;stroke:none"
             id="text19575"><tspan
               x="0 22.677999 41.588799 52.910801 73.678001 100.1232 119.034 137.94479 147.39"
               y="0"
               sodipodi:role="line"
               id="tspan19573">Pathway B</tspan></text>
</g><g
           id="g19577"
           transform="translate(682,799)"><text
             transform="scale(1,-1)"
             style="font-variant:normal;font-weight:bold;font-size:42px;font-family:Arial;-inkscape-font-specification:Arial-BoldMT;writing-mode:lr-tb;fill:#ccba85;fill-opacity:1;fill-rule:nonzero;stroke:none"
             id="text19581"><tspan
               x="0 30.332399 55.986 93.332397 118.986 144.6396 168 179.6676 193.65359 205.3212 230.97479"
               y="0"
               sodipodi:role="line"
               id="tspan19579">Composition</tspan></text>
</g><g
           id="g19583"
           transform="translate(771,391)"><text
             transform="scale(1,-1)"
             style="font-variant:normal;font-weight:bold;font-size:16px;font-family:Arial;-inkscape-font-specification:Arial-BoldMT;writing-mode:lr-tb;fill:#000000;fill-opacity:1;fill-rule:nonzero;stroke:none"
             id="text19587"><tspan
               x="0 13.328 22.2272 31.1264 40.8992 49.798401 59.571201 64.015999 72.915199 87.142403 91.587196 103.1424"
               y="0"
               sodipodi:role="line"
               id="tspan19585">Mechanism B </tspan></text>
</g><g
           id="g19589"
           transform="translate(758,375)"><text
             transform="scale(1,-1)"
             style="font-style:italic;font-variant:normal;font-size:13px;font-family:Arial;-inkscape-font-specification:Arial-ItalicMT;writing-mode:lr-tb;fill:#000000;fill-opacity:1;fill-rule:nonzero;stroke:none"
             id="text19593"><tspan
               x="0 9.3886003 16.6192 23.8498 31.0804 33.969002 43.357601 50.5882 53.476799 60.707401 64.318802 67.930199 77.318802 85.259201 93.930199 103.3188 112.7074 121.3784"
               y="0"
               sodipodi:role="line"
               id="tspan19591">NodelRole.INTERNAL</tspan></text>
</g><g
           id="g19595"
           transform="translate(666,636)"><text
             transform="scale(1,-1)"
             style="font-variant:normal;font-weight:bold;font-size:10px;font-family:Arial;-inkscape-font-specification:Arial-BoldMT;writing-mode:lr-tb;fill:#fdfdc5;fill-opacity:1;fill-rule:nonzero;stroke:none"
             id="text19599"><tspan
               x="0 8.3299999 13.892 20 26.108 28.886 34.993999 41.102001"
               y="0"
               sodipodi:role="line"
               id="tspan19597">Mapping </tspan></text>
</g><g
           id="g19601"
           transform="translate(662,625)"><text
             transform="scale(1,-1)"
             style="font-variant:normal;font-weight:bold;font-size:10px;font-family:Arial;-inkscape-font-specification:Arial-BoldMT;writing-mode:lr-tb;fill:#fdfdc5;fill-opacity:1;fill-rule:nonzero;stroke:none"
             id="text19605"><tspan
               x="0 6.6700001 10.562 16.67 19.448 25.01 30.572001 33.902 36.68 42.787998"
               y="0"
               sodipodi:role="line"
               id="tspan19603">Projection</tspan></text>
</g><g
           id="g19607"
           transform="matrix(1,0,0,-1,938.0657,416.9111)"><path
             d="m 111.5907,0 c 0.2107,32.06078 -16.08321,61.82777 -48.88172,89.30097 l -8.44013,5.39258"
             style="fill:none;stroke:#70bf41;stroke-width:20;stroke-linecap:butt;stroke-linejoin:miter;stroke-miterlimit:4;stroke-dasharray:none;stroke-opacity:1"
             id="path19609"
             inkscape:connector-curvature="0" /></g><path
           d="m 980.7326,358.9494 -42.6669,-71.4054 82.7243,8.7098 z"
           style="fill:#70bf41;fill-opacity:1;fill-rule:nonzero;stroke:none"
           id="path19611"
           inkscape:connector-curvature="0" /><g
           id="g19613"
           transform="translate(965,319)"><text
             transform="scale(1,-1)"
             style="font-variant:normal;font-weight:bold;font-size:8px;font-family:Arial;-inkscape-font-specification:Arial-BoldMT;writing-mode:lr-tb;fill:#fdfdc5;fill-opacity:1;fill-rule:nonzero;stroke:none"
             id="text19617"><tspan
               x="0 4.8864002 9.3327999 13.7792 16.889601 21.775999 23.9984 28.8848 33.771198"
               y="0"
               sodipodi:role="line"
               id="tspan19615">Learning </tspan></text>
</g><g
           id="g19619"
           transform="translate(962,310)"><text
             transform="scale(1,-1)"
             style="font-variant:normal;font-weight:bold;font-size:8px;font-family:Arial;-inkscape-font-specification:Arial-BoldMT;writing-mode:lr-tb;fill:#fdfdc5;fill-opacity:1;fill-rule:nonzero;stroke:none"
             id="text19623"><tspan
               x="0 5.336 8.4496002 13.336 15.5584 20.007999 24.4576 27.121599 29.344 34.2304"
               y="0"
               sodipodi:role="line"
               id="tspan19621">Projection</tspan></text>
</g><g
           id="g19625"
           transform="matrix(1,0,0,-1,456.4442,713.7572)"><path
             d="M 74.39271,243.6116 C -40.64946,84.70711 -22.26423,3.503238 129.5484,0"
             style="fill:none;stroke:#de6a10;stroke-width:36;stroke-linecap:butt;stroke-linejoin:miter;stroke-miterlimit:4;stroke-dasharray:none;stroke-opacity:1"
             id="path19627"
             inkscape:connector-curvature="0" /></g><path
           d="m 517.9018,460.1541 -12.2727,-9.0699 57.3542,-24.2226 -6.3211,61.9378 -12.2727,-9.07 -10.9362,14.798 -26.4877,-19.5752 z"
           style="fill:#de6a0f;fill-opacity:1;fill-rule:nonzero;stroke:none"
           id="path19629"
           inkscape:connector-curvature="0" /><g
           id="g19631"
           transform="matrix(1,0,0,-1,576.5431,358.7439)"><path
             d="M 50.9283,46.90173 41.55048,43.42948 C 13.62957,29.47027 -0.2141294,14.99586 0.00250331,0"
             style="fill:none;stroke:#70bf41;stroke-width:20;stroke-linecap:butt;stroke-linejoin:miter;stroke-miterlimit:4;stroke-dasharray:none;stroke-opacity:1"
             id="path19633"
             inkscape:connector-curvature="0" /></g><path
           d="m 605.1768,280.4289 82.6878,9.052 -56.8542,60.719 z"
           style="fill:#70bf41;fill-opacity:1;fill-rule:nonzero;stroke:none"
           id="path19635"
           inkscape:connector-curvature="0" /><g
           id="g19637"
           transform="translate(625,308)"><text
             transform="scale(1,-1)"
             style="font-variant:normal;font-weight:bold;font-size:8px;font-family:Arial;-inkscape-font-specification:Arial-BoldMT;writing-mode:lr-tb;fill:#fdfdc5;fill-opacity:1;fill-rule:nonzero;stroke:none"
             id="text19641"><tspan
               x="0 4.8864002 9.3327999 13.7792 16.889601 21.775999 23.9984 28.8848 33.771198"
               y="0"
               sodipodi:role="line"
               id="tspan19639">Learning </tspan></text>
</g><g
           id="g19643"
           transform="translate(622,299)"><text
             transform="scale(1,-1)"
             style="font-variant:normal;font-weight:bold;font-size:8px;font-family:Arial;-inkscape-font-specification:Arial-BoldMT;writing-mode:lr-tb;fill:#fdfdc5;fill-opacity:1;fill-rule:nonzero;stroke:none"
             id="text19647"><tspan
               x="0 5.336 8.4496002 13.336 15.5584 20.007999 24.4576 27.121599 29.344 34.2304"
               y="0"
               sodipodi:role="line"
               id="tspan19645">Projection</tspan></text>
</g></g></g><g
       id="g19649"><g
         id="g19651"
         clip-path="url(#clipPath19655)"><path
           d="m 457.6049,425.3748 h 219.6569 v -64.641 H 457.6049 Z"
           style="fill:#fdfdc5;fill-opacity:1;fill-rule:nonzero;stroke:none"
           id="path19657"
           inkscape:connector-curvature="0" /><g
           id="g19659"
           transform="matrix(1,0,0,-1,457.6049,425.3748)"><path
             d="M 0,0 H 219.6569 V 64.64102 H 0 Z"
             style="fill:none;stroke:#fdfdc5;stroke-width:0.25;stroke-linecap:butt;stroke-linejoin:round;stroke-miterlimit:4;stroke-dasharray:none;stroke-opacity:1"
             id="path19661"
             inkscape:connector-curvature="0" /></g></g></g><g
       id="g19663"><g
         id="g19665"
         clip-path="url(#clipPath19669)"><g
           id="g19671"
           transform="translate(500,396)"><text
             transform="scale(1,-1)"
             style="font-variant:normal;font-weight:bold;font-size:14px;font-family:Arial;-inkscape-font-specification:Arial-BoldMT;writing-mode:lr-tb;fill:#000000;fill-opacity:1;fill-rule:nonzero;stroke:none"
             id="text19675"><tspan
               x="0 8.5511999 16.337999 24.1248 29.573601 38.124802 42.014 50.565201 59.116402 70.778397 78.565201 86.351997 94.903198 102.69 111.2412 115.1304 122.9172 135.366"
               y="0"
               sodipodi:role="line"
               id="tspan19673">LearningMechanism </tspan></text>
</g><g
           id="g19677"
           transform="translate(510,381)"><text
             transform="scale(1,-1)"
             style="font-style:italic;font-variant:normal;font-size:13px;font-family:Arial;-inkscape-font-specification:Arial-ItalicMT;writing-mode:lr-tb;fill:#000000;fill-opacity:1;fill-rule:nonzero;stroke:none"
             id="text19681"><tspan
               x="0 9.3886003 16.6192 23.8498 31.0804 33.969002 43.357601 50.5882 53.476799 60.707401 64.318802 71.5494 78.779999 86.010597 90.3396 97.570198 100.4588 107.6894"
               y="0"
               sodipodi:role="line"
               id="tspan19679">NodelRole.Learning</tspan></text>
</g></g></g><g
       id="g19683"><g
         id="g19685"
         clip-path="url(#clipPath19689)"><path
           d="m 952.067,480.6303 h 219.657 v -64.641 H 952.067 Z"
           style="fill:#fdfdc5;fill-opacity:1;fill-rule:nonzero;stroke:none"
           id="path19691"
           inkscape:connector-curvature="0" /><g
           id="g19693"
           transform="matrix(1,0,0,-1,952.067,480.6303)"><path
             d="M 0,0 H 219.6569 V 64.64102 H 0 Z"
             style="fill:none;stroke:#fdfdc5;stroke-width:0.25;stroke-linecap:butt;stroke-linejoin:round;stroke-miterlimit:4;stroke-dasharray:none;stroke-opacity:1"
             id="path19695"
             inkscape:connector-curvature="0" /></g></g></g><g
       id="g19697"><g
         id="g19699"
         clip-path="url(#clipPath19703)"><g
           id="g19705"
           transform="translate(994,458)"><text
             transform="scale(1,-1)"
             style="font-variant:normal;font-weight:bold;font-size:14px;font-family:Arial;-inkscape-font-specification:Arial-BoldMT;writing-mode:lr-tb;fill:#000000;fill-opacity:1;fill-rule:nonzero;stroke:none"
             id="text19709"><tspan
               x="0 8.5511999 16.337999 24.1248 29.573601 38.124802 42.014 50.565201 59.116402 70.778397 78.565201 86.351997 94.903198 102.69 111.2412 115.1304 122.9172 135.366"
               y="0"
               sodipodi:role="line"
               id="tspan19707">LearningMechanism </tspan></text>
</g><g
           id="g19711"
           transform="translate(998,443)"><text
             transform="scale(1,-1)"
             style="font-style:italic;font-variant:normal;font-size:13px;font-family:Arial;-inkscape-font-specification:Arial-ItalicMT;writing-mode:lr-tb;fill:#000000;fill-opacity:1;fill-rule:nonzero;stroke:none"
             id="text19715"><tspan
               x="0 9.3886003 16.6192 23.8498 31.0804 40.469002 47.6996 50.5882 57.818802 61.430199 69.370598 78.041603 87.430199 98.259201 101.8706 111.2592 119.9302 126.9255"
               y="0"
               sodipodi:role="line"
               id="tspan19713">NodeRole.TERMINAL </tspan></text>
</g><g
           id="g19717"
           transform="translate(998,428)"><text
             transform="scale(1,-1)"
             style="font-style:italic;font-variant:normal;font-size:13px;font-family:Arial;-inkscape-font-specification:Arial-ItalicMT;writing-mode:lr-tb;fill:#000000;fill-opacity:1;fill-rule:nonzero;stroke:none"
             id="text19721"><tspan
               x="0 9.3886003 16.6192 23.8498 31.0804 40.469002 47.6996 50.5882 57.818802 61.430199 68.660797 77.331802 86.0028 95.391403 104.78 108.3914 117.78"
               y="0"
               sodipodi:role="line"
               id="tspan19719">NodeRole.LEARNING</tspan></text>
</g></g></g><g
       id="g19723"><g
         id="g19725"
         clip-path="url(#clipPath19729)"><path
           d="m 717.0008,330.2002 -16.4619,12.6862 74.5385,18.2227 1.3709,-76.7214 -16.4618,12.6861 -64.5745,-83.7933 -42.9856,33.1264 z"
           style="fill:#de6a0f;fill-opacity:1;fill-rule:nonzero;stroke:none"
           id="path19731"
           inkscape:connector-curvature="0" /><g
           id="g19733"
           transform="matrix(-0.6104113,-0.7920846,-0.7920846,0.6104113,813.0321,331.8597)"><path
             d="M 59.93303,75.05198 V 95.83496 L 0,47.91748 59.93303,0 V 20.78298 H 165.7214 v 54.269 z"
             style="fill:none;stroke:#fdfdc5;stroke-width:0.25;stroke-linecap:butt;stroke-linejoin:round;stroke-miterlimit:4;stroke-dasharray:none;stroke-opacity:1"
             id="path19735"
             inkscape:connector-curvature="0" /></g><g
           id="g19737"
           transform="translate(723,320)"><text
             transform="scale(1,-1)"
             style="font-variant:normal;font-weight:bold;font-size:10px;font-family:Arial;-inkscape-font-specification:Arial-BoldMT;writing-mode:lr-tb;fill:#fdfdc5;fill-opacity:1;fill-rule:nonzero;stroke:none"
             id="text19741"><tspan
               x="0 8.3299999 13.892 20 26.108 28.886 34.993999 41.102001"
               y="0"
               sodipodi:role="line"
               id="tspan19739">Mapping </tspan></text>
</g><g
           id="g19743"
           transform="translate(719,309)"><text
             transform="scale(1,-1)"
             style="font-variant:normal;font-weight:bold;font-size:10px;font-family:Arial;-inkscape-font-specification:Arial-BoldMT;writing-mode:lr-tb;fill:#fdfdc5;fill-opacity:1;fill-rule:nonzero;stroke:none"
             id="text19747"><tspan
               x="0 6.6700001 10.562 16.67 19.448 25.01 30.572001 33.902 36.68 42.787998"
               y="0"
               sodipodi:role="line"
               id="tspan19745">Projection</tspan></text>
</g></g></g><g
       id="g19749"><g
         id="g19751"
         clip-path="url(#clipPath19755)"><path
           d="M 550.3865,249.166 H 735.0196 V 185.1509 H 550.3865 Z"
           style="fill:#fdfdc5;fill-opacity:1;fill-rule:nonzero;stroke:none"
           id="path19757"
           inkscape:connector-curvature="0" /><g
           id="g19759"
           transform="matrix(1,0,0,-1,550.3865,249.166)"><path
             d="M 0,0 H 184.633 V 64.01509 H 0 Z"
             style="fill:none;stroke:#fdfdc5;stroke-width:0.25;stroke-linecap:butt;stroke-linejoin:round;stroke-miterlimit:4;stroke-dasharray:none;stroke-opacity:1"
             id="path19761"
             inkscape:connector-curvature="0" /></g></g></g><g
       id="g19763"><g
         id="g19765"
         clip-path="url(#clipPath19769)"><g
           id="g19771"
           transform="translate(559,210)" /></g></g><g
       id="g19773"><g
         id="g19775"
         clip-path="url(#clipPath19779)"><g
           id="g19781"
           transform="translate(580,225)"><text
             transform="scale(1,-1)"
             style="font-variant:normal;font-weight:bold;font-size:16px;font-family:Arial;-inkscape-font-specification:Arial-BoldMT;writing-mode:lr-tb;fill:#000000;fill-opacity:1;fill-rule:nonzero;stroke:none"
             id="text19785"><tspan
               x="0 13.328 22.2272 31.1264 40.8992 49.798401 59.571201 64.015999 72.915199 87.142403 90.993599 101.9552"
               y="0"
               sodipodi:role="line"
               id="tspan19783">Mechanism A </tspan></text>
</g><g
           id="g19787"
           transform="translate(579,209)"><text
             transform="scale(1,-1)"
             style="font-style:italic;font-variant:normal;font-size:13px;font-family:Arial;-inkscape-font-specification:Arial-ItalicMT;writing-mode:lr-tb;fill:#000000;fill-opacity:1;fill-rule:nonzero;stroke:none"
             id="text19791"><tspan
               x="0 9.3886003 16.6192 23.8498 31.0804 33.969002 43.357601 50.5882 53.476799 60.707401 64.318802 67.930199 77.318802 85.989799 95.378403"
               y="0"
               sodipodi:role="line"
               id="tspan19789">NodelRole.INPUT</tspan></text>
</g><g
           id="g19793"
           transform="translate(579,209)"><text
             transform="matrix(1,0,0,-1,103.3145,0)"
             style="font-variant:normal;font-weight:normal;font-size:13px;font-family:'Lucida Grande';-inkscape-font-specification:LucidaGrande;writing-mode:lr-tb;fill:#000000;fill-opacity:1;fill-rule:nonzero;stroke:none"
             id="text19797"><tspan
               x="0"
               y="0"
               id="tspan19795"> </tspan></text>
</g><g
           id="g19799"
           transform="translate(577,194)"><text
             transform="scale(1,-1)"
             style="font-style:italic;font-variant:normal;font-size:13px;font-family:Arial;-inkscape-font-specification:Arial-ItalicMT;writing-mode:lr-tb;fill:#000000;fill-opacity:1;fill-rule:nonzero;stroke:none"
             id="text19803"><tspan
               x="0 9.3886003 16.6192 23.8498 31.0804 40.469002 47.6996 50.5882 57.818802 61.435398 71.552002 80.940598 84.557198 94.673798 98.290398"
               y="0"
               sodipodi:role="line"
               id="tspan19801">NodeRole.ORIGIN</tspan></text>
</g></g></g><g
       id="g19805"><g
         id="g19807"
         clip-path="url(#clipPath19811)"><path
           d="m 902.6537,330.3577 16.177,13.0476 -74.9237,16.5678 0.3281,-76.7329 16.177,13.0475 66.4138,-82.3431 42.2417,34.0701 z"
           style="fill:#de6a0f;fill-opacity:1;fill-rule:nonzero;stroke:none"
           id="path19813"
           inkscape:connector-curvature="0" /><g
           id="g19815"
           transform="rotate(-51.112061,748.25101,-678.47679)"><path
             d="M 59.93303,75.05198 V 95.83496 L 0,47.91748 59.93303,0 V 20.78298 H 165.7214 v 54.269 z"
             style="fill:none;stroke:#fdfdc5;stroke-width:0.25;stroke-linecap:butt;stroke-linejoin:round;stroke-miterlimit:4;stroke-dasharray:none;stroke-opacity:1"
             id="path19817"
             inkscape:connector-curvature="0" /></g><g
           id="g19819"
           transform="translate(856,320)"><text
             transform="scale(1,-1)"
             style="font-variant:normal;font-weight:bold;font-size:10px;font-family:Arial;-inkscape-font-specification:Arial-BoldMT;writing-mode:lr-tb;fill:#fdfdc5;fill-opacity:1;fill-rule:nonzero;stroke:none"
             id="text19823"><tspan
               x="0 8.3299999 13.892 20 26.108 28.886 34.993999 41.102001"
               y="0"
               sodipodi:role="line"
               id="tspan19821">Mapping </tspan></text>
</g><g
           id="g19825"
           transform="translate(852,309)"><text
             transform="scale(1,-1)"
             style="font-variant:normal;font-weight:bold;font-size:10px;font-family:Arial;-inkscape-font-specification:Arial-BoldMT;writing-mode:lr-tb;fill:#fdfdc5;fill-opacity:1;fill-rule:nonzero;stroke:none"
             id="text19829"><tspan
               x="0 6.6700001 10.562 16.67 19.448 25.01 30.572001 33.902 36.68 42.787998"
               y="0"
               sodipodi:role="line"
               id="tspan19827">Projection</tspan></text>
</g></g></g><g
       id="g19831"><g
         id="g19833"
         clip-path="url(#clipPath19837)"><path
           d="M 881.8151,249.166 H 1066.448 V 185.9842 H 881.8151 Z"
           style="fill:#fdfdc5;fill-opacity:1;fill-rule:nonzero;stroke:none"
           id="path19839"
           inkscape:connector-curvature="0" /><g
           id="g19841"
           transform="matrix(1,0,0,-1,881.8151,249.166)"><path
             d="M 0,0 H 184.633 V 63.18179 H 0 Z"
             style="fill:none;stroke:#fdfdc5;stroke-width:0.25;stroke-linecap:butt;stroke-linejoin:round;stroke-miterlimit:4;stroke-dasharray:none;stroke-opacity:1"
             id="path19843"
             inkscape:connector-curvature="0" /></g></g></g><g
       id="g19845"><g
         id="g19847"
         clip-path="url(#clipPath19851)"><g
           id="g19853"
           transform="translate(891,211)" /></g></g><g
       id="g19855"><g
         id="g19857"
         clip-path="url(#clipPath19861)"><g
           id="g19863"
           transform="translate(924,227)"><text
             transform="scale(1,-1)"
             style="font-variant:normal;font-weight:bold;font-size:16px;font-family:Arial;-inkscape-font-specification:Arial-BoldMT;writing-mode:lr-tb;fill:#000000;fill-opacity:1;fill-rule:nonzero;stroke:none"
             id="text19867"><tspan
               x="0 13.328 22.2272 31.1264 40.8992 49.798401 59.571201 64.015999 72.915199 87.142403 91.587196 103.1424"
               y="0"
               sodipodi:role="line"
               id="tspan19865">Mechanism D </tspan></text>
</g><g
           id="g19869"
           transform="translate(924,211)"><text
             transform="scale(1,-1)"
             style="font-style:italic;font-variant:normal;font-size:13px;font-family:Arial;-inkscape-font-specification:Arial-ItalicMT;writing-mode:lr-tb;fill:#000000;fill-opacity:1;fill-rule:nonzero;stroke:none"
             id="text19873"><tspan
               x="0 9.3886003 16.6192 23.8498 31.0804 33.969002 43.357601 50.5882 53.476799 60.707401 64.318802 67.930199 77.318802 85.989799 95.378403"
               y="0"
               sodipodi:role="line"
               id="tspan19871">NodelRole.INPUT</tspan></text>
</g><g
           id="g19875"
           transform="translate(924,211)"><text
             transform="matrix(1,0,0,-1,103.3145,0)"
             style="font-variant:normal;font-weight:normal;font-size:13px;font-family:'Lucida Grande';-inkscape-font-specification:LucidaGrande;writing-mode:lr-tb;fill:#000000;fill-opacity:1;fill-rule:nonzero;stroke:none"
             id="text19879"><tspan
               x="0"
               y="0"
               id="tspan19877"> </tspan></text>
</g><g
           id="g19881"
           transform="translate(921,196)"><text
             transform="scale(1,-1)"
             style="font-style:italic;font-variant:normal;font-size:13px;font-family:Arial;-inkscape-font-specification:Arial-ItalicMT;writing-mode:lr-tb;fill:#000000;fill-opacity:1;fill-rule:nonzero;stroke:none"
             id="text19885"><tspan
               x="0 9.3886003 16.6192 23.8498 31.0804 40.469002 47.6996 50.5882 57.818802 61.435398 71.552002 80.940598 84.557198 94.673798 98.290398"
               y="0"
               sodipodi:role="line"
               id="tspan19883">NodeRole.ORIGIN</tspan></text>
</g></g></g><g
       id="g19887"><g
         id="g19889"
         clip-path="url(#clipPath19893)"><path
           d="m 601.3128,592.6197 h 184.633 v -54.3341 h -184.633 z"
           style="fill:#fdfdc5;fill-opacity:1;fill-rule:nonzero;stroke:none"
           id="path19895"
           inkscape:connector-curvature="0" /><g
           id="g19897"
           transform="matrix(1,0,0,-1,601.3128,592.6197)"><path
             d="M 0,0 H 184.633 V 54.33413 H 0 Z"
             style="fill:none;stroke:#fdfdc5;stroke-width:0.25;stroke-linecap:butt;stroke-linejoin:round;stroke-miterlimit:4;stroke-dasharray:none;stroke-opacity:1"
             id="path19899"
             inkscape:connector-curvature="0" /></g></g></g><g
       id="g19901"><g
         id="g19903"
         clip-path="url(#clipPath19907)"><g
           id="g19909"
           transform="translate(610,559)" /></g></g><g
       id="g19911"><g
         id="g19913"
         clip-path="url(#clipPath19917)"><g
           id="g19919"
           transform="translate(642,568)"><text
             transform="scale(1,-1)"
             style="font-variant:normal;font-weight:bold;font-size:16px;font-family:Arial;-inkscape-font-specification:Arial-BoldMT;writing-mode:lr-tb;fill:#000000;fill-opacity:1;fill-rule:nonzero;stroke:none"
             id="text19923"><tspan
               x="0 13.328 22.2272 31.1264 40.8992 49.798401 59.571201 64.015999 72.915199 87.142403 91.587196 103.1424"
               y="0"
               sodipodi:role="line"
               id="tspan19921">Mechanism C </tspan></text>
</g><g
           id="g19925"
           transform="translate(635,553)"><text
             transform="scale(1,-1)"
             style="font-style:italic;font-variant:normal;font-size:13px;font-family:Arial;-inkscape-font-specification:Arial-ItalicMT;writing-mode:lr-tb;fill:#000000;fill-opacity:1;fill-rule:nonzero;stroke:none"
             id="text19929"><tspan
               x="0 9.3886003 16.6192 23.8498 31.0804 33.969002 43.357601 50.5882 53.476799 60.707401 64.318802 74.430199 83.818802 91.759201 100.4302 109.8188"
               y="0"
               sodipodi:role="line"
               id="tspan19927">NodelRole.OUTPUT</tspan></text>
</g><g
           id="g19931"
           transform="matrix(1,0,0,-1,790.415,554.9112)"><path
             d="m 146.7552,0 c 1.1438,28.42153 -23.4927,50.26982 -73.90974,65.54488 l -9.79819,2.04057"
             style="fill:none;stroke:#70bf41;stroke-width:20;stroke-linecap:butt;stroke-linejoin:miter;stroke-miterlimit:4;stroke-dasharray:none;stroke-opacity:1"
             id="path19933"
             inkscape:connector-curvature="0" /></g><path
           d="M 855.6677,525.7832 790.415,474.1955 870.8368,452.946 Z"
           style="fill:#70bf41;fill-opacity:1;fill-rule:nonzero;stroke:none"
           id="path19935"
           inkscape:connector-curvature="0" /><path
           d="m 934.4114,668.2419 -16.7765,-0.0258 33.3221,-48.8073 33.1717,48.9096 -16.7765,-0.0258 -0.0359,23.3116 -32.9407,-0.0507 z"
           style="fill:#de6a0f;fill-opacity:1;fill-rule:nonzero;stroke:none"
           id="path19937"
           inkscape:connector-curvature="0" /><g
           id="g19939"
           transform="matrix(1,0,0,-1,793.7922,708.848)"><path
             d="M 0,0 C 106.0912,0.3544738 158.8585,6.700938 158.3018,19.03939"
             style="fill:none;stroke:#de6a10;stroke-width:30;stroke-linecap:butt;stroke-linejoin:miter;stroke-miterlimit:4;stroke-dasharray:none;stroke-opacity:1"
             id="path19941"
             inkscape:connector-curvature="0" /></g><g
           id="g19943"
           transform="translate(935,660)"><text
             transform="scale(1,-1)"
             style="font-variant:normal;font-weight:bold;font-size:8px;font-family:Arial;-inkscape-font-specification:Arial-BoldMT;writing-mode:lr-tb;fill:#fdfdc5;fill-opacity:1;fill-rule:nonzero;stroke:none"
             id="text19947"><tspan
               x="0 6.664 11.1136 16 20.8864 23.108801 27.995199 32.881599"
               y="0"
               sodipodi:role="line"
               id="tspan19945">Mapping </tspan></text>
</g><g
           id="g19949"
           transform="translate(932,651)"><text
             transform="scale(1,-1)"
             style="font-variant:normal;font-weight:bold;font-size:8px;font-family:Arial;-inkscape-font-specification:Arial-BoldMT;writing-mode:lr-tb;fill:#fdfdc5;fill-opacity:1;fill-rule:nonzero;stroke:none"
             id="text19953"><tspan
               x="0 5.336 8.4496002 13.336 15.5584 20.007999 24.4576 27.121599 29.344 34.2304"
               y="0"
               sodipodi:role="line"
               id="tspan19951">Projection</tspan></text>
</g><g
           id="g19955"
           transform="translate(822,487)"><text
             transform="scale(1,-1)"
             style="font-variant:normal;font-weight:bold;font-size:8px;font-family:Arial;-inkscape-font-specification:Arial-BoldMT;writing-mode:lr-tb;fill:#fdfdc5;fill-opacity:1;fill-rule:nonzero;stroke:none"
             id="text19959"><tspan
               x="0 4.8864002 9.3327999 13.7792 16.889601 21.775999 23.9984 28.8848 33.771198"
               y="0"
               sodipodi:role="line"
               id="tspan19957">Learning </tspan></text>
</g><g
           id="g19961"
           transform="translate(819,478)"><text
             transform="scale(1,-1)"
             style="font-variant:normal;font-weight:bold;font-size:8px;font-family:Arial;-inkscape-font-specification:Arial-BoldMT;writing-mode:lr-tb;fill:#fdfdc5;fill-opacity:1;fill-rule:nonzero;stroke:none"
             id="text19965"><tspan
               x="0 5.336 8.4496002 13.336 15.5584 20.007999 24.4576 27.121599 29.344 34.2304"
               y="0"
               sodipodi:role="line"
               id="tspan19963">Projection</tspan></text>
</g><g
           id="g19967"
           transform="translate(518,464)"><text
             transform="scale(1,-1)"
             style="font-variant:normal;font-weight:bold;font-size:9px;font-family:Arial;-inkscape-font-specification:Arial-BoldMT;writing-mode:lr-tb;fill:#fdfdc5;fill-opacity:1;fill-rule:nonzero;stroke:none"
             id="text19971"><tspan
               x="0 7.4970002 12.5028 18 23.4972 25.9974 31.4946 36.991798"
               y="0"
               sodipodi:role="line"
               id="tspan19969">Mapping </tspan></text>
</g><g
           id="g19973"
           transform="translate(515,454)"><text
             transform="scale(1,-1)"
             style="font-variant:normal;font-weight:bold;font-size:9px;font-family:Arial;-inkscape-font-specification:Arial-BoldMT;writing-mode:lr-tb;fill:#fdfdc5;fill-opacity:1;fill-rule:nonzero;stroke:none"
             id="text19977"><tspan
               x="0 6.0029998 9.5058002 15.003 17.503201 22.509001 27.514799 30.511801 33.012001 38.509201"
               y="0"
               sodipodi:role="line"
               id="tspan19975">Projection</tspan></text>
</g><path
           d="m 1003.708,518.1077 -16.2878,-7.3228 53.0628,-30.4911 12.412,59.9278 -16.288,-7.3228 -18.092,40.2413 -32.899,-14.7911 z"
           style="fill:#de6a0f;fill-opacity:1;fill-rule:nonzero;stroke:none"
           id="path19979"
           inkscape:connector-curvature="0" /></g></g><g
       id="g19981"><g
         id="g19983"
         clip-path="url(#clipPath19987)"><path
           d="m 852.067,620.6303 h 219.657 v -64.641 H 852.067 Z"
           style="fill:#fdfdc5;fill-opacity:1;fill-rule:nonzero;stroke:none"
           id="path19989"
           inkscape:connector-curvature="0" /><g
           id="g19991"
           transform="matrix(1,0,0,-1,852.067,620.6303)"><path
             d="M 0,0 H 219.6569 V 64.64102 H 0 Z"
             style="fill:none;stroke:#fdfdc5;stroke-width:0.25;stroke-linecap:butt;stroke-linejoin:round;stroke-miterlimit:4;stroke-dasharray:none;stroke-opacity:1"
             id="path19993"
             inkscape:connector-curvature="0" /></g></g></g><g
       id="g19995"><g
         id="g19997"
         clip-path="url(#clipPath20001)"><g
           id="g20003"
           transform="translate(894,591)"><text
             transform="scale(1,-1)"
             style="font-variant:normal;font-weight:bold;font-size:14px;font-family:Arial;-inkscape-font-specification:Arial-BoldMT;writing-mode:lr-tb;fill:#000000;fill-opacity:1;fill-rule:nonzero;stroke:none"
             id="text20007"><tspan
               x="0 8.5511999 16.337999 24.1248 29.573601 38.124802 42.014 50.565201 59.116402 70.778397 78.565201 86.351997 94.903198 102.69 111.2412 115.1304 122.9172 135.366"
               y="0"
               sodipodi:role="line"
               id="tspan20005">LearningMechanism </tspan></text>
</g><g
           id="g20009"
           transform="translate(898,576)"><text
             transform="scale(1,-1)"
             style="font-style:italic;font-variant:normal;font-size:13px;font-family:Arial;-inkscape-font-specification:Arial-ItalicMT;writing-mode:lr-tb;fill:#000000;fill-opacity:1;fill-rule:nonzero;stroke:none"
             id="text20013"><tspan
               x="0 9.3886003 16.6192 23.8498 31.0804 40.469002 47.6996 50.5882 57.818802 61.430199 68.660797 77.331802 86.0028 95.391403 104.78 108.3914 117.78"
               y="0"
               sodipodi:role="line"
               id="tspan20011">NodeRole.LEARNING</tspan></text>
</g></g></g><g
       id="g20015"><g
         id="g20017"
         clip-path="url(#clipPath20021)"><g
           id="g20023"
           transform="translate(1008,519)"><text
             transform="scale(1,-1)"
             style="font-variant:normal;font-weight:bold;font-size:8px;font-family:Arial;-inkscape-font-specification:Arial-BoldMT;writing-mode:lr-tb;fill:#fdfdc5;fill-opacity:1;fill-rule:nonzero;stroke:none"
             id="text20027"><tspan
               x="0 6.664 11.1136 16 20.8864 23.108801 27.995199 32.881599"
               y="0"
               sodipodi:role="line"
               id="tspan20025">Mapping </tspan></text>
</g><g
           id="g20029"
           transform="translate(1005,510)"><text
             transform="scale(1,-1)"
             style="font-variant:normal;font-weight:bold;font-size:8px;font-family:Arial;-inkscape-font-specification:Arial-BoldMT;writing-mode:lr-tb;fill:#fdfdc5;fill-opacity:1;fill-rule:nonzero;stroke:none"
             id="text20033"><tspan
               x="0 5.336 8.4496002 13.336 15.5584 20.007999 24.4576 27.121599 29.344 34.2304"
               y="0"
               sodipodi:role="line"
               id="tspan20031">Projection</tspan></text>
</g></g></g><g
       id="g20035"><g
         id="g20037"
         clip-path="url(#clipPath20041)"><path
           d="M 585.4696,744.7587 H 795.4312 V 682.9708 H 585.4696 Z"
           style="fill:#fdfdc5;fill-opacity:1;fill-rule:nonzero;stroke:none"
           id="path20043"
           inkscape:connector-curvature="0" /><g
           id="g20045"
           transform="matrix(1,0,0,-1,585.4696,744.7587)"><path
             d="M 0,0 H 209.9616 V 61.78787 H 0 Z"
             style="fill:none;stroke:#fdfdc5;stroke-width:0.25;stroke-linecap:butt;stroke-linejoin:round;stroke-miterlimit:4;stroke-dasharray:none;stroke-opacity:1"
             id="path20047"
             inkscape:connector-curvature="0" /></g></g></g><g
       id="g20049"><g
         id="g20051"
         clip-path="url(#clipPath20055)"><g
           id="g20057"
           transform="translate(613,716)"><text
             transform="scale(1,-1)"
             style="font-variant:normal;font-weight:bold;font-size:14px;font-family:Arial;-inkscape-font-specification:Arial-BoldMT;writing-mode:lr-tb;fill:#000000;fill-opacity:1;fill-rule:nonzero;stroke:none"
             id="text20061"><tspan
               x="0 10.1108 18.662001 31.1108 39.661999 47.448799 52.897598 60.684399 65.346397 73.897598 79.346397 91.0084 98.795197 106.582 115.1332 122.92 131.47121 135.3604 143.1472 155.59599"
               y="0"
               sodipodi:role="line"
               id="tspan20059">ComparatorMechanism </tspan></text>
</g><g
           id="g20063"
           transform="translate(627,701)"><text
             transform="scale(1,-1)"
             style="font-style:italic;font-variant:normal;font-size:13px;font-family:Arial;-inkscape-font-specification:Arial-ItalicMT;writing-mode:lr-tb;fill:#000000;fill-opacity:1;fill-rule:nonzero;stroke:none"
             id="text20067"><tspan
               x="0 9.3886003 16.6192 23.8498 31.0804 40.469002 47.6996 50.5882 57.818802 61.430199 68.660797 77.331802 86.0028 95.391403 104.78 108.3914 117.78"
               y="0"
               sodipodi:role="line"
               id="tspan20065">NodeRole.LEARNING</tspan></text>
</g></g></g></g></svg>