<?xml version="1.0" encoding="utf-8"?>
<!-- Generator: Adobe Illustrator 25.3.1, SVG Export Plug-In . SVG Version: 6.00 Build 0)  -->
<svg version="1.1" id="Layer_1" xmlns="http://www.w3.org/2000/svg" xmlns:xlink="http://www.w3.org/1999/xlink" x="0px" y="0px"
	 viewBox="0 0 1194 498" style="enable-background:new 0 0 1194 498;" xml:space="preserve">
<style type="text/css">
	.st0{font-family:'Times-Roman';}
	.st1{font-size:14px;}
	.st2{fill:none;stroke:#00FF00;stroke-width:3;stroke-miterlimit:10;}
	.st3{font-family:'ArialMT';}
	.st4{font-size:12px;}
	.st5{fill:none;stroke:#000000;stroke-miterlimit:10;}
	.st6{fill:none;stroke:#FF0000;stroke-width:3;stroke-miterlimit:10;}
	.st7{fill:none;stroke:#0000FF;stroke-width:3;stroke-miterlimit:10;}
	.st8{fill:none;stroke:#0000FF;stroke-miterlimit:10;}
	.st9{fill:#0000FF;}
</style>
<text transform="matrix(1 0 0 1 546.9609 451.2002)" class="st0 st1">EM_Composition</text>
<ellipse class="st2" cx="105.2" cy="418" rx="65.4" ry="18"/>
<text transform="matrix(1 0 0 1 61.3154 420.7002)"><tspan x="0" y="0" class="st3 st4">V</tspan><tspan x="7.1" y="0" class="st3 st4">ALUE 1 INPUT</tspan></text>
<ellipse class="st2" cx="244.2" cy="418" rx="56" ry="18"/>
<text transform="matrix(1 0 0 1 207.6484 420.7002)"><tspan x="0" y="0" class="st3 st4">KE</tspan><tspan x="16" y="0" class="st3 st4">Y</tspan><tspan x="23.8" y="0" class="st3 st4"> 1 INPUT</tspan></text>
<ellipse class="st5" cx="244.2" cy="346" rx="59.8" ry="18"/>
<text transform="matrix(1 0 0 1 204.7627 348.7002)"><tspan x="0" y="0" class="st3 st4">M</tspan><tspan x="10" y="0" class="st3 st4">A</tspan><tspan x="17.1" y="0" class="st3 st4">TCH KE</tspan><tspan x="61.1" y="0" class="st3 st4">Y</tspan><tspan x="68.9" y="0" class="st3 st4"> 1</tspan></text>
<path class="st5" d="M244.2,399.8c0-7.7,0-16.9,0-25.4"/>
<polygon points="240.7,374.4 244.2,364.4 247.7,374.4 "/>
<polygon class="st5" points="240.7,374.4 244.2,364.4 247.7,374.4 "/>
<ellipse class="st2" cx="748.2" cy="418" rx="56" ry="18"/>
<text transform="matrix(1 0 0 1 711.6484 420.7002)"><tspan x="0" y="0" class="st3 st4">KE</tspan><tspan x="16" y="0" class="st3 st4">Y</tspan><tspan x="23.8" y="0" class="st3 st4"> 0 INPUT</tspan></text>
<ellipse class="st5" cx="748.2" cy="346" rx="59.8" ry="18"/>
<text transform="matrix(1 0 0 1 708.7627 348.7002)"><tspan x="0" y="0" class="st3 st4">M</tspan><tspan x="10" y="0" class="st3 st4">A</tspan><tspan x="17.1" y="0" class="st3 st4">TCH KE</tspan><tspan x="61.1" y="0" class="st3 st4">Y</tspan><tspan x="68.9" y="0" class="st3 st4"> 0</tspan></text>
<path class="st5" d="M748.2,399.8c0-7.7,0-16.9,0-25.4"/>
<polygon points="744.7,374.4 748.2,364.4 751.7,374.4 "/>
<polygon class="st5" points="744.7,374.4 748.2,364.4 751.7,374.4 "/>
<ellipse class="st2" cx="887.2" cy="418" rx="65.4" ry="18"/>
<text transform="matrix(1 0 0 1 843.3154 420.7002)"><tspan x="0" y="0" class="st3 st4">V</tspan><tspan x="7.1" y="0" class="st3 st4">ALUE 0 INPUT</tspan></text>
<ellipse class="st5" cx="496.2" cy="130" rx="51.3" ry="18"/>
<text transform="matrix(1 0 0 1 463.3193 132.7007)"><tspan x="0" y="0" class="st3 st4">RETRIE</tspan><tspan x="44" y="0" class="st3 st4">V</tspan><tspan x="51.1" y="0" class="st3 st4">AL</tspan></text>
<ellipse class="st6" cx="231.2" cy="58" rx="86" ry="18"/>
<text transform="matrix(1 0 0 1 170.9766 60.7007)"><tspan x="0" y="0" class="st3 st4">V</tspan><tspan x="7.1" y="0" class="st3 st4">ALUE 1 RETRIEVED</tspan></text>
<path class="st5" d="M455.4,118.9C412.2,107.2,343.7,88.6,293.7,75"/>
<polygon points="292.7,78.3 284,72.3 294.5,71.6 "/>
<polygon class="st5" points="292.7,78.3 284,72.3 294.5,71.6 "/>
<ellipse class="st6" cx="411.2" cy="58" rx="76.6" ry="18"/>
<text transform="matrix(1 0 0 1 358.3096 60.7007)"><tspan x="0" y="0" class="st3 st4">KE</tspan><tspan x="16" y="0" class="st3 st4">Y</tspan><tspan x="23.8" y="0" class="st3 st4"> 1 RETRIEVED</tspan></text>
<path class="st5" d="M476.5,113.3c-11-9.3-24.9-21.1-37.1-31.4"/>
<polygon points="437.1,84.5 431.7,75.4 441.6,79.2 "/>
<polygon class="st5" points="437.1,84.5 431.7,75.4 441.6,79.2 "/>
<ellipse class="st6" cx="582.2" cy="58" rx="76.6" ry="18"/>
<text transform="matrix(1 0 0 1 529.3096 60.7007)"><tspan x="0" y="0" class="st3 st4">KE</tspan><tspan x="16" y="0" class="st3 st4">Y</tspan><tspan x="23.8" y="0" class="st3 st4"> 0 RETRIEVED</tspan></text>
<path class="st5" d="M516.2,113.3c11.2-9.3,25.2-21.1,37.5-31.4"/>
<polygon points="551.6,79.1 561.5,75.4 556.1,84.5 "/>
<polygon class="st5" points="551.6,79.1 561.5,75.4 556.1,84.5 "/>
<ellipse class="st6" cx="762.2" cy="58" rx="86" ry="18"/>
<text transform="matrix(1 0 0 1 701.9766 60.7007)"><tspan x="0" y="0" class="st3 st4">V</tspan><tspan x="7.1" y="0" class="st3 st4">ALUE 0 RETRIEVED</tspan></text>
<path class="st5" d="M536.9,119c43.4-11.7,112.6-30.5,162.9-44.1"/>
<polygon points="699.1,71.5 709.6,72.2 700.9,78.2 "/>
<polygon class="st5" points="699.1,71.5 709.6,72.2 700.9,78.2 "/>
<ellipse class="st5" cx="748.2" cy="202" rx="52.6" ry="18"/>
<text transform="matrix(1 0 0 1 714.2119 204.7007)" class="st3 st4">SOFTMAX 0</text>
<path class="st5" d="M707.7,190.4c-44-12.6-114.4-32.7-161.8-46.2"/>
<polygon points="544.8,147.5 536.2,141.4 546.8,140.8 "/>
<polygon class="st5" points="544.8,147.5 536.2,141.4 546.8,140.8 "/>
<ellipse class="st5" cx="431.2" cy="202" rx="52.6" ry="18"/>
<text transform="matrix(1 0 0 1 397.2119 204.7007)" class="st3 st4">SOFTMAX 1</text>
<path class="st5" d="M447,184.6c8.1-8.9,18-20,26.9-29.8"/>
<polygon points="471.3,152.3 480.6,147.3 476.5,157 "/>
<polygon class="st5" points="471.3,152.3 480.6,147.3 476.5,157 "/>
<path class="st5" d="M222.8,329.1c-21.3-18.9-48.2-49.8-29.6-73.1c21.7-27.2,113.4-41.7,176.4-48.6"/>
<polygon points="369.6,203.9 379.9,206.3 370.3,210.8 "/>
<polygon class="st5" points="369.6,203.9 379.9,206.3 370.3,210.8 "/>
<ellipse class="st7" cx="314.2" cy="274" rx="112" ry="18"/>
<text transform="matrix(1 0 0 1 233.0967 276.7002)"><tspan x="0" y="0" class="st3 st4">SOFTMAX GAIN CONTRO</tspan><tspan x="146" y="0" class="st3 st4">L</tspan><tspan x="152.2" y="0" class="st3 st4"> 1</tspan></text>
<path class="st5" d="M261.2,328.6c8.5-8.7,18.9-19.5,28.3-29.1"/>
<polygon points="287.2,296.8 296.7,292 292.2,301.6 "/>
<polygon class="st5" points="287.2,296.8 296.7,292 292.2,301.6 "/>
<path class="st8" d="M342.5,256.6c16.4-10.1,37-22.8,54.3-33.4"/>
<rect x="398.1" y="215.9" transform="matrix(0.8517 -0.5241 0.5241 0.8517 -55.59 243.3804)" class="st9" width="8" height="8"/>
<rect x="398.1" y="215.9" transform="matrix(0.8517 -0.5241 0.5241 0.8517 -55.59 243.3804)" class="st8" width="8" height="8"/>
<line class="st8" x1="398.7" y1="222" x2="397" y2="223"/>
<path class="st5" d="M725.7,329.1c-10.8-9.6-22.7-22.5-28.5-37.1c-5.9-14.9-5.9-21.1,0-36c4.6-11.5,12.9-22,21.5-30.5"/>
<polygon points="716.5,222.7 726.2,218.4 721.3,227.8 "/>
<polygon class="st5" points="716.5,222.7 726.2,218.4 721.3,227.8 "/>
<ellipse class="st7" cx="818.2" cy="274" rx="112" ry="18"/>
<text transform="matrix(1 0 0 1 737.0967 276.7002)"><tspan x="0" y="0" class="st3 st4">SOFTMAX GAIN CONTRO</tspan><tspan x="146" y="0" class="st3 st4">L</tspan><tspan x="152.2" y="0" class="st3 st4"> 0</tspan></text>
<path class="st5" d="M765.2,328.6c8.5-8.7,18.9-19.5,28.3-29.1"/>
<polygon points="791.2,296.8 800.7,292 796.2,301.6 "/>
<polygon class="st5" points="791.2,296.8 800.7,292 796.2,301.6 "/>
<path class="st8" d="M800.9,256.2c-8.8-9-19.6-20.1-29.1-29.9"/>
<rect x="763.6" y="218" transform="matrix(0.717 -0.6971 0.6971 0.717 62.5143 597.9119)" class="st9" width="8" height="8"/>
<rect x="763.6" y="218" transform="matrix(0.717 -0.6971 0.6971 0.717 62.5143 597.9119)" class="st8" width="8" height="8"/>
<line class="st8" x1="770.4" y1="224.8" x2="771.8" y2="226.3"/>
<ellipse class="st7" cx="1051.2" cy="274" rx="103.1" ry="18"/>
<text transform="matrix(1 0 0 1 977.207 276.7002)"><tspan x="0" y="0" class="st3 st4">RETRIE</tspan><tspan x="44" y="0" class="st3 st4">V</tspan><tspan x="51.1" y="0" class="st3 st4">A</tspan><tspan x="59.1" y="0" class="st3 st4">L</tspan><tspan x="65.4" y="0" class="st3 st4"> WEIGHTING 0</tspan></text>
<path class="st8" d="M989.9,259.4c-55.2-13.1-135.6-32.2-188.3-44.7"/>
<rect x="791.7" y="209.3" transform="matrix(0.2312 -0.9729 0.9729 0.2312 404.2424 938.1226)" class="st9" width="8" height="8"/>
<rect x="791.7" y="209.3" transform="matrix(0.2312 -0.9729 0.9729 0.2312 404.2424 938.1226)" class="st8" width="8" height="8"/>
<line class="st8" x1="799.6" y1="214.2" x2="801.5" y2="214.7"/>
<ellipse class="st7" cx="547.2" cy="274" rx="103.1" ry="18"/>
<text transform="matrix(1 0 0 1 473.207 276.7002)"><tspan x="0" y="0" class="st3 st4">RETRIE</tspan><tspan x="44" y="0" class="st3 st4">V</tspan><tspan x="51.1" y="0" class="st3 st4">A</tspan><tspan x="59.1" y="0" class="st3 st4">L</tspan><tspan x="65.4" y="0" class="st3 st4"> WEIGHTING 1</tspan></text>
<path class="st8" d="M519.1,256.6c-16.2-10.1-36.7-22.8-53.9-33.4"/>
<rect x="456.1" y="215.9" transform="matrix(0.5274 -0.8496 0.8496 0.5274 30.6035 494.8237)" class="st9" width="8" height="8"/>
<rect x="456.1" y="215.9" transform="matrix(0.5274 -0.8496 0.8496 0.5274 30.6035 494.8237)" class="st8" width="8" height="8"/>
<line class="st8" x1="463.5" y1="222" x2="465.2" y2="223.1"/>
</svg>
