<?xml version="1.0" encoding="utf-8" standalone="no"?>
<!DOCTYPE svg PUBLIC "-//W3C//DTD SVG 1.1//EN"
  "http://www.w3.org/Graphics/SVG/1.1/DTD/svg11.dtd">
<!-- Created with matplotlib (http://matplotlib.org/) -->
<svg height="345pt" version="1.1" viewBox="0 0 460 345" width="460pt" xmlns="http://www.w3.org/2000/svg" xmlns:xlink="http://www.w3.org/1999/xlink">
 <defs>
  <style type="text/css">
*{stroke-linecap:butt;stroke-linejoin:round;}
  </style>
 </defs>
 <g id="figure_1">
  <g id="patch_1">
   <path d="M 0 345.6 
L 460.8 345.6 
L 460.8 0 
L 0 0 
z
" style="fill:#ffffff;"/>
  </g>
  <g id="axes_1">
   <g id="patch_2">
    <path d="M 57.6 119.740235 
L 135.234783 119.740235 
L 135.234783 41.472 
L 57.6 41.472 
z
" style="fill:#ffffff;"/>
   </g>
   <g id="matplotlib.axis_1">
    <g id="xtick_1">
     <g id="line2d_1">
      <defs>
       <path d="M 0 0 
L 0 3.5 
" id="ma3c4ec50b5" style="stroke:#000000;stroke-width:0.8;"/>
      </defs>
      <g>
       <use style="stroke:#000000;stroke-width:0.8;" x="61.128854" xlink:href="#ma3c4ec50b5" y="119.740235"/>
      </g>
     </g>
    </g>
    <g id="xtick_2">
     <g id="line2d_2">
      <g>
       <use style="stroke:#000000;stroke-width:0.8;" x="98.971789" xlink:href="#ma3c4ec50b5" y="119.740235"/>
      </g>
     </g>
    </g>
   </g>
   <g id="matplotlib.axis_2">
    <g id="ytick_1">
     <g id="line2d_3">
      <defs>
       <path d="M 0 0 
L -3.5 0 
" id="m792040671f" style="stroke:#000000;stroke-width:0.8;"/>
      </defs>
      <g>
       <use style="stroke:#000000;stroke-width:0.8;" x="57.6" xlink:href="#m792040671f" y="116.182588"/>
      </g>
     </g>
     <g id="text_1">
      <!-- 0 -->
      <defs>
       <path d="M 31.78125 66.40625 
Q 24.171875 66.40625 20.328125 58.90625 
Q 16.5 51.421875 16.5 36.375 
Q 16.5 21.390625 20.328125 13.890625 
Q 24.171875 6.390625 31.78125 6.390625 
Q 39.453125 6.390625 43.28125 13.890625 
Q 47.125 21.390625 47.125 36.375 
Q 47.125 51.421875 43.28125 58.90625 
Q 39.453125 66.40625 31.78125 66.40625 
M 31.78125 74.21875 
Q 44.046875 74.21875 50.515625 64.515625 
Q 56.984375 54.828125 56.984375 36.375 
Q 56.984375 17.96875 50.515625 8.265625 
Q 44.046875 -1.421875 31.78125 -1.421875 
Q 19.53125 -1.421875 13.0625 8.265625 
Q 6.59375 17.96875 6.59375 36.375 
Q 6.59375 54.828125 13.0625 64.515625 
Q 19.53125 74.21875 31.78125 74.21875 
" id="DejaVuSans-30"/>
      </defs>
      <g transform="translate(44.2375 119.981807)scale(0.1 -0.1)">
       <use xlink:href="#DejaVuSans-30"/>
      </g>
     </g>
    </g>
    <g id="ytick_2">
     <g id="line2d_4">
      <g>
       <use style="stroke:#000000;stroke-width:0.8;" x="57.6" xlink:href="#m792040671f" y="78.523123"/>
      </g>
     </g>
     <g id="text_2">
      <!-- 0.4 -->
      <defs>
       <path d="M 10.6875 12.40625 
L 21 12.40625 
L 21 0 
L 10.6875 0 
z
" id="DejaVuSans-2e"/>
       <path d="M 37.796875 64.3125 
L 12.890625 25.390625 
L 37.796875 25.390625 
z
M 35.203125 72.90625 
L 47.609375 72.90625 
L 47.609375 25.390625 
L 58.015625 25.390625 
L 58.015625 17.1875 
L 47.609375 17.1875 
L 47.609375 0 
L 37.796875 0 
L 37.796875 17.1875 
L 4.890625 17.1875 
L 4.890625 26.703125 
z
" id="DejaVuSans-34"/>
      </defs>
      <g transform="translate(34.696875 82.322342)scale(0.1 -0.1)">
       <use xlink:href="#DejaVuSans-30"/>
       <use x="63.623047" xlink:href="#DejaVuSans-2e"/>
       <use x="95.410156" xlink:href="#DejaVuSans-34"/>
      </g>
     </g>
    </g>
    <g id="ytick_3">
     <g id="line2d_5">
      <g>
       <use style="stroke:#000000;stroke-width:0.8;" x="57.6" xlink:href="#m792040671f" y="41.805144"/>
      </g>
     </g>
     <g id="text_3">
      <!-- 0.8 -->
      <defs>
       <path d="M 31.78125 34.625 
Q 24.75 34.625 20.71875 30.859375 
Q 16.703125 27.09375 16.703125 20.515625 
Q 16.703125 13.921875 20.71875 10.15625 
Q 24.75 6.390625 31.78125 6.390625 
Q 38.8125 6.390625 42.859375 10.171875 
Q 46.921875 13.96875 46.921875 20.515625 
Q 46.921875 27.09375 42.890625 30.859375 
Q 38.875 34.625 31.78125 34.625 
M 21.921875 38.8125 
Q 15.578125 40.375 12.03125 44.71875 
Q 8.5 49.078125 8.5 55.328125 
Q 8.5 64.0625 14.71875 69.140625 
Q 20.953125 74.21875 31.78125 74.21875 
Q 42.671875 74.21875 48.875 69.140625 
Q 55.078125 64.0625 55.078125 55.328125 
Q 55.078125 49.078125 51.53125 44.71875 
Q 48 40.375 41.703125 38.8125 
Q 48.828125 37.15625 52.796875 32.3125 
Q 56.78125 27.484375 56.78125 20.515625 
Q 56.78125 9.90625 50.3125 4.234375 
Q 43.84375 -1.421875 31.78125 -1.421875 
Q 19.734375 -1.421875 13.25 4.234375 
Q 6.78125 9.90625 6.78125 20.515625 
Q 6.78125 27.484375 10.78125 32.3125 
Q 14.796875 37.15625 21.921875 38.8125 
M 18.3125 54.390625 
Q 18.3125 48.734375 21.84375 45.5625 
Q 25.390625 42.390625 31.78125 42.390625 
Q 38.140625 42.390625 41.71875 45.5625 
Q 45.3125 48.734375 45.3125 54.390625 
Q 45.3125 60.0625 41.71875 63.234375 
Q 38.140625 66.40625 31.78125 66.40625 
Q 25.390625 66.40625 21.84375 63.234375 
Q 18.3125 60.0625 18.3125 54.390625 
" id="DejaVuSans-38"/>
      </defs>
      <g transform="translate(34.696875 45.604363)scale(0.1 -0.1)">
       <use xlink:href="#DejaVuSans-30"/>
       <use x="63.623047" xlink:href="#DejaVuSans-2e"/>
       <use x="95.410156" xlink:href="#DejaVuSans-38"/>
      </g>
     </g>
    </g>
    <g id="text_4">
     <!-- Congruent -->
     <defs>
      <path d="M 64.40625 67.28125 
L 64.40625 56.890625 
Q 59.421875 61.53125 53.78125 63.8125 
Q 48.140625 66.109375 41.796875 66.109375 
Q 29.296875 66.109375 22.65625 58.46875 
Q 16.015625 50.828125 16.015625 36.375 
Q 16.015625 21.96875 22.65625 14.328125 
Q 29.296875 6.6875 41.796875 6.6875 
Q 48.140625 6.6875 53.78125 8.984375 
Q 59.421875 11.28125 64.40625 15.921875 
L 64.40625 5.609375 
Q 59.234375 2.09375 53.4375 0.328125 
Q 47.65625 -1.421875 41.21875 -1.421875 
Q 24.65625 -1.421875 15.125 8.703125 
Q 5.609375 18.84375 5.609375 36.375 
Q 5.609375 53.953125 15.125 64.078125 
Q 24.65625 74.21875 41.21875 74.21875 
Q 47.75 74.21875 53.53125 72.484375 
Q 59.328125 70.75 64.40625 67.28125 
" id="DejaVuSans-43"/>
      <path d="M 30.609375 48.390625 
Q 23.390625 48.390625 19.1875 42.75 
Q 14.984375 37.109375 14.984375 27.296875 
Q 14.984375 17.484375 19.15625 11.84375 
Q 23.34375 6.203125 30.609375 6.203125 
Q 37.796875 6.203125 41.984375 11.859375 
Q 46.1875 17.53125 46.1875 27.296875 
Q 46.1875 37.015625 41.984375 42.703125 
Q 37.796875 48.390625 30.609375 48.390625 
M 30.609375 56 
Q 42.328125 56 49.015625 48.375 
Q 55.71875 40.765625 55.71875 27.296875 
Q 55.71875 13.875 49.015625 6.21875 
Q 42.328125 -1.421875 30.609375 -1.421875 
Q 18.84375 -1.421875 12.171875 6.21875 
Q 5.515625 13.875 5.515625 27.296875 
Q 5.515625 40.765625 12.171875 48.375 
Q 18.84375 56 30.609375 56 
" id="DejaVuSans-6f"/>
      <path d="M 54.890625 33.015625 
L 54.890625 0 
L 45.90625 0 
L 45.90625 32.71875 
Q 45.90625 40.484375 42.875 44.328125 
Q 39.84375 48.1875 33.796875 48.1875 
Q 26.515625 48.1875 22.3125 43.546875 
Q 18.109375 38.921875 18.109375 30.90625 
L 18.109375 0 
L 9.078125 0 
L 9.078125 54.6875 
L 18.109375 54.6875 
L 18.109375 46.1875 
Q 21.34375 51.125 25.703125 53.5625 
Q 30.078125 56 35.796875 56 
Q 45.21875 56 50.046875 50.171875 
Q 54.890625 44.34375 54.890625 33.015625 
" id="DejaVuSans-6e"/>
      <path d="M 45.40625 27.984375 
Q 45.40625 37.75 41.375 43.109375 
Q 37.359375 48.484375 30.078125 48.484375 
Q 22.859375 48.484375 18.828125 43.109375 
Q 14.796875 37.75 14.796875 27.984375 
Q 14.796875 18.265625 18.828125 12.890625 
Q 22.859375 7.515625 30.078125 7.515625 
Q 37.359375 7.515625 41.375 12.890625 
Q 45.40625 18.265625 45.40625 27.984375 
M 54.390625 6.78125 
Q 54.390625 -7.171875 48.1875 -13.984375 
Q 42 -20.796875 29.203125 -20.796875 
Q 24.46875 -20.796875 20.265625 -20.09375 
Q 16.0625 -19.390625 12.109375 -17.921875 
L 12.109375 -9.1875 
Q 16.0625 -11.328125 19.921875 -12.34375 
Q 23.78125 -13.375 27.78125 -13.375 
Q 36.625 -13.375 41.015625 -8.765625 
Q 45.40625 -4.15625 45.40625 5.171875 
L 45.40625 9.625 
Q 42.625 4.78125 38.28125 2.390625 
Q 33.9375 0 27.875 0 
Q 17.828125 0 11.671875 7.65625 
Q 5.515625 15.328125 5.515625 27.984375 
Q 5.515625 40.671875 11.671875 48.328125 
Q 17.828125 56 27.875 56 
Q 33.9375 56 38.28125 53.609375 
Q 42.625 51.21875 45.40625 46.390625 
L 45.40625 54.6875 
L 54.390625 54.6875 
z
" id="DejaVuSans-67"/>
      <path d="M 41.109375 46.296875 
Q 39.59375 47.171875 37.8125 47.578125 
Q 36.03125 48 33.890625 48 
Q 26.265625 48 22.1875 43.046875 
Q 18.109375 38.09375 18.109375 28.8125 
L 18.109375 0 
L 9.078125 0 
L 9.078125 54.6875 
L 18.109375 54.6875 
L 18.109375 46.1875 
Q 20.953125 51.171875 25.484375 53.578125 
Q 30.03125 56 36.53125 56 
Q 37.453125 56 38.578125 55.875 
Q 39.703125 55.765625 41.0625 55.515625 
z
" id="DejaVuSans-72"/>
      <path d="M 8.5 21.578125 
L 8.5 54.6875 
L 17.484375 54.6875 
L 17.484375 21.921875 
Q 17.484375 14.15625 20.5 10.265625 
Q 23.53125 6.390625 29.59375 6.390625 
Q 36.859375 6.390625 41.078125 11.03125 
Q 45.3125 15.671875 45.3125 23.6875 
L 45.3125 54.6875 
L 54.296875 54.6875 
L 54.296875 0 
L 45.3125 0 
L 45.3125 8.40625 
Q 42.046875 3.421875 37.71875 1 
Q 33.40625 -1.421875 27.6875 -1.421875 
Q 18.265625 -1.421875 13.375 4.4375 
Q 8.5 10.296875 8.5 21.578125 
M 31.109375 56 
z
" id="DejaVuSans-75"/>
      <path d="M 56.203125 29.59375 
L 56.203125 25.203125 
L 14.890625 25.203125 
Q 15.484375 15.921875 20.484375 11.0625 
Q 25.484375 6.203125 34.421875 6.203125 
Q 39.59375 6.203125 44.453125 7.46875 
Q 49.3125 8.734375 54.109375 11.28125 
L 54.109375 2.78125 
Q 49.265625 0.734375 44.1875 -0.34375 
Q 39.109375 -1.421875 33.890625 -1.421875 
Q 20.796875 -1.421875 13.15625 6.1875 
Q 5.515625 13.8125 5.515625 26.8125 
Q 5.515625 40.234375 12.765625 48.109375 
Q 20.015625 56 32.328125 56 
Q 43.359375 56 49.78125 48.890625 
Q 56.203125 41.796875 56.203125 29.59375 
M 47.21875 32.234375 
Q 47.125 39.59375 43.09375 43.984375 
Q 39.0625 48.390625 32.421875 48.390625 
Q 24.90625 48.390625 20.390625 44.140625 
Q 15.875 39.890625 15.1875 32.171875 
z
" id="DejaVuSans-65"/>
      <path d="M 18.3125 70.21875 
L 18.3125 54.6875 
L 36.8125 54.6875 
L 36.8125 47.703125 
L 18.3125 47.703125 
L 18.3125 18.015625 
Q 18.3125 11.328125 20.140625 9.421875 
Q 21.96875 7.515625 27.59375 7.515625 
L 36.8125 7.515625 
L 36.8125 0 
L 27.59375 0 
Q 17.1875 0 13.234375 3.875 
Q 9.28125 7.765625 9.28125 18.015625 
L 9.28125 47.703125 
L 2.6875 47.703125 
L 2.6875 54.6875 
L 9.28125 54.6875 
L 9.28125 70.21875 
z
" id="DejaVuSans-74"/>
     </defs>
     <g transform="translate(28.617187 106.929555)rotate(-90)scale(0.1 -0.1)">
      <use xlink:href="#DejaVuSans-43"/>
      <use x="69.824219" xlink:href="#DejaVuSans-6f"/>
      <use x="131.005859" xlink:href="#DejaVuSans-6e"/>
      <use x="194.384766" xlink:href="#DejaVuSans-67"/>
      <use x="257.861328" xlink:href="#DejaVuSans-72"/>
      <use x="298.974609" xlink:href="#DejaVuSans-75"/>
      <use x="362.353516" xlink:href="#DejaVuSans-65"/>
      <use x="423.876953" xlink:href="#DejaVuSans-6e"/>
      <use x="487.255859" xlink:href="#DejaVuSans-74"/>
     </g>
    </g>
   </g>
   <g id="line2d_6">
    <path clip-path="url(#p1184ce32cf)" d="M 61.128854 116.009727 
L 63.683252 115.902412 
L 65.196969 115.577503 
L 66.805294 114.98652 
L 68.792048 113.990525 
L 73.71163 111.419746 
L 76.171421 110.460193 
L 78.915034 109.636742 
L 82.60472 108.780029 
L 91.687024 107.004452 
L 97.079643 105.788412 
L 101.147758 104.649977 
L 104.553622 103.470247 
L 107.391843 102.261361 
L 109.851633 100.982734 
L 112.027602 99.607371 
L 113.919749 98.160082 
L 115.622681 96.591111 
L 117.231006 94.802762 
L 118.650116 92.900512 
L 119.974619 90.768384 
L 121.393729 88.028553 
L 122.812839 84.792374 
L 124.137342 81.164605 
L 124.326556 80.588815 
L 124.326556 80.588815 
" style="fill:none;stroke:#00bfbf;stroke-linecap:square;stroke-width:1.5;"/>
   </g>
   <g id="line2d_7">
    <path clip-path="url(#p1184ce32cf)" d="M 61.128854 116.182588 
L 64.061681 116.076196 
L 65.670006 115.729816 
L 67.467545 115.097892 
L 70.968017 113.538291 
L 73.333201 112.635306 
L 75.509169 112.047426 
L 77.779745 111.665857 
L 80.428751 111.450814 
L 83.645401 111.418766 
L 87.808123 111.609323 
L 93.484564 112.107028 
L 101.053151 113.003977 
L 109.473204 114.222268 
L 117.136399 115.548997 
L 121.0153 116.182588 
L 124.326556 116.182588 
L 124.326556 116.182588 
" style="fill:none;stroke:#000000;stroke-linecap:square;stroke-width:1.5;"/>
   </g>
   <g id="line2d_8">
    <path clip-path="url(#p1184ce32cf)" d="M 61.128854 116.182588 
L 64.629325 116.084232 
L 65.670006 115.820115 
L 66.521472 115.356219 
L 67.278331 114.670488 
L 68.03519 113.667072 
L 68.886656 112.120006 
L 69.832729 109.892398 
L 71.062624 106.342048 
L 73.333201 98.878172 
L 75.414562 92.353035 
L 76.928279 88.284572 
L 78.34739 85.078803 
L 79.671892 82.601061 
L 80.996395 80.573783 
L 82.320898 78.94215 
L 83.645401 77.651385 
L 84.969903 76.651311 
L 86.389013 75.852812 
L 87.902731 75.262957 
L 89.511056 74.8845 
L 91.213988 74.718601 
L 93.011527 74.767769 
L 94.903674 75.038974 
L 96.890428 75.547084 
L 98.877182 76.278502 
L 100.863936 77.241492 
L 102.85069 78.458273 
L 104.742837 79.887237 
L 106.540377 81.532853 
L 108.243309 83.4031 
L 109.851633 85.507359 
L 111.365351 87.854414 
L 112.784461 90.450319 
L 114.203571 93.517188 
L 115.528074 96.903459 
L 116.852577 100.916591 
L 118.082472 105.337612 
L 119.312367 110.587325 
L 120.542263 116.182588 
L 124.326556 116.182588 
L 124.326556 116.182588 
" style="fill:none;stroke:#ff0000;stroke-linecap:square;stroke-width:1.5;"/>
   </g>
   <g id="patch_3">
    <path d="M 57.6 119.740235 
L 57.6 41.472 
" style="fill:none;stroke:#000000;stroke-linecap:square;stroke-linejoin:miter;stroke-width:0.8;"/>
   </g>
   <g id="patch_4">
    <path d="M 135.234783 119.740235 
L 135.234783 41.472 
" style="fill:none;stroke:#000000;stroke-linecap:square;stroke-linejoin:miter;stroke-width:0.8;"/>
   </g>
   <g id="patch_5">
    <path d="M 57.6 119.740235 
L 135.234783 119.740235 
" style="fill:none;stroke:#000000;stroke-linecap:square;stroke-linejoin:miter;stroke-width:0.8;"/>
   </g>
   <g id="patch_6">
    <path d="M 57.6 41.472 
L 135.234783 41.472 
" style="fill:none;stroke:#000000;stroke-linecap:square;stroke-linejoin:miter;stroke-width:0.8;"/>
   </g>
   <g id="text_5">
    <!-- Task demand units -->
    <defs>
     <path d="M -0.296875 72.90625 
L 61.375 72.90625 
L 61.375 64.59375 
L 35.5 64.59375 
L 35.5 0 
L 25.59375 0 
L 25.59375 64.59375 
L -0.296875 64.59375 
z
" id="DejaVuSans-54"/>
     <path d="M 34.28125 27.484375 
Q 23.390625 27.484375 19.1875 25 
Q 14.984375 22.515625 14.984375 16.5 
Q 14.984375 11.71875 18.140625 8.90625 
Q 21.296875 6.109375 26.703125 6.109375 
Q 34.1875 6.109375 38.703125 11.40625 
Q 43.21875 16.703125 43.21875 25.484375 
L 43.21875 27.484375 
z
M 52.203125 31.203125 
L 52.203125 0 
L 43.21875 0 
L 43.21875 8.296875 
Q 40.140625 3.328125 35.546875 0.953125 
Q 30.953125 -1.421875 24.3125 -1.421875 
Q 15.921875 -1.421875 10.953125 3.296875 
Q 6 8.015625 6 15.921875 
Q 6 25.140625 12.171875 29.828125 
Q 18.359375 34.515625 30.609375 34.515625 
L 43.21875 34.515625 
L 43.21875 35.40625 
Q 43.21875 41.609375 39.140625 45 
Q 35.0625 48.390625 27.6875 48.390625 
Q 23 48.390625 18.546875 47.265625 
Q 14.109375 46.140625 10.015625 43.890625 
L 10.015625 52.203125 
Q 14.9375 54.109375 19.578125 55.046875 
Q 24.21875 56 28.609375 56 
Q 40.484375 56 46.34375 49.84375 
Q 52.203125 43.703125 52.203125 31.203125 
" id="DejaVuSans-61"/>
     <path d="M 44.28125 53.078125 
L 44.28125 44.578125 
Q 40.484375 46.53125 36.375 47.5 
Q 32.28125 48.484375 27.875 48.484375 
Q 21.1875 48.484375 17.84375 46.4375 
Q 14.5 44.390625 14.5 40.28125 
Q 14.5 37.15625 16.890625 35.375 
Q 19.28125 33.59375 26.515625 31.984375 
L 29.59375 31.296875 
Q 39.15625 29.25 43.1875 25.515625 
Q 47.21875 21.78125 47.21875 15.09375 
Q 47.21875 7.46875 41.1875 3.015625 
Q 35.15625 -1.421875 24.609375 -1.421875 
Q 20.21875 -1.421875 15.453125 -0.5625 
Q 10.6875 0.296875 5.421875 2 
L 5.421875 11.28125 
Q 10.40625 8.6875 15.234375 7.390625 
Q 20.0625 6.109375 24.8125 6.109375 
Q 31.15625 6.109375 34.5625 8.28125 
Q 37.984375 10.453125 37.984375 14.40625 
Q 37.984375 18.0625 35.515625 20.015625 
Q 33.0625 21.96875 24.703125 23.78125 
L 21.578125 24.515625 
Q 13.234375 26.265625 9.515625 29.90625 
Q 5.8125 33.546875 5.8125 39.890625 
Q 5.8125 47.609375 11.28125 51.796875 
Q 16.75 56 26.8125 56 
Q 31.78125 56 36.171875 55.265625 
Q 40.578125 54.546875 44.28125 53.078125 
" id="DejaVuSans-73"/>
     <path d="M 9.078125 75.984375 
L 18.109375 75.984375 
L 18.109375 31.109375 
L 44.921875 54.6875 
L 56.390625 54.6875 
L 27.390625 29.109375 
L 57.625 0 
L 45.90625 0 
L 18.109375 26.703125 
L 18.109375 0 
L 9.078125 0 
z
" id="DejaVuSans-6b"/>
     <path id="DejaVuSans-20"/>
     <path d="M 45.40625 46.390625 
L 45.40625 75.984375 
L 54.390625 75.984375 
L 54.390625 0 
L 45.40625 0 
L 45.40625 8.203125 
Q 42.578125 3.328125 38.25 0.953125 
Q 33.9375 -1.421875 27.875 -1.421875 
Q 17.96875 -1.421875 11.734375 6.484375 
Q 5.515625 14.40625 5.515625 27.296875 
Q 5.515625 40.1875 11.734375 48.09375 
Q 17.96875 56 27.875 56 
Q 33.9375 56 38.25 53.625 
Q 42.578125 51.265625 45.40625 46.390625 
M 14.796875 27.296875 
Q 14.796875 17.390625 18.875 11.75 
Q 22.953125 6.109375 30.078125 6.109375 
Q 37.203125 6.109375 41.296875 11.75 
Q 45.40625 17.390625 45.40625 27.296875 
Q 45.40625 37.203125 41.296875 42.84375 
Q 37.203125 48.484375 30.078125 48.484375 
Q 22.953125 48.484375 18.875 42.84375 
Q 14.796875 37.203125 14.796875 27.296875 
" id="DejaVuSans-64"/>
     <path d="M 52 44.1875 
Q 55.375 50.25 60.0625 53.125 
Q 64.75 56 71.09375 56 
Q 79.640625 56 84.28125 50.015625 
Q 88.921875 44.046875 88.921875 33.015625 
L 88.921875 0 
L 79.890625 0 
L 79.890625 32.71875 
Q 79.890625 40.578125 77.09375 44.375 
Q 74.3125 48.1875 68.609375 48.1875 
Q 61.625 48.1875 57.5625 43.546875 
Q 53.515625 38.921875 53.515625 30.90625 
L 53.515625 0 
L 44.484375 0 
L 44.484375 32.71875 
Q 44.484375 40.625 41.703125 44.40625 
Q 38.921875 48.1875 33.109375 48.1875 
Q 26.21875 48.1875 22.15625 43.53125 
Q 18.109375 38.875 18.109375 30.90625 
L 18.109375 0 
L 9.078125 0 
L 9.078125 54.6875 
L 18.109375 54.6875 
L 18.109375 46.1875 
Q 21.1875 51.21875 25.484375 53.609375 
Q 29.78125 56 35.6875 56 
Q 41.65625 56 45.828125 52.96875 
Q 50 49.953125 52 44.1875 
" id="DejaVuSans-6d"/>
     <path d="M 9.421875 54.6875 
L 18.40625 54.6875 
L 18.40625 0 
L 9.421875 0 
z
M 9.421875 75.984375 
L 18.40625 75.984375 
L 18.40625 64.59375 
L 9.421875 64.59375 
z
" id="DejaVuSans-69"/>
    </defs>
    <g transform="translate(53.574579 35.472)scale(0.09 -0.09)">
     <use xlink:href="#DejaVuSans-54"/>
     <use x="60.833984" xlink:href="#DejaVuSans-61"/>
     <use x="122.113281" xlink:href="#DejaVuSans-73"/>
     <use x="174.212891" xlink:href="#DejaVuSans-6b"/>
     <use x="232.123047" xlink:href="#DejaVuSans-20"/>
     <use x="263.910156" xlink:href="#DejaVuSans-64"/>
     <use x="327.386719" xlink:href="#DejaVuSans-65"/>
     <use x="388.910156" xlink:href="#DejaVuSans-6d"/>
     <use x="486.322266" xlink:href="#DejaVuSans-61"/>
     <use x="547.601562" xlink:href="#DejaVuSans-6e"/>
     <use x="610.980469" xlink:href="#DejaVuSans-64"/>
     <use x="674.457031" xlink:href="#DejaVuSans-20"/>
     <use x="706.244141" xlink:href="#DejaVuSans-75"/>
     <use x="769.623047" xlink:href="#DejaVuSans-6e"/>
     <use x="833.001953" xlink:href="#DejaVuSans-69"/>
     <use x="860.785156" xlink:href="#DejaVuSans-74"/>
     <use x="899.994141" xlink:href="#DejaVuSans-73"/>
    </g>
   </g>
  </g>
  <g id="axes_2">
   <g id="patch_7">
    <path d="M 150.761739 119.740235 
L 228.396522 119.740235 
L 228.396522 41.472 
L 150.761739 41.472 
z
" style="fill:#ffffff;"/>
   </g>
   <g id="matplotlib.axis_3">
    <g id="xtick_3">
     <g id="line2d_9">
      <g>
       <use style="stroke:#000000;stroke-width:0.8;" x="154.290593" xlink:href="#ma3c4ec50b5" y="119.740235"/>
      </g>
     </g>
    </g>
    <g id="xtick_4">
     <g id="line2d_10">
      <g>
       <use style="stroke:#000000;stroke-width:0.8;" x="192.133529" xlink:href="#ma3c4ec50b5" y="119.740235"/>
      </g>
     </g>
    </g>
   </g>
   <g id="matplotlib.axis_4">
    <g id="ytick_4">
     <g id="line2d_11">
      <g>
       <use style="stroke:#000000;stroke-width:0.8;" x="150.761739" xlink:href="#m792040671f" y="116.182588"/>
      </g>
     </g>
    </g>
    <g id="ytick_5">
     <g id="line2d_12">
      <g>
       <use style="stroke:#000000;stroke-width:0.8;" x="150.761739" xlink:href="#m792040671f" y="78.523123"/>
      </g>
     </g>
    </g>
    <g id="ytick_6">
     <g id="line2d_13">
      <g>
       <use style="stroke:#000000;stroke-width:0.8;" x="150.761739" xlink:href="#m792040671f" y="41.805144"/>
      </g>
     </g>
    </g>
   </g>
   <g id="line2d_14">
    <path clip-path="url(#p2e96b8de5a)" d="M 154.290593 114.489211 
L 156.371954 114.382893 
L 157.318028 114.090298 
L 158.169494 113.614066 
L 159.02096 112.883967 
L 159.967033 111.744523 
L 161.386143 109.592045 
L 162.426824 108.180517 
L 163.089075 107.635327 
L 163.562112 107.487694 
L 164.035149 107.560332 
L 164.508186 107.846948 
L 165.170437 108.555836 
L 166.11651 109.971144 
L 168.008657 112.87948 
L 169.049338 114.031458 
L 169.995411 114.758223 
L 171.036092 115.281401 
L 172.265987 115.649169 
L 173.968919 115.907987 
L 176.712532 116.067149 
L 182.862009 116.142448 
L 199.89133 116.091639 
L 204.716305 115.905996 
L 206.797666 115.630906 
L 208.122169 115.244565 
L 209.068242 114.738699 
L 209.825101 114.070663 
L 210.487352 113.154311 
L 211.054996 111.969323 
L 211.62264 110.204888 
L 212.190285 107.547072 
L 212.757929 103.529312 
L 213.325573 97.522457 
L 214.177039 84.973842 
L 215.501541 66.34286 
L 216.447615 56.23288 
L 217.299081 49.370905 
L 217.488296 48.082677 
L 217.488296 48.082677 
" style="fill:none;stroke:#0000ff;stroke-linecap:square;stroke-width:1.5;"/>
   </g>
   <g id="line2d_15">
    <path clip-path="url(#p2e96b8de5a)" d="M 154.290593 114.489211 
L 159.399389 114.592911 
L 161.196929 114.875746 
L 166.778762 116.031583 
L 169.711589 116.152499 
L 178.415464 116.181792 
L 213.514787 116.080791 
L 216.069185 116.037982 
L 217.488296 116.078244 
L 217.488296 116.078244 
" style="fill:none;stroke:#ff0000;stroke-linecap:square;stroke-width:1.5;"/>
   </g>
   <g id="patch_8">
    <path d="M 150.761739 119.740235 
L 150.761739 41.472 
" style="fill:none;stroke:#000000;stroke-linecap:square;stroke-linejoin:miter;stroke-width:0.8;"/>
   </g>
   <g id="patch_9">
    <path d="M 228.396522 119.740235 
L 228.396522 41.472 
" style="fill:none;stroke:#000000;stroke-linecap:square;stroke-linejoin:miter;stroke-width:0.8;"/>
   </g>
   <g id="patch_10">
    <path d="M 150.761739 119.740235 
L 228.396522 119.740235 
" style="fill:none;stroke:#000000;stroke-linecap:square;stroke-linejoin:miter;stroke-width:0.8;"/>
   </g>
   <g id="patch_11">
    <path d="M 150.761739 41.472 
L 228.396522 41.472 
" style="fill:none;stroke:#000000;stroke-linecap:square;stroke-linejoin:miter;stroke-width:0.8;"/>
   </g>
   <g id="text_6">
    <!-- Response units -->
    <defs>
     <path d="M 44.390625 34.1875 
Q 47.5625 33.109375 50.5625 29.59375 
Q 53.5625 26.078125 56.59375 19.921875 
L 66.609375 0 
L 56 0 
L 46.6875 18.703125 
Q 43.0625 26.03125 39.671875 28.421875 
Q 36.28125 30.8125 30.421875 30.8125 
L 19.671875 30.8125 
L 19.671875 0 
L 9.8125 0 
L 9.8125 72.90625 
L 32.078125 72.90625 
Q 44.578125 72.90625 50.734375 67.671875 
Q 56.890625 62.453125 56.890625 51.90625 
Q 56.890625 45.015625 53.6875 40.46875 
Q 50.484375 35.9375 44.390625 34.1875 
M 19.671875 64.796875 
L 19.671875 38.921875 
L 32.078125 38.921875 
Q 39.203125 38.921875 42.84375 42.21875 
Q 46.484375 45.515625 46.484375 51.90625 
Q 46.484375 58.296875 42.84375 61.546875 
Q 39.203125 64.796875 32.078125 64.796875 
z
" id="DejaVuSans-52"/>
     <path d="M 18.109375 8.203125 
L 18.109375 -20.796875 
L 9.078125 -20.796875 
L 9.078125 54.6875 
L 18.109375 54.6875 
L 18.109375 46.390625 
Q 20.953125 51.265625 25.265625 53.625 
Q 29.59375 56 35.59375 56 
Q 45.5625 56 51.78125 48.09375 
Q 58.015625 40.1875 58.015625 27.296875 
Q 58.015625 14.40625 51.78125 6.484375 
Q 45.5625 -1.421875 35.59375 -1.421875 
Q 29.59375 -1.421875 25.265625 0.953125 
Q 20.953125 3.328125 18.109375 8.203125 
M 48.6875 27.296875 
Q 48.6875 37.203125 44.609375 42.84375 
Q 40.53125 48.484375 33.40625 48.484375 
Q 26.265625 48.484375 22.1875 42.84375 
Q 18.109375 37.203125 18.109375 27.296875 
Q 18.109375 17.390625 22.1875 11.75 
Q 26.265625 6.109375 33.40625 6.109375 
Q 40.53125 6.109375 44.609375 11.75 
Q 48.6875 17.390625 48.6875 27.296875 
" id="DejaVuSans-70"/>
    </defs>
    <g transform="translate(155.274365 35.472)scale(0.09 -0.09)">
     <use xlink:href="#DejaVuSans-52"/>
     <use x="69.419922" xlink:href="#DejaVuSans-65"/>
     <use x="130.943359" xlink:href="#DejaVuSans-73"/>
     <use x="183.042969" xlink:href="#DejaVuSans-70"/>
     <use x="246.519531" xlink:href="#DejaVuSans-6f"/>
     <use x="307.701172" xlink:href="#DejaVuSans-6e"/>
     <use x="371.080078" xlink:href="#DejaVuSans-73"/>
     <use x="423.179688" xlink:href="#DejaVuSans-65"/>
     <use x="484.703125" xlink:href="#DejaVuSans-20"/>
     <use x="516.490234" xlink:href="#DejaVuSans-75"/>
     <use x="579.869141" xlink:href="#DejaVuSans-6e"/>
     <use x="643.248047" xlink:href="#DejaVuSans-69"/>
     <use x="671.03125" xlink:href="#DejaVuSans-74"/>
     <use x="710.240234" xlink:href="#DejaVuSans-73"/>
    </g>
   </g>
  </g>
  <g id="axes_3">
   <g id="patch_12">
    <path d="M 243.923478 119.740235 
L 321.558261 119.740235 
L 321.558261 41.472 
L 243.923478 41.472 
z
" style="fill:#ffffff;"/>
   </g>
   <g id="matplotlib.axis_5">
    <g id="xtick_5">
     <g id="line2d_16">
      <g>
       <use style="stroke:#000000;stroke-width:0.8;" x="247.452332" xlink:href="#ma3c4ec50b5" y="119.740235"/>
      </g>
     </g>
    </g>
    <g id="xtick_6">
     <g id="line2d_17">
      <g>
       <use style="stroke:#000000;stroke-width:0.8;" x="285.295268" xlink:href="#ma3c4ec50b5" y="119.740235"/>
      </g>
     </g>
    </g>
   </g>
   <g id="matplotlib.axis_6">
    <g id="ytick_7">
     <g id="line2d_18">
      <g>
       <use style="stroke:#000000;stroke-width:0.8;" x="243.923478" xlink:href="#m792040671f" y="116.182588"/>
      </g>
     </g>
    </g>
    <g id="ytick_8">
     <g id="line2d_19">
      <g>
       <use style="stroke:#000000;stroke-width:0.8;" x="243.923478" xlink:href="#m792040671f" y="78.523123"/>
      </g>
     </g>
    </g>
    <g id="ytick_9">
     <g id="line2d_20">
      <g>
       <use style="stroke:#000000;stroke-width:0.8;" x="243.923478" xlink:href="#m792040671f" y="41.805144"/>
      </g>
     </g>
    </g>
   </g>
   <g id="line2d_21">
    <path clip-path="url(#pb124be8558)" d="M 247.452332 115.594874 
L 248.114583 114.953651 
L 248.776835 113.963668 
L 249.533693 112.410574 
L 250.668982 109.473162 
L 253.317987 102.393132 
L 254.547882 99.790702 
L 255.777778 97.697842 
L 257.007673 96.029423 
L 258.332176 94.59968 
L 259.751286 93.384462 
L 261.359611 92.299242 
L 263.15715 91.35444 
L 265.238512 90.512748 
L 267.79291 89.730694 
L 271.104167 88.966954 
L 276.402178 88.007752 
L 285.20066 86.404509 
L 289.647205 85.355914 
L 293.147677 84.311688 
L 296.080504 83.214676 
L 298.634903 82.022353 
L 300.810871 80.76253 
L 302.703018 79.415412 
L 304.40595 77.931967 
L 305.919668 76.326135 
L 307.338778 74.498515 
L 308.757888 72.293606 
L 310.176998 69.647866 
L 310.650035 68.651733 
L 310.650035 68.651733 
" style="fill:none;stroke:#0000ff;stroke-linecap:square;stroke-width:1.5;"/>
   </g>
   <g id="line2d_22">
    <path clip-path="url(#pb124be8558)" d="M 247.452332 115.660965 
L 252.750343 115.77344 
L 259.940501 115.9547 
L 274.699246 116.005368 
L 310.650035 115.99975 
L 310.650035 115.99975 
" style="fill:none;stroke:#ff0000;stroke-linecap:square;stroke-width:1.5;"/>
   </g>
   <g id="patch_13">
    <path d="M 243.923478 119.740235 
L 243.923478 41.472 
" style="fill:none;stroke:#000000;stroke-linecap:square;stroke-linejoin:miter;stroke-width:0.8;"/>
   </g>
   <g id="patch_14">
    <path d="M 321.558261 119.740235 
L 321.558261 41.472 
" style="fill:none;stroke:#000000;stroke-linecap:square;stroke-linejoin:miter;stroke-width:0.8;"/>
   </g>
   <g id="patch_15">
    <path d="M 243.923478 119.740235 
L 321.558261 119.740235 
" style="fill:none;stroke:#000000;stroke-linecap:square;stroke-linejoin:miter;stroke-width:0.8;"/>
   </g>
   <g id="patch_16">
    <path d="M 243.923478 41.472 
L 321.558261 41.472 
" style="fill:none;stroke:#000000;stroke-linecap:square;stroke-linejoin:miter;stroke-width:0.8;"/>
   </g>
   <g id="text_7">
    <!-- Color feature map -->
    <defs>
     <path d="M 9.421875 75.984375 
L 18.40625 75.984375 
L 18.40625 0 
L 9.421875 0 
z
" id="DejaVuSans-6c"/>
     <path d="M 37.109375 75.984375 
L 37.109375 68.5 
L 28.515625 68.5 
Q 23.6875 68.5 21.796875 66.546875 
Q 19.921875 64.59375 19.921875 59.515625 
L 19.921875 54.6875 
L 34.71875 54.6875 
L 34.71875 47.703125 
L 19.921875 47.703125 
L 19.921875 0 
L 10.890625 0 
L 10.890625 47.703125 
L 2.296875 47.703125 
L 2.296875 54.6875 
L 10.890625 54.6875 
L 10.890625 58.5 
Q 10.890625 67.625 15.140625 71.796875 
Q 19.390625 75.984375 28.609375 75.984375 
z
" id="DejaVuSans-66"/>
    </defs>
    <g transform="translate(241.789463 35.472)scale(0.09 -0.09)">
     <use xlink:href="#DejaVuSans-43"/>
     <use x="69.824219" xlink:href="#DejaVuSans-6f"/>
     <use x="131.005859" xlink:href="#DejaVuSans-6c"/>
     <use x="158.789062" xlink:href="#DejaVuSans-6f"/>
     <use x="219.970703" xlink:href="#DejaVuSans-72"/>
     <use x="261.083984" xlink:href="#DejaVuSans-20"/>
     <use x="292.871094" xlink:href="#DejaVuSans-66"/>
     <use x="328.076172" xlink:href="#DejaVuSans-65"/>
     <use x="389.599609" xlink:href="#DejaVuSans-61"/>
     <use x="450.878906" xlink:href="#DejaVuSans-74"/>
     <use x="490.087891" xlink:href="#DejaVuSans-75"/>
     <use x="553.466797" xlink:href="#DejaVuSans-72"/>
     <use x="594.548828" xlink:href="#DejaVuSans-65"/>
     <use x="656.072266" xlink:href="#DejaVuSans-20"/>
     <use x="687.859375" xlink:href="#DejaVuSans-6d"/>
     <use x="785.271484" xlink:href="#DejaVuSans-61"/>
     <use x="846.550781" xlink:href="#DejaVuSans-70"/>
    </g>
   </g>
  </g>
  <g id="axes_4">
   <g id="patch_17">
    <path d="M 337.085217 119.740235 
L 414.72 119.740235 
L 414.72 41.472 
L 337.085217 41.472 
z
" style="fill:#ffffff;"/>
   </g>
   <g id="matplotlib.axis_7">
    <g id="xtick_7">
     <g id="line2d_23">
      <g>
       <use style="stroke:#000000;stroke-width:0.8;" x="340.614071" xlink:href="#ma3c4ec50b5" y="119.740235"/>
      </g>
     </g>
    </g>
    <g id="xtick_8">
     <g id="line2d_24">
      <g>
       <use style="stroke:#000000;stroke-width:0.8;" x="378.457007" xlink:href="#ma3c4ec50b5" y="119.740235"/>
      </g>
     </g>
    </g>
   </g>
   <g id="matplotlib.axis_8">
    <g id="ytick_10">
     <g id="line2d_25">
      <g>
       <use style="stroke:#000000;stroke-width:0.8;" x="337.085217" xlink:href="#m792040671f" y="116.182588"/>
      </g>
     </g>
    </g>
    <g id="ytick_11">
     <g id="line2d_26">
      <g>
       <use style="stroke:#000000;stroke-width:0.8;" x="337.085217" xlink:href="#m792040671f" y="78.523123"/>
      </g>
     </g>
    </g>
    <g id="ytick_12">
     <g id="line2d_27">
      <g>
       <use style="stroke:#000000;stroke-width:0.8;" x="337.085217" xlink:href="#m792040671f" y="41.805144"/>
      </g>
     </g>
    </g>
   </g>
   <g id="line2d_28">
    <path clip-path="url(#p478ddc844b)" d="M 340.614071 115.599088 
L 341.276323 114.962426 
L 341.938574 113.979392 
L 342.695433 112.437556 
L 343.830721 109.522651 
L 346.479726 102.514219 
L 347.709622 99.957448 
L 348.939517 97.921981 
L 350.169412 96.324508 
L 351.493915 94.986994 
L 352.913025 93.888323 
L 354.426743 93.003093 
L 356.129675 92.272561 
L 358.021822 91.706494 
L 360.19779 91.288851 
L 362.846796 91.016784 
L 366.158053 90.916676 
L 370.415383 91.022992 
L 376.375645 91.407918 
L 384.984913 92.199804 
L 395.107899 93.351882 
L 403.054915 94.241024 
L 403.811774 94.273194 
L 403.811774 94.273194 
" style="fill:none;stroke:#0000ff;stroke-linecap:square;stroke-width:1.5;"/>
   </g>
   <g id="line2d_29">
    <path clip-path="url(#p478ddc844b)" d="M 340.614071 115.664707 
L 345.912082 115.776328 
L 353.196847 115.958605 
L 368.239414 116.009616 
L 403.811774 116.014138 
L 403.811774 116.014138 
" style="fill:none;stroke:#ff0000;stroke-linecap:square;stroke-width:1.5;"/>
   </g>
   <g id="patch_18">
    <path d="M 337.085217 119.740235 
L 337.085217 41.472 
" style="fill:none;stroke:#000000;stroke-linecap:square;stroke-linejoin:miter;stroke-width:0.8;"/>
   </g>
   <g id="patch_19">
    <path d="M 414.72 119.740235 
L 414.72 41.472 
" style="fill:none;stroke:#000000;stroke-linecap:square;stroke-linejoin:miter;stroke-width:0.8;"/>
   </g>
   <g id="patch_20">
    <path d="M 337.085217 119.740235 
L 414.72 119.740235 
" style="fill:none;stroke:#000000;stroke-linecap:square;stroke-linejoin:miter;stroke-width:0.8;"/>
   </g>
   <g id="patch_21">
    <path d="M 337.085217 41.472 
L 414.72 41.472 
" style="fill:none;stroke:#000000;stroke-linecap:square;stroke-linejoin:miter;stroke-width:0.8;"/>
   </g>
   <g id="text_8">
    <!-- Word feature map -->
    <defs>
     <path d="M 3.328125 72.90625 
L 13.28125 72.90625 
L 28.609375 11.28125 
L 43.890625 72.90625 
L 54.984375 72.90625 
L 70.3125 11.28125 
L 85.59375 72.90625 
L 95.609375 72.90625 
L 77.296875 0 
L 64.890625 0 
L 49.515625 63.28125 
L 33.984375 0 
L 21.578125 0 
z
" id="DejaVuSans-57"/>
    </defs>
    <g transform="translate(334.795109 35.472)scale(0.09 -0.09)">
     <use xlink:href="#DejaVuSans-57"/>
     <use x="98.798828" xlink:href="#DejaVuSans-6f"/>
     <use x="159.980469" xlink:href="#DejaVuSans-72"/>
     <use x="201.078125" xlink:href="#DejaVuSans-64"/>
     <use x="264.554688" xlink:href="#DejaVuSans-20"/>
     <use x="296.341797" xlink:href="#DejaVuSans-66"/>
     <use x="331.546875" xlink:href="#DejaVuSans-65"/>
     <use x="393.070312" xlink:href="#DejaVuSans-61"/>
     <use x="454.349609" xlink:href="#DejaVuSans-74"/>
     <use x="493.558594" xlink:href="#DejaVuSans-75"/>
     <use x="556.9375" xlink:href="#DejaVuSans-72"/>
     <use x="598.019531" xlink:href="#DejaVuSans-65"/>
     <use x="659.542969" xlink:href="#DejaVuSans-20"/>
     <use x="691.330078" xlink:href="#DejaVuSans-6d"/>
     <use x="788.742188" xlink:href="#DejaVuSans-61"/>
     <use x="850.021484" xlink:href="#DejaVuSans-70"/>
    </g>
   </g>
  </g>
  <g id="axes_5">
   <g id="patch_22">
    <path d="M 57.6 213.662118 
L 135.234783 213.662118 
L 135.234783 135.393882 
L 57.6 135.393882 
z
" style="fill:#ffffff;"/>
   </g>
   <g id="matplotlib.axis_9">
    <g id="xtick_9">
     <g id="line2d_30">
      <g>
       <use style="stroke:#000000;stroke-width:0.8;" x="61.128854" xlink:href="#ma3c4ec50b5" y="213.662118"/>
      </g>
     </g>
    </g>
    <g id="xtick_10">
     <g id="line2d_31">
      <g>
       <use style="stroke:#000000;stroke-width:0.8;" x="98.971789" xlink:href="#ma3c4ec50b5" y="213.662118"/>
      </g>
     </g>
    </g>
   </g>
   <g id="matplotlib.axis_10">
    <g id="ytick_13">
     <g id="line2d_32">
      <g>
       <use style="stroke:#000000;stroke-width:0.8;" x="57.6" xlink:href="#m792040671f" y="210.104471"/>
      </g>
     </g>
     <g id="text_9">
      <!-- 0 -->
      <g transform="translate(44.2375 213.903689)scale(0.1 -0.1)">
       <use xlink:href="#DejaVuSans-30"/>
      </g>
     </g>
    </g>
    <g id="ytick_14">
     <g id="line2d_33">
      <g>
       <use style="stroke:#000000;stroke-width:0.8;" x="57.6" xlink:href="#m792040671f" y="172.445005"/>
      </g>
     </g>
     <g id="text_10">
      <!-- 0.4 -->
      <g transform="translate(34.696875 176.244224)scale(0.1 -0.1)">
       <use xlink:href="#DejaVuSans-30"/>
       <use x="63.623047" xlink:href="#DejaVuSans-2e"/>
       <use x="95.410156" xlink:href="#DejaVuSans-34"/>
      </g>
     </g>
    </g>
    <g id="ytick_15">
     <g id="line2d_34">
      <g>
       <use style="stroke:#000000;stroke-width:0.8;" x="57.6" xlink:href="#m792040671f" y="135.727026"/>
      </g>
     </g>
     <g id="text_11">
      <!-- 0.8 -->
      <g transform="translate(34.696875 139.526245)scale(0.1 -0.1)">
       <use xlink:href="#DejaVuSans-30"/>
       <use x="63.623047" xlink:href="#DejaVuSans-2e"/>
       <use x="95.410156" xlink:href="#DejaVuSans-38"/>
      </g>
     </g>
    </g>
    <g id="text_12">
     <!-- Neutral -->
     <defs>
      <path d="M 9.8125 72.90625 
L 23.09375 72.90625 
L 55.421875 11.921875 
L 55.421875 72.90625 
L 64.984375 72.90625 
L 64.984375 0 
L 51.703125 0 
L 19.390625 60.984375 
L 19.390625 0 
L 9.8125 0 
z
" id="DejaVuSans-4e"/>
     </defs>
     <g transform="translate(28.617187 192.982687)rotate(-90)scale(0.1 -0.1)">
      <use xlink:href="#DejaVuSans-4e"/>
      <use x="74.804688" xlink:href="#DejaVuSans-65"/>
      <use x="136.328125" xlink:href="#DejaVuSans-75"/>
      <use x="199.707031" xlink:href="#DejaVuSans-74"/>
      <use x="238.916016" xlink:href="#DejaVuSans-72"/>
      <use x="280.029297" xlink:href="#DejaVuSans-61"/>
      <use x="341.308594" xlink:href="#DejaVuSans-6c"/>
     </g>
    </g>
   </g>
   <g id="line2d_35">
    <path clip-path="url(#p7645d6f90d)" d="M 61.128854 209.93161 
L 63.683252 209.82361 
L 65.102362 209.5149 
L 66.521472 208.980124 
L 68.03519 208.167725 
L 69.927336 206.87294 
L 72.954771 204.478431 
L 79.7665 199.084902 
L 84.496867 195.268331 
L 87.145872 192.852263 
L 89.321841 190.56863 
L 91.11938 188.371394 
L 92.727705 186.06685 
L 94.241423 183.49841 
L 95.660533 180.619778 
L 96.985035 177.39483 
L 98.214931 173.809708 
L 99.444826 169.532468 
L 100.769329 164.043693 
L 102.188439 157.158021 
L 105.026659 142.07358 
L 105.026659 142.07358 
" style="fill:none;stroke:#00bfbf;stroke-linecap:square;stroke-width:1.5;"/>
   </g>
   <g id="line2d_36">
    <path clip-path="url(#p7645d6f90d)" d="M 61.128854 210.104471 
L 105.026659 210.104471 
L 105.026659 210.104471 
" style="fill:none;stroke:#000000;stroke-linecap:square;stroke-width:1.5;"/>
   </g>
   <g id="line2d_37">
    <path clip-path="url(#p7645d6f90d)" d="M 61.128854 210.104471 
L 105.026659 210.104471 
L 105.026659 210.104471 
" style="fill:none;stroke:#ff0000;stroke-linecap:square;stroke-width:1.5;"/>
   </g>
   <g id="patch_23">
    <path d="M 57.6 213.662118 
L 57.6 135.393882 
" style="fill:none;stroke:#000000;stroke-linecap:square;stroke-linejoin:miter;stroke-width:0.8;"/>
   </g>
   <g id="patch_24">
    <path d="M 135.234783 213.662118 
L 135.234783 135.393882 
" style="fill:none;stroke:#000000;stroke-linecap:square;stroke-linejoin:miter;stroke-width:0.8;"/>
   </g>
   <g id="patch_25">
    <path d="M 57.6 213.662118 
L 135.234783 213.662118 
" style="fill:none;stroke:#000000;stroke-linecap:square;stroke-linejoin:miter;stroke-width:0.8;"/>
   </g>
   <g id="patch_26">
    <path d="M 57.6 135.393882 
L 135.234783 135.393882 
" style="fill:none;stroke:#000000;stroke-linecap:square;stroke-linejoin:miter;stroke-width:0.8;"/>
   </g>
  </g>
  <g id="axes_6">
   <g id="patch_27">
    <path d="M 150.761739 213.662118 
L 228.396522 213.662118 
L 228.396522 135.393882 
L 150.761739 135.393882 
z
" style="fill:#ffffff;"/>
   </g>
   <g id="matplotlib.axis_11">
    <g id="xtick_11">
     <g id="line2d_38">
      <g>
       <use style="stroke:#000000;stroke-width:0.8;" x="154.290593" xlink:href="#ma3c4ec50b5" y="213.662118"/>
      </g>
     </g>
    </g>
    <g id="xtick_12">
     <g id="line2d_39">
      <g>
       <use style="stroke:#000000;stroke-width:0.8;" x="192.133529" xlink:href="#ma3c4ec50b5" y="213.662118"/>
      </g>
     </g>
    </g>
   </g>
   <g id="matplotlib.axis_12">
    <g id="ytick_16">
     <g id="line2d_40">
      <g>
       <use style="stroke:#000000;stroke-width:0.8;" x="150.761739" xlink:href="#m792040671f" y="210.104471"/>
      </g>
     </g>
    </g>
    <g id="ytick_17">
     <g id="line2d_41">
      <g>
       <use style="stroke:#000000;stroke-width:0.8;" x="150.761739" xlink:href="#m792040671f" y="172.445005"/>
      </g>
     </g>
    </g>
    <g id="ytick_18">
     <g id="line2d_42">
      <g>
       <use style="stroke:#000000;stroke-width:0.8;" x="150.761739" xlink:href="#m792040671f" y="135.727026"/>
      </g>
     </g>
    </g>
   </g>
   <g id="line2d_43">
    <path clip-path="url(#pd6f7ddbec5)" d="M 154.290593 208.411093 
L 156.939598 208.300571 
L 158.453316 207.979933 
L 159.967033 207.424243 
L 161.575358 206.589864 
L 163.656719 205.231424 
L 167.91405 202.092566 
L 179.26693 193.553257 
L 181.632114 191.355436 
L 183.618868 189.197691 
L 185.3218 187.015678 
L 186.835518 184.716383 
L 188.254628 182.144537 
L 189.57913 179.263225 
L 190.809026 176.05075 
L 192.038921 172.190104 
L 193.268817 167.553021 
L 194.593319 161.600662 
L 196.201644 153.181489 
L 198.188398 142.230663 
L 198.188398 142.230663 
" style="fill:none;stroke:#0000ff;stroke-linecap:square;stroke-width:1.5;"/>
   </g>
   <g id="line2d_44">
    <path clip-path="url(#pd6f7ddbec5)" d="M 154.290593 208.411093 
L 162.805253 208.520474 
L 185.889444 209.489223 
L 198.188398 210.001751 
L 198.188398 210.001751 
" style="fill:none;stroke:#008000;stroke-linecap:square;stroke-width:1.5;"/>
   </g>
   <g id="patch_28">
    <path d="M 150.761739 213.662118 
L 150.761739 135.393882 
" style="fill:none;stroke:#000000;stroke-linecap:square;stroke-linejoin:miter;stroke-width:0.8;"/>
   </g>
   <g id="patch_29">
    <path d="M 228.396522 213.662118 
L 228.396522 135.393882 
" style="fill:none;stroke:#000000;stroke-linecap:square;stroke-linejoin:miter;stroke-width:0.8;"/>
   </g>
   <g id="patch_30">
    <path d="M 150.761739 213.662118 
L 228.396522 213.662118 
" style="fill:none;stroke:#000000;stroke-linecap:square;stroke-linejoin:miter;stroke-width:0.8;"/>
   </g>
   <g id="patch_31">
    <path d="M 150.761739 135.393882 
L 228.396522 135.393882 
" style="fill:none;stroke:#000000;stroke-linecap:square;stroke-linejoin:miter;stroke-width:0.8;"/>
   </g>
  </g>
  <g id="axes_7">
   <g id="patch_32">
    <path d="M 243.923478 213.662118 
L 321.558261 213.662118 
L 321.558261 135.393882 
L 243.923478 135.393882 
z
" style="fill:#ffffff;"/>
   </g>
   <g id="matplotlib.axis_13">
    <g id="xtick_13">
     <g id="line2d_45">
      <g>
       <use style="stroke:#000000;stroke-width:0.8;" x="247.452332" xlink:href="#ma3c4ec50b5" y="213.662118"/>
      </g>
     </g>
    </g>
    <g id="xtick_14">
     <g id="line2d_46">
      <g>
       <use style="stroke:#000000;stroke-width:0.8;" x="285.295268" xlink:href="#ma3c4ec50b5" y="213.662118"/>
      </g>
     </g>
    </g>
   </g>
   <g id="matplotlib.axis_14">
    <g id="ytick_19">
     <g id="line2d_47">
      <g>
       <use style="stroke:#000000;stroke-width:0.8;" x="243.923478" xlink:href="#m792040671f" y="210.104471"/>
      </g>
     </g>
    </g>
    <g id="ytick_20">
     <g id="line2d_48">
      <g>
       <use style="stroke:#000000;stroke-width:0.8;" x="243.923478" xlink:href="#m792040671f" y="172.445005"/>
      </g>
     </g>
    </g>
    <g id="ytick_21">
     <g id="line2d_49">
      <g>
       <use style="stroke:#000000;stroke-width:0.8;" x="243.923478" xlink:href="#m792040671f" y="135.727026"/>
      </g>
     </g>
    </g>
   </g>
   <g id="line2d_50">
    <path clip-path="url(#p1358a0791b)" d="M 247.452332 209.516757 
L 248.114583 208.875534 
L 248.776835 207.88555 
L 249.533693 206.332456 
L 250.668982 203.394948 
L 253.317987 196.30609 
L 254.64249 193.503635 
L 255.872385 191.402483 
L 257.196888 189.563371 
L 258.710605 187.839178 
L 260.602752 186.041216 
L 263.062543 184.036221 
L 266.846837 181.278846 
L 272.901706 176.867055 
L 275.550712 174.642674 
L 277.632073 172.619819 
L 279.429613 170.577339 
L 281.037937 168.422964 
L 282.551655 166.013233 
L 283.970765 163.312826 
L 285.295268 160.306937 
L 286.61977 156.743876 
L 288.038881 152.263055 
L 289.931027 145.432141 
L 291.350137 140.174962 
L 291.350137 140.174962 
" style="fill:none;stroke:#0000ff;stroke-linecap:square;stroke-width:1.5;"/>
   </g>
   <g id="line2d_51">
    <path clip-path="url(#p1358a0791b)" d="M 247.452332 209.582847 
L 252.750343 209.695165 
L 259.845893 209.871518 
L 275.172282 209.918742 
L 291.350137 209.901915 
L 291.350137 209.901915 
" style="fill:none;stroke:#008000;stroke-linecap:square;stroke-width:1.5;"/>
   </g>
   <g id="patch_33">
    <path d="M 243.923478 213.662118 
L 243.923478 135.393882 
" style="fill:none;stroke:#000000;stroke-linecap:square;stroke-linejoin:miter;stroke-width:0.8;"/>
   </g>
   <g id="patch_34">
    <path d="M 321.558261 213.662118 
L 321.558261 135.393882 
" style="fill:none;stroke:#000000;stroke-linecap:square;stroke-linejoin:miter;stroke-width:0.8;"/>
   </g>
   <g id="patch_35">
    <path d="M 243.923478 213.662118 
L 321.558261 213.662118 
" style="fill:none;stroke:#000000;stroke-linecap:square;stroke-linejoin:miter;stroke-width:0.8;"/>
   </g>
   <g id="patch_36">
    <path d="M 243.923478 135.393882 
L 321.558261 135.393882 
" style="fill:none;stroke:#000000;stroke-linecap:square;stroke-linejoin:miter;stroke-width:0.8;"/>
   </g>
  </g>
  <g id="axes_8">
   <g id="patch_37">
    <path d="M 337.085217 213.662118 
L 414.72 213.662118 
L 414.72 135.393882 
L 337.085217 135.393882 
z
" style="fill:#ffffff;"/>
   </g>
   <g id="matplotlib.axis_15">
    <g id="xtick_15">
     <g id="line2d_52">
      <g>
       <use style="stroke:#000000;stroke-width:0.8;" x="340.614071" xlink:href="#ma3c4ec50b5" y="213.662118"/>
      </g>
     </g>
    </g>
    <g id="xtick_16">
     <g id="line2d_53">
      <g>
       <use style="stroke:#000000;stroke-width:0.8;" x="378.457007" xlink:href="#ma3c4ec50b5" y="213.662118"/>
      </g>
     </g>
    </g>
   </g>
   <g id="matplotlib.axis_16">
    <g id="ytick_22">
     <g id="line2d_54">
      <g>
       <use style="stroke:#000000;stroke-width:0.8;" x="337.085217" xlink:href="#m792040671f" y="210.104471"/>
      </g>
     </g>
    </g>
    <g id="ytick_23">
     <g id="line2d_55">
      <g>
       <use style="stroke:#000000;stroke-width:0.8;" x="337.085217" xlink:href="#m792040671f" y="172.445005"/>
      </g>
     </g>
    </g>
    <g id="ytick_24">
     <g id="line2d_56">
      <g>
       <use style="stroke:#000000;stroke-width:0.8;" x="337.085217" xlink:href="#m792040671f" y="135.727026"/>
      </g>
     </g>
    </g>
   </g>
   <g id="line2d_57">
    <path clip-path="url(#pb74e43f462)" d="M 340.614071 209.586589 
L 384.511877 209.587943 
L 384.511877 209.587943 
" style="fill:none;stroke:#0000ff;stroke-linecap:square;stroke-width:1.5;"/>
   </g>
   <g id="line2d_58">
    <path clip-path="url(#pb74e43f462)" d="M 340.614071 209.586589 
L 384.511877 209.587943 
L 384.511877 209.587943 
" style="fill:none;stroke:#008000;stroke-linecap:square;stroke-width:1.5;"/>
   </g>
   <g id="patch_38">
    <path d="M 337.085217 213.662118 
L 337.085217 135.393882 
" style="fill:none;stroke:#000000;stroke-linecap:square;stroke-linejoin:miter;stroke-width:0.8;"/>
   </g>
   <g id="patch_39">
    <path d="M 414.72 213.662118 
L 414.72 135.393882 
" style="fill:none;stroke:#000000;stroke-linecap:square;stroke-linejoin:miter;stroke-width:0.8;"/>
   </g>
   <g id="patch_40">
    <path d="M 337.085217 213.662118 
L 414.72 213.662118 
" style="fill:none;stroke:#000000;stroke-linecap:square;stroke-linejoin:miter;stroke-width:0.8;"/>
   </g>
   <g id="patch_41">
    <path d="M 337.085217 135.393882 
L 414.72 135.393882 
" style="fill:none;stroke:#000000;stroke-linecap:square;stroke-linejoin:miter;stroke-width:0.8;"/>
   </g>
  </g>
  <g id="axes_9">
   <g id="patch_42">
    <path d="M 57.6 307.584 
L 135.234783 307.584 
L 135.234783 229.315765 
L 57.6 229.315765 
z
" style="fill:#ffffff;"/>
   </g>
   <g id="matplotlib.axis_17">
    <g id="xtick_17">
     <g id="line2d_59">
      <g>
       <use style="stroke:#000000;stroke-width:0.8;" x="61.128854" xlink:href="#ma3c4ec50b5" y="307.584"/>
      </g>
     </g>
     <g id="text_13">
      <!-- 0 -->
      <g transform="translate(57.947604 322.182437)scale(0.1 -0.1)">
       <use xlink:href="#DejaVuSans-30"/>
      </g>
     </g>
    </g>
    <g id="xtick_18">
     <g id="line2d_60">
      <g>
       <use style="stroke:#000000;stroke-width:0.8;" x="98.971789" xlink:href="#ma3c4ec50b5" y="307.584"/>
      </g>
     </g>
     <g id="text_14">
      <!-- 400 -->
      <g transform="translate(89.428039 322.182437)scale(0.1 -0.1)">
       <use xlink:href="#DejaVuSans-34"/>
       <use x="63.623047" xlink:href="#DejaVuSans-30"/>
       <use x="127.246094" xlink:href="#DejaVuSans-30"/>
      </g>
     </g>
    </g>
   </g>
   <g id="matplotlib.axis_18">
    <g id="ytick_25">
     <g id="line2d_61">
      <g>
       <use style="stroke:#000000;stroke-width:0.8;" x="57.6" xlink:href="#m792040671f" y="304.026353"/>
      </g>
     </g>
     <g id="text_15">
      <!-- 0 -->
      <g transform="translate(44.2375 307.825572)scale(0.1 -0.1)">
       <use xlink:href="#DejaVuSans-30"/>
      </g>
     </g>
    </g>
    <g id="ytick_26">
     <g id="line2d_62">
      <g>
       <use style="stroke:#000000;stroke-width:0.8;" x="57.6" xlink:href="#m792040671f" y="266.366888"/>
      </g>
     </g>
     <g id="text_16">
      <!-- 0.4 -->
      <g transform="translate(34.696875 270.166106)scale(0.1 -0.1)">
       <use xlink:href="#DejaVuSans-30"/>
       <use x="63.623047" xlink:href="#DejaVuSans-2e"/>
       <use x="95.410156" xlink:href="#DejaVuSans-34"/>
      </g>
     </g>
    </g>
    <g id="ytick_27">
     <g id="line2d_63">
      <g>
       <use style="stroke:#000000;stroke-width:0.8;" x="57.6" xlink:href="#m792040671f" y="229.648909"/>
      </g>
     </g>
     <g id="text_17">
      <!-- 0.8 -->
      <g transform="translate(34.696875 233.448128)scale(0.1 -0.1)">
       <use xlink:href="#DejaVuSans-30"/>
       <use x="63.623047" xlink:href="#DejaVuSans-2e"/>
       <use x="95.410156" xlink:href="#DejaVuSans-38"/>
      </g>
     </g>
    </g>
    <g id="text_18">
     <!-- Incongruent -->
     <defs>
      <path d="M 9.8125 72.90625 
L 19.671875 72.90625 
L 19.671875 0 
L 9.8125 0 
z
" id="DejaVuSans-49"/>
      <path d="M 48.78125 52.59375 
L 48.78125 44.1875 
Q 44.96875 46.296875 41.140625 47.34375 
Q 37.3125 48.390625 33.40625 48.390625 
Q 24.65625 48.390625 19.8125 42.84375 
Q 14.984375 37.3125 14.984375 27.296875 
Q 14.984375 17.28125 19.8125 11.734375 
Q 24.65625 6.203125 33.40625 6.203125 
Q 37.3125 6.203125 41.140625 7.25 
Q 44.96875 8.296875 48.78125 10.40625 
L 48.78125 2.09375 
Q 45.015625 0.34375 40.984375 -0.53125 
Q 36.96875 -1.421875 32.421875 -1.421875 
Q 20.0625 -1.421875 12.78125 6.34375 
Q 5.515625 14.109375 5.515625 27.296875 
Q 5.515625 40.671875 12.859375 48.328125 
Q 20.21875 56 33.015625 56 
Q 37.15625 56 41.109375 55.140625 
Q 45.0625 54.296875 48.78125 52.59375 
" id="DejaVuSans-63"/>
     </defs>
     <g transform="translate(28.617187 298.674882)rotate(-90)scale(0.1 -0.1)">
      <use xlink:href="#DejaVuSans-49"/>
      <use x="29.492188" xlink:href="#DejaVuSans-6e"/>
      <use x="92.871094" xlink:href="#DejaVuSans-63"/>
      <use x="147.851562" xlink:href="#DejaVuSans-6f"/>
      <use x="209.033203" xlink:href="#DejaVuSans-6e"/>
      <use x="272.412109" xlink:href="#DejaVuSans-67"/>
      <use x="335.888672" xlink:href="#DejaVuSans-72"/>
      <use x="377.001953" xlink:href="#DejaVuSans-75"/>
      <use x="440.380859" xlink:href="#DejaVuSans-65"/>
      <use x="501.904297" xlink:href="#DejaVuSans-6e"/>
      <use x="565.283203" xlink:href="#DejaVuSans-74"/>
     </g>
    </g>
   </g>
   <g id="line2d_64">
    <path clip-path="url(#p4c0ded4eb0)" d="M 61.128854 303.853492 
L 63.683252 303.746177 
L 65.196969 303.421268 
L 66.805294 302.830285 
L 68.792048 301.834289 
L 73.71163 299.263511 
L 76.171421 298.303958 
L 78.915034 297.480507 
L 82.60472 296.623794 
L 91.687024 294.848217 
L 97.079643 293.632177 
L 101.147758 292.493742 
L 104.553622 291.314011 
L 107.391843 290.105126 
L 109.851633 288.826499 
L 112.027602 287.451136 
L 113.919749 286.003847 
L 115.622681 284.434876 
L 117.231006 282.646527 
L 118.650116 280.744277 
L 119.974619 278.612149 
L 121.393729 275.872318 
L 122.812839 272.636138 
L 124.137342 269.00837 
L 125.367237 264.971567 
L 126.597133 260.175115 
L 127.921635 254.109475 
L 129.719175 244.702673 
L 131.705929 234.291548 
L 131.705929 234.291548 
" style="fill:none;stroke:#00bfbf;stroke-linecap:square;stroke-width:1.5;"/>
   </g>
   <g id="line2d_65">
    <path clip-path="url(#p4c0ded4eb0)" d="M 61.128854 304.026353 
L 64.061681 303.919961 
L 65.670006 303.57358 
L 67.467545 302.941657 
L 70.968017 301.382056 
L 73.333201 300.479071 
L 75.509169 299.89119 
L 77.779745 299.509622 
L 80.428751 299.294579 
L 83.645401 299.262531 
L 87.808123 299.453088 
L 93.484564 299.950793 
L 101.053151 300.847742 
L 109.473204 302.066033 
L 117.136399 303.392762 
L 121.0153 304.026353 
L 131.705929 304.026353 
L 131.705929 304.026353 
" style="fill:none;stroke:#000000;stroke-linecap:square;stroke-width:1.5;"/>
   </g>
   <g id="line2d_66">
    <path clip-path="url(#p4c0ded4eb0)" d="M 61.128854 304.026353 
L 64.629325 303.927997 
L 65.670006 303.66388 
L 66.521472 303.199984 
L 67.278331 302.514253 
L 68.03519 301.510837 
L 68.886656 299.96377 
L 69.832729 297.736162 
L 71.062624 294.185813 
L 73.333201 286.721937 
L 75.414562 280.1968 
L 76.928279 276.128337 
L 78.34739 272.922568 
L 79.671892 270.444825 
L 80.996395 268.417547 
L 82.320898 266.785914 
L 83.645401 265.49515 
L 84.969903 264.495075 
L 86.389013 263.696576 
L 87.902731 263.106722 
L 89.511056 262.728264 
L 91.213988 262.562366 
L 93.011527 262.611534 
L 94.903674 262.882739 
L 96.890428 263.390849 
L 98.877182 264.122267 
L 100.863936 265.085257 
L 102.85069 266.302038 
L 104.742837 267.731002 
L 106.540377 269.376617 
L 108.243309 271.246864 
L 109.851633 273.351124 
L 111.365351 275.698179 
L 112.784461 278.294084 
L 114.203571 281.360952 
L 115.528074 284.747224 
L 116.852577 288.760355 
L 118.082472 293.181377 
L 119.312367 298.431089 
L 120.542263 304.026353 
L 131.705929 304.026353 
L 131.705929 304.026353 
" style="fill:none;stroke:#ff0000;stroke-linecap:square;stroke-width:1.5;"/>
   </g>
   <g id="patch_43">
    <path d="M 57.6 307.584 
L 57.6 229.315765 
" style="fill:none;stroke:#000000;stroke-linecap:square;stroke-linejoin:miter;stroke-width:0.8;"/>
   </g>
   <g id="patch_44">
    <path d="M 135.234783 307.584 
L 135.234783 229.315765 
" style="fill:none;stroke:#000000;stroke-linecap:square;stroke-linejoin:miter;stroke-width:0.8;"/>
   </g>
   <g id="patch_45">
    <path d="M 57.6 307.584 
L 135.234783 307.584 
" style="fill:none;stroke:#000000;stroke-linecap:square;stroke-linejoin:miter;stroke-width:0.8;"/>
   </g>
   <g id="patch_46">
    <path d="M 57.6 229.315765 
L 135.234783 229.315765 
" style="fill:none;stroke:#000000;stroke-linecap:square;stroke-linejoin:miter;stroke-width:0.8;"/>
   </g>
  </g>
  <g id="axes_10">
   <g id="patch_47">
    <path d="M 150.761739 307.584 
L 228.396522 307.584 
L 228.396522 229.315765 
L 150.761739 229.315765 
z
" style="fill:#ffffff;"/>
   </g>
   <g id="matplotlib.axis_19">
    <g id="xtick_19">
     <g id="line2d_67">
      <g>
       <use style="stroke:#000000;stroke-width:0.8;" x="154.290593" xlink:href="#ma3c4ec50b5" y="307.584"/>
      </g>
     </g>
     <g id="text_19">
      <!-- 0 -->
      <g transform="translate(151.109343 322.182437)scale(0.1 -0.1)">
       <use xlink:href="#DejaVuSans-30"/>
      </g>
     </g>
    </g>
    <g id="xtick_20">
     <g id="line2d_68">
      <g>
       <use style="stroke:#000000;stroke-width:0.8;" x="192.133529" xlink:href="#ma3c4ec50b5" y="307.584"/>
      </g>
     </g>
     <g id="text_20">
      <!-- 400 -->
      <g transform="translate(182.589779 322.182437)scale(0.1 -0.1)">
       <use xlink:href="#DejaVuSans-34"/>
       <use x="63.623047" xlink:href="#DejaVuSans-30"/>
       <use x="127.246094" xlink:href="#DejaVuSans-30"/>
      </g>
     </g>
    </g>
   </g>
   <g id="matplotlib.axis_20">
    <g id="ytick_28">
     <g id="line2d_69">
      <g>
       <use style="stroke:#000000;stroke-width:0.8;" x="150.761739" xlink:href="#m792040671f" y="304.026353"/>
      </g>
     </g>
    </g>
    <g id="ytick_29">
     <g id="line2d_70">
      <g>
       <use style="stroke:#000000;stroke-width:0.8;" x="150.761739" xlink:href="#m792040671f" y="266.366888"/>
      </g>
     </g>
    </g>
    <g id="ytick_30">
     <g id="line2d_71">
      <g>
       <use style="stroke:#000000;stroke-width:0.8;" x="150.761739" xlink:href="#m792040671f" y="229.648909"/>
      </g>
     </g>
    </g>
   </g>
   <g id="line2d_72">
    <path clip-path="url(#pd5c0e7c1e0)" d="M 154.290593 302.332975 
L 156.939598 302.225121 
L 158.64253 301.889965 
L 161.386143 301.303462 
L 162.426824 301.360432 
L 163.467505 301.660112 
L 164.981222 302.373677 
L 166.967976 303.256202 
L 168.387086 303.639524 
L 170.184626 303.87362 
L 173.117453 303.989073 
L 182.294365 304.022837 
L 208.311384 303.922096 
L 210.392745 303.719149 
L 211.528033 303.397943 
L 212.284892 302.951557 
L 212.852536 302.362442 
L 213.325573 301.573908 
L 213.893217 300.097078 
L 214.650075 297.43177 
L 215.690756 292.835612 
L 217.488296 283.707794 
L 219.569657 272.090272 
L 221.177982 261.837185 
L 224.867668 236.394692 
L 224.867668 236.394692 
" style="fill:none;stroke:#0000ff;stroke-linecap:square;stroke-width:1.5;"/>
   </g>
   <g id="line2d_73">
    <path clip-path="url(#pd5c0e7c1e0)" d="M 154.290593 302.332975 
L 156.750384 302.227789 
L 158.169494 301.908131 
L 159.967033 301.245797 
L 161.480751 300.760817 
L 162.426824 300.699684 
L 163.27829 300.875886 
L 164.224364 301.30462 
L 168.197872 303.409988 
L 169.616982 303.72608 
L 171.603736 303.91576 
L 175.38803 304.003771 
L 192.228136 304.022723 
L 209.635886 303.911042 
L 211.62264 303.691204 
L 212.663321 303.364545 
L 213.325573 302.953791 
L 214.082431 302.191989 
L 216.163793 299.971057 
L 216.920651 299.526915 
L 217.582903 299.367906 
L 218.339762 299.423373 
L 219.191228 299.722142 
L 220.421123 300.425333 
L 223.826987 302.521411 
L 224.867668 302.951241 
L 224.867668 302.951241 
" style="fill:none;stroke:#008000;stroke-linecap:square;stroke-width:1.5;"/>
   </g>
   <g id="patch_48">
    <path d="M 150.761739 307.584 
L 150.761739 229.315765 
" style="fill:none;stroke:#000000;stroke-linecap:square;stroke-linejoin:miter;stroke-width:0.8;"/>
   </g>
   <g id="patch_49">
    <path d="M 228.396522 307.584 
L 228.396522 229.315765 
" style="fill:none;stroke:#000000;stroke-linecap:square;stroke-linejoin:miter;stroke-width:0.8;"/>
   </g>
   <g id="patch_50">
    <path d="M 150.761739 307.584 
L 228.396522 307.584 
" style="fill:none;stroke:#000000;stroke-linecap:square;stroke-linejoin:miter;stroke-width:0.8;"/>
   </g>
   <g id="patch_51">
    <path d="M 150.761739 229.315765 
L 228.396522 229.315765 
" style="fill:none;stroke:#000000;stroke-linecap:square;stroke-linejoin:miter;stroke-width:0.8;"/>
   </g>
  </g>
  <g id="axes_11">
   <g id="patch_52">
    <path d="M 243.923478 307.584 
L 321.558261 307.584 
L 321.558261 229.315765 
L 243.923478 229.315765 
z
" style="fill:#ffffff;"/>
   </g>
   <g id="matplotlib.axis_21">
    <g id="xtick_21">
     <g id="line2d_74">
      <g>
       <use style="stroke:#000000;stroke-width:0.8;" x="247.452332" xlink:href="#ma3c4ec50b5" y="307.584"/>
      </g>
     </g>
     <g id="text_21">
      <!-- 0 -->
      <g transform="translate(244.271082 322.182437)scale(0.1 -0.1)">
       <use xlink:href="#DejaVuSans-30"/>
      </g>
     </g>
    </g>
    <g id="xtick_22">
     <g id="line2d_75">
      <g>
       <use style="stroke:#000000;stroke-width:0.8;" x="285.295268" xlink:href="#ma3c4ec50b5" y="307.584"/>
      </g>
     </g>
     <g id="text_22">
      <!-- 400 -->
      <g transform="translate(275.751518 322.182437)scale(0.1 -0.1)">
       <use xlink:href="#DejaVuSans-34"/>
       <use x="63.623047" xlink:href="#DejaVuSans-30"/>
       <use x="127.246094" xlink:href="#DejaVuSans-30"/>
      </g>
     </g>
    </g>
   </g>
   <g id="matplotlib.axis_22">
    <g id="ytick_31">
     <g id="line2d_76">
      <g>
       <use style="stroke:#000000;stroke-width:0.8;" x="243.923478" xlink:href="#m792040671f" y="304.026353"/>
      </g>
     </g>
    </g>
    <g id="ytick_32">
     <g id="line2d_77">
      <g>
       <use style="stroke:#000000;stroke-width:0.8;" x="243.923478" xlink:href="#m792040671f" y="266.366888"/>
      </g>
     </g>
    </g>
    <g id="ytick_33">
     <g id="line2d_78">
      <g>
       <use style="stroke:#000000;stroke-width:0.8;" x="243.923478" xlink:href="#m792040671f" y="229.648909"/>
      </g>
     </g>
    </g>
   </g>
   <g id="line2d_79">
    <path clip-path="url(#p3cb3104929)" d="M 247.452332 303.438639 
L 248.114583 302.797416 
L 248.776835 301.807432 
L 249.533693 300.254339 
L 250.668982 297.316927 
L 253.317987 290.236896 
L 254.547882 287.634467 
L 255.777778 285.541607 
L 257.007673 283.873187 
L 258.332176 282.443444 
L 259.751286 281.228226 
L 261.359611 280.143006 
L 263.15715 279.198205 
L 265.238512 278.356513 
L 267.79291 277.574459 
L 271.104167 276.810718 
L 276.402178 275.851516 
L 285.20066 274.248274 
L 289.647205 273.199679 
L 293.147677 272.155453 
L 296.080504 271.058441 
L 298.634903 269.866118 
L 300.810871 268.606295 
L 302.703018 267.259177 
L 304.40595 265.775731 
L 305.919668 264.169899 
L 307.338778 262.34228 
L 308.757888 260.137371 
L 310.176998 257.49163 
L 311.501501 254.539052 
L 312.826003 251.034042 
L 314.245114 246.61437 
L 316.042653 240.185284 
L 318.029407 232.873412 
L 318.029407 232.873412 
" style="fill:none;stroke:#0000ff;stroke-linecap:square;stroke-width:1.5;"/>
   </g>
   <g id="line2d_80">
    <path clip-path="url(#p3cb3104929)" d="M 247.452332 303.504729 
L 252.750343 303.617205 
L 259.940501 303.798465 
L 274.699246 303.849133 
L 318.029407 303.822625 
L 318.029407 303.822625 
" style="fill:none;stroke:#008000;stroke-linecap:square;stroke-width:1.5;"/>
   </g>
   <g id="patch_53">
    <path d="M 243.923478 307.584 
L 243.923478 229.315765 
" style="fill:none;stroke:#000000;stroke-linecap:square;stroke-linejoin:miter;stroke-width:0.8;"/>
   </g>
   <g id="patch_54">
    <path d="M 321.558261 307.584 
L 321.558261 229.315765 
" style="fill:none;stroke:#000000;stroke-linecap:square;stroke-linejoin:miter;stroke-width:0.8;"/>
   </g>
   <g id="patch_55">
    <path d="M 243.923478 307.584 
L 321.558261 307.584 
" style="fill:none;stroke:#000000;stroke-linecap:square;stroke-linejoin:miter;stroke-width:0.8;"/>
   </g>
   <g id="patch_56">
    <path d="M 243.923478 229.315765 
L 321.558261 229.315765 
" style="fill:none;stroke:#000000;stroke-linecap:square;stroke-linejoin:miter;stroke-width:0.8;"/>
   </g>
  </g>
  <g id="axes_12">
   <g id="patch_57">
    <path d="M 337.085217 307.584 
L 414.72 307.584 
L 414.72 229.315765 
L 337.085217 229.315765 
z
" style="fill:#ffffff;"/>
   </g>
   <g id="matplotlib.axis_23">
    <g id="xtick_23">
     <g id="line2d_81">
      <g>
       <use style="stroke:#000000;stroke-width:0.8;" x="340.614071" xlink:href="#ma3c4ec50b5" y="307.584"/>
      </g>
     </g>
     <g id="text_23">
      <!-- 0 -->
      <g transform="translate(337.432821 322.182437)scale(0.1 -0.1)">
       <use xlink:href="#DejaVuSans-30"/>
      </g>
     </g>
    </g>
    <g id="xtick_24">
     <g id="line2d_82">
      <g>
       <use style="stroke:#000000;stroke-width:0.8;" x="378.457007" xlink:href="#ma3c4ec50b5" y="307.584"/>
      </g>
     </g>
     <g id="text_24">
      <!-- 400 -->
      <g transform="translate(368.913257 322.182437)scale(0.1 -0.1)">
       <use xlink:href="#DejaVuSans-34"/>
       <use x="63.623047" xlink:href="#DejaVuSans-30"/>
       <use x="127.246094" xlink:href="#DejaVuSans-30"/>
      </g>
     </g>
    </g>
   </g>
   <g id="matplotlib.axis_24">
    <g id="ytick_34">
     <g id="line2d_83">
      <g>
       <use style="stroke:#000000;stroke-width:0.8;" x="337.085217" xlink:href="#m792040671f" y="304.026353"/>
      </g>
     </g>
    </g>
    <g id="ytick_35">
     <g id="line2d_84">
      <g>
       <use style="stroke:#000000;stroke-width:0.8;" x="337.085217" xlink:href="#m792040671f" y="266.366888"/>
      </g>
     </g>
    </g>
    <g id="ytick_36">
     <g id="line2d_85">
      <g>
       <use style="stroke:#000000;stroke-width:0.8;" x="337.085217" xlink:href="#m792040671f" y="229.648909"/>
      </g>
     </g>
    </g>
   </g>
   <g id="line2d_86">
    <path clip-path="url(#ped3435d051)" d="M 340.614071 303.508471 
L 345.912082 303.620093 
L 353.196847 303.80237 
L 368.239414 303.853381 
L 411.191146 303.855979 
L 411.191146 303.855979 
" style="fill:none;stroke:#0000ff;stroke-linecap:square;stroke-width:1.5;"/>
   </g>
   <g id="line2d_87">
    <path clip-path="url(#ped3435d051)" d="M 340.614071 303.442852 
L 341.276323 302.806191 
L 341.938574 301.823157 
L 342.695433 300.281321 
L 343.830721 297.366416 
L 346.479726 290.357983 
L 347.709622 287.801213 
L 348.939517 285.765746 
L 350.169412 284.168273 
L 351.493915 282.830759 
L 352.913025 281.732088 
L 354.426743 280.846858 
L 356.129675 280.116325 
L 358.021822 279.550259 
L 360.19779 279.132616 
L 362.846796 278.860549 
L 366.158053 278.760441 
L 370.415383 278.866757 
L 376.375645 279.251683 
L 384.984913 280.043569 
L 395.107899 281.195647 
L 403.054915 282.084789 
L 407.879889 282.201922 
L 411.191146 282.222479 
L 411.191146 282.222479 
" style="fill:none;stroke:#008000;stroke-linecap:square;stroke-width:1.5;"/>
   </g>
   <g id="patch_58">
    <path d="M 337.085217 307.584 
L 337.085217 229.315765 
" style="fill:none;stroke:#000000;stroke-linecap:square;stroke-linejoin:miter;stroke-width:0.8;"/>
   </g>
   <g id="patch_59">
    <path d="M 414.72 307.584 
L 414.72 229.315765 
" style="fill:none;stroke:#000000;stroke-linecap:square;stroke-linejoin:miter;stroke-width:0.8;"/>
   </g>
   <g id="patch_60">
    <path d="M 337.085217 307.584 
L 414.72 307.584 
" style="fill:none;stroke:#000000;stroke-linecap:square;stroke-linejoin:miter;stroke-width:0.8;"/>
   </g>
   <g id="patch_61">
    <path d="M 337.085217 229.315765 
L 414.72 229.315765 
" style="fill:none;stroke:#000000;stroke-linecap:square;stroke-linejoin:miter;stroke-width:0.8;"/>
   </g>
  </g>
 </g>
 <defs>
  <clipPath id="p1184ce32cf">
   <rect height="78.268235" width="77.634783" x="57.6" y="41.472"/>
  </clipPath>
  <clipPath id="p2e96b8de5a">
   <rect height="78.268235" width="77.634783" x="150.761739" y="41.472"/>
  </clipPath>
  <clipPath id="pb124be8558">
   <rect height="78.268235" width="77.634783" x="243.923478" y="41.472"/>
  </clipPath>
  <clipPath id="p478ddc844b">
   <rect height="78.268235" width="77.634783" x="337.085217" y="41.472"/>
  </clipPath>
  <clipPath id="p7645d6f90d">
   <rect height="78.268235" width="77.634783" x="57.6" y="135.393882"/>
  </clipPath>
  <clipPath id="pd6f7ddbec5">
   <rect height="78.268235" width="77.634783" x="150.761739" y="135.393882"/>
  </clipPath>
  <clipPath id="p1358a0791b">
   <rect height="78.268235" width="77.634783" x="243.923478" y="135.393882"/>
  </clipPath>
  <clipPath id="pb74e43f462">
   <rect height="78.268235" width="77.634783" x="337.085217" y="135.393882"/>
  </clipPath>
  <clipPath id="p4c0ded4eb0">
   <rect height="78.268235" width="77.634783" x="57.6" y="229.315765"/>
  </clipPath>
  <clipPath id="pd5c0e7c1e0">
   <rect height="78.268235" width="77.634783" x="150.761739" y="229.315765"/>
  </clipPath>
  <clipPath id="p3cb3104929">
   <rect height="78.268235" width="77.634783" x="243.923478" y="229.315765"/>
  </clipPath>
  <clipPath id="ped3435d051">
   <rect height="78.268235" width="77.634783" x="337.085217" y="229.315765"/>
  </clipPath>
 </defs>
</svg>
