<?xml version="1.0" encoding="UTF-8" standalone="no"?>
<!-- Created with Inkscape (http://www.inkscape.org/) -->

<svg
   xmlns:dc="http://purl.org/dc/elements/1.1/"
   xmlns:cc="http://creativecommons.org/ns#"
   xmlns:rdf="http://www.w3.org/1999/02/22-rdf-syntax-ns#"
   xmlns:svg="http://www.w3.org/2000/svg"
   xmlns="http://www.w3.org/2000/svg"
   xmlns:sodipodi="http://sodipodi.sourceforge.net/DTD/sodipodi-0.dtd"
   xmlns:inkscape="http://www.inkscape.org/namespaces/inkscape"
   version="1.1"
   id="svg508"
   xml:space="preserve"
   width="477.65118"
   height="445.19476"
   viewBox="0 0 477.65118 445.19476"
   sodipodi:docname="BasicsAndSampler_Control.svg"
   inkscape:version="0.92.4 (5da689c313, 2019-01-14)"><metadata
     id="metadata514"><rdf:RDF><cc:Work
         rdf:about=""><dc:format>image/svg+xml</dc:format><dc:type
           rdf:resource="http://purl.org/dc/dcmitype/StillImage" /><dc:title></dc:title></cc:Work></rdf:RDF></metadata><defs
     id="defs512"><clipPath
       clipPathUnits="userSpaceOnUse"
       id="clipPath526"><path
         d="M 36,368 H 393.809 V 36 H 36 Z"
         id="path524"
         inkscape:connector-curvature="0" /></clipPath><clipPath
       clipPathUnits="userSpaceOnUse"
       id="clipPath532"><path
         d="M 0,0 H 430 V 404 H 0 Z"
         id="path530"
         inkscape:connector-curvature="0" /></clipPath></defs><sodipodi:namedview
     pagecolor="#ffffff"
     bordercolor="#666666"
     borderopacity="1"
     objecttolerance="10"
     gridtolerance="10"
     guidetolerance="10"
     inkscape:pageopacity="0"
     inkscape:pageshadow="2"
     inkscape:window-width="564"
     inkscape:window-height="439"
     id="namedview510"
     showgrid="false"
     inkscape:zoom="0.53010507"
     inkscape:cx="238.82559"
     inkscape:cy="222.59738"
     inkscape:window-x="0"
     inkscape:window-y="0"
     inkscape:window-maximized="0"
     inkscape:current-layer="g516" /><g
     id="g516"
     inkscape:groupmode="layer"
     inkscape:label="BasicsAndSampler_Control"
     transform="matrix(1.3333333,0,0,-1.3333333,-46.855627,491.8808)"><g
       id="g518" /><g
       id="g520"><g
         id="g522"
         clip-path="url(#clipPath526)"><g
           id="g528"
           clip-path="url(#clipPath532)"><path
             d="M 36,368 H 393.809 V 36 H 36 Z"
             style="fill:#ffffff;fill-opacity:1;fill-rule:nonzero;stroke:none"
             id="path534"
             inkscape:connector-curvature="0" /><path
             d="m 203.555,58 c 0,-9.941 -24.004,-18 -53.614,-18 -29.609,0 -53.609,8.059 -53.609,18 0,9.941 24,18 53.609,18 29.61,0 53.614,-8.059 53.614,-18"
             style="fill:none;stroke:#01ff00;stroke-width:3;stroke-linecap:butt;stroke-linejoin:miter;stroke-miterlimit:10;stroke-dasharray:none;stroke-opacity:1"
             id="path536"
             inkscape:connector-curvature="0" /><text
             transform="matrix(1,0,0,-1,114.4414,54.89844)"
             style="font-variant:normal;font-weight:normal;font-size:12px;font-family:font0000000022abc589;-inkscape-font-specification:font0000000022abc589;writing-mode:lr-tb;fill:#000000;fill-opacity:1;fill-rule:nonzero;stroke:none"
             id="text540"><tspan
               x="0 7.3200002 15.312 23.304001"
               y="0"
               sodipodi:role="line"
               id="tspan538">TASK</tspan></text>
<text
             transform="matrix(1,0,0,-1,149.0714,54.89844)"
             style="font-variant:normal;font-weight:normal;font-size:12px;font-family:font0000000022abc589;-inkscape-font-specification:font0000000022abc589;writing-mode:lr-tb;fill:#000000;fill-opacity:1;fill-rule:nonzero;stroke:none"
             id="text544"><tspan
               x="0 3.3239999 11.988 19.98 28.643999"
               y="0"
               sodipodi:role="line"
               id="tspan542">INPUT</tspan></text>
<path
             d="m 238.539,130 c 0,-9.941 -13.25,-18 -29.598,-18 -16.343,0 -29.593,8.059 -29.593,18 0,9.941 13.25,18 29.593,18 16.348,0 29.598,-8.059 29.598,-18"
             style="fill:none;stroke:#000000;stroke-width:1;stroke-linecap:butt;stroke-linejoin:miter;stroke-miterlimit:10;stroke-dasharray:none;stroke-opacity:1"
             id="path546"
             inkscape:connector-curvature="0" /><text
             transform="matrix(1,0,0,-1,192.9414,126.8984)"
             style="font-variant:normal;font-weight:normal;font-size:12px;font-family:font0000000022abc589;-inkscape-font-specification:font0000000022abc589;writing-mode:lr-tb;fill:#000000;fill-opacity:1;fill-rule:nonzero;stroke:none"
             id="text550"><tspan
               x="0 7.3200002 15.312 23.304001"
               y="0"
               sodipodi:role="line"
               id="tspan548">TASK</tspan></text>
<path
             d="m 164.227,75.43 c 7.461,9.105 16.707,20.39 24.855,30.332"
             style="fill:none;stroke:#000000;stroke-width:1;stroke-linecap:butt;stroke-linejoin:miter;stroke-miterlimit:10;stroke-dasharray:none;stroke-opacity:1"
             id="path552"
             inkscape:connector-curvature="0" /><path
             d="m 186.555,108.203 9.047,5.516 -3.633,-9.953 z"
             style="fill:#000000;fill-opacity:1;fill-rule:nonzero;stroke:#000000;stroke-width:1;stroke-linecap:butt;stroke-linejoin:miter;stroke-miterlimit:10;stroke-dasharray:none;stroke-opacity:1"
             id="path554"
             inkscape:connector-curvature="0" /><path
             d="m 389.672,130 c 0,-9.941 -25.844,-18 -57.731,-18 -31.882,0 -57.73,8.059 -57.73,18 0,9.941 25.848,18 57.73,18 31.887,0 57.731,-8.059 57.731,-18"
             style="fill:none;stroke:#01ff00;stroke-width:3;stroke-linecap:butt;stroke-linejoin:miter;stroke-miterlimit:10;stroke-dasharray:none;stroke-opacity:1"
             id="path556"
             inkscape:connector-curvature="0" /><text
             transform="matrix(1,0,0,-1,292.9414,126.8984)"
             style="font-variant:normal;font-weight:normal;font-size:12px;font-family:font0000000022abc589;-inkscape-font-specification:font0000000022abc589;writing-mode:lr-tb;fill:#000000;fill-opacity:1;fill-rule:nonzero;stroke:none"
             id="text560"><tspan
               x="0 11.316 20.639999 29.304001"
               y="0"
               sodipodi:role="line"
               id="tspan558">WORD</tspan></text>
<text
             transform="matrix(1,0,0,-1,334.2434,126.8984)"
             style="font-variant:normal;font-weight:normal;font-size:12px;font-family:font0000000022abc589;-inkscape-font-specification:font0000000022abc589;writing-mode:lr-tb;fill:#000000;fill-opacity:1;fill-rule:nonzero;stroke:none"
             id="text564"><tspan
               x="0 3.3239999 11.988 19.98 28.643999"
               y="0"
               sodipodi:role="line"
               id="tspan562">INPUT</tspan></text>
<path
             d="m 354.984,202 c 0,-9.941 -28.672,-18 -64.043,-18 -35.367,0 -64.039,8.059 -64.039,18 0,9.941 28.672,18 64.039,18 35.371,0 64.043,-8.059 64.043,-18"
             style="fill:none;stroke:#000000;stroke-width:1;stroke-linecap:butt;stroke-linejoin:miter;stroke-miterlimit:10;stroke-dasharray:none;stroke-opacity:1"
             id="path566"
             inkscape:connector-curvature="0" /><text
             transform="matrix(1,0,0,-1,246.9414,198.8984)"
             style="font-variant:normal;font-weight:normal;font-size:12px;font-family:font0000000022abc589;-inkscape-font-specification:font0000000022abc589;writing-mode:lr-tb;fill:#000000;fill-opacity:1;fill-rule:nonzero;stroke:none"
             id="text570"><tspan
               x="0 11.316 20.639999 29.304001"
               y="0"
               sodipodi:role="line"
               id="tspan568">WORD</tspan></text>
<text
             transform="matrix(1,0,0,-1,288.2434,198.8984)"
             style="font-variant:normal;font-weight:normal;font-size:12px;font-family:font0000000022abc589;-inkscape-font-specification:font0000000022abc589;writing-mode:lr-tb;fill:#000000;fill-opacity:1;fill-rule:nonzero;stroke:none"
             id="text574"><tspan
               x="0 8.6639996 11.988 20.652 29.316 37.307999"
               y="0"
               sodipodi:role="line"
               id="tspan572">HIDDEN</tspan></text>
<path
             d="m 321.809,147.797 c -4.731,8.308 -10.461,18.371 -15.696,27.558"
             style="fill:none;stroke:#000000;stroke-width:1;stroke-linecap:butt;stroke-linejoin:miter;stroke-miterlimit:10;stroke-dasharray:none;stroke-opacity:1"
             id="path576"
             inkscape:connector-curvature="0" /><path
             d="m 303.012,173.734 -1.91,10.422 7.992,-6.957 z"
             style="fill:#000000;fill-opacity:1;fill-rule:nonzero;stroke:#000000;stroke-width:1;stroke-linecap:butt;stroke-linejoin:miter;stroke-miterlimit:10;stroke-dasharray:none;stroke-opacity:1"
             id="path578"
             inkscape:connector-curvature="0" /><path
             d="m 161.828,130 c 0,-9.941 -27.258,-18 -60.887,-18 -33.625,0 -60.882,8.059 -60.882,18 0,9.941 27.257,18 60.882,18 33.629,0 60.887,-8.059 60.887,-18"
             style="fill:none;stroke:#01ff00;stroke-width:3;stroke-linecap:butt;stroke-linejoin:miter;stroke-miterlimit:10;stroke-dasharray:none;stroke-opacity:1"
             id="path580"
             inkscape:connector-curvature="0" /><text
             transform="matrix(1,0,0,-1,59.44141,126.8984)"
             style="font-variant:normal;font-weight:normal;font-size:12px;font-family:font0000000022abc589;-inkscape-font-specification:font0000000022abc589;writing-mode:lr-tb;fill:#000000;fill-opacity:1;fill-rule:nonzero;stroke:none"
             id="text584"><tspan
               x="0 8.6639996 17.988001 24.66 33.984001"
               y="0"
               sodipodi:role="line"
               id="tspan582">COLOR</tspan></text>
<text
             transform="matrix(1,0,0,-1,105.4234,126.8984)"
             style="font-variant:normal;font-weight:normal;font-size:12px;font-family:font0000000022abc589;-inkscape-font-specification:font0000000022abc589;writing-mode:lr-tb;fill:#000000;fill-opacity:1;fill-rule:nonzero;stroke:none"
             id="text588"><tspan
               x="0 3.3239999 11.988 19.98 28.643999"
               y="0"
               sodipodi:role="line"
               id="tspan586">INPUT</tspan></text>
<path
             d="m 209.141,202 c 0,-9.941 -30.086,-18 -67.2,-18 -37.109,0 -67.195,8.059 -67.195,18 0,9.941 30.086,18 67.195,18 37.114,0 67.2,-8.059 67.2,-18"
             style="fill:none;stroke:#000000;stroke-width:1;stroke-linecap:butt;stroke-linejoin:miter;stroke-miterlimit:10;stroke-dasharray:none;stroke-opacity:1"
             id="path590"
             inkscape:connector-curvature="0" /><text
             transform="matrix(1,0,0,-1,95.44141,198.8984)"
             style="font-variant:normal;font-weight:normal;font-size:12px;font-family:font0000000022abc589;-inkscape-font-specification:font0000000022abc589;writing-mode:lr-tb;fill:#000000;fill-opacity:1;fill-rule:nonzero;stroke:none"
             id="text594"><tspan
               x="0 8.6639996 17.988001 24.66 33.984001"
               y="0"
               sodipodi:role="line"
               id="tspan592">COLOR</tspan></text>
<text
             transform="matrix(1,0,0,-1,141.4234,198.8984)"
             style="font-variant:normal;font-weight:normal;font-size:12px;font-family:font0000000022abc589;-inkscape-font-specification:font0000000022abc589;writing-mode:lr-tb;fill:#000000;fill-opacity:1;fill-rule:nonzero;stroke:none"
             id="text598"><tspan
               x="0 8.6639996 11.988 20.652 29.316 37.307999"
               y="0"
               sodipodi:role="line"
               id="tspan596">HIDDEN</tspan></text>
<path
             d="m 111.078,147.797 c 4.731,8.308 10.461,18.371 15.695,27.558"
             style="fill:none;stroke:#000000;stroke-width:1;stroke-linecap:butt;stroke-linejoin:miter;stroke-miterlimit:10;stroke-dasharray:none;stroke-opacity:1"
             id="path600"
             inkscape:connector-curvature="0" /><path
             d="m 123.793,177.199 7.988,6.957 -1.906,-10.422 z"
             style="fill:#000000;fill-opacity:1;fill-rule:nonzero;stroke:#000000;stroke-width:1;stroke-linecap:butt;stroke-linejoin:miter;stroke-miterlimit:10;stroke-dasharray:none;stroke-opacity:1"
             id="path602"
             inkscape:connector-curvature="0" /><path
             d="m 256.699,274 c 0,-9.941 -18.246,-18 -40.758,-18 -22.507,0 -40.757,8.059 -40.757,18 0,9.941 18.25,18 40.757,18 22.512,0 40.758,-8.059 40.758,-18"
             style="fill:none;stroke:#000000;stroke-width:1;stroke-linecap:butt;stroke-linejoin:miter;stroke-miterlimit:10;stroke-dasharray:none;stroke-opacity:1"
             id="path604"
             inkscape:connector-curvature="0" /><text
             transform="matrix(1,0,0,-1,190.9414,270.8984)"
             style="font-variant:normal;font-weight:normal;font-size:12px;font-family:font0000000022abc589;-inkscape-font-specification:font0000000022abc589;writing-mode:lr-tb;fill:#000000;fill-opacity:1;fill-rule:nonzero;stroke:none"
             id="text608"><tspan
               x="0 9.3240004 17.988001 25.308001 33.299999 41.964001"
               y="0"
               sodipodi:role="line"
               id="tspan606">OUTPUT</tspan></text>
<path
             d="m 159.855,219.43 c 9.571,9.308 21.485,20.902 31.868,31.004"
             style="fill:none;stroke:#000000;stroke-width:1;stroke-linecap:butt;stroke-linejoin:miter;stroke-miterlimit:10;stroke-dasharray:none;stroke-opacity:1"
             id="path610"
             inkscape:connector-curvature="0" /><path
             d="m 189.348,253.008 9.609,4.465 -4.727,-9.481 z"
             style="fill:#000000;fill-opacity:1;fill-rule:nonzero;stroke:#000000;stroke-width:1;stroke-linecap:butt;stroke-linejoin:miter;stroke-miterlimit:10;stroke-dasharray:none;stroke-opacity:1"
             id="path612"
             inkscape:connector-curvature="0" /><path
             d="m 194.074,145.98 c -8.418,9.043 -19.136,20.563 -28.664,30.801"
             style="fill:none;stroke:#000000;stroke-width:1;stroke-linecap:butt;stroke-linejoin:miter;stroke-miterlimit:10;stroke-dasharray:none;stroke-opacity:1"
             id="path614"
             inkscape:connector-curvature="0" /><path
             d="m 162.668,174.594 -4.25,9.703 9.371,-4.938 z"
             style="fill:#000000;fill-opacity:1;fill-rule:nonzero;stroke:#000000;stroke-width:1;stroke-linecap:butt;stroke-linejoin:miter;stroke-miterlimit:10;stroke-dasharray:none;stroke-opacity:1"
             id="path616"
             inkscape:connector-curvature="0" /><path
             d="m 230.461,117.453 c 13.336,-3.027 26.031,1.156 26.031,12.547 0,8.453 -6.992,12.938 -16.051,13.449"
             style="fill:none;stroke:#000000;stroke-width:1;stroke-linecap:butt;stroke-linejoin:miter;stroke-miterlimit:10;stroke-dasharray:none;stroke-opacity:1"
             id="path618"
             inkscape:connector-curvature="0" /><path
             d="m 240.734,139.961 -10.273,2.586 9.641,4.387 z"
             style="fill:#000000;fill-opacity:1;fill-rule:nonzero;stroke:#000000;stroke-width:1;stroke-linecap:butt;stroke-linejoin:miter;stroke-miterlimit:10;stroke-dasharray:none;stroke-opacity:1"
             id="path620"
             inkscape:connector-curvature="0" /><path
             d="m 225.934,144.918 c 10.851,9.527 25.168,22.098 37.605,33.02"
             style="fill:none;stroke:#000000;stroke-width:1;stroke-linecap:butt;stroke-linejoin:miter;stroke-miterlimit:10;stroke-dasharray:none;stroke-opacity:1"
             id="path622"
             inkscape:connector-curvature="0" /><path
             d="m 261.559,180.855 9.824,3.969 -5.207,-9.226 z"
             style="fill:#000000;fill-opacity:1;fill-rule:nonzero;stroke:#000000;stroke-width:1;stroke-linecap:butt;stroke-linejoin:miter;stroke-miterlimit:10;stroke-dasharray:none;stroke-opacity:1"
             id="path624"
             inkscape:connector-curvature="0" /><path
             d="m 262.281,346 c 0,-9.941 -20.746,-18 -46.34,-18 -25.589,0 -46.336,8.059 -46.336,18 0,9.941 20.747,18 46.336,18 25.594,0 46.34,-8.059 46.34,-18"
             style="fill:none;stroke:#ff0000;stroke-width:3;stroke-linecap:butt;stroke-linejoin:miter;stroke-miterlimit:10;stroke-dasharray:none;stroke-opacity:1"
             id="path626"
             inkscape:connector-curvature="0" /><text
             transform="matrix(1,0,0,-1,186.4414,342.8984)"
             style="font-variant:normal;font-weight:normal;font-size:12px;font-family:font0000000022abc589;-inkscape-font-specification:font0000000022abc589;writing-mode:lr-tb;fill:#000000;fill-opacity:1;fill-rule:nonzero;stroke:none"
             id="text630"><tspan
               x="0 8.6639996 16.656 25.32 28.643999 36.636002 39.959999 49.284"
               y="0"
               sodipodi:role="line"
               id="tspan628">DECISION</tspan></text>
<path
             d="m 215.941,292.168 c 0,7.699 0,16.859 0,25.414"
             style="fill:none;stroke:#000000;stroke-width:1;stroke-linecap:butt;stroke-linejoin:miter;stroke-miterlimit:10;stroke-dasharray:none;stroke-opacity:1"
             id="path632"
             inkscape:connector-curvature="0" /><path
             d="m 212.441,317.586 3.5,10 3.5,-10 z"
             style="fill:#000000;fill-opacity:1;fill-rule:nonzero;stroke:#000000;stroke-width:1;stroke-linecap:butt;stroke-linejoin:miter;stroke-miterlimit:10;stroke-dasharray:none;stroke-opacity:1"
             id="path634"
             inkscape:connector-curvature="0" /><path
             d="m 272.789,219.43 c -9.699,9.308 -21.773,20.902 -32.297,31.004"
             style="fill:none;stroke:#000000;stroke-width:1;stroke-linecap:butt;stroke-linejoin:miter;stroke-miterlimit:10;stroke-dasharray:none;stroke-opacity:1"
             id="path636"
             inkscape:connector-curvature="0" /><path
             d="m 237.949,248.023 -4.789,9.45 9.637,-4.399 z"
             style="fill:#000000;fill-opacity:1;fill-rule:nonzero;stroke:#000000;stroke-width:1;stroke-linecap:butt;stroke-linejoin:miter;stroke-miterlimit:10;stroke-dasharray:none;stroke-opacity:1"
             id="path638"
             inkscape:connector-curvature="0" /><path
             d="m 314.281,58 c 0,-9.941 -20.746,-18 -46.34,-18 -25.589,0 -46.336,8.059 -46.336,18 0,9.941 20.747,18 46.336,18 25.594,0 46.34,-8.059 46.34,-18"
             style="fill:none;stroke:#0000ff;stroke-width:1;stroke-linecap:butt;stroke-linejoin:miter;stroke-miterlimit:10;stroke-dasharray:none;stroke-opacity:1"
             id="path640"
             inkscape:connector-curvature="0" /><text
             transform="matrix(1,0,0,-1,238.4414,54.89844)"
             style="font-variant:normal;font-weight:normal;font-size:12px;font-family:font0000000022abc589;-inkscape-font-specification:font0000000022abc589;writing-mode:lr-tb;fill:#000000;fill-opacity:1;fill-rule:nonzero;stroke:none"
             id="text644"><tspan
               x="0 8.6639996 17.988001 26.652 33.972 42.636002 51.959999"
               y="0"
               sodipodi:role="line"
               id="tspan642">CONTROL</tspan></text>
<path
             d="m 253.66,75.43 c -7.461,9.105 -16.707,20.39 -24.855,30.332"
             style="fill:none;stroke:#0000ff;stroke-width:1;stroke-linecap:butt;stroke-linejoin:miter;stroke-miterlimit:10;stroke-dasharray:none;stroke-opacity:1"
             id="path646"
             inkscape:connector-curvature="0" /><path
             d="m 225.918,103.766 -3.633,9.953 9.047,-5.516 z"
             style="fill:#0000ff;fill-opacity:1;fill-rule:nonzero;stroke:#0000ff;stroke-width:1;stroke-linecap:butt;stroke-linejoin:miter;stroke-miterlimit:10;stroke-dasharray:none;stroke-opacity:1"
             id="path648"
             inkscape:connector-curvature="0" /></g></g></g></g></svg>