<?xml version="1.0" encoding="UTF-8" standalone="no"?>
<!-- Created with Inkscape (http://www.inkscape.org/) -->

<svg
   xmlns:dc="http://purl.org/dc/elements/1.1/"
   xmlns:cc="http://creativecommons.org/ns#"
   xmlns:rdf="http://www.w3.org/1999/02/22-rdf-syntax-ns#"
   xmlns:svg="http://www.w3.org/2000/svg"
   xmlns="http://www.w3.org/2000/svg"
   xmlns:sodipodi="http://sodipodi.sourceforge.net/DTD/sodipodi-0.dtd"
   xmlns:inkscape="http://www.inkscape.org/namespaces/inkscape"
   id="svg4604"
   version="1.1"
   inkscape:version="0.91 r13725"
   xml:space="preserve"
   width="1280.5273"
   height="751.17126"
   viewBox="0 0 1280.5273 751.17126"
   sodipodi:docname="Modulation_Detail_fig.svg"><metadata
     id="metadata4610"><rdf:RDF><cc:Work
         rdf:about=""><dc:format>image/svg+xml</dc:format><dc:type
           rdf:resource="http://purl.org/dc/dcmitype/StillImage" /><dc:title></dc:title></cc:Work></rdf:RDF></metadata><defs
     id="defs4608"><clipPath
       clipPathUnits="userSpaceOnUse"
       id="clipPath4620"><path
         d="m 0,0 1500,0 0,1000 L 0,1000 0,0 Z"
         id="path4622"
         inkscape:connector-curvature="0" /></clipPath><clipPath
       clipPathUnits="userSpaceOnUse"
       id="clipPath4636"><path
         d="m 281.4897,208.489 645.79,0 0,583.022 -645.79,0 0,-583.022 z"
         id="path4638"
         inkscape:connector-curvature="0" /></clipPath><clipPath
       clipPathUnits="userSpaceOnUse"
       id="clipPath4646"><path
         d="m 0,0 1500,0 0,1000 L 0,1000 0,0 Z"
         id="path4648"
         inkscape:connector-curvature="0" /></clipPath><clipPath
       clipPathUnits="userSpaceOnUse"
       id="clipPath4660"><path
         d="m 536.4353,725.0273 175.8988,0 0,50 -175.8988,0 0,-50 z"
         id="path4662"
         inkscape:connector-curvature="0" /></clipPath><clipPath
       clipPathUnits="userSpaceOnUse"
       id="clipPath4674"><path
         d="m 0,0 1500,0 0,1000 L 0,1000 0,0 Z"
         id="path4676"
         inkscape:connector-curvature="0" /></clipPath><clipPath
       clipPathUnits="userSpaceOnUse"
       id="clipPath4706"><path
         d="m 802.6217,351.1589 107.241,0 0,364.9612 -107.241,0 0,-364.9612 z"
         id="path4708"
         inkscape:connector-curvature="0" /></clipPath><clipPath
       clipPathUnits="userSpaceOnUse"
       id="clipPath4720"><path
         d="m 0,0 1500,0 0,1000 L 0,1000 0,0 Z"
         id="path4722"
         inkscape:connector-curvature="0" /></clipPath><clipPath
       clipPathUnits="userSpaceOnUse"
       id="clipPath4734"><path
         d="m 386.7241,628.4651 210.331,0 0,54.1368 -210.331,0 0,-54.1368 z"
         id="path4736"
         inkscape:connector-curvature="0" /></clipPath><clipPath
       clipPathUnits="userSpaceOnUse"
       id="clipPath4748"><path
         d="m 0,0 1500,0 0,1000 L 0,1000 0,0 Z"
         id="path4750"
         inkscape:connector-curvature="0" /></clipPath><clipPath
       clipPathUnits="userSpaceOnUse"
       id="clipPath4762"><path
         d="m 386.7241,244.2928 210.331,0 0,54.1368 -210.331,0 0,-54.1368 z"
         id="path4764"
         inkscape:connector-curvature="0" /></clipPath><clipPath
       clipPathUnits="userSpaceOnUse"
       id="clipPath4776"><path
         d="m 0,0 1500,0 0,1000 L 0,1000 0,0 Z"
         id="path4778"
         inkscape:connector-curvature="0" /></clipPath><clipPath
       clipPathUnits="userSpaceOnUse"
       id="clipPath4790"><path
         d="m 935.6823,312.6272 358.5953,0 0,446.4037 -358.5953,0 0,-446.4037 z"
         id="path4792"
         inkscape:connector-curvature="0" /></clipPath><clipPath
       clipPathUnits="userSpaceOnUse"
       id="clipPath4804"><path
         d="m 0,0 1500,0 0,1000 L 0,1000 0,0 Z"
         id="path4806"
         inkscape:connector-curvature="0" /></clipPath><clipPath
       clipPathUnits="userSpaceOnUse"
       id="clipPath4814"><path
         d="m 960.9074,484.4608 264.9395,0 0,101.0607 -264.9395,0 0,-101.0607 z"
         id="path4816"
         inkscape:connector-curvature="0" /></clipPath><clipPath
       clipPathUnits="userSpaceOnUse"
       id="clipPath4846"><path
         d="m 0,0 1500,0 0,1000 L 0,1000 0,0 Z"
         id="path4848"
         inkscape:connector-curvature="0" /></clipPath><clipPath
       clipPathUnits="userSpaceOnUse"
       id="clipPath4856"><path
         d="m 734.8127,479.6548 228.3296,0 0,109.9829 -228.3296,0 0,-109.9829 z"
         id="path4858"
         inkscape:connector-curvature="0" /></clipPath><clipPath
       clipPathUnits="userSpaceOnUse"
       id="clipPath4870"><path
         d="m 0,0 1500,0 0,1000 L 0,1000 0,0 Z"
         id="path4872"
         inkscape:connector-curvature="0" /></clipPath><clipPath
       clipPathUnits="userSpaceOnUse"
       id="clipPath4880"><path
         d="m 960.9075,344.4608 264.9395,0 0,101.0607 -264.9395,0 0,-101.0607 z"
         id="path4882"
         inkscape:connector-curvature="0" /></clipPath><clipPath
       clipPathUnits="userSpaceOnUse"
       id="clipPath4912"><path
         d="m 0,0 1500,0 0,1000 L 0,1000 0,0 Z"
         id="path4914"
         inkscape:connector-curvature="0" /></clipPath><clipPath
       clipPathUnits="userSpaceOnUse"
       id="clipPath4922"><path
         d="m 735.6824,339.6548 227.4599,0 0,109.9829 -227.4599,0 0,-109.9829 z"
         id="path4924"
         inkscape:connector-curvature="0" /></clipPath><clipPath
       clipPathUnits="userSpaceOnUse"
       id="clipPath4936"><path
         d="m 0,0 1500,0 0,1000 L 0,1000 0,0 Z"
         id="path4938"
         inkscape:connector-curvature="0" /></clipPath><clipPath
       clipPathUnits="userSpaceOnUse"
       id="clipPath4950"><path
         d="m 617.7332,517.4982 116.9429,0 0,43.20972 -116.9429,0 0,-43.20972 z"
         id="path4952"
         inkscape:connector-curvature="0" /></clipPath><clipPath
       clipPathUnits="userSpaceOnUse"
       id="clipPath4964"><path
         d="m 0,0 1500,0 0,1000 L 0,1000 0,0 Z"
         id="path4966"
         inkscape:connector-curvature="0" /></clipPath><clipPath
       clipPathUnits="userSpaceOnUse"
       id="clipPath4978"><path
         d="m 617.7332,372.4982 116.9429,0 0,43.20972 -116.9429,0 0,-43.20972 z"
         id="path4980"
         inkscape:connector-curvature="0" /></clipPath><clipPath
       clipPathUnits="userSpaceOnUse"
       id="clipPath4992"><path
         d="m 0,0 1500,0 0,1000 L 0,1000 0,0 Z"
         id="path4994"
         inkscape:connector-curvature="0" /></clipPath><clipPath
       clipPathUnits="userSpaceOnUse"
       id="clipPath5014"><path
         d="m 960.9075,604.4608 264.9395,0 0,101.0607 -264.9395,0 0,-101.0607 z"
         id="path5016"
         inkscape:connector-curvature="0" /></clipPath><clipPath
       clipPathUnits="userSpaceOnUse"
       id="clipPath5046"><path
         d="m 0,0 1500,0 0,1000 L 0,1000 0,0 Z"
         id="path5048"
         inkscape:connector-curvature="0" /></clipPath><clipPath
       clipPathUnits="userSpaceOnUse"
       id="clipPath5056"><path
         d="m 593.4627,599.6548 369.6797,0 0,109.9829 -369.6797,0 0,-109.9829 z"
         id="path5058"
         inkscape:connector-curvature="0" /></clipPath></defs><sodipodi:namedview
     pagecolor="#ffffff"
     bordercolor="#666666"
     borderopacity="1"
     objecttolerance="10"
     gridtolerance="10"
     guidetolerance="10"
     inkscape:pageopacity="0"
     inkscape:pageshadow="2"
     inkscape:window-width="640"
     inkscape:window-height="480"
     id="namedview4606"
     showgrid="false"
     inkscape:zoom="0.86531532"
     inkscape:cx="640.26367"
     inkscape:cy="375.58563"
     inkscape:window-x="0"
     inkscape:window-y="0"
     inkscape:window-maximized="0"
     inkscape:current-layer="g4612" /><g
     id="g4612"
     inkscape:groupmode="layer"
     inkscape:label="Modulation_Detail_fig"
     transform="matrix(1.25,0,0,-1.25,-342.41012,1002.3122)"><g
       id="g4614" /><g
       id="g4616"><g
         id="g4618"
         clip-path="url(#clipPath4620)"><path
           d="m 0,0 1500,0 0,1000 L 0,1000 0,0 Z"
           style="fill:#ffffff;fill-opacity:1;fill-rule:nonzero;stroke:none"
           id="path4624"
           inkscape:connector-curvature="0" /><path
           d="m 280.4897,792.511 647.7901,0 0,-585.022 -647.7901,0 0,585.022 z"
           style="fill:#fdfdc5;fill-opacity:1;fill-rule:nonzero;stroke:none"
           id="path4626"
           inkscape:connector-curvature="0" /><g
           id="g4628"
           transform="matrix(1,0,0,-1,280.4897,792.511)"><path
             d="m 0,0 647.79,0 0,585.022 L 0,585.022 0,0 Z"
             style="fill:none;stroke:#000000;stroke-width:1;stroke-linecap:butt;stroke-linejoin:round;stroke-miterlimit:4;stroke-dasharray:none;stroke-opacity:1"
             id="path4630"
             inkscape:connector-curvature="0" /></g></g></g><g
       id="g4632"><g
         id="g4634"
         clip-path="url(#clipPath4636)"><g
           id="g4640"
           transform="translate(290,496)" /></g></g><g
       id="g4642"><g
         id="g4644"
         clip-path="url(#clipPath4646)"><path
           d="m 303.5601,593.0809 442.909,0 0,-258.2671 -442.909,0 0,258.2671 z"
           style="fill:#f7db96;fill-opacity:1;fill-rule:nonzero;stroke:none"
           id="path4650"
           inkscape:connector-curvature="0" /><g
           id="g4652"
           transform="matrix(1,0,0,-1,303.5601,593.0809)"><path
             d="m 0,0 442.9091,0 0,258.2672 L 0,258.2672 0,0 Z"
             style="fill:none;stroke:#000000;stroke-width:0.5;stroke-linecap:butt;stroke-linejoin:round;stroke-miterlimit:4;stroke-dasharray:none;stroke-opacity:1"
             id="path4654"
             inkscape:connector-curvature="0" /></g></g></g><g
       id="g4656"><g
         id="g4658"
         clip-path="url(#clipPath4660)"><g
           id="g4664"
           transform="translate(566,732)"><text
             transform="scale(1,-1)"
             style="font-variant:normal;font-weight:bold;font-size:48px;font-family:Arial;-inkscape-font-specification:Arial-BoldMT;writing-mode:lr-tb;fill:#000000;fill-opacity:1;fill-rule:nonzero;stroke:none"
             id="text4666"><tspan
               x="0 32.015999 48 74.697601 90.681602"
               y="0"
               sodipodi:role="line"
               id="tspan4668">State</tspan></text>
</g></g></g><g
       id="g4670"><g
         id="g4672"
         clip-path="url(#clipPath4674)"><g
           id="g4678"
           transform="translate(403,471)"><text
             transform="scale(1,-1)"
             style="font-style:italic;font-variant:normal;font-weight:bold;font-size:36px;font-family:Arial;-inkscape-font-specification:Arial-BoldItalicMT;writing-mode:lr-tb;fill:#000000;fill-opacity:1;fill-rule:nonzero;stroke:none"
             id="text4680"><tspan
               x="0 21.9888 43.9776 65.9664 85.989601 97.9776 107.9784 129.96719 151.95599"
               y="0"
               sodipodi:role="line"
               id="tspan4682">Function </tspan></text>
</g><g
           id="g4684"
           transform="translate(357,444)"><text
             transform="scale(1,-1)"
             style="font-style:italic;font-variant:normal;font-size:14px;font-family:Arial;-inkscape-font-specification:Arial-ItalicMT;writing-mode:lr-tb;fill:#000000;fill-opacity:1;fill-rule:nonzero;stroke:none"
             id="text4686"><tspan
               x="0 11.662 21.7728 28.5194 37.070599 40.959801 50.297798 58.084599 61.973801 72.084602 80.383797 88.934998 92.824203 102.1622 111.5002 119.287 127.5862 136.92419 147.035 156.373 168.035 171.92419 180.1002 183.9894 191.7762 199.563 204.22501 212.0118 223.6738 231.4606 240.27921"
               y="0"
               sodipodi:role="line"
               id="tspan4688">MULTIPLICATIVE_PARAM = param_A </tspan></text>
</g><g
           id="g4690"
           transform="translate(357,428)"><text
             transform="scale(1,-1)"
             style="font-style:italic;font-variant:normal;font-size:14px;font-family:Arial;-inkscape-font-specification:Arial-ItalicMT;writing-mode:lr-tb;fill:#000000;fill-opacity:1;fill-rule:nonzero;stroke:none"
             id="text4692"><tspan
               x="0 9.3380003 19.448799 29.559601 33.448799 42 45.889198 55.2272 64.565201 72.351997 80.651199 89.989197 100.1 109.438 121.1 124.9892 133.16521 137.0544 144.8412 152.62801 157.28999 165.0768 176.7388 184.5256"
               y="0"
               sodipodi:role="line"
               id="tspan4694">ADDITIVE_PARAM = param_B</tspan></text>
</g><path
           d="m 801.6217,717.1202 109.2409,0 0,-366.9613 -109.2409,0 0,366.9613 z"
           style="fill:#f7db96;fill-opacity:1;fill-rule:nonzero;stroke:none"
           id="path4696"
           inkscape:connector-curvature="0" /><g
           id="g4698"
           transform="matrix(1,0,0,-1,801.6217,717.1202)"><path
             d="m 0,0 109.241,0 0,366.9612 L 0,366.9612 0,0 Z"
             style="fill:none;stroke:#000000;stroke-width:0.5;stroke-linecap:butt;stroke-linejoin:round;stroke-miterlimit:4;stroke-dasharray:none;stroke-opacity:1"
             id="path4700"
             inkscape:connector-curvature="0" /></g></g></g><g
       id="g4702"><g
         id="g4704"
         clip-path="url(#clipPath4706)"><g
           id="g4710"
           transform="translate(815,697)"><text
             transform="scale(1,-1)"
             style="font-style:italic;font-variant:normal;font-weight:bold;font-size:12px;font-family:Arial;-inkscape-font-specification:Arial-BoldItalicMT;writing-mode:lr-tb;fill:#000000;fill-opacity:1;fill-rule:nonzero;stroke:none"
             id="text4712"><tspan
               x="0 10.6704 18 25.329599 32.004002 38.678398 42.457199 46.453201 53.127602 57.798 64.472397 71.802002 75.797997 82.472397"
               y="0"
               sodipodi:role="line"
               id="tspan4714">mod_afferents </tspan></text>
</g></g></g><g
       id="g4716"><g
         id="g4718"
         clip-path="url(#clipPath4720)"><path
           d="m 388.4272,683.6019 206.9248,0 0,-56.1368 -206.9248,0 0,56.1368 z"
           style="fill:#f7db96;fill-opacity:1;fill-rule:nonzero;stroke:none"
           id="path4724"
           inkscape:connector-curvature="0" /><g
           id="g4726"
           transform="matrix(1,0,0,-1,388.4272,683.6019)"><path
             d="m 0,0 206.9247,0 0,56.1368 L 0,56.1368 0,0 Z"
             style="fill:none;stroke:#000000;stroke-width:0.5;stroke-linecap:butt;stroke-linejoin:round;stroke-miterlimit:4;stroke-dasharray:none;stroke-opacity:1"
             id="path4728"
             inkscape:connector-curvature="0" /></g></g></g><g
       id="g4730"><g
         id="g4732"
         clip-path="url(#clipPath4734)"><g
           id="g4738"
           transform="translate(461,647)"><text
             transform="scale(1,-1)"
             style="font-style:italic;font-variant:normal;font-weight:bold;font-size:24px;font-family:Arial;-inkscape-font-specification:Arial-BoldItalicMT;writing-mode:lr-tb;fill:#000000;fill-opacity:1;fill-rule:nonzero;stroke:none"
             id="text4740"><tspan
               x="0 13.3488 26.697599 33.374401 48.043201"
               y="0"
               sodipodi:role="line"
               id="tspan4742">value</tspan></text>
</g></g></g><g
       id="g4744"><g
         id="g4746"
         clip-path="url(#clipPath4748)"><path
           d="m 388.4272,299.4296 206.9248,0 0,-56.1368 -206.9248,0 0,56.1368 z"
           style="fill:#f7db96;fill-opacity:1;fill-rule:nonzero;stroke:none"
           id="path4752"
           inkscape:connector-curvature="0" /><g
           id="g4754"
           transform="matrix(1,0,0,-1,388.4272,299.4296)"><path
             d="m 0,0 206.9247,0 0,56.1368 L 0,56.1368 0,0 Z"
             style="fill:none;stroke:#000000;stroke-width:0.5;stroke-linecap:butt;stroke-linejoin:round;stroke-miterlimit:4;stroke-dasharray:none;stroke-opacity:1"
             id="path4756"
             inkscape:connector-curvature="0" /></g></g></g><g
       id="g4758"><g
         id="g4760"
         clip-path="url(#clipPath4762)"><g
           id="g4766"
           transform="translate(447,263)"><text
             transform="scale(1,-1)"
             style="font-style:italic;font-variant:normal;font-weight:bold;font-size:24px;font-family:Arial;-inkscape-font-specification:Arial-BoldItalicMT;writing-mode:lr-tb;fill:#000000;fill-opacity:1;fill-rule:nonzero;stroke:none"
             id="text4768"><tspan
               x="0 13.3488 26.697599 36.038399 42.715199 56.063999 70.732803 77.409599"
               y="0"
               sodipodi:role="line"
               id="tspan4770">variable</tspan></text>
</g></g></g><g
       id="g4772"><g
         id="g4774"
         clip-path="url(#clipPath4776)"><path
           d="m 939.0612,755.652 351.8378,0 0,-444.0248 -351.8378,0 0,444.0248 z"
           style="fill:#d2d2d2;fill-opacity:1;fill-rule:nonzero;stroke:none"
           id="path4780"
           inkscape:connector-curvature="0" /><g
           id="g4782"
           transform="matrix(1,0,0,-1,939.0612,755.652)"><path
             d="m 0,0 351.8375,0 0,444.0248 L 0,444.0248 0,0 Z"
             style="fill:none;stroke:#000000;stroke-width:1;stroke-linecap:butt;stroke-linejoin:round;stroke-miterlimit:4;stroke-dasharray:none;stroke-opacity:1"
             id="path4784"
             inkscape:connector-curvature="0" /></g></g></g><g
       id="g4786"><g
         id="g4788"
         clip-path="url(#clipPath4790)"><g
           id="g4794"
           transform="translate(970,724)"><text
             transform="scale(1,-1)"
             style="font-variant:normal;font-weight:bold;font-size:30px;font-family:Arial;-inkscape-font-specification:Arial-BoldMT;writing-mode:lr-tb;fill:#000000;fill-opacity:1;fill-rule:nonzero;stroke:none"
             id="text4796"><tspan
               x="0 21.666 39.990002 56.675999 75 84.989998 93.323997 110.01 126.696 151.686 168.37199 185.058 203.382 220.06799 238.392 246.726 263.41199"
               y="0"
               sodipodi:role="line"
               id="tspan4798">AdaptiveMechanism</tspan></text>
</g></g></g><g
       id="g4800"><g
         id="g4802"
         clip-path="url(#clipPath4804)"><path
           d="m 963.6106,582.8183 259.5334,0 0,-98.3575 -259.5334,0 0,98.3575 z"
           style="fill:#000000;fill-opacity:0.16799999;fill-rule:nonzero;stroke:none"
           id="path4808"
           inkscape:connector-curvature="0" /></g></g><g
       id="g4810"><g
         id="g4812"
         clip-path="url(#clipPath4814)"><g
           id="g4818"
           transform="translate(993,557)"><text
             transform="scale(1,-1)"
             style="font-variant:normal;font-weight:bold;font-size:24px;font-family:Arial;-inkscape-font-specification:Arial-BoldMT;writing-mode:lr-tb;fill:#000000;fill-opacity:1;fill-rule:nonzero;stroke:none"
             id="text4820"><tspan
               x="0 19.992001 34.651199 49.310398 63.969601 70.636803 83.985603 91.9776 106.6368 115.9776 129.3264 145.3344 152.0016 166.6608 181.32001 194.66879 201.336"
               y="0"
               sodipodi:role="line"
               id="tspan4822">ModulatorySignal </tspan></text>
</g><g
           id="g4824"
           transform="translate(1059,528)"><text
             transform="scale(1,-1)"
             style="font-variant:normal;font-weight:normal;font-size:12px;font-family:Arial;-inkscape-font-specification:ArialMT;writing-mode:lr-tb;fill:#000000;fill-opacity:1;fill-rule:nonzero;stroke:none"
             id="text4826"><tspan
               x="0 9.9960003 16.670401 23.344801 30.019199 32.6856 39.360001 42.6936 45.360001 52.034401 58.708801 62.0424 69.0504"
               y="0"
               sodipodi:role="line"
               id="tspan4828">modulation = </tspan></text>
</g><g
           id="g4830"
           transform="translate(996,514)"><text
             transform="scale(1,-1)"
             style="font-variant:normal;font-weight:normal;font-size:12px;font-family:Arial;-inkscape-font-specification:ArialMT;writing-mode:lr-tb;fill:#000000;fill-opacity:1;fill-rule:nonzero;stroke:none"
             id="text4832"><tspan
               x="0 9.9960003 16.670401 23.344801 30.019199 32.6856 39.360001 42.6936 45.360001 52.034401 58.708801 66.712799 73.387199 77.383202 84.057602 94.053596"
               y="0"
               sodipodi:role="line"
               id="tspan4834">ModulationParam.</tspan></text>
</g><g
           id="g4836"
           transform="translate(996,514)"><text
             transform="matrix(1,0,0,-1,97.38281,0)"
             style="font-variant:normal;font-weight:bold;font-size:12px;font-family:Arial;-inkscape-font-specification:Arial-BoldMT;writing-mode:lr-tb;fill:#000000;fill-opacity:1;fill-rule:nonzero;stroke:none"
             id="text4838"><tspan
               x="0 9.9960003 18.662399 25.101601 32.431198 35.764801 43.768799 51.0984 54.431999 63.0984 70.873199 78.202797 81.5364 89.540398"
               y="0"
               sodipodi:role="line"
               id="tspan4840">MULTIPLICATIVE</tspan></text>
</g></g></g><g
       id="g4842"><g
         id="g4844"
         clip-path="url(#clipPath4846)"><path
           d="m 782.4289,513.3659 0,-33.7111 -47.6162,54.9915 47.6162,54.9915 0,-33.7111 180.7134,0 0,-42.5608 -180.7134,0 z"
           style="fill:#808080;fill-opacity:1;fill-rule:nonzero;stroke:none"
           id="path4850"
           inkscape:connector-curvature="0" /></g></g><g
       id="g4852"><g
         id="g4854"
         clip-path="url(#clipPath4856)"><g
           id="g4860"
           transform="translate(789,531)"><text
             transform="scale(1,-1)"
             style="font-style:italic;font-variant:normal;font-weight:bold;font-size:12px;font-family:Helvetica;-inkscape-font-specification:Helvetica-BoldOblique;writing-mode:lr-tb;fill:#000000;fill-opacity:1;fill-rule:nonzero;stroke:none"
             id="text4862"><tspan
               x="0 9.9960003 17.3256 24.655199 31.9848 35.318401 41.992802 45.9888 53.318401 57.9888 64.6632 72.667198 77.337601 84.667198 88.000801 94.675201 101.3496 105.3456 108.6792 116.0088"
               y="0"
               sodipodi:role="line"
               id="tspan4864">ModulatoryProjection</tspan></text>
</g></g></g><g
       id="g4866"><g
         id="g4868"
         clip-path="url(#clipPath4870)"><path
           d="m 963.6106,442.8183 259.5334,0 0,-98.3575 -259.5334,0 0,98.3575 z"
           style="fill:#000000;fill-opacity:0.16799999;fill-rule:nonzero;stroke:none"
           id="path4874"
           inkscape:connector-curvature="0" /></g></g><g
       id="g4876"><g
         id="g4878"
         clip-path="url(#clipPath4880)"><g
           id="g4884"
           transform="translate(993,417)"><text
             transform="scale(1,-1)"
             style="font-variant:normal;font-weight:bold;font-size:24px;font-family:Arial;-inkscape-font-specification:Arial-BoldMT;writing-mode:lr-tb;fill:#000000;fill-opacity:1;fill-rule:nonzero;stroke:none"
             id="text4886"><tspan
               x="0 19.992001 34.651199 49.310398 63.969601 70.636803 83.985603 91.9776 106.6368 115.9776 129.3264 145.3344 152.0016 166.6608 181.32001 194.66879 201.336"
               y="0"
               sodipodi:role="line"
               id="tspan4888">ModulatorySignal </tspan></text>
</g><g
           id="g4890"
           transform="translate(1059,388)"><text
             transform="scale(1,-1)"
             style="font-variant:normal;font-weight:normal;font-size:12px;font-family:Arial;-inkscape-font-specification:ArialMT;writing-mode:lr-tb;fill:#000000;fill-opacity:1;fill-rule:nonzero;stroke:none"
             id="text4892"><tspan
               x="0 9.9960003 16.670401 23.344801 30.019199 32.6856 39.360001 42.6936 45.360001 52.034401 58.708801 62.0424 69.0504"
               y="0"
               sodipodi:role="line"
               id="tspan4894">modulation = </tspan></text>
</g><g
           id="g4896"
           transform="translate(1017,374)"><text
             transform="scale(1,-1)"
             style="font-variant:normal;font-weight:normal;font-size:12px;font-family:Arial;-inkscape-font-specification:ArialMT;writing-mode:lr-tb;fill:#000000;fill-opacity:1;fill-rule:nonzero;stroke:none"
             id="text4898"><tspan
               x="0 9.9960003 16.670401 23.344801 30.019199 32.6856 39.360001 42.6936 45.360001 52.034401 58.708801 66.712799 73.387199 77.383202 84.057602 94.053596"
               y="0"
               sodipodi:role="line"
               id="tspan4900">ModulationParam.</tspan></text>
</g><g
           id="g4902"
           transform="translate(1017,374)"><text
             transform="matrix(1,0,0,-1,97.38281,0)"
             style="font-variant:normal;font-weight:bold;font-size:12px;font-family:Arial;-inkscape-font-specification:Arial-BoldMT;writing-mode:lr-tb;fill:#000000;fill-opacity:1;fill-rule:nonzero;stroke:none"
             id="text4904"><tspan
               x="0 8.6664 17.3328 25.999201 29.3328 36.662399 39.995998 48"
               y="0"
               sodipodi:role="line"
               id="tspan4906">ADDITIVE</tspan></text>
</g></g></g><g
       id="g4908"><g
         id="g4910"
         clip-path="url(#clipPath4912)"><path
           d="m 783.2986,373.3659 0,-33.7111 -47.6162,54.9915 47.6162,54.9915 0,-33.7111 179.8437,0 0,-42.5608 -179.8437,0 z"
           style="fill:#808080;fill-opacity:1;fill-rule:nonzero;stroke:none"
           id="path4916"
           inkscape:connector-curvature="0" /></g></g><g
       id="g4918"><g
         id="g4920"
         clip-path="url(#clipPath4922)"><g
           id="g4926"
           transform="translate(790,391)"><text
             transform="scale(1,-1)"
             style="font-style:italic;font-variant:normal;font-weight:bold;font-size:12px;font-family:Helvetica;-inkscape-font-specification:Helvetica-BoldOblique;writing-mode:lr-tb;fill:#000000;fill-opacity:1;fill-rule:nonzero;stroke:none"
             id="text4928"><tspan
               x="0 9.9960003 17.3256 24.655199 31.9848 35.318401 41.992802 45.9888 53.318401 57.9888 64.6632 72.667198 77.337601 84.667198 88.000801 94.675201 101.3496 105.3456 108.6792 116.0088"
               y="0"
               sodipodi:role="line"
               id="tspan4930">ModulatoryProjection</tspan></text>
</g></g></g><g
       id="g4932"><g
         id="g4934"
         clip-path="url(#clipPath4936)"><path
           d="m 617.7606,561.708 116.8882,0 0,-45.2098 -116.8882,0 0,45.2098 z"
           style="fill:#dac387;fill-opacity:1;fill-rule:nonzero;stroke:none"
           id="path4940"
           inkscape:connector-curvature="0" /><g
           id="g4942"
           transform="matrix(1,0,0,-1,617.7606,561.708)"><path
             d="m 0,0 116.8883,0 0,45.20972 L 0,45.20972 0,0 Z"
             style="fill:none;stroke:#000000;stroke-width:0.5;stroke-linecap:butt;stroke-linejoin:round;stroke-miterlimit:4;stroke-dasharray:none;stroke-opacity:1"
             id="path4944"
             inkscape:connector-curvature="0" /></g></g></g><g
       id="g4946"><g
         id="g4948"
         clip-path="url(#clipPath4950)"><g
           id="g4954"
           transform="translate(638,533)"><text
             transform="scale(1,-1)"
             style="font-style:italic;font-variant:normal;font-weight:bold;font-size:18px;font-family:Arial;-inkscape-font-specification:Arial-BoldItalicMT;writing-mode:lr-tb;fill:#000000;fill-opacity:1;fill-rule:nonzero;stroke:none"
             id="text4956"><tspan
               x="0 10.9944 20.9988 27.9972 38.001598 54 64.004402"
               y="0"
               sodipodi:role="line"
               id="tspan4958">param_A</tspan></text>
</g></g></g><g
       id="g4960"><g
         id="g4962"
         clip-path="url(#clipPath4964)"><path
           d="m 617.7606,416.7079 116.8882,0 0,-45.2097 -116.8882,0 0,45.2097 z"
           style="fill:#dac387;fill-opacity:1;fill-rule:nonzero;stroke:none"
           id="path4968"
           inkscape:connector-curvature="0" /><g
           id="g4970"
           transform="matrix(1,0,0,-1,617.7606,416.7079)"><path
             d="m 0,0 116.8883,0 0,45.20972 L 0,45.20972 0,0 Z"
             style="fill:none;stroke:#000000;stroke-width:0.5;stroke-linecap:butt;stroke-linejoin:round;stroke-miterlimit:4;stroke-dasharray:none;stroke-opacity:1"
             id="path4972"
             inkscape:connector-curvature="0" /></g></g></g><g
       id="g4974"><g
         id="g4976"
         clip-path="url(#clipPath4978)"><g
           id="g4982"
           transform="translate(638,388)"><text
             transform="scale(1,-1)"
             style="font-style:italic;font-variant:normal;font-weight:bold;font-size:18px;font-family:Arial;-inkscape-font-specification:Arial-BoldItalicMT;writing-mode:lr-tb;fill:#000000;fill-opacity:1;fill-rule:nonzero;stroke:none"
             id="text4984"><tspan
               x="0 10.9944 20.9988 27.9972 38.001598 54 64.004402"
               y="0"
               sodipodi:role="line"
               id="tspan4986">param_B</tspan></text>
</g></g></g><g
       id="g4988"><g
         id="g4990"
         clip-path="url(#clipPath4992)"><g
           id="g4996"
           transform="matrix(1,0,0,-1,491.8896,627.2269)"><path
             d="M 0,34.03562 C 0,25.89042 0,17.74521 0,9.6 l 0,-1"
             style="fill:none;stroke:#000000;stroke-width:2;stroke-linecap:butt;stroke-linejoin:miter;stroke-miterlimit:4;stroke-dasharray:none;stroke-opacity:1"
             id="path4998"
             inkscape:connector-curvature="0" /></g><path
           d="m 496.6896,617.6269 -4.8,9.6 -4.8,-9.6 9.6,0 z"
           style="fill:#000000;fill-opacity:1;fill-rule:nonzero;stroke:none"
           id="path5000"
           inkscape:connector-curvature="0" /><g
           id="g5002"
           transform="matrix(1,0,0,-1,491.8896,336.7034)"><path
             d="m 0,8.6 0,1 c 0,9.14127 0,18.28255 0,27.42382"
             style="fill:none;stroke:#000000;stroke-width:2;stroke-linecap:butt;stroke-linejoin:miter;stroke-miterlimit:4;stroke-dasharray:none;stroke-opacity:1"
             id="path5004"
             inkscape:connector-curvature="0" /></g><path
           d="m 496.6896,327.1034 -4.8,9.6 -4.8,-9.6 9.6,0 z"
           style="fill:#000000;fill-opacity:1;fill-rule:nonzero;stroke:none"
           id="path5006"
           inkscape:connector-curvature="0" /><path
           d="m 963.6106,702.8183 259.5334,0 0,-98.3575 -259.5334,0 0,98.3575 z"
           style="fill:#000000;fill-opacity:0.16799999;fill-rule:nonzero;stroke:none"
           id="path5008"
           inkscape:connector-curvature="0" /></g></g><g
       id="g5010"><g
         id="g5012"
         clip-path="url(#clipPath5014)"><g
           id="g5018"
           transform="translate(993,677)"><text
             transform="scale(1,-1)"
             style="font-variant:normal;font-weight:bold;font-size:24px;font-family:Arial;-inkscape-font-specification:Arial-BoldMT;writing-mode:lr-tb;fill:#000000;fill-opacity:1;fill-rule:nonzero;stroke:none"
             id="text5020"><tspan
               x="0 19.992001 34.651199 49.310398 63.969601 70.636803 83.985603 91.9776 106.6368 115.9776 129.3264 145.3344 152.0016 166.6608 181.32001 194.66879 201.336"
               y="0"
               sodipodi:role="line"
               id="tspan5022">ModulatorySignal </tspan></text>
</g><g
           id="g5024"
           transform="translate(1059,648)"><text
             transform="scale(1,-1)"
             style="font-variant:normal;font-weight:normal;font-size:12px;font-family:Arial;-inkscape-font-specification:ArialMT;writing-mode:lr-tb;fill:#000000;fill-opacity:1;fill-rule:nonzero;stroke:none"
             id="text5026"><tspan
               x="0 9.9960003 16.670401 23.344801 30.019199 32.6856 39.360001 42.6936 45.360001 52.034401 58.708801 62.0424 69.0504"
               y="0"
               sodipodi:role="line"
               id="tspan5028">modulation = </tspan></text>
</g><g
           id="g5030"
           transform="translate(1013,634)"><text
             transform="scale(1,-1)"
             style="font-variant:normal;font-weight:normal;font-size:12px;font-family:Arial;-inkscape-font-specification:ArialMT;writing-mode:lr-tb;fill:#000000;fill-opacity:1;fill-rule:nonzero;stroke:none"
             id="text5032"><tspan
               x="0 9.9960003 16.670401 23.344801 30.019199 32.6856 39.360001 42.6936 45.360001 52.034401 58.708801 66.712799 73.387199 77.383202 84.057602 94.053596"
               y="0"
               sodipodi:role="line"
               id="tspan5034">ModulationParam.</tspan></text>
</g><g
           id="g5036"
           transform="translate(1013,634)"><text
             transform="matrix(1,0,0,-1,97.38281,0)"
             style="font-variant:normal;font-weight:bold;font-size:12px;font-family:Arial;-inkscape-font-specification:Arial-BoldMT;writing-mode:lr-tb;fill:#000000;fill-opacity:1;fill-rule:nonzero;stroke:none"
             id="text5038"><tspan
               x="0 9.3336 17.337601 25.3416 34.007999 42.6744 46.007999 54.6744"
               y="0"
               sodipodi:role="line"
               id="tspan5040">OVERRIDE</tspan></text>
</g></g></g><g
       id="g5042"><g
         id="g5044"
         clip-path="url(#clipPath5046)"><path
           d="m 641.0788,633.3659 0,-33.7111 -47.6161,54.9915 47.6161,54.9915 0,-33.7111 322.0635,0 0,-42.5608 -322.0635,0 z"
           style="fill:#808080;fill-opacity:1;fill-rule:nonzero;stroke:none"
           id="path5050"
           inkscape:connector-curvature="0" /></g></g><g
       id="g5052"><g
         id="g5054"
         clip-path="url(#clipPath5056)"><g
           id="g5060"
           transform="translate(718,651)"><text
             transform="scale(1,-1)"
             style="font-style:italic;font-variant:normal;font-weight:bold;font-size:12px;font-family:Helvetica;-inkscape-font-specification:Helvetica-BoldOblique;writing-mode:lr-tb;fill:#000000;fill-opacity:1;fill-rule:nonzero;stroke:none"
             id="text5062"><tspan
               x="0 9.9960003 17.3256 24.655199 31.9848 35.318401 41.992802 45.9888 53.318401 57.9888 64.6632 72.667198 77.337601 84.667198 88.000801 94.675201 101.3496 105.3456 108.6792 116.0088"
               y="0"
               sodipodi:role="line"
               id="tspan5064">ModulatoryProjection</tspan></text>
</g></g></g></g></svg>