<?xml version="1.0" encoding="UTF-8" standalone="no"?>
<!-- Created with Inkscape (http://www.inkscape.org/) -->

<svg
   xmlns:dc="http://purl.org/dc/elements/1.1/"
   xmlns:cc="http://creativecommons.org/ns#"
   xmlns:rdf="http://www.w3.org/1999/02/22-rdf-syntax-ns#"
   xmlns:svg="http://www.w3.org/2000/svg"
   xmlns="http://www.w3.org/2000/svg"
   xmlns:sodipodi="http://sodipodi.sourceforge.net/DTD/sodipodi-0.dtd"
   xmlns:inkscape="http://www.inkscape.org/namespaces/inkscape"
   id="svg3355"
   version="1.1"
   inkscape:version="0.91 r13725"
   xml:space="preserve"
   width="590.69525"
   height="1025.4788"
   viewBox="0 0 590.69525 1025.4788"
   sodipodi:docname="Process_Learning_fig.svg"><metadata
     id="metadata3361"><rdf:RDF><cc:Work
         rdf:about=""><dc:format>image/svg+xml</dc:format><dc:type
           rdf:resource="http://purl.org/dc/dcmitype/StillImage" /><dc:title></dc:title></cc:Work></rdf:RDF></metadata><defs
     id="defs3359"><clipPath
       clipPathUnits="userSpaceOnUse"
       id="clipPath3371"><path
         d="m 0,0 1500,0 0,1000 L 0,1000 0,0 Z"
         id="path3373"
         inkscape:connector-curvature="0" /></clipPath><clipPath
       clipPathUnits="userSpaceOnUse"
       id="clipPath3507"><path
         d="m 506.2563,127.8131 162.4047,0 0,67.55589 -162.4047,0 0,-67.55589 z"
         id="path3509"
         inkscape:connector-curvature="0" /></clipPath><clipPath
       clipPathUnits="userSpaceOnUse"
       id="clipPath3527"><path
         d="m 0,0 1500,0 0,1000 L 0,1000 0,0 Z"
         id="path3529"
         inkscape:connector-curvature="0" /></clipPath><clipPath
       clipPathUnits="userSpaceOnUse"
       id="clipPath3577"><path
         d="m 506.2563,347.532 162.4047,0 0,69.86384 -162.4047,0 0,-69.86384 z"
         id="path3579"
         inkscape:connector-curvature="0" /></clipPath><clipPath
       clipPathUnits="userSpaceOnUse"
       id="clipPath3597"><path
         d="m 0,0 1500,0 0,1000 L 0,1000 0,0 Z"
         id="path3599"
         inkscape:connector-curvature="0" /></clipPath><clipPath
       clipPathUnits="userSpaceOnUse"
       id="clipPath3611"><path
         d="m 506.2563,570.648 162.4047,0 0,69.86384 -162.4047,0 0,-69.86384 z"
         id="path3613"
         inkscape:connector-curvature="0" /></clipPath><clipPath
       clipPathUnits="userSpaceOnUse"
       id="clipPath3631"><path
         d="m 377.8393,910.2296 744.3214,0 0,64.28571 -744.3214,0 0,-64.28571 z"
         id="path3633"
         inkscape:connector-curvature="0" /></clipPath><clipPath
       clipPathUnits="userSpaceOnUse"
       id="clipPath3645"><path
         d="m 0,0 1500,0 0,1000 L 0,1000 0,0 Z"
         id="path3647"
         inkscape:connector-curvature="0" /></clipPath><clipPath
       clipPathUnits="userSpaceOnUse"
       id="clipPath3659"><path
         d="m 763.1668,725.4375 177.3867,0 0,67.55589 -177.3867,0 0,-67.55589 z"
         id="path3661"
         inkscape:connector-curvature="0" /></clipPath><clipPath
       clipPathUnits="userSpaceOnUse"
       id="clipPath3679"><path
         d="m 0,0 1500,0 0,1000 L 0,1000 0,0 Z"
         id="path3681"
         inkscape:connector-curvature="0" /></clipPath><clipPath
       clipPathUnits="userSpaceOnUse"
       id="clipPath3693"><path
         d="m 799.633,325.5927 164.6024,0 0,67.55589 -164.6024,0 0,-67.55589 z"
         id="path3695"
         inkscape:connector-curvature="0" /></clipPath><clipPath
       clipPathUnits="userSpaceOnUse"
       id="clipPath3713"><path
         d="m 0,0 1500,0 0,1000 L 0,1000 0,0 Z"
         id="path3715"
         inkscape:connector-curvature="0" /></clipPath><clipPath
       clipPathUnits="userSpaceOnUse"
       id="clipPath3727"><path
         d="m 770.359,556.0393 164.6024,0 0,67.55589 -164.6024,0 0,-67.55589 z"
         id="path3729"
         inkscape:connector-curvature="0" /></clipPath></defs><sodipodi:namedview
     pagecolor="#ffffff"
     bordercolor="#666666"
     borderopacity="1"
     objecttolerance="10"
     gridtolerance="10"
     guidetolerance="10"
     inkscape:pageopacity="0"
     inkscape:pageshadow="2"
     inkscape:window-width="640"
     inkscape:window-height="480"
     id="namedview3357"
     showgrid="false"
     inkscape:zoom="0.63385028"
     inkscape:cx="295.34763"
     inkscape:cy="512.73938"
     inkscape:window-x="0"
     inkscape:window-y="0"
     inkscape:window-maximized="0"
     inkscape:current-layer="g3363" /><g
     id="g3363"
     inkscape:groupmode="layer"
     inkscape:label="Process_Learning_fig"
     transform="matrix(1.25,0,0,-1.25,-619.278,1106.1881)"><g
       id="g3365" /><g
       id="g3367"><g
         id="g3369"
         clip-path="url(#clipPath3371)"><path
           d="m 0,0 1500,0 0,1000 L 0,1000 0,0 Z"
           style="fill:#ffffff;fill-opacity:1;fill-rule:nonzero;stroke:none"
           id="path3375"
           inkscape:connector-curvature="0" /><path
           d="m 544.962,295.7441 -19.8474,0 61.2096,51.709 61.2095,-51.709 -19.8473,0 0,-99.18 -82.7244,0 0,99.18 z"
           style="fill:#de6a0f;fill-opacity:1;fill-rule:nonzero;stroke:none"
           id="path3377"
           inkscape:connector-curvature="0" /><g
           id="g3379"
           transform="matrix(0,-1,-1,0,647.5337,347.4531)"><path
             d="m 51.709,102.5717 0,19.8474 L 0,61.20953 51.709,0 l 0,19.84733 99.1799,0 0,82.72437 -99.1799,0 z"
             style="fill:none;stroke:#fdfdc5;stroke-width:0.25;stroke-linecap:butt;stroke-linejoin:round;stroke-miterlimit:4;stroke-dasharray:none;stroke-opacity:1"
             id="path3381"
             inkscape:connector-curvature="0" /></g><g
           id="g3383"
           transform="matrix(1,0,0,-1,851.897,725.3126)"><path
             d="M 0,0 0.1272681,22.5936 0.186413,33.09345"
             style="fill:none;stroke:#de6a10;stroke-width:21;stroke-linecap:butt;stroke-linejoin:miter;stroke-miterlimit:4;stroke-dasharray:none;stroke-opacity:1"
             id="path3385"
             inkscape:connector-curvature="0" /></g><path
           d="m 813.0248,702.4993 39.4388,-77.7791 38.56,78.2184 -77.9988,-0.4393 z"
           style="fill:#de6a10;fill-opacity:1;fill-rule:nonzero;stroke:none"
           id="path3387"
           inkscape:connector-curvature="0" /><g
           id="g3389"
           transform="matrix(1,0,0,-1,586.5049,869.2355)"><path
             d="M 0.05085314,227.5987 C -1.944146,23.05446 54.75962,-43.62097 170.1622,27.57237 l 8.7813,6.64589"
             style="fill:none;stroke:#de6a10;stroke-width:22;stroke-linecap:butt;stroke-linejoin:miter;stroke-miterlimit:4;stroke-dasharray:none;stroke-opacity:1"
             id="path3391"
             inkscape:connector-curvature="0" /></g><path
           d="m 732.0554,809.1223 89.6881,-16.7104 -40.4445,81.7767 -49.2436,-65.0663 z"
           style="fill:#de6a10;fill-opacity:1;fill-rule:nonzero;stroke:none"
           id="path3393"
           inkscape:connector-curvature="0" /><g
           id="g3395"
           transform="translate(756,826)"><text
             transform="scale(1,-1)"
             style="font-variant:normal;font-weight:bold;font-size:10px;font-family:Arial;-inkscape-font-specification:Arial-BoldMT;writing-mode:lr-tb;fill:#fdfdc5;fill-opacity:1;fill-rule:nonzero;stroke:none"
             id="text3397"><tspan
               x="0 8.3299999 13.892 20 26.108 28.886 34.993999 41.102001"
               y="0"
               sodipodi:role="line"
               id="tspan3399">Mapping </tspan></text>
</g><g
           id="g3401"
           transform="translate(753,815)"><text
             transform="scale(1,-1)"
             style="font-variant:normal;font-weight:bold;font-size:10px;font-family:Arial;-inkscape-font-specification:Arial-BoldMT;writing-mode:lr-tb;fill:#fdfdc5;fill-opacity:1;fill-rule:nonzero;stroke:none"
             id="text3403"><tspan
               x="0 6.6700001 10.562 16.67 19.448 25.01 30.572001 33.902 36.68 42.787998"
               y="0"
               sodipodi:role="line"
               id="tspan3405">Projection</tspan></text>
</g><g
           id="g3407"
           transform="translate(849,829)"><text
             transform="scale(1,-1)"
             style="font-variant:normal;font-weight:bold;font-size:18px;font-family:Arial;-inkscape-font-specification:Arial-BoldMT;writing-mode:lr-tb;fill:#3e4348;fill-opacity:1;fill-rule:nonzero;stroke:none"
             id="text3409"><tspan
               x="0 9.6588001 19.677601 26.690399 37.681198 47.700001"
               y="0"
               sodipodi:role="line"
               id="tspan3411">Target</tspan></text>
</g><g
           id="g3413"
           transform="matrix(1,0,0,-1,875.1945,821.7077)"><path
             d="M 0.4096083,0 0.1300849,20.62637 0.1165343,21.62629"
             style="fill:none;stroke:#53585f;stroke-width:2;stroke-linecap:butt;stroke-linejoin:miter;stroke-miterlimit:4;stroke-dasharray:none;stroke-opacity:1"
             id="path3415"
             inkscape:connector-curvature="0" /></g><path
           d="m 870.5251,801.1463 4.6694,-9.6641 4.9297,9.5341 -9.5991,0.13 z"
           style="fill:#53585f;fill-opacity:1;fill-rule:nonzero;stroke:none"
           id="path3417"
           inkscape:connector-curvature="0" /><g
           id="g3419"
           transform="translate(832,688)"><text
             transform="scale(1,-1)"
             style="font-variant:normal;font-weight:bold;font-size:10px;font-family:Arial;-inkscape-font-specification:Arial-BoldMT;writing-mode:lr-tb;fill:#fdfdc5;fill-opacity:1;fill-rule:nonzero;stroke:none"
             id="text3421"><tspan
               x="0 8.3299999 13.892 20 26.108 28.886 34.993999 41.102001"
               y="0"
               sodipodi:role="line"
               id="tspan3423">Mapping </tspan></text>
</g><g
           id="g3425"
           transform="translate(828,677)"><text
             transform="scale(1,-1)"
             style="font-variant:normal;font-weight:bold;font-size:10px;font-family:Arial;-inkscape-font-specification:Arial-BoldMT;writing-mode:lr-tb;fill:#fdfdc5;fill-opacity:1;fill-rule:nonzero;stroke:none"
             id="text3427"><tspan
               x="0 6.6700001 10.562 16.67 19.448 25.01 30.572001 33.902 36.68 42.787998"
               y="0"
               sodipodi:role="line"
               id="tspan3429">Projection</tspan></text>
</g><path
           d="m 550.962,517.7441 -19.8474,0 61.2096,51.709 61.2095,-51.709 -19.8473,0 0,-99.18 -82.7244,0 0,99.18 z"
           style="fill:#de6a0f;fill-opacity:1;fill-rule:nonzero;stroke:none"
           id="path3431"
           inkscape:connector-curvature="0" /><g
           id="g3433"
           transform="matrix(0,-1,-1,0,653.5337,569.4531)"><path
             d="m 51.709,102.5717 0,19.8474 L 0,61.20953 51.709,0 l 0,19.84733 99.1799,0 0,82.72437 -99.1799,0 z"
             style="fill:none;stroke:#fdfdc5;stroke-width:0.25;stroke-linecap:butt;stroke-linejoin:round;stroke-miterlimit:4;stroke-dasharray:none;stroke-opacity:1"
             id="path3435"
             inkscape:connector-curvature="0" /></g><g
           id="g3437"
           transform="translate(570,484)"><text
             transform="scale(1,-1)"
             style="font-variant:normal;font-weight:bold;font-size:11px;font-family:Arial;-inkscape-font-specification:Arial-BoldMT;writing-mode:lr-tb;fill:#fdfdc5;fill-opacity:1;fill-rule:nonzero;stroke:none"
             id="text3439"><tspan
               x="0 9.1630001 15.2812 22 28.7188 31.774599 38.493401 45.2122"
               y="0"
               sodipodi:role="line"
               id="tspan3441">Mapping </tspan></text>
</g><g
           id="g3443"
           transform="translate(566,472)"><text
             transform="scale(1,-1)"
             style="font-variant:normal;font-weight:bold;font-size:11px;font-family:Arial;-inkscape-font-specification:Arial-BoldMT;writing-mode:lr-tb;fill:#fdfdc5;fill-opacity:1;fill-rule:nonzero;stroke:none"
             id="text3445"><tspan
               x="0 7.3369999 11.6182 18.337 21.392799 27.511 33.6292 37.292198 40.348 47.066799"
               y="0"
               sodipodi:role="line"
               id="tspan3447">Projection</tspan></text>
</g><g
           id="g3449"
           transform="matrix(1,0,0,-1,881.735,555.9143)"><path
             d="M 0,0 0.9589229,83.90576 1.078916,94.4051"
             style="fill:none;stroke:#de6a10;stroke-width:21;stroke-linecap:butt;stroke-linejoin:miter;stroke-miterlimit:4;stroke-dasharray:none;stroke-opacity:1"
             id="path3451"
             inkscape:connector-curvature="0" /></g><path
           d="m 843.6964,471.5628 39.8889,-77.5492 38.106,78.4406 -77.9949,-0.8914 z"
           style="fill:#de6a10;fill-opacity:1;fill-rule:nonzero;stroke:none"
           id="path3453"
           inkscape:connector-curvature="0" /><g
           id="g3455"
           transform="translate(863,458)"><text
             transform="scale(1,-1)"
             style="font-variant:normal;font-weight:bold;font-size:10px;font-family:Arial;-inkscape-font-specification:Arial-BoldMT;writing-mode:lr-tb;fill:#fdfdc5;fill-opacity:1;fill-rule:nonzero;stroke:none"
             id="text3457"><tspan
               x="0 8.3299999 13.892 20 26.108 28.886 34.993999 41.102001"
               y="0"
               sodipodi:role="line"
               id="tspan3459">Mapping </tspan></text>
</g><g
           id="g3461"
           transform="translate(859,447)"><text
             transform="scale(1,-1)"
             style="font-variant:normal;font-weight:bold;font-size:10px;font-family:Arial;-inkscape-font-specification:Arial-BoldMT;writing-mode:lr-tb;fill:#fdfdc5;fill-opacity:1;fill-rule:nonzero;stroke:none"
             id="text3463"><tspan
               x="0 6.6700001 10.562 16.67 19.448 25.01 30.572001 33.902 36.68 42.787998"
               y="0"
               sodipodi:role="line"
               id="tspan3465">Projection</tspan></text>
</g><g
           id="g3467"
           transform="matrix(1,0,0,-1,633.5242,555.9123)"><path
             d="M 189.3823,0 C 189.3731,43.12126 155.8424,68.56565 88.79014,76.33319 L 76.79142,76.51257"
             style="fill:none;stroke:#70bf41;stroke-width:24;stroke-linecap:butt;stroke-linejoin:miter;stroke-miterlimit:4;stroke-dasharray:none;stroke-opacity:1"
             id="path3469"
             inkscape:connector-curvature="0" /></g><path
           d="m 721.6505,523.9741 -88.1263,-45.7224 89.4538,-43.0676 -1.3275,88.79 z"
           style="fill:#70bf41;fill-opacity:1;fill-rule:nonzero;stroke:none"
           id="path3471"
           inkscape:connector-curvature="0" /><g
           id="g3473"
           transform="matrix(1,0,0,-1,627.231,324.9118)"><path
             d="M 228.787,0 C 228.3878,39.66384 179.3262,61.69856 81.60243,66.10414 L 70.6,66.1079"
             style="fill:none;stroke:#70bf41;stroke-width:22;stroke-linecap:butt;stroke-linejoin:miter;stroke-miterlimit:4;stroke-dasharray:none;stroke-opacity:1"
             id="path3475"
             inkscape:connector-curvature="0" /></g><path
           d="m 708.817,299.6076 -81.586,-40.8279 81.6139,-40.7721 -0.0279,81.6 z"
           style="fill:#70bf41;fill-opacity:1;fill-rule:nonzero;stroke:none"
           id="path3477"
           inkscape:connector-curvature="0" /><g
           id="g3479"
           transform="translate(671,482)"><text
             transform="scale(1,-1)"
             style="font-variant:normal;font-weight:bold;font-size:10px;font-family:Arial;-inkscape-font-specification:Arial-BoldMT;writing-mode:lr-tb;fill:#fdfdc5;fill-opacity:1;fill-rule:nonzero;stroke:none"
             id="text3481"><tspan
               x="0 6.1079998 11.666 17.224001 21.112 27.219999 29.997999 36.105999"
               y="0"
               sodipodi:role="line"
               id="tspan3483">Learning</tspan></text>
</g><g
           id="g3485"
           transform="translate(671,482)"><text
             transform="matrix(1,0,0,-1,42.22656,0)"
             style="font-variant:normal;font-weight:bold;font-size:10px;font-family:'Lucida Grande';-inkscape-font-specification:LucidaGrande-Bold;writing-mode:lr-tb;fill:#fdfdc5;fill-opacity:1;fill-rule:nonzero;stroke:none"
             id="text3487"><tspan
               x="0"
               y="0"
               id="tspan3489"> </tspan></text>
</g><g
           id="g3491"
           transform="translate(668,471)"><text
             transform="scale(1,-1)"
             style="font-variant:normal;font-weight:bold;font-size:10px;font-family:Arial;-inkscape-font-specification:Arial-BoldMT;writing-mode:lr-tb;fill:#fdfdc5;fill-opacity:1;fill-rule:nonzero;stroke:none"
             id="text3493"><tspan
               x="0 6.6700001 10.562 16.67 19.448 25.01 30.572001 33.902 36.68 42.787998"
               y="0"
               sodipodi:role="line"
               id="tspan3495">Projection</tspan></text>
</g><path
           d="m 506.7031,196.369 161.5111,0 0,-69.5559 -161.5111,0 0,69.5559 z"
           style="fill:#ffe792;fill-opacity:0.77509999;fill-rule:nonzero;stroke:none"
           id="path3497"
           inkscape:connector-curvature="0" /><g
           id="g3499"
           transform="matrix(1,0,0,-1,506.7031,196.369)"><path
             d="m 0,0 161.5111,0 0,69.55589 L 0,69.55589 0,0 Z"
             style="fill:none;stroke:#fdfdc5;stroke-width:0.25;stroke-linecap:butt;stroke-linejoin:round;stroke-miterlimit:4;stroke-dasharray:none;stroke-opacity:1"
             id="path3501"
             inkscape:connector-curvature="0" /></g></g></g><g
       id="g3503"><g
         id="g3505"
         clip-path="url(#clipPath3507)"><g
           id="g3511"
           transform="translate(516,165)"><text
             transform="scale(1,-1)"
             style="font-variant:normal;font-weight:bold;font-size:12px;font-family:Arial;-inkscape-font-specification:Arial-BoldMT;writing-mode:lr-tb;fill:#000000;fill-opacity:1;fill-rule:nonzero;stroke:none"
             id="text3513"><tspan
               x="0 8.0039997 12.6744 20.004 26.6784 33.352798 40.027199 46.701599 50.035198 57.364799 64.694397 74.690399 81.364799 88.0392 95.368797 102.0432 109.3728 112.7064 119.3808 130.05119"
               y="0"
               sodipodi:role="line"
               id="tspan3515">ProcessingMechanism </tspan></text>
</g><g
           id="g3517"
           transform="translate(568,149)"><text
             transform="scale(1,-1)"
             style="font-variant:normal;font-weight:normal;font-size:11px;font-family:Arial;-inkscape-font-specification:ArialMT;writing-mode:lr-tb;fill:#000000;fill-opacity:1;fill-rule:nonzero;stroke:none"
             id="text3519"><tspan
               x="0 8.5558004 16.4956 19.551399 28.107201 31.163"
               y="0"
               sodipodi:role="line"
               id="tspan3521">ORIGIN</tspan></text>
</g></g></g><g
       id="g3523"><g
         id="g3525"
         clip-path="url(#clipPath3527)"><g
           id="g3531"
           transform="translate(565,263)"><text
             transform="scale(1,-1)"
             style="font-variant:normal;font-weight:bold;font-size:11px;font-family:Arial;-inkscape-font-specification:Arial-BoldMT;writing-mode:lr-tb;fill:#fdfdc5;fill-opacity:1;fill-rule:nonzero;stroke:none"
             id="text3533"><tspan
               x="0 9.1630001 15.2812 22 28.7188 31.774599 38.493401 45.2122"
               y="0"
               sodipodi:role="line"
               id="tspan3535">Mapping </tspan></text>
</g><g
           id="g3537"
           transform="translate(561,251)"><text
             transform="scale(1,-1)"
             style="font-variant:normal;font-weight:bold;font-size:11px;font-family:Arial;-inkscape-font-specification:Arial-BoldMT;writing-mode:lr-tb;fill:#fdfdc5;fill-opacity:1;fill-rule:nonzero;stroke:none"
             id="text3539"><tspan
               x="0 7.3369999 11.6182 18.337 21.392799 27.511 33.6292 37.292198 40.348 47.066799"
               y="0"
               sodipodi:role="line"
               id="tspan3541">Projection</tspan></text>
</g><g
           id="g3543"
           transform="translate(566,76)"><text
             transform="scale(1,-1)"
             style="font-variant:normal;font-weight:bold;font-size:18px;font-family:Arial;-inkscape-font-specification:Arial-BoldMT;writing-mode:lr-tb;fill:#3e4348;fill-opacity:1;fill-rule:nonzero;stroke:none"
             id="text3545"><tspan
               x="0 5.0004001 15.9948 26.989201 37.983601"
               y="0"
               sodipodi:role="line"
               id="tspan3547">Input</tspan></text>
</g><g
           id="g3549"
           transform="matrix(1,0,0,-1,587.7273,126.6815)"><path
             d="M 0.2426789,31.53094 0.07388453,9.599717 0.0661882,8.599745"
             style="fill:none;stroke:#53585f;stroke-width:2;stroke-linecap:butt;stroke-linejoin:miter;stroke-miterlimit:4;stroke-dasharray:none;stroke-opacity:1"
             id="path3551"
             inkscape:connector-curvature="0" /></g><path
           d="m 592.6011,117.1187 -4.8738,9.5628 -4.7259,-9.6367 9.5997,0.0739 z"
           style="fill:#53585f;fill-opacity:1;fill-rule:nonzero;stroke:none"
           id="path3553"
           inkscape:connector-curvature="0" /><g
           id="g3555"
           transform="translate(657,262)"><text
             transform="scale(1,-1)"
             style="font-variant:normal;font-weight:bold;font-size:10px;font-family:Arial;-inkscape-font-specification:Arial-BoldMT;writing-mode:lr-tb;fill:#fdfdc5;fill-opacity:1;fill-rule:nonzero;stroke:none"
             id="text3557"><tspan
               x="0 6.1079998 11.666 17.224001 21.112 27.219999 29.997999 36.105999 42.214001"
               y="0"
               sodipodi:role="line"
               id="tspan3559">Learning </tspan></text>
</g><g
           id="g3561"
           transform="translate(654,251)"><text
             transform="scale(1,-1)"
             style="font-variant:normal;font-weight:bold;font-size:10px;font-family:Arial;-inkscape-font-specification:Arial-BoldMT;writing-mode:lr-tb;fill:#fdfdc5;fill-opacity:1;fill-rule:nonzero;stroke:none"
             id="text3563"><tspan
               x="0 6.6700001 10.562 16.67 19.448 25.01 30.572001 33.902 36.68 42.787998"
               y="0"
               sodipodi:role="line"
               id="tspan3565">Projection</tspan></text>
</g><path
           d="m 506.7031,418.3959 161.5111,0 0,-71.8639 -161.5111,0 0,71.8639 z"
           style="fill:#ffe792;fill-opacity:0.77509999;fill-rule:nonzero;stroke:none"
           id="path3567"
           inkscape:connector-curvature="0" /><g
           id="g3569"
           transform="matrix(1,0,0,-1,506.7031,418.3959)"><path
             d="m 0,0 161.5111,0 0,71.86384 L 0,71.86384 0,0 Z"
             style="fill:none;stroke:#fdfdc5;stroke-width:0.25;stroke-linecap:butt;stroke-linejoin:round;stroke-miterlimit:4;stroke-dasharray:none;stroke-opacity:1"
             id="path3571"
             inkscape:connector-curvature="0" /></g></g></g><g
       id="g3573"><g
         id="g3575"
         clip-path="url(#clipPath3577)"><g
           id="g3581"
           transform="translate(531,386)"><text
             transform="scale(1,-1)"
             style="font-variant:normal;font-weight:bold;font-size:12px;font-family:Arial;-inkscape-font-specification:Arial-BoldMT;writing-mode:lr-tb;fill:#000000;fill-opacity:1;fill-rule:nonzero;stroke:none"
             id="text3583"><tspan
               x="0 6.6683998 11.3388 18.013201 25.3428 32.0172 36.013199 42.687599 47.358002 57.354 64.028397 70.702797 78.032402 84.706802 92.0364 95.370003 102.0444 112.7148"
               y="0"
               sodipodi:role="line"
               id="tspan3585">TransferMechanism </tspan></text>
</g><g
           id="g3587"
           transform="translate(560,370)"><text
             transform="scale(1,-1)"
             style="font-variant:normal;font-weight:normal;font-size:11px;font-family:Arial;-inkscape-font-specification:ArialMT;writing-mode:lr-tb;fill:#000000;fill-opacity:1;fill-rule:nonzero;stroke:none"
             id="text3589"><tspan
               x="0 3.0558 11 17.7188 25.055799 33 40.944199 48.2812"
               y="0"
               sodipodi:role="line"
               id="tspan3591">INTERNAL</tspan></text>
</g></g></g><g
       id="g3593"><g
         id="g3595"
         clip-path="url(#clipPath3597)"><path
           d="m 506.7031,641.5118 161.5111,0 0,-71.8638 -161.5111,0 0,71.8638 z"
           style="fill:#ffe792;fill-opacity:0.77509999;fill-rule:nonzero;stroke:none"
           id="path3601"
           inkscape:connector-curvature="0" /><g
           id="g3603"
           transform="matrix(1,0,0,-1,506.7031,641.5118)"><path
             d="m 0,0 161.5111,0 0,71.86384 L 0,71.86384 0,0 Z"
             style="fill:none;stroke:#fdfdc5;stroke-width:0.25;stroke-linecap:butt;stroke-linejoin:round;stroke-miterlimit:4;stroke-dasharray:none;stroke-opacity:1"
             id="path3605"
             inkscape:connector-curvature="0" /></g></g></g><g
       id="g3607"><g
         id="g3609"
         clip-path="url(#clipPath3611)"><g
           id="g3615"
           transform="translate(531,610)"><text
             transform="scale(1,-1)"
             style="font-variant:normal;font-weight:bold;font-size:12px;font-family:Arial;-inkscape-font-specification:Arial-BoldMT;writing-mode:lr-tb;fill:#000000;fill-opacity:1;fill-rule:nonzero;stroke:none"
             id="text3617"><tspan
               x="0 6.6683998 11.3388 18.013201 25.3428 32.0172 36.013199 42.687599 47.358002 57.354 64.028397 70.702797 78.032402 84.706802 92.0364 95.370003 102.0444 112.7148"
               y="0"
               sodipodi:role="line"
               id="tspan3619">TransferMechanism </tspan></text>
</g><g
           id="g3621"
           transform="translate(560,593)"><text
             transform="scale(1,-1)"
             style="font-variant:normal;font-weight:normal;font-size:11px;font-family:Arial;-inkscape-font-specification:ArialMT;writing-mode:lr-tb;fill:#000000;fill-opacity:1;fill-rule:nonzero;stroke:none"
             id="text3623"><tspan
               x="0 6.7188001 14.0558 22 31.163 34.2188 42.162998 49.5"
               y="0"
               sodipodi:role="line"
               id="tspan3625">TERMINAL</tspan></text>
</g></g></g><g
       id="g3627"><g
         id="g3629"
         clip-path="url(#clipPath3631)"><g
           id="g3635"
           transform="translate(418,922)"><text
             transform="scale(1,-1)"
             style="font-variant:normal;font-weight:bold;font-size:54px;font-family:Helvetica;-inkscape-font-specification:Helvetica-Bold;writing-mode:lr-tb;fill:#000000;fill-opacity:1;fill-rule:nonzero;stroke:none"
             id="text3637"><tspan
               x="0 36.018002 57.034801 90.017998 120.0528 150.0876 180.12241 210.1572 240.192 273.1752 303.20999 333.24481 354.2616 387.24481 402.246 435.22919 468.2124 498.24719 531.23041 546.23163 579.21478 612.198 633.21478"
               y="0"
               sodipodi:role="line"
               id="tspan3639">Process_Learning_Figure</tspan></text>
</g></g></g><g
       id="g3641"><g
         id="g3643"
         clip-path="url(#clipPath3645)"><path
           d="m 763.6136,793.9934 176.4931,0 0,-69.5559 -176.4931,0 0,69.5559 z"
           style="fill:#ffe792;fill-opacity:0.77509999;fill-rule:nonzero;stroke:none"
           id="path3649"
           inkscape:connector-curvature="0" /><g
           id="g3651"
           transform="matrix(1,0,0,-1,763.6136,793.9934)"><path
             d="m 0,0 176.4931,0 0,69.55589 L 0,69.55589 0,0 Z"
             style="fill:none;stroke:#fdfdc5;stroke-width:0.25;stroke-linecap:butt;stroke-linejoin:round;stroke-miterlimit:4;stroke-dasharray:none;stroke-opacity:1"
             id="path3653"
             inkscape:connector-curvature="0" /></g></g></g><g
       id="g3655"><g
         id="g3657"
         clip-path="url(#clipPath3659)"><g
           id="g3663"
           transform="translate(785,763)"><text
             transform="scale(1,-1)"
             style="font-variant:normal;font-weight:bold;font-size:12px;font-family:Arial;-inkscape-font-specification:Arial-BoldMT;writing-mode:lr-tb;fill:#000000;fill-opacity:1;fill-rule:nonzero;stroke:none"
             id="text3665"><tspan
               x="0 8.6664 15.996 26.666401 33.995998 40.670399 45.340801 52.015202 56.0112 63.340801 68.0112 78.007202 84.681602 91.356003 98.6856 105.36 112.6896 116.0232 122.6976 133.368"
               y="0"
               sodipodi:role="line"
               id="tspan3667">ComparatorMechanism </tspan></text>
</g><g
           id="g3669"
           transform="translate(830,746)"><text
             transform="scale(1,-1)"
             style="font-variant:normal;font-weight:normal;font-size:11px;font-family:Arial;-inkscape-font-specification:ArialMT;writing-mode:lr-tb;fill:#000000;fill-opacity:1;fill-rule:nonzero;stroke:none"
             id="text3671"><tspan
               x="0 5.9025998 13.2396 21.1838 29.739599 37.076599"
               y="0"
               sodipodi:role="line"
               id="tspan3673">TARGET</tspan></text>
</g></g></g><g
       id="g3675"><g
         id="g3677"
         clip-path="url(#clipPath3679)"><path
           d="m 800.0798,394.1486 163.7088,0 0,-69.5559 -163.7088,0 0,69.5559 z"
           style="fill:#ffe792;fill-opacity:0.77509999;fill-rule:nonzero;stroke:none"
           id="path3683"
           inkscape:connector-curvature="0" /><g
           id="g3685"
           transform="matrix(1,0,0,-1,800.0798,394.1486)"><path
             d="m 0,0 163.7088,0 0,69.55589 L 0,69.55589 0,0 Z"
             style="fill:none;stroke:#fdfdc5;stroke-width:0.25;stroke-linecap:butt;stroke-linejoin:round;stroke-miterlimit:4;stroke-dasharray:none;stroke-opacity:1"
             id="path3687"
             inkscape:connector-curvature="0" /></g></g></g><g
       id="g3689"><g
         id="g3691"
         clip-path="url(#clipPath3693)"><g
           id="g3697"
           transform="translate(824,363)"><text
             transform="scale(1,-1)"
             style="font-variant:normal;font-weight:bold;font-size:12px;font-family:Arial;-inkscape-font-specification:Arial-BoldMT;writing-mode:lr-tb;fill:#000000;fill-opacity:1;fill-rule:nonzero;stroke:none"
             id="text3699"><tspan
               x="0 7.3295999 14.004 20.6784 25.348801 32.678398 36.012001 43.341599 50.6712 60.667198 67.341599 74.015999 81.345596 88.019997 95.349602 98.683197 105.3576 116.028"
               y="0"
               sodipodi:role="line"
               id="tspan3701">LearningMechanism </tspan></text>
</g><g
           id="g3703"
           transform="translate(854,347)"><text
             transform="scale(1,-1)"
             style="font-variant:normal;font-weight:normal;font-size:11px;font-family:Arial;-inkscape-font-specification:ArialMT;writing-mode:lr-tb;fill:#000000;fill-opacity:1;fill-rule:nonzero;stroke:none"
             id="text3705"><tspan
               x="0 6.1181998 13.4552 20.7922 28.736401 36.680599 39.736401 47.680599"
               y="0"
               sodipodi:role="line"
               id="tspan3707">LEARNING</tspan></text>
</g></g></g><g
       id="g3709"><g
         id="g3711"
         clip-path="url(#clipPath3713)"><path
           d="m 770.8058,624.5952 163.7088,0 0,-69.5559 -163.7088,0 0,69.5559 z"
           style="fill:#ffe792;fill-opacity:0.77509999;fill-rule:nonzero;stroke:none"
           id="path3717"
           inkscape:connector-curvature="0" /><g
           id="g3719"
           transform="matrix(1,0,0,-1,770.8058,624.5952)"><path
             d="m 0,0 163.7088,0 0,69.55589 L 0,69.55589 0,0 Z"
             style="fill:none;stroke:#fdfdc5;stroke-width:0.25;stroke-linecap:butt;stroke-linejoin:round;stroke-miterlimit:4;stroke-dasharray:none;stroke-opacity:1"
             id="path3721"
             inkscape:connector-curvature="0" /></g></g></g><g
       id="g3723"><g
         id="g3725"
         clip-path="url(#clipPath3727)"><g
           id="g3731"
           transform="translate(795,594)"><text
             transform="scale(1,-1)"
             style="font-variant:normal;font-weight:bold;font-size:12px;font-family:Arial;-inkscape-font-specification:Arial-BoldMT;writing-mode:lr-tb;fill:#000000;fill-opacity:1;fill-rule:nonzero;stroke:none"
             id="text3733"><tspan
               x="0 7.3295999 14.004 20.6784 25.348801 32.678398 36.012001 43.341599 50.6712 60.667198 67.341599 74.015999 81.345596 88.019997 95.349602 98.683197 105.3576 116.028"
               y="0"
               sodipodi:role="line"
               id="tspan3735">LearningMechanism </tspan></text>
</g><g
           id="g3737"
           transform="translate(825,577)"><text
             transform="scale(1,-1)"
             style="font-variant:normal;font-weight:normal;font-size:11px;font-family:Arial;-inkscape-font-specification:ArialMT;writing-mode:lr-tb;fill:#000000;fill-opacity:1;fill-rule:nonzero;stroke:none"
             id="text3739"><tspan
               x="0 6.1181998 13.4552 20.7922 28.736401 36.680599 39.736401 47.680599"
               y="0"
               sodipodi:role="line"
               id="tspan3741">LEARNING</tspan></text>
</g></g></g></g></svg>