<?xml version="1.0" encoding="UTF-8" standalone="no"?>
<svg
   xmlns:dc="http://purl.org/dc/elements/1.1/"
   xmlns:cc="http://creativecommons.org/ns#"
   xmlns:rdf="http://www.w3.org/1999/02/22-rdf-syntax-ns#"
   xmlns:svg="http://www.w3.org/2000/svg"
   xmlns="http://www.w3.org/2000/svg"
   viewBox="0 0 816 1056"
   height="1056"
   width="816"
   xml:space="preserve"
   id="svg2"
   version="1.1"><metadata
     id="metadata8"><rdf:RDF><cc:Work
         rdf:about=""><dc:format>image/svg+xml</dc:format><dc:type
           rdf:resource="http://purl.org/dc/dcmitype/StillImage" /></cc:Work></rdf:RDF></metadata><defs
     id="defs6"><clipPath
       id="clipPath20"
       clipPathUnits="userSpaceOnUse"><path
         id="path18"
         d="M 0,149 H 612 V 643 H 0 Z" /></clipPath></defs><g
     transform="matrix(1.3333333,0,0,-1.3333333,0,1056)"
     id="g10"><g
       id="g12" /><g
       id="g14"><g
         clip-path="url(#clipPath20)"
         id="g16"><g
           transform="matrix(2.04,0,0,2.04,81.6,230.6)"
           id="g22"><path
             id="path24"
             style="fill:none;stroke:#00ff00;stroke-width:1;stroke-linecap:butt;stroke-linejoin:round;stroke-miterlimit:1;stroke-dasharray:none;stroke-opacity:1"
             d="M 8,8 V 155 H 78 V 8 Z" /></g><g
           transform="matrix(2.04,0,0,2.04,81.6,230.6)"
           id="g26"><text
             id="text30"
             style="font-variant:normal;font-weight:normal;font-size:14px;font-family:Times;-inkscape-font-specification:Times-Roman;writing-mode:lr-tb;fill:#000000;fill-opacity:1;fill-rule:nonzero;stroke:none"
             transform="matrix(1,0,0,-1,23.94824,14.8)"><tspan
               id="tspan28"
               y="0"
               x="0 6.2132001 13.2132 24.1024 31.1024">comp1</tspan></text>
</g><g
           transform="matrix(2.04,0,0,2.04,81.6,230.6)"
           id="g32"><path
             id="path34"
             style="fill:none;stroke:#ff0000;stroke-width:1;stroke-linecap:butt;stroke-linejoin:round;stroke-miterlimit:1;stroke-dasharray:none;stroke-opacity:1"
             d="m 86,8 v 147 h 70 V 8 Z" /></g><g
           transform="matrix(2.04,0,0,2.04,81.6,230.6)"
           id="g36"><text
             id="text40"
             style="font-variant:normal;font-weight:normal;font-size:14px;font-family:Times;-inkscape-font-specification:Times-Roman;writing-mode:lr-tb;fill:#000000;fill-opacity:1;fill-rule:nonzero;stroke:none"
             transform="matrix(1,0,0,-1,101.9482,14.8)"><tspan
               id="tspan38"
               y="0"
               x="0 6.2132001 13.2132 24.1024 31.1024">comp2</tspan></text>
</g><g
           transform="matrix(2.04,0,0,2.04,81.6,230.6)"
           id="g42"><path
             id="path44"
             style="fill:none;stroke:#00ff00;stroke-width:3;stroke-linecap:butt;stroke-linejoin:round;stroke-miterlimit:1;stroke-dasharray:none;stroke-opacity:1"
             d="M 70,56 C 70,65.94113 57.91169,74 43,74 28.08831,74 16,65.94113 16,56 16,46.05887 28.08831,38 43,38 c 14.91169,0 27,8.05887 27,18 z" /></g><g
           transform="matrix(2.04,0,0,2.04,81.6,230.6)"
           id="g46"><text
             id="text50"
             style="font-variant:normal;font-weight:normal;font-size:12px;font-family:ArialMT;-inkscape-font-specification:ArialMT;writing-mode:lr-tb;fill:#000000;fill-opacity:1;fill-rule:nonzero;stroke:none"
             transform="matrix(1,0,0,-1,35.66113,53.29941)"><tspan
               id="tspan48"
               y="0"
               x="0 8.0039997">A1</tspan></text>
</g><g
           transform="matrix(2.04,0,0,2.04,81.6,230.6)"
           id="g52"><path
             id="path54"
             style="fill:none;stroke:#ff0000;stroke-width:3;stroke-linecap:butt;stroke-linejoin:round;stroke-miterlimit:1;stroke-dasharray:none;stroke-opacity:1"
             d="m 70,129 c 0,9.9411 -12.08831,18 -27,18 -14.91169,0 -27,-8.0589 -27,-18 0,-9.9411 12.08831,-18 27,-18 14.91169,0 27,8.0589 27,18 z" /></g><g
           transform="matrix(2.04,0,0,2.04,81.6,230.6)"
           id="g56"><text
             id="text60"
             style="font-variant:normal;font-weight:normal;font-size:12px;font-family:ArialMT;-inkscape-font-specification:ArialMT;writing-mode:lr-tb;fill:#000000;fill-opacity:1;fill-rule:nonzero;stroke:none"
             transform="matrix(1,0,0,-1,35.66113,126.2994)"><tspan
               id="tspan58"
               y="0"
               x="0 8.0039997">B1</tspan></text>
</g><g
           transform="matrix(2.04,0,0,2.04,81.6,230.6)"
           id="g62"><path
             id="path64"
             style="fill:none;stroke:#000000;stroke-width:1;stroke-linecap:butt;stroke-linejoin:round;stroke-miterlimit:1;stroke-dasharray:none;stroke-opacity:1"
             d="m 43,74.18712 c 0,8.02338 0,17.76538 0,26.74378" /></g><g
           transform="matrix(2.04,0,0,2.04,81.6,230.6)"
           id="g66"><path
             id="path68"
             style="fill:#000000;fill-opacity:1;fill-rule:nonzero;stroke:#000000;stroke-width:1;stroke-linecap:butt;stroke-linejoin:round;stroke-miterlimit:1;stroke-dasharray:none;stroke-opacity:1"
             d="M 39.5001,100.9711 43,110.9712 l 3.5001,-10 z" /></g><g
           transform="matrix(2.04,0,0,2.04,81.6,230.6)"
           id="g70"><path
             id="path72"
             style="fill:none;stroke:#00ff00;stroke-width:3;stroke-linecap:butt;stroke-linejoin:round;stroke-miterlimit:1;stroke-dasharray:none;stroke-opacity:1"
             d="m 148,56 c 0,9.94113 -12.0883,18 -27,18 -14.9117,0 -27,-8.05887 -27,-18 0,-9.94113 12.0883,-18 27,-18 14.9117,0 27,8.05887 27,18 z" /></g><g
           transform="matrix(2.04,0,0,2.04,81.6,230.6)"
           id="g74"><text
             id="text78"
             style="font-variant:normal;font-weight:normal;font-size:12px;font-family:ArialMT;-inkscape-font-specification:ArialMT;writing-mode:lr-tb;fill:#000000;fill-opacity:1;fill-rule:nonzero;stroke:none"
             transform="matrix(1,0,0,-1,113.6611,53.29941)"><tspan
               id="tspan76"
               y="0"
               x="0 8.0039997">A2</tspan></text>
</g><g
           transform="matrix(2.04,0,0,2.04,81.6,230.6)"
           id="g80"><path
             id="path82"
             style="fill:none;stroke:#ff0000;stroke-width:3;stroke-linecap:butt;stroke-linejoin:round;stroke-miterlimit:1;stroke-dasharray:none;stroke-opacity:1"
             d="m 148,129 c 0,9.9411 -12.0883,18 -27,18 -14.9117,0 -27,-8.0589 -27,-18 0,-9.9411 12.0883,-18 27,-18 14.9117,0 27,8.0589 27,18 z" /></g><g
           transform="matrix(2.04,0,0,2.04,81.6,230.6)"
           id="g84"><text
             id="text88"
             style="font-variant:normal;font-weight:normal;font-size:12px;font-family:ArialMT;-inkscape-font-specification:ArialMT;writing-mode:lr-tb;fill:#000000;fill-opacity:1;fill-rule:nonzero;stroke:none"
             transform="matrix(1,0,0,-1,113.6611,126.2994)"><tspan
               id="tspan86"
               y="0"
               x="0 8.0039997">B2</tspan></text>
</g><g
           transform="matrix(2.04,0,0,2.04,81.6,230.6)"
           id="g90"><path
             id="path92"
             style="fill:none;stroke:#000000;stroke-width:1;stroke-linecap:butt;stroke-linejoin:round;stroke-miterlimit:1;stroke-dasharray:none;stroke-opacity:1"
             d="m 121,74.18712 c 0,8.02338 0,17.76538 0,26.74378" /></g><g
           transform="matrix(2.04,0,0,2.04,81.6,230.6)"
           id="g94"><path
             id="path96"
             style="fill:#000000;fill-opacity:1;fill-rule:nonzero;stroke:#000000;stroke-width:1;stroke-linecap:butt;stroke-linejoin:round;stroke-miterlimit:1;stroke-dasharray:none;stroke-opacity:1"
             d="m 117.5001,100.9711 3.4999,10.0001 3.5001,-10 z" /></g><g
           transform="matrix(2.04,0,0,2.04,81.6,230.6)"
           id="g98"><path
             id="path100"
             style="fill:none;stroke:#000000;stroke-width:1;stroke-linecap:butt;stroke-linejoin:round;stroke-miterlimit:1;stroke-dasharray:none;stroke-opacity:1"
             d="m 166,38 v 36 h 54 V 38 Z" /></g><g
           transform="matrix(2.04,0,0,2.04,81.6,230.6)"
           id="g102"><text
             id="text106"
             style="font-variant:normal;font-weight:normal;font-size:12px;font-family:ArialMT;-inkscape-font-specification:ArialMT;writing-mode:lr-tb;fill:#000000;fill-opacity:1;fill-rule:nonzero;stroke:none"
             transform="matrix(1,0,0,-1,174.5,53.29941)"><tspan
               id="tspan104"
               y="0"
               x="0 6 12.6744 22.670401 29.344801">comp1</tspan></text>
</g><g
           transform="matrix(2.04,0,0,2.04,81.6,230.6)"
           id="g108"><path
             id="path110"
             style="fill:none;stroke:#000000;stroke-width:1;stroke-linecap:butt;stroke-linejoin:round;stroke-miterlimit:1;stroke-dasharray:none;stroke-opacity:1"
             d="m 166,111 v 36 h 54 v -36 z" /></g><g
           transform="matrix(2.04,0,0,2.04,81.6,230.6)"
           id="g112"><text
             id="text116"
             style="font-variant:normal;font-weight:normal;font-size:12px;font-family:ArialMT;-inkscape-font-specification:ArialMT;writing-mode:lr-tb;fill:#000000;fill-opacity:1;fill-rule:nonzero;stroke:none"
             transform="matrix(1,0,0,-1,174.5,126.2994)"><tspan
               id="tspan114"
               y="0"
               x="0 6 12.6744 22.670401 29.344801">comp2</tspan></text>
</g><g
           transform="matrix(2.04,0,0,2.04,81.6,230.6)"
           id="g118"><path
             id="path120"
             style="fill:none;stroke:#000000;stroke-width:1;stroke-linecap:butt;stroke-linejoin:round;stroke-miterlimit:1;stroke-dasharray:none;stroke-opacity:1"
             d="m 193,74.18712 c 0,8.02338 0,17.76538 0,26.74378" /></g><g
           transform="matrix(2.04,0,0,2.04,81.6,230.6)"
           id="g122"><path
             id="path124"
             style="fill:#000000;fill-opacity:1;fill-rule:nonzero;stroke:#000000;stroke-width:1;stroke-linecap:butt;stroke-linejoin:round;stroke-miterlimit:1;stroke-dasharray:none;stroke-opacity:1"
             d="m 189.5001,100.9711 3.4999,10.0001 3.5001,-10 z" /></g></g></g></g></svg>