<?xml version="1.0" encoding="utf-8"?>
<!-- Generator: Adobe Illustrator 25.3.1, SVG Export Plug-In . SVG Version: 6.00 Build 0)  -->
<svg version="1.1" id="Layer_1" xmlns="http://www.w3.org/2000/svg" xmlns:xlink="http://www.w3.org/1999/xlink" x="0px" y="0px"
	 viewBox="0 0 1133.8 654.1" style="enable-background:new 0 0 1133.8 654.1;" xml:space="preserve">
<style type="text/css">
	.st0{clip-path:url(#SVGID_2_);}
	.st1{font-family:'Arial-BoldMT';}
	.st2{font-size:11px;}
	.st3{clip-path:url(#SVGID_4_);fill:#F9CA7C;}
	.st4{clip-path:url(#SVGID_4_);fill:#DE6A0F;}
	.st5{clip-path:url(#SVGID_4_);fill:#FFC37F;}
	.st6{clip-path:url(#SVGID_4_);fill:none;stroke:#000000;stroke-linejoin:round;}
	.st7{clip-path:url(#SVGID_6_);}
	.st8{clip-path:url(#SVGID_8_);fill:#D48849;}
	.st9{clip-path:url(#SVGID_8_);}
	.st10{font-size:12px;}
	.st11{font-size:14px;}
	.st12{clip-path:url(#SVGID_8_);fill:#6EC2FF;}
	.st13{clip-path:url(#SVGID_8_);fill:none;stroke:#000000;stroke-linejoin:round;}
	.st14{clip-path:url(#SVGID_10_);}
	.st15{clip-path:url(#SVGID_12_);fill:#1C74C8;}
	.st16{clip-path:url(#SVGID_12_);}
	.st17{clip-path:url(#SVGID_12_);fill:#F9CA7C;}
	.st18{clip-path:url(#SVGID_12_);fill:none;stroke:#000000;}
	.st19{clip-path:url(#SVGID_12_);fill:none;stroke:#000000;stroke-linejoin:round;}
	.st20{clip-path:url(#SVGID_14_);fill:none;stroke:#000000;stroke-linejoin:round;}
	.st21{clip-path:url(#SVGID_16_);fill:none;stroke:#000000;stroke-linejoin:round;}
	.st22{clip-path:url(#SVGID_18_);fill:none;stroke:#000000;stroke-linejoin:round;}
	.st23{clip-path:url(#SVGID_18_);}
	.st24{clip-path:url(#SVGID_20_);}
	.st25{font-family:'Arial-ItalicMT';}
	.st26{font-size:9px;}
	.st27{clip-path:url(#SVGID_22_);fill:#F9CA7C;}
	.st28{clip-path:url(#SVGID_24_);}
	.st29{clip-path:url(#SVGID_26_);fill:#F6DB96;}
	.st30{clip-path:url(#SVGID_26_);fill:none;stroke:#000000;stroke-width:0.5;stroke-linejoin:round;}
	.st31{clip-path:url(#SVGID_28_);}
	.st32{font-family:'Arial-BoldItalicMT';}
	.st33{clip-path:url(#SVGID_30_);}
	.st34{clip-path:url(#SVGID_30_);fill:none;stroke:#000000;stroke-linejoin:round;}
	.st35{fill:#434343;}
	.st36{font-size:13px;}
	.st37{font-size:21px;}
	.st38{clip-path:url(#SVGID_30_);fill:#DE6A0F;}
	.st39{clip-path:url(#SVGID_30_);fill:#F9CA7C;}
	.st40{clip-path:url(#SVGID_30_);fill:none;stroke:#000000;}
	.st41{clip-path:url(#SVGID_32_);}
	.st42{clip-path:url(#SVGID_34_);}
	.st43{clip-path:url(#SVGID_36_);fill:#F6DB96;}
	.st44{clip-path:url(#SVGID_36_);fill:none;stroke:#000000;stroke-width:0.5;stroke-linejoin:round;}
	.st45{clip-path:url(#SVGID_38_);}
	.st46{clip-path:url(#SVGID_40_);fill:#F9CA7C;}
	.st47{clip-path:url(#SVGID_40_);fill:none;stroke:#000000;stroke-linejoin:round;}
	.st48{clip-path:url(#SVGID_40_);}
	.st49{clip-path:url(#SVGID_42_);}
	.st50{clip-path:url(#SVGID_44_);}
	.st51{clip-path:url(#SVGID_46_);fill:#F6DB96;}
	.st52{clip-path:url(#SVGID_46_);fill:none;stroke:#000000;stroke-width:0.5;stroke-linejoin:round;}
	.st53{clip-path:url(#SVGID_48_);}
	.st54{clip-path:url(#SVGID_50_);}
	.st55{clip-path:url(#SVGID_50_);fill:none;stroke:#000000;stroke-linejoin:round;}
	.st56{clip-path:url(#SVGID_50_);fill:#F6DB96;}
	.st57{clip-path:url(#SVGID_52_);}
	.st58{clip-path:url(#SVGID_54_);fill:none;stroke:#000000;}
	.st59{clip-path:url(#SVGID_54_);}
	.st60{clip-path:url(#SVGID_54_);fill:#164F86;}
	.st61{clip-path:url(#SVGID_54_);fill:none;stroke:#FDFDC5;stroke-linejoin:round;}
	.st62{clip-path:url(#SVGID_54_);fill:#FDFDC5;}
	.st63{fill:#FDFDC5;}
	.st64{font-size:10px;}
	.st65{clip-path:url(#SVGID_54_);fill:#678DBF;}
	.st66{clip-path:url(#SVGID_54_);fill:none;stroke:#FDFDC5;stroke-width:0.5;}
	.st67{clip-path:url(#SVGID_56_);}
	.st68{clip-path:url(#SVGID_58_);}
	.st69{font-size:8px;}
	.st70{clip-path:url(#SVGID_58_);fill:none;stroke:#FDFDC5;stroke-width:1;stroke-linejoin:round;}
	.st71{clip-path:url(#SVGID_58_);fill:#FDFDC5;}
	.st72{clip-path:url(#SVGID_60_);}
	.st73{clip-path:url(#SVGID_62_);fill:#DE6A0F;}
	.st74{clip-path:url(#SVGID_64_);}
	.st75{clip-path:url(#SVGID_66_);}
	.st76{clip-path:url(#SVGID_66_);fill:#895D36;}
	.st77{clip-path:url(#SVGID_66_);fill:none;stroke:#FDFDC5;stroke-linejoin:round;}
	.st78{clip-path:url(#SVGID_66_);fill:#FDFDC5;}
	.st79{clip-path:url(#SVGID_66_);fill:#CB8B51;}
	.st80{clip-path:url(#SVGID_66_);fill:none;stroke:#FDFDC5;stroke-width:0.5;}
	.st81{clip-path:url(#SVGID_68_);}
	.st82{clip-path:url(#SVGID_70_);}
	.st83{clip-path:url(#SVGID_70_);fill:none;stroke:#000000;}
	.st84{clip-path:url(#SVGID_70_);fill:#895D36;}
	.st85{clip-path:url(#SVGID_70_);fill:none;stroke:#FDFDC5;stroke-linejoin:round;}
	.st86{clip-path:url(#SVGID_70_);fill:#FDFDC5;}
	.st87{clip-path:url(#SVGID_72_);}
	.st88{clip-path:url(#SVGID_74_);fill:#FEA048;}
	.st89{clip-path:url(#SVGID_74_);fill:none;stroke:#FDFDC5;stroke-width:0.5;stroke-linejoin:round;}
	.st90{clip-path:url(#SVGID_76_);}
	.st91{clip-path:url(#SVGID_78_);fill:#DE6A0F;}
	.st92{clip-path:url(#SVGID_80_);}
	.st93{clip-path:url(#SVGID_82_);fill:none;stroke:#FDFDC5;stroke-linejoin:round;}
	.st94{clip-path:url(#SVGID_82_);fill:#FDFDC5;}
	.st95{clip-path:url(#SVGID_84_);}
	.st96{clip-path:url(#SVGID_86_);fill:#FEA048;}
	.st97{clip-path:url(#SVGID_86_);fill:none;stroke:#FDFDC5;stroke-width:0.5;stroke-linejoin:round;}
	.st98{clip-path:url(#SVGID_88_);}
	.st99{clip-path:url(#SVGID_90_);fill:#DE6A0F;}
	.st100{clip-path:url(#SVGID_92_);}
	.st101{clip-path:url(#SVGID_94_);fill:#1C74C8;}
	.st102{clip-path:url(#SVGID_94_);}
	.st103{clip-path:url(#SVGID_94_);fill:#CB8B51;}
	.st104{clip-path:url(#SVGID_94_);fill:none;stroke:#FDFDC5;stroke-width:0.5;}
	.st105{clip-path:url(#SVGID_96_);}
	.st106{clip-path:url(#SVGID_98_);}
	.st107{clip-path:url(#SVGID_98_);fill:#164F86;}
	.st108{clip-path:url(#SVGID_98_);fill:none;stroke:#FDFDC5;stroke-linejoin:round;}
	.st109{clip-path:url(#SVGID_98_);fill:#FDFDC5;}
	.st110{clip-path:url(#SVGID_98_);fill:#678DBF;}
	.st111{clip-path:url(#SVGID_98_);fill:none;stroke:#FDFDC5;stroke-width:0.5;}
	.st112{clip-path:url(#SVGID_100_);}
	.st113{clip-path:url(#SVGID_102_);}
	.st114{clip-path:url(#SVGID_102_);fill:#F9CA7C;}
	.st115{clip-path:url(#SVGID_102_);fill:none;stroke:#000000;stroke-linejoin:round;}
	.st116{clip-path:url(#SVGID_104_);}
	.st117{clip-path:url(#SVGID_106_);fill:#F6DB96;}
	.st118{clip-path:url(#SVGID_106_);fill:none;stroke:#000000;stroke-width:0.5;stroke-linejoin:round;}
	.st119{clip-path:url(#SVGID_108_);}
	.st120{clip-path:url(#SVGID_110_);}
	.st121{clip-path:url(#SVGID_110_);fill:none;stroke:#FDFDC5;stroke-width:1;stroke-linejoin:round;}
	.st122{clip-path:url(#SVGID_110_);fill:#FDFDC5;}
	.st123{clip-path:url(#SVGID_110_);fill:#FEA048;}
	.st124{clip-path:url(#SVGID_110_);fill:none;stroke:#FDFDC5;stroke-width:0.5;stroke-linejoin:round;}
	.st125{clip-path:url(#SVGID_112_);}
	.st126{clip-path:url(#SVGID_114_);fill:#9DEA9B;}
	.st127{clip-path:url(#SVGID_114_);fill:none;stroke:#000000;stroke-linejoin:round;}
	.st128{clip-path:url(#SVGID_116_);}
	.st129{clip-path:url(#SVGID_118_);fill:#79B578;}
	.st130{clip-path:url(#SVGID_118_);}
	.st131{clip-path:url(#SVGID_118_);fill:none;stroke:#FDFDC5;stroke-linejoin:round;}
	.st132{clip-path:url(#SVGID_118_);fill:#FDFDC5;}
	.st133{clip-path:url(#SVGID_118_);fill:none;stroke:#000000;}
	.st134{clip-path:url(#SVGID_118_);fill:#598457;}
	.st135{clip-path:url(#SVGID_118_);fill:#79B778;}
	.st136{clip-path:url(#SVGID_118_);fill:none;stroke:#FDFDC5;stroke-width:0.5;}
	.st137{clip-path:url(#SVGID_120_);}
</style>
<g>
	<defs>
		<rect id="SVGID_1_" x="206.9" y="219.5" width="711.1" height="260.2"/>
	</defs>
	<clipPath id="SVGID_2_">
		<use xlink:href="#SVGID_1_"  style="overflow:visible;"/>
	</clipPath>
	<g class="st0">
		<text transform="matrix(1 0 0 1 215.3813 352.9021)" class="st1 st2"> </text>
	</g>
</g>
<g>
	<defs>
		<rect id="SVGID_3_" x="-228.6" y="-145.1" width="1500" height="1000"/>
	</defs>
	<clipPath id="SVGID_4_">
		<use xlink:href="#SVGID_3_"  style="overflow:visible;"/>
	</clipPath>
	<rect x="375" y="386.4" class="st3" width="221.5" height="77.1"/>
	<polygon class="st4" points="514,506.6 492.5,506.6 558.8,461 625.2,506.6 603.7,506.6 603.7,638.4 514,638.4 	"/>
	<polygon class="st4" points="416.4,86.9 371.9,86.9 501.3,18.6 630.6,86.9 586.2,86.9 586.2,237.8 416.4,237.8 	"/>
	<rect x="22.4" y="223.4" class="st5" width="160.6" height="249.3"/>
	<rect x="22.4" y="223.4" class="st6" width="160.6" height="249.3"/>
</g>
<g>
	<defs>
		<rect id="SVGID_5_" x="23.4" y="224.4" width="158.6" height="247.3"/>
	</defs>
	<clipPath id="SVGID_6_">
		<use xlink:href="#SVGID_5_"  style="overflow:visible;"/>
	</clipPath>
	<g class="st7">
		<text transform="matrix(1 0 0 1 31.3813 351.9021)" class="st1 st2"> </text>
	</g>
</g>
<g>
	<defs>
		<rect id="SVGID_7_" x="-228.6" y="-145.1" width="1500" height="1000"/>
	</defs>
	<clipPath id="SVGID_8_">
		<use xlink:href="#SVGID_7_"  style="overflow:visible;"/>
	</clipPath>
	<rect x="32.1" y="244" class="st8" width="140.5" height="56"/>
	<g class="st9">
		<text transform="matrix(1 0 0 1 62.3813 274.9021)" class="st1 st10">GatingSignal</text>
	</g>
	<g class="st9">
		<text transform="matrix(1 0 0 1 40.3813 368.9021)" class="st1 st11">GatingMechanism</text>
	</g>
	<rect x="33.1" y="394" class="st8" width="140.5" height="56"/>
	<g class="st9">
		<text transform="matrix(1 0 0 1 63.3813 424.9021)" class="st1 st10">GatingSignal</text>
	</g>
	<rect x="937.4" y="233.8" class="st12" width="173.2" height="225.7"/>
	<rect x="937.4" y="233.8" class="st13" width="173.2" height="225.7"/>
</g>
<g>
	<defs>
		<rect id="SVGID_9_" x="938.4" y="234.8" width="171.2" height="223.7"/>
	</defs>
	<clipPath id="SVGID_10_">
		<use xlink:href="#SVGID_9_"  style="overflow:visible;"/>
	</clipPath>
	<g class="st14">
		<text transform="matrix(1 0 0 1 946.3813 349.9021)" class="st1 st2"> </text>
	</g>
</g>
<g>
	<defs>
		<rect id="SVGID_11_" x="-228.6" y="-145.1" width="1500" height="1000"/>
	</defs>
	<clipPath id="SVGID_12_">
		<use xlink:href="#SVGID_11_"  style="overflow:visible;"/>
	</clipPath>
	<rect x="971.1" y="254.2" class="st15" width="111" height="71.5"/>
	<g class="st16">
		<text transform="matrix(1 0 0 1 947.3813 351.9021)" class="st1 st11">ControlMechanism</text>
	</g>
	<g class="st16">
		<text transform="matrix(1 0 0 1 986.3813 289.9021)" class="st1 st10">ControlSignal</text>
	</g>
	<rect x="389.1" y="237" class="st17" width="207.4" height="71.5"/>
	<polyline class="st18" points="439,271.9 438.5,271.9 240.2,271.9 240.2,271 260.2,271 	"/>
	<rect x="438.5" y="269.4" class="st16" width="5" height="5"/>
	<rect x="607.9" y="253.3" class="st17" width="162.7" height="189.3"/>
	<polyline class="st18" points="684.2,334.6 684.2,334.1 684.2,291.4 789.3,291.4 	"/>
	<rect x="681.7" y="334.1" class="st16" width="5" height="5"/>
	<line class="st19" x1="392.7" y1="445.1" x2="558.8" y2="445.1"/>
	<rect x="455.5" y="431.5" class="st17" width="41.5" height="12.3"/>
</g>
<g>
	<defs>
		<rect id="SVGID_13_" x="390.9" y="443.9" width="3" height="20.3"/>
	</defs>
	<clipPath id="SVGID_14_">
		<use xlink:href="#SVGID_13_"  style="overflow:visible;"/>
	</clipPath>
	<line class="st20" x1="392.4" y1="444.9" x2="392.4" y2="463.3"/>
</g>
<g>
	<defs>
		<rect id="SVGID_15_" x="557" y="443.9" width="3" height="20.3"/>
	</defs>
	<clipPath id="SVGID_16_">
		<use xlink:href="#SVGID_15_"  style="overflow:visible;"/>
	</clipPath>
	<line class="st21" x1="558.5" y1="444.9" x2="558.5" y2="463.3"/>
</g>
<g>
	<defs>
		<rect id="SVGID_17_" x="-228.6" y="-145.1" width="1500" height="1000"/>
	</defs>
	<clipPath id="SVGID_18_">
		<use xlink:href="#SVGID_17_"  style="overflow:visible;"/>
	</clipPath>
	<polyline class="st22" points="475.9,438.7 475.9,409.1 475.9,408.6 	"/>
	<polygon class="st23" points="478.9,409.1 475.9,403.1 472.9,409.1 	"/>
</g>
<g>
	<defs>
		<rect id="SVGID_19_" x="456.9" y="393.5" width="38.6" height="9"/>
	</defs>
	<clipPath id="SVGID_20_">
		<use xlink:href="#SVGID_19_"  style="overflow:visible;"/>
	</clipPath>
	<g class="st24">
		<text transform="matrix(1 0 0 1 465.3813 400.9021)" class="st25 st26">value</text>
	</g>
</g>
<g>
	<defs>
		<rect id="SVGID_21_" x="-228.6" y="-145.1" width="1500" height="1000"/>
	</defs>
	<clipPath id="SVGID_22_">
		<use xlink:href="#SVGID_21_"  style="overflow:visible;"/>
	</clipPath>
	<rect x="448.7" y="436.6" class="st27" width="55" height="16.9"/>
</g>
<g>
	<defs>
		<rect id="SVGID_23_" x="450.2" y="440.6" width="52" height="9"/>
	</defs>
	<clipPath id="SVGID_24_">
		<use xlink:href="#SVGID_23_"  style="overflow:visible;"/>
	</clipPath>
	<g class="st28">
		<text transform="matrix(1 0 0 1 460.3813 447.9021)" class="st25 st26">variable</text>
	</g>
</g>
<g>
	<defs>
		<rect id="SVGID_25_" x="-228.6" y="-145.1" width="1500" height="1000"/>
	</defs>
	<clipPath id="SVGID_26_">
		<use xlink:href="#SVGID_25_"  style="overflow:visible;"/>
	</clipPath>
	<rect x="443.8" y="412.7" class="st29" width="64.8" height="18.5"/>
	<rect x="443.8" y="412.7" class="st30" width="64.8" height="18.5"/>
</g>
<g>
	<defs>
		<rect id="SVGID_27_" x="446.3" y="417.7" width="59.8" height="9"/>
	</defs>
	<clipPath id="SVGID_28_">
		<use xlink:href="#SVGID_27_"  style="overflow:visible;"/>
	</clipPath>
	<g class="st31">
		<text transform="matrix(1 0 0 1 457.3813 425.9021)" class="st32 st26">Function</text>
	</g>
</g>
<g>
	<defs>
		<rect id="SVGID_29_" x="-228.6" y="-145.1" width="1500" height="1000"/>
	</defs>
	<clipPath id="SVGID_30_">
		<use xlink:href="#SVGID_29_"  style="overflow:visible;"/>
	</clipPath>
	<g class="st33">
		<text transform="matrix(1 0 0 1 522.3813 425.9021)" class="st1 st10">InputPort</text>
	</g>
	<polyline class="st34" points="475.9,394.1 475.9,381.7 475.9,381.2 	"/>
	<polygon class="st33" points="478.9,381.7 475.9,375.7 472.9,381.7 	"/>
	<g class="st33">
		<text transform="matrix(1 0 0 1 447.3813 550.9021)" class="st35 st1 st36">Mapping </text>
	</g>
	<g class="st33">
		<text transform="matrix(1 0 0 1 439.3813 565.9021)" class="st35 st1 st36">Projections</text>
	</g>
	<g class="st33">
		<text transform="matrix(1 0 0 1 243.3813 343.9021)" class="st1 st37">Processing </text>
	</g>
	<g class="st33">
		<text transform="matrix(1 0 0 1 243.3813 367.9021)" class="st1 st37">Mechanism</text>
	</g>
	<polygon class="st38" points="347.8,506.6 326.3,506.6 392.7,461 459,506.6 437.5,506.6 437.5,638.4 347.8,638.4 	"/>
	<rect x="670.1" y="342" class="st39" width="47" height="14"/>
	<g class="st33">
		<text transform="matrix(1 0 0 1 618.3813 350.9021)" class="st25 st26">value</text>
	</g>
	<polyline class="st40" points="719.7,347.9 650,347.9 649.5,347.9 	"/>
	<polygon class="st33" points="650,344.9 644,347.9 650,350.9 	"/>
	<polyline class="st40" points="615.9,348.7 514,348.7 513.5,348.7 	"/>
	<rect x="509" y="346.2" class="st33" width="5" height="5"/>
	<g class="st33">
		<text transform="matrix(1 0 0 1 347.3813 152.9021)" class="st35 st1 st36">Mapping </text>
	</g>
	<g class="st33">
		<text transform="matrix(1 0 0 1 342.3813 167.9021)" class="st35 st1 st36">Projection</text>
	</g>
	<g class="st33">
		<text transform="matrix(1 0 0 1 229.3813 240.9021)" class="st35 st1 st36">GatingProjection</text>
	</g>
	<polyline class="st34" points="475.9,363.6 475.9,335.7 475.9,335.2 	"/>
	<polygon class="st33" points="478.9,335.7 475.9,329.7 472.9,335.7 	"/>
</g>
<g>
	<defs>
		<rect id="SVGID_31_" x="456.9" y="319.2" width="38.6" height="9"/>
	</defs>
	<clipPath id="SVGID_32_">
		<use xlink:href="#SVGID_31_"  style="overflow:visible;"/>
	</clipPath>
	<g class="st41">
		<text transform="matrix(1 0 0 1 464.3813 326.9021)" class="st32 st26">value</text>
	</g>
</g>
<g>
	<defs>
		<rect id="SVGID_33_" x="450.2" y="364.8" width="52" height="8"/>
	</defs>
	<clipPath id="SVGID_34_">
		<use xlink:href="#SVGID_33_"  style="overflow:visible;"/>
	</clipPath>
	<g class="st42">
		<text transform="matrix(1 0 0 1 460.3813 372.9021)" class="st25 st26">variable</text>
	</g>
</g>
<g>
	<defs>
		<rect id="SVGID_35_" x="-228.6" y="-145.1" width="1500" height="1000"/>
	</defs>
	<clipPath id="SVGID_36_">
		<use xlink:href="#SVGID_35_"  style="overflow:visible;"/>
	</clipPath>
	<rect x="443.8" y="339.7" class="st43" width="64.8" height="18.5"/>
	<rect x="443.8" y="339.7" class="st44" width="64.8" height="18.5"/>
</g>
<g>
	<defs>
		<rect id="SVGID_37_" x="446.3" y="344.7" width="59.8" height="9"/>
	</defs>
	<clipPath id="SVGID_38_">
		<use xlink:href="#SVGID_37_"  style="overflow:visible;"/>
	</clipPath>
	<g class="st45">
		<text transform="matrix(1 0 0 1 457.3813 352.9021)" class="st32 st26">Function</text>
	</g>
</g>
<g>
	<defs>
		<rect id="SVGID_39_" x="-228.6" y="-145.1" width="1500" height="1000"/>
	</defs>
	<clipPath id="SVGID_40_">
		<use xlink:href="#SVGID_39_"  style="overflow:visible;"/>
	</clipPath>
	<rect x="455.5" y="281.5" class="st46" width="41.5" height="12.3"/>
	<polyline class="st47" points="475.9,285.5 475.9,258.1 475.9,257.6 	"/>
	<polygon class="st48" points="478.9,258.1 475.9,252.1 472.9,258.1 	"/>
</g>
<g>
	<defs>
		<rect id="SVGID_41_" x="456.9" y="242.2" width="38.6" height="9"/>
	</defs>
	<clipPath id="SVGID_42_">
		<use xlink:href="#SVGID_41_"  style="overflow:visible;"/>
	</clipPath>
	<g class="st49">
		<text transform="matrix(1 0 0 1 465.3813 249.9021)" class="st25 st26">value</text>
	</g>
</g>
<g>
	<defs>
		<rect id="SVGID_43_" x="450.2" y="285.8" width="52" height="8"/>
	</defs>
	<clipPath id="SVGID_44_">
		<use xlink:href="#SVGID_43_"  style="overflow:visible;"/>
	</clipPath>
	<g class="st50">
		<text transform="matrix(1 0 0 1 460.3813 293.9021)" class="st25 st26">variable</text>
	</g>
</g>
<g>
	<defs>
		<rect id="SVGID_45_" x="-228.6" y="-145.1" width="1500" height="1000"/>
	</defs>
	<clipPath id="SVGID_46_">
		<use xlink:href="#SVGID_45_"  style="overflow:visible;"/>
	</clipPath>
	<rect x="443.8" y="262.7" class="st51" width="64.8" height="18.5"/>
	<rect x="443.8" y="262.7" class="st52" width="64.8" height="18.5"/>
</g>
<g>
	<defs>
		<rect id="SVGID_47_" x="446.3" y="267.7" width="59.8" height="9"/>
	</defs>
	<clipPath id="SVGID_48_">
		<use xlink:href="#SVGID_47_"  style="overflow:visible;"/>
	</clipPath>
	<g class="st53">
		<text transform="matrix(1 0 0 1 457.3813 275.9021)" class="st32 st26">Function</text>
	</g>
</g>
<g>
	<defs>
		<rect id="SVGID_49_" x="-228.6" y="-145.1" width="1500" height="1000"/>
	</defs>
	<clipPath id="SVGID_50_">
		<use xlink:href="#SVGID_49_"  style="overflow:visible;"/>
	</clipPath>
	<g class="st54">
		<text transform="matrix(1 0 0 1 515.3813 276.9021)" class="st1 st10">OutputPort</text>
	</g>
	<polyline class="st55" points="475.9,317.1 475.9,304.7 475.9,304.2 	"/>
	<polygon class="st54" points="478.9,304.7 475.9,298.7 472.9,304.7 	"/>
	<g class="st54">
		<text transform="matrix(1 0 0 1 648.3813 272.9021)" class="st1 st10">ParameterPort</text>
	</g>
	<rect x="655.1" y="339.7" class="st56" width="58.2" height="18.5"/>
	<rect x="655.1" y="339.7" class="st55" width="58.2" height="18.5"/>
</g>
<g>
	<defs>
		<rect id="SVGID_51_" x="657.6" y="344.7" width="53.2" height="9"/>
	</defs>
	<clipPath id="SVGID_52_">
		<use xlink:href="#SVGID_51_"  style="overflow:visible;"/>
	</clipPath>
	<g class="st57">
		<text transform="matrix(1 0 0 1 665.3813 352.9021)" class="st32 st26">Function</text>
	</g>
</g>
<g>
	<defs>
		<rect id="SVGID_53_" x="-228.6" y="-145.1" width="1500" height="1000"/>
	</defs>
	<clipPath id="SVGID_54_">
		<use xlink:href="#SVGID_53_"  style="overflow:visible;"/>
	</clipPath>
	<polyline class="st58" points="684.2,363.2 684.2,363.7 684.2,406.4 789.3,406.4 	"/>
	<rect x="681.7" y="358.7" class="st59" width="5" height="5"/>
	<polygon class="st60" points="798.1,318.4 798.1,346.2 756.1,291.3 798.1,236.3 798.1,264.1 971.4,264.1 971.4,318.4 	"/>
	<polyline class="st61" points="915.2,291.2 809.6,291.2 809.1,291.2 	"/>
	<polygon class="st62" points="809.6,288.2 803.6,291.2 809.6,294.2 	"/>
	<g class="st59">
		<text transform="matrix(1 0 0 1 777.3813 294.9021)" class="st63 st25 st64">value</text>
	</g>
	<rect x="837.8" y="280.7" class="st65" width="60.7" height="19"/>
	<rect x="837.8" y="280.7" class="st66" width="60.7" height="19"/>
</g>
<g>
	<defs>
		<rect id="SVGID_55_" x="840.3" y="285.7" width="55.8" height="9"/>
	</defs>
	<clipPath id="SVGID_56_">
		<use xlink:href="#SVGID_55_"  style="overflow:visible;"/>
	</clipPath>
	<g class="st67">
		<text transform="matrix(1 0 0 1 849.3813 293.9021)" class="st63 st32 st26">Function</text>
	</g>
</g>
<g>
	<defs>
		<rect id="SVGID_57_" x="-228.6" y="-145.1" width="1500" height="1000"/>
	</defs>
	<clipPath id="SVGID_58_">
		<use xlink:href="#SVGID_57_"  style="overflow:visible;"/>
	</clipPath>
	<g class="st68">
		<text transform="matrix(1 0 0 1 917.3813 293.9021)" class="st63 st25 st64">variable</text>
	</g>
	<g class="st68">
		<text transform="matrix(1 0 0 1 725.3813 349.9021)" class="st32 st26">variable </text>
	</g>
	<g class="st68">
		<text transform="matrix(1 0 0 1 722.3813 359.9021)" class="st25 st69">(parameter </text>
	</g>
	<g class="st68">
		<text transform="matrix(1 0 0 1 726.3813 368.9021)" class="st25 st69">attribute)</text>
	</g>
	<polyline class="st70" points="453.2,123 483.8,68.5 484.1,68.1 	"/>
	<polygon class="st71" points="486.4,70 486.8,63.3 481.2,67 	"/>
</g>
<g>
	<defs>
		<rect id="SVGID_59_" x="480.1" y="50.7" width="39.1" height="9"/>
	</defs>
	<clipPath id="SVGID_60_">
		<use xlink:href="#SVGID_59_"  style="overflow:visible;"/>
	</clipPath>
	<g class="st72">
		<text transform="matrix(1 0 0 1 487.3813 58.9021)" class="st63 st25 st64">value</text>
	</g>
</g>
<g>
	<defs>
		<rect id="SVGID_61_" x="-228.6" y="-145.1" width="1500" height="1000"/>
	</defs>
	<clipPath id="SVGID_62_">
		<use xlink:href="#SVGID_61_"  style="overflow:visible;"/>
	</clipPath>
	<rect x="445.2" y="214.3" class="st73" width="55" height="18.5"/>
</g>
<g>
	<defs>
		<rect id="SVGID_63_" x="446.4" y="218.3" width="52.6" height="10"/>
	</defs>
	<clipPath id="SVGID_64_">
		<use xlink:href="#SVGID_63_"  style="overflow:visible;"/>
	</clipPath>
	<g class="st74">
		<text transform="matrix(1 0 0 1 455.3813 226.9021)" class="st63 st25 st64">variable</text>
	</g>
</g>
<g>
	<defs>
		<rect id="SVGID_65_" x="-228.6" y="-145.1" width="1500" height="1000"/>
	</defs>
	<clipPath id="SVGID_66_">
		<use xlink:href="#SVGID_65_"  style="overflow:visible;"/>
	</clipPath>
	<g class="st75">
		<text transform="matrix(1 0 0 1 604.3813 157.9021)" class="st63 st25 st26">value</text>
	</g>
	<g class="st75">
		<text transform="matrix(1 0 0 1 803.3813 256.9021)" class="st35 st1 st36">ControlProjection</text>
	</g>
	<polygon class="st76" points="356.5,294.2 356.5,316.7 398.5,272.3 356.5,228 356.5,250.4 172.5,250.4 172.5,294.2 	"/>
	<polyline class="st77" points="345.8,272 345.3,272 240.8,272 	"/>
	<polygon class="st78" points="345.3,275 351.3,272 345.3,269 	"/>
	<rect x="260.5" y="261.5" class="st79" width="60.7" height="19"/>
	<rect x="260.5" y="261.5" class="st80" width="60.7" height="19"/>
</g>
<g>
	<defs>
		<rect id="SVGID_67_" x="263" y="266.5" width="55.8" height="9"/>
	</defs>
	<clipPath id="SVGID_68_">
		<use xlink:href="#SVGID_67_"  style="overflow:visible;"/>
	</clipPath>
	<g class="st81">
		<text transform="matrix(1 0 0 1 272.3813 273.9021)" class="st63 st32 st26">Function</text>
	</g>
</g>
<g>
	<defs>
		<rect id="SVGID_69_" x="-228.6" y="-145.1" width="1500" height="1000"/>
	</defs>
	<clipPath id="SVGID_70_">
		<use xlink:href="#SVGID_69_"  style="overflow:visible;"/>
	</clipPath>
	<g class="st82">
		<text transform="matrix(1 0 0 1 354.3813 273.9021)" class="st63 st25 st26">value</text>
	</g>
	<g class="st82">
		<text transform="matrix(1 0 0 1 196.3813 274.9021)" class="st63 st25 st26">variable</text>
	</g>
	<polyline class="st83" points="439,421.9 438.5,421.9 280.9,421.9 280.9,421 	"/>
	<rect x="438.5" y="419.4" class="st82" width="5" height="5"/>
	<g class="st82">
		<text transform="matrix(1 0 0 1 219.3813 461.9021)" class="st35 st1 st36">GatingProjection</text>
	</g>
	<polygon class="st84" points="346.5,444.2 346.5,466.7 388.5,422.3 346.5,378 346.5,400.4 173.2,400.4 173.2,444.2 	"/>
	<polyline class="st85" points="337,422 336.5,422 230.8,422 	"/>
	<polygon class="st86" points="336.5,425 342.5,422 336.5,419 	"/>
	<g class="st82">
		<text transform="matrix(1 0 0 1 344.3813 423.9021)" class="st63 st25 st26">value</text>
	</g>
	<g class="st82">
		<text transform="matrix(1 0 0 1 194.3813 424.9021)" class="st63 st25 st26">variable</text>
	</g>
	<polyline class="st85" points="392.3,617.6 392.3,503 392.3,502.5 	"/>
	<polygon class="st86" points="395.3,503 392.3,497 389.3,503 	"/>
</g>
<g>
	<defs>
		<rect id="SVGID_71_" x="372.1" y="483.7" width="39.1" height="9"/>
	</defs>
	<clipPath id="SVGID_72_">
		<use xlink:href="#SVGID_71_"  style="overflow:visible;"/>
	</clipPath>
	<g class="st87">
		<text transform="matrix(1 0 0 1 379.3813 491.9021)" class="st63 st25 st64">value</text>
	</g>
</g>
<g>
	<defs>
		<rect id="SVGID_73_" x="-228.6" y="-145.1" width="1500" height="1000"/>
	</defs>
	<clipPath id="SVGID_74_">
		<use xlink:href="#SVGID_73_"  style="overflow:visible;"/>
	</clipPath>
	<rect x="364.4" y="546.2" class="st88" width="56.5" height="18.5"/>
	<rect x="364.4" y="546.2" class="st89" width="56.5" height="18.5"/>
</g>
<g>
	<defs>
		<rect id="SVGID_75_" x="366.9" y="551.2" width="51.5" height="9"/>
	</defs>
	<clipPath id="SVGID_76_">
		<use xlink:href="#SVGID_75_"  style="overflow:visible;"/>
	</clipPath>
	<g class="st90">
		<text transform="matrix(1 0 0 1 373.3813 558.9021)" class="st63 st32 st26">Function</text>
	</g>
</g>
<g>
	<defs>
		<rect id="SVGID_77_" x="-228.6" y="-145.1" width="1500" height="1000"/>
	</defs>
	<clipPath id="SVGID_78_">
		<use xlink:href="#SVGID_77_"  style="overflow:visible;"/>
	</clipPath>
	<rect x="365.2" y="607.3" class="st91" width="55" height="15.9"/>
</g>
<g>
	<defs>
		<rect id="SVGID_79_" x="366.4" y="611.3" width="52.6" height="8"/>
	</defs>
	<clipPath id="SVGID_80_">
		<use xlink:href="#SVGID_79_"  style="overflow:visible;"/>
	</clipPath>
	<g class="st92">
		<text transform="matrix(1 0 0 1 375.3813 619.9021)" class="st63 st25 st64">variable</text>
	</g>
</g>
<g>
	<defs>
		<rect id="SVGID_81_" x="-228.6" y="-145.1" width="1500" height="1000"/>
	</defs>
	<clipPath id="SVGID_82_">
		<use xlink:href="#SVGID_81_"  style="overflow:visible;"/>
	</clipPath>
	<polyline class="st93" points="560.3,617.6 560.3,503 560.3,502.5 	"/>
	<polygon class="st94" points="563.3,503 560.3,497 557.3,503 	"/>
</g>
<g>
	<defs>
		<rect id="SVGID_83_" x="540.1" y="483.7" width="39.1" height="9"/>
	</defs>
	<clipPath id="SVGID_84_">
		<use xlink:href="#SVGID_83_"  style="overflow:visible;"/>
	</clipPath>
	<g class="st95">
		<text transform="matrix(1 0 0 1 547.3813 491.9021)" class="st63 st25 st64">value</text>
	</g>
</g>
<g>
	<defs>
		<rect id="SVGID_85_" x="-228.6" y="-145.1" width="1500" height="1000"/>
	</defs>
	<clipPath id="SVGID_86_">
		<use xlink:href="#SVGID_85_"  style="overflow:visible;"/>
	</clipPath>
	<rect x="531.4" y="546.2" class="st96" width="56.5" height="18.5"/>
	<rect x="531.4" y="546.2" class="st97" width="56.5" height="18.5"/>
</g>
<g>
	<defs>
		<rect id="SVGID_87_" x="533.9" y="551.2" width="51.5" height="9"/>
	</defs>
	<clipPath id="SVGID_88_">
		<use xlink:href="#SVGID_87_"  style="overflow:visible;"/>
	</clipPath>
	<g class="st98">
		<text transform="matrix(1 0 0 1 540.3813 558.9021)" class="st63 st32 st26">Function</text>
	</g>
</g>
<g>
	<defs>
		<rect id="SVGID_89_" x="-228.6" y="-145.1" width="1500" height="1000"/>
	</defs>
	<clipPath id="SVGID_90_">
		<use xlink:href="#SVGID_89_"  style="overflow:visible;"/>
	</clipPath>
	<rect x="532.2" y="607.3" class="st99" width="55" height="15.9"/>
</g>
<g>
	<defs>
		<rect id="SVGID_91_" x="533.4" y="611.3" width="52.6" height="8"/>
	</defs>
	<clipPath id="SVGID_92_">
		<use xlink:href="#SVGID_91_"  style="overflow:visible;"/>
	</clipPath>
	<g class="st100">
		<text transform="matrix(1 0 0 1 542.3813 619.9021)" class="st63 st25 st64">variable</text>
	</g>
</g>
<g>
	<defs>
		<rect id="SVGID_93_" x="-228.6" y="-145.1" width="1500" height="1000"/>
	</defs>
	<clipPath id="SVGID_94_">
		<use xlink:href="#SVGID_93_"  style="overflow:visible;"/>
	</clipPath>
	<rect x="971.1" y="368.2" class="st101" width="111" height="71.5"/>
	<g class="st102">
		<text transform="matrix(1 0 0 1 987.3813 407.9021)" class="st1 st10">ControlSignal</text>
	</g>
	<rect x="256.5" y="411.5" class="st103" width="60.7" height="19"/>
	<rect x="256.5" y="411.5" class="st104" width="60.7" height="19"/>
</g>
<g>
	<defs>
		<rect id="SVGID_95_" x="259" y="416.5" width="55.8" height="9"/>
	</defs>
	<clipPath id="SVGID_96_">
		<use xlink:href="#SVGID_95_"  style="overflow:visible;"/>
	</clipPath>
	<g class="st105">
		<text transform="matrix(1 0 0 1 268.3813 423.9021)" class="st63 st32 st26">Function</text>
	</g>
</g>
<g>
	<defs>
		<rect id="SVGID_97_" x="-228.6" y="-145.1" width="1500" height="1000"/>
	</defs>
	<clipPath id="SVGID_98_">
		<use xlink:href="#SVGID_97_"  style="overflow:visible;"/>
	</clipPath>
	<g class="st106">
		<text transform="matrix(1 0 0 1 622.3813 556.9021)" class="st63 st25 st26">value</text>
	</g>
	<polygon class="st107" points="798.1,432.4 798.1,460.2 756.1,405.3 798.1,350.3 798.1,378.1 971.1,378.1 971.1,432.4 	"/>
	<polyline class="st108" points="915.2,405.2 809.6,405.2 809.1,405.2 	"/>
	<polygon class="st109" points="809.6,402.2 803.6,405.2 809.6,408.2 	"/>
	<g class="st106">
		<text transform="matrix(1 0 0 1 777.3813 408.9021)" class="st63 st25 st64">value</text>
	</g>
	<rect x="837.8" y="394.7" class="st110" width="60.7" height="19"/>
	<rect x="837.8" y="394.7" class="st111" width="60.7" height="19"/>
</g>
<g>
	<defs>
		<rect id="SVGID_99_" x="840.3" y="399.7" width="55.8" height="9"/>
	</defs>
	<clipPath id="SVGID_100_">
		<use xlink:href="#SVGID_99_"  style="overflow:visible;"/>
	</clipPath>
	<g class="st112">
		<text transform="matrix(1 0 0 1 849.3813 407.9021)" class="st63 st32 st26">Function</text>
	</g>
</g>
<g>
	<defs>
		<rect id="SVGID_101_" x="-228.6" y="-145.1" width="1500" height="1000"/>
	</defs>
	<clipPath id="SVGID_102_">
		<use xlink:href="#SVGID_101_"  style="overflow:visible;"/>
	</clipPath>
	<g class="st113">
		<text transform="matrix(1 0 0 1 917.3813 407.9021)" class="st63 st25 st64">variable</text>
	</g>
	<g class="st113">
		<text transform="matrix(1 0 0 1 803.3813 448.9021)" class="st35 st1 st36">ControlProjection</text>
	</g>
	<path class="st113" d="M95.1,330.6h17.3v3.6H95.1V330.6z M103.8,320.4c-6.6,0-11.9,5.3-11.9,11.9s5.3,11.9,11.9,11.9
		c6.6,0,11.9-5.3,11.9-11.9S110.3,320.4,103.8,320.4z M92.4,319h22.6c1.1,0,2,0.9,2,2v22.6c0,1.1-0.9,2-2,2H92.4c-1.1,0-2-0.9-2-2
		V321C90.4,319.9,91.3,319,92.4,319z M92.4,317.8c-1.8,0-3.2,1.5-3.2,3.2v22.6c0,1.8,1.5,3.2,3.2,3.2h22.6c1.8,0,3.2-1.5,3.2-3.2
		V321c0-1.8-1.5-3.2-3.2-3.2H92.4z"/>
	<path class="st113" d="M1092.1,356.4c0.2,0,0.4,0.2,0.4,0.4v1.2c-0.1,0-0.3,0-0.4,0c-0.1,0-0.3,0-0.4,0v-1.2
		C1091.7,356.6,1091.8,356.4,1092.1,356.4z M1086.9,355c0.1,0,0.1,0,0.2,0.1c0.2,0.1,0.2,0.4,0.1,0.5l-0.6,1
		c-0.2-0.1-0.5-0.3-0.7-0.4l0.6-1C1086.6,355.1,1086.7,355,1086.9,355z M1097.2,355c0.2,0,0.3,0.1,0.4,0.2l0.6,1
		c-0.2,0.2-0.5,0.3-0.7,0.4l-0.6-1c-0.1-0.2,0-0.4,0.1-0.5C1097.1,355,1097.2,355,1097.2,355z M1101.1,351.2c0.1,0,0.1,0,0.1,0.1
		l1,0.6c-0.1,0.2-0.3,0.5-0.4,0.7l-1-0.6c-0.2-0.1-0.3-0.4-0.1-0.5C1100.8,351.3,1101,351.2,1101.1,351.2z M1083,351.2
		c0.2,0,0.3,0.1,0.4,0.2c0.1,0.2,0,0.4-0.1,0.5l-1,0.6c-0.1-0.2-0.3-0.5-0.4-0.7l1-0.6C1082.9,351.2,1082.9,351.2,1083,351.2z
		 M1102.5,346h1.1c0,0.1,0,0.3,0,0.4c0,0.1,0,0.2,0,0.4h-1.2c-0.2,0-0.4-0.2-0.4-0.4S1102.3,346,1102.5,346z M1080.5,346h1.1
		c0.2,0,0.4,0.2,0.4,0.4c0,0.2-0.2,0.4-0.4,0.4h-1.2c0-0.1,0-0.2,0-0.4C1080.5,346.3,1080.5,346.1,1080.5,346z M1092.1,345.8
		c-0.2,0-0.3,0.1-0.4,0.2c-0.2,0.2-0.2,0.6,0,0.8c0.2,0.2,0.6,0.2,0.8,0c0.2-0.2,0.2-0.6,0-0.8
		C1092.4,345.9,1092.2,345.8,1092.1,345.8z M1101.9,340.3c0.1,0.2,0.3,0.5,0.4,0.7l-1,0.6c-0.1,0-0.1,0.1-0.2,0.1
		c-0.1,0-0.3-0.1-0.3-0.2c-0.1-0.2,0-0.4,0.1-0.5L1101.9,340.3z M1082.3,340.3l1,0.6c0.2,0.1,0.3,0.4,0.1,0.5
		c-0.1,0.1-0.2,0.2-0.3,0.2c-0.1,0-0.1,0-0.2-0.1l-1-0.6C1082,340.7,1082.1,340.5,1082.3,340.3z M1092.1,337.2
		c0.1,0,0.1,0.2,0.1,0.2l1.1,8.9c0,0.1,0,0.1,0,0.2c0,0.7-0.5,1.2-1.2,1.2c-0.7,0-1.2-0.5-1.2-1.2c0-0.1,0-0.1,0-0.2l1.1-8.9
		C1092,337.4,1092,337.2,1092.1,337.2z M1086.6,336.2l0.6,1c0.1,0.2,0,0.4-0.2,0.5c-0.1,0-0.1,0.1-0.2,0.1c-0.1,0-0.3-0.1-0.3-0.2
		l-0.6-1C1086.2,336.5,1086.4,336.3,1086.6,336.2z M1097.5,336.2c0.2,0.1,0.5,0.3,0.7,0.4l-0.6,1c-0.1,0.1-0.2,0.2-0.3,0.2
		c-0.1,0-0.1,0-0.2-0.1c-0.2-0.1-0.3-0.3-0.2-0.5L1097.5,336.2z M1092.1,334.8c0.1,0,0.3,0,0.4,0v1.1c0,0.2-0.2,0.4-0.4,0.4
		c-0.2,0-0.4-0.2-0.4-0.4v-1.1C1091.8,334.8,1091.9,334.8,1092.1,334.8z M1092.1,333.2c-0.1,0-0.3,0-0.4,0c-2.1,0.1-4.1,0.6-5.8,1.6
		c-0.2,0.1-0.5,0.3-0.7,0.4c-1.7,1.1-3.2,2.5-4.3,4.3c-0.1,0.2-0.3,0.5-0.4,0.7c-0.9,1.7-1.5,3.7-1.6,5.8c0,0.1,0,0.3,0,0.4
		c0,0.1,0,0.2,0,0.4c0.1,2.1,0.6,4.1,1.5,5.9c0.1,0.2,0.3,0.5,0.4,0.7c1.1,1.7,2.5,3.2,4.3,4.3c0.2,0.1,0.5,0.3,0.7,0.4
		c1.8,0.9,3.7,1.5,5.9,1.6c0.1,0,0.3,0,0.4,0c0.1,0,0.3,0,0.4,0c2.1-0.1,4.1-0.6,5.9-1.6c0.2-0.1,0.5-0.3,0.7-0.4
		c1.7-1.1,3.2-2.6,4.3-4.3c0.1-0.2,0.3-0.5,0.4-0.7c0.9-1.8,1.5-3.7,1.5-5.9c0-0.1,0-0.2,0-0.4c0-0.1,0-0.3,0-0.4
		c-0.1-2.1-0.6-4.1-1.6-5.8c-0.1-0.2-0.3-0.5-0.4-0.7c-1.1-1.7-2.5-3.2-4.3-4.3c-0.2-0.1-0.5-0.3-0.7-0.4c-1.7-0.9-3.7-1.5-5.8-1.6
		C1092.3,333.2,1092.2,333.2,1092.1,333.2z"/>
	<path class="st113" d="M384.3,341.6c4.3,0,7.7,3.5,7.7,7.7c0,4.3-3.5,7.7-7.7,7.7c-4.3,0-7.7-3.5-7.7-7.7
		C376.5,345.1,380,341.6,384.3,341.6z M387.5,332.5c-0.2,0-0.3,0.1-0.4,0.3c-0.5,0.9-1,1.7-1.4,2.5c-0.2,0.3-0.4,0.5-0.8,0.4
		c-0.7-0.1-1.5-0.1-2.2,0.1c-0.3,0.1-0.5,0-0.7-0.3c-0.5-0.9-1.1-1.7-1.7-2.5c-0.2-0.2-0.3-0.3-0.5-0.2c-1.7,0.8-3.3,1.5-5,2.3
		c-0.3,0.1-0.3,0.3-0.2,0.5c0.3,1,0.5,1.9,0.8,2.9c0.1,0.3,0.1,0.5-0.2,0.7c-0.6,0.5-1.1,1-1.5,1.6c-0.2,0.3-0.5,0.4-0.8,0.3
		c-1-0.2-1.9-0.4-2.9-0.6c-0.3-0.1-0.4,0-0.5,0.3c-0.6,1.7-1.3,3.4-1.9,5.1c-0.1,0.3-0.1,0.4,0.2,0.6c0.9,0.5,1.7,1,2.5,1.4
		c0.3,0.2,0.5,0.4,0.4,0.8c-0.1,0.7,0,1.5,0.1,2.2c0.1,0.3,0,0.5-0.3,0.7c-0.9,0.5-1.7,1.1-2.5,1.7c-0.2,0.2-0.3,0.3-0.1,0.5
		c0.8,1.7,1.5,3.3,2.3,5c0.1,0.3,0.3,0.3,0.5,0.2c1-0.3,1.9-0.5,2.9-0.8c0.1,0,0.3-0.1,0.4-0.1c0.1,0.1,0.1,0.2,0.2,0.2
		c0.5,0.6,1.1,1.1,1.7,1.6c0.3,0.2,0.4,0.5,0.3,0.8c-0.2,1-0.4,1.9-0.6,2.9c-0.1,0.3,0,0.4,0.3,0.5c1.7,0.6,3.4,1.3,5.1,1.9
		c0.3,0.1,0.4,0.1,0.6-0.2c0.5-0.9,1-1.7,1.4-2.5c0.2-0.3,0.4-0.5,0.8-0.4c0.7,0.1,1.4,0.1,2.1-0.1c0.4-0.1,0.6,0.1,0.8,0.4
		c0.5,0.8,1.1,1.6,1.6,2.4c0.2,0.2,0.3,0.3,0.5,0.2c1.7-0.8,3.3-1.5,5-2.3c0.3-0.1,0.3-0.3,0.2-0.5c-0.3-1-0.5-1.9-0.8-2.9
		c-0.1-0.3-0.1-0.5,0.2-0.7c0.6-0.5,1.1-1,1.5-1.6c0.2-0.3,0.5-0.4,0.8-0.3c1,0.2,1.9,0.4,2.9,0.6c0.3,0.1,0.4,0,0.5-0.3
		c0.6-1.7,1.3-3.4,1.9-5.1c0.1-0.3,0.1-0.4-0.2-0.6c-0.9-0.5-1.7-1-2.5-1.4c-0.3-0.2-0.5-0.4-0.4-0.8c0.1-0.7,0-1.5-0.1-2.2
		c-0.1-0.3,0-0.5,0.3-0.7c0.9-0.5,1.7-1.1,2.5-1.7c0.2-0.2,0.3-0.3,0.1-0.5c-0.8-1.7-1.5-3.3-2.3-5c-0.1-0.3-0.3-0.3-0.5-0.2
		c-1,0.3-2,0.5-2.9,0.8c-0.3,0.1-0.4,0-0.6-0.2c-0.5-0.6-1-1.1-1.6-1.5c-0.3-0.2-0.4-0.5-0.3-0.8c0.2-1,0.4-1.9,0.6-2.9
		c0.1-0.3,0-0.4-0.3-0.5c-1.7-0.6-3.4-1.3-5.1-1.9C387.6,332.5,387.6,332.5,387.5,332.5z"/>
	<rect x="485.2" y="94.6" class="st114" width="92.4" height="110"/>
	<g class="st113">
		<text transform="matrix(1 0 0 1 494.3813 116.9021)" class="st1 st2">ParameterPort</text>
	</g>
	<polyline class="st115" points="530.8,172.9 530.8,143.3 530.8,142.8 	"/>
	<polygon class="st113" points="533.8,143.3 530.8,137.3 527.8,143.3 	"/>
</g>
<g>
	<defs>
		<rect id="SVGID_103_" x="511.9" y="125.8" width="38.6" height="9"/>
	</defs>
	<clipPath id="SVGID_104_">
		<use xlink:href="#SVGID_103_"  style="overflow:visible;"/>
	</clipPath>
	<g class="st116">
		<text transform="matrix(1 0 0 1 520.3813 133.9021)" class="st25 st26">value</text>
	</g>
</g>
<g>
	<defs>
		<rect id="SVGID_105_" x="-228.6" y="-145.1" width="1500" height="1000"/>
	</defs>
	<clipPath id="SVGID_106_">
		<use xlink:href="#SVGID_105_"  style="overflow:visible;"/>
	</clipPath>
	<rect x="498.8" y="146.9" class="st117" width="64.8" height="18.5"/>
	<rect x="498.8" y="146.9" class="st118" width="64.8" height="18.5"/>
</g>
<g>
	<defs>
		<rect id="SVGID_107_" x="501.3" y="151.9" width="59.8" height="9"/>
	</defs>
	<clipPath id="SVGID_108_">
		<use xlink:href="#SVGID_107_"  style="overflow:visible;"/>
	</clipPath>
	<g class="st119">
		<text transform="matrix(1 0 0 1 512.3813 159.9021)" class="st32 st26">Function</text>
	</g>
</g>
<g>
	<defs>
		<rect id="SVGID_109_" x="-228.6" y="-145.1" width="1500" height="1000"/>
	</defs>
	<clipPath id="SVGID_110_">
		<use xlink:href="#SVGID_109_"  style="overflow:visible;"/>
	</clipPath>
	<g class="st120">
		<text transform="matrix(1 0 0 1 507.3813 183.9021)" class="st32 st26">parameter </text>
	</g>
	<g class="st120">
		<text transform="matrix(1 0 0 1 511.3813 193.9021)" class="st32 st26">attribute</text>
	</g>
	<polyline class="st121" points="475.2,215.8 452.1,131 452,130.6 	"/>
	<polygon class="st122" points="455,130.3 450.6,125.3 449.3,131.8 	"/>
	<rect x="420.2" y="121.2" class="st123" width="59" height="18.5"/>
	<rect x="420.2" y="121.2" class="st124" width="59" height="18.5"/>
</g>
<g>
	<defs>
		<rect id="SVGID_111_" x="422.7" y="126.2" width="54" height="9"/>
	</defs>
	<clipPath id="SVGID_112_">
		<use xlink:href="#SVGID_111_"  style="overflow:visible;"/>
	</clipPath>
	<g class="st125">
		<text transform="matrix(1 0 0 1 430.3813 133.9021)" class="st63 st32 st26">Function</text>
	</g>
</g>
<g>
	<defs>
		<rect id="SVGID_113_" x="-228.6" y="-145.1" width="1500" height="1000"/>
	</defs>
	<clipPath id="SVGID_114_">
		<use xlink:href="#SVGID_113_"  style="overflow:visible;"/>
	</clipPath>
	<rect x="746.4" y="86.6" class="st126" width="194.9" height="119.6"/>
	<rect x="746.4" y="86.6" class="st127" width="194.9" height="119.6"/>
</g>
<g>
	<defs>
		<rect id="SVGID_115_" x="747.4" y="87.6" width="192.9" height="117.6"/>
	</defs>
	<clipPath id="SVGID_116_">
		<use xlink:href="#SVGID_115_"  style="overflow:visible;"/>
	</clipPath>
	<g class="st128">
		<text transform="matrix(1 0 0 1 755.3813 149.9021)" class="st1 st2"> </text>
	</g>
</g>
<g>
	<defs>
		<rect id="SVGID_117_" x="-228.6" y="-145.1" width="1500" height="1000"/>
	</defs>
	<clipPath id="SVGID_118_">
		<use xlink:href="#SVGID_117_"  style="overflow:visible;"/>
	</clipPath>
	<rect x="770.1" y="126.2" class="st129" width="140.5" height="62.9"/>
	<g class="st130">
		<text transform="matrix(1 0 0 1 761.3813 114.9021)" class="st1 st11">LearningMechanism</text>
	</g>
	<g class="st130">
		<text transform="matrix(1 0 0 1 794.3813 158.9021)" class="st1 st10">LearningSignal</text>
	</g>
	<g class="st130">
		<text transform="matrix(1 0 0 1 624.3813 193.9021)" class="st35 st1 st36">LearningProjection</text>
	</g>
	<polyline class="st131" points="723.9,155 628.7,155 628.2,155 	"/>
	<polygon class="st132" points="628.7,152 622.7,155 628.7,158 	"/>
	<g class="st130">
		<text transform="matrix(1 0 0 1 726.3813 156.9021)" class="st63 st25 st26">variable</text>
	</g>
	<path class="st130" d="M920.4,108.7l-6.9,2.3l-6.9-2.3c-0.9,1.1-1.5,2.5-1.8,3.9c3.6,0.4,6.6,1.4,8.6,2.8c2-1.4,5.1-2.5,8.8-2.9
		C921.9,111.2,921.3,109.8,920.4,108.7z M913.5,105.1c0.5,0,1,0.2,1,0.4c0,0.2-0.4,0.4-1,0.4c-0.5,0-1-0.2-1-0.4
		C912.5,105.2,913,105.1,913.5,105.1z M913.5,101l-14.2,4.7l14.2,4.7l10.5-3.5v1.6c-0.2,0.1-0.3,0.3-0.3,0.6c0,0.2,0.1,0.3,0.2,0.4
		c-0.2,0.1-0.3,0.3-0.3,0.5v6.3c0.2,0.1,0.5,0.2,0.8,0.2c0.3,0,0.6-0.1,0.8-0.2v-6.3c0-0.2-0.1-0.4-0.3-0.5c0.1-0.1,0.2-0.3,0.2-0.4
		c0-0.2-0.1-0.4-0.3-0.6v-1.9l3-1L913.5,101z"/>
	<polyline class="st133" points="568.3,155.7 568.8,155.7 648.7,154.5 	"/>
	
		<rect x="563.8" y="153.2" transform="matrix(0.9999 -1.409910e-02 1.409910e-02 0.9999 -2.1389 8.0003)" class="st130" width="5" height="5"/>
	<polygon class="st134" points="617.2,177.3 617.2,199.7 575.2,155.4 617.2,111 617.2,133.5 771.4,133.5 771.4,177.3 	"/>
	<polyline class="st133" points="483.9,130.4 484.4,130.4 510.4,130.3 	"/>
	<rect x="479.4" y="127.9" transform="matrix(1 -2.929675e-03 2.929675e-03 1 -0.38 1.4125)" class="st130" width="5" height="5"/>
	<polyline class="st131" points="723,155.2 629.6,155.2 629.1,155.2 	"/>
	<polygon class="st132" points="629.6,152.2 623.6,155.2 629.6,158.2 	"/>
	<g class="st130">
		<text transform="matrix(1 0 0 1 597.3813 158.9021)" class="st63 st25 st64">value</text>
	</g>
	<g class="st130">
		<text transform="matrix(1 0 0 1 724.3813 157.9021)" class="st63 st25 st64">variable</text>
	</g>
	<rect x="648.9" y="144.6" class="st135" width="60.7" height="19"/>
	<rect x="648.9" y="144.6" class="st136" width="60.7" height="19"/>
</g>
<g>
	<defs>
		<rect id="SVGID_119_" x="651.4" y="149.6" width="55.8" height="9"/>
	</defs>
	<clipPath id="SVGID_120_">
		<use xlink:href="#SVGID_119_"  style="overflow:visible;"/>
	</clipPath>
	<g class="st137">
		<text transform="matrix(1 0 0 1 660.3813 156.9021)" class="st63 st32 st26">Function</text>
	</g>
</g>
<g>
	<defs>
		<rect id="SVGID_121_" x="-228.6" y="-145.1" width="1500" height="1000"/>
	</defs>
	<clipPath id="SVGID_122_">
		<use xlink:href="#SVGID_121_"  style="overflow:visible;"/>
	</clipPath>
	<g style="clip-path:url(#SVGID_122_);">
	</g>
</g>
</svg>
