<?xml version="1.0" encoding="UTF-8" standalone="no"?>
<!-- Created with Inkscape (http://www.inkscape.org/) -->

<svg
   xmlns:dc="http://purl.org/dc/elements/1.1/"
   xmlns:cc="http://creativecommons.org/ns#"
   xmlns:rdf="http://www.w3.org/1999/02/22-rdf-syntax-ns#"
   xmlns:svg="http://www.w3.org/2000/svg"
   xmlns="http://www.w3.org/2000/svg"
   xmlns:sodipodi="http://sodipodi.sourceforge.net/DTD/sodipodi-0.dtd"
   xmlns:inkscape="http://www.inkscape.org/namespaces/inkscape"
   version="1.1"
   id="svg29"
   xml:space="preserve"
   width="776.47125"
   height="768.19708"
   viewBox="0 0 776.47125 768.19708"
   sodipodi:docname="XOR_Model.svg"
   inkscape:version="0.92.4 (5da689c313, 2019-01-14)"><metadata
     id="metadata35"><rdf:RDF><cc:Work
         rdf:about=""><dc:format>image/svg+xml</dc:format><dc:type
           rdf:resource="http://purl.org/dc/dcmitype/StillImage" /><dc:title></dc:title></cc:Work></rdf:RDF></metadata><defs
     id="defs33"><clipPath
       clipPathUnits="userSpaceOnUse"
       id="clipPath47"><path
         d="M 36,584 H 607.145 V 36 H 36 Z"
         id="path45"
         inkscape:connector-curvature="0" /></clipPath><clipPath
       clipPathUnits="userSpaceOnUse"
       id="clipPath53"><path
         d="M 0,0 H 643 V 620 H 0 Z"
         id="path51"
         inkscape:connector-curvature="0" /></clipPath></defs><sodipodi:namedview
     pagecolor="#ffffff"
     bordercolor="#666666"
     borderopacity="1"
     objecttolerance="10"
     gridtolerance="10"
     guidetolerance="10"
     inkscape:pageopacity="0"
     inkscape:pageshadow="2"
     inkscape:window-width="640"
     inkscape:window-height="480"
     id="namedview31"
     showgrid="false"
     inkscape:zoom="1.0440029"
     inkscape:cx="388.23563"
     inkscape:cy="384.09854"
     inkscape:window-x="0"
     inkscape:window-y="0"
     inkscape:window-maximized="0"
     inkscape:current-layer="g37" /><g
     id="g37"
     inkscape:groupmode="layer"
     inkscape:label="XOR_Model"
     transform="matrix(1.3333333,0,0,-1.3333333,-38.978493,809.29)"><g
       id="g39" /><g
       id="g41"><g
         id="g43"
         clip-path="url(#clipPath47)"><g
           id="g49"
           clip-path="url(#clipPath53)"><path
             d="M 36,584 H 607.145 V 36 H 36 Z"
             style="fill:#ffffff;fill-opacity:1;fill-rule:nonzero;stroke:none"
             id="path55"
             inkscape:connector-curvature="0" /><path
             d="m 534.477,58 c 0,-9.941 -14.008,-18 -31.289,-18 -17.282,0 -31.293,8.059 -31.293,18 0,9.941 14.011,18 31.293,18 17.281,0 31.289,-8.059 31.289,-18"
             style="fill:none;stroke:#01ff00;stroke-width:3;stroke-linecap:butt;stroke-linejoin:miter;stroke-miterlimit:10;stroke-dasharray:none;stroke-opacity:1"
             id="path57"
             inkscape:connector-curvature="0" /><text
             transform="matrix(1,0,0,-1,485.6875,54.89844)"
             style="font-variant:normal;font-weight:normal;font-size:12px;font-family:font0000000022eb894e;-inkscape-font-specification:font0000000022eb894e;writing-mode:lr-tb;fill:#000000;fill-opacity:1;fill-rule:nonzero;stroke:none"
             id="text61"><tspan
               x="0 7.3200002 13.992 17.988001 24.66 31.332001"
               y="0"
               sodipodi:role="line"
               id="tspan59">Target</tspan></text>
<path
             d="m 552.68,130 c 0,-9.941 -22.157,-18 -49.492,-18 -27.336,0 -49.497,8.059 -49.497,18 0,9.941 22.161,18 49.497,18 27.335,0 49.492,-8.059 49.492,-18"
             style="fill:none;stroke:#ffa500;stroke-width:1;stroke-linecap:butt;stroke-linejoin:miter;stroke-miterlimit:10;stroke-dasharray:none;stroke-opacity:1"
             id="path63"
             inkscape:connector-curvature="0" /><text
             transform="matrix(1,0,0,-1,471.1875,126.8984)"
             style="font-variant:normal;font-weight:normal;font-size:12px;font-family:font0000000022eb894e;-inkscape-font-specification:font0000000022eb894e;writing-mode:lr-tb;fill:#000000;fill-opacity:1;fill-rule:nonzero;stroke:none"
             id="text67"><tspan
               x="0 8.6639996 15.336 25.332001 32.004002 38.675999 42.672001 49.344002 52.667999 59.34"
               y="0"
               sodipodi:role="line"
               id="tspan65">Comparator</tspan></text>
<path
             d="m 503.188,76.168 c 0,7.699 0,16.859 0,25.414"
             style="fill:none;stroke:#ffa500;stroke-width:1;stroke-linecap:butt;stroke-linejoin:miter;stroke-miterlimit:10;stroke-dasharray:none;stroke-opacity:1"
             id="path69"
             inkscape:connector-curvature="0" /><path
             d="m 499.688,101.586 3.5,10 3.5,-10 z"
             style="fill:#ffa500;fill-opacity:1;fill-rule:nonzero;stroke:#ffa500;stroke-width:1;stroke-linecap:butt;stroke-linejoin:miter;stroke-miterlimit:10;stroke-dasharray:none;stroke-opacity:1"
             id="path71"
             inkscape:connector-curvature="0" /><path
             d="m 139.938,202 c 0,-9.941 -14.665,-18 -32.75,-18 -18.09,0 -32.754,8.059 -32.754,18 0,9.941 14.664,18 32.754,18 18.085,0 32.75,-8.059 32.75,-18"
             style="fill:none;stroke:#01ff00;stroke-width:3;stroke-linecap:butt;stroke-linejoin:miter;stroke-miterlimit:10;stroke-dasharray:none;stroke-opacity:1"
             id="path73"
             inkscape:connector-curvature="0" /><text
             transform="matrix(1,0,0,-1,88.6875,198.8984)"
             style="font-variant:normal;font-weight:normal;font-size:12px;font-family:font0000000022eb894e;-inkscape-font-specification:font0000000022eb894e;writing-mode:lr-tb;fill:#000000;fill-opacity:1;fill-rule:nonzero;stroke:none"
             id="text77"><tspan
               x="0 3.3239999 11.988 19.98 28.643999"
               y="0"
               sodipodi:role="line"
               id="tspan75">INPUT</tspan></text>
<path
             d="m 216.188,364 -112.11,-18 112.11,-18 112.105,18 z"
             style="fill:none;stroke:#000000;stroke-width:1;stroke-linecap:butt;stroke-linejoin:miter;stroke-miterlimit:10;stroke-dasharray:none;stroke-opacity:1"
             id="path79"
             inkscape:connector-curvature="0" /><text
             transform="matrix(1,0,0,-1,159.6875,342.8984)"
             style="font-variant:normal;font-weight:normal;font-size:12px;font-family:font0000000022eb894e;-inkscape-font-specification:font0000000022eb894e;writing-mode:lr-tb;fill:#000000;fill-opacity:1;fill-rule:nonzero;stroke:none"
             id="text83"><tspan
               x="0 3.3239999 11.988 19.98 28.643999 35.964001 42.636002 49.956001 59.279999 65.952003 74.615997 77.940002 86.603996 95.267998 103.26"
               y="0"
               sodipodi:role="line"
               id="tspan81">INPUT_TO_HIDDEN</tspan></text>
<path
             d="M 84.441,215.117 C 70.562,224.523 54.027,238.59 46.188,256 c -6.571,14.59 -9.45,23.086 0,36 14.124,19.309 73.117,34.977 117.679,44.371"
             style="fill:none;stroke:#000000;stroke-width:1;stroke-linecap:butt;stroke-linejoin:miter;stroke-miterlimit:10;stroke-dasharray:none;stroke-opacity:1"
             id="path85"
             inkscape:connector-curvature="0" /><path
             d="m 377.023,274 c 0,-9.941 -72.011,-18 -160.835,-18 -88.829,0 -160.84,8.059 -160.84,18 0,9.941 72.011,18 160.84,18 88.824,0 160.835,-8.059 160.835,-18"
             style="fill:none;stroke:#ffa500;stroke-width:1;stroke-linecap:butt;stroke-linejoin:miter;stroke-miterlimit:10;stroke-dasharray:none;stroke-opacity:1"
             id="path87"
             inkscape:connector-curvature="0" /><text
             transform="matrix(1,0,0,-1,93.6875,270.8984)"
             style="font-variant:normal;font-weight:normal;font-size:12px;font-family:font0000000022eb894e;-inkscape-font-specification:font0000000022eb894e;writing-mode:lr-tb;fill:#000000;fill-opacity:1;fill-rule:nonzero;stroke:none"
             id="text91"><tspan
               x="0 6.6719999 13.344 20.016001 24.011999 30.684 33.348 40.02"
               y="0"
               sodipodi:role="line"
               id="tspan89">Learning</tspan></text>
<text
             transform="matrix(1,0,0,-1,143.7135,270.8984)"
             style="font-variant:normal;font-weight:normal;font-size:12px;font-family:font0000000022eb894e;-inkscape-font-specification:font0000000022eb894e;writing-mode:lr-tb;fill:#000000;fill-opacity:1;fill-rule:nonzero;stroke:none"
             id="text95"><tspan
               x="0 9.9960003 16.667999 22.667999 29.34 36.012001 42.683998 45.348 51.348"
               y="0"
               sodipodi:role="line"
               id="tspan93">Mechanism</tspan></text>
<text
             transform="matrix(1,0,0,-1,208.3915,270.8984)"
             style="font-variant:normal;font-weight:normal;font-size:12px;font-family:font0000000022eb894e;-inkscape-font-specification:font0000000022eb894e;writing-mode:lr-tb;fill:#000000;fill-opacity:1;fill-rule:nonzero;stroke:none"
             id="text99"><tspan
               x="0 3.3239999 9.9960003"
               y="0"
               sodipodi:role="line"
               id="tspan97">for</tspan></text>
<text
             transform="matrix(1,0,0,-1,225.7175,270.8984)"
             style="font-variant:normal;font-weight:normal;font-size:12px;font-family:font0000000022eb894e;-inkscape-font-specification:font0000000022eb894e;writing-mode:lr-tb;fill:#000000;fill-opacity:1;fill-rule:nonzero;stroke:none"
             id="text103"><tspan
               x="0 3.3239999 11.988 19.98 28.643999 35.964001 42.636002 49.956001 59.279999 65.952003 74.615997 77.940002 86.603996 95.267998 103.26"
               y="0"
               sodipodi:role="line"
               id="tspan101">INPUT_TO_HIDDEN</tspan></text>
<path
             d="m 128.203,215.883 c 14.75,9.742 34.844,23.015 52.106,34.418"
             style="fill:none;stroke:#ffa500;stroke-width:1;stroke-linecap:butt;stroke-linejoin:miter;stroke-miterlimit:10;stroke-dasharray:none;stroke-opacity:1"
             id="path105"
             inkscape:connector-curvature="0" /><path
             d="m 178.758,253.473 10.273,2.589 -6.414,-8.429 z"
             style="fill:#ffa500;fill-opacity:1;fill-rule:nonzero;stroke:#ffa500;stroke-width:1;stroke-linecap:butt;stroke-linejoin:miter;stroke-miterlimit:10;stroke-dasharray:none;stroke-opacity:1"
             id="path107"
             inkscape:connector-curvature="0" /><path
             d="m 409.75,418 c 0,-9.941 -17.266,-18 -38.562,-18 -21.301,0 -38.567,8.059 -38.567,18 0,9.941 17.266,18 38.567,18 21.296,0 38.562,-8.059 38.562,-18"
             style="fill:none;stroke:#000000;stroke-width:1;stroke-linecap:butt;stroke-linejoin:miter;stroke-miterlimit:10;stroke-dasharray:none;stroke-opacity:1"
             id="path109"
             inkscape:connector-curvature="0" /><text
             transform="matrix(1,0,0,-1,347.6875,414.8984)"
             style="font-variant:normal;font-weight:normal;font-size:12px;font-family:font0000000022eb894e;-inkscape-font-specification:font0000000022eb894e;writing-mode:lr-tb;fill:#000000;fill-opacity:1;fill-rule:nonzero;stroke:none"
             id="text113"><tspan
               x="0 8.6639996 11.988 20.652 29.316 37.307999"
               y="0"
               sodipodi:role="line"
               id="tspan111">HIDDEN</tspan></text>
<path
             d="M 368.586,399.93 C 364.859,380.023 356.211,348.172 337.188,328 323.543,313.535 305.32,302.684 287.164,294.652"
             style="fill:none;stroke:#ffa500;stroke-width:1;stroke-linecap:butt;stroke-linejoin:miter;stroke-miterlimit:10;stroke-dasharray:none;stroke-opacity:1"
             id="path115"
             inkscape:connector-curvature="0" /><path
             d="m 288.277,291.324 -10.578,-0.621 7.883,7.082 z"
             style="fill:#ffa500;fill-opacity:1;fill-rule:nonzero;stroke:#ffa500;stroke-width:1;stroke-linecap:butt;stroke-linejoin:miter;stroke-miterlimit:10;stroke-dasharray:none;stroke-opacity:1"
             id="path117"
             inkscape:connector-curvature="0" /><path
             d="M 389.188,508 265.445,490 389.188,472 512.93,490 Z"
             style="fill:none;stroke:#000000;stroke-width:1;stroke-linecap:butt;stroke-linejoin:miter;stroke-miterlimit:10;stroke-dasharray:none;stroke-opacity:1"
             id="path119"
             inkscape:connector-curvature="0" /><text
             transform="matrix(1,0,0,-1,326.1875,486.8984)"
             style="font-variant:normal;font-weight:normal;font-size:12px;font-family:font0000000022eb894e;-inkscape-font-specification:font0000000022eb894e;writing-mode:lr-tb;fill:#000000;fill-opacity:1;fill-rule:nonzero;stroke:none"
             id="text123"><tspan
               x="0 8.6639996 11.988 20.652 29.316 37.307999 45.972 52.644001 59.964001 69.288002 75.959999 85.283997 93.947998 101.268 109.26 117.924"
               y="0"
               sodipodi:role="line"
               id="tspan121">HIDDEN_TO_OUTPUT</tspan></text>
<path
             d="m 375.727,436.168 c 2.793,11.164 6.347,25.391 9.105,36.414"
             style="fill:none;stroke:#000000;stroke-width:1;stroke-linecap:butt;stroke-linejoin:miter;stroke-miterlimit:10;stroke-dasharray:none;stroke-opacity:1"
             id="path125"
             inkscape:connector-curvature="0" /><path
             d="m 574.027,202 c 0,-9.941 -75.593,-18 -168.839,-18 -93.25,0 -168.844,8.059 -168.844,18 0,9.941 75.594,18 168.844,18 93.246,0 168.839,-8.059 168.839,-18"
             style="fill:none;stroke:#ffa500;stroke-width:1;stroke-linecap:butt;stroke-linejoin:miter;stroke-miterlimit:10;stroke-dasharray:none;stroke-opacity:1"
             id="path127"
             inkscape:connector-curvature="0" /><text
             transform="matrix(1,0,0,-1,276.1875,198.8984)"
             style="font-variant:normal;font-weight:normal;font-size:12px;font-family:font0000000022eb894e;-inkscape-font-specification:font0000000022eb894e;writing-mode:lr-tb;fill:#000000;fill-opacity:1;fill-rule:nonzero;stroke:none"
             id="text131"><tspan
               x="0 6.6719999 13.344 20.016001 24.011999 30.684 33.348 40.02"
               y="0"
               sodipodi:role="line"
               id="tspan129">Learning</tspan></text>
<text
             transform="matrix(1,0,0,-1,326.2135,198.8984)"
             style="font-variant:normal;font-weight:normal;font-size:12px;font-family:font0000000022eb894e;-inkscape-font-specification:font0000000022eb894e;writing-mode:lr-tb;fill:#000000;fill-opacity:1;fill-rule:nonzero;stroke:none"
             id="text135"><tspan
               x="0 9.9960003 16.667999 22.667999 29.34 36.012001 42.683998 45.348 51.348"
               y="0"
               sodipodi:role="line"
               id="tspan133">Mechanism</tspan></text>
<text
             transform="matrix(1,0,0,-1,390.8915,198.8984)"
             style="font-variant:normal;font-weight:normal;font-size:12px;font-family:font0000000022eb894e;-inkscape-font-specification:font0000000022eb894e;writing-mode:lr-tb;fill:#000000;fill-opacity:1;fill-rule:nonzero;stroke:none"
             id="text139"><tspan
               x="0 3.3239999 9.9960003"
               y="0"
               sodipodi:role="line"
               id="tspan137">for</tspan></text>
<text
             transform="matrix(1,0,0,-1,408.2175,198.8984)"
             style="font-variant:normal;font-weight:normal;font-size:12px;font-family:font0000000022eb894e;-inkscape-font-specification:font0000000022eb894e;writing-mode:lr-tb;fill:#000000;fill-opacity:1;fill-rule:nonzero;stroke:none"
             id="text143"><tspan
               x="0 8.6639996 11.988 20.652 29.316 37.307999 45.972 52.644001 59.964001 69.288002 75.959999 85.283997 93.947998 101.268 109.26 117.924"
               y="0"
               sodipodi:role="line"
               id="tspan141">HIDDEN_TO_OUTPUT</tspan></text>
<path
             d="m 374.043,399.855 c 5.937,-37.73 19.652,-124.863 26.734,-169.851"
             style="fill:none;stroke:#ffa500;stroke-width:1;stroke-linecap:butt;stroke-linejoin:miter;stroke-miterlimit:10;stroke-dasharray:none;stroke-opacity:1"
             id="path145"
             inkscape:connector-curvature="0" /><path
             d="m 404.25,230.469 -1.902,-10.426 -5.016,9.336 z"
             style="fill:#ffa500;fill-opacity:1;fill-rule:nonzero;stroke:#ffa500;stroke-width:1;stroke-linecap:butt;stroke-linejoin:miter;stroke-miterlimit:10;stroke-dasharray:none;stroke-opacity:1"
             id="path147"
             inkscape:connector-curvature="0" /><path
             d="m 245.34,359.543 c 25.262,11.734 61.93,28.766 89.172,41.422"
             style="fill:none;stroke:#000000;stroke-width:1;stroke-linecap:butt;stroke-linejoin:miter;stroke-miterlimit:10;stroke-dasharray:none;stroke-opacity:1"
             id="path149"
             inkscape:connector-curvature="0" /><path
             d="m 333.18,404.203 10.543,1.039 -7.594,-7.387 z"
             style="fill:#000000;fill-opacity:1;fill-rule:nonzero;stroke:#000000;stroke-width:1;stroke-linecap:butt;stroke-linejoin:miter;stroke-miterlimit:10;stroke-dasharray:none;stroke-opacity:1"
             id="path151"
             inkscape:connector-curvature="0" /><path
             d="m 216.188,292.168 c 0,7.699 0,16.859 0,25.414"
             style="fill:none;stroke:#ffa500;stroke-width:1;stroke-linecap:butt;stroke-linejoin:miter;stroke-miterlimit:10;stroke-dasharray:none;stroke-opacity:1"
             id="path153"
             inkscape:connector-curvature="0" /><path
             d="m 212.688,317.586 3.5,10 3.5,-10 z"
             style="fill:#ffa500;fill-opacity:1;fill-rule:nonzero;stroke:#ffa500;stroke-width:1;stroke-linecap:butt;stroke-linejoin:miter;stroke-miterlimit:10;stroke-dasharray:none;stroke-opacity:1"
             id="path155"
             inkscape:connector-curvature="0" /><path
             d="m 581.945,562 c 0,-9.941 -18.25,-18 -40.757,-18 -22.512,0 -40.758,8.059 -40.758,18 0,9.941 18.246,18 40.758,18 22.507,0 40.757,-8.059 40.757,-18"
             style="fill:none;stroke:#ff0000;stroke-width:3;stroke-linecap:butt;stroke-linejoin:miter;stroke-miterlimit:10;stroke-dasharray:none;stroke-opacity:1"
             id="path157"
             inkscape:connector-curvature="0" /><text
             transform="matrix(1,0,0,-1,516.1875,558.8984)"
             style="font-variant:normal;font-weight:normal;font-size:12px;font-family:font0000000022eb894e;-inkscape-font-specification:font0000000022eb894e;writing-mode:lr-tb;fill:#000000;fill-opacity:1;fill-rule:nonzero;stroke:none"
             id="text161"><tspan
               x="0 9.3240004 17.988001 25.308001 33.299999 41.964001"
               y="0"
               sodipodi:role="line"
               id="tspan159">OUTPUT</tspan></text>
<path
             d="m 541.188,543.816 c 0,-27.316 0,-80.566 0,-125.816 0,-72 0,-72 0,-72 0,-54.668 -52.45,-96.969 -92.204,-121.184"
             style="fill:none;stroke:#ffa500;stroke-width:1;stroke-linecap:butt;stroke-linejoin:miter;stroke-miterlimit:10;stroke-dasharray:none;stroke-opacity:1"
             id="path163"
             inkscape:connector-curvature="0" /><path
             d="m 450.602,221.707 -10.391,-2.07 6.828,8.097 z"
             style="fill:#ffa500;fill-opacity:1;fill-rule:nonzero;stroke:#ffa500;stroke-width:1;stroke-linecap:butt;stroke-linejoin:miter;stroke-miterlimit:10;stroke-dasharray:none;stroke-opacity:1"
             id="path165"
             inkscape:connector-curvature="0" /><path
             d="m 553.824,544.816 c 17.867,-26.039 48.364,-77.675 48.364,-126.816 0,-144 0,-144 0,-144 0,-40.883 3.832,-56.09 -19,-90 -9.844,-14.617 -25.102,-26.34 -39.665,-35.078"
             style="fill:none;stroke:#ffa500;stroke-width:1;stroke-linecap:butt;stroke-linejoin:miter;stroke-miterlimit:10;stroke-dasharray:none;stroke-opacity:1"
             id="path167"
             inkscape:connector-curvature="0" /><path
             d="m 545.027,145.75 -10.425,-1.883 6.976,7.977 z"
             style="fill:#ffa500;fill-opacity:1;fill-rule:nonzero;stroke:#ffa500;stroke-width:1;stroke-linecap:butt;stroke-linejoin:miter;stroke-miterlimit:10;stroke-dasharray:none;stroke-opacity:1"
             id="path169"
             inkscape:connector-curvature="0" /><path
             d="m 418.492,503.883 c 24.356,11.535 59.16,28.023 85.481,40.488"
             style="fill:none;stroke:#000000;stroke-width:1;stroke-linecap:butt;stroke-linejoin:miter;stroke-miterlimit:10;stroke-dasharray:none;stroke-opacity:1"
             id="path171"
             inkscape:connector-curvature="0" /><path
             d="m 502.715,547.648 10.535,1.122 -7.539,-7.446 z"
             style="fill:#000000;fill-opacity:1;fill-rule:nonzero;stroke:#000000;stroke-width:1;stroke-linecap:butt;stroke-linejoin:miter;stroke-miterlimit:10;stroke-dasharray:none;stroke-opacity:1"
             id="path173"
             inkscape:connector-curvature="0" /><path
             d="m 359.434,219.43 c -26.485,10.09 -60,22.855 -87.954,33.508"
             style="fill:none;stroke:#ffa500;stroke-width:1;stroke-linecap:butt;stroke-linejoin:miter;stroke-miterlimit:10;stroke-dasharray:none;stroke-opacity:1"
             id="path175"
             inkscape:connector-curvature="0" /><path
             d="m 269.941,249.777 -8.097,6.828 10.59,-0.289 z"
             style="fill:#ffa500;fill-opacity:1;fill-rule:nonzero;stroke:#ffa500;stroke-width:1;stroke-linecap:butt;stroke-linejoin:miter;stroke-miterlimit:10;stroke-dasharray:none;stroke-opacity:1"
             id="path177"
             inkscape:connector-curvature="0" /><path
             d="m 410.055,220.277 c 9.816,39.907 29.394,137.52 9.133,215.723 -2.598,10.016 -7.497,20.152 -12.598,28.898"
             style="fill:none;stroke:#ffa500;stroke-width:1;stroke-linecap:butt;stroke-linejoin:miter;stroke-miterlimit:10;stroke-dasharray:none;stroke-opacity:1"
             id="path179"
             inkscape:connector-curvature="0" /><path
             d="m 403.59,463.098 -2.297,10.343 8.246,-6.656 z"
             style="fill:#ffa500;fill-opacity:1;fill-rule:nonzero;stroke:#ffa500;stroke-width:1;stroke-linecap:butt;stroke-linejoin:miter;stroke-miterlimit:10;stroke-dasharray:none;stroke-opacity:1"
             id="path181"
             inkscape:connector-curvature="0" /><path
             d="m 480.949,146.34 c -12.746,9.363 -28.976,21.289 -43.144,31.695"
             style="fill:none;stroke:#ffa500;stroke-width:1;stroke-linecap:butt;stroke-linejoin:miter;stroke-miterlimit:10;stroke-dasharray:none;stroke-opacity:1"
             id="path183"
             inkscape:connector-curvature="0" /><path
             d="m 435.73,175.215 -5.988,8.742 10.133,-3.098 z"
             style="fill:#ffa500;fill-opacity:1;fill-rule:nonzero;stroke:#ffa500;stroke-width:1;stroke-linecap:butt;stroke-linejoin:miter;stroke-miterlimit:10;stroke-dasharray:none;stroke-opacity:1"
             id="path185"
             inkscape:connector-curvature="0" /></g></g></g></g></svg>