<?xml version="1.0" encoding="UTF-8" standalone="no"?>
<!-- Created with Inkscape (http://www.inkscape.org/) -->

<svg
   xmlns:dc="http://purl.org/dc/elements/1.1/"
   xmlns:cc="http://creativecommons.org/ns#"
   xmlns:rdf="http://www.w3.org/1999/02/22-rdf-syntax-ns#"
   xmlns:svg="http://www.w3.org/2000/svg"
   xmlns="http://www.w3.org/2000/svg"
   xmlns:sodipodi="http://sodipodi.sourceforge.net/DTD/sodipodi-0.dtd"
   xmlns:inkscape="http://www.inkscape.org/namespaces/inkscape"
   version="1.1"
   id="svg29"
   xml:space="preserve"
   width="507.27112"
   height="548.84949"
   viewBox="0 0 507.27112 548.84949"
   sodipodi:docname="BasicsAndSampler_Stroop_Model_control.svg"
   inkscape:version="0.92.4 (5da689c313, 2019-01-14)"><metadata
     id="metadata35"><rdf:RDF><cc:Work
         rdf:about=""><dc:format>image/svg+xml</dc:format><dc:type
           rdf:resource="http://purl.org/dc/dcmitype/StillImage" /><dc:title></dc:title></cc:Work></rdf:RDF></metadata><defs
     id="defs33"><clipPath
       clipPathUnits="userSpaceOnUse"
       id="clipPath47"><path
         d="M 36,440 H 405.656 V 36 H 36 Z"
         id="path45"
         inkscape:connector-curvature="0" /></clipPath><clipPath
       clipPathUnits="userSpaceOnUse"
       id="clipPath53"><path
         d="M 0,0 H 442 V 476 H 0 Z"
         id="path51"
         inkscape:connector-curvature="0" /></clipPath></defs><sodipodi:namedview
     pagecolor="#ffffff"
     bordercolor="#666666"
     borderopacity="1"
     objecttolerance="10"
     gridtolerance="10"
     guidetolerance="10"
     inkscape:pageopacity="0"
     inkscape:pageshadow="2"
     inkscape:window-width="999"
     inkscape:window-height="753"
     id="namedview31"
     showgrid="false"
     inkscape:zoom="1.4612385"
     inkscape:cx="253.63556"
     inkscape:cy="274.42474"
     inkscape:window-x="0"
     inkscape:window-y="0"
     inkscape:window-maximized="0"
     inkscape:current-layer="g37" /><g
     id="g37"
     inkscape:groupmode="layer"
     inkscape:label="BasicsAndSampler_Stroop_Model"
     transform="matrix(1.3333333,0,0,-1.3333333,-43.09208,592.6724)"><g
       id="g39" /><g
       id="g41"><g
         id="g43"
         clip-path="url(#clipPath47)"><g
           id="g49"
           clip-path="url(#clipPath53)"><path
             d="M 36,440 H 405.656 V 36 H 36 Z"
             style="fill:#ffffff;fill-opacity:1;fill-rule:nonzero;stroke:none"
             id="path55"
             inkscape:connector-curvature="0" /><path
             d="m 401.711,58 c 0,-9.941 -24.004,-18 -53.613,-18 -29.61,0 -53.61,8.059 -53.61,18 0,9.941 24,18 53.61,18 29.609,0 53.613,-8.059 53.613,-18"
             style="fill:none;stroke:#01ff00;stroke-width:3;stroke-linecap:butt;stroke-linejoin:miter;stroke-miterlimit:10;stroke-dasharray:none;stroke-opacity:1"
             id="path57"
             inkscape:connector-curvature="0" /><text
             transform="matrix(1,0,0,-1,312.5977,54.89844)"
             style="font-variant:normal;font-weight:normal;font-size:12px;font-family:font0000000022f11111;-inkscape-font-specification:font0000000022f11111;writing-mode:lr-tb;fill:#000000;fill-opacity:1;fill-rule:nonzero;stroke:none"
             id="text61"><tspan
               x="0 7.3200002 15.312 23.304001"
               y="0"
               sodipodi:role="line"
               id="tspan59">TASK</tspan></text>
<text
             transform="matrix(1,0,0,-1,347.2276,54.89844)"
             style="font-variant:normal;font-weight:normal;font-size:12px;font-family:font0000000022f11111;-inkscape-font-specification:font0000000022f11111;writing-mode:lr-tb;fill:#000000;fill-opacity:1;fill-rule:nonzero;stroke:none"
             id="text65"><tspan
               x="0 3.3239999 11.988 19.98 28.643999"
               y="0"
               sodipodi:role="line"
               id="tspan63">INPUT</tspan></text>
<path
             d="m 377.695,130 c 0,-9.941 -13.25,-18 -29.597,-18 -16.344,0 -29.594,8.059 -29.594,18 0,9.941 13.25,18 29.594,18 16.347,0 29.597,-8.059 29.597,-18"
             style="fill:none;stroke:#000000;stroke-width:1;stroke-linecap:butt;stroke-linejoin:miter;stroke-miterlimit:10;stroke-dasharray:none;stroke-opacity:1"
             id="path67"
             inkscape:connector-curvature="0" /><text
             transform="matrix(1,0,0,-1,332.0977,126.8984)"
             style="font-variant:normal;font-weight:normal;font-size:12px;font-family:font0000000022f11111;-inkscape-font-specification:font0000000022f11111;writing-mode:lr-tb;fill:#000000;fill-opacity:1;fill-rule:nonzero;stroke:none"
             id="text71"><tspan
               x="0 7.3200002 15.312 23.304001"
               y="0"
               sodipodi:role="line"
               id="tspan69">TASK</tspan></text>
<path
             d="m 348.098,76.168 c 0,7.699 0,16.859 0,25.414"
             style="fill:none;stroke:#000000;stroke-width:1;stroke-linecap:butt;stroke-linejoin:miter;stroke-miterlimit:10;stroke-dasharray:none;stroke-opacity:1"
             id="path73"
             inkscape:connector-curvature="0" /><path
             d="m 344.598,101.586 3.5,10 3.5,-10 z"
             style="fill:#000000;fill-opacity:1;fill-rule:nonzero;stroke:#000000;stroke-width:1;stroke-linecap:butt;stroke-linejoin:miter;stroke-miterlimit:10;stroke-dasharray:none;stroke-opacity:1"
             id="path75"
             inkscape:connector-curvature="0" /><path
             d="m 300.828,130 c 0,-9.941 -25.844,-18 -57.73,-18 -31.883,0 -57.731,8.059 -57.731,18 0,9.941 25.848,18 57.731,18 31.886,0 57.73,-8.059 57.73,-18"
             style="fill:none;stroke:#01ff00;stroke-width:3;stroke-linecap:butt;stroke-linejoin:miter;stroke-miterlimit:10;stroke-dasharray:none;stroke-opacity:1"
             id="path77"
             inkscape:connector-curvature="0" /><text
             transform="matrix(1,0,0,-1,204.0977,126.8984)"
             style="font-variant:normal;font-weight:normal;font-size:12px;font-family:font0000000022f11111;-inkscape-font-specification:font0000000022f11111;writing-mode:lr-tb;fill:#000000;fill-opacity:1;fill-rule:nonzero;stroke:none"
             id="text81"><tspan
               x="0 11.316 20.639999 29.304001"
               y="0"
               sodipodi:role="line"
               id="tspan79">WORD</tspan></text>
<text
             transform="matrix(1,0,0,-1,245.3996,126.8984)"
             style="font-variant:normal;font-weight:normal;font-size:12px;font-family:font0000000022f11111;-inkscape-font-specification:font0000000022f11111;writing-mode:lr-tb;fill:#000000;fill-opacity:1;fill-rule:nonzero;stroke:none"
             id="text85"><tspan
               x="0 3.3239999 11.988 19.98 28.643999"
               y="0"
               sodipodi:role="line"
               id="tspan83">INPUT</tspan></text>
<path
             d="m 320.141,202 c 0,-9.941 -28.672,-18 -64.043,-18 -35.368,0 -64.039,8.059 -64.039,18 0,9.941 28.671,18 64.039,18 35.371,0 64.043,-8.059 64.043,-18"
             style="fill:none;stroke:#000000;stroke-width:1;stroke-linecap:butt;stroke-linejoin:miter;stroke-miterlimit:10;stroke-dasharray:none;stroke-opacity:1"
             id="path87"
             inkscape:connector-curvature="0" /><text
             transform="matrix(1,0,0,-1,212.0977,198.8984)"
             style="font-variant:normal;font-weight:normal;font-size:12px;font-family:font0000000022f11111;-inkscape-font-specification:font0000000022f11111;writing-mode:lr-tb;fill:#000000;fill-opacity:1;fill-rule:nonzero;stroke:none"
             id="text91"><tspan
               x="0 11.316 20.639999 29.304001"
               y="0"
               sodipodi:role="line"
               id="tspan89">WORD</tspan></text>
<text
             transform="matrix(1,0,0,-1,253.3996,198.8984)"
             style="font-variant:normal;font-weight:normal;font-size:12px;font-family:font0000000022f11111;-inkscape-font-specification:font0000000022f11111;writing-mode:lr-tb;fill:#000000;fill-opacity:1;fill-rule:nonzero;stroke:none"
             id="text95"><tspan
               x="0 8.6639996 11.988 20.652 29.316 37.307999"
               y="0"
               sodipodi:role="line"
               id="tspan93">HIDDEN</tspan></text>
<path
             d="m 246.379,148.168 c 1.391,7.699 3.043,16.859 4.59,25.414"
             style="fill:none;stroke:#000000;stroke-width:1;stroke-linecap:butt;stroke-linejoin:miter;stroke-miterlimit:10;stroke-dasharray:none;stroke-opacity:1"
             id="path97"
             inkscape:connector-curvature="0" /><path
             d="m 247.555,174.367 5.218,9.219 1.668,-10.461 z"
             style="fill:#000000;fill-opacity:1;fill-rule:nonzero;stroke:#000000;stroke-width:1;stroke-linecap:butt;stroke-linejoin:miter;stroke-miterlimit:10;stroke-dasharray:none;stroke-opacity:1"
             id="path99"
             inkscape:connector-curvature="0" /><path
             d="m 166.984,130 c 0,-9.941 -27.257,-18 -60.886,-18 -33.625,0 -60.887,8.059 -60.887,18 0,9.941 27.262,18 60.887,18 33.629,0 60.886,-8.059 60.886,-18"
             style="fill:none;stroke:#01ff00;stroke-width:3;stroke-linecap:butt;stroke-linejoin:miter;stroke-miterlimit:10;stroke-dasharray:none;stroke-opacity:1"
             id="path101"
             inkscape:connector-curvature="0" /><text
             transform="matrix(1,0,0,-1,64.59766,126.8984)"
             style="font-variant:normal;font-weight:normal;font-size:12px;font-family:font0000000022f11111;-inkscape-font-specification:font0000000022f11111;writing-mode:lr-tb;fill:#000000;fill-opacity:1;fill-rule:nonzero;stroke:none"
             id="text105"><tspan
               x="0 8.6639996 17.988001 24.66 33.984001"
               y="0"
               sodipodi:role="line"
               id="tspan103">COLOR</tspan></text>
<text
             transform="matrix(1,0,0,-1,110.5796,126.8984)"
             style="font-variant:normal;font-weight:normal;font-size:12px;font-family:font0000000022f11111;-inkscape-font-specification:font0000000022f11111;writing-mode:lr-tb;fill:#000000;fill-opacity:1;fill-rule:nonzero;stroke:none"
             id="text109"><tspan
               x="0 3.3239999 11.988 19.98 28.643999"
               y="0"
               sodipodi:role="line"
               id="tspan107">INPUT</tspan></text>
<path
             d="m 174.297,202 c 0,-9.941 -30.086,-18 -67.199,-18 -37.11,0 -67.196,8.059 -67.196,18 0,9.941 30.086,18 67.196,18 37.113,0 67.199,-8.059 67.199,-18"
             style="fill:none;stroke:#000000;stroke-width:1;stroke-linecap:butt;stroke-linejoin:miter;stroke-miterlimit:10;stroke-dasharray:none;stroke-opacity:1"
             id="path111"
             inkscape:connector-curvature="0" /><text
             transform="matrix(1,0,0,-1,60.59766,198.8984)"
             style="font-variant:normal;font-weight:normal;font-size:12px;font-family:font0000000022f11111;-inkscape-font-specification:font0000000022f11111;writing-mode:lr-tb;fill:#000000;fill-opacity:1;fill-rule:nonzero;stroke:none"
             id="text115"><tspan
               x="0 8.6639996 17.988001 24.66 33.984001"
               y="0"
               sodipodi:role="line"
               id="tspan113">COLOR</tspan></text>
<text
             transform="matrix(1,0,0,-1,106.5796,198.8984)"
             style="font-variant:normal;font-weight:normal;font-size:12px;font-family:font0000000022f11111;-inkscape-font-specification:font0000000022f11111;writing-mode:lr-tb;fill:#000000;fill-opacity:1;fill-rule:nonzero;stroke:none"
             id="text119"><tspan
               x="0 8.6639996 11.988 20.652 29.316 37.307999"
               y="0"
               sodipodi:role="line"
               id="tspan117">HIDDEN</tspan></text>
<path
             d="m 106.352,148.168 c 0.105,7.699 0.234,16.859 0.351,25.414"
             style="fill:none;stroke:#000000;stroke-width:1;stroke-linecap:butt;stroke-linejoin:miter;stroke-miterlimit:10;stroke-dasharray:none;stroke-opacity:1"
             id="path121"
             inkscape:connector-curvature="0" /><path
             d="m 103.203,173.637 3.641,9.949 3.359,-10.047 z"
             style="fill:#000000;fill-opacity:1;fill-rule:nonzero;stroke:#000000;stroke-width:1;stroke-linecap:butt;stroke-linejoin:miter;stroke-miterlimit:10;stroke-dasharray:none;stroke-opacity:1"
             id="path123"
             inkscape:connector-curvature="0" /><path
             d="m 242.855,274 c 0,-9.941 -18.246,-18 -40.757,-18 -22.508,0 -40.758,8.059 -40.758,18 0,9.941 18.25,18 40.758,18 22.511,0 40.757,-8.059 40.757,-18"
             style="fill:none;stroke:#000000;stroke-width:1;stroke-linecap:butt;stroke-linejoin:miter;stroke-miterlimit:10;stroke-dasharray:none;stroke-opacity:1"
             id="path125"
             inkscape:connector-curvature="0" /><text
             transform="matrix(1,0,0,-1,177.0977,270.8984)"
             style="font-variant:normal;font-weight:normal;font-size:12px;font-family:font0000000022f11111;-inkscape-font-specification:font0000000022f11111;writing-mode:lr-tb;fill:#000000;fill-opacity:1;fill-rule:nonzero;stroke:none"
             id="text129"><tspan
               x="0 9.3240004 17.988001 25.308001 33.299999 41.964001"
               y="0"
               sodipodi:role="line"
               id="tspan127">OUTPUT</tspan></text>
<path
             d="m 129.613,219.062 c 12.996,9.848 29.477,22.344 43.442,32.926"
             style="fill:none;stroke:#000000;stroke-width:1;stroke-linecap:butt;stroke-linejoin:miter;stroke-miterlimit:10;stroke-dasharray:none;stroke-opacity:1"
             id="path131"
             inkscape:connector-curvature="0" /><path
             d="m 171.285,255.039 10.086,3.25 -5.855,-8.828 z"
             style="fill:#000000;fill-opacity:1;fill-rule:nonzero;stroke:#000000;stroke-width:1;stroke-linecap:butt;stroke-linejoin:miter;stroke-miterlimit:10;stroke-dasharray:none;stroke-opacity:1"
             id="path133"
             inkscape:connector-curvature="0" /><path
             d="m 325.074,141.727 c -4.875,2.25 -10.039,4.464 -14.976,6.273 -26.164,9.586 -93.422,26.969 -143.395,39.426"
             style="fill:none;stroke:#000000;stroke-width:1;stroke-linecap:butt;stroke-linejoin:miter;stroke-miterlimit:10;stroke-dasharray:none;stroke-opacity:1"
             id="path135"
             inkscape:connector-curvature="0" /><path
             d="m 165.816,184.039 -8.859,5.809 10.547,0.984 z"
             style="fill:#000000;fill-opacity:1;fill-rule:nonzero;stroke:#000000;stroke-width:1;stroke-linecap:butt;stroke-linejoin:miter;stroke-miterlimit:10;stroke-dasharray:none;stroke-opacity:1"
             id="path137"
             inkscape:connector-curvature="0" /><path
             d="m 369.613,117.453 c 13.34,-3.027 26.035,1.156 26.035,12.547 0,8.453 -6.992,12.938 -16.05,13.449"
             style="fill:none;stroke:#000000;stroke-width:1;stroke-linecap:butt;stroke-linejoin:miter;stroke-miterlimit:10;stroke-dasharray:none;stroke-opacity:1"
             id="path139"
             inkscape:connector-curvature="0" /><path
             d="m 379.891,139.961 -10.278,2.586 9.645,4.387 z"
             style="fill:#000000;fill-opacity:1;fill-rule:nonzero;stroke:#000000;stroke-width:1;stroke-linecap:butt;stroke-linejoin:miter;stroke-miterlimit:10;stroke-dasharray:none;stroke-opacity:1"
             id="path141"
             inkscape:connector-curvature="0" /><path
             d="m 329.922,144.227 c -12.52,9.796 -29.442,23.043 -43.93,34.378"
             style="fill:none;stroke:#000000;stroke-width:1;stroke-linecap:butt;stroke-linejoin:miter;stroke-miterlimit:10;stroke-dasharray:none;stroke-opacity:1"
             id="path143"
             inkscape:connector-curvature="0" /><path
             d="m 283.516,176.098 -5.719,8.922 10.035,-3.407 z"
             style="fill:#000000;fill-opacity:1;fill-rule:nonzero;stroke:#000000;stroke-width:1;stroke-linecap:butt;stroke-linejoin:miter;stroke-miterlimit:10;stroke-dasharray:none;stroke-opacity:1"
             id="path145"
             inkscape:connector-curvature="0" /><path
             d="m 320.438,346 c 0,-9.941 -20.747,-18 -46.34,-18 -25.59,0 -46.336,8.059 -46.336,18 0,9.941 20.746,18 46.336,18 25.593,0 46.34,-8.059 46.34,-18"
             style="fill:none;stroke:#ff0000;stroke-width:3;stroke-linecap:butt;stroke-linejoin:miter;stroke-miterlimit:10;stroke-dasharray:none;stroke-opacity:1"
             id="path147"
             inkscape:connector-curvature="0" /><text
             transform="matrix(1,0,0,-1,244.5977,342.8984)"
             style="font-variant:normal;font-weight:normal;font-size:12px;font-family:font0000000022f11111;-inkscape-font-specification:font0000000022f11111;writing-mode:lr-tb;fill:#000000;fill-opacity:1;fill-rule:nonzero;stroke:none"
             id="text151"><tspan
               x="0 8.6639996 16.656 25.32 28.643999 36.636002 39.959999 49.284"
               y="0"
               sodipodi:role="line"
               id="tspan149">DECISION</tspan></text>
<path
             d="m 218.797,290.699 c 9.226,9.227 20.855,20.856 31.066,31.063"
             style="fill:none;stroke:#000000;stroke-width:1;stroke-linecap:butt;stroke-linejoin:miter;stroke-miterlimit:10;stroke-dasharray:none;stroke-opacity:1"
             id="path153"
             inkscape:connector-curvature="0" /><path
             d="m 247.445,324.297 9.547,4.594 -4.597,-9.547 z"
             style="fill:#000000;fill-opacity:1;fill-rule:nonzero;stroke:#000000;stroke-width:1;stroke-linecap:butt;stroke-linejoin:miter;stroke-miterlimit:10;stroke-dasharray:none;stroke-opacity:1"
             id="path155"
             inkscape:connector-curvature="0" /><path
             d="m 209.715,346 c 0,-9.941 -27.586,-18 -61.617,-18 -34.028,0 -61.618,8.059 -61.618,18 0,9.941 27.59,18 61.618,18 34.031,0 61.617,-8.059 61.617,-18"
             style="fill:none;stroke:#0000ff;stroke-width:1;stroke-linecap:butt;stroke-linejoin:miter;stroke-miterlimit:10;stroke-dasharray:none;stroke-opacity:1"
             id="path157"
             inkscape:connector-curvature="0" /><text
             transform="matrix(1,0,0,-1,106.0977,342.8984)"
             style="font-variant:normal;font-weight:normal;font-size:12px;font-family:font0000000022f11111;-inkscape-font-specification:font0000000022f11111;writing-mode:lr-tb;fill:#000000;fill-opacity:1;fill-rule:nonzero;stroke:none"
             id="text161"><tspan
               x="0 8.6639996 15.336 22.007999 25.332001 27.996 30.66 36.66"
               y="0"
               sodipodi:role="line"
               id="tspan159">Conflict</tspan></text>
<text
             transform="matrix(1,0,0,-1,149.4156,342.8984)"
             style="font-variant:normal;font-weight:normal;font-size:12px;font-family:font0000000022f11111;-inkscape-font-specification:font0000000022f11111;writing-mode:lr-tb;fill:#000000;fill-opacity:1;fill-rule:nonzero;stroke:none"
             id="text165"><tspan
               x="0 9.9960003 16.667999 23.34 26.004 29.327999 36"
               y="0"
               sodipodi:role="line"
               id="tspan163">Monitor</tspan></text>
<path
             d="m 189.027,291.43 c -6.468,8.625 -14.41,19.211 -21.566,28.758"
             style="fill:none;stroke:#0000ff;stroke-width:1;stroke-linecap:butt;stroke-linejoin:miter;stroke-miterlimit:10;stroke-dasharray:none;stroke-opacity:1"
             id="path167"
             inkscape:connector-curvature="0" /><path
             d="m 164.625,318.133 -3.199,10.097 8.801,-5.898 z"
             style="fill:#0000ff;fill-opacity:1;fill-rule:nonzero;stroke:#0000ff;stroke-width:1;stroke-linecap:butt;stroke-linejoin:miter;stroke-miterlimit:10;stroke-dasharray:none;stroke-opacity:1"
             id="path169"
             inkscape:connector-curvature="0" /><path
             d="m 242.75,219.797 c -6.57,8.762 -14.605,19.473 -21.789,29.055"
             style="fill:none;stroke:#000000;stroke-width:1;stroke-linecap:butt;stroke-linejoin:miter;stroke-miterlimit:10;stroke-dasharray:none;stroke-opacity:1"
             id="path171"
             inkscape:connector-curvature="0" /><path
             d="m 218.121,246.805 -3.199,10.097 8.801,-5.898 z"
             style="fill:#000000;fill-opacity:1;fill-rule:nonzero;stroke:#000000;stroke-width:1;stroke-linecap:butt;stroke-linejoin:miter;stroke-miterlimit:10;stroke-dasharray:none;stroke-opacity:1"
             id="path173"
             inkscape:connector-curvature="0" /><path
             d="m 294.438,418 c 0,-9.941 -20.747,-18 -46.34,-18 -25.59,0 -46.336,8.059 -46.336,18 0,9.941 20.746,18 46.336,18 25.593,0 46.34,-8.059 46.34,-18"
             style="fill:none;stroke:#0000ff;stroke-width:1;stroke-linecap:butt;stroke-linejoin:miter;stroke-miterlimit:10;stroke-dasharray:none;stroke-opacity:1"
             id="path175"
             inkscape:connector-curvature="0" /><text
             transform="matrix(1,0,0,-1,218.5977,414.8984)"
             style="font-variant:normal;font-weight:normal;font-size:12px;font-family:font0000000022f11111;-inkscape-font-specification:font0000000022f11111;writing-mode:lr-tb;fill:#000000;fill-opacity:1;fill-rule:nonzero;stroke:none"
             id="text179"><tspan
               x="0 8.6639996 17.988001 26.652 33.972 42.636002 51.959999"
               y="0"
               sodipodi:role="line"
               id="tspan177">CONTROL</tspan></text>
<path
             d="m 280.371,404.984 c 17.508,-8.839 37.758,-22.339 48.727,-40.984 38.55,-65.504 31.019,-159.738 24.09,-206.09"
             style="fill:none;stroke:#0000ff;stroke-width:1;stroke-linecap:butt;stroke-linejoin:miter;stroke-miterlimit:10;stroke-dasharray:none;stroke-opacity:1"
             id="path181"
             inkscape:connector-curvature="0" /><path
             d="m 356.633,157.305 -5.035,-9.321 -1.875,10.426 z"
             style="fill:#0000ff;fill-opacity:1;fill-rule:nonzero;stroke:#0000ff;stroke-width:1;stroke-linecap:butt;stroke-linejoin:miter;stroke-miterlimit:10;stroke-dasharray:none;stroke-opacity:1"
             id="path183"
             inkscape:connector-curvature="0" /><path
             d="m 171.293,362.699 c 13.793,9.934 31.453,22.645 46.359,33.379"
             style="fill:none;stroke:#0000ff;stroke-width:1;stroke-linecap:butt;stroke-linejoin:miter;stroke-miterlimit:10;stroke-dasharray:none;stroke-opacity:1"
             id="path185"
             inkscape:connector-curvature="0" /><path
             d="m 215.898,399.129 10.164,3.004 -6.07,-8.684 z"
             style="fill:#0000ff;fill-opacity:1;fill-rule:nonzero;stroke:#0000ff;stroke-width:1;stroke-linecap:butt;stroke-linejoin:miter;stroke-miterlimit:10;stroke-dasharray:none;stroke-opacity:1"
             id="path187"
             inkscape:connector-curvature="0" /></g></g></g></g></svg>