<?xml version="1.0" encoding="utf-8"?>
<!-- Generator: Adobe Illustrator 25.3.1, SVG Export Plug-In . SVG Version: 6.00 Build 0)  -->
<svg version="1.1" id="Layer_1" xmlns="http://www.w3.org/2000/svg" xmlns:xlink="http://www.w3.org/1999/xlink" x="0px" y="0px"
	 viewBox="0 0 518 440" style="enable-background:new 0 0 518 440;" xml:space="preserve">
<style type="text/css">
	.st0{clip-path:url(#SVGID_2_);fill:#FFFFFF;}
	.st1{clip-path:url(#SVGID_2_);fill:#E2D9BD;}
	.st2{clip-path:url(#SVGID_2_);fill:none;stroke:#000000;stroke-width:0.25;}
	.st3{clip-path:url(#SVGID_2_);fill:#E1D9BE;}
	.st4{clip-path:url(#SVGID_4_);}
	.st5{fill:#3B3932;}
	.st6{font-family:'Helvetica-Bold';}
	.st7{font-size:9px;}
	.st8{clip-path:url(#SVGID_6_);fill:none;stroke:#53585F;stroke-width:0.25;}
	.st9{opacity:0.5;clip-path:url(#SVGID_8_);enable-background:new    ;}
	.st10{clip-path:url(#SVGID_10_);}
	.st11{clip-path:url(#SVGID_12_);fill:#E2D9BD;}
	.st12{clip-path:url(#SVGID_12_);fill:none;stroke:#000000;stroke-width:0.25;}
	.st13{clip-path:url(#SVGID_8_);fill:#E2D9BD;}
	.st14{clip-path:url(#SVGID_8_);fill:none;stroke:#000000;stroke-width:0.25;}
	.st15{clip-path:url(#SVGID_8_);fill:#FDFDC5;}
	.st16{clip-path:url(#SVGID_14_);}
	.st17{fill:#002452;}
	.st18{font-family:'Helvetica-Light';}
	.st19{font-size:6px;}
	.st20{opacity:0.6636;clip-path:url(#SVGID_16_);enable-background:new    ;}
	.st21{clip-path:url(#SVGID_18_);}
	.st22{clip-path:url(#SVGID_20_);fill:#D3C59B;}
	.st23{clip-path:url(#SVGID_20_);fill:none;stroke:#DCDEE0;stroke-width:0.25;stroke-linejoin:round;}
	.st24{opacity:0.6636;clip-path:url(#SVGID_22_);enable-background:new    ;}
	.st25{clip-path:url(#SVGID_24_);}
	.st26{clip-path:url(#SVGID_26_);fill:#D3C59B;}
	.st27{clip-path:url(#SVGID_26_);fill:none;stroke:#DCDEE0;stroke-width:0.25;stroke-linejoin:round;}
	.st28{clip-path:url(#SVGID_22_);fill:#E2D9BD;}
	.st29{clip-path:url(#SVGID_22_);fill:none;stroke:#000000;stroke-width:0.25;}
	.st30{clip-path:url(#SVGID_22_);}
	.st31{font-size:7px;}
	.st32{clip-path:url(#SVGID_22_);fill:#FDFDC5;}
	.st33{clip-path:url(#SVGID_28_);}
	.st34{clip-path:url(#SVGID_30_);fill:#FDFDC5;}
	.st35{clip-path:url(#SVGID_30_);fill:none;stroke:#000000;stroke-width:0.25;}
	.st36{clip-path:url(#SVGID_32_);}
	.st37{clip-path:url(#SVGID_34_);fill:none;stroke:#EA6B21;}
	.st38{clip-path:url(#SVGID_34_);fill:#EA6B21;}
	.st39{clip-path:url(#SVGID_34_);fill:#E2D9BD;}
	.st40{clip-path:url(#SVGID_34_);fill:none;stroke:#000000;stroke-width:0.25;}
	.st41{clip-path:url(#SVGID_34_);fill:#FDFDC5;}
	.st42{clip-path:url(#SVGID_36_);}
	.st43{font-size:5px;}
	.st44{clip-path:url(#SVGID_38_);fill:none;stroke:#EA6B21;stroke-width:3;}
	.st45{clip-path:url(#SVGID_38_);fill:#EA6B21;}
	.st46{clip-path:url(#SVGID_38_);}
	.st47{clip-path:url(#SVGID_38_);fill:#FDFDC5;}
	.st48{clip-path:url(#SVGID_38_);fill:none;stroke:#000000;stroke-width:0.25;}
	.st49{clip-path:url(#SVGID_40_);}
	.st50{clip-path:url(#SVGID_42_);}
	.st51{clip-path:url(#SVGID_42_);fill:none;stroke:#EA6B21;stroke-width:3;}
	.st52{clip-path:url(#SVGID_42_);fill:#EA6B21;}
	.st53{clip-path:url(#SVGID_42_);fill:#E2D9BD;}
	.st54{clip-path:url(#SVGID_42_);fill:none;stroke:#000000;stroke-width:0.25;}
	.st55{clip-path:url(#SVGID_42_);fill:#FDFDC5;}
	.st56{clip-path:url(#SVGID_44_);}
	.st57{clip-path:url(#SVGID_46_);fill:none;stroke:#70BF41;stroke-width:3;}
	.st58{clip-path:url(#SVGID_46_);fill:#70BF41;}
	.st59{clip-path:url(#SVGID_46_);fill:none;stroke:#EA6B21;stroke-width:3;}
	.st60{clip-path:url(#SVGID_46_);fill:#EA6B21;}
	.st61{clip-path:url(#SVGID_46_);}
	.st62{clip-path:url(#SVGID_46_);fill:#FDFDC5;}
	.st63{clip-path:url(#SVGID_46_);fill:none;stroke:#000000;stroke-width:0.25;}
	.st64{clip-path:url(#SVGID_48_);}
	.st65{clip-path:url(#SVGID_50_);fill:none;stroke:#0365C0;stroke-width:3;}
	.st66{clip-path:url(#SVGID_50_);fill:#0365C0;}
	.st67{clip-path:url(#SVGID_50_);fill:none;stroke:#EA6B21;stroke-width:3;}
	.st68{clip-path:url(#SVGID_50_);fill:#EA6B21;}
	.st69{clip-path:url(#SVGID_50_);fill:#E2D9BD;}
	.st70{clip-path:url(#SVGID_50_);fill:none;stroke:#000000;stroke-width:0.25;}
	.st71{clip-path:url(#SVGID_50_);}
	.st72{clip-path:url(#SVGID_50_);fill:#FDFDC5;}
	.st73{clip-path:url(#SVGID_52_);}
	.st74{clip-path:url(#SVGID_54_);fill:none;stroke:#C3971A;stroke-width:3;}
	.st75{clip-path:url(#SVGID_54_);fill:#C3971A;}
	.st76{clip-path:url(#SVGID_54_);fill:none;stroke:#0365C0;stroke-width:3;}
	.st77{clip-path:url(#SVGID_54_);fill:#0365C0;}
	.st78{opacity:0.5;clip-path:url(#SVGID_56_);enable-background:new    ;}
	.st79{clip-path:url(#SVGID_58_);}
	.st80{clip-path:url(#SVGID_60_);}
	.st81{opacity:0.5;clip-path:url(#SVGID_62_);enable-background:new    ;}
	.st82{clip-path:url(#SVGID_64_);}
	.st83{clip-path:url(#SVGID_66_);}
	.st84{font-size:8px;}
	.st85{opacity:0.5;clip-path:url(#SVGID_68_);enable-background:new    ;}
	.st86{clip-path:url(#SVGID_70_);}
	.st87{clip-path:url(#SVGID_72_);fill:#E2D9BD;}
	.st88{clip-path:url(#SVGID_72_);fill:none;stroke:#000000;stroke-width:0.25;}
	.st89{opacity:0.5231;clip-path:url(#SVGID_74_);enable-background:new    ;}
	.st90{clip-path:url(#SVGID_76_);}
	.st91{clip-path:url(#SVGID_78_);}
	.st92{opacity:0.5231;clip-path:url(#SVGID_80_);enable-background:new    ;}
	.st93{clip-path:url(#SVGID_82_);}
	.st94{clip-path:url(#SVGID_84_);}
	.st95{opacity:0.5;clip-path:url(#SVGID_86_);enable-background:new    ;}
	.st96{clip-path:url(#SVGID_88_);}
	.st97{clip-path:url(#SVGID_90_);fill:none;stroke:#EA6B21;stroke-width:3;}
	.st98{clip-path:url(#SVGID_90_);fill:#EA6B21;}
	.st99{opacity:0.5;clip-path:url(#SVGID_92_);enable-background:new    ;}
	.st100{clip-path:url(#SVGID_94_);}
	.st101{clip-path:url(#SVGID_96_);fill:none;stroke:#EA6B21;stroke-width:3;}
	.st102{clip-path:url(#SVGID_96_);fill:#EA6B21;}
	.st103{opacity:0.5;clip-path:url(#SVGID_98_);enable-background:new    ;}
	.st104{clip-path:url(#SVGID_100_);}
	.st105{clip-path:url(#SVGID_102_);fill:none;stroke:#EA6B21;stroke-width:3;}
	.st106{clip-path:url(#SVGID_102_);fill:#EA6B21;}
	.st107{opacity:0.5;clip-path:url(#SVGID_104_);enable-background:new    ;}
	.st108{clip-path:url(#SVGID_106_);}
	.st109{clip-path:url(#SVGID_108_);}
	.st110{opacity:0.5;clip-path:url(#SVGID_110_);enable-background:new    ;}
	.st111{clip-path:url(#SVGID_112_);}
	.st112{clip-path:url(#SVGID_114_);fill:none;stroke:#EA6B21;stroke-width:3;}
	.st113{clip-path:url(#SVGID_114_);fill:#EA6B21;}
	.st114{opacity:0.5;clip-path:url(#SVGID_116_);enable-background:new    ;}
	.st115{clip-path:url(#SVGID_118_);}
	.st116{clip-path:url(#SVGID_120_);fill:none;stroke:#EA6B21;stroke-width:3;}
	.st117{clip-path:url(#SVGID_120_);fill:#EA6B21;}
	.st118{clip-path:url(#SVGID_116_);}
	.st119{font-size:20px;}
</style>
<g>
	<defs>
		<rect id="SVGID_1_" x="-143" y="-168" width="810" height="700"/>
	</defs>
	<clipPath id="SVGID_2_">
		<use xlink:href="#SVGID_1_"  style="overflow:visible;"/>
	</clipPath>
	<rect x="-143" y="-168" class="st0" width="810" height="700"/>
	<path class="st1" d="M189.4,291c-12.5-1.7-23.8,6.6-31.5,17c-8.5,11.5-13.7,25.9-15.3,40.8c-2.8,26.7,11.4,52,33.6,48.9
		c4.3-0.6,8.3-2.6,11.9-5c16.7-11.4,24.5-31.3,27-51.4C218,318.1,210.3,293.7,189.4,291z"/>
	<path class="st2" d="M189.4,291c-12.5-1.7-23.8,6.6-31.5,17c-8.5,11.5-13.7,25.9-15.3,40.8c-2.8,26.7,11.4,52,33.6,48.9
		c4.3-0.6,8.3-2.6,11.9-5c16.7-11.4,24.5-31.3,27-51.4C218,318.1,210.3,293.7,189.4,291z"/>
	<rect x="156" y="312" class="st3" width="51" height="30"/>
</g>
<g>
	<defs>
		<rect id="SVGID_3_" x="156" y="312" width="52.9" height="30"/>
	</defs>
	<clipPath id="SVGID_4_">
		<use xlink:href="#SVGID_3_"  style="overflow:visible;"/>
	</clipPath>
	<g class="st4">
		<text transform="matrix(1 0 0 1 165 325)" class="st5 st6 st7">Pytorch</text>
	</g>
	<g class="st4">
		<text transform="matrix(1 0 0 1 167 336)" class="st5 st6 st7">Object</text>
	</g>
</g>
<g>
	<defs>
		<rect id="SVGID_5_" x="-143" y="-168" width="810" height="700"/>
	</defs>
	<clipPath id="SVGID_6_">
		<use xlink:href="#SVGID_5_"  style="overflow:visible;"/>
	</clipPath>
	<path class="st8" d="M9.9,244.5C-2.4,125.7,88.5,30.3,205.7,11.8c32.8-5.2,67.5-4.4,101.8,1.5c73.6,12.7,145.1,50.2,178.2,118.8
		c78.7,163.2-83.8,329.1-279.5,296.6C108.4,412.4,20.5,346.1,9.9,244.5z"/>
</g>
<g>
	<defs>
		<rect id="SVGID_7_" x="-143" y="-168" width="810" height="700"/>
	</defs>
	<clipPath id="SVGID_8_">
		<use xlink:href="#SVGID_7_"  style="overflow:visible;"/>
	</clipPath>
	<g class="st9">
		<g>
			<defs>
				<rect id="SVGID_9_" x="46" y="223" width="106" height="92"/>
			</defs>
			<clipPath id="SVGID_10_">
				<use xlink:href="#SVGID_9_"  style="overflow:visible;"/>
			</clipPath>
			<g class="st10">
				<defs>
					<rect id="SVGID_11_" x="46" y="223" width="106" height="92"/>
				</defs>
				<clipPath id="SVGID_12_">
					<use xlink:href="#SVGID_11_"  style="overflow:visible;"/>
				</clipPath>
				<path class="st11" d="M136.2,231.8c-9.1-8.9-23.3-9-35.9-5.3c-13.8,4.1-26.8,12.6-37.2,23.6c-18.5,19.8-22.4,48.8-2.5,59.8
					c3.9,2.1,8.3,3,12.7,3.2c20.5,0.9,38.9-10.4,53.1-25.1C142.9,270.9,151.5,246.6,136.2,231.8z"/>
				<path class="st12" d="M136.2,231.8c-9.1-8.9-23.3-9-35.9-5.3c-13.8,4.1-26.8,12.6-37.2,23.6c-18.5,19.8-22.4,48.8-2.5,59.8
					c3.9,2.1,8.3,3,12.7,3.2c20.5,0.9,38.9-10.4,53.1-25.1C142.9,270.9,151.5,246.6,136.2,231.8z"/>
			</g>
		</g>
	</g>
	<path class="st13" d="M214.2,70.8c19.7-13.2,49.2-11.8,68.8-2.4c16,7.6,24.3,20.4,14.9,33.1c-11.9,16.2-42,18.8-65.7,12.1
		C204.2,105.8,190.4,86.7,214.2,70.8z"/>
	<path class="st14" d="M214.2,70.8c19.7-13.2,49.2-11.8,68.8-2.4c16,7.6,24.3,20.4,14.9,33.1c-11.9,16.2-42,18.8-65.7,12.1
		C204.2,105.8,190.4,86.7,214.2,70.8z"/>
	<path class="st13" d="M246,257.4c13-12.5,32.6-12.5,50.3-7.6c20,5.4,39.3,16.4,56.8,29.5c35.6,26.5,52.6,70.4,24.5,92
		c-6.9,5.2-14.8,7.1-23.3,7.4c-24.3,1-49.7-9.3-71.6-23.4C242.4,329.2,218.1,284.4,246,257.4z"/>
	<path class="st14" d="M246,257.4c13-12.5,32.6-12.5,50.3-7.6c20,5.4,39.3,16.4,56.8,29.5c35.6,26.5,52.6,70.4,24.5,92
		c-6.9,5.2-14.8,7.1-23.3,7.4c-24.3,1-49.7-9.3-71.6-23.4C242.4,329.2,218.1,284.4,246,257.4z"/>
	<ellipse class="st15" cx="357.8" cy="351.1" rx="22.2" ry="18.6"/>
	<ellipse class="st14" cx="357.8" cy="351.1" rx="22.2" ry="18.6"/>
</g>
<g>
	<defs>
		<rect id="SVGID_13_" x="335.5" y="332.5" width="44.5" height="37.2"/>
	</defs>
	<clipPath id="SVGID_14_">
		<use xlink:href="#SVGID_13_"  style="overflow:visible;"/>
	</clipPath>
	<g class="st16">
		<text transform="matrix(1 0 0 1 347 350)"><tspan x="0" y="0" class="st17 st18 st19">T</tspan><tspan x="2.8" y="0" class="st17 st18 st19">ransfer</tspan></text>
	</g>
	<g class="st16">
		<text transform="matrix(1 0 0 1 342 357)" class="st17 st18 st19">Mechanism</text>
	</g>
</g>
<g>
	<defs>
		<rect id="SVGID_15_" x="-143" y="-168" width="810" height="700"/>
	</defs>
	<clipPath id="SVGID_16_">
		<use xlink:href="#SVGID_15_"  style="overflow:visible;"/>
	</clipPath>
	<g class="st20">
		<g>
			<defs>
				<rect id="SVGID_17_" x="356" y="317" width="8" height="7"/>
			</defs>
			<clipPath id="SVGID_18_">
				<use xlink:href="#SVGID_17_"  style="overflow:visible;"/>
			</clipPath>
			<g class="st21">
				<defs>
					<rect id="SVGID_19_" x="356" y="317" width="8" height="7"/>
				</defs>
				<clipPath id="SVGID_20_">
					<use xlink:href="#SVGID_19_"  style="overflow:visible;"/>
				</clipPath>
				<rect x="357.1" y="318.1" class="st22" width="5.7" height="4.7"/>
				<rect x="357.1" y="318.1" class="st23" width="5.7" height="4.7"/>
			</g>
		</g>
	</g>
</g>
<g>
	<defs>
		<rect id="SVGID_21_" x="-143" y="-168" width="810" height="700"/>
	</defs>
	<clipPath id="SVGID_22_">
		<use xlink:href="#SVGID_21_"  style="overflow:visible;"/>
	</clipPath>
	<g class="st24">
		<g>
			<defs>
				<rect id="SVGID_23_" x="320" y="273" width="7" height="6"/>
			</defs>
			<clipPath id="SVGID_24_">
				<use xlink:href="#SVGID_23_"  style="overflow:visible;"/>
			</clipPath>
			<g class="st25">
				<defs>
					<rect id="SVGID_25_" x="320" y="273" width="7" height="6"/>
				</defs>
				<clipPath id="SVGID_26_">
					<use xlink:href="#SVGID_25_"  style="overflow:visible;"/>
				</clipPath>
				<rect x="320.6" y="273.8" class="st26" width="5.7" height="4.7"/>
				<rect x="320.6" y="273.8" class="st27" width="5.7" height="4.7"/>
			</g>
		</g>
	</g>
	<path class="st28" d="M177.8,172.5c19.8-14.4,50.1-10.3,69.8,2c14.9,9.3,22,22,12,34.2c-12.1,14.8-40.4,17-62.3,10.6
		c-23.4-6.8-39-22.4-26.8-39.7C172.4,177,174.8,174.7,177.8,172.5z"/>
	<path class="st29" d="M177.8,172.5c19.8-14.4,50.1-10.3,69.8,2c14.9,9.3,22,22,12,34.2c-12.1,14.8-40.4,17-62.3,10.6
		c-23.4-6.8-39-22.4-26.8-39.7C172.4,177,174.8,174.7,177.8,172.5z"/>
	<g class="st30">
		<text transform="matrix(1 0 0 1 256.475 311.9973)" class="st6 st31">Feedforward</text>
	</g>
	<g class="st30">
		<text transform="matrix(1 0 0 1 264.1246 320.7159)" class="st6 st31">Multilayered</text>
	</g>
	<g class="st30">
		<text transform="matrix(1 0 0 1 273.7959 329.3223)" class="st6 st31">Neural </text>
	</g>
	<g class="st30">
		<text transform="matrix(1 0 0 1 282.875 337.9346)" class="st6 st31">Network</text>
	</g>
	<g class="st30">
		<text transform="matrix(1 0 0 1 290.0519 346)" class="st6 st31">Pathway</text>
	</g>
	<ellipse class="st32" cx="333.4" cy="300.3" rx="22.2" ry="18.6"/>
	<ellipse class="st29" cx="333.4" cy="300.3" rx="22.2" ry="18.6"/>
</g>
<g>
	<defs>
		<rect id="SVGID_27_" x="311.1" y="281.7" width="44.5" height="37.2"/>
	</defs>
	<clipPath id="SVGID_28_">
		<use xlink:href="#SVGID_27_"  style="overflow:visible;"/>
	</clipPath>
	<g class="st33">
		<text transform="matrix(1 0 0 1 323 299)"><tspan x="0" y="0" class="st17 st18 st19">T</tspan><tspan x="2.8" y="0" class="st17 st18 st19">ransfer</tspan></text>
	</g>
	<g class="st33">
		<text transform="matrix(1 0 0 1 318 306)" class="st17 st18 st19">Mechanism</text>
	</g>
</g>
<g>
	<defs>
		<rect id="SVGID_29_" x="-143" y="-168" width="810" height="700"/>
	</defs>
	<clipPath id="SVGID_30_">
		<use xlink:href="#SVGID_29_"  style="overflow:visible;"/>
	</clipPath>
	<ellipse class="st34" cx="276.9" cy="269.6" rx="26.3" ry="16.1"/>
	<ellipse class="st35" cx="276.9" cy="269.6" rx="26.3" ry="16.1"/>
</g>
<g>
	<defs>
		<rect id="SVGID_31_" x="250.5" y="253.5" width="52.7" height="32.3"/>
	</defs>
	<clipPath id="SVGID_32_">
		<use xlink:href="#SVGID_31_"  style="overflow:visible;"/>
	</clipPath>
	<g class="st36">
		<text transform="matrix(1 0 0 1 266 268)"><tspan x="0" y="0" class="st17 st18 st19">T</tspan><tspan x="2.8" y="0" class="st17 st18 st19">ransfer</tspan></text>
	</g>
	<g class="st36">
		<text transform="matrix(1 0 0 1 261 275)" class="st17 st18 st19">Mechanism</text>
	</g>
</g>
<g>
	<defs>
		<rect id="SVGID_33_" x="-143" y="-168" width="810" height="700"/>
	</defs>
	<clipPath id="SVGID_34_">
		<use xlink:href="#SVGID_33_"  style="overflow:visible;"/>
	</clipPath>
	<path class="st37" d="M350.3,333.5c-1.7-3.7-3.3-7.3-5-10.8l-0.2-0.4"/>
	<polygon class="st38" points="347.9,321.4 342.6,317.3 342.6,324 	"/>
	<path class="st37" d="M315.3,289.3c-4-2.3-8.1-4.6-12.3-6.8l-0.4-0.2"/>
	<polygon class="st38" points="304.3,279.8 297.6,279.7 301.6,285.2 	"/>
	<path class="st39" d="M322.5,126.4c17.1-19.7,45.1-17.3,60.8,0.9c11.3,13.1,13,32.5,1.7,46.7c-6.9,8.7-16.3,12.2-25.8,13.2
		c-9.2,0.9-19-0.5-27.7-5.6C312.4,170.1,306.2,145.1,322.5,126.4z"/>
	<path class="st40" d="M322.5,126.4c17.1-19.7,45.1-17.3,60.8,0.9c11.3,13.1,13,32.5,1.7,46.7c-6.9,8.7-16.3,12.2-25.8,13.2
		c-9.2,0.9-19-0.5-27.7-5.6C312.4,170.1,306.2,145.1,322.5,126.4z"/>
	<ellipse class="st41" cx="353.7" cy="163.6" rx="28.9" ry="14.4"/>
	<ellipse class="st40" cx="353.7" cy="163.6" rx="28.9" ry="14.4"/>
</g>
<g>
	<defs>
		<rect id="SVGID_35_" x="324.8" y="149.2" width="58.4" height="28.7"/>
	</defs>
	<clipPath id="SVGID_36_">
		<use xlink:href="#SVGID_35_"  style="overflow:visible;"/>
	</clipPath>
	<g class="st42">
		<text transform="matrix(1 0 0 1 334 163)"><tspan x="0" y="0" class="st17 st18 st43">Recur</tspan><tspan x="13.3" y="0" class="st17 st18 st43">r</tspan><tspan x="14.9" y="0" class="st17 st18 st43">ent</tspan><tspan x="21.9" y="0" class="st17 st18 st43">T</tspan><tspan x="24.2" y="0" class="st17 st18 st43">ransfer</tspan></text>
	</g>
	<g class="st42">
		<text transform="matrix(1 0 0 1 341 169)" class="st17 st18 st43">Mechanism</text>
	</g>
</g>
<g>
	<defs>
		<rect id="SVGID_37_" x="-143" y="-168" width="810" height="700"/>
	</defs>
	<clipPath id="SVGID_38_">
		<use xlink:href="#SVGID_37_"  style="overflow:visible;"/>
	</clipPath>
	<path class="st44" d="M317.7,186l-0.9,1.2c-9.6,15.1-15.2,31.9-16.7,50.2l0,1.5"/>
	<polygon class="st45" points="293.5,237.2 299.7,250.6 306.7,237.6 	"/>
	<polygon class="st45" points="322.2,191 324.6,176.5 311.5,183.3 	"/>
	<g class="st46">
		<text transform="matrix(1 0 0 1 324 142)"><tspan x="0" y="0" class="st6 st31">W</tspan><tspan x="6.5" y="0" class="st6 st31">orking Memory</tspan></text>
	</g>
	<ellipse class="st47" cx="217.6" cy="199.4" rx="36" ry="14.4"/>
	<ellipse class="st48" cx="217.6" cy="199.4" rx="36" ry="14.4"/>
</g>
<g>
	<defs>
		<rect id="SVGID_39_" x="181.6" y="185.1" width="72.1" height="28.7"/>
	</defs>
	<clipPath id="SVGID_40_">
		<use xlink:href="#SVGID_39_"  style="overflow:visible;"/>
	</clipPath>
	<g class="st49">
		<text transform="matrix(1 0 0 1 200 198)"><tspan x="0" y="0" class="st17 st18 st19">Drift Di</tspan><tspan x="18.3" y="0" class="st17 st18 st19">f</tspan><tspan x="19.9" y="0" class="st17 st18 st19">fusion</tspan></text>
	</g>
	<g class="st49">
		<text transform="matrix(1 0 0 1 202 205)" class="st17 st18 st19">Mechanism</text>
	</g>
</g>
<g>
	<defs>
		<rect id="SVGID_41_" x="-143" y="-168" width="810" height="700"/>
	</defs>
	<clipPath id="SVGID_42_">
		<use xlink:href="#SVGID_41_"  style="overflow:visible;"/>
	</clipPath>
	<g class="st50">
		<text transform="matrix(1 0 0 1 201 181)" class="st6 st31">Decision</text>
	</g>
	<polyline class="st51" points="260.6,248.7 246.4,231.3 245.5,230.1 	"/>
	<polygon class="st52" points="251.5,227.1 238.1,221.1 241.3,235.5 	"/>
	<path class="st53" d="M405.3,241.2c16.4-12.6,38.9-8.2,53.8,3.8c12.5,10.1,18.7,25.6,9.4,38.7c-5.4,7.6-13.6,11-22.4,12.1
		c-9.5,1.2-20.2-0.3-29.6-4.6C394,280.6,385,256.8,405.3,241.2z"/>
	<path class="st54" d="M405.3,241.2c16.4-12.6,38.9-8.2,53.8,3.8c12.5,10.1,18.7,25.6,9.4,38.7c-5.4,7.6-13.6,11-22.4,12.1
		c-9.5,1.2-20.2-0.3-29.6-4.6C394,280.6,385,256.8,405.3,241.2z"/>
	<g class="st50">
		<text transform="matrix(1 0 0 1 416 250)" class="st6 st31">Learning</text>
	</g>
	<ellipse class="st55" cx="432.5" cy="271.4" rx="26.3" ry="13"/>
	<ellipse class="st54" cx="432.5" cy="271.4" rx="26.3" ry="13"/>
</g>
<g>
	<defs>
		<rect id="SVGID_43_" x="406.2" y="258.5" width="52.7" height="25.9"/>
	</defs>
	<clipPath id="SVGID_44_">
		<use xlink:href="#SVGID_43_"  style="overflow:visible;"/>
	</clipPath>
	<g class="st56">
		<text transform="matrix(1 0 0 1 421 270)"><tspan x="0" y="0" class="st17 st18 st19">Lea</tspan><tspan x="10" y="0" class="st17 st18 st19">r</tspan><tspan x="12.1" y="0" class="st17 st18 st19">ning </tspan></text>
	</g>
	<g class="st56">
		<text transform="matrix(1 0 0 1 417 277)" class="st17 st18 st19">Mechanism</text>
	</g>
</g>
<g>
	<defs>
		<rect id="SVGID_45_" x="-143" y="-168" width="810" height="700"/>
	</defs>
	<clipPath id="SVGID_46_">
		<use xlink:href="#SVGID_45_"  style="overflow:visible;"/>
	</clipPath>
	<path class="st57" d="M402.5,281.2c-6.3,2.8-13,5.6-20.1,8.5l-1.4,0.5"/>
	<polygon class="st58" points="380,283.5 370,294.4 384.6,295.9 	"/>
	<path class="st59" d="M383.8,272.3l-1.5,0.4c-8.6,2.6-16.9,5.9-25,9.8"/>
	<polygon class="st60" points="384,279.1 395.1,269.3 380.7,266.3 	"/>
	<g class="st61">
		<text transform="matrix(1 0 0 1 222 77)" class="st6 st31">Cognitive Control</text>
	</g>
	<ellipse class="st62" cx="251.3" cy="94.5" rx="28.5" ry="13.2"/>
	<ellipse class="st63" cx="251.3" cy="94.5" rx="28.5" ry="13.2"/>
</g>
<g>
	<defs>
		<rect id="SVGID_47_" x="222.8" y="81.3" width="57" height="26.5"/>
	</defs>
	<clipPath id="SVGID_48_">
		<use xlink:href="#SVGID_47_"  style="overflow:visible;"/>
	</clipPath>
	<g class="st64">
		<text transform="matrix(1 0 0 1 242 93)"><tspan x="0" y="0" class="st17 st18 st19">Cont</tspan><tspan x="12.7" y="0" class="st17 st18 st19">r</tspan><tspan x="14.6" y="0" class="st17 st18 st19">ol </tspan></text>
	</g>
	<g class="st64">
		<text transform="matrix(1 0 0 1 236 100)" class="st17 st18 st19">Mechanism</text>
	</g>
</g>
<g>
	<defs>
		<rect id="SVGID_49_" x="-143" y="-168" width="810" height="700"/>
	</defs>
	<clipPath id="SVGID_50_">
		<use xlink:href="#SVGID_49_"  style="overflow:visible;"/>
	</clipPath>
	<path class="st65" d="M248.7,116.8c-2.5,13.3-6.3,26.1-11.5,38.3l-0.6,1.4"/>
	<polygon class="st66" points="231.2,152.3 231.5,167 243.1,157.9 	"/>
	<path class="st65" d="M279.5,113.9c7.7,5.7,16.1,10.9,25,15.8l1.3,0.7"/>
	<polygon class="st66" points="301.5,135.6 316.3,135.7 307.5,123.8 	"/>
	<path class="st67" d="M215,163.6c1.5-13.3,5.2-26,11.1-38.1l0.7-1.3"/>
	<polygon class="st68" points="231.9,128.6 232.6,113.9 220.4,122.2 	"/>
	<path class="st69" d="M414.9,167.3c12.9-10.3,32.1-10.7,46.1-4.5c14.8,6.6,23.7,20.5,17.1,34.3c-4.8,10.1-15.4,14.8-26.7,16.4
		c-7.6,1.1-15.9,0.8-23.6-1.8C405.9,204.4,396.7,181.8,414.9,167.3z"/>
	<path class="st70" d="M414.9,167.3c12.9-10.3,32.1-10.7,46.1-4.5c14.8,6.6,23.7,20.5,17.1,34.3c-4.8,10.1-15.4,14.8-26.7,16.4
		c-7.6,1.1-15.9,0.8-23.6-1.8C405.9,204.4,396.7,181.8,414.9,167.3z"/>
	<g class="st71">
		<text transform="matrix(1 0 0 1 430 176)" class="st6 st31">Gating</text>
	</g>
	<ellipse class="st72" cx="443.6" cy="194" rx="26.3" ry="13"/>
	<ellipse class="st70" cx="443.6" cy="194" rx="26.3" ry="13"/>
</g>
<g>
	<defs>
		<rect id="SVGID_51_" x="417.3" y="181.1" width="52.7" height="25.9"/>
	</defs>
	<clipPath id="SVGID_52_">
		<use xlink:href="#SVGID_51_"  style="overflow:visible;"/>
	</clipPath>
	<g class="st73">
		<text transform="matrix(1 0 0 1 435 192)" class="st17 st18 st19">Gating </text>
	</g>
	<g class="st73">
		<text transform="matrix(1 0 0 1 428 199)" class="st17 st18 st19">Mechanism</text>
	</g>
</g>
<g>
	<defs>
		<rect id="SVGID_53_" x="-143" y="-168" width="810" height="700"/>
	</defs>
	<clipPath id="SVGID_54_">
		<use xlink:href="#SVGID_53_"  style="overflow:visible;"/>
	</clipPath>
	<path class="st74" d="M411.1,201c-49.2,20.7-74.1,19.7-74.6-2.9l0.2-1.5"/>
	<polygon class="st75" points="343.1,198.9 338.3,185 330,197.1 	"/>
	<path class="st76" d="M301.1,85.5c61.7,0,104.1,20.6,127,61.9l0.7,1.3"/>
	<polygon class="st77" points="422.2,150.3 433.9,159.2 434,144.4 	"/>
</g>
<g>
	<defs>
		<rect id="SVGID_55_" x="-143" y="-168" width="810" height="700"/>
	</defs>
	<clipPath id="SVGID_56_">
		<use xlink:href="#SVGID_55_"  style="overflow:visible;"/>
	</clipPath>
	<g class="st78">
		<g>
			<defs>
				<rect id="SVGID_57_" x="66" y="274" width="42" height="26"/>
			</defs>
			<clipPath id="SVGID_58_">
				<use xlink:href="#SVGID_57_"  style="overflow:visible;"/>
			</clipPath>
			<g class="st79">
				<defs>
					<rect id="SVGID_59_" x="66" y="274" width="42" height="26"/>
				</defs>
				<clipPath id="SVGID_60_">
					<use xlink:href="#SVGID_59_"  style="overflow:visible;"/>
				</clipPath>
				<g class="st80">
					<text transform="matrix(1 0 0 1 68 281)" class="st18 st31">LEABRA </text>
				</g>
				<g class="st80">
					<text transform="matrix(1 0 0 1 68 289)"><tspan x="0" y="0" class="st18 st31">Lea</tspan><tspan x="11.7" y="0" class="st18 st31">r</tspan><tspan x="14.1" y="0" class="st18 st31">ning</tspan></text>
				</g>
				<g class="st80">
					<text transform="matrix(1 0 0 1 70 297)" class="st18 st31">System</text>
				</g>
			</g>
		</g>
	</g>
</g>
<g>
	<defs>
		<rect id="SVGID_61_" x="-143" y="-168" width="810" height="700"/>
	</defs>
	<clipPath id="SVGID_62_">
		<use xlink:href="#SVGID_61_"  style="overflow:visible;"/>
	</clipPath>
	<g class="st81">
		<g>
			<defs>
				<rect id="SVGID_63_" x="87" y="244" width="47" height="22"/>
			</defs>
			<clipPath id="SVGID_64_">
				<use xlink:href="#SVGID_63_"  style="overflow:visible;"/>
			</clipPath>
			<g class="st82">
				<defs>
					<rect id="SVGID_65_" x="87" y="244" width="50" height="22"/>
				</defs>
				<clipPath id="SVGID_66_">
					<use xlink:href="#SVGID_65_"  style="overflow:visible;"/>
				</clipPath>
				<g class="st83">
					<text transform="matrix(1 0 0 1 88 252)" class="st6 st84">Emergent</text>
				</g>
				<g class="st83">
					<text transform="matrix(1 0 0 1 94 262)" class="st6 st84">Object</text>
				</g>
			</g>
		</g>
	</g>
</g>
<g>
	<defs>
		<rect id="SVGID_67_" x="-143" y="-168" width="810" height="700"/>
	</defs>
	<clipPath id="SVGID_68_">
		<use xlink:href="#SVGID_67_"  style="overflow:visible;"/>
	</clipPath>
	<g class="st85">
		<g>
			<defs>
				<rect id="SVGID_69_" x="61" y="80" width="95" height="93"/>
			</defs>
			<clipPath id="SVGID_70_">
				<use xlink:href="#SVGID_69_"  style="overflow:visible;"/>
			</clipPath>
			<g class="st86">
				<defs>
					<rect id="SVGID_71_" x="61" y="80" width="95" height="93"/>
				</defs>
				<clipPath id="SVGID_72_">
					<use xlink:href="#SVGID_71_"  style="overflow:visible;"/>
				</clipPath>
				<path class="st87" d="M141.8,89.5c-8.1-8.9-20.7-9-31.8-5.3c-12.3,4.1-23.8,12.6-33,23.6c-16.4,19.8-19.9,48.8-2.2,59.8
					c3.4,2.1,7.4,3,11.3,3.2c18.1,0.9,34.4-10.4,47.1-25.1C147.8,128.6,155.3,104.4,141.8,89.5z"/>
				<path class="st88" d="M141.8,89.5c-8.1-8.9-20.7-9-31.8-5.3c-12.3,4.1-23.8,12.6-33,23.6c-16.4,19.8-19.9,48.8-2.2,59.8
					c3.4,2.1,7.4,3,11.3,3.2c18.1,0.9,34.4-10.4,47.1-25.1C147.8,128.6,155.3,104.4,141.8,89.5z"/>
			</g>
		</g>
	</g>
</g>
<g>
	<defs>
		<rect id="SVGID_73_" x="-143" y="-168" width="810" height="700"/>
	</defs>
	<clipPath id="SVGID_74_">
		<use xlink:href="#SVGID_73_"  style="overflow:visible;"/>
	</clipPath>
	<g class="st89">
		<g>
			<defs>
				<rect id="SVGID_75_" x="79" y="133" width="45" height="18"/>
			</defs>
			<clipPath id="SVGID_76_">
				<use xlink:href="#SVGID_75_"  style="overflow:visible;"/>
			</clipPath>
			<g class="st90">
				<defs>
					<rect id="SVGID_77_" x="79" y="133" width="45" height="18"/>
				</defs>
				<clipPath id="SVGID_78_">
					<use xlink:href="#SVGID_77_"  style="overflow:visible;"/>
				</clipPath>
				<g class="st91">
					<text transform="matrix(1 0 0 1 83 140)" class="st18 st31">Symbolic</text>
				</g>
				<g class="st91">
					<text transform="matrix(1 0 0 1 80 148)"><tspan x="0" y="0" class="st18 st31">P</tspan><tspan x="4.3" y="0" class="st18 st31">r</tspan><tspan x="6.5" y="0" class="st18 st31">ocessing</tspan></text>
				</g>
			</g>
		</g>
	</g>
</g>
<g>
	<defs>
		<rect id="SVGID_79_" x="-143" y="-168" width="810" height="700"/>
	</defs>
	<clipPath id="SVGID_80_">
		<use xlink:href="#SVGID_79_"  style="overflow:visible;"/>
	</clipPath>
	<g class="st92">
		<g>
			<defs>
				<rect id="SVGID_81_" x="98" y="105" width="36" height="21"/>
			</defs>
			<clipPath id="SVGID_82_">
				<use xlink:href="#SVGID_81_"  style="overflow:visible;"/>
			</clipPath>
			<g class="st93">
				<defs>
					<rect id="SVGID_83_" x="98" y="105" width="38" height="21"/>
				</defs>
				<clipPath id="SVGID_84_">
					<use xlink:href="#SVGID_83_"  style="overflow:visible;"/>
				</clipPath>
				<g class="st94">
					<text transform="matrix(1 0 0 1 100 112)"><tspan x="0" y="0" class="st6 st84">AC</tspan><tspan x="11.6" y="0" class="st6 st84">T</tspan><tspan x="16" y="0" class="st6 st84">-R</tspan></text>
				</g>
				<g class="st94">
					<text transform="matrix(1 0 0 1 100 122)" class="st6 st84">Object</text>
				</g>
			</g>
		</g>
	</g>
</g>
<g>
	<defs>
		<rect id="SVGID_85_" x="-143" y="-168" width="810" height="700"/>
	</defs>
	<clipPath id="SVGID_86_">
		<use xlink:href="#SVGID_85_"  style="overflow:visible;"/>
	</clipPath>
	<g class="st95">
		<g>
			<defs>
				<rect id="SVGID_87_" x="138" y="212" width="43" height="31"/>
			</defs>
			<clipPath id="SVGID_88_">
				<use xlink:href="#SVGID_87_"  style="overflow:visible;"/>
			</clipPath>
			<g class="st96">
				<defs>
					<rect id="SVGID_89_" x="138" y="212" width="43" height="31"/>
				</defs>
				<clipPath id="SVGID_90_">
					<use xlink:href="#SVGID_89_"  style="overflow:visible;"/>
				</clipPath>
				<path class="st97" d="M140.5,236.9c9.5-6.3,19-12.3,28.5-18l1.3-0.8"/>
				<polygon class="st98" points="172.4,224.5 180.4,212.1 165.7,213.2 				"/>
			</g>
		</g>
	</g>
</g>
<g>
	<defs>
		<rect id="SVGID_91_" x="-143" y="-168" width="810" height="700"/>
	</defs>
	<clipPath id="SVGID_92_">
		<use xlink:href="#SVGID_91_"  style="overflow:visible;"/>
	</clipPath>
	<g class="st99">
		<g>
			<defs>
				<rect id="SVGID_93_" x="147" y="95" width="60" height="25"/>
			</defs>
			<clipPath id="SVGID_94_">
				<use xlink:href="#SVGID_93_"  style="overflow:visible;"/>
			</clipPath>
			<g class="st100">
				<defs>
					<rect id="SVGID_95_" x="147" y="95" width="60" height="25"/>
				</defs>
				<clipPath id="SVGID_96_">
					<use xlink:href="#SVGID_95_"  style="overflow:visible;"/>
				</clipPath>
				<path class="st101" d="M148.7,113.7c13.7-3.7,28.6-7.5,44.8-11.3l1.5-0.3"/>
				<polygon class="st102" points="195,108.7 206.3,99.3 192,95.9 				"/>
			</g>
		</g>
	</g>
</g>
<g>
	<defs>
		<rect id="SVGID_97_" x="-143" y="-168" width="810" height="700"/>
	</defs>
	<clipPath id="SVGID_98_">
		<use xlink:href="#SVGID_97_"  style="overflow:visible;"/>
	</clipPath>
	<g class="st103">
		<g>
			<defs>
				<rect id="SVGID_99_" x="132" y="147" width="52" height="32"/>
			</defs>
			<clipPath id="SVGID_100_">
				<use xlink:href="#SVGID_99_"  style="overflow:visible;"/>
			</clipPath>
			<g class="st104">
				<defs>
					<rect id="SVGID_101_" x="132" y="146" width="52" height="33"/>
				</defs>
				<clipPath id="SVGID_102_">
					<use xlink:href="#SVGID_101_"  style="overflow:visible;"/>
				</clipPath>
				<path class="st105" d="M177.2,172.8c-13.1-7.1-24.3-13.4-33.8-19l-1.3-0.8"/>
				<polygon class="st106" points="146.8,148.1 132.1,147 140,159.4 				"/>
			</g>
		</g>
	</g>
</g>
<g>
	<defs>
		<rect id="SVGID_103_" x="-143" y="-168" width="810" height="700"/>
	</defs>
	<clipPath id="SVGID_104_">
		<use xlink:href="#SVGID_103_"  style="overflow:visible;"/>
	</clipPath>
	<g class="st107">
		<g>
			<defs>
				<rect id="SVGID_105_" x="163" y="346" width="44" height="27"/>
			</defs>
			<clipPath id="SVGID_106_">
				<use xlink:href="#SVGID_105_"  style="overflow:visible;"/>
			</clipPath>
			<g class="st108">
				<defs>
					<rect id="SVGID_107_" x="163" y="346" width="44" height="27"/>
				</defs>
				<clipPath id="SVGID_108_">
					<use xlink:href="#SVGID_107_"  style="overflow:visible;"/>
				</clipPath>
				<g class="st109">
					<text transform="matrix(1 0 0 1 170 354)" class="st18 st31">Deep </text>
				</g>
				<g class="st109">
					<text transform="matrix(1 0 0 1 165 362)"><tspan x="0" y="0" class="st18 st31">Lea</tspan><tspan x="11.7" y="0" class="st18 st31">r</tspan><tspan x="14.1" y="0" class="st18 st31">ning </tspan></text>
				</g>
				<g class="st109">
					<text transform="matrix(1 0 0 1 166 370)" class="st18 st31">Network</text>
				</g>
			</g>
		</g>
	</g>
</g>
<g>
	<defs>
		<rect id="SVGID_109_" x="-143" y="-168" width="810" height="700"/>
	</defs>
	<clipPath id="SVGID_110_">
		<use xlink:href="#SVGID_109_"  style="overflow:visible;"/>
	</clipPath>
	<g class="st110">
		<g>
			<defs>
				<rect id="SVGID_111_" x="141" y="260" width="93" height="25"/>
			</defs>
			<clipPath id="SVGID_112_">
				<use xlink:href="#SVGID_111_"  style="overflow:visible;"/>
			</clipPath>
			<g class="st111">
				<defs>
					<rect id="SVGID_113_" x="141" y="260" width="93" height="25"/>
				</defs>
				<clipPath id="SVGID_114_">
					<use xlink:href="#SVGID_113_"  style="overflow:visible;"/>
				</clipPath>
				<path class="st112" d="M152.8,266.7l1.5,0.1c21.5,1.5,43.8,5.4,67,11.6l1.4,0.4"/>
				<polygon class="st113" points="219.5,284.7 234,281.9 223.1,272 				"/>
				<polygon class="st113" points="154.7,260.2 141.1,266.1 154,273.4 				"/>
			</g>
		</g>
	</g>
</g>
<g>
	<defs>
		<rect id="SVGID_115_" x="-143" y="-168" width="810" height="700"/>
	</defs>
	<clipPath id="SVGID_116_">
		<use xlink:href="#SVGID_115_"  style="overflow:visible;"/>
	</clipPath>
	<g class="st114">
		<g>
			<defs>
				<rect id="SVGID_117_" x="214" y="321" width="36" height="18"/>
			</defs>
			<clipPath id="SVGID_118_">
				<use xlink:href="#SVGID_117_"  style="overflow:visible;"/>
			</clipPath>
			<g class="st115">
				<defs>
					<rect id="SVGID_119_" x="214" y="321" width="36" height="18"/>
				</defs>
				<clipPath id="SVGID_120_">
					<use xlink:href="#SVGID_119_"  style="overflow:visible;"/>
				</clipPath>
				<path class="st116" d="M215.9,332.3c6.1-1.5,13-3.1,20.5-4.7l1.5-0.3"/>
				<polygon class="st117" points="237.8,334 249.3,324.8 235,321.1 				"/>
			</g>
		</g>
	</g>
	<g class="st118">
		<text transform="matrix(1 0 0 1 197 46)" class="st6 st119">Composition</text>
	</g>
</g>
</svg>
