<?xml version="1.0" encoding="UTF-8" standalone="no"?>
<!-- Created with Inkscape (http://www.inkscape.org/) -->

<svg
   xmlns:dc="http://purl.org/dc/elements/1.1/"
   xmlns:cc="http://creativecommons.org/ns#"
   xmlns:rdf="http://www.w3.org/1999/02/22-rdf-syntax-ns#"
   xmlns:svg="http://www.w3.org/2000/svg"
   xmlns="http://www.w3.org/2000/svg"
   xmlns:sodipodi="http://sodipodi.sourceforge.net/DTD/sodipodi-0.dtd"
   xmlns:inkscape="http://www.inkscape.org/namespaces/inkscape"
   version="1.1"
   id="svg29"
   xml:space="preserve"
   width="480"
   height="480"
   viewBox="0 0 480 480"
   sodipodi:docname="Simple_Pathway_Graph.svg"
   inkscape:version="0.92.4 (5da689c313, 2019-01-14)"><metadata
     id="metadata35"><rdf:RDF><cc:Work
         rdf:about=""><dc:format>image/svg+xml</dc:format><dc:type
           rdf:resource="http://purl.org/dc/dcmitype/StillImage" /><dc:title></dc:title></cc:Work></rdf:RDF></metadata><defs
     id="defs33"><clipPath
       clipPathUnits="userSpaceOnUse"
       id="clipPath47"><path
         d="M 35.32928,337.7275 H 325.521 V 20.07204 H 35.32928 Z"
         id="path45"
         inkscape:connector-curvature="0" /></clipPath><clipPath
       clipPathUnits="userSpaceOnUse"
       id="clipPath53"><path
         d="m 17.75611,0 h 324.4878 V 360 H 17.75611 Z"
         id="path51"
         inkscape:connector-curvature="0" /></clipPath></defs><sodipodi:namedview
     pagecolor="#ffffff"
     bordercolor="#666666"
     borderopacity="1"
     objecttolerance="10"
     gridtolerance="10"
     guidetolerance="10"
     inkscape:pageopacity="0"
     inkscape:pageshadow="2"
     inkscape:window-width="640"
     inkscape:window-height="480"
     id="namedview31"
     showgrid="false"
     inkscape:zoom="1.6708333"
     inkscape:cx="240"
     inkscape:cy="240"
     inkscape:window-x="0"
     inkscape:window-y="0"
     inkscape:window-maximized="0"
     inkscape:current-layer="g37" /><g
     id="g37"
     inkscape:groupmode="layer"
     inkscape:label="Simple_Pathway_Graph"
     transform="matrix(1.3333333,0,0,-1.3333333,0,480)"><g
       id="g39" /><g
       id="g41"><g
         id="g43"
         clip-path="url(#clipPath47)"><g
           id="g49"
           clip-path="url(#clipPath53)"><path
             d="M 35.32928,337.7275 H 325.521 V 20.07204 H 35.32928 Z"
             style="fill:#ffffff;fill-opacity:1;fill-rule:nonzero;stroke:none"
             id="path55"
             inkscape:connector-curvature="0" /><g
             id="g57"
             transform="matrix(1.689656,0,0,1.689656,-25.49835,-40.7556)"><path
               d="m 203.621,58 c 0,-9.941 -36.601,-18 -81.746,-18 -45.148,0 -81.75,8.059 -81.75,18 0,9.941 36.602,18 81.75,18 45.145,0 81.746,-8.059 81.746,-18"
               style="fill:none;stroke:#01ff00;stroke-width:3;stroke-linecap:butt;stroke-linejoin:miter;stroke-miterlimit:10;stroke-dasharray:none;stroke-opacity:1"
               id="path59"
               inkscape:connector-curvature="0" /></g><g
             id="g61"
             transform="matrix(1.689656,0,0,1.689656,-25.49835,-40.7556)"><text
               transform="matrix(1,0,0,-1,63.375,54.89844)"
               style="font-variant:normal;font-weight:normal;font-size:12px;font-family:font000000002298510a;-inkscape-font-specification:font000000002298510a;writing-mode:lr-tb;fill:#000000;fill-opacity:1;fill-rule:nonzero;stroke:none"
               id="text65"><tspan
                 x="0 7.3200002 11.316 17.988001 24.66 30.66 33.984001 40.655998 44.652 54.647999 61.32 67.32 73.991997 80.664001 87.335999 90 96 105.996 109.992"
                 y="0"
                 sodipodi:role="line"
                 id="tspan63">TransferMechanism-0</tspan></text>
</g><g
             id="g67"
             transform="matrix(1.689656,0,0,1.689656,-25.49835,-40.7556)"><path
               d="m 203.621,130 c 0,-9.941 -36.601,-18 -81.746,-18 -45.148,0 -81.75,8.059 -81.75,18 0,9.941 36.602,18 81.75,18 45.145,0 81.746,-8.059 81.746,-18"
               style="fill:none;stroke:#000000;stroke-width:1;stroke-linecap:butt;stroke-linejoin:miter;stroke-miterlimit:10;stroke-dasharray:none;stroke-opacity:1"
               id="path69"
               inkscape:connector-curvature="0" /></g><g
             id="g71"
             transform="matrix(1.689656,0,0,1.689656,-25.49835,-40.7556)"><text
               transform="matrix(1,0,0,-1,63.375,126.8984)"
               style="font-variant:normal;font-weight:normal;font-size:12px;font-family:font000000002298510a;-inkscape-font-specification:font000000002298510a;writing-mode:lr-tb;fill:#000000;fill-opacity:1;fill-rule:nonzero;stroke:none"
               id="text75"><tspan
                 x="0 7.3200002 11.316 17.988001 24.66 30.66 33.984001 40.655998 44.652 54.647999 61.32 67.32 73.991997 80.664001 87.335999 90 96 105.996 109.992"
                 y="0"
                 sodipodi:role="line"
                 id="tspan73">TransferMechanism-1</tspan></text>
</g><g
             id="g77"
             transform="matrix(1.689656,0,0,1.689656,-25.49835,-40.7556)"><path
               d="m 121.875,76.168 c 0,7.699 0,16.859 0,25.414"
               style="fill:none;stroke:#000000;stroke-width:1;stroke-linecap:butt;stroke-linejoin:miter;stroke-miterlimit:10;stroke-dasharray:none;stroke-opacity:1"
               id="path79"
               inkscape:connector-curvature="0" /></g><g
             id="g81"
             transform="matrix(1.689656,0,0,1.689656,-25.49835,-40.7556)"><path
               d="m 118.375,101.586 3.5,10 3.5,-10 z"
               style="fill:#000000;fill-opacity:1;fill-rule:nonzero;stroke:#000000;stroke-width:1;stroke-linecap:butt;stroke-linejoin:miter;stroke-miterlimit:10;stroke-dasharray:none;stroke-opacity:1"
               id="path83"
               inkscape:connector-curvature="0" /></g><g
             id="g85"
             transform="matrix(1.689656,0,0,1.689656,-25.49835,-40.7556)"><path
               d="m 203.621,202 c 0,-9.941 -36.601,-18 -81.746,-18 -45.148,0 -81.75,8.059 -81.75,18 0,9.941 36.602,18 81.75,18 45.145,0 81.746,-8.059 81.746,-18"
               style="fill:none;stroke:#ff0000;stroke-width:3;stroke-linecap:butt;stroke-linejoin:miter;stroke-miterlimit:10;stroke-dasharray:none;stroke-opacity:1"
               id="path87"
               inkscape:connector-curvature="0" /></g><g
             id="g89"
             transform="matrix(1.689656,0,0,1.689656,-25.49835,-40.7556)"><text
               transform="matrix(1,0,0,-1,63.375,198.8984)"
               style="font-variant:normal;font-weight:normal;font-size:12px;font-family:font000000002298510a;-inkscape-font-specification:font000000002298510a;writing-mode:lr-tb;fill:#000000;fill-opacity:1;fill-rule:nonzero;stroke:none"
               id="text93"><tspan
                 x="0 7.3200002 11.316 17.988001 24.66 30.66 33.984001 40.655998 44.652 54.647999 61.32 67.32 73.991997 80.664001 87.335999 90 96 105.996 109.992"
                 y="0"
                 sodipodi:role="line"
                 id="tspan91">TransferMechanism-2</tspan></text>
</g><g
             id="g95"
             transform="matrix(1.689656,0,0,1.689656,-25.49835,-40.7556)"><path
               d="m 121.875,148.168 c 0,7.699 0,16.859 0,25.414"
               style="fill:none;stroke:#000000;stroke-width:1;stroke-linecap:butt;stroke-linejoin:miter;stroke-miterlimit:10;stroke-dasharray:none;stroke-opacity:1"
               id="path97"
               inkscape:connector-curvature="0" /></g><g
             id="g99"
             transform="matrix(1.689656,0,0,1.689656,-25.49835,-40.7556)"><path
               d="m 118.375,173.586 3.5,10 3.5,-10 z"
               style="fill:#000000;fill-opacity:1;fill-rule:nonzero;stroke:#000000;stroke-width:1;stroke-linecap:butt;stroke-linejoin:miter;stroke-miterlimit:10;stroke-dasharray:none;stroke-opacity:1"
               id="path101"
               inkscape:connector-curvature="0" /></g></g></g></g></g></svg>