<?xml version="1.0" encoding="UTF-8"?>
<svg id="Layer_1" data-name="Layer 1" xmlns="http://www.w3.org/2000/svg" xmlns:xlink="http://www.w3.org/1999/xlink" viewBox="0 0 1239.73 427">
  <defs>
    <style>
      .cls-1, .cls-2, .cls-3, .cls-4 {
        fill: none;
      }

      .cls-5 {
        font-family: ArialMT, Arial;
        font-size: 12px;
      }

      .cls-6 {
        font-family: TimesNewRomanPSMT, 'Times New Roman';
        font-size: 14px;
      }

      .cls-7 {
        fill: #fff;
      }

      .cls-2 {
        stroke: lime;
      }

      .cls-2, .cls-3, .cls-4 {
        stroke-miterlimit: 10;
      }

      .cls-2, .cls-4 {
        stroke-width: 3px;
      }

      .cls-3 {
        stroke: #000;
      }

      .cls-4 {
        stroke: red;
      }

      .cls-8 {
        clip-path: url(#clippath);
      }
    </style>
    <clipPath id="clippath">
      <rect class="cls-1" width="1239.73" height="427"/>
    </clipPath>
  </defs>
  <g class="cls-8">
    <rect class="cls-7" width="1239.73" height="427"/>
    <text class="cls-6" transform="translate(569.36 415.2)"><tspan x="0" y="0">EM_Composition</tspan></text>
    <path class="cls-2" d="M997.43,382c0,9.94-20.85,18-46.57,18s-46.57-8.06-46.57-18,20.85-18,46.57-18,46.57,8.06,46.57,18"/>
    <text class="cls-5" transform="translate(920.86 385.1)"><tspan x="0" y="0">3</tspan></text>
    <text class="cls-5" transform="translate(930.87 385.1)"><tspan x="0" y="0">[QUERY]</tspan></text>
    <path class="cls-3" d="M1117.76,310c0,9.94-34.43,18-76.9,18s-76.9-8.06-76.9-18,34.43-18,76.9-18,76.9,8.06,76.9,18"/>
    <text class="cls-5" transform="translate(986.36 313.1)"><tspan x="0" y="0">3</tspan></text>
    <text class="cls-5" transform="translate(996.37 313.1)"><tspan x="0" y="0">[MATCH</tspan></text>
    <text class="cls-5" transform="translate(1045.66 313.1)"><tspan x="0" y="0">to</tspan></text>
    <text class="cls-5" transform="translate(1058.99 313.1)"><tspan x="0" y="0">KEYS]</tspan></text>
    <path class="cls-3" d="M971.28,365.66c11.86-9.48,26.99-21.59,40.12-32.09"/>
    <polygon points="1009.27 330.79 1019.27 327.28 1013.65 336.26 1009.27 330.79"/>
    <polygon class="cls-3" points="1009.27 330.79 1019.27 327.28 1013.65 336.26 1009.27 330.79"/>
    <path class="cls-3" d="M655.77,310c0,9.94-16.08,18-35.91,18s-35.91-8.06-35.91-18,16.08-18,35.91-18,35.91,8.06,35.91,18"/>
    <text class="cls-5" transform="translate(598.86 313.1)"><tspan x="0" y="0">STORE</tspan></text>
    <path class="cls-3" d="M906.14,376.3c-56.83-7.87-157.59-23.91-241.28-48.3-2.64-.77-5.33-1.63-8.03-2.56"/>
    <polygon points="655.36 328.63 647.17 321.9 657.77 322.05 655.36 328.63"/>
    <polygon class="cls-3" points="655.36 328.63 647.17 321.9 657.77 322.05 655.36 328.63"/>
    <path class="cls-2" d="M731.43,382c0,9.94-20.85,18-46.57,18s-46.57-8.06-46.57-18,20.85-18,46.57-18,46.57,8.06,46.57,18"/>
    <text class="cls-5" transform="translate(654.86 385.1)"><tspan x="0" y="0">2</tspan></text>
    <text class="cls-5" transform="translate(664.87 385.1)"><tspan x="0" y="0">[QUERY]</tspan></text>
    <path class="cls-3" d="M827.76,310c0,9.94-34.43,18-76.9,18s-76.9-8.06-76.9-18,34.43-18,76.9-18,76.9,8.06,76.9,18"/>
    <text class="cls-5" transform="translate(696.36 313.1)"><tspan x="0" y="0">2</tspan></text>
    <text class="cls-5" transform="translate(706.37 313.1)"><tspan x="0" y="0">[MATCH</tspan></text>
    <text class="cls-5" transform="translate(755.66 313.1)"><tspan x="0" y="0">to</tspan></text>
    <text class="cls-5" transform="translate(768.99 313.1)"><tspan x="0" y="0">KEYS]</tspan></text>
    <path class="cls-3" d="M700.5,364.94c8.12-8.86,18.2-19.86,27.21-29.68"/>
    <polygon points="725.31 332.7 734.65 327.69 730.47 337.43 725.31 332.7"/>
    <polygon class="cls-3" points="725.31 332.7 734.65 327.69 730.47 337.43 725.31 332.7"/>
    <path class="cls-3" d="M669.46,364.94c-8.38-9.28-18.87-20.9-28.05-31.07"/>
    <polygon points="638.81 336.21 634.71 326.45 644.01 331.52 638.81 336.21"/>
    <polygon class="cls-3" points="638.81 336.21 634.71 326.45 644.01 331.52 638.81 336.21"/>
    <path class="cls-2" d="M577.43,382c0,9.94-20.85,18-46.57,18s-46.57-8.06-46.57-18,20.85-18,46.57-18,46.57,8.06,46.57,18"/>
    <text class="cls-5" transform="translate(500.86 385.1)"><tspan x="0" y="0">1</tspan></text>
    <text class="cls-5" transform="translate(510.87 385.1)"><tspan x="0" y="0">[QUERY]</tspan></text>
    <path class="cls-3" d="M565.76,310c0,9.94-34.43,18-76.9,18s-76.9-8.06-76.9-18,34.43-18,76.9-18,76.9,8.06,76.9,18"/>
    <text class="cls-5" transform="translate(434.36 313.1)"><tspan x="0" y="0">1</tspan></text>
    <text class="cls-5" transform="translate(444.37 313.1)"><tspan x="0" y="0">[MATCH</tspan></text>
    <text class="cls-5" transform="translate(493.66 313.1)"><tspan x="0" y="0">to</tspan></text>
    <text class="cls-5" transform="translate(506.99 313.1)"><tspan x="0" y="0">KEYS]</tspan></text>
    <path class="cls-3" d="M520.48,364.2c-4.85-8.31-10.71-18.37-16.08-27.56"/>
    <polygon points="501.28 338.24 499.27 327.84 507.33 334.71 501.28 338.24"/>
    <polygon class="cls-3" points="501.28 338.24 499.27 327.84 507.33 334.71 501.28 338.24"/>
    <path class="cls-3" d="M551.06,365.66c12.4-10.03,28.44-23,41.91-33.9"/>
    <polygon points="590.99 328.85 600.97 325.29 595.39 334.3 590.99 328.85"/>
    <polygon class="cls-3" points="590.99 328.85 600.97 325.29 595.39 334.3 590.99 328.85"/>
    <path class="cls-2" d="M376.43,382c0,9.94-20.85,18-46.57,18s-46.57-8.06-46.57-18,20.85-18,46.57-18,46.57,8.06,46.57,18"/>
    <text class="cls-5" transform="translate(299.86 385.1)"><tspan x="0" y="0">0</tspan></text>
    <text class="cls-5" transform="translate(309.87 385.1)"><tspan x="0" y="0">[QUERY]</tspan></text>
    <path class="cls-3" d="M275.76,310c0,9.94-34.43,18-76.89,18s-76.9-8.06-76.9-18,34.43-18,76.9-18,76.89,8.06,76.89,18"/>
    <text class="cls-5" transform="translate(144.36 313.1)"><tspan x="0" y="0">0</tspan></text>
    <text class="cls-5" transform="translate(154.37 313.1)"><tspan x="0" y="0">[MATCH</tspan></text>
    <text class="cls-5" transform="translate(203.66 313.1)"><tspan x="0" y="0">to</tspan></text>
    <text class="cls-5" transform="translate(216.99 313.1)"><tspan x="0" y="0">KEYS]</tspan></text>
    <path class="cls-3" d="M302.72,367.08c-18.67-10.26-43.76-24.05-64.6-35.51"/>
    <polygon points="236.25 334.54 229.18 326.66 239.62 328.41 236.25 334.54"/>
    <polygon class="cls-3" points="236.25 334.54 229.18 326.66 239.62 328.41 236.25 334.54"/>
    <path class="cls-3" d="M372.9,374.72c49.36-8.86,132.45-25.31,201.96-46.72,2.72-.84,5.49-1.77,8.28-2.75"/>
    <polygon points="581.92 321.97 592.51 321.77 584.36 328.54 581.92 321.97"/>
    <polygon class="cls-3" points="581.92 321.97 592.51 321.77 584.36 328.54 581.92 321.97"/>
    <path class="cls-3" d="M287.65,238c0,9.94-39.75,18-88.79,18s-88.79-8.06-88.79-18,39.75-18,88.79-18,88.79,8.06,88.79,18"/>
    <text class="cls-5" transform="translate(134.86 241.1)"><tspan x="0" y="0">0</tspan></text>
    <text class="cls-5" transform="translate(144.87 241.1)"><tspan x="0" y="0">[WEIGHTED</tspan></text>
    <text class="cls-5" transform="translate(216.12 241.1)"><tspan x="0" y="0">MATCH]</tspan></text>
    <path class="cls-3" d="M198.86,291.83v-25.41"/>
    <polygon points="195.36 266.41 198.86 256.41 202.36 266.41 195.36 266.41"/>
    <polygon class="cls-3" points="195.36 266.41 198.86 256.41 202.36 266.41 195.36 266.41"/>
    <path class="cls-3" d="M703.07,166c0,9.94-37.25,18-83.21,18s-83.21-8.06-83.21-18,37.25-18,83.21-18,83.21,8.06,83.21,18"/>
    <text class="cls-5" transform="translate(560.36 169.1)"><tspan x="0" y="0">COMBINE</tspan></text>
    <text class="cls-5" transform="translate(619.65 169.1)"><tspan x="0" y="0">MATCHES</tspan></text>
    <path class="cls-3" d="M266.97,226.35c76.1-13.02,198.95-34.02,277.78-47.51"/>
    <polygon points="544.18 175.39 554.62 177.16 545.35 182.29 544.18 175.39"/>
    <polygon class="cls-3" points="544.18 175.39 554.62 177.16 545.35 182.29 544.18 175.39"/>
    <path class="cls-3" d="M103.59,310c0,9.94-22.27,18-49.73,18s-49.73-8.06-49.73-18,22.26-18,49.73-18,49.73,8.06,49.73,18"/>
    <text class="cls-5" transform="translate(21.36 313.1)"><tspan x="0" y="0">0</tspan></text>
    <text class="cls-5" transform="translate(31.37 313.1)"><tspan x="0" y="0">[WEIGHT]</tspan></text>
    <path class="cls-3" d="M83.21,295.43c20.96-10.41,49.5-24.58,72.98-36.24"/>
    <polygon points="154.73 256 165.25 254.69 157.85 262.27 154.73 256"/>
    <polygon class="cls-3" points="154.73 256 165.25 254.69 157.85 262.27 154.73 256"/>
    <path class="cls-3" d="M667.16,94c0,9.94-21.18,18-47.3,18s-47.3-8.06-47.3-18,21.18-18,47.3-18,47.3,8.06,47.3,18"/>
    <text class="cls-5" transform="translate(589.36 97.1)"><tspan x="0" y="0">RETRIEVE</tspan></text>
    <path class="cls-3" d="M619.86,147.83v-25.41"/>
    <polygon points="616.36 122.41 619.86 112.41 623.36 122.41 616.36 122.41"/>
    <polygon class="cls-3" points="616.36 122.41 619.86 112.41 623.36 122.41 616.36 122.41"/>
    <path class="cls-3" d="M577.65,238c0,9.94-39.75,18-88.79,18s-88.79-8.06-88.79-18,39.75-18,88.79-18,88.79,8.06,88.79,18"/>
    <text class="cls-5" transform="translate(424.86 241.1)"><tspan x="0" y="0">1</tspan></text>
    <text class="cls-5" transform="translate(434.87 241.1)"><tspan x="0" y="0">[WEIGHTED</tspan></text>
    <text class="cls-5" transform="translate(506.12 241.1)"><tspan x="0" y="0">MATCH]</tspan></text>
    <path class="cls-3" d="M519.91,220.94c18.03-9.91,40.93-22.49,60.25-33.12"/>
    <polygon points="578.59 184.69 589.04 182.94 581.96 190.82 578.59 184.69"/>
    <polygon class="cls-3" points="578.59 184.69 589.04 182.94 581.96 190.82 578.59 184.69"/>
    <path class="cls-3" d="M839.65,238c0,9.94-39.75,18-88.79,18s-88.79-8.06-88.79-18,39.75-18,88.79-18,88.79,8.06,88.79,18"/>
    <text class="cls-5" transform="translate(686.86 241.1)"><tspan x="0" y="0">2</tspan></text>
    <text class="cls-5" transform="translate(696.87 241.1)"><tspan x="0" y="0">[WEIGHTED</tspan></text>
    <text class="cls-5" transform="translate(768.12 241.1)"><tspan x="0" y="0">MATCH]</tspan></text>
    <path class="cls-3" d="M719.82,220.94c-18.03-9.91-40.92-22.49-60.25-33.12"/>
    <polygon points="657.76 190.82 650.68 182.94 661.13 184.69 657.76 190.82"/>
    <polygon class="cls-3" points="657.76 190.82 650.68 182.94 661.13 184.69 657.76 190.82"/>
    <path class="cls-3" d="M1129.65,238c0,9.94-39.75,18-88.79,18s-88.79-8.06-88.79-18,39.75-18,88.79-18,88.79,8.06,88.79,18"/>
    <text class="cls-5" transform="translate(976.86 241.1)"><tspan x="0" y="0">3</tspan></text>
    <text class="cls-5" transform="translate(986.87 241.1)"><tspan x="0" y="0">[WEIGHTED</tspan></text>
    <text class="cls-5" transform="translate(1058.12 241.1)"><tspan x="0" y="0">MATCH]</tspan></text>
    <path class="cls-3" d="M972.75,226.35c-76.1-13.02-198.95-34.02-277.79-47.51"/>
    <polygon points="694.37 182.29 685.1 177.16 695.55 175.39 694.37 182.29"/>
    <polygon class="cls-3" points="694.37 182.29 685.1 177.16 695.55 175.39 694.37 182.29"/>
    <path class="cls-3" d="M488.86,291.83v-25.41"/>
    <polygon points="485.36 266.41 488.86 256.41 492.36 266.41 485.36 266.41"/>
    <polygon class="cls-3" points="485.36 266.41 488.86 256.41 492.36 266.41 485.36 266.41"/>
    <path class="cls-3" d="M393.59,310c0,9.94-22.27,18-49.73,18s-49.73-8.06-49.73-18,22.26-18,49.73-18,49.73,8.06,49.73,18"/>
    <text class="cls-5" transform="translate(311.36 313.1)"><tspan x="0" y="0">1</tspan></text>
    <text class="cls-5" transform="translate(321.37 313.1)"><tspan x="0" y="0">[WEIGHT]</tspan></text>
    <path class="cls-3" d="M373.21,295.43c20.96-10.41,49.5-24.58,72.98-36.24"/>
    <polygon points="444.73 256 455.25 254.69 447.85 262.27 444.73 256"/>
    <polygon class="cls-3" points="444.73 256 455.25 254.69 447.85 262.27 444.73 256"/>
    <path class="cls-3" d="M750.86,291.83v-25.41"/>
    <polygon points="747.36 266.41 750.86 256.41 754.36 266.41 747.36 266.41"/>
    <polygon class="cls-3" points="747.36 266.41 750.86 256.41 754.36 266.41 747.36 266.41"/>
    <path class="cls-3" d="M945.59,310c0,9.94-22.27,18-49.73,18s-49.73-8.06-49.73-18,22.26-18,49.73-18,49.73,8.06,49.73,18"/>
    <text class="cls-5" transform="translate(863.36 313.1)"><tspan x="0" y="0">2</tspan></text>
    <text class="cls-5" transform="translate(873.37 313.1)"><tspan x="0" y="0">[WEIGHT]</tspan></text>
    <path class="cls-3" d="M866.52,295.43c-20.97-10.41-49.5-24.58-72.99-36.24"/>
    <polygon points="791.88 262.27 784.48 254.69 794.99 256 791.88 262.27"/>
    <polygon class="cls-3" points="791.88 262.27 784.48 254.69 794.99 256 791.88 262.27"/>
    <path class="cls-3" d="M1040.86,291.83v-25.41"/>
    <polygon points="1037.36 266.41 1040.86 256.41 1044.36 266.41 1037.36 266.41"/>
    <polygon class="cls-3" points="1037.36 266.41 1040.86 256.41 1044.36 266.41 1037.36 266.41"/>
    <path class="cls-3" d="M1235.59,310c0,9.94-22.27,18-49.73,18s-49.73-8.06-49.73-18,22.26-18,49.73-18,49.73,8.06,49.73,18"/>
    <text class="cls-5" transform="translate(1153.36 313.1)"><tspan x="0" y="0">3</tspan></text>
    <text class="cls-5" transform="translate(1163.37 313.1)"><tspan x="0" y="0">[WEIGHT]</tspan></text>
    <path class="cls-3" d="M1156.52,295.43c-20.96-10.41-49.5-24.58-72.99-36.24"/>
    <polygon points="1081.88 262.27 1074.48 254.69 1084.99 256 1081.88 262.27"/>
    <polygon class="cls-3" points="1081.88 262.27 1074.48 254.69 1084.99 256 1081.88 262.27"/>
    <path class="cls-4" d="M466.44,22c0,9.94-28.02,18-62.58,18s-62.58-8.06-62.58-18,28.02-18,62.58-18,62.58,8.06,62.58,18"/>
    <text class="cls-5" transform="translate(360.86 25.1)"><tspan x="0" y="0">0</tspan></text>
    <text class="cls-5" transform="translate(370.87 25.1)"><tspan x="0" y="0">[RETRIEVED]</tspan></text>
    <path class="cls-3" d="M584.2,82.11c-35.31-11.77-89.72-29.91-129.54-43.18"/>
    <polygon points="453.5 42.23 445.12 35.75 455.71 35.59 453.5 42.23"/>
    <polygon class="cls-3" points="453.5 42.23 445.12 35.75 455.71 35.59 453.5 42.23"/>
    <path class="cls-4" d="M610.44,22c0,9.94-28.01,18-62.58,18s-62.58-8.06-62.58-18,28.02-18,62.58-18,62.58,8.06,62.58,18"/>
    <text class="cls-5" transform="translate(504.86 25.1)"><tspan x="0" y="0">1</tspan></text>
    <text class="cls-5" transform="translate(514.87 25.1)"><tspan x="0" y="0">[RETRIEVED]</tspan></text>
    <path class="cls-3" d="M602.8,76.94c-9.02-9.02-20.24-20.24-30.2-30.19"/>
    <polygon points="569.9 48.99 565.3 39.44 574.85 44.04 569.9 48.99"/>
    <polygon class="cls-3" points="569.9 48.99 565.3 39.44 574.85 44.04 569.9 48.99"/>
    <path class="cls-4" d="M754.44,22c0,9.94-28.01,18-62.58,18s-62.58-8.06-62.58-18,28.02-18,62.58-18,62.58,8.06,62.58,18"/>
    <text class="cls-5" transform="translate(648.86 25.1)"><tspan x="0" y="0">2</tspan></text>
    <text class="cls-5" transform="translate(658.87 25.1)"><tspan x="0" y="0">[RETRIEVED]</tspan></text>
    <path class="cls-3" d="M636.93,76.94c9.01-9.02,20.24-20.24,30.19-30.19"/>
    <polygon points="664.88 44.04 674.42 39.44 669.82 48.99 664.88 44.04"/>
    <polygon class="cls-3" points="664.88 44.04 674.42 39.44 669.82 48.99 664.88 44.04"/>
    <path class="cls-4" d="M898.44,22c0,9.94-28.01,18-62.58,18s-62.58-8.06-62.58-18,28.02-18,62.58-18,62.58,8.06,62.58,18"/>
    <text class="cls-5" transform="translate(792.86 25.1)"><tspan x="0" y="0">3</tspan></text>
    <text class="cls-5" transform="translate(802.87 25.1)"><tspan x="0" y="0">[RETRIEVED]</tspan></text>
    <path class="cls-3" d="M655.53,82.11c35.31-11.77,89.72-29.91,129.54-43.18"/>
    <polygon points="784.01 35.59 794.6 35.75 786.22 42.23 784.01 35.59"/>
    <polygon class="cls-3" points="784.01 35.59 794.6 35.75 786.22 42.23 784.01 35.59"/>
  </g>
</svg>