<?xml version="1.0" encoding="utf-8"?>
<!-- Generator: Adobe Illustrator 25.3.1, SVG Export Plug-In . SVG Version: 6.00 Build 0)  -->
<svg version="1.1" id="Layer_1" xmlns="http://www.w3.org/2000/svg" xmlns:xlink="http://www.w3.org/1999/xlink" x="0px" y="0px"
	 viewBox="0 0 782 570" style="enable-background:new 0 0 782 570;" xml:space="preserve">
<style type="text/css">
	.st0{font-family:'Times-Roman';}
	.st1{font-size:14px;}
	.st2{fill:none;stroke:#00FF00;stroke-width:3;stroke-miterlimit:10;}
	.st3{font-family:'ArialMT';}
	.st4{font-size:12px;}
	.st5{fill:none;stroke:#000000;stroke-miterlimit:10;}
	.st6{fill:none;stroke:#0000FF;stroke-width:3;stroke-miterlimit:10;}
	.st7{fill:none;stroke:#FF0000;stroke-width:3;stroke-miterlimit:10;}
	.st8{fill:none;stroke:#0000FF;stroke-miterlimit:10;}
	.st9{fill:#0000FF;}
</style>
<text transform="matrix(1 0 0 1 340.9678 523.2002)" class="st0 st1">EM_Composition</text>
<ellipse class="st2" cx="191.7" cy="490" rx="65.4" ry="18"/>
<text transform="matrix(1 0 0 1 147.8462 492.7002)"><tspan x="0" y="0" class="st3 st4">V</tspan><tspan x="7.1" y="0" class="st3 st4">ALUE 0 INPUT</tspan></text>
<ellipse class="st2" cx="330.7" cy="490" rx="56" ry="18"/>
<text transform="matrix(1 0 0 1 294.1792 492.7002)"><tspan x="0" y="0" class="st3 st4">KE</tspan><tspan x="16" y="0" class="st3 st4">Y</tspan><tspan x="23.8" y="0" class="st3 st4"> 1 INPUT</tspan></text>
<ellipse class="st5" cx="395.7" cy="418" rx="88.2" ry="18"/>
<text transform="matrix(1 0 0 1 333.6265 420.7002)"><tspan x="0" y="0" class="st3 st4">CONC</tspan><tspan x="35.3" y="0" class="st3 st4">A</tspan><tspan x="42.4" y="0" class="st3 st4">TEN</tspan><tspan x="66.4" y="0" class="st3 st4">A</tspan><tspan x="73.6" y="0" class="st3 st4">TE KEYS</tspan></text>
<path class="st5" d="M346.5,472.6c7.9-8.8,17.7-19.6,26.5-29.3"/>
<polygon points="370.4,440.8 379.7,435.8 375.6,445.5 "/>
<polygon class="st5" points="370.4,440.8 379.7,435.8 375.6,445.5 "/>
<ellipse class="st2" cx="460.7" cy="490" rx="56" ry="18"/>
<text transform="matrix(1 0 0 1 424.1792 492.7002)"><tspan x="0" y="0" class="st3 st4">KE</tspan><tspan x="16" y="0" class="st3 st4">Y</tspan><tspan x="23.8" y="0" class="st3 st4"> 0 INPUT</tspan></text>
<path class="st5" d="M445,472.6c-7.9-8.8-17.7-19.6-26.5-29.3"/>
<polygon points="415.9,445.5 411.8,435.8 421.1,440.8 "/>
<polygon class="st5" points="415.9,445.5 411.8,435.8 421.1,440.8 "/>
<ellipse class="st2" cx="599.7" cy="490" rx="65.4" ry="18"/>
<text transform="matrix(1 0 0 1 555.8457 492.7002)"><tspan x="0" y="0" class="st3 st4">V</tspan><tspan x="7.1" y="0" class="st3 st4">ALUE 1 INPUT</tspan></text>
<ellipse class="st5" cx="395.7" cy="346" rx="36.1" ry="18"/>
<text transform="matrix(1 0 0 1 374.8618 348.7002)"><tspan x="0" y="0" class="st3 st4">M</tspan><tspan x="10" y="0" class="st3 st4">A</tspan><tspan x="17.1" y="0" class="st3 st4">TCH</tspan></text>
<ellipse class="st5" cx="395.7" cy="202" rx="46.5" ry="18"/>
<text transform="matrix(1 0 0 1 366.7466 204.7007)" class="st3 st4">SOFTMAX</text>
<path class="st5" d="M376.5,330.7c-10.7-9.8-23-23.5-28.8-38.7c-5.7-15-5.7-21,0-36c4.3-11.2,12.1-21.6,20.2-30.3"/>
<polygon points="365.5,223.2 375,218.7 370.4,228.2 "/>
<polygon class="st5" points="365.5,223.2 375,218.7 370.4,228.2 "/>
<ellipse class="st6" cx="462.7" cy="274" rx="106" ry="18"/>
<text transform="matrix(1 0 0 1 386.4087 276.7002)" class="st3 st4">SOFTMAX GAIN CONTROL</text>
<path class="st5" d="M411.3,329.3c8.3-8.9,18.7-20.1,28-30.1"/>
<polygon points="436.7,296.8 446.1,291.9 441.9,301.6 "/>
<polygon class="st5" points="436.7,296.8 446.1,291.9 441.9,301.6 "/>
<path class="st5" d="M395.7,399.8c0-7.7,0-16.9,0-25.4"/>
<polygon points="392.2,374.4 395.7,364.4 399.2,374.4 "/>
<polygon class="st5" points="392.2,374.4 395.7,364.4 399.2,374.4 "/>
<ellipse class="st5" cx="395.7" cy="130" rx="88.6" ry="18"/>
<text transform="matrix(1 0 0 1 333.2925 132.7007)"><tspan x="0" y="0" class="st3 st4">WEIGH</tspan><tspan x="40.7" y="0" class="st3 st4">T</tspan><tspan x="47.8" y="0" class="st3 st4"> RETRIE</tspan><tspan x="95.1" y="0" class="st3 st4">V</tspan><tspan x="102.2" y="0" class="st3 st4">ALS</tspan></text>
<ellipse class="st7" cx="125.7" cy="58" rx="86" ry="18"/>
<text transform="matrix(1 0 0 1 65.5073 60.7007)"><tspan x="0" y="0" class="st3 st4">V</tspan><tspan x="7.1" y="0" class="st3 st4">ALUE 1 RETRIEVED</tspan></text>
<path class="st5" d="M341.8,115.6c-44-11.7-106.3-28.3-152.6-40.7"/>
<polygon points="187.9,78.2 179.2,72.2 189.7,71.4 "/>
<polygon class="st5" points="187.9,78.2 179.2,72.2 189.7,71.4 "/>
<ellipse class="st7" cx="305.7" cy="58" rx="76.6" ry="18"/>
<text transform="matrix(1 0 0 1 252.8403 60.7007)"><tspan x="0" y="0" class="st3 st4">KE</tspan><tspan x="16" y="0" class="st3 st4">Y</tspan><tspan x="23.8" y="0" class="st3 st4"> 0 RETRIEVED</tspan></text>
<path class="st5" d="M373.5,112.2c-11.5-9.2-25.8-20.6-38.2-30.6"/>
<polygon points="333.1,84.3 327.4,75.3 337.4,78.9 "/>
<polygon class="st5" points="333.1,84.3 327.4,75.3 337.4,78.9 "/>
<ellipse class="st7" cx="485.7" cy="58" rx="86" ry="18"/>
<text transform="matrix(1 0 0 1 425.5073 60.7007)"><tspan x="0" y="0" class="st3 st4">V</tspan><tspan x="7.1" y="0" class="st3 st4">ALUE 0 RETRIEVED</tspan></text>
<path class="st5" d="M418,112.2c11.4-9.2,25.6-20.4,37.9-30.3"/>
<polygon points="453.8,79.1 463.8,75.6 458.1,84.6 "/>
<polygon class="st5" points="453.8,79.1 463.8,75.6 458.1,84.6 "/>
<ellipse class="st7" cx="665.7" cy="58" rx="76.6" ry="18"/>
<text transform="matrix(1 0 0 1 612.8398 60.7007)"><tspan x="0" y="0" class="st3 st4">KE</tspan><tspan x="16" y="0" class="st3 st4">Y</tspan><tspan x="23.8" y="0" class="st3 st4"> 1 RETRIEVED</tspan></text>
<path class="st5" d="M449.7,115.6c45-12,109-29.1,155.6-41.5"/>
<polygon points="604.5,70.7 615,71.5 606.3,77.5 "/>
<polygon class="st5" points="604.5,70.7 615,71.5 606.3,77.5 "/>
<path class="st5" d="M395.7,183.8c0-7.7,0-16.9,0-25.4"/>
<polygon points="392.2,158.4 395.7,148.4 399.2,158.4 "/>
<polygon class="st5" points="392.2,158.4 395.7,148.4 399.2,158.4 "/>
<path class="st8" d="M446.2,256.2c-8.3-8.9-18.5-19.9-27.6-29.6"/>
<rect x="410.4" y="218" transform="matrix(0.7321 -0.6812 0.6812 0.7321 -40.2246 341.7776)" class="st9" width="8" height="8"/>
<rect x="410.4" y="218" transform="matrix(0.7321 -0.6812 0.6812 0.7321 -40.2246 341.7776)" class="st8" width="8" height="8"/>
<line class="st8" x1="417.1" y1="225" x2="418.5" y2="226.4"/>
</svg>
