<?xml version="1.0" encoding="utf-8"?>
<!-- Generator: Adobe Illustrator 25.3.1, SVG Export Plug-In . SVG Version: 6.00 Build 0)  -->
<svg version="1.1" id="Layer_1" xmlns="http://www.w3.org/2000/svg" xmlns:xlink="http://www.w3.org/1999/xlink" x="0px" y="0px"
	 viewBox="0 0 587 570" style="enable-background:new 0 0 587 570;" xml:space="preserve">
<style type="text/css">
	.st0{font-family:'Times-Roman';}
	.st1{font-size:14px;}
	.st2{fill:none;stroke:#00FF00;stroke-width:3;stroke-miterlimit:10;}
	.st3{font-family:'ArialMT';}
	.st4{font-size:12px;}
	.st5{fill:none;stroke:#000000;stroke-miterlimit:10;}
	.st6{fill:none;stroke:#0000FF;stroke-width:3;stroke-miterlimit:10;}
	.st7{fill:none;stroke:#FF0000;stroke-width:3;stroke-miterlimit:10;}
	.st8{fill:none;stroke:#0000FF;stroke-miterlimit:10;}
	.st9{fill:#0000FF;}
</style>
<text transform="matrix(1 0 0 1 243.5586 523.2002)" class="st0 st1">EM_Composition</text>
<ellipse class="st2" cx="98.9" cy="490" rx="58.9" ry="18"/>
<text transform="matrix(1 0 0 1 60.0317 492.7002)"><tspan x="0" y="0" class="st3 st4">V</tspan><tspan x="7.1" y="0" class="st3 st4">ALUE INPUT</tspan></text>
<ellipse class="st2" cx="231.9" cy="490" rx="56" ry="18"/>
<text transform="matrix(1 0 0 1 195.3608 492.7002)"><tspan x="0" y="0" class="st3 st4">KE</tspan><tspan x="16" y="0" class="st3 st4">Y</tspan><tspan x="23.8" y="0" class="st3 st4"> 1 INPUT</tspan></text>
<ellipse class="st5" cx="296.9" cy="418" rx="88.2" ry="18"/>
<text transform="matrix(1 0 0 1 234.8081 420.7002)"><tspan x="0" y="0" class="st3 st4">CONC</tspan><tspan x="35.3" y="0" class="st3 st4">A</tspan><tspan x="42.4" y="0" class="st3 st4">TEN</tspan><tspan x="66.4" y="0" class="st3 st4">A</tspan><tspan x="73.6" y="0" class="st3 st4">TE KEYS</tspan></text>
<path class="st5" d="M247.7,472.6c7.9-8.8,17.7-19.6,26.5-29.3"/>
<polygon points="271.6,440.8 280.9,435.8 276.8,445.5 "/>
<polygon class="st5" points="271.6,440.8 280.9,435.8 276.8,445.5 "/>
<ellipse class="st2" cx="361.9" cy="490" rx="56" ry="18"/>
<text transform="matrix(1 0 0 1 325.3608 492.7002)"><tspan x="0" y="0" class="st3 st4">KE</tspan><tspan x="16" y="0" class="st3 st4">Y</tspan><tspan x="23.8" y="0" class="st3 st4"> 0 INPUT</tspan></text>
<path class="st5" d="M346.2,472.6c-7.9-8.8-17.7-19.6-26.5-29.3"/>
<polygon points="317.1,445.5 313,435.8 322.3,440.8 "/>
<polygon class="st5" points="317.1,445.5 313,435.8 322.3,440.8 "/>
<ellipse class="st5" cx="296.9" cy="346" rx="36.1" ry="18"/>
<text transform="matrix(1 0 0 1 276.0435 348.7002)"><tspan x="0" y="0" class="st3 st4">M</tspan><tspan x="10" y="0" class="st3 st4">A</tspan><tspan x="17.1" y="0" class="st3 st4">TCH</tspan></text>
<ellipse class="st5" cx="296.9" cy="202" rx="46.5" ry="18"/>
<text transform="matrix(1 0 0 1 267.9282 204.7007)" class="st3 st4">SOFTMAX</text>
<path class="st5" d="M277.7,330.7c-10.7-9.8-23-23.5-28.8-38.7c-5.7-15-5.7-21,0-36c4.3-11.2,12.1-21.6,20.2-30.3"/>
<polygon points="266.7,223.2 276.2,218.7 271.6,228.2 "/>
<polygon class="st5" points="266.7,223.2 276.2,218.7 271.6,228.2 "/>
<ellipse class="st6" cx="363.9" cy="274" rx="106" ry="18"/>
<text transform="matrix(1 0 0 1 287.5903 276.7002)" class="st3 st4">SOFTMAX GAIN CONTROL</text>
<path class="st5" d="M312.5,329.3c8.3-8.9,18.7-20.1,28-30.1"/>
<polygon points="337.9,296.8 347.3,291.9 343.1,301.6 "/>
<polygon class="st5" points="337.9,296.8 347.3,291.9 343.1,301.6 "/>
<path class="st5" d="M296.9,399.8c0-7.7,0-16.9,0-25.4"/>
<polygon points="293.4,374.4 296.9,364.4 300.4,374.4 "/>
<polygon class="st5" points="293.4,374.4 296.9,364.4 300.4,374.4 "/>
<ellipse class="st5" cx="296.9" cy="130" rx="88.6" ry="18"/>
<text transform="matrix(1 0 0 1 234.4741 132.7007)"><tspan x="0" y="0" class="st3 st4">WEIGH</tspan><tspan x="40.7" y="0" class="st3 st4">T</tspan><tspan x="47.8" y="0" class="st3 st4"> RETRIE</tspan><tspan x="95.1" y="0" class="st3 st4">V</tspan><tspan x="102.2" y="0" class="st3 st4">ALS</tspan></text>
<ellipse class="st7" cx="122.9" cy="58" rx="76.6" ry="18"/>
<text transform="matrix(1 0 0 1 70.022 60.7007)"><tspan x="0" y="0" class="st3 st4">KE</tspan><tspan x="16" y="0" class="st3 st4">Y</tspan><tspan x="23.8" y="0" class="st3 st4"> 1 RETRIEVED</tspan></text>
<path class="st5" d="M257.9,113.8C232,103.1,197.8,89,170.4,77.6"/>
<polygon points="168.9,80.8 161,73.7 171.5,74.3 "/>
<polygon class="st5" points="168.9,80.8 161,73.7 171.5,74.3 "/>
<ellipse class="st7" cx="296.9" cy="58" rx="79.4" ry="18"/>
<text transform="matrix(1 0 0 1 241.6929 60.7007)"><tspan x="0" y="0" class="st3 st4">V</tspan><tspan x="7.1" y="0" class="st3 st4">ALUE RETRIEVED</tspan></text>
<path class="st5" d="M296.9,111.8c0-7.7,0-16.9,0-25.4"/>
<polygon points="293.4,86.4 296.9,76.4 300.4,86.4 "/>
<polygon class="st5" points="293.4,86.4 296.9,76.4 300.4,86.4 "/>
<ellipse class="st7" cx="470.9" cy="58" rx="76.6" ry="18"/>
<text transform="matrix(1 0 0 1 418.0215 60.7007)"><tspan x="0" y="0" class="st3 st4">KE</tspan><tspan x="16" y="0" class="st3 st4">Y</tspan><tspan x="23.8" y="0" class="st3 st4"> 0 RETRIEVED</tspan></text>
<path class="st5" d="M336,113.8c25.9-10.7,60.1-24.8,87.5-36.2"/>
<polygon points="422.3,74.3 432.9,73.7 425,80.8 "/>
<polygon class="st5" points="422.3,74.3 432.9,73.7 425,80.8 "/>
<path class="st5" d="M296.9,183.8c0-7.7,0-16.9,0-25.4"/>
<polygon points="293.4,158.4 296.9,148.4 300.4,158.4 "/>
<polygon class="st5" points="293.4,158.4 296.9,148.4 300.4,158.4 "/>
<path class="st8" d="M347.4,256.2c-8.3-8.9-18.5-19.9-27.6-29.6"/>
<rect x="311.6" y="218" transform="matrix(0.7321 -0.6812 0.6812 0.7321 -66.7012 274.4595)" class="st9" width="8" height="8"/>
<rect x="311.6" y="218" transform="matrix(0.7321 -0.6812 0.6812 0.7321 -66.7012 274.4595)" class="st8" width="8" height="8"/>
<line class="st8" x1="318.3" y1="225" x2="319.7" y2="226.4"/>
</svg>
