<?xml version="1.0" encoding="UTF-8"?>
<svg id="Layer_1" data-name="Layer 1" xmlns="http://www.w3.org/2000/svg" xmlns:xlink="http://www.w3.org/1999/xlink" viewBox="0 0 1274.27 438.9">
  <defs>
    <style>
      .cls-1, .cls-2, .cls-3, .cls-4 {
        fill: none;
      }

      .cls-5 {
        font-family: ArialMT, Arial;
        font-size: 12.33px;
      }

      .cls-6 {
        font-family: TimesNewRomanPSMT, 'Times New Roman';
        font-size: 14.39px;
      }

      .cls-7 {
        fill: #fff;
      }

      .cls-2 {
        stroke: lime;
      }

      .cls-2, .cls-3, .cls-4 {
        stroke-miterlimit: 10;
      }

      .cls-2, .cls-4 {
        stroke-width: 3px;
      }

      .cls-3 {
        stroke: #000;
      }

      .cls-4 {
        stroke: red;
      }

      .cls-8 {
        clip-path: url(#clippath);
      }
    </style>
    <clipPath id="clippath">
      <rect class="cls-1" width="1274.27" height="438.9"/>
    </clipPath>
  </defs>
  <g class="cls-8">
    <rect class="cls-7" width="1274.27" height="438.9"/>
    <text class="cls-6" transform="translate(585.23 426.77)"><tspan x="0" y="0">EM_Composition</tspan></text>
    <path class="cls-2" d="M1025.23,392.64c0,10.22-21.43,18.5-47.87,18.5s-47.87-8.28-47.87-18.5,21.43-18.5,47.87-18.5,47.87,8.28,47.87,18.5"/>
    <text class="cls-5" transform="translate(946.52 395.83)"><tspan x="0" y="0">3</tspan></text>
    <text class="cls-5" transform="translate(956.81 395.83)"><tspan x="0" y="0">[QUERY]</tspan></text>
    <path class="cls-3" d="M1148.91,318.64c0,10.22-35.39,18.5-79.04,18.5s-79.04-8.28-79.04-18.5,35.39-18.5,79.04-18.5,79.04,8.28,79.04,18.5"/>
    <text class="cls-5" transform="translate(1013.85 321.83)"><tspan x="0" y="0">3</tspan></text>
    <text class="cls-5" transform="translate(1024.13 321.83)"><tspan x="0" y="0">[MATCH</tspan></text>
    <text class="cls-5" transform="translate(1074.8 321.83)"><tspan x="0" y="0">to</tspan></text>
    <text class="cls-5" transform="translate(1088.5 321.83)"><tspan x="0" y="0">KEYS]</tspan></text>
    <path class="cls-3" d="M998.35,375.85c12.19-9.74,27.74-22.19,41.23-32.98"/>
    <polygon points="1037.39 340.01 1047.67 336.4 1041.89 345.63 1037.39 340.01"/>
    <polygon class="cls-3" points="1037.39 340.01 1047.67 336.4 1041.89 345.63 1037.39 340.01"/>
    <path class="cls-3" d="M674.05,318.64c0,10.22-16.53,18.5-36.91,18.5s-36.91-8.28-36.91-18.5,16.53-18.5,36.91-18.5,36.91,8.28,36.91,18.5"/>
    <text class="cls-5" transform="translate(615.55 321.83)"><tspan x="0" y="0">STORE</tspan></text>
    <path class="cls-3" d="M931.39,386.78c-58.42-8.09-161.99-24.58-248-49.64-2.71-.79-5.48-1.68-8.25-2.63"/>
    <polygon points="673.62 337.79 665.21 330.87 676.1 331.03 673.62 337.79"/>
    <polygon class="cls-3" points="673.62 337.79 665.21 330.87 676.1 331.03 673.62 337.79"/>
    <path class="cls-2" d="M751.82,392.64c0,10.22-21.43,18.5-47.87,18.5s-47.87-8.28-47.87-18.5,21.43-18.5,47.87-18.5,47.87,8.28,47.87,18.5"/>
    <text class="cls-5" transform="translate(673.11 395.83)"><tspan x="0" y="0">2</tspan></text>
    <text class="cls-5" transform="translate(683.4 395.83)"><tspan x="0" y="0">[QUERY]</tspan></text>
    <path class="cls-3" d="M850.82,318.64c0,10.22-35.39,18.5-79.04,18.5s-79.04-8.28-79.04-18.5,35.39-18.5,79.04-18.5,79.04,8.28,79.04,18.5"/>
    <text class="cls-5" transform="translate(715.77 321.83)"><tspan x="0" y="0">2</tspan></text>
    <text class="cls-5" transform="translate(726.05 321.83)"><tspan x="0" y="0">[MATCH</tspan></text>
    <text class="cls-5" transform="translate(776.72 321.83)"><tspan x="0" y="0">to</tspan></text>
    <text class="cls-5" transform="translate(790.42 321.83)"><tspan x="0" y="0">KEYS]</tspan></text>
    <path class="cls-3" d="M720.02,375.11c8.35-9.11,18.71-20.41,27.97-30.51"/>
    <polygon points="745.52 341.97 755.12 336.82 750.82 346.83 745.52 341.97"/>
    <polygon class="cls-3" points="745.52 341.97 755.12 336.82 750.82 346.83 745.52 341.97"/>
    <path class="cls-3" d="M688.11,375.11c-8.61-9.54-19.4-21.49-28.83-31.93"/>
    <polygon points="656.61 345.58 652.39 335.54 661.95 340.76 656.61 345.58"/>
    <polygon class="cls-3" points="656.61 345.58 652.39 335.54 661.95 340.76 656.61 345.58"/>
    <path class="cls-2" d="M593.52,392.64c0,10.22-21.43,18.5-47.87,18.5s-47.87-8.28-47.87-18.5,21.43-18.5,47.87-18.5,47.87,8.28,47.87,18.5"/>
    <text class="cls-5" transform="translate(514.82 395.83)"><tspan x="0" y="0">1</tspan></text>
    <text class="cls-5" transform="translate(525.1 395.83)"><tspan x="0" y="0">[QUERY]</tspan></text>
    <path class="cls-3" d="M581.52,318.64c0,10.22-35.39,18.5-79.04,18.5s-79.04-8.28-79.04-18.5,35.39-18.5,79.04-18.5,79.04,8.28,79.04,18.5"/>
    <text class="cls-5" transform="translate(446.47 321.83)"><tspan x="0" y="0">1</tspan></text>
    <text class="cls-5" transform="translate(456.75 321.83)"><tspan x="0" y="0">[MATCH</tspan></text>
    <text class="cls-5" transform="translate(507.42 321.83)"><tspan x="0" y="0">to</tspan></text>
    <text class="cls-5" transform="translate(521.12 321.83)"><tspan x="0" y="0">KEYS]</tspan></text>
    <path class="cls-3" d="M534.98,374.35c-4.98-8.54-11.01-18.88-16.53-28.33"/>
    <polygon points="515.25 347.67 513.18 336.98 521.47 344.04 515.25 347.67"/>
    <polygon class="cls-3" points="515.25 347.67 513.18 336.98 521.47 344.04 515.25 347.67"/>
    <path class="cls-3" d="M566.41,375.85c12.75-10.31,29.23-23.65,43.07-34.84"/>
    <polygon points="607.46 338.02 617.71 334.35 611.98 343.62 607.46 338.02"/>
    <polygon class="cls-3" points="607.46 338.02 617.71 334.35 611.98 343.62 607.46 338.02"/>
    <path class="cls-2" d="M386.92,392.64c0,10.22-21.43,18.5-47.87,18.5s-47.87-8.28-47.87-18.5,21.43-18.5,47.87-18.5,47.87,8.28,47.87,18.5"/>
    <text class="cls-5" transform="translate(308.22 395.83)"><tspan x="0" y="0">0</tspan></text>
    <text class="cls-5" transform="translate(318.5 395.83)"><tspan x="0" y="0">[QUERY]</tspan></text>
    <path class="cls-3" d="M283.44,318.64c0,10.22-35.39,18.5-79.04,18.5s-79.04-8.28-79.04-18.5,35.39-18.5,79.04-18.5,79.04,8.28,79.04,18.5"/>
    <text class="cls-5" transform="translate(148.39 321.83)"><tspan x="0" y="0">0</tspan></text>
    <text class="cls-5" transform="translate(158.67 321.83)"><tspan x="0" y="0">[MATCH</tspan></text>
    <text class="cls-5" transform="translate(209.34 321.83)"><tspan x="0" y="0">to</tspan></text>
    <text class="cls-5" transform="translate(223.04 321.83)"><tspan x="0" y="0">KEYS]</tspan></text>
    <path class="cls-3" d="M311.15,377.31c-19.19-10.55-44.98-24.72-66.4-36.5"/>
    <polygon points="242.84 343.87 235.56 335.76 246.3 337.56 242.84 343.87"/>
    <polygon class="cls-3" points="242.84 343.87 235.56 335.76 246.3 337.56 242.84 343.87"/>
    <path class="cls-3" d="M383.29,385.16c50.74-9.1,136.14-26.02,207.59-48.02,2.79-.86,5.65-1.82,8.51-2.82"/>
    <polygon points="598.13 330.95 609.02 330.73 600.64 337.69 598.13 330.95"/>
    <polygon class="cls-3" points="598.13 330.95 609.02 330.73 600.64 337.69 598.13 330.95"/>
    <path class="cls-3" d="M295.67,244.63c0,10.22-40.86,18.5-91.26,18.5s-91.26-8.28-91.26-18.5,40.86-18.5,91.26-18.5,91.26,8.28,91.26,18.5"/>
    <text class="cls-5" transform="translate(138.62 247.82)"><tspan x="0" y="0">0</tspan></text>
    <text class="cls-5" transform="translate(148.91 247.82)"><tspan x="0" y="0">[WEIGHTED</tspan></text>
    <text class="cls-5" transform="translate(222.15 247.82)"><tspan x="0" y="0">MATCH]</tspan></text>
    <path class="cls-3" d="M204.4,299.96v-26.12"/>
    <polygon points="200.81 273.84 204.4 263.56 208 273.84 200.81 273.84"/>
    <polygon class="cls-3" points="200.81 273.84 204.4 263.56 208 273.84 200.81 273.84"/>
    <path class="cls-3" d="M722.66,170.63c0,10.22-38.29,18.5-85.53,18.5s-85.53-8.28-85.53-18.5,38.29-18.5,85.53-18.5,85.53,8.28,85.53,18.5"/>
    <text class="cls-5" transform="translate(575.98 173.81)"><tspan x="0" y="0">COMBINE</tspan></text>
    <text class="cls-5" transform="translate(636.92 173.81)"><tspan x="0" y="0">MATCHES</tspan></text>
    <path class="cls-3" d="M274.41,232.66c78.22-13.38,204.49-34.97,285.52-48.83"/>
    <polygon points="559.34 180.28 570.08 182.09 560.55 187.37 559.34 180.28"/>
    <polygon class="cls-3" points="559.34 180.28 570.08 182.09 560.55 187.37 559.34 180.28"/>
    <path class="cls-3" d="M106.48,318.64c0,10.22-22.89,18.5-51.11,18.5s-51.11-8.28-51.11-18.5,22.88-18.5,51.11-18.5,51.11,8.28,51.11,18.5"/>
    <text class="cls-5" transform="translate(21.96 321.83)"><tspan x="0" y="0">0</tspan></text>
    <text class="cls-5" transform="translate(32.24 321.83)"><tspan x="0" y="0">[WEIGHT]</tspan></text>
    <path class="cls-3" d="M85.53,303.66c21.55-10.7,50.88-25.27,75.02-37.25"/>
    <polygon points="159.05 263.14 169.85 261.79 162.25 269.58 159.05 263.14"/>
    <polygon class="cls-3" points="159.05 263.14 169.85 261.79 162.25 269.58 159.05 263.14"/>
    <path class="cls-3" d="M685.76,96.62c0,10.22-21.77,18.5-48.62,18.5s-48.62-8.28-48.62-18.5,21.77-18.5,48.62-18.5,48.62,8.28,48.62,18.5"/>
    <text class="cls-5" transform="translate(605.79 99.81)"><tspan x="0" y="0">RETRIEVE</tspan></text>
    <path class="cls-3" d="M637.14,151.95v-26.12"/>
    <polygon points="633.54 125.83 637.14 115.55 640.73 125.83 633.54 125.83"/>
    <polygon class="cls-3" points="633.54 125.83 637.14 115.55 640.73 125.83 633.54 125.83"/>
    <path class="cls-3" d="M593.75,244.63c0,10.22-40.86,18.5-91.26,18.5s-91.26-8.28-91.26-18.5,40.86-18.5,91.26-18.5,91.26,8.28,91.26,18.5"/>
    <text class="cls-5" transform="translate(436.7 247.82)"><tspan x="0" y="0">1</tspan></text>
    <text class="cls-5" transform="translate(446.99 247.82)"><tspan x="0" y="0">[WEIGHTED</tspan></text>
    <text class="cls-5" transform="translate(520.23 247.82)"><tspan x="0" y="0">MATCH]</tspan></text>
    <path class="cls-3" d="M534.39,227.09c18.53-10.19,42.07-23.12,61.93-34.04"/>
    <polygon points="594.71 189.84 605.45 188.04 598.18 196.14 594.71 189.84"/>
    <polygon class="cls-3" points="594.71 189.84 605.45 188.04 598.18 196.14 594.71 189.84"/>
    <path class="cls-3" d="M863.05,244.63c0,10.22-40.86,18.5-91.26,18.5s-91.26-8.28-91.26-18.5,40.86-18.5,91.26-18.5,91.26,8.28,91.26,18.5"/>
    <text class="cls-5" transform="translate(706 247.82)"><tspan x="0" y="0">2</tspan></text>
    <text class="cls-5" transform="translate(716.29 247.82)"><tspan x="0" y="0">[WEIGHTED</tspan></text>
    <text class="cls-5" transform="translate(789.53 247.82)"><tspan x="0" y="0">MATCH]</tspan></text>
    <path class="cls-3" d="M739.87,227.09c-18.53-10.19-42.06-23.12-61.93-34.04"/>
    <polygon points="676.09 196.14 668.82 188.04 679.56 189.84 676.09 196.14"/>
    <polygon class="cls-3" points="676.09 196.14 668.82 188.04 679.56 189.84 676.09 196.14"/>
    <path class="cls-3" d="M1161.13,244.63c0,10.22-40.86,18.5-91.26,18.5s-91.26-8.28-91.26-18.5,40.86-18.5,91.26-18.5,91.26,8.28,91.26,18.5"/>
    <text class="cls-5" transform="translate(1004.08 247.82)"><tspan x="0" y="0">3</tspan></text>
    <text class="cls-5" transform="translate(1014.37 247.82)"><tspan x="0" y="0">[WEIGHTED</tspan></text>
    <text class="cls-5" transform="translate(1087.61 247.82)"><tspan x="0" y="0">MATCH]</tspan></text>
    <path class="cls-3" d="M999.86,232.66c-78.22-13.38-204.49-34.97-285.53-48.83"/>
    <polygon points="713.72 187.37 704.19 182.09 714.93 180.28 713.72 187.37"/>
    <polygon class="cls-3" points="713.72 187.37 704.19 182.09 714.93 180.28 713.72 187.37"/>
    <path class="cls-3" d="M502.49,299.96v-26.12"/>
    <polygon points="498.89 273.84 502.49 263.56 506.08 273.84 498.89 273.84"/>
    <polygon class="cls-3" points="498.89 273.84 502.49 263.56 506.08 273.84 498.89 273.84"/>
    <path class="cls-3" d="M404.56,318.64c0,10.22-22.89,18.5-51.11,18.5s-51.11-8.28-51.11-18.5,22.88-18.5,51.11-18.5,51.11,8.28,51.11,18.5"/>
    <text class="cls-5" transform="translate(320.04 321.83)"><tspan x="0" y="0">1</tspan></text>
    <text class="cls-5" transform="translate(330.32 321.83)"><tspan x="0" y="0">[WEIGHT]</tspan></text>
    <path class="cls-3" d="M383.61,303.66c21.55-10.7,50.88-25.27,75.02-37.25"/>
    <polygon points="457.13 263.14 467.93 261.79 460.33 269.58 457.13 263.14"/>
    <polygon class="cls-3" points="457.13 263.14 467.93 261.79 460.33 269.58 457.13 263.14"/>
    <path class="cls-3" d="M771.79,299.96v-26.12"/>
    <polygon points="768.19 273.84 771.79 263.56 775.38 273.84 768.19 273.84"/>
    <polygon class="cls-3" points="768.19 273.84 771.79 263.56 775.38 273.84 768.19 273.84"/>
    <path class="cls-3" d="M971.94,318.64c0,10.22-22.89,18.5-51.11,18.5s-51.11-8.28-51.11-18.5,22.88-18.5,51.11-18.5,51.11,8.28,51.11,18.5"/>
    <text class="cls-5" transform="translate(887.42 321.83)"><tspan x="0" y="0">2</tspan></text>
    <text class="cls-5" transform="translate(897.71 321.83)"><tspan x="0" y="0">[WEIGHT]</tspan></text>
    <path class="cls-3" d="M890.67,303.66c-21.55-10.7-50.88-25.27-75.02-37.25"/>
    <polygon points="813.95 269.58 806.34 261.79 817.15 263.14 813.95 269.58"/>
    <polygon class="cls-3" points="813.95 269.58 806.34 261.79 817.15 263.14 813.95 269.58"/>
    <path class="cls-3" d="M1069.87,299.96v-26.12"/>
    <polygon points="1066.27 273.84 1069.87 263.56 1073.46 273.84 1066.27 273.84"/>
    <polygon class="cls-3" points="1066.27 273.84 1069.87 263.56 1073.46 273.84 1066.27 273.84"/>
    <path class="cls-3" d="M1270.02,318.64c0,10.22-22.89,18.5-51.11,18.5s-51.11-8.28-51.11-18.5,22.88-18.5,51.11-18.5,51.11,8.28,51.11,18.5"/>
    <text class="cls-5" transform="translate(1185.5 321.83)"><tspan x="0" y="0">3</tspan></text>
    <text class="cls-5" transform="translate(1195.79 321.83)"><tspan x="0" y="0">[WEIGHT]</tspan></text>
    <path class="cls-3" d="M1188.75,303.66c-21.55-10.7-50.88-25.27-75.02-37.25"/>
    <polygon points="1112.03 269.58 1104.42 261.79 1115.23 263.14 1112.03 269.58"/>
    <polygon class="cls-3" points="1112.03 269.58 1104.42 261.79 1115.23 263.14 1112.03 269.58"/>
    <path class="cls-4" d="M479.44,22.61c0,10.22-28.8,18.5-64.32,18.5s-64.33-8.28-64.33-18.5,28.8-18.5,64.33-18.5,64.32,8.28,64.32,18.5"/>
    <text class="cls-5" transform="translate(370.92 25.8)"><tspan x="0" y="0">0</tspan></text>
    <text class="cls-5" transform="translate(381.2 25.8)"><tspan x="0" y="0">[RETRIEVED]</tspan></text>
    <path class="cls-3" d="M600.47,84.4c-36.3-12.1-92.22-30.74-133.15-44.38"/>
    <polygon points="466.14 43.41 457.52 36.75 468.41 36.59 466.14 43.41"/>
    <polygon class="cls-3" points="466.14 43.41 457.52 36.75 468.41 36.59 466.14 43.41"/>
    <path class="cls-4" d="M627.45,22.61c0,10.22-28.8,18.5-64.32,18.5s-64.33-8.28-64.33-18.5,28.8-18.5,64.33-18.5,64.32,8.28,64.32,18.5"/>
    <text class="cls-5" transform="translate(518.93 25.8)"><tspan x="0" y="0">1</tspan></text>
    <text class="cls-5" transform="translate(529.22 25.8)"><tspan x="0" y="0">[RETRIEVED]</tspan></text>
    <path class="cls-3" d="M619.6,79.08c-9.27-9.27-20.81-20.81-31.04-31.03"/>
    <polygon points="585.78 50.35 581.06 40.54 590.87 45.26 585.78 50.35"/>
    <polygon class="cls-3" points="585.78 50.35 581.06 40.54 590.87 45.26 585.78 50.35"/>
    <path class="cls-4" d="M775.46,22.61c0,10.22-28.8,18.5-64.32,18.5s-64.33-8.28-64.33-18.5,28.8-18.5,64.33-18.5,64.32,8.28,64.32,18.5"/>
    <text class="cls-5" transform="translate(666.94 25.8)"><tspan x="0" y="0">2</tspan></text>
    <text class="cls-5" transform="translate(677.23 25.8)"><tspan x="0" y="0">[RETRIEVED]</tspan></text>
    <path class="cls-3" d="M654.67,79.08c9.26-9.27,20.81-20.81,31.03-31.03"/>
    <polygon points="683.4 45.26 693.22 40.54 688.49 50.35 683.4 45.26"/>
    <polygon class="cls-3" points="683.4 45.26 693.22 40.54 688.49 50.35 683.4 45.26"/>
    <path class="cls-4" d="M923.48,22.61c0,10.22-28.8,18.5-64.32,18.5s-64.33-8.28-64.33-18.5,28.8-18.5,64.33-18.5,64.32,8.28,64.32,18.5"/>
    <text class="cls-5" transform="translate(814.96 25.8)"><tspan x="0" y="0">3</tspan></text>
    <text class="cls-5" transform="translate(825.24 25.8)"><tspan x="0" y="0">[RETRIEVED]</tspan></text>
    <path class="cls-3" d="M673.8,84.4c36.3-12.1,92.22-30.74,133.15-44.38"/>
    <polygon points="805.85 36.59 816.74 36.75 808.13 43.41 805.85 36.59"/>
    <polygon class="cls-3" points="805.85 36.59 816.74 36.75 808.13 43.41 805.85 36.59"/>
  </g>
</svg>