<svg id="Layer_1" data-name="Layer 1" xmlns="http://www.w3.org/2000/svg" viewBox="0 0 283.426 361.663"><defs><style>.cls-1{font-size:14px;font-family:Times-Roman, Times;}.cls-2,.cls-4,.cls-5,.cls-8,.cls-9{fill:none;stroke-miterlimit:10;}.cls-2{stroke:lime;}.cls-2,.cls-5,.cls-8{stroke-width:3px;}.cls-3{font-size:12px;font-family:ArialMT, Arial;}.cls-4{stroke:#000;}.cls-5,.cls-9{stroke:blue;}.cls-6{letter-spacing:-0.074em;}.cls-7{letter-spacing:-0.074em;}.cls-8{stroke:red;}.cls-10{fill:blue;}</style></defs><text class="cls-1" transform="translate(89.118 355.668)">GRU Composition</text><ellipse class="cls-2" cx="149.675" cy="322.467" rx="32.842" ry="18"/><text class="cls-3" transform="translate(131.675 325.168)">INPUT</text><circle class="cls-4" cx="188.088" cy="275.358" r="27.766" transform="translate(-67.335 -16.365) rotate(-6.264)"/><circle class="cls-4" cx="188.088" cy="275.358" r="31.784" transform="matrix(0.99, -0.139, 0.139, 0.99, -74.787, -9.783)"/><text class="cls-3" transform="translate(135.678 239.526)">NEW</text><path class="cls-4" d="M188.088,342.838V317.356" transform="translate(-38.412 -38.533)"/><polygon points="146.176 278.799 149.675 268.799 153.176 278.799 146.176 278.799"/><polygon class="cls-4" points="146.176 278.799 149.675 268.799 153.176 278.799 146.176 278.799"/><polygon class="cls-5" points="77.851 26.956 77.851 12.044 55.488 1.5 23.863 1.5 1.5 12.044 1.5 26.956 23.863 37.5 55.488 37.5 77.851 26.956"/><text class="cls-3" transform="translate(19.672 22.2)">RESET</text><path class="cls-4" d="M173.1,344.656c-23.148-26.439-66.73-81.27-84.013-136.939C76.44,166.98,75.47,117.136,76.414,86.489" transform="translate(-38.412 -38.533)"/><polygon points="34.505 47.816 38.4 37.964 41.499 48.095 34.505 47.816"/><polygon class="cls-4" points="34.505 47.816 38.4 37.964 41.499 48.095 34.505 47.816"/><polygon class="cls-5" points="281.926 26.956 281.926 12.044 256.591 1.5 220.76 1.5 195.425 12.044 195.425 26.956 220.76 37.5 256.591 37.5 281.926 26.956"/><text class="cls-3" transform="translate(214.784 22.2)">UPD<tspan class="cls-6" x="25.336" y="0">A</tspan><tspan x="32.452" y="0">TE</tspan></text><path class="cls-4" d="M202.877,344.447C211.43,334.218,221.89,320.5,229.088,307c38.8-72.8,46.515-172.432,47.865-220.6" transform="translate(-38.412 -38.533)"/><polygon points="235.047 47.511 238.752 37.585 242.046 47.655 235.047 47.511"/><polygon class="cls-4" points="235.047 47.511 238.752 37.585 242.046 47.655 235.047 47.511"/><circle class="cls-4" cx="149.675" cy="121.342" r="43.698"/><circle class="cls-4" cx="188.088" cy="159.875" r="47.685" transform="translate(-70.112 8.958) rotate(-13.283)"/><text class="cls-3" transform="translate(126.675 117.143)">HIDDEN</text><text class="cls-3" transform="translate(130.445 130.942)">L<tspan class="cls-7" x="6.674" y="0">A</tspan><tspan x="13.79" y="0">YER</tspan></text><path class="cls-4" d="M182.013,244.107c-.446-8.154-.672-17.207-.675-26.268" transform="translate(-38.412 -38.533)"/><polygon points="139.427 179.09 143.016 169.121 146.427 179.152 139.427 179.09"/><polygon class="cls-4" points="139.427 179.09 143.016 169.121 146.427 179.152 139.427 179.09"/><path class="cls-4" d="M194.747,207.654c.16,8.747.108,17.809-.157,26.35" transform="translate(-38.412 -38.533)"/><polygon points="159.67 195.731 155.75 205.574 152.676 195.435 159.67 195.731"/><polygon class="cls-4" points="159.67 195.731 155.75 205.574 152.676 195.435 159.67 195.731"/><path class="cls-4" d="M232.4,178.51c12.2-.9,21.53-7.112,21.53-18.635,0-8.1-4.611-13.579-11.591-16.43" transform="translate(-38.412 -38.533)"/><polygon points="202.991 108.29 193.988 102.706 204.508 101.457 202.991 108.29"/><polygon class="cls-4" points="202.991 108.29 193.988 102.706 204.508 101.457 202.991 108.29"/><path class="cls-4" d="M152.98,127.371,104.252,82.256" transform="translate(-38.412 -38.533)"/><polygon points="63.13 45.984 58.169 36.622 67.885 40.848 63.13 45.984"/><polygon class="cls-4" points="63.13 45.984 58.169 36.622 67.885 40.848 63.13 45.984"/><path class="cls-4" d="M211.487,117.863a485.084,485.084,0,0,1,34.119-36.949" transform="translate(-38.412 -38.533)"/><polygon points="205.107 39.541 214.803 35.27 209.887 44.655 205.107 39.541"/><polygon class="cls-4" points="205.107 39.541 214.803 35.27 209.887 44.655 205.107 39.541"/><ellipse class="cls-8" cx="136.675" cy="19.5" rx="41.091" ry="18"/><text class="cls-3" transform="translate(112.01 22.2)">OUTPUT</text><path class="cls-4" d="M182.006,112.234c-1.139-8.927-2.3-17.989-3.329-26.082" transform="translate(-38.412 -38.533)"/><polygon points="136.784 47.993 138.99 37.63 143.728 47.107 136.784 47.993"/><polygon class="cls-4" points="136.784 47.993 138.99 37.63 143.728 47.107 136.784 47.993"/><path class="cls-9" d="M82.323,76.449c7.2,29.183,23.549,87.254,48.765,131.268,7.556,13.188,17.789,26.29,27.5,37.4" transform="translate(-38.412 -38.533)"/><rect class="cls-10" x="158.847" y="245.854" width="8" height="8" transform="translate(-163.716 134.411) rotate(-41.961)"/><rect class="cls-9" x="158.847" y="245.854" width="8" height="8" transform="translate(-163.716 134.411) rotate(-41.961)"/><line class="cls-9" x1="121.761" y1="208.347" x2="120.424" y2="206.859"/><path class="cls-9" d="M261.287,76.113,226.435,116" transform="translate(-38.412 -38.533)"/><rect class="cls-10" x="218.348" y="116.67" width="8" height="8" transform="translate(-53.24 170.157) rotate(-48.85)"/><rect class="cls-9" x="218.348" y="116.67" width="8" height="8" transform="translate(-53.24 170.157) rotate(-48.85)"/><line class="cls-9" x1="186.568" y1="79.126" x2="187.885" y2="77.62"/><path class="cls-9" d="M271.819,76.223c-8.618,12.924-23.373,30.73-38.3,46.593" transform="translate(-38.412 -38.533)"/><rect class="cls-10" x="224.976" y="123.536" width="8" height="8" transform="translate(-60.11 165.539) rotate(-46.096)"/><rect class="cls-9" x="224.976" y="123.536" width="8" height="8" transform="translate(-60.11 165.539) rotate(-46.096)"/><line class="cls-9" x1="193.338" y1="86.121" x2="194.725" y2="84.68"/></svg>