<?xml version="1.0" encoding="UTF-8" standalone="no"?>
<svg
   xmlns:dc="http://purl.org/dc/elements/1.1/"
   xmlns:cc="http://creativecommons.org/ns#"
   xmlns:rdf="http://www.w3.org/1999/02/22-rdf-syntax-ns#"
   xmlns:svg="http://www.w3.org/2000/svg"
   xmlns="http://www.w3.org/2000/svg"
   viewBox="0 0 816 1056"
   height="1056"
   width="816"
   xml:space="preserve"
   id="svg2"
   version="1.1"><metadata
     id="metadata8"><rdf:RDF><cc:Work
         rdf:about=""><dc:format>image/svg+xml</dc:format><dc:type
           rdf:resource="http://purl.org/dc/dcmitype/StillImage" /></cc:Work></rdf:RDF></metadata><defs
     id="defs6"><clipPath
       id="clipPath20"
       clipPathUnits="userSpaceOnUse"><path
         id="path18"
         d="M 75,0 H 537 V 792 H 75 Z" /></clipPath></defs><g
     transform="matrix(1.3333333,0,0,-1.3333333,0,1056)"
     id="g10"><g
       id="g12" /><g
       id="g14"><g
         clip-path="url(#clipPath20)"
         id="g16"><g
           transform="matrix(2.712329,0,0,2.712329,183.4932,108.4932)"
           id="g22"><path
             id="path24"
             style="fill:none;stroke:#00ff00;stroke-width:3;stroke-linecap:butt;stroke-linejoin:round;stroke-miterlimit:1;stroke-dasharray:none;stroke-opacity:1"
             d="M 0,0.5 V 87.69531 H 90.71289 V 0.5 Z" /></g><g
           transform="matrix(2.712329,0,0,2.712329,183.4932,108.4932)"
           id="g26"><text
             id="text30"
             style="font-variant:normal;font-weight:normal;font-size:12px;font-family:ArialMT;-inkscape-font-specification:ArialMT;writing-mode:lr-tb;fill:#000000;fill-opacity:1;fill-rule:nonzero;stroke:none"
             transform="matrix(1,0,0,-1,8,74.09531)"><tspan
               id="tspan28"
               y="0"
               x="0 9.3336 16.007999 19.3416 26.016001 32.690399 36.023998 44.028 47.361599 54.035999 57.369598 64.043999 68.040001">OutputPort-0</tspan></text>
</g><g
           transform="matrix(2.712329,0,0,2.712329,183.4932,108.4932)"
           id="g32"><path
             id="path34"
             style="fill:none;stroke:#00ff00;stroke-width:3;stroke-linecap:butt;stroke-linejoin:round;stroke-miterlimit:1;stroke-dasharray:none;stroke-opacity:1"
             d="M 0,65.89648 H 90.71289" /></g><g
           transform="matrix(2.712329,0,0,2.712329,183.4932,108.4932)"
           id="g36"><text
             id="text40"
             style="font-variant:normal;font-weight:normal;font-size:12px;font-family:ArialMT;-inkscape-font-specification:ArialMT;writing-mode:lr-tb;fill:#000000;fill-opacity:1;fill-rule:nonzero;stroke:none"
             transform="matrix(1,0,0,-1,9,41.39707)"><tspan
               id="tspan38"
               y="0"
               x="0">A</tspan></text>
</g><g
           transform="matrix(2.712329,0,0,2.712329,183.4932,108.4932)"
           id="g42"><path
             id="path44"
             style="fill:none;stroke:#00ff00;stroke-width:3;stroke-linecap:butt;stroke-linejoin:round;stroke-miterlimit:1;stroke-dasharray:none;stroke-opacity:1"
             d="M 26.00391,22.29883 V 65.89648" /></g><g
           transform="matrix(2.712329,0,0,2.712329,183.4932,108.4932)"
           id="g46"><text
             id="text50"
             style="font-variant:normal;font-weight:normal;font-size:12px;font-family:ArialMT;-inkscape-font-specification:ArialMT;writing-mode:lr-tb;fill:#000000;fill-opacity:1;fill-rule:nonzero;stroke:none"
             transform="matrix(1,0,0,-1,35.00391,52.29648)"><tspan
               id="tspan48"
               y="0"
               x="0 2.6664 9.3408003 12.6744 19.348801 23.344801 29.344801 36.019199 42.6936">intercept</tspan></text>
</g><g
           transform="matrix(2.712329,0,0,2.712329,183.4932,108.4932)"
           id="g52"><path
             id="path54"
             style="fill:none;stroke:#00ff00;stroke-width:3;stroke-linecap:butt;stroke-linejoin:round;stroke-miterlimit:1;stroke-dasharray:none;stroke-opacity:1"
             d="M 26.00391,44.09766 H 90.0293" /></g><g
           transform="matrix(2.712329,0,0,2.712329,183.4932,108.4932)"
           id="g56"><text
             id="text60"
             style="font-variant:normal;font-weight:normal;font-size:12px;font-family:ArialMT;-inkscape-font-specification:ArialMT;writing-mode:lr-tb;fill:#000000;fill-opacity:1;fill-rule:nonzero;stroke:none"
             transform="matrix(1,0,0,-1,43.67285,30.49766)"><tspan
               id="tspan58"
               y="0"
               x="0 6 8.6664 15.3408 22.0152">slope</tspan></text>
</g><g
           transform="matrix(2.712329,0,0,2.712329,183.4932,108.4932)"
           id="g62"><path
             id="path64"
             style="fill:none;stroke:#00ff00;stroke-width:3;stroke-linecap:butt;stroke-linejoin:round;stroke-miterlimit:1;stroke-dasharray:none;stroke-opacity:1"
             d="M 0,22.29883 H 90.71289" /></g><g
           transform="matrix(2.712329,0,0,2.712329,183.4932,108.4932)"
           id="g66"><text
             id="text70"
             style="font-variant:normal;font-weight:normal;font-size:12px;font-family:ArialMT;-inkscape-font-specification:ArialMT;writing-mode:lr-tb;fill:#000000;fill-opacity:1;fill-rule:nonzero;stroke:none"
             transform="matrix(1,0,0,-1,12.5,8.698828)"><tspan
               id="tspan68"
               y="0"
               x="0 3.3336 10.008 16.6824 23.3568 26.690399 34.694401 38.028 44.7024 48.035999 54.7104 58.706402">InputPort-0</tspan></text>
</g><g
           transform="matrix(2.712329,0,0,2.712329,183.4932,108.4932)"
           id="g72"><path
             id="path74"
             style="fill:none;stroke:#ff0000;stroke-width:3;stroke-linecap:butt;stroke-linejoin:round;stroke-miterlimit:1;stroke-dasharray:none;stroke-opacity:1"
             d="m 0,124.6953 v 87.1953 h 90.71289 v -87.1953 z" /></g><g
           transform="matrix(2.712329,0,0,2.712329,183.4932,108.4932)"
           id="g76"><text
             id="text80"
             style="font-variant:normal;font-weight:normal;font-size:12px;font-family:ArialMT;-inkscape-font-specification:ArialMT;writing-mode:lr-tb;fill:#000000;fill-opacity:1;fill-rule:nonzero;stroke:none"
             transform="matrix(1,0,0,-1,8,198.2906)"><tspan
               id="tspan78"
               y="0"
               x="0 9.3336 16.007999 19.3416 26.016001 32.690399 36.023998 44.028 47.361599 54.035999 57.369598 64.043999 68.040001">OutputPort-0</tspan></text>
</g><g
           transform="matrix(2.712329,0,0,2.712329,183.4932,108.4932)"
           id="g82"><path
             id="path84"
             style="fill:none;stroke:#ff0000;stroke-width:3;stroke-linecap:butt;stroke-linejoin:round;stroke-miterlimit:1;stroke-dasharray:none;stroke-opacity:1"
             d="M 0,190.0918 H 90.71289" /></g><g
           transform="matrix(2.712329,0,0,2.712329,183.4932,108.4932)"
           id="g86"><text
             id="text90"
             style="font-variant:normal;font-weight:normal;font-size:12px;font-family:ArialMT;-inkscape-font-specification:ArialMT;writing-mode:lr-tb;fill:#000000;fill-opacity:1;fill-rule:nonzero;stroke:none"
             transform="matrix(1,0,0,-1,9,165.5924)"><tspan
               id="tspan88"
               y="0"
               x="0">B</tspan></text>
</g><g
           transform="matrix(2.712329,0,0,2.712329,183.4932,108.4932)"
           id="g92"><path
             id="path94"
             style="fill:none;stroke:#ff0000;stroke-width:3;stroke-linecap:butt;stroke-linejoin:round;stroke-miterlimit:1;stroke-dasharray:none;stroke-opacity:1"
             d="m 26.00391,146.4941 v 43.5977" /></g><g
           transform="matrix(2.712329,0,0,2.712329,183.4932,108.4932)"
           id="g96"><text
             id="text100"
             style="font-variant:normal;font-weight:normal;font-size:12px;font-family:ArialMT;-inkscape-font-specification:ArialMT;writing-mode:lr-tb;fill:#000000;fill-opacity:1;fill-rule:nonzero;stroke:none"
             transform="matrix(1,0,0,-1,35.00391,176.4918)"><tspan
               id="tspan98"
               y="0"
               x="0 2.6664 9.3408003 12.6744 19.348801 23.344801 29.344801 36.019199 42.6936">intercept</tspan></text>
</g><g
           transform="matrix(2.712329,0,0,2.712329,183.4932,108.4932)"
           id="g102"><path
             id="path104"
             style="fill:none;stroke:#ff0000;stroke-width:3;stroke-linecap:butt;stroke-linejoin:round;stroke-miterlimit:1;stroke-dasharray:none;stroke-opacity:1"
             d="M 26.00391,168.293 H 90.0293" /></g><g
           transform="matrix(2.712329,0,0,2.712329,183.4932,108.4932)"
           id="g106"><text
             id="text110"
             style="font-variant:normal;font-weight:normal;font-size:12px;font-family:ArialMT;-inkscape-font-specification:ArialMT;writing-mode:lr-tb;fill:#000000;fill-opacity:1;fill-rule:nonzero;stroke:none"
             transform="matrix(1,0,0,-1,43.67285,154.693)"><tspan
               id="tspan108"
               y="0"
               x="0 6 8.6664 15.3408 22.0152">slope</tspan></text>
</g><g
           transform="matrix(2.712329,0,0,2.712329,183.4932,108.4932)"
           id="g112"><path
             id="path114"
             style="fill:none;stroke:#ff0000;stroke-width:3;stroke-linecap:butt;stroke-linejoin:round;stroke-miterlimit:1;stroke-dasharray:none;stroke-opacity:1"
             d="M 0,146.4941 H 90.71289" /></g><g
           transform="matrix(2.712329,0,0,2.712329,183.4932,108.4932)"
           id="g116"><text
             id="text120"
             style="font-variant:normal;font-weight:normal;font-size:12px;font-family:ArialMT;-inkscape-font-specification:ArialMT;writing-mode:lr-tb;fill:#000000;fill-opacity:1;fill-rule:nonzero;stroke:none"
             transform="matrix(1,0,0,-1,12.5,132.8941)"><tspan
               id="tspan118"
               y="0"
               x="0 3.3336 10.008 16.6824 23.3568 26.690399 34.694401 38.028 44.7024 48.035999 54.7104 58.706402">InputPort-0</tspan></text>
</g><g
           transform="matrix(2.712329,0,0,2.712329,183.4932,108.4932)"
           id="g122"><path
             id="path124"
             style="fill:none;stroke:#000000;stroke-width:1;stroke-linecap:butt;stroke-linejoin:round;stroke-miterlimit:1;stroke-dasharray:none;stroke-opacity:1"
             d="m 45.35645,88.19531 c 0,11.99999 0,17.24999 0,25.87499" /></g><g
           transform="matrix(2.712329,0,0,2.712329,183.4932,108.4932)"
           id="g126"><path
             id="path128"
             style="fill:#000000;fill-opacity:1;fill-rule:nonzero;stroke:#000000;stroke-width:1;stroke-linecap:butt;stroke-linejoin:round;stroke-miterlimit:1;stroke-dasharray:none;stroke-opacity:1"
             d="m 41.85654,114.1953 3.49991,10 3.50009,-10 z" /></g></g></g></g></svg>