<?xml version="1.0" encoding="UTF-8" standalone="no"?>
<!-- Created with Inkscape (http://www.inkscape.org/) -->

<svg
   xmlns:dc="http://purl.org/dc/elements/1.1/"
   xmlns:cc="http://creativecommons.org/ns#"
   xmlns:rdf="http://www.w3.org/1999/02/22-rdf-syntax-ns#"
   xmlns:svg="http://www.w3.org/2000/svg"
   xmlns="http://www.w3.org/2000/svg"
   xmlns:sodipodi="http://sodipodi.sourceforge.net/DTD/sodipodi-0.dtd"
   xmlns:inkscape="http://www.inkscape.org/namespaces/inkscape"
   id="svg10479"
   version="1.1"
   inkscape:version="0.91 r13725"
   xml:space="preserve"
   width="1196.472"
   height="990.9494"
   viewBox="0 0 1196.472 990.9494"
   sodipodi:docname="LearningMechanism_TERMINAL_vs_TARGET_fig.svg"><metadata
     id="metadata10485"><rdf:RDF><cc:Work
         rdf:about=""><dc:format>image/svg+xml</dc:format><dc:type
           rdf:resource="http://purl.org/dc/dcmitype/StillImage" /><dc:title></dc:title></cc:Work></rdf:RDF></metadata><defs
     id="defs10483"><clipPath
       clipPathUnits="userSpaceOnUse"
       id="clipPath10495"><path
         d="m 0,0 1500,0 0,1000 L 0,1000 0,0 Z"
         id="path10497"
         inkscape:connector-curvature="0" /></clipPath><clipPath
       clipPathUnits="userSpaceOnUse"
       id="clipPath10535"><path
         d="m 727.833,362.9495 186.883,0 0,56.58413 -186.883,0 0,-56.58413 z"
         id="path10537"
         inkscape:connector-curvature="0" /></clipPath><clipPath
       clipPathUnits="userSpaceOnUse"
       id="clipPath10549"><path
         d="m 726.2768,365.0745 189.9954,0 0,52.33413 -189.9954,0 0,-52.33413 z"
         id="path10551"
         inkscape:connector-curvature="0" /></clipPath><clipPath
       clipPathUnits="userSpaceOnUse"
       id="clipPath10559"><path
         d="m 0,0 1500,0 0,1000 L 0,1000 0,0 Z"
         id="path10561"
         inkscape:connector-curvature="0" /></clipPath><clipPath
       clipPathUnits="userSpaceOnUse"
       id="clipPath10579"><path
         d="m 497.6124,147.7147 200.2613,0 0,33.19048 -200.2613,0 0,-33.19048 z"
         id="path10581"
         inkscape:connector-curvature="0" /></clipPath><clipPath
       clipPathUnits="userSpaceOnUse"
       id="clipPath10593"><path
         d="m 928.9662,147.7147 200.2613,0 0,33.19048 -200.2613,0 0,-33.19048 z"
         id="path10595"
         inkscape:connector-curvature="0" /></clipPath><clipPath
       clipPathUnits="userSpaceOnUse"
       id="clipPath10607"><path
         d="m 0,0 1500,0 0,1000 L 0,1000 0,0 Z"
         id="path10609"
         inkscape:connector-curvature="0" /></clipPath><clipPath
       clipPathUnits="userSpaceOnUse"
       id="clipPath10687"><path
         d="m 456.4799,359.6088 221.9069,0 0,66.89102 -221.9069,0 0,-66.89102 z"
         id="path10689"
         inkscape:connector-curvature="0" /></clipPath><clipPath
       clipPathUnits="userSpaceOnUse"
       id="clipPath10701"><path
         d="m 456.5995,361.7338 221.6677,0 0,62.64102 -221.6677,0 0,-62.64102 z"
         id="path10703"
         inkscape:connector-curvature="0" /></clipPath><clipPath
       clipPathUnits="userSpaceOnUse"
       id="clipPath10721"><path
         d="m 950.942,414.8643 221.9069,0 0,66.89102 -221.9069,0 0,-66.89102 z"
         id="path10723"
         inkscape:connector-curvature="0" /></clipPath><clipPath
       clipPathUnits="userSpaceOnUse"
       id="clipPath10735"><path
         d="m 951.0617,416.9893 221.6677,0 0,62.64102 -221.6677,0 0,-62.64102 z"
         id="path10737"
         inkscape:connector-curvature="0" /></clipPath><clipPath
       clipPathUnits="userSpaceOnUse"
       id="clipPath10755"><path
         d="m 0,0 1500,0 0,1000 L 0,1000 0,0 Z"
         id="path10757"
         inkscape:connector-curvature="0" /></clipPath><clipPath
       clipPathUnits="userSpaceOnUse"
       id="clipPath10781"><path
         d="m 549.2615,193.7069 186.883,0 0,56.58413 -186.883,0 0,-56.58413 z"
         id="path10783"
         inkscape:connector-curvature="0" /></clipPath><clipPath
       clipPathUnits="userSpaceOnUse"
       id="clipPath10795"><path
         d="m 547.7053,195.8319 189.9954,0 0,52.33413 -189.9954,0 0,-52.33413 z"
         id="path10797"
         inkscape:connector-curvature="0" /></clipPath><clipPath
       clipPathUnits="userSpaceOnUse"
       id="clipPath10805"><path
         d="m 548.736,198.623 190.2066,0 0,43.89466 -190.2066,0 0,-43.89466 z"
         id="path10807"
         inkscape:connector-curvature="0" /></clipPath><clipPath
       clipPathUnits="userSpaceOnUse"
       id="clipPath10825"><path
         d="m 0,0 1500,0 0,1000 L 0,1000 0,0 Z"
         id="path10827"
         inkscape:connector-curvature="0" /></clipPath><clipPath
       clipPathUnits="userSpaceOnUse"
       id="clipPath10851"><path
         d="m 880.6901,193.7069 186.883,0 0,56.58413 -186.883,0 0,-56.58413 z"
         id="path10853"
         inkscape:connector-curvature="0" /></clipPath><clipPath
       clipPathUnits="userSpaceOnUse"
       id="clipPath10865"><path
         d="m 879.1339,195.8319 189.9954,0 0,52.33413 -189.9954,0 0,-52.33413 z"
         id="path10867"
         inkscape:connector-curvature="0" /></clipPath><clipPath
       clipPathUnits="userSpaceOnUse"
       id="clipPath10875"><path
         d="m 0,0 1500,0 0,1000 L 0,1000 0,0 Z"
         id="path10877"
         inkscape:connector-curvature="0" /></clipPath><clipPath
       clipPathUnits="userSpaceOnUse"
       id="clipPath10895"><path
         d="m 600.1878,537.1606 186.883,0 0,56.58413 -186.883,0 0,-56.58413 z"
         id="path10897"
         inkscape:connector-curvature="0" /></clipPath><clipPath
       clipPathUnits="userSpaceOnUse"
       id="clipPath10909"><path
         d="m 598.6316,539.2856 189.9954,0 0,52.33413 -189.9954,0 0,-52.33413 z"
         id="path10911"
         inkscape:connector-curvature="0" /></clipPath><clipPath
       clipPathUnits="userSpaceOnUse"
       id="clipPath10919"><path
         d="m 0,0 1500,0 0,1000 L 0,1000 0,0 Z"
         id="path10921"
         inkscape:connector-curvature="0" /></clipPath><clipPath
       clipPathUnits="userSpaceOnUse"
       id="clipPath10989"><path
         d="m 850.942,554.8643 221.9069,0 0,66.89102 -221.9069,0 0,-66.89102 z"
         id="path10991"
         inkscape:connector-curvature="0" /></clipPath><clipPath
       clipPathUnits="userSpaceOnUse"
       id="clipPath11003"><path
         d="m 851.0616,556.9893 221.6677,0 0,62.64102 -221.6677,0 0,-62.64102 z"
         id="path11005"
         inkscape:connector-curvature="0" /></clipPath><clipPath
       clipPathUnits="userSpaceOnUse"
       id="clipPath11023"><path
         d="m 0,0 1500,0 0,1000 L 0,1000 0,0 Z"
         id="path11025"
         inkscape:connector-curvature="0" /></clipPath><clipPath
       clipPathUnits="userSpaceOnUse"
       id="clipPath11043"><path
         d="m 585.7897,680.4007 212.2116,0 0,64.03787 -212.2116,0 0,-64.03787 z"
         id="path11045"
         inkscape:connector-curvature="0" /></clipPath><clipPath
       clipPathUnits="userSpaceOnUse"
       id="clipPath11057"><path
         d="m 585.9093,682.5257 211.9724,0 0,59.78787 -211.9724,0 0,-59.78787 z"
         id="path11059"
         inkscape:connector-curvature="0" /></clipPath></defs><sodipodi:namedview
     pagecolor="#ffffff"
     bordercolor="#666666"
     borderopacity="1"
     objecttolerance="10"
     gridtolerance="10"
     guidetolerance="10"
     inkscape:pageopacity="0"
     inkscape:pageshadow="2"
     inkscape:window-width="651"
     inkscape:window-height="480"
     id="namedview10481"
     showgrid="false"
     inkscape:zoom="0.65593662"
     inkscape:cx="598.23602"
     inkscape:cy="495.4747"
     inkscape:window-x="0"
     inkscape:window-y="0"
     inkscape:window-maximized="0"
     inkscape:current-layer="g10487" /><g
     id="g10487"
     inkscape:groupmode="layer"
     inkscape:label="LearningMechanism_TERMINAL_vs_TARGET_fig"
     transform="matrix(1.25,0,0,-1.25,-406.308,1074.0063)"><g
       id="g10489" /><g
       id="g10491"><g
         id="g10493"
         clip-path="url(#clipPath10495)"><path
           d="m 0,0 1500,0 0,1000 L 0,1000 0,0 Z"
           style="fill:#ffffff;fill-opacity:1;fill-rule:nonzero;stroke:none"
           id="path10499"
           inkscape:connector-curvature="0" /><path
           d="m 331.5705,853.7195 942.7695,0 0,-777.92924 -942.7695,0 0,777.92924 z"
           style="fill:#4b5d56;fill-opacity:0.8423;fill-rule:nonzero;stroke:none"
           id="path10501"
           inkscape:connector-curvature="0" /><g
           id="g10503"
           transform="matrix(1,0,0,-1,331.5705,853.7195)"><path
             d="m 0,-9.954834e-6 942.7695,0 L 942.7695,777.9292 0,777.9292 0,-9.954834e-6 Z"
             style="fill:none;stroke:#a37512;stroke-width:7;stroke-linecap:butt;stroke-linejoin:miter;stroke-miterlimit:4;stroke-dasharray:none;stroke-opacity:1"
             id="path10505"
             inkscape:connector-curvature="0" /></g><path
           d="m 550.9889,772.6963 463.6641,-2.91 191.247,-169.5938 4.604,-476.532 -335.5387,0.1611 -321.3165,394.862 -2.6599,254.0127 z"
           style="fill:#ccba85;fill-opacity:1;fill-rule:nonzero;stroke:none"
           id="path10507"
           inkscape:connector-curvature="0" /><g
           id="g10509"
           transform="matrix(-1,0,0,-1,1210.504,772.6963)"><path
             d="M 659.5153,0 195.8514,2.909945 4.604213,172.5038 0,649.0358 335.5389,648.8746 656.8554,254.0127 659.5153,0 Z"
             style="fill:none;stroke:#a37512;stroke-width:7;stroke-linecap:butt;stroke-linejoin:miter;stroke-miterlimit:4;stroke-dasharray:none;stroke-opacity:1"
             id="path10511"
             inkscape:connector-curvature="0" /></g><path
           d="m 934.3989,444.364 -377.9208,1.048 -138.6471,-3.5117 -2.8,-319.2558 362.0027,3.3053 154.5465,212.6793 2.8187,105.7349 z"
           style="fill:#ffe8a7;fill-opacity:0.8;fill-rule:nonzero;stroke:none"
           id="path10513"
           inkscape:connector-curvature="0" /><g
           id="g10515"
           transform="matrix(1,0,0,-1,415.031,445.412)"><path
             d="M 519.3679,1.047996 141.4471,0 2.800001,3.511646 0,322.7675 362.0027,319.4622 516.5492,106.7829 519.3679,1.047996 Z"
             style="fill:none;stroke:#a37512;stroke-width:7;stroke-linecap:butt;stroke-linejoin:miter;stroke-miterlimit:4;stroke-dasharray:none;stroke-opacity:1"
             id="path10517"
             inkscape:connector-curvature="0" /></g><path
           d="m 724.3725,476.1472 -17.6306,-13.9635 -0.0553,77.2486 75.1822,-17.7483 -17.6307,-13.9634 82.6196,-104.318 -39.8656,-31.5734 -82.6196,104.318 z"
           style="fill:#de6a0f;fill-opacity:1;fill-rule:nonzero;stroke:none"
           id="path10519"
           inkscape:connector-curvature="0" /><g
           id="g10521"
           transform="matrix(0.6208626,-0.7839194,-0.7839194,-0.6208626,744.2501,569.1825)"><path
             d="m 60.59098,73.34455 0,22.49041 L 0,47.91748 60.59098,0 l 0,22.49041 133.07232,0 0,50.85414 -133.07232,0 z"
             style="fill:none;stroke:#fdfdc5;stroke-width:0.25;stroke-linecap:butt;stroke-linejoin:round;stroke-miterlimit:4;stroke-dasharray:none;stroke-opacity:1"
             id="path10523"
             inkscape:connector-curvature="0" /></g><path
           d="m 663.9039,618.372 -21.2168,0 45.204,60.591 45.204,-60.591 -21.2168,0 0,-67.9714 -47.9744,0 0,67.9714 z"
           style="fill:#de6a0f;fill-opacity:1;fill-rule:nonzero;stroke:none"
           id="path10525"
           inkscape:connector-curvature="0" /><g
           id="g10527"
           transform="matrix(0,-1,-1,0,733.0951,678.963)"><path
             d="m 60.59098,69.19122 0,21.21683 L 0,45.20403 60.59098,0 l 0,21.21683 67.97142,0 0,47.97439 -67.97142,0 z"
             style="fill:none;stroke:#fdfdc5;stroke-width:0.25;stroke-linecap:butt;stroke-linejoin:round;stroke-miterlimit:4;stroke-dasharray:none;stroke-opacity:1"
             id="path10529"
             inkscape:connector-curvature="0" /></g></g></g><g
       id="g10531"><g
         id="g10533"
         clip-path="url(#clipPath10535)"><path
           d="m 728.958,418.4087 184.633,0 0,-54.3342 -184.633,0 0,54.3342 z"
           style="fill:#fdfdc5;fill-opacity:1;fill-rule:nonzero;stroke:none"
           id="path10539"
           inkscape:connector-curvature="0" /><g
           id="g10541"
           transform="matrix(1,0,0,-1,728.958,418.4087)"><path
             d="m 0,0 184.633,0 0,54.33413 L 0,54.33413 0,0 Z"
             style="fill:none;stroke:#fdfdc5;stroke-width:0.25;stroke-linecap:butt;stroke-linejoin:round;stroke-miterlimit:4;stroke-dasharray:none;stroke-opacity:1"
             id="path10543"
             inkscape:connector-curvature="0" /></g></g></g><g
       id="g10545"><g
         id="g10547"
         clip-path="url(#clipPath10549)"><g
           id="g10553"
           transform="translate(738,384)" /></g></g><g
       id="g10555"><g
         id="g10557"
         clip-path="url(#clipPath10559)"><g
           id="g10563"
           transform="translate(722,496)"><text
             transform="scale(1,-1)"
             style="font-variant:normal;font-weight:bold;font-size:10px;font-family:Arial;-inkscape-font-specification:Arial-BoldMT;writing-mode:lr-tb;fill:#fdfdc5;fill-opacity:1;fill-rule:nonzero;stroke:none"
             id="text10565"><tspan
               x="0 8.3299999 13.892 20 26.108 28.886 34.993999 41.102001"
               y="0"
               sodipodi:role="line"
               id="tspan10567">Mapping </tspan></text>
</g><g
           id="g10569"
           transform="translate(718,485)"><text
             transform="scale(1,-1)"
             style="font-variant:normal;font-weight:bold;font-size:10px;font-family:Arial;-inkscape-font-specification:Arial-BoldMT;writing-mode:lr-tb;fill:#fdfdc5;fill-opacity:1;fill-rule:nonzero;stroke:none"
             id="text10571"><tspan
               x="0 6.6700001 10.562 16.67 19.448 25.01 30.572001 33.902 36.68 42.787998"
               y="0"
               sodipodi:role="line"
               id="tspan10573">Projection</tspan></text>
</g></g></g><g
       id="g10575"><g
         id="g10577"
         clip-path="url(#clipPath10579)"><g
           id="g10583"
           transform="translate(515,150)"><text
             transform="scale(1,-1)"
             style="font-variant:normal;font-weight:bold;font-size:34px;font-family:Arial;-inkscape-font-specification:Arial-BoldMT;writing-mode:lr-tb;fill:#53585f;fill-opacity:1;fill-rule:nonzero;stroke:none"
             id="text10585"><tspan
               x="0 22.677999 35.910801 56.678001 75.588799 94.499603 113.4104 132.3212 140.505"
               y="0"
               sodipodi:role="line"
               id="tspan10587">Process A</tspan></text>
</g></g></g><g
       id="g10589"><g
         id="g10591"
         clip-path="url(#clipPath10593)"><g
           id="g10597"
           transform="translate(946,150)"><text
             transform="scale(1,-1)"
             style="font-variant:normal;font-weight:bold;font-size:34px;font-family:Arial;-inkscape-font-specification:Arial-BoldMT;writing-mode:lr-tb;fill:#53585f;fill-opacity:1;fill-rule:nonzero;stroke:none"
             id="text10599"><tspan
               x="0 22.677999 35.910801 56.678001 75.588799 94.499603 113.4104 132.3212 141.7664"
               y="0"
               sodipodi:role="line"
               id="tspan10601">Process B</tspan></text>
</g></g></g><g
       id="g10603"><g
         id="g10605"
         clip-path="url(#clipPath10607)"><g
           id="g10611"
           transform="translate(680,789)"><text
             transform="scale(1,-1)"
             style="font-variant:normal;font-weight:bold;font-size:42px;font-family:Arial;-inkscape-font-specification:Arial-BoldMT;writing-mode:lr-tb;fill:#ccba85;fill-opacity:1;fill-rule:nonzero;stroke:none"
             id="text10613"><tspan
               x="0 28.014 51.374401 74.734802 88.720802 112.0812"
               y="0"
               sodipodi:role="line"
               id="tspan10615">System</tspan></text>
</g><g
           id="g10617"
           transform="translate(772,392)"><text
             transform="scale(1,-1)"
             style="font-variant:normal;font-weight:bold;font-size:16px;font-family:Arial;-inkscape-font-specification:Arial-BoldMT;writing-mode:lr-tb;fill:#000000;fill-opacity:1;fill-rule:nonzero;stroke:none"
             id="text10619"><tspan
               x="0 13.328 22.2272 31.1264 40.8992 49.798401 59.571201 64.015999 72.915199 87.142403 91.587196 100.4864"
               y="0"
               sodipodi:role="line"
               id="tspan10621">Mechanism 3 </tspan></text>
</g><g
           id="g10623"
           transform="translate(788,376)"><text
             transform="scale(1,-1)"
             style="font-variant:normal;font-weight:normal;font-size:14px;font-family:Arial;-inkscape-font-specification:ArialMT;writing-mode:lr-tb;fill:#000000;fill-opacity:1;fill-rule:nonzero;stroke:none"
             id="text10625"><tspan
               x="0 3.8892 14 22.551201 31.8892 42 52.110802 61.448799"
               y="0"
               sodipodi:role="line"
               id="tspan10627">INTERNAL</tspan></text>
</g><g
           id="g10629"
           transform="translate(666,636)"><text
             transform="scale(1,-1)"
             style="font-variant:normal;font-weight:bold;font-size:10px;font-family:Arial;-inkscape-font-specification:Arial-BoldMT;writing-mode:lr-tb;fill:#fdfdc5;fill-opacity:1;fill-rule:nonzero;stroke:none"
             id="text10631"><tspan
               x="0 8.3299999 13.892 20 26.108 28.886 34.993999 41.102001"
               y="0"
               sodipodi:role="line"
               id="tspan10633">Mapping </tspan></text>
</g><g
           id="g10635"
           transform="translate(662,625)"><text
             transform="scale(1,-1)"
             style="font-variant:normal;font-weight:bold;font-size:10px;font-family:Arial;-inkscape-font-specification:Arial-BoldMT;writing-mode:lr-tb;fill:#fdfdc5;fill-opacity:1;fill-rule:nonzero;stroke:none"
             id="text10637"><tspan
               x="0 6.6700001 10.562 16.67 19.448 25.01 30.572001 33.902 36.68 42.787998"
               y="0"
               sodipodi:role="line"
               id="tspan10639">Projection</tspan></text>
</g><g
           id="g10641"
           transform="matrix(1,0,0,-1,938.0657,416.9111)"><path
             d="m 111.5906,0 c 0.2107,32.06077 -16.08315,61.82776 -48.88163,89.30095 l -8.44013,5.39258"
             style="fill:none;stroke:#70bf41;stroke-width:20;stroke-linecap:butt;stroke-linejoin:miter;stroke-miterlimit:4;stroke-dasharray:none;stroke-opacity:1"
             id="path10643"
             inkscape:connector-curvature="0" /></g><path
           d="m 980.7326,358.9495 -42.6669,-71.4055 82.7243,8.7098 -40.0574,62.6957 z"
           style="fill:#70bf41;fill-opacity:1;fill-rule:nonzero;stroke:none"
           id="path10645"
           inkscape:connector-curvature="0" /><g
           id="g10647"
           transform="translate(965,319)"><text
             transform="scale(1,-1)"
             style="font-variant:normal;font-weight:bold;font-size:8px;font-family:Arial;-inkscape-font-specification:Arial-BoldMT;writing-mode:lr-tb;fill:#fdfdc5;fill-opacity:1;fill-rule:nonzero;stroke:none"
             id="text10649"><tspan
               x="0 4.8864002 9.3327999 13.7792 16.889601 21.775999 23.9984 28.8848 33.771198"
               y="0"
               sodipodi:role="line"
               id="tspan10651">Learning </tspan></text>
</g><g
           id="g10653"
           transform="translate(962,310)"><text
             transform="scale(1,-1)"
             style="font-variant:normal;font-weight:bold;font-size:8px;font-family:Arial;-inkscape-font-specification:Arial-BoldMT;writing-mode:lr-tb;fill:#fdfdc5;fill-opacity:1;fill-rule:nonzero;stroke:none"
             id="text10655"><tspan
               x="0 5.336 8.4496002 13.336 15.5584 20.007999 24.4576 27.121599 29.344 34.2304"
               y="0"
               sodipodi:role="line"
               id="tspan10657">Projection</tspan></text>
</g><g
           id="g10659"
           transform="matrix(1,0,0,-1,456.4442,713.7572)"><path
             d="M 74.39273,243.6116 C -40.64946,84.7071 -22.26424,3.50324 129.5484,0"
             style="fill:none;stroke:#de6a10;stroke-width:36;stroke-linecap:butt;stroke-linejoin:miter;stroke-miterlimit:4;stroke-dasharray:none;stroke-opacity:1"
             id="path10661"
             inkscape:connector-curvature="0" /></g><path
           d="m 517.9018,460.1541 -12.2727,-9.07 57.3542,-24.2225 -6.3211,61.9378 -12.2727,-9.07 -10.9363,14.798 -26.4876,-19.5753 10.9362,-14.798 z"
           style="fill:#de6a0f;fill-opacity:1;fill-rule:nonzero;stroke:none"
           id="path10663"
           inkscape:connector-curvature="0" /><g
           id="g10665"
           transform="matrix(1,0,0,-1,576.5431,358.7439)"><path
             d="M 50.92832,46.90174 41.55051,43.42949 C 13.62958,29.47028 -0.2141287,14.99586 0.00250329,0"
             style="fill:none;stroke:#70bf41;stroke-width:20;stroke-linecap:butt;stroke-linejoin:miter;stroke-miterlimit:4;stroke-dasharray:none;stroke-opacity:1"
             id="path10667"
             inkscape:connector-curvature="0" /></g><path
           d="m 605.1768,280.4289 82.6878,9.052 -56.8542,60.719 -25.8336,-69.771 z"
           style="fill:#70bf41;fill-opacity:1;fill-rule:nonzero;stroke:none"
           id="path10669"
           inkscape:connector-curvature="0" /><g
           id="g10671"
           transform="translate(625,308)"><text
             transform="scale(1,-1)"
             style="font-variant:normal;font-weight:bold;font-size:8px;font-family:Arial;-inkscape-font-specification:Arial-BoldMT;writing-mode:lr-tb;fill:#fdfdc5;fill-opacity:1;fill-rule:nonzero;stroke:none"
             id="text10673"><tspan
               x="0 4.8864002 9.3327999 13.7792 16.889601 21.775999 23.9984 28.8848 33.771198"
               y="0"
               sodipodi:role="line"
               id="tspan10675">Learning </tspan></text>
</g><g
           id="g10677"
           transform="translate(622,299)"><text
             transform="scale(1,-1)"
             style="font-variant:normal;font-weight:bold;font-size:8px;font-family:Arial;-inkscape-font-specification:Arial-BoldMT;writing-mode:lr-tb;fill:#fdfdc5;fill-opacity:1;fill-rule:nonzero;stroke:none"
             id="text10679"><tspan
               x="0 5.336 8.4496002 13.336 15.5584 20.007999 24.4576 27.121599 29.344 34.2304"
               y="0"
               sodipodi:role="line"
               id="tspan10681">Projection</tspan></text>
</g></g></g><g
       id="g10683"><g
         id="g10685"
         clip-path="url(#clipPath10687)"><path
           d="m 457.6049,425.3748 219.6569,0 0,-64.641 -219.6569,0 0,64.641 z"
           style="fill:#fdfdc5;fill-opacity:1;fill-rule:nonzero;stroke:none"
           id="path10691"
           inkscape:connector-curvature="0" /><g
           id="g10693"
           transform="matrix(1,0,0,-1,457.6049,425.3748)"><path
             d="m 0,0 219.6569,0 0,64.64102 L 0,64.64102 0,0 Z"
             style="fill:none;stroke:#fdfdc5;stroke-width:0.25;stroke-linecap:butt;stroke-linejoin:round;stroke-miterlimit:4;stroke-dasharray:none;stroke-opacity:1"
             id="path10695"
             inkscape:connector-curvature="0" /></g></g></g><g
       id="g10697"><g
         id="g10699"
         clip-path="url(#clipPath10701)"><g
           id="g10705"
           transform="translate(500,396)"><text
             transform="scale(1,-1)"
             style="font-variant:normal;font-weight:bold;font-size:14px;font-family:Arial;-inkscape-font-specification:Arial-BoldMT;writing-mode:lr-tb;fill:#000000;fill-opacity:1;fill-rule:nonzero;stroke:none"
             id="text10707"><tspan
               x="0 8.5511999 16.337999 24.1248 29.573601 38.124802 42.014 50.565201 59.116402 70.778397 78.565201 86.351997 94.903198 102.69 111.2412 115.1304 122.9172 135.366"
               y="0"
               sodipodi:role="line"
               id="tspan10709">LearningMechanism </tspan></text>
</g><g
           id="g10711"
           transform="translate(532,380)"><text
             transform="scale(1,-1)"
             style="font-variant:normal;font-weight:normal;font-size:14px;font-family:Arial;-inkscape-font-specification:ArialMT;writing-mode:lr-tb;fill:#000000;fill-opacity:1;fill-rule:nonzero;stroke:none"
             id="text10713"><tspan
               x="0 7.7867999 17.1248 26.462799 36.573601 46.684399 50.573601 60.684399"
               y="0"
               sodipodi:role="line"
               id="tspan10715">LEARNING</tspan></text>
</g></g></g><g
       id="g10717"><g
         id="g10719"
         clip-path="url(#clipPath10721)"><path
           d="m 952.067,480.6303 219.657,0 0,-64.641 -219.657,0 0,64.641 z"
           style="fill:#fdfdc5;fill-opacity:1;fill-rule:nonzero;stroke:none"
           id="path10725"
           inkscape:connector-curvature="0" /><g
           id="g10727"
           transform="matrix(1,0,0,-1,952.067,480.6303)"><path
             d="m 0,0 219.6569,0 0,64.64102 L 0,64.64102 0,0 Z"
             style="fill:none;stroke:#fdfdc5;stroke-width:0.25;stroke-linecap:butt;stroke-linejoin:round;stroke-miterlimit:4;stroke-dasharray:none;stroke-opacity:1"
             id="path10729"
             inkscape:connector-curvature="0" /></g></g></g><g
       id="g10731"><g
         id="g10733"
         clip-path="url(#clipPath10735)"><g
           id="g10739"
           transform="translate(994,451)"><text
             transform="scale(1,-1)"
             style="font-variant:normal;font-weight:bold;font-size:14px;font-family:Arial;-inkscape-font-specification:Arial-BoldMT;writing-mode:lr-tb;fill:#000000;fill-opacity:1;fill-rule:nonzero;stroke:none"
             id="text10741"><tspan
               x="0 8.5511999 16.337999 24.1248 29.573601 38.124802 42.014 50.565201 59.116402 70.778397 78.565201 86.351997 94.903198 102.69 111.2412 115.1304 122.9172 135.366"
               y="0"
               sodipodi:role="line"
               id="tspan10743">LearningMechanism </tspan></text>
</g><g
           id="g10745"
           transform="translate(1026,435)"><text
             transform="scale(1,-1)"
             style="font-variant:normal;font-weight:normal;font-size:14px;font-family:Arial;-inkscape-font-specification:ArialMT;writing-mode:lr-tb;fill:#000000;fill-opacity:1;fill-rule:nonzero;stroke:none"
             id="text10747"><tspan
               x="0 7.7867999 17.1248 26.462799 36.573601 46.684399 50.573601 60.684399"
               y="0"
               sodipodi:role="line"
               id="tspan10749">LEARNING</tspan></text>
</g></g></g><g
       id="g10751"><g
         id="g10753"
         clip-path="url(#clipPath10755)"><path
           d="m 717.0008,330.2002 -16.4619,12.6862 74.5385,18.2227 1.3709,-76.7214 -16.4619,12.6861 -64.5744,-83.7933 -42.9856,33.1264 64.5744,83.7933 z"
           style="fill:#de6a0f;fill-opacity:1;fill-rule:nonzero;stroke:none"
           id="path10759"
           inkscape:connector-curvature="0" /><g
           id="g10761"
           transform="matrix(-0.6104113,-0.7920846,-0.7920846,0.6104113,813.0321,331.8597)"><path
             d="m 59.93303,75.05198 0,20.78298 L 0,47.91748 59.93303,0 l 0,20.78298 105.78837,0 0,54.269 -105.78837,0 z"
             style="fill:none;stroke:#fdfdc5;stroke-width:0.25;stroke-linecap:butt;stroke-linejoin:round;stroke-miterlimit:4;stroke-dasharray:none;stroke-opacity:1"
             id="path10763"
             inkscape:connector-curvature="0" /></g><g
           id="g10765"
           transform="translate(723,320)"><text
             transform="scale(1,-1)"
             style="font-variant:normal;font-weight:bold;font-size:10px;font-family:Arial;-inkscape-font-specification:Arial-BoldMT;writing-mode:lr-tb;fill:#fdfdc5;fill-opacity:1;fill-rule:nonzero;stroke:none"
             id="text10767"><tspan
               x="0 8.3299999 13.892 20 26.108 28.886 34.993999 41.102001"
               y="0"
               sodipodi:role="line"
               id="tspan10769">Mapping </tspan></text>
</g><g
           id="g10771"
           transform="translate(719,309)"><text
             transform="scale(1,-1)"
             style="font-variant:normal;font-weight:bold;font-size:10px;font-family:Arial;-inkscape-font-specification:Arial-BoldMT;writing-mode:lr-tb;fill:#fdfdc5;fill-opacity:1;fill-rule:nonzero;stroke:none"
             id="text10773"><tspan
               x="0 6.6700001 10.562 16.67 19.448 25.01 30.572001 33.902 36.68 42.787998"
               y="0"
               sodipodi:role="line"
               id="tspan10775">Projection</tspan></text>
</g></g></g><g
       id="g10777"><g
         id="g10779"
         clip-path="url(#clipPath10781)"><path
           d="m 550.3865,249.166 184.6331,0 0,-54.3341 -184.6331,0 0,54.3341 z"
           style="fill:#fdfdc5;fill-opacity:1;fill-rule:nonzero;stroke:none"
           id="path10785"
           inkscape:connector-curvature="0" /><g
           id="g10787"
           transform="matrix(1,0,0,-1,550.3865,249.166)"><path
             d="m 0,0 184.633,0 0,54.33413 L 0,54.33413 0,0 Z"
             style="fill:none;stroke:#fdfdc5;stroke-width:0.25;stroke-linecap:butt;stroke-linejoin:round;stroke-miterlimit:4;stroke-dasharray:none;stroke-opacity:1"
             id="path10789"
             inkscape:connector-curvature="0" /></g></g></g><g
       id="g10791"><g
         id="g10793"
         clip-path="url(#clipPath10795)"><g
           id="g10799"
           transform="translate(559,215)" /></g></g><g
       id="g10801"><g
         id="g10803"
         clip-path="url(#clipPath10805)"><g
           id="g10809"
           transform="translate(594,224)"><text
             transform="scale(1,-1)"
             style="font-variant:normal;font-weight:bold;font-size:16px;font-family:Arial;-inkscape-font-specification:Arial-BoldMT;writing-mode:lr-tb;fill:#000000;fill-opacity:1;fill-rule:nonzero;stroke:none"
             id="text10811"><tspan
               x="0 13.328 22.2272 31.1264 40.8992 49.798401 59.571201 64.015999 72.915199 87.142403 91.587196 100.4864"
               y="0"
               sodipodi:role="line"
               id="tspan10813">Mechanism 1 </tspan></text>
</g><g
           id="g10815"
           transform="translate(619,207)"><text
             transform="scale(1,-1)"
             style="font-variant:normal;font-weight:normal;font-size:14px;font-family:Arial;-inkscape-font-specification:ArialMT;writing-mode:lr-tb;fill:#000000;fill-opacity:1;fill-rule:nonzero;stroke:none"
             id="text10817"><tspan
               x="0 10.8892 20.9944 24.8836 35.7728 39.661999"
               y="0"
               sodipodi:role="line"
               id="tspan10819">ORIGIN</tspan></text>
</g></g></g><g
       id="g10821"><g
         id="g10823"
         clip-path="url(#clipPath10825)"><path
           d="m 902.6537,330.3577 16.177,13.0476 -74.9237,16.5678 0.3281,-76.733 16.177,13.0476 66.4138,-82.3431 42.2417,34.0701 -66.4139,82.343 z"
           style="fill:#de6a0f;fill-opacity:1;fill-rule:nonzero;stroke:none"
           id="path10829"
           inkscape:connector-curvature="0" /><g
           id="g10831"
           transform="matrix(0.6277992,-0.7783753,0.7783753,0.6277992,806.6092,329.8905)"><path
             d="m 59.93303,75.05198 0,20.78298 L 0,47.91748 59.93303,0 l 0,20.78298 105.78837,0 0,54.269 -105.78837,0 z"
             style="fill:none;stroke:#fdfdc5;stroke-width:0.25;stroke-linecap:butt;stroke-linejoin:round;stroke-miterlimit:4;stroke-dasharray:none;stroke-opacity:1"
             id="path10833"
             inkscape:connector-curvature="0" /></g><g
           id="g10835"
           transform="translate(856,320)"><text
             transform="scale(1,-1)"
             style="font-variant:normal;font-weight:bold;font-size:10px;font-family:Arial;-inkscape-font-specification:Arial-BoldMT;writing-mode:lr-tb;fill:#fdfdc5;fill-opacity:1;fill-rule:nonzero;stroke:none"
             id="text10837"><tspan
               x="0 8.3299999 13.892 20 26.108 28.886 34.993999 41.102001"
               y="0"
               sodipodi:role="line"
               id="tspan10839">Mapping </tspan></text>
</g><g
           id="g10841"
           transform="translate(852,309)"><text
             transform="scale(1,-1)"
             style="font-variant:normal;font-weight:bold;font-size:10px;font-family:Arial;-inkscape-font-specification:Arial-BoldMT;writing-mode:lr-tb;fill:#fdfdc5;fill-opacity:1;fill-rule:nonzero;stroke:none"
             id="text10843"><tspan
               x="0 6.6700001 10.562 16.67 19.448 25.01 30.572001 33.902 36.68 42.787998"
               y="0"
               sodipodi:role="line"
               id="tspan10845">Projection</tspan></text>
</g></g></g><g
       id="g10847"><g
         id="g10849"
         clip-path="url(#clipPath10851)"><path
           d="m 881.8151,249.166 184.6329,0 0,-54.3341 -184.6329,0 0,54.3341 z"
           style="fill:#fdfdc5;fill-opacity:1;fill-rule:nonzero;stroke:none"
           id="path10855"
           inkscape:connector-curvature="0" /><g
           id="g10857"
           transform="matrix(1,0,0,-1,881.8151,249.166)"><path
             d="m 0,0 184.633,0 0,54.33413 L 0,54.33413 0,0 Z"
             style="fill:none;stroke:#fdfdc5;stroke-width:0.25;stroke-linecap:butt;stroke-linejoin:round;stroke-miterlimit:4;stroke-dasharray:none;stroke-opacity:1"
             id="path10859"
             inkscape:connector-curvature="0" /></g></g></g><g
       id="g10861"><g
         id="g10863"
         clip-path="url(#clipPath10865)"><g
           id="g10869"
           transform="translate(891,215)" /></g></g><g
       id="g10871"><g
         id="g10873"
         clip-path="url(#clipPath10875)"><g
           id="g10879"
           transform="translate(925,224)"><text
             transform="scale(1,-1)"
             style="font-variant:normal;font-weight:bold;font-size:16px;font-family:Arial;-inkscape-font-specification:Arial-BoldMT;writing-mode:lr-tb;fill:#000000;fill-opacity:1;fill-rule:nonzero;stroke:none"
             id="text10881"><tspan
               x="0 13.328 22.2272 31.1264 40.8992 49.798401 59.571201 64.015999 72.915199 87.142403 91.587196 100.4864"
               y="0"
               sodipodi:role="line"
               id="tspan10883">Mechanism 2 </tspan></text>
</g><g
           id="g10885"
           transform="translate(950,207)"><text
             transform="scale(1,-1)"
             style="font-variant:normal;font-weight:normal;font-size:14px;font-family:Arial;-inkscape-font-specification:ArialMT;writing-mode:lr-tb;fill:#000000;fill-opacity:1;fill-rule:nonzero;stroke:none"
             id="text10887"><tspan
               x="0 10.8892 20.9944 24.8836 35.7728 39.661999"
               y="0"
               sodipodi:role="line"
               id="tspan10889">ORIGIN</tspan></text>
</g></g></g><g
       id="g10891"><g
         id="g10893"
         clip-path="url(#clipPath10895)"><path
           d="m 601.3128,592.6197 184.633,0 0,-54.3341 -184.633,0 0,54.3341 z"
           style="fill:#fdfdc5;fill-opacity:1;fill-rule:nonzero;stroke:none"
           id="path10899"
           inkscape:connector-curvature="0" /><g
           id="g10901"
           transform="matrix(1,0,0,-1,601.3128,592.6197)"><path
             d="m 0,0 184.633,0 0,54.33413 L 0,54.33413 0,0 Z"
             style="fill:none;stroke:#fdfdc5;stroke-width:0.25;stroke-linecap:butt;stroke-linejoin:round;stroke-miterlimit:4;stroke-dasharray:none;stroke-opacity:1"
             id="path10903"
             inkscape:connector-curvature="0" /></g></g></g><g
       id="g10905"><g
         id="g10907"
         clip-path="url(#clipPath10909)"><g
           id="g10913"
           transform="translate(610,559)" /></g></g><g
       id="g10915"><g
         id="g10917"
         clip-path="url(#clipPath10919)"><g
           id="g10923"
           transform="translate(644,569)"><text
             transform="scale(1,-1)"
             style="font-variant:normal;font-weight:bold;font-size:16px;font-family:Arial;-inkscape-font-specification:Arial-BoldMT;writing-mode:lr-tb;fill:#000000;fill-opacity:1;fill-rule:nonzero;stroke:none"
             id="text10925"><tspan
               x="0 13.328 22.2272 31.1264 40.8992 49.798401 59.571201 64.015999 72.915199 87.142403 91.587196 100.4864"
               y="0"
               sodipodi:role="line"
               id="tspan10927">Mechanism 4 </tspan></text>
</g><g
           id="g10929"
           transform="translate(658,553)"><text
             transform="scale(1,-1)"
             style="font-variant:normal;font-weight:normal;font-size:14px;font-family:Arial;-inkscape-font-specification:ArialMT;writing-mode:lr-tb;fill:#000000;fill-opacity:1;fill-rule:nonzero;stroke:none"
             id="text10931"><tspan
               x="0 8.5511999 17.8892 28 39.661999 43.551201 53.661999 63"
               y="0"
               sodipodi:role="line"
               id="tspan10933">TERMINAL</tspan></text>
</g><g
           id="g10935"
           transform="matrix(1,0,0,-1,790.415,554.9112)"><path
             d="m 146.7552,0 c 1.1438,28.42153 -23.4927,50.26982 -73.90974,65.54488 l -9.79819,2.04056"
             style="fill:none;stroke:#70bf41;stroke-width:20;stroke-linecap:butt;stroke-linejoin:miter;stroke-miterlimit:4;stroke-dasharray:none;stroke-opacity:1"
             id="path10937"
             inkscape:connector-curvature="0" /></g><path
           d="M 855.6677,525.7832 790.415,474.1955 870.8368,452.946 855.6677,525.7832 Z"
           style="fill:#70bf41;fill-opacity:1;fill-rule:nonzero;stroke:none"
           id="path10939"
           inkscape:connector-curvature="0" /><path
           d="m 934.4115,668.2419 -16.7765,-0.0258 33.322,-48.8073 33.1717,48.9096 -16.7765,-0.0258 -0.0359,23.3116 -32.9407,-0.0507 0.0359,-23.3116 z"
           style="fill:#de6a0f;fill-opacity:1;fill-rule:nonzero;stroke:none"
           id="path10941"
           inkscape:connector-curvature="0" /><g
           id="g10943"
           transform="matrix(1,0,0,-1,793.7922,708.848)"><path
             d="M 0,0 C 106.0912,0.3544724 158.8585,6.700937 158.3019,19.03939"
             style="fill:none;stroke:#de6a10;stroke-width:30;stroke-linecap:butt;stroke-linejoin:miter;stroke-miterlimit:4;stroke-dasharray:none;stroke-opacity:1"
             id="path10945"
             inkscape:connector-curvature="0" /></g><g
           id="g10947"
           transform="translate(935,660)"><text
             transform="scale(1,-1)"
             style="font-variant:normal;font-weight:bold;font-size:8px;font-family:Arial;-inkscape-font-specification:Arial-BoldMT;writing-mode:lr-tb;fill:#fdfdc5;fill-opacity:1;fill-rule:nonzero;stroke:none"
             id="text10949"><tspan
               x="0 6.664 11.1136 16 20.8864 23.108801 27.995199 32.881599"
               y="0"
               sodipodi:role="line"
               id="tspan10951">Mapping </tspan></text>
</g><g
           id="g10953"
           transform="translate(932,651)"><text
             transform="scale(1,-1)"
             style="font-variant:normal;font-weight:bold;font-size:8px;font-family:Arial;-inkscape-font-specification:Arial-BoldMT;writing-mode:lr-tb;fill:#fdfdc5;fill-opacity:1;fill-rule:nonzero;stroke:none"
             id="text10955"><tspan
               x="0 5.336 8.4496002 13.336 15.5584 20.007999 24.4576 27.121599 29.344 34.2304"
               y="0"
               sodipodi:role="line"
               id="tspan10957">Projection</tspan></text>
</g><g
           id="g10959"
           transform="translate(822,487)"><text
             transform="scale(1,-1)"
             style="font-variant:normal;font-weight:bold;font-size:8px;font-family:Arial;-inkscape-font-specification:Arial-BoldMT;writing-mode:lr-tb;fill:#fdfdc5;fill-opacity:1;fill-rule:nonzero;stroke:none"
             id="text10961"><tspan
               x="0 4.8864002 9.3327999 13.7792 16.889601 21.775999 23.9984 28.8848 33.771198"
               y="0"
               sodipodi:role="line"
               id="tspan10963">Learning </tspan></text>
</g><g
           id="g10965"
           transform="translate(819,478)"><text
             transform="scale(1,-1)"
             style="font-variant:normal;font-weight:bold;font-size:8px;font-family:Arial;-inkscape-font-specification:Arial-BoldMT;writing-mode:lr-tb;fill:#fdfdc5;fill-opacity:1;fill-rule:nonzero;stroke:none"
             id="text10967"><tspan
               x="0 5.336 8.4496002 13.336 15.5584 20.007999 24.4576 27.121599 29.344 34.2304"
               y="0"
               sodipodi:role="line"
               id="tspan10969">Projection</tspan></text>
</g><g
           id="g10971"
           transform="translate(518,464)"><text
             transform="scale(1,-1)"
             style="font-variant:normal;font-weight:bold;font-size:9px;font-family:Arial;-inkscape-font-specification:Arial-BoldMT;writing-mode:lr-tb;fill:#fdfdc5;fill-opacity:1;fill-rule:nonzero;stroke:none"
             id="text10973"><tspan
               x="0 7.4970002 12.5028 18 23.4972 25.9974 31.4946 36.991798"
               y="0"
               sodipodi:role="line"
               id="tspan10975">Mapping </tspan></text>
</g><g
           id="g10977"
           transform="translate(515,454)"><text
             transform="scale(1,-1)"
             style="font-variant:normal;font-weight:bold;font-size:9px;font-family:Arial;-inkscape-font-specification:Arial-BoldMT;writing-mode:lr-tb;fill:#fdfdc5;fill-opacity:1;fill-rule:nonzero;stroke:none"
             id="text10979"><tspan
               x="0 6.0029998 9.5058002 15.003 17.503201 22.509001 27.514799 30.511801 33.012001 38.509201"
               y="0"
               sodipodi:role="line"
               id="tspan10981">Projection</tspan></text>
</g><path
           d="m 1003.708,518.1078 -16.2879,-7.3229 53.0629,-30.4911 12.412,59.9279 -16.288,-7.3229 -18.092,40.2413 -32.899,-14.7911 18.092,-40.2412 z"
           style="fill:#de6a0f;fill-opacity:1;fill-rule:nonzero;stroke:none"
           id="path10983"
           inkscape:connector-curvature="0" /></g></g><g
       id="g10985"><g
         id="g10987"
         clip-path="url(#clipPath10989)"><path
           d="m 852.067,620.6303 219.657,0 0,-64.641 -219.657,0 0,64.641 z"
           style="fill:#fdfdc5;fill-opacity:1;fill-rule:nonzero;stroke:none"
           id="path10993"
           inkscape:connector-curvature="0" /><g
           id="g10995"
           transform="matrix(1,0,0,-1,852.067,620.6303)"><path
             d="m 0,0 219.6569,0 0,64.64102 L 0,64.64102 0,0 Z"
             style="fill:none;stroke:#fdfdc5;stroke-width:0.25;stroke-linecap:butt;stroke-linejoin:round;stroke-miterlimit:4;stroke-dasharray:none;stroke-opacity:1"
             id="path10997"
             inkscape:connector-curvature="0" /></g></g></g><g
       id="g10999"><g
         id="g11001"
         clip-path="url(#clipPath11003)"><g
           id="g11007"
           transform="translate(894,591)"><text
             transform="scale(1,-1)"
             style="font-variant:normal;font-weight:bold;font-size:14px;font-family:Arial;-inkscape-font-specification:Arial-BoldMT;writing-mode:lr-tb;fill:#000000;fill-opacity:1;fill-rule:nonzero;stroke:none"
             id="text11009"><tspan
               x="0 8.5511999 16.337999 24.1248 29.573601 38.124802 42.014 50.565201 59.116402 70.778397 78.565201 86.351997 94.903198 102.69 111.2412 115.1304 122.9172 135.366"
               y="0"
               sodipodi:role="line"
               id="tspan11011">LearningMechanism </tspan></text>
</g><g
           id="g11013"
           transform="translate(926,575)"><text
             transform="scale(1,-1)"
             style="font-variant:normal;font-weight:normal;font-size:14px;font-family:Arial;-inkscape-font-specification:ArialMT;writing-mode:lr-tb;fill:#000000;fill-opacity:1;fill-rule:nonzero;stroke:none"
             id="text11015"><tspan
               x="0 7.7867999 17.1248 26.462799 36.573601 46.684399 50.573601 60.684399"
               y="0"
               sodipodi:role="line"
               id="tspan11017">LEARNING</tspan></text>
</g></g></g><g
       id="g11019"><g
         id="g11021"
         clip-path="url(#clipPath11023)"><g
           id="g11027"
           transform="translate(1008,519)"><text
             transform="scale(1,-1)"
             style="font-variant:normal;font-weight:bold;font-size:8px;font-family:Arial;-inkscape-font-specification:Arial-BoldMT;writing-mode:lr-tb;fill:#fdfdc5;fill-opacity:1;fill-rule:nonzero;stroke:none"
             id="text11029"><tspan
               x="0 6.664 11.1136 16 20.8864 23.108801 27.995199 32.881599"
               y="0"
               sodipodi:role="line"
               id="tspan11031">Mapping </tspan></text>
</g><g
           id="g11033"
           transform="translate(1005,510)"><text
             transform="scale(1,-1)"
             style="font-variant:normal;font-weight:bold;font-size:8px;font-family:Arial;-inkscape-font-specification:Arial-BoldMT;writing-mode:lr-tb;fill:#fdfdc5;fill-opacity:1;fill-rule:nonzero;stroke:none"
             id="text11035"><tspan
               x="0 5.336 8.4496002 13.336 15.5584 20.007999 24.4576 27.121599 29.344 34.2304"
               y="0"
               sodipodi:role="line"
               id="tspan11037">Projection</tspan></text>
</g></g></g><g
       id="g11039"><g
         id="g11041"
         clip-path="url(#clipPath11043)"><path
           d="m 586.9147,743.3136 209.9616,0 0,-61.7879 -209.9616,0 0,61.7879 z"
           style="fill:#fdfdc5;fill-opacity:1;fill-rule:nonzero;stroke:none"
           id="path11047"
           inkscape:connector-curvature="0" /><g
           id="g11049"
           transform="matrix(1,0,0,-1,586.9147,743.3136)"><path
             d="m 0,0 209.9616,0 0,61.78787 L 0,61.78787 0,0 Z"
             style="fill:none;stroke:#fdfdc5;stroke-width:0.25;stroke-linecap:butt;stroke-linejoin:round;stroke-miterlimit:4;stroke-dasharray:none;stroke-opacity:1"
             id="path11051"
             inkscape:connector-curvature="0" /></g></g></g><g
       id="g11053"><g
         id="g11055"
         clip-path="url(#clipPath11057)"><g
           id="g11061"
           transform="translate(614,716)"><text
             transform="scale(1,-1)"
             style="font-variant:normal;font-weight:bold;font-size:14px;font-family:Arial;-inkscape-font-specification:Arial-BoldMT;writing-mode:lr-tb;fill:#000000;fill-opacity:1;fill-rule:nonzero;stroke:none"
             id="text11063"><tspan
               x="0 10.1108 18.662001 31.1108 39.661999 47.448799 52.897598 60.684399 65.346397 73.897598 79.346397 91.0084 98.795197 106.582 115.1332 122.92 131.47121 135.3604 143.1472 155.59599"
               y="0"
               sodipodi:role="line"
               id="tspan11065">ComparatorMechanism </tspan></text>
</g><g
           id="g11067"
           transform="translate(664,700)"><text
             transform="scale(1,-1)"
             style="font-variant:normal;font-weight:normal;font-size:14px;font-family:Arial;-inkscape-font-specification:ArialMT;writing-mode:lr-tb;fill:#000000;fill-opacity:1;fill-rule:nonzero;stroke:none"
             id="text11069"><tspan
               x="0 7.5124002 16.850401 26.961201 37.850399 47.1884"
               y="0"
               sodipodi:role="line"
               id="tspan11071">TARGET</tspan></text>
</g></g></g></g></svg>