<svg id="Layer_1" data-name="Layer 1" xmlns="http://www.w3.org/2000/svg" viewBox="0 0 958 427.695"><defs><style>.cls-1{font-size:14px;font-family:Times-Roman, Times;}.cls-10,.cls-11,.cls-12,.cls-14,.cls-2,.cls-5{fill:none;stroke-miterlimit:10;}.cls-14,.cls-2{stroke:red;}.cls-3{letter-spacing:-0.054em;}.cls-4{letter-spacing:-0.036em;}.cls-5{stroke:lime;}.cls-11,.cls-14,.cls-5{stroke-width:3px;}.cls-6{font-size:12px;font-family:ArialMT, Arial;}.cls-7{letter-spacing:-0.074em;}.cls-8{letter-spacing:-0.018em;}.cls-9{letter-spacing:-0.074em;}.cls-10{stroke:#000;}.cls-11,.cls-12{stroke:blue;}.cls-13{fill:blue;}</style></defs><text class="cls-1" transform="translate(441.205 421.7)">N-Back Model</text><rect class="cls-2" x="20.5" y="0.5" width="937" height="218"/><text class="cls-1" transform="translate(406.815 211.7)">WORKING MEMO<tspan class="cls-3" x="114.714" y="0">R</tspan><tspan class="cls-4" x="123.295" y="0">Y</tspan><tspan x="132.902" y="0" xml:space="preserve"> (fnn)</tspan></text><ellipse class="cls-5" cx="96.5" cy="244.5" rx="29.37" ry="18"/><text class="cls-6" transform="translate(81.274 247.2)"><tspan class="cls-7">T</tspan><tspan x="6.442" y="0">ASK</tspan></text><ellipse class="cls-5" cx="96.5" cy="170.5" rx="67.728" ry="18"/><text class="cls-6" transform="translate(50.492 173.2)">CURREN<tspan class="cls-8" x="51.334" y="0">T </tspan><tspan class="cls-9" x="61.566" y="0">T</tspan><tspan x="68.008" y="0">ASK</tspan></text><path class="cls-10" d="M136,273.708V246.362" transform="translate(-39.5 -47.5)"/><polygon points="93 198.582 96.5 188.582 100 198.582 93 198.582"/><polygon class="cls-10" points="93 198.582 96.5 188.582 100 198.582 93 198.582"/><ellipse class="cls-5" cx="270.5" cy="316.5" rx="46.148" ry="18"/><text class="cls-6" transform="translate(241.833 319.2)">CONTEXT</text><ellipse class="cls-10" cx="461.5" cy="244.5" rx="100.858" ry="18"/><text class="cls-6" transform="translate(389.377 247.2)">EPISODIC MEMO<tspan class="cls-8" x="98.01" y="0">RY</tspan><tspan x="114.248" y="0" xml:space="preserve"> (dict)</tspan></text><path class="cls-10" d="M343.27,351.459l104.786-39.5" transform="translate(-39.5 -47.5)"/><polygon points="407.62 261.071 418.211 260.818 410.089 267.621 407.62 261.071"/><polygon class="cls-10" points="407.62 261.071 418.211 260.818 410.089 267.621 407.62 261.071"/><ellipse class="cls-5" cx="267.5" cy="170.5" rx="84.78" ry="18"/><text class="cls-6" transform="translate(207.942 173.2)">CURREN<tspan class="cls-8" x="51.334" y="0">T</tspan><tspan x="58.448" y="0" xml:space="preserve"> CONTEXT</tspan></text><path class="cls-10" d="M309.626,345.8c-.512-24.917-1.436-69.91-2.041-99.316" transform="translate(-39.5 -47.5)"/><polygon points="264.585 198.995 267.879 188.925 271.583 198.851 264.585 198.995"/><polygon class="cls-10" points="264.585 198.995 267.879 188.925 271.583 198.851 264.585 198.995"/><ellipse class="cls-5" cx="745.5" cy="316.5" rx="28.123" ry="18"/><text class="cls-6" transform="translate(731.168 319.2)">STIM</text><path class="cls-10" d="M758.791,357.355,569.147,309.277" transform="translate(-39.5 -47.5)"/><polygon points="528.555 265.111 519.721 259.26 530.275 258.325 528.555 265.111"/><polygon class="cls-10" points="528.555 265.111 519.721 259.26 530.275 258.325 528.555 265.111"/><ellipse class="cls-5" cx="862.5" cy="170.5" rx="86.976" ry="18"/><text class="cls-6" transform="translate(801.272 173.2)">CURREN<tspan class="cls-8" x="51.334" y="0">T</tspan><tspan x="58.448" y="0" xml:space="preserve"> STIMULUS</tspan></text><path class="cls-10" d="M797.968,347.818,881.133,244.04" transform="translate(-39.5 -47.5)"/><polygon points="839.028 194.193 848.012 188.579 844.49 198.571 839.028 194.193"/><polygon class="cls-10" points="839.028 194.193 848.012 188.579 844.49 198.571 839.028 194.193"/><ellipse class="cls-5" cx="461.5" cy="170.5" rx="91.135" ry="18"/><text class="cls-6" transform="translate(396.827 173.2)">RETRIEVED CONTEXT</text><path class="cls-10" d="M501,273.708V246.362" transform="translate(-39.5 -47.5)"/><polygon points="458 198.582 461.5 188.582 465 198.582 458 198.582"/><polygon class="cls-10" points="458 198.582 461.5 188.582 465 198.582 458 198.582"/><ellipse class="cls-5" cx="664.5" cy="170.5" rx="93.331" ry="18"/><text class="cls-6" transform="translate(598.157 173.2)">RETRIEVED STIMULUS</text><path class="cls-10" d="M562.883,277.787C575.619,274.34,588.846,270.371,601,266c20.8-7.482,43.132-17.612,61.663-26.637" transform="translate(-39.5 -47.5)"/><polygon points="621.688 188.688 632.205 187.401 624.786 194.965 621.688 188.688"/><polygon class="cls-10" points="621.688 188.688 632.205 187.401 624.786 194.965 621.688 188.688"/><polygon class="cls-11" points="579.802 323.956 579.802 309.044 509.331 298.5 409.669 298.5 339.198 309.044 339.198 323.956 409.669 334.5 509.331 334.5 579.802 323.956"/><text class="cls-6" transform="translate(379.159 319.2)">READ/WRITE CONTROLLER</text><path class="cls-12" d="M499.505,345.831c.214-7.7.468-16.857.706-25.414" transform="translate(-39.5 -47.5)"/><rect class="cls-13" x="496.377" y="310.412" width="8" height="8" transform="translate(132.689 758.363) rotate(-88.408)"/><rect class="cls-12" x="496.377" y="310.412" width="8" height="8" transform="translate(132.689 758.363) rotate(-88.408)"/><line class="cls-12" x1="460.766" y1="270.91" x2="460.711" y2="272.909"/><ellipse class="cls-10" cx="364.5" cy="98.5" rx="65.427" ry="18"/><text class="cls-6" transform="translate(320.602 101.201)">HIDDEN L<tspan class="cls-7" x="56.01" y="0">A</tspan><tspan x="63.125" y="0">YER</tspan></text><path class="cls-10" d="M330.481,200.571l42.354-31.438" transform="translate(-39.5 -47.5)"/><polygon points="331.454 118.67 341.57 115.52 335.626 124.291 331.454 118.67"/><polygon class="cls-10" points="331.454 118.67 341.57 115.52 335.626 124.291 331.454 118.67"/><path class="cls-10" d="M838.565,205.626C827.718,203.647,816.547,201.7,806,200c-116.012-18.655-251.581-35.933-331.923-45.7" transform="translate(-39.5 -47.5)"/><polygon points="434.083 110.262 424.577 105.584 434.926 103.313 434.083 110.262"/><polygon class="cls-10" points="434.083 110.262 424.577 105.584 434.926 103.313 434.083 110.262"/><path class="cls-10" d="M477.519,200.571l-42.354-31.438" transform="translate(-39.5 -47.5)"/><polygon points="393.374 124.291 387.43 115.52 397.546 118.67 393.374 124.291"/><polygon class="cls-10" points="393.374 124.291 387.43 115.52 397.546 118.67 393.374 124.291"/><path class="cls-10" d="M645.445,203.947l-182.084-43.7" transform="translate(-39.5 -47.5)"/><polygon points="422.872 116.109 413.965 110.372 424.506 109.302 422.872 116.109"/><polygon class="cls-10" points="422.872 116.109 413.965 110.372 424.506 109.302 422.872 116.109"/><path class="cls-10" d="M183.913,205.128,347.23,161.252" transform="translate(-39.5 -47.5)"/><polygon points="306.886 110.354 317.451 111.14 308.702 117.115 306.886 110.354"/><polygon class="cls-10" points="306.886 110.354 317.451 111.14 308.702 117.115 306.886 110.354"/><ellipse class="cls-10" cx="225.5" cy="388.5" rx="100.231" ry="18"/><text class="cls-6" transform="translate(153.825 391.2)">OBJECTIVE MECHANISM</text><path class="cls-10" d="M315.775,420.377l117.47-36.145" transform="translate(-39.5 -47.5)"/><polygon points="392.913 333.326 403.5 333.731 394.971 340.017 392.913 333.326"/><polygon class="cls-10" points="392.913 333.326 403.5 333.731 394.971 340.017 392.913 333.326"/><ellipse class="cls-14" cx="233.5" cy="26.5" rx="72.513" ry="18"/><text class="cls-6" transform="translate(183.599 29.201)">DECISION L<tspan class="cls-7" x="68.016" y="0">A</tspan><tspan x="75.131" y="0">YER</tspan></text><path class="cls-10" d="M213,84.19C143.961,99.751,40,136.684,40,218v74c0,71.794,82.274,109.416,147.32,127.941" transform="translate(-39.5 -47.5)"/><polygon points="148.968 369.126 157.688 375.145 147.118 375.877 148.968 369.126"/><polygon class="cls-10" points="148.968 369.126 157.688 375.145 147.118 375.877 148.968 369.126"/><path class="cls-10" d="M374.6,129.842,312.106,95.493" transform="translate(-39.5 -47.5)"/><polygon points="270.787 50.988 263.71 43.104 274.159 44.853 270.787 50.988"/><polygon class="cls-10" points="270.787 50.988 263.71 43.104 274.159 44.853 270.787 50.988"/></svg>