<?xml version="1.0" encoding="UTF-8" standalone="no"?>
<!DOCTYPE svg PUBLIC "-//W3C//DTD SVG 1.1//EN"
"http://www.w3.org/Graphics/SVG/1.1/DTD/svg11.dtd">


<!-- Page 1 -->
<svg x="0" y="0" width="1370" height="687" viewBox="0 0 1370 687" version="1.1" xmlns="http://www.w3.org/2000/svg" xmlns:xlink="http://www.w3.org/1999/xlink"
style="display: block;margin-left: auto;margin-right: auto;">
<defs>

<style type="text/css"><![CDATA[

.g1_1{
fill: none;
stroke: #00FF00;
stroke-width: 4.5833335;
stroke-linecap: butt;
stroke-linejoin: round;
stroke-miterlimit: 1;
}
.g2_1{
fill: none;
stroke: #000000;
stroke-width: 1.5277778;
stroke-linecap: butt;
stroke-linejoin: round;
stroke-miterlimit: 1;
}
.g3_1{
stroke: #000000;
stroke-width: 1.5277778;
stroke-linecap: butt;
stroke-linejoin: round;
stroke-miterlimit: 1;
}
.g4_1{
fill: none;
stroke: #FF0000;
stroke-width: 4.5833335;
stroke-linecap: butt;
stroke-linejoin: round;
stroke-miterlimit: 1;
}

.s1_1{
font-size: 18.33px;
font-family: ArialMT_8;
fill: #000000;
}
.s2_1{
font-size: 15.28px;
font-family: ArialMT_8;
fill: #000000;
}

]]></style>

</defs>
<path d="M0,0
L0,687
L1370,687
L1370,0 Z " 
fill="#FFFFFF" stroke="none" />
<path d="M446.1,598.9c0,-15.2,-40.1,-27.5,-89.6,-27.5c-49.4,0,-89.5,12.3,-89.5,27.5c0,15.2,40.1,27.5,89.5,27.5c49.5,0,89.6,-12.3,89.6,-27.5Z" class="g1_1" />
<text 
x="297" 
y="603" 
dx="0,0,0,0,0,-0.3,0,0,-1.4,0,0" 
class="s1_1"
>INPUT LAYER</text>

<path d="M467.3,471.3c0,-15.2,-49.6,-27.5,-110.8,-27.5c-61.1,0,-110.7,12.3,-110.7,27.5c0,15.2,49.6,27.5,110.7,27.5c61.2,0,110.8,-12.3,110.8,-27.5Z" class="g2_1" />
<text 
x="280" 
y="475" 
dx="0,0,0,0,0,0,0,0,0,0,0,-1.4,0,0" 
class="s1_1"
>DECISION LAYER</text>

<path d="M356.5,571c0,-16.4,0,-37.7,0,-56.3" class="g2_1" />
<path d="M351.2,514.5l5.3,-15.3l5.4,15.3Z" class="g3_1" />
<text 
x="356" 
y="538" 
dx="0,0,0,0,0,0,0,0,0,0,0,0,0,0,0,0,0,0,0,0,0,0,0,0,0,0,0,0,-0.3,0,0,-1.1,0,0,0,0,0,0,0,0,-1.1,0,0,0,0,0,0,0,0,0,0,0,0,0,0,0,0,0,-1.1,0,0,0,0,0,0,0,0,0,0,0,0,0,0,0,0" 
class="s2_1"
>MappingProjection from INPUT LAYER[RESULTS] to DECISION LAYER[InputState-0]</text>

<path d="M458.7,482.4c21.2,-1.2,36.5,-4.9,36.5,-11.1c0,-4.5,-8.2,-7.7,-21,-9.6" class="g2_1" />
<path d="M473.4,467l-14.7,-6.7l15.7,-3.9Z" class="g3_1" />
<text 
x="495" 
y="474" 
dx="0,0,0,0,0,0,0,0,0,0,0,-1.1,0,0,0,0,0,0,0,0,0,0,0,0,0,0,0,0,0,0,0,0,0,0,0" 
class="s2_1"
>DECISION LAYER recurrent projection</text>

<path d="M369.4,88.6C369.4,73.4,315.8,61.1,249.6,61.1c-66.2,0,-119.8,12.3,-119.8,27.5c0,15.2,53.6,27.5,119.8,27.5c66.2,0,119.8,-12.3,119.8,-27.5Z" class="g4_1" />
<text 
x="166" 
y="92" 
dx="0,0,0,0,0,0,0,0,0,0,0,-1.4,0,0" 
class="s1_1"
>RESPONSE LAYER</text>

<path d="M290.3,449.2C221.4,423.7,117.1,373.2,70.6,288.8C33.3,221,120.4,157.3,185.8,121.1" class="g2_1" />
<path d="M183.3,116.3l16,-2.5l-10.9,11.9Z" class="g3_1" />
<text 
x="70" 
y="283" 
dx="0,0,0,0,0,0,0,0,0,0,0,0,0,0,0,0,0,0,0,0,0,0,0,0,0,0,0,0,0,0,0,0,0,0,-1.1,0,0,0,0,0,0,0,0,-1.1,0,0,0,0,0,0,0,0,0,0,0,0,0,0,0,0,-1.1,0,0,0,0,0,0,0,0,0,0,0,0,0,0,0,0" 
class="s2_1"
>MappingProjection from DECISION LAYER[RESULT] to RESPONSE LAYER[InputState-0]</text>

<path d="M638,343.8c0,-15.2,-43.9,-27.5,-98.1,-27.5c-54.2,0,-98.1,12.3,-98.1,27.5c0,15.1,43.9,27.5,98.1,27.5c54.2,0,98.1,-12.4,98.1,-27.5Z" class="g2_1" />
<text 
x="474" 
y="347" 
dx="0,0,0,0,0,0,0,0,0,0,0,0,0,0" 
class="s1_1"
>Combine values</text>

<path d="M349.8,443.7c-2.2,-14.6,-2,-32.4,7.6,-44.9c17.5,-23.1,44.4,-36.7,72.3,-44.5" class="g2_1" />
<path d="M428.6,349.1l16.1,1.5l-13.5,8.8Z" class="g3_1" />
<text 
x="358" 
y="410" 
dx="0,0,0,0,0,0,0,0,0,0,0,0,0,0,0,0,0,0,0,0,0,0,0,0,0,0,0,0,0,0,0,0,0,0,-1.1,0,0,0,0,0,0,0,0,-1.1,0,0,0,0,0,0,0,0,0,0,0,0,0,0,0,0,0,0,0,0,0,0,0,0,0,0,0,0,0,0,0,0,0" 
class="s2_1"
>MappingProjection from DECISION LAYER[RESULT] to Combine values[InputState-0]</text>

<path d="M762.9,216.2c0,-15.2,-18.4,-27.5,-41.2,-27.5c-22.8,0,-41.3,12.3,-41.3,27.5c0,15.2,18.5,27.5,41.3,27.5c22.8,0,41.2,-12.3,41.2,-27.5Z" class="g2_1" />
<text 
x="709" 
y="220" 
dx="0,0" 
class="s1_1"
>LC</text>

<path d="M761.7,222.9c53,7.7,142,23.9,163.2,48.3c172.7,198.4,41.8,116,15.3,145.1c-30.3,33.1,-295.7,46,-458,50.8" class="g2_1" />
<path d="M482.3,472.5l-15.5,-5l15.1,-5.7Z" class="g3_1" />
<text 
x="1001" 
y="347" 
dx="0,0,0,0,0,0,0,0,0,0,0,0,0,0,0,0,0,0,0,0,0,0,0,0,0,0,0,0,0,0,0,0,0,-1.1,0,0,0,0,0,0,0,0" 
class="s2_1"
>ControlProjection for DECISION LAYER[gain]</text>

<path d="M683.9,204.7C609.8,185.2,444,141.4,340,114" class="g2_1" />
<path d="M338.6,119.1l-13.5,-9l16.2,-1.3Z" class="g3_1" />
<text 
x="515" 
y="155" 
dx="0,0,0,0,0,0,0,0,0,0,0,0,0,0,0,0,0,0,0,0,0,0,0,0,0,0,0,0,0,0,0,0,0,-1.1,0,0,0,0,0,0,0,0" 
class="s2_1"
>ControlProjection for RESPONSE LAYER[gain]</text>

<path d="M359.2,99.6c21.8,-1.2,37.4,-4.9,37.4,-11c0,-4.5,-8.6,-7.7,-21.9,-9.5" class="g2_1" />
<path d="M373.9,84.4L359.2,77.6l15.7,-3.9Z" class="g3_1" />
<text 
x="396" 
y="92" 
dx="0,0,0,0,0,0,0,0,0,0,0,-1.1,0,0,0,0,0,0,0,0,0,0,0,0,0,0,0,0,0,0,0,0,0,0,0" 
class="s2_1"
>RESPONSE LAYER recurrent projection</text>

<path d="M617.3,326.7c24.8,-8,51,-20,70.8,-37.9c9,-8.2,15.8,-19.4,20.9,-30.4" class="g2_1" />
<path d="M704.2,255.9l10.6,-12.2l-0.7,16.2Z" class="g3_1" />
<text 
x="701" 
y="283" 
dx="0,0,0,0,0,0,0,0,0,0,0,0,0,0,0,0,0,0,0,0,0,0,0,0,0,0,0,0,0" 
class="s2_1"
>Combine values outcome signal</text>



<!-- Any embedded fonts defined here -->
<style type="text/css" ><![CDATA[

@font-face {
	font-family: ArialMT_8;
	src: url("fonts/ArialMT_8.woff") format("woff");
}

]]></style>

</svg>
