<?xml version="1.0" encoding="utf-8"?>
<!-- Generator: Adobe Illustrator 25.3.1, SVG Export Plug-In . SVG Version: 6.00 Build 0)  -->
<svg version="1.1" id="Layer_1" xmlns="http://www.w3.org/2000/svg" xmlns:xlink="http://www.w3.org/1999/xlink" x="0px" y="0px"
	 viewBox="0 0 810 540" style="enable-background:new 0 0 810 540;" xml:space="preserve">
<style type="text/css">
	.st0{clip-path:url(#SVGID_2_);}
	.st1{fill:#FFFFFF;}
	.st2{fill:#004D80;}
	.st3{font-family:'HelveticaNeue-Bold';}
	.st4{font-size:32px;}
	.st5{fill:#F2F1F3;}
	.st6{fill:none;stroke:#000000;stroke-width:0.25;}
	.st7{clip-path:url(#SVGID_4_);}
	.st8{font-family:'HelveticaNeue-Medium';}
	.st9{font-size:23px;}
	.st10{clip-path:url(#SVGID_6_);}
	.st11{opacity:0.426;}
	.st12{clip-path:url(#SVGID_8_);}
	.st13{clip-path:url(#SVGID_10_);}
	.st14{fill:#D6D5D5;}
	.st15{clip-path:url(#SVGID_12_);}
	.st16{font-size:10px;}
	.st17{clip-path:url(#SVGID_14_);}
	.st18{clip-path:url(#SVGID_16_);}
	.st19{clip-path:url(#SVGID_18_);}
	.st20{clip-path:url(#SVGID_20_);}
	.st21{clip-path:url(#SVGID_22_);}
	.st22{fill:none;stroke:#000000;}
	.st23{fill:none;stroke:#0076BA;stroke-width:4;}
	.st24{fill:#0076BA;}
	.st25{fill:none;stroke:#6BFDB9;stroke-width:6;}
	.st26{fill:#6BFDB9;}
	.st27{font-family:'HelveticaNeue-BoldItalic';}
	.st28{font-size:24px;}
	.st29{clip-path:url(#SVGID_24_);}
	.st30{fill:none;stroke:#0076BA;stroke-width:5;}
	.st31{clip-path:url(#SVGID_26_);}
	.st32{font-size:14px;}
	.st33{clip-path:url(#SVGID_28_);}
	.st34{fill:none;stroke:#FF9300;stroke-width:5;}
	.st35{fill:#FF9300;}
	.st36{clip-path:url(#SVGID_30_);}
	.st37{fill:none;stroke:#000000;stroke-width:3;}
	.st38{clip-path:url(#SVGID_32_);}
	.st39{font-family:'HelveticaNeue-Italic';}
	.st40{clip-path:url(#SVGID_34_);}
	.st41{clip-path:url(#SVGID_36_);}
	.st42{clip-path:url(#SVGID_38_);}
	.st43{clip-path:url(#SVGID_40_);}
	.st44{clip-path:url(#SVGID_42_);}
	.st45{clip-path:url(#SVGID_44_);}
	.st46{font-size:11px;}
	.st47{clip-path:url(#SVGID_46_);}
	.st48{clip-path:url(#SVGID_48_);}
	.st49{clip-path:url(#SVGID_50_);}
	.st50{clip-path:url(#SVGID_52_);}
	.st51{clip-path:url(#SVGID_54_);}
	.st52{clip-path:url(#SVGID_56_);}
	.st53{clip-path:url(#SVGID_58_);}
	.st54{clip-path:url(#SVGID_60_);}
	.st55{clip-path:url(#SVGID_62_);}
	.st56{fill:none;stroke:#FF9300;stroke-width:4;}
	.st57{clip-path:url(#SVGID_64_);}
	.st58{clip-path:url(#SVGID_66_);}
	.st59{fill:none;stroke:#6BFDB9;stroke-width:4;}
	.st60{fill:#421F0C;}
	.st61{fill:none;stroke:#1DB100;stroke-width:5;}
	.st62{fill:none;stroke:#EE220C;stroke-width:5;}
	.st63{fill:none;stroke:#EE220C;stroke-width:2;}
	.st64{fill:#EE220C;}
	.st65{fill:none;stroke:#1DB100;stroke-width:2;}
	.st66{fill:#1DB100;}
	.st67{clip-path:url(#SVGID_68_);}
	.st68{clip-path:url(#SVGID_70_);}
	.st69{fill:none;stroke:#6BFCB9;stroke-width:5;}
	.st70{fill:#6BFCB9;}
	.st71{fill:none;stroke:#FF9300;stroke-width:6;}
	.st72{clip-path:url(#SVGID_72_);}
	.st73{clip-path:url(#SVGID_74_);}
</style>
<g>
	<defs>
		<rect id="SVGID_1_" y="-7.2" width="810" height="540"/>
	</defs>
	<clipPath id="SVGID_2_">
		<use xlink:href="#SVGID_1_"  style="overflow:visible;"/>
	</clipPath>
	<g class="st0">
		<rect y="-7.2" class="st1" width="810" height="540"/>
		<text transform="matrix(1 0 0 1 276.3687 44.8033)" class="st2 st3 st4">Optimization</text>
		<ellipse class="st5" cx="173.8" cy="284.9" rx="140.7" ry="167.4"/>
		<ellipse class="st6" cx="173.8" cy="284.9" rx="140.7" ry="167.4"/>
	</g>
</g>
<g>
	<defs>
		<rect id="SVGID_3_" x="33" y="117.5" width="281.4" height="334.8"/>
	</defs>
	<clipPath id="SVGID_4_">
		<use xlink:href="#SVGID_3_"  style="overflow:visible;"/>
	</clipPath>
	<g class="st7">
		<text transform="matrix(1 0 0 1 106.032 422.835)" class="st8 st9">Composition</text>
	</g>
</g>
<g>
	<defs>
		<rect id="SVGID_5_" y="-7.2" width="810" height="540"/>
	</defs>
	<clipPath id="SVGID_6_">
		<use xlink:href="#SVGID_5_"  style="overflow:visible;"/>
	</clipPath>
	<g class="st10">
		<g class="st11">
			<g>
				<defs>
					<rect id="SVGID_7_" x="48" y="127.8" width="207" height="272"/>
				</defs>
				<clipPath id="SVGID_8_">
					<use xlink:href="#SVGID_7_"  style="overflow:visible;"/>
				</clipPath>
				<g class="st12">
					<g>
						<defs>
							<rect id="SVGID_9_" x="48" y="127.8" width="207" height="272"/>
						</defs>
						<clipPath id="SVGID_10_">
							<use xlink:href="#SVGID_9_"  style="overflow:visible;"/>
						</clipPath>
						<g class="st13">
							<path class="st1" d="M251.3,177c-3.1,31.4-40.6,32.3-64.5,49.6c-17.6,12.7-27.1,32.8-20.8,53.6c7.3,24.3,35.3,36.4,43,60.6
								c4.1,12.7,2.1,26.5-5.5,37.5c-8.8,12.7-22.2,19.6-37.4,20.2c-15.5,0.6-31.6-5.8-45.6-14.7c-23.8-15.1-44.1-35.4-56.7-60.7
								c-7.5-15.3-12.1-31.8-13.6-48.8c-3.6-38.1,7.2-76,32.8-104.5c19.6-21.9,46.4-36,75.5-39.7c14.8-1.8,29.7-1.3,44.4,1.6
								C229.3,136.6,253.7,152.5,251.3,177z"/>
							<path class="st6" d="M251.3,177c-3.1,31.4-40.6,32.3-64.5,49.6c-17.6,12.7-27.1,32.8-20.8,53.6c7.3,24.3,35.3,36.4,43,60.6
								c4.1,12.7,2.1,26.5-5.5,37.5c-8.8,12.7-22.2,19.6-37.4,20.2c-15.5,0.6-31.6-5.8-45.6-14.7c-23.8-15.1-44.1-35.4-56.7-60.7
								c-7.5-15.3-12.1-31.8-13.6-48.8c-3.6-38.1,7.2-76,32.8-104.5c19.6-21.9,46.4-36,75.5-39.7c14.8-1.8,29.7-1.3,44.4,1.6
								C229.3,136.6,253.7,152.5,251.3,177z"/>
						</g>
					</g>
				</g>
			</g>
		</g>
		<ellipse class="st14" cx="115.3" cy="202.3" rx="33.2" ry="27.1"/>
		<ellipse class="st6" cx="115.3" cy="202.3" rx="33.2" ry="27.1"/>
	</g>
</g>
<g>
	<defs>
		<rect id="SVGID_11_" x="82.1" y="175.2" width="66.4" height="54.3"/>
	</defs>
	<clipPath id="SVGID_12_">
		<use xlink:href="#SVGID_11_"  style="overflow:visible;"/>
	</clipPath>
	<g class="st15">
		<text transform="matrix(1 0 0 1 88.644 206.065)" class="st8 st16">Mechanism</text>
	</g>
</g>
<g>
	<defs>
		<rect id="SVGID_13_" y="-7.2" width="810" height="540"/>
	</defs>
	<clipPath id="SVGID_14_">
		<use xlink:href="#SVGID_13_"  style="overflow:visible;"/>
	</clipPath>
	<g class="st17">
		<ellipse class="st14" cx="96.2" cy="292.6" rx="33.2" ry="27.1"/>
		<ellipse class="st6" cx="96.2" cy="292.6" rx="33.2" ry="27.1"/>
	</g>
</g>
<g>
	<defs>
		<rect id="SVGID_15_" x="63" y="265.5" width="66.4" height="54.3"/>
	</defs>
	<clipPath id="SVGID_16_">
		<use xlink:href="#SVGID_15_"  style="overflow:visible;"/>
	</clipPath>
	<g class="st18">
		<text transform="matrix(1 0 0 1 69.482 296.399)" class="st8 st16">Mechanism</text>
	</g>
</g>
<g>
	<defs>
		<rect id="SVGID_17_" y="-7.2" width="810" height="540"/>
	</defs>
	<clipPath id="SVGID_18_">
		<use xlink:href="#SVGID_17_"  style="overflow:visible;"/>
	</clipPath>
	<g class="st19">
		<ellipse class="st14" cx="162.9" cy="357.3" rx="33.2" ry="27.1"/>
		<ellipse class="st6" cx="162.9" cy="357.3" rx="33.2" ry="27.1"/>
	</g>
</g>
<g>
	<defs>
		<rect id="SVGID_19_" x="129.7" y="330.2" width="66.4" height="54.3"/>
	</defs>
	<clipPath id="SVGID_20_">
		<use xlink:href="#SVGID_19_"  style="overflow:visible;"/>
	</clipPath>
	<g class="st20">
		<text transform="matrix(1 0 0 1 136.181 361.053)" class="st8 st16">Mechanism</text>
	</g>
</g>
<g>
	<defs>
		<rect id="SVGID_21_" y="-7.2" width="810" height="540"/>
	</defs>
	<clipPath id="SVGID_22_">
		<use xlink:href="#SVGID_21_"  style="overflow:visible;"/>
	</clipPath>
	<g class="st21">
		<path class="st22" d="M96.5,265.4c1.4-10.6,3.6-21.1,6.9-31.4l0.2-0.5"/>
		<polygon points="106.2,234.9 105.1,228.3 100.5,233.1 		"/>
		<path class="st22" d="M134.4,343.1c-8.3-5.6-15.7-12.5-22-20.4l-0.3-0.4"/>
		<polygon points="114.8,320.9 108.9,317.8 110,324.5 		"/>
		<path class="st23" d="M208.3,269.8c-25.2,0.6-47.2,2.8-66,6.7l-1.9,0.5"/>
		<polygon class="st24" points="140.3,268.3 126,280.5 144.3,284.6 		"/>
		<path class="st22" d="M138.8,183c8.7-3.5,17.8-6.1,27.1-7.7l0.5-0.1"/>
		<polygon points="166.5,178.2 171.9,174.2 165.4,172.3 		"/>
		<path class="st22" d="M113.8,269.5c20.2-25.9,41.9-50.6,65-73.9l0.4-0.4"/>
		<polygon points="181,197.7 183.1,191.4 176.7,193.5 		"/>
		<polyline class="st23" points="214.7,251.3 158.9,223.8 157.1,222.9 		"/>
		<polygon class="st24" points="162.6,216.3 143.9,216.4 155.2,231.4 		"/>
		<path class="st25" d="M235.5,295.9c-3.2,8.6-7.2,16.8-12,24.6l-2.1,2.2"/>
		<polygon class="st26" points="214.9,312.2 206.8,337.8 232.1,328.8 		"/>
		<text transform="matrix(1 0 0 1 102.223 96.8643)" class="st2 st27 st28">Model-based</text>
	</g>
</g>
<g>
	<defs>
		<rect id="SVGID_23_" x="377.1" y="445.3" width="24.6" height="7"/>
	</defs>
	<clipPath id="SVGID_24_">
		<use xlink:href="#SVGID_23_"  style="overflow:visible;"/>
	</clipPath>
	<g class="st29">
		<line class="st30" x1="378.1" y1="448.8" x2="400.7" y2="448.8"/>
	</g>
</g>
<g>
	<defs>
		<rect id="SVGID_25_" x="315" y="434.5" width="59.7" height="25.3"/>
	</defs>
	<clipPath id="SVGID_26_">
		<use xlink:href="#SVGID_25_"  style="overflow:visible;"/>
	</clipPath>
	<g class="st31">
		<text transform="matrix(1 0 0 1 320.94 452.181)" class="st2 st27 st32">Cont</text>
		<text transform="matrix(1 0 0 1 353.35 452.181)" class="st2 st27 st32">r</text>
		<text transform="matrix(1 0 0 1 358.558 452.181)" class="st2 st27 st32">ol</text>
	</g>
</g>
<g>
	<defs>
		<rect id="SVGID_27_" y="-7.2" width="810" height="540"/>
	</defs>
	<clipPath id="SVGID_28_">
		<use xlink:href="#SVGID_27_"  style="overflow:visible;"/>
	</clipPath>
	<g class="st33">
		<line class="st34" x1="378.1" y1="487.5" x2="400.7" y2="487.5"/>
		<text transform="matrix(1 0 0 1 299.954 490.865)" class="st35 st27 st32">Evaluation</text>
	</g>
</g>
<g>
	<defs>
		<rect id="SVGID_29_" x="377.1" y="423.3" width="24.6" height="5"/>
	</defs>
	<clipPath id="SVGID_30_">
		<use xlink:href="#SVGID_29_"  style="overflow:visible;"/>
	</clipPath>
	<g class="st36">
		<line class="st37" x1="378.1" y1="425.8" x2="400.7" y2="425.8"/>
	</g>
</g>
<g>
	<defs>
		<rect id="SVGID_31_" x="289.6" y="411.4" width="85.1" height="25.3"/>
	</defs>
	<clipPath id="SVGID_32_">
		<use xlink:href="#SVGID_31_"  style="overflow:visible;"/>
	</clipPath>
	<g class="st38">
		<text transform="matrix(1 0 0 1 298.372 429.117)" class="st39 st32">Processing</text>
	</g>
</g>
<g>
	<defs>
		<rect id="SVGID_33_" y="-7.2" width="810" height="540"/>
	</defs>
	<clipPath id="SVGID_34_">
		<use xlink:href="#SVGID_33_"  style="overflow:visible;"/>
	</clipPath>
	<g class="st40">
		<path class="st5" d="M573.9,117.7c42.6,8.9,84,25.3,116.1,49.9c33.2,25.4,56.4,59.6,61.1,102.5c5.9,53.4-21,103.5-66,138
			c-76.7,58.9-189.9,59.8-266.8,0C362.8,365,339.4,296,357,227.5c9.2-36.1,27.5-68.4,56.5-89.2C459.1,105.5,518.1,106.1,573.9,117.7
			z"/>
		<path class="st6" d="M573.9,117.7c42.6,8.9,84,25.3,116.1,49.9c33.2,25.4,56.4,59.6,61.1,102.5c5.9,53.4-21,103.5-66,138
			c-76.7,58.9-189.9,59.8-266.8,0C362.8,365,339.4,296,357,227.5c9.2-36.1,27.5-68.4,56.5-89.2C459.1,105.5,518.1,106.1,573.9,117.7
			z"/>
	</g>
</g>
<g>
	<defs>
		<rect id="SVGID_35_" x="351.3" y="110.5" width="400.6" height="342.2"/>
	</defs>
	<clipPath id="SVGID_36_">
		<use xlink:href="#SVGID_35_"  style="overflow:visible;"/>
	</clipPath>
	<g class="st41">
		<text transform="matrix(1 0 0 1 483.647 434.114)" class="st8 st9">Composition</text>
	</g>
</g>
<g>
	<defs>
		<rect id="SVGID_37_" y="-7.2" width="810" height="540"/>
	</defs>
	<clipPath id="SVGID_38_">
		<use xlink:href="#SVGID_37_"  style="overflow:visible;"/>
	</clipPath>
	<g class="st42">
		<g class="st11">
			<g>
				<defs>
					<rect id="SVGID_39_" x="378" y="127.8" width="207" height="277"/>
				</defs>
				<clipPath id="SVGID_40_">
					<use xlink:href="#SVGID_39_"  style="overflow:visible;"/>
				</clipPath>
				<g class="st43">
					<g>
						<defs>
							<rect id="SVGID_41_" x="378" y="127.8" width="207" height="277"/>
						</defs>
						<clipPath id="SVGID_42_">
							<use xlink:href="#SVGID_41_"  style="overflow:visible;"/>
						</clipPath>
						<g class="st44">
							<path class="st1" d="M581.3,178.5c-3.1,31.9-40.6,32.7-64.5,50.3c-17.6,12.9-27.1,33.2-20.8,54.4c7.3,24.7,35.3,36.9,43,61.5
								c4.1,12.8,2.1,26.9-5.5,38c-8.8,12.9-22.2,19.9-37.4,20.5c-15.5,0.6-31.6-5.9-45.6-14.9c-23.8-15.3-44.1-35.9-56.6-61.5
								c-7.5-15.5-12.1-32.3-13.6-49.5c-3.6-38.6,7.2-77.1,32.8-106c19.4-22.2,46.3-36.5,75.5-40.3c14.8-1.8,29.7-1.3,44.4,1.6
								C559.3,137.5,583.7,153.6,581.3,178.5z"/>
							<path class="st6" d="M581.3,178.5c-3.1,31.9-40.6,32.7-64.5,50.3c-17.6,12.9-27.1,33.2-20.8,54.4c7.3,24.7,35.3,36.9,43,61.5
								c4.1,12.8,2.1,26.9-5.5,38c-8.8,12.9-22.2,19.9-37.4,20.5c-15.5,0.6-31.6-5.9-45.6-14.9c-23.8-15.3-44.1-35.9-56.6-61.5
								c-7.5-15.5-12.1-32.3-13.6-49.5c-3.6-38.6,7.2-77.1,32.8-106c19.4-22.2,46.3-36.5,75.5-40.3c14.8-1.8,29.7-1.3,44.4,1.6
								C559.3,137.5,583.7,153.6,581.3,178.5z"/>
						</g>
					</g>
				</g>
			</g>
		</g>
		<ellipse class="st14" cx="573.9" cy="276.2" rx="44.9" ry="37.3"/>
		<ellipse class="st6" cx="573.9" cy="276.2" rx="44.9" ry="37.3"/>
	</g>
</g>
<g>
	<defs>
		<rect id="SVGID_43_" x="529" y="238.9" width="89.8" height="74.5"/>
	</defs>
	<clipPath id="SVGID_44_">
		<use xlink:href="#SVGID_43_"  style="overflow:visible;"/>
	</clipPath>
	<g class="st45">
		<text transform="matrix(1 0 0 1 540.531 267.052)" class="st3 st46">Optimization</text>
		<text transform="matrix(1 0 0 1 554.463 280.052)" class="st3 st46">Cont</text>
		<text transform="matrix(1 0 0 1 579.73 280.052)" class="st3 st46">r</text>
		<text transform="matrix(1 0 0 1 583.821 280.052)" class="st3 st46">ol</text>
		<text transform="matrix(1 0 0 1 543.578 293.052)" class="st3 st46">Mechanism</text>
	</g>
</g>
<g>
	<defs>
		<rect id="SVGID_45_" y="-7.2" width="810" height="540"/>
	</defs>
	<clipPath id="SVGID_46_">
		<use xlink:href="#SVGID_45_"  style="overflow:visible;"/>
	</clipPath>
	<g class="st47">
		<ellipse class="st14" cx="445.3" cy="204.2" rx="33.2" ry="27.5"/>
		<ellipse class="st6" cx="445.3" cy="204.2" rx="33.2" ry="27.5"/>
	</g>
</g>
<g>
	<defs>
		<rect id="SVGID_47_" x="412.1" y="176.7" width="66.4" height="55.1"/>
	</defs>
	<clipPath id="SVGID_48_">
		<use xlink:href="#SVGID_47_"  style="overflow:visible;"/>
	</clipPath>
	<g class="st48">
		<text transform="matrix(1 0 0 1 418.64 207.386)" class="st8 st16">Mechanism</text>
	</g>
</g>
<g>
	<defs>
		<rect id="SVGID_49_" y="-7.2" width="810" height="540"/>
	</defs>
	<clipPath id="SVGID_50_">
		<use xlink:href="#SVGID_49_"  style="overflow:visible;"/>
	</clipPath>
	<g class="st49">
		<ellipse class="st14" cx="426.2" cy="295.9" rx="33.2" ry="27.5"/>
		<ellipse class="st6" cx="426.2" cy="295.9" rx="33.2" ry="27.5"/>
	</g>
</g>
<g>
	<defs>
		<rect id="SVGID_51_" x="393" y="268.3" width="66.4" height="55.1"/>
	</defs>
	<clipPath id="SVGID_52_">
		<use xlink:href="#SVGID_51_"  style="overflow:visible;"/>
	</clipPath>
	<g class="st50">
		<text transform="matrix(1 0 0 1 399.479 299.031)" class="st8 st16">Mechanism</text>
	</g>
</g>
<g>
	<defs>
		<rect id="SVGID_53_" y="-7.2" width="810" height="540"/>
	</defs>
	<clipPath id="SVGID_54_">
		<use xlink:href="#SVGID_53_"  style="overflow:visible;"/>
	</clipPath>
	<g class="st51">
		<ellipse class="st14" cx="492.9" cy="352.3" rx="33.2" ry="27.5"/>
		<ellipse class="st6" cx="492.9" cy="352.3" rx="33.2" ry="27.5"/>
	</g>
</g>
<g>
	<defs>
		<rect id="SVGID_55_" x="459.7" y="324.8" width="66.4" height="55.1"/>
	</defs>
	<clipPath id="SVGID_56_">
		<use xlink:href="#SVGID_55_"  style="overflow:visible;"/>
	</clipPath>
	<g class="st52">
		<text transform="matrix(1 0 0 1 466.177 355.494)" class="st8 st16">Mechanism</text>
	</g>
</g>
<g>
	<defs>
		<rect id="SVGID_57_" y="-7.2" width="810" height="540"/>
	</defs>
	<clipPath id="SVGID_58_">
		<use xlink:href="#SVGID_57_"  style="overflow:visible;"/>
	</clipPath>
	<g class="st53">
		<path class="st22" d="M426.5,268.2c1.4-10.8,3.7-21.5,6.9-31.9l0.2-0.5"/>
		<polygon points="436.2,237.2 435.1,230.6 430.5,235.4 		"/>
		<path class="st22" d="M462.9,340.1c-6.8-4.1-13-9.1-18.4-14.8l-0.3-0.4"/>
		<polygon points="446.8,323.4 440.6,320.8 442.3,327.3 		"/>
		<path class="st23" d="M528.9,274.8c-21.3,0.2-40.2,1.9-56.5,5l-2,0.5"/>
		<polygon class="st24" points="470.5,271.6 456,283.6 474.3,287.9 		"/>
		<ellipse class="st14" cx="534.9" cy="172.2" rx="33.2" ry="27.5"/>
		<ellipse class="st6" cx="534.9" cy="172.2" rx="33.2" ry="27.5"/>
	</g>
</g>
<g>
	<defs>
		<rect id="SVGID_59_" x="501.7" y="144.7" width="66.4" height="55.1"/>
	</defs>
	<clipPath id="SVGID_60_">
		<use xlink:href="#SVGID_59_"  style="overflow:visible;"/>
	</clipPath>
	<g class="st54">
		<text transform="matrix(1 0 0 1 513.051 169.403)" class="st8 st16">Objective</text>
		<text transform="matrix(1 0 0 1 508.251 181.403)" class="st8 st16">Mechanism</text>
	</g>
</g>
<g>
	<defs>
		<rect id="SVGID_61_" y="-7.2" width="810" height="540"/>
	</defs>
	<clipPath id="SVGID_62_">
		<use xlink:href="#SVGID_61_"  style="overflow:visible;"/>
	</clipPath>
	<g class="st55">
		<path class="st22" d="M468.8,184.6c8.7-3.6,17.8-6.2,27.1-7.9l0.5-0.1"/>
		<polygon points="496.5,179.7 501.9,175.7 495.4,173.8 		"/>
		<path class="st22" d="M443.8,272.4c20.2-26.2,42-51.3,65.1-75l0.4-0.4"/>
		<polygon points="511,199.5 513.1,193.1 506.8,195.3 		"/>
		<polyline class="st23" points="536.6,255.3 487.6,227.9 485.9,226.9 		"/>
		<polygon class="st24" points="491.7,220.6 473,219.7 483.5,235.2 		"/>
		<path class="st56" d="M621.7,305.9l1.9,0.7c12,2,24.1-1.6,36.3-10.9"/>
		<polygon class="st35" points="626.5,298.7 607.8,300.8 620.7,314.5 		"/>
		<ellipse class="st14" cx="683.9" cy="267" rx="44.9" ry="37.3"/>
		<ellipse class="st6" cx="683.9" cy="267" rx="44.9" ry="37.3"/>
	</g>
</g>
<g>
	<defs>
		<rect id="SVGID_63_" x="639" y="229.8" width="89.8" height="74.5"/>
	</defs>
	<clipPath id="SVGID_64_">
		<use xlink:href="#SVGID_63_"  style="overflow:visible;"/>
	</clipPath>
	<g class="st57">
		<text transform="matrix(1 0 0 1 651.521 257.815)" class="st8 st46">Composition</text>
		<text transform="matrix(1 0 0 1 661.707 270.815)" class="st8 st46">Function</text>
		<text transform="matrix(1 0 0 1 649.277 283.815)" class="st8 st46">App</text>
		<text transform="matrix(1 0 0 1 670.056 283.815)" class="st8 st46">r</text>
		<text transform="matrix(1 0 0 1 673.741 283.815)" class="st8 st46">oximator</text>
	</g>
</g>
<g>
	<defs>
		<rect id="SVGID_65_" y="-7.2" width="810" height="540"/>
	</defs>
	<clipPath id="SVGID_66_">
		<use xlink:href="#SVGID_65_"  style="overflow:visible;"/>
	</clipPath>
	<g class="st58">
		<path class="st59" d="M658.8,312.6l-1.6,1.2c-21.8,14.4-42,12.6-60.5-5.5"/>
		<polygon class="st26" points="662.5,320.4 670.4,303.4 652.1,307.2 		"/>
		<text transform="matrix(1 0 0 1 472.895 96.8643)" class="st2 st27 st28">“Model-f</text>
		<text transform="matrix(1 0 0 1 573.309 96.8643)" class="st2 st27 st28">r</text>
		<text transform="matrix(1 0 0 1 582.237 96.8643)" class="st2 st27 st28">ee”</text>
		<text transform="matrix(1 0 0 1 296.86 516.79)" class="st60 st27 st32">Adaptation</text>
		<line class="st61" x1="378.1" y1="508.3" x2="400.7" y2="508.3"/>
		<text transform="matrix(1 0 0 1 408.732 512.037)" class="st60 st39 st46">Features</text>
		<line class="st62" x1="378.1" y1="519.5" x2="400.7" y2="519.5"/>
		<text transform="matrix(1 0 0 1 407.511 523.24)" class="st60 st39 st46">Outcome</text>
		<path class="st63" d="M579.1,164c34.6,6.6,39.5,29.3,14.6,68.1l-0.6,0.8"/>
		<polygon class="st64" points="589.7,229.4 588.4,240.1 597.7,234.8 		"/>
		<path class="st63" d="M603.3,246.1c8.9-9.4,20.5-11.9,35-7.6l0.9,0.4"/>
		<polygon class="st64" points="636.7,243 647.4,241.8 640.1,234 		"/>
		<path class="st65" d="M526.7,358.4c18.9-4,33-17.2,42.2-39.5l0.3-0.9"/>
		<polygon class="st66" points="573.4,320.5 572.2,309.9 564.4,317.2 		"/>
		<path class="st65" d="M611,252.6c5.3-7.2,13-8.9,22.9-5.2l0.9,0.4"/>
		<polygon class="st66" points="631.7,251.7 642.5,251.6 636,243.1 		"/>
		<path class="st63" d="M580.4,160.8c15-3.8,23.7-11.9,26.2-24.2l0.1-1"/>
		<polygon class="st64" points="611.5,136.9 607.4,127 601.9,136.2 		"/>
		<path class="st65" d="M195.3,357.8c24.6-6.8,40.9-20.9,48.8-42l0.3-1"/>
		<polygon class="st66" points="248.7,317.1 246.9,306.6 239.5,314.3 		"/>
		<path class="st65" d="M198.9,343l0.9-0.4c16.1-9.4,27.7-24.7,35-46"/>
		<polygon class="st66" points="197.7,338.2 191.2,346.8 202,346.8 		"/>
		<path class="st65" d="M573.8,407.2c-5.9-18.7-20.5-31.8-43.9-39.3l-1-0.3"/>
		<polygon class="st66" points="531.3,363.3 520.7,365.3 528.7,372.5 		"/>
		<path class="st65" d="M233.5,401.5c-1.7-16.2-11.5-27.5-29.5-33.6l-1-0.3"/>
		<polygon class="st66" points="205.3,363.3 194.7,365.3 202.7,372.5 		"/>
		<ellipse class="st14" cx="253.3" cy="270.4" rx="44.9" ry="36.7"/>
		<ellipse class="st6" cx="253.3" cy="270.4" rx="44.9" ry="36.7"/>
	</g>
</g>
<g>
	<defs>
		<rect id="SVGID_67_" x="208.4" y="233.7" width="89.8" height="73.4"/>
	</defs>
	<clipPath id="SVGID_68_">
		<use xlink:href="#SVGID_67_"  style="overflow:visible;"/>
	</clipPath>
	<g class="st67">
		<text transform="matrix(1 0 0 1 219.952 260.947)" class="st3 st46">Optimization</text>
		<text transform="matrix(1 0 0 1 233.873 273.947)" class="st3 st46">Cont</text>
		<text transform="matrix(1 0 0 1 259.14 273.947)" class="st3 st46">r</text>
		<text transform="matrix(1 0 0 1 263.231 273.947)" class="st3 st46">ol</text>
		<text transform="matrix(1 0 0 1 222.987 286.946)" class="st3 st46">Mechanism</text>
	</g>
</g>
<g>
	<defs>
		<rect id="SVGID_69_" y="-7.2" width="810" height="540"/>
	</defs>
	<clipPath id="SVGID_70_">
		<use xlink:href="#SVGID_69_"  style="overflow:visible;"/>
	</clipPath>
	<g class="st68">
		<line class="st69" x1="378.1" y1="467.5" x2="400.7" y2="467.5"/>
		<text transform="matrix(1 0 0 1 303.832 470.865)" class="st70 st27 st32">Execution</text>
		<path class="st71" d="M243.6,194.7c4.8,6.4,8,14.4,9.6,24l0.1,3"/>
		<polygon class="st35" points="241.2,219.2 254.2,242.6 265.2,218.1 		"/>
		<ellipse class="st14" cx="204.9" cy="170.8" rx="33.2" ry="27.1"/>
		<ellipse class="st6" cx="204.9" cy="170.8" rx="33.2" ry="27.1"/>
	</g>
</g>
<g>
	<defs>
		<rect id="SVGID_71_" x="171.7" y="143.6" width="66.4" height="54.3"/>
	</defs>
	<clipPath id="SVGID_72_">
		<use xlink:href="#SVGID_71_"  style="overflow:visible;"/>
	</clipPath>
	<g class="st72">
		<text transform="matrix(1 0 0 1 183.06 167.618)" class="st8 st16">Objective</text>
		<text transform="matrix(1 0 0 1 178.251 179.618)" class="st8 st16">Mechanism</text>
	</g>
</g>
<g>
	<defs>
		<rect id="SVGID_73_" y="-7.2" width="810" height="540"/>
	</defs>
	<clipPath id="SVGID_74_">
		<use xlink:href="#SVGID_73_"  style="overflow:visible;"/>
	</clipPath>
	<g class="st73">
		<path class="st63" d="M253.7,225.2l0-1c-0.7-18.2-7.8-31-21.2-38.5"/>
		<polygon class="st64" points="248.9,224.1 253.6,233.8 258.5,224.3 		"/>
	</g>
</g>
</svg>
