<svg id="Layer_1" data-name="Layer 1" xmlns="http://www.w3.org/2000/svg" xmlns:xlink="http://www.w3.org/1999/xlink" viewBox="0 0 810 540"><defs><style>.cls-1,.cls-10,.cls-12,.cls-15,.cls-19,.cls-29,.cls-32,.cls-36,.cls-44,.cls-5,.cls-53,.cls-56,.cls-61,.cls-64{fill:none;}.cls-2{clip-path:url(#clip-path);}.cls-3{fill:#fff;}.cls-4{fill:#e8e7e9;}.cls-10,.cls-12,.cls-15,.cls-19,.cls-36,.cls-5{stroke:#000;}.cls-5,.cls-56,.cls-64{stroke-width:3px;}.cls-6{clip-path:url(#clip-path-2);}.cls-7{font-size:22px;}.cls-17,.cls-31,.cls-33,.cls-45,.cls-7{font-family:HelveticaNeue-Bold, Helvetica Neue;}.cls-17,.cls-31,.cls-33,.cls-35,.cls-37,.cls-45,.cls-7{font-weight:700;}.cls-8{letter-spacing:-0.017em;}.cls-9{fill:#929292;opacity:0.202;}.cls-11{fill:#d6d5d5;}.cls-12,.cls-29,.cls-32,.cls-44{stroke-width:5px;}.cls-13{clip-path:url(#clip-path-4);}.cls-14{fill:#c2dcfc;}.cls-15{stroke-width:0.5px;}.cls-16{clip-path:url(#clip-path-6);}.cls-17,.cls-21,.cls-31,.cls-33,.cls-37,.cls-41,.cls-45{font-size:16px;}.cls-18{fill:#77adfe;}.cls-19{stroke-width:0.25px;}.cls-20{clip-path:url(#clip-path-8);}.cls-21,.cls-52,.cls-55{font-family:HelveticaNeue-Medium, Helvetica Neue;}.cls-21,.cls-41,.cls-52,.cls-55{font-weight:500;}.cls-22{letter-spacing:-0.017em;}.cls-23{clip-path:url(#clip-path-10);}.cls-24,.cls-45{fill:#ff968d;}.cls-25{clip-path:url(#clip-path-12);}.cls-26{isolation:isolate;opacity:0.5;}.cls-27{clip-path:url(#clip-path-14);}.cls-28{clip-path:url(#clip-path-16);}.cls-29{stroke:#004d80;}.cls-30,.cls-31{fill:#004d80;}.cls-32{stroke:#99195e;}.cls-33{fill:#99195e;}.cls-34{letter-spacing:-0.027em;}.cls-35{font-size:18px;}.cls-35,.cls-37{font-family:HelveticaNeue-BoldItalic, Helvetica Neue;}.cls-35,.cls-37,.cls-41{font-style:italic;}.cls-36{stroke-miterlimit:10;stroke-width:0.9px;}.cls-38{letter-spacing:-0.017em;}.cls-39{letter-spacing:0em;}.cls-40{clip-path:url(#clip-path-18);}.cls-41{font-family:HelveticaNeue-MediumItalic, Helvetica Neue;}.cls-42{clip-path:url(#clip-path-20);}.cls-43{clip-path:url(#clip-path-22);}.cls-44,.cls-53,.cls-56{stroke:#ff968d;}.cls-46{letter-spacing:0.018em;}.cls-47{clip-path:url(#clip-path-24);}.cls-48{clip-path:url(#clip-path-26);}.cls-49{clip-path:url(#clip-path-28);}.cls-50{fill:#d57e78;}.cls-51{clip-path:url(#clip-path-30);}.cls-52{font-size:13px;}.cls-53,.cls-61{stroke-width:4px;}.cls-54{clip-path:url(#clip-path-32);}.cls-55{font-size:12px;}.cls-57{clip-path:url(#clip-path-34);}.cls-58{letter-spacing:-0.017em;}.cls-59{clip-path:url(#clip-path-35);}.cls-60{letter-spacing:-0.054em;}.cls-61,.cls-64{stroke:#99185f;}.cls-62{fill:#99185f;}.cls-63{clip-path:url(#clip-path-38);}.cls-65{clip-path:url(#clip-path-40);}.cls-66{clip-path:url(#clip-path-42);}.cls-67{clip-path:url(#clip-path-44);}.cls-68{clip-path:url(#clip-path-46);}.cls-69{clip-path:url(#clip-path-48);}</style><clipPath id="clip-path"><rect class="cls-1" width="810" height="540"/></clipPath><clipPath id="clip-path-2"><rect class="cls-1" x="41.826" y="23.95" width="471.606" height="486.606"/></clipPath><clipPath id="clip-path-4"><rect class="cls-1" x="540.098" y="52.463" width="228.048" height="318.572"/></clipPath><clipPath id="clip-path-6"><rect class="cls-1" x="312.199" y="358.668" width="190.391" height="140.581"/></clipPath><clipPath id="clip-path-8"><rect class="cls-1" x="338.026" y="406.03" width="145.41" height="28.536"/></clipPath><clipPath id="clip-path-10"><rect class="cls-1" x="338.026" y="438.53" width="145.41" height="28.536"/></clipPath><clipPath id="clip-path-12"><rect class="cls-1" x="338.993" y="65.713" width="145.409" height="29.411"/></clipPath><clipPath id="clip-path-14"><rect class="cls-1" x="665" y="272" width="82" height="33"/></clipPath><clipPath id="clip-path-16"><rect class="cls-1" x="665.234" y="272.713" width="80.796" height="29.411"/></clipPath><clipPath id="clip-path-18"><rect class="cls-1" x="163" y="279" width="83" height="20"/></clipPath><clipPath id="clip-path-20"><rect class="cls-1" x="338.026" y="373.53" width="145.41" height="28.536"/></clipPath><clipPath id="clip-path-22"><rect class="cls-1" x="232" y="278" width="435" height="22"/></clipPath><clipPath id="clip-path-24"><rect class="cls-1" x="664.234" y="309.662" width="83.442" height="37.685"/></clipPath><clipPath id="clip-path-26"><rect class="cls-1" x="317.993" y="314.246" width="181.512" height="29.99"/></clipPath><clipPath id="clip-path-28"><rect class="cls-1" x="338.993" y="242.713" width="145.409" height="29.411"/></clipPath><clipPath id="clip-path-30"><rect class="cls-1" x="551.887" y="239.607" width="81.654" height="39.748"/></clipPath><clipPath id="clip-path-32"><rect class="cls-1" x="555.074" y="103.75" width="119.268" height="23.777"/></clipPath><clipPath id="clip-path-34"><rect class="cls-1" x="555.818" y="184.996" width="72.22" height="37.152"/></clipPath><clipPath id="clip-path-35"><rect class="cls-1" x="555.818" y="188.572" width="72.22" height="28.375"/></clipPath><clipPath id="clip-path-38"><rect class="cls-1" x="476" y="160" width="218" height="114"/></clipPath><clipPath id="clip-path-40"><rect class="cls-1" x="338.993" y="187.713" width="145.409" height="29.411"/></clipPath><clipPath id="clip-path-42"><rect class="cls-1" x="473" y="148" width="241" height="127"/></clipPath><clipPath id="clip-path-44"><rect class="cls-1" x="338.993" y="140.713" width="145.409" height="29.411"/></clipPath><clipPath id="clip-path-46"><rect class="cls-1" x="470" y="124" width="264" height="151"/></clipPath><clipPath id="clip-path-48"><rect class="cls-1" x="338.993" y="106.713" width="145.409" height="29.411"/></clipPath></defs><g class="cls-2"><rect class="cls-3" width="810" height="540"/><rect class="cls-4" x="43.569" y="25.693" width="468.118" height="486.862"/><rect class="cls-5" x="43.569" y="25.693" width="468.118" height="486.862"/></g><g class="cls-6"><text class="cls-7" transform="translate(111.276 52.094)">OptimizationCont<tspan class="cls-8" x="184.071" y="0">r</tspan><tspan x="192.255" y="0">olMechanism</tspan></text></g><g class="cls-2"><rect class="cls-9" x="59.773" y="86.474" width="176.355" height="407.674"/><rect class="cls-10" x="59.773" y="86.474" width="176.355" height="407.674"/><rect class="cls-11" x="540.841" y="53.206" width="226.561" height="320.829"/><rect class="cls-12" x="540.841" y="53.206" width="226.561" height="320.829"/></g><g class="cls-13"><text class="cls-7" transform="translate(587.143 80.607)">Composition</text></g><g class="cls-2"><polygon class="cls-11" points="518.446 92.896 518.446 102.89 490.373 82.017 518.446 61.145 518.446 71.139 539.751 71.139 539.751 92.896 518.446 92.896"/><polygon class="cls-12" points="518.446 92.896 518.446 102.89 490.373 82.017 518.446 61.145 518.446 71.139 539.751 71.139 539.751 92.896 518.446 92.896"/><rect class="cls-14" x="313.154" y="357.668" width="188.48" height="139.943"/><rect class="cls-15" x="313.154" y="357.668" width="188.48" height="139.943"/></g><g class="cls-16"><text class="cls-17" transform="translate(325.498 490.545)">OptimizationFunction</text></g><g class="cls-2"><rect class="cls-18" x="338.981" y="406.986" width="143.498" height="28.354"/><rect class="cls-19" x="338.981" y="406.986" width="143.498" height="28.354"/></g><g class="cls-20"><text class="cls-21" transform="translate(351.891 425.862)">sea<tspan class="cls-22" x="26.096" y="0">r</tspan><tspan x="31.456" y="0">ch_function</tspan></text></g><g class="cls-2"><rect class="cls-18" x="338.981" y="439.486" width="143.498" height="28.354"/><rect class="cls-19" x="338.981" y="439.486" width="143.498" height="28.354"/></g><g class="cls-23"><text class="cls-21" transform="translate(359.586 458.362)">sea<tspan class="cls-22" x="26.096" y="0">r</tspan><tspan x="31.456" y="0">ch_space</tspan></text></g><g class="cls-2"><rect class="cls-24" x="339.949" y="66.668" width="143.498" height="29.455"/><rect class="cls-15" x="339.949" y="66.668" width="143.498" height="29.455"/></g><g class="cls-25"><text class="cls-21" transform="translate(374.794 85.545)">agent_<tspan class="cls-22" x="49.792" y="0">r</tspan><tspan x="55.151" y="0">ep</tspan></text></g><g class="cls-2"><g class="cls-26"><g class="cls-27"><g class="cls-27"><rect class="cls-14" x="666.19" y="273.668" width="78.885" height="29.455"/><rect class="cls-15" x="666.19" y="273.668" width="78.885" height="29.455"/></g><g class="cls-28"><text class="cls-21" transform="translate(679.848 292.545)">(adapt)</text></g></g></g><polyline class="cls-29" points="497.402 319.666 646.291 319.744 648.791 319.746"/><polygon class="cls-30" points="646.286 329.944 666.691 319.755 646.297 309.544 646.286 329.944"/><line class="cls-29" x1="555.564" y1="414.473" x2="590.956" y2="414.54"/><text class="cls-31" transform="translate(601.455 419.197)">call function</text><line class="cls-32" x1="555.438" y1="445.584" x2="590.83" y2="445.651"/><text class="cls-33" transform="translate(597.313 450.308)">pass a<tspan class="cls-34" x="49.775" y="0">r</tspan><tspan x="55.567" y="0">gument</tspan></text><polyline class="cls-29" points="375.459 374.536 375.491 363.344 375.498 360.844"/><polygon class="cls-30" points="385.691 363.372 375.548 342.944 365.291 363.315 385.691 363.372"/><rect class="cls-11" x="524.346" y="73.577" width="46.641" height="16.655"/><text class="cls-35" transform="translate(99.81 114.901)">Execution</text><line class="cls-36" x1="99.81" y1="116.701" x2="185.49" y2="116.701"/><text class="cls-37" transform="translate(163.776 149.058)">Update </text><text class="cls-37" transform="translate(111.312 168.058)">featu<tspan class="cls-38" x="39.695" y="0">r</tspan><tspan class="cls-39" x="45.647" y="0">e values</tspan></text></g><g class="cls-2"><g class="cls-26"><g class="cls-40"><g class="cls-40"><text class="cls-41" transform="translate(164.324 292.558)">(Adapt)</text></g></g></g><text class="cls-37" transform="translate(151.344 373.058)">Optimize </text><text class="cls-37" transform="translate(83.456 392.058)">cont<tspan class="cls-38" x="34.08" y="0">r</tspan><tspan x="40.031" y="0">ol_allocation</tspan></text><text class="cls-37" transform="translate(137.728 460.058)">Implement</text><text class="cls-37" transform="translate(83.456 479.058)">cont<tspan class="cls-38" x="34.08" y="0">r</tspan><tspan x="40.031" y="0">ol_allocation</tspan></text><rect class="cls-18" x="338.981" y="374.486" width="143.498" height="28.354"/><rect class="cls-19" x="338.981" y="374.486" width="143.498" height="28.354"/></g><g class="cls-42"><text class="cls-21" transform="translate(343.003 393.362)">objective_function</text></g><g class="cls-2"><g class="cls-26"><g class="cls-43"><g class="cls-43"><polyline class="cls-29" points="234.352 288.916 646.584 289.319 649.084 289.322"/><polygon class="cls-30" points="646.575 299.519 666.984 289.339 646.594 279.119 646.575 299.519"/></g></g></g><polyline class="cls-29" points="236.279 380.439 295.244 379.973 297.744 379.953"/><polygon class="cls-30" points="295.325 390.173 315.644 379.812 295.164 369.773 295.325 390.173"/><line class="cls-44" x1="555.438" y1="475.584" x2="590.83" y2="475.651"/><text class="cls-45" transform="translate(599.934 480.308)"><tspan class="cls-22">r</tspan><tspan class="cls-39" x="5.952" y="0">etu</tspan><tspan class="cls-46" x="30.255" y="0">r</tspan><tspan x="36.767" y="0">n/assign value</tspan></text><polyline class="cls-44" points="517.302 336.578 519.802 336.566 675.88 335.795"/><polygon class="cls-24" points="519.752 326.366 499.402 336.666 519.852 346.766 519.752 326.366"/><polyline class="cls-44" points="452.51 355.636 452.517 353.136 452.548 341.944"/><polygon class="cls-24" points="442.317 353.108 452.459 373.536 462.717 353.165 442.317 353.108"/><rect class="cls-14" x="665.19" y="310.617" width="81.531" height="37.729"/><rect class="cls-15" x="665.19" y="310.617" width="81.531" height="37.729"/></g><g class="cls-47"><text class="cls-17" transform="translate(673.803 329.494)">evaluate</text></g><g class="cls-2"><polyline class="cls-44" points="500.54 256.27 503.04 256.271 576.12 256.282"/><polygon class="cls-24" points="503.041 246.071 482.64 256.267 503.038 266.471 503.041 246.071"/><rect class="cls-14" x="318.949" y="313.246" width="179.6" height="31.99"/><rect class="cls-15" x="318.949" y="313.246" width="179.6" height="31.99"/></g><g class="cls-48"><text class="cls-17" transform="translate(334.517 335.123)">evaluate_agent_<tspan class="cls-38" x="123.566" y="0">r</tspan><tspan class="cls-39" x="129.518" y="0">ep</tspan></text></g><g class="cls-2"><rect class="cls-24" x="339.949" y="243.668" width="143.498" height="29.455"/><rect class="cls-15" x="339.949" y="243.668" width="143.498" height="29.455"/></g><g class="cls-49"><text class="cls-21" transform="translate(379.098 262.545)">outcome</text></g><g class="cls-2"><text class="cls-17" transform="translate(253.212 144.02)">State</text><path class="cls-50" d="M320.975,102.312a4.992,4.992,0,0,0-5,5v24.563l-20.062,6.906,20.062,6.906v28.719a4.992,4.992,0,0,0,5,5H484.756a4.991,4.991,0,0,0,5-5V107.312a4.991,4.991,0,0,0-5-5Z"/><rect class="cls-24" x="551.948" y="239.668" width="81.531" height="40.365"/><rect class="cls-15" x="551.948" y="239.668" width="81.531" height="40.365"/></g><g class="cls-51"><text class="cls-52" transform="translate(555.761 256.283)">Objective</text><text class="cls-52" transform="translate(612.61 256.283)"> </text><text class="cls-52" transform="translate(555.761 272.283)">Mechanism</text></g><g class="cls-2"><polyline class="cls-53" points="416.501 233.744 416.507 235.744 416.548 250.536"/><polygon class="cls-24" points="424.907 235.72 416.459 218.944 408.107 235.767 424.907 235.72"/><polyline class="cls-44" points="504.263 115.772 506.763 115.782 618.086 116.211"/><polygon class="cls-24" points="506.802 105.582 486.363 115.703 506.724 125.982 506.802 105.582"/><rect class="cls-24" x="554.838" y="103.514" width="119.741" height="25.014"/><rect class="cls-15" x="554.838" y="103.514" width="119.741" height="25.014"/></g><g class="cls-54"><text class="cls-55" transform="translate(560.366 119.374)">Composition Inputs</text></g><g class="cls-2"><polyline class="cls-56" points="592.631 227.927 592.637 226.427 592.702 208.966"/><polygon class="cls-24" points="586.037 226.402 592.587 239.626 599.237 226.451 586.037 226.402"/><rect class="cls-24" x="555.582" y="184.76" width="65.806" height="35.927"/><rect class="cls-15" x="555.582" y="184.76" width="65.806" height="35.927"/></g><g class="cls-57"><text class="cls-55" transform="translate(559.394 200.62)">Monito<tspan class="cls-58" x="38.675" y="0">r</tspan><tspan x="42.695" y="0">ed</tspan></text><text class="cls-55" transform="translate(616.082 200.62)"> </text></g><g class="cls-59"><text class="cls-55" transform="translate(559.394 215.62)"><tspan class="cls-60">V</tspan><tspan x="6.684" y="0">alues</tspan></text></g><g class="cls-2"><path class="cls-61" d="M342.368,124a35.758,35.758,0,0,0-10.266,2.53c-16.71,6.888-24.559,23.152-31.723,39.115-13.083,29.15-26.489,59.278-31.623,91.192-3.778,23.483-2.575,48.238,14.15,66.663A51.38,51.38,0,0,0,301.747,336.6l1.954.43"/><polygon class="cls-62" points="299.941 344.805 318.155 340.216 303.555 328.399 299.941 344.805"/><path class="cls-61" d="M344.008,155.982a24.454,24.454,0,0,0-7.2,2.282c-11.814,5.851-17.782,18.649-23.266,31.193-10.014,22.906-20.283,46.577-24.872,71.359-3.376,18.236-3.337,37.293,7.673,50.968a32.121,32.121,0,0,0,7.805,7l1.918.567"/><polygon class="cls-62" points="301.764 326.839 320.256 323.547 306.527 310.728 301.764 326.839"/><path class="cls-53" d="M235.175,465.171a11.482,11.482,0,0,0,9.279-2.632c5.411-4.617,5.769-12.026,5.723-19.163-.328-50.927-1.53-106.676.6-156.724,1.607-37.655,6.257-72.581,28.491-104.084,11.049-15.653,26.407-28.206,43.81-31.931l2-.088"/><polygon class="cls-24" points="323.456 159.029 339.871 149.899 322.718 142.245 323.456 159.029"/></g><g class="cls-2"><g class="cls-26"><g class="cls-63"><g class="cls-63"><path class="cls-64" d="M478.619,205.586a61.787,61.787,0,0,0,32.949-9c11.96-7.221,21.779-17.077,34.337-23.279,17.8-8.791,37-9.53,54.764-8.723,17.267.784,34.533,3.429,49.275,12.973,25.261,16.354,35.353,48.189,35.879,83.2l-.028,1.5"/><polygon class="cls-62" points="679.224 260.642 685.585 273.959 692.422 260.88 679.224 260.642"/></g></g></g><rect class="cls-24" x="339.949" y="188.668" width="143.498" height="29.455"/><rect class="cls-15" x="339.949" y="188.668" width="143.498" height="29.455"/></g><g class="cls-65"><text class="cls-21" transform="translate(363.394 207.545)">net_outcome</text></g><g class="cls-2"><g class="cls-26"><g class="cls-66"><g class="cls-66"><path class="cls-64" d="M481.59,158.649c16.8.141,33.581-.481,50.308-1.649,22.917-1.6,45.607-4.47,67.825-3.619,20.587.788,41.112,5.152,58.932,16.22,30.9,19.192,45.731,53.785,46.958,91.329l-.013,1.5"/><polygon class="cls-62" points="699.014 260.873 705.493 274.133 712.213 260.993 699.014 260.873"/></g></g></g><rect class="cls-24" x="339.949" y="141.668" width="143.498" height="29.455"/><rect class="cls-15" x="339.949" y="141.668" width="143.498" height="29.455"/></g><g class="cls-67"><text class="cls-21" transform="translate(346.034 160.545)">cont<tspan class="cls-22" x="32.896" y="0">r</tspan><tspan x="38.255" y="0">ol_allocation</tspan></text></g><g class="cls-2"><g class="cls-26"><g class="cls-68"><g class="cls-68"><path class="cls-64" d="M478.6,129.035a38.851,38.851,0,0,1,10.113-.251c9.725,1.028,18.617,5.588,27.92,8.586,27.816,8.961,57.245,3.819,85.827,5.058,23.345,1.012,46.606,6.646,67.011,18.9,36.033,21.646,54.814,59.2,56.186,99.6l-.019,1.5"/><polygon class="cls-62" points="719.062 260.851 725.495 274.133 732.261 261.017 719.062 260.851"/></g></g></g><rect class="cls-24" x="339.949" y="107.668" width="143.498" height="29.455"/><rect class="cls-15" x="339.949" y="107.668" width="143.498" height="29.455"/></g><g class="cls-69"><text class="cls-21" transform="translate(359.378 126.545)">state_featu<tspan class="cls-22" x="82.095" y="0">r</tspan><tspan x="87.455" y="0">es</tspan></text></g></svg>