<?xml version="1.0" encoding="utf-8"?>
<!-- Generator: Adobe Illustrator 25.3.1, SVG Export Plug-In . SVG Version: 6.00 Build 0)  -->
<svg version="1.1" id="Layer_1" xmlns="http://www.w3.org/2000/svg" xmlns:xlink="http://www.w3.org/1999/xlink" x="0px" y="0px"
	 viewBox="0 0 1620 540" style="enable-background:new 0 0 1620 540;" xml:space="preserve">
<style type="text/css">
	.st0{clip-path:url(#SVGID_2_);}
	.st1{fill:#FFFFFF;}
	.st2{fill:#E8E7E9;}
	.st3{fill:none;stroke:#000000;stroke-width:3;}
	.st4{clip-path:url(#SVGID_4_);}
	.st5{font-family:'HelveticaNeue-Bold';}
	.st6{font-size:22px;}
	.st7{clip-path:url(#SVGID_6_);}
	.st8{opacity:0.202;fill:#929292;enable-background:new    ;}
	.st9{fill:none;stroke:#000000;}
	.st10{fill:#D6D5D5;}
	.st11{fill:none;stroke:#000000;stroke-width:5;}
	.st12{clip-path:url(#SVGID_8_);}
	.st13{clip-path:url(#SVGID_10_);}
	.st14{fill:#C2DCFC;}
	.st15{fill:none;stroke:#000000;stroke-width:0.5;}
	.st16{clip-path:url(#SVGID_12_);}
	.st17{font-size:16px;}
	.st18{clip-path:url(#SVGID_14_);}
	.st19{fill:#77ADFE;}
	.st20{fill:none;stroke:#000000;stroke-width:0.25;}
	.st21{clip-path:url(#SVGID_16_);}
	.st22{font-family:'HelveticaNeue-Medium';}
	.st23{clip-path:url(#SVGID_18_);}
	.st24{clip-path:url(#SVGID_20_);}
	.st25{clip-path:url(#SVGID_22_);}
	.st26{fill:#FF968D;}
	.st27{clip-path:url(#SVGID_24_);}
	.st28{clip-path:url(#SVGID_26_);}
	.st29{opacity:0.5;}
	.st30{clip-path:url(#SVGID_28_);}
	.st31{clip-path:url(#SVGID_30_);}
	.st32{clip-path:url(#SVGID_32_);}
	.st33{fill:none;stroke:#004D80;stroke-width:5;}
	.st34{fill:#004D80;}
	.st35{fill:none;stroke:#99195E;stroke-width:5;}
	.st36{fill:#99195E;}
	.st37{font-family:'HelveticaNeue-BoldItalic';}
	.st38{font-size:18px;}
	.st39{fill:none;stroke:#000000;stroke-width:0.9;stroke-miterlimit:10;}
	.st40{clip-path:url(#SVGID_34_);}
	.st41{clip-path:url(#SVGID_36_);}
	.st42{clip-path:url(#SVGID_38_);}
	.st43{font-family:'HelveticaNeue-Italic';}
	.st44{clip-path:url(#SVGID_40_);}
	.st45{clip-path:url(#SVGID_42_);}
	.st46{clip-path:url(#SVGID_44_);}
	.st47{clip-path:url(#SVGID_46_);}
	.st48{fill:none;stroke:#FF968D;stroke-width:5;}
	.st49{clip-path:url(#SVGID_48_);}
	.st50{clip-path:url(#SVGID_50_);}
	.st51{clip-path:url(#SVGID_52_);}
	.st52{clip-path:url(#SVGID_54_);}
	.st53{clip-path:url(#SVGID_56_);}
	.st54{clip-path:url(#SVGID_58_);}
	.st55{fill:#D57E78;}
	.st56{clip-path:url(#SVGID_60_);}
	.st57{font-size:13px;}
	.st58{clip-path:url(#SVGID_62_);}
	.st59{fill:none;stroke:#FF968D;stroke-width:4;}
	.st60{clip-path:url(#SVGID_64_);}
	.st61{font-size:12px;}
	.st62{clip-path:url(#SVGID_66_);}
	.st63{fill:none;stroke:#FF968D;stroke-width:3;}
	.st64{clip-path:url(#SVGID_68_);}
	.st65{clip-path:url(#SVGID_70_);}
	.st66{clip-path:url(#SVGID_72_);}
	.st67{fill:none;stroke:#99185F;stroke-width:4;}
	.st68{fill:#99185F;}
	.st69{clip-path:url(#SVGID_74_);}
	.st70{clip-path:url(#SVGID_76_);}
	.st71{clip-path:url(#SVGID_78_);}
	.st72{fill:none;stroke:#99185F;stroke-width:3;}
	.st73{clip-path:url(#SVGID_80_);}
	.st74{clip-path:url(#SVGID_82_);}
	.st75{clip-path:url(#SVGID_84_);}
	.st76{clip-path:url(#SVGID_86_);}
	.st77{clip-path:url(#SVGID_88_);}
	.st78{clip-path:url(#SVGID_90_);}
	.st79{clip-path:url(#SVGID_92_);}
	.st80{clip-path:url(#SVGID_94_);}
	.st81{clip-path:url(#SVGID_96_);}
	.st82{clip-path:url(#SVGID_98_);}
	.st83{font-size:32px;}
	.st84{fill:#F2F1F3;}
	.st85{clip-path:url(#SVGID_100_);}
	.st86{font-size:23px;}
	.st87{clip-path:url(#SVGID_102_);}
	.st88{opacity:0.426;}
	.st89{clip-path:url(#SVGID_104_);}
	.st90{clip-path:url(#SVGID_106_);}
	.st91{clip-path:url(#SVGID_108_);}
	.st92{font-size:10px;}
	.st93{clip-path:url(#SVGID_110_);}
	.st94{clip-path:url(#SVGID_112_);}
	.st95{clip-path:url(#SVGID_114_);}
	.st96{clip-path:url(#SVGID_116_);}
	.st97{clip-path:url(#SVGID_118_);}
	.st98{fill:none;stroke:#0076BA;stroke-width:4;}
	.st99{fill:#0076BA;}
	.st100{fill:none;stroke:#6BFDB9;stroke-width:6;}
	.st101{fill:#6BFDB9;}
	.st102{font-size:24px;}
	.st103{clip-path:url(#SVGID_120_);}
	.st104{fill:none;stroke:#0076BA;stroke-width:5;}
	.st105{clip-path:url(#SVGID_122_);}
	.st106{font-size:14px;}
	.st107{clip-path:url(#SVGID_124_);}
	.st108{fill:none;stroke:#FF9300;stroke-width:5;}
	.st109{fill:#FF9300;}
	.st110{clip-path:url(#SVGID_126_);}
	.st111{clip-path:url(#SVGID_128_);}
	.st112{clip-path:url(#SVGID_130_);}
	.st113{clip-path:url(#SVGID_132_);}
	.st114{clip-path:url(#SVGID_134_);}
	.st115{clip-path:url(#SVGID_136_);}
	.st116{clip-path:url(#SVGID_138_);}
	.st117{clip-path:url(#SVGID_140_);}
	.st118{font-size:11px;}
	.st119{clip-path:url(#SVGID_142_);}
	.st120{clip-path:url(#SVGID_144_);}
	.st121{clip-path:url(#SVGID_146_);}
	.st122{clip-path:url(#SVGID_148_);}
	.st123{clip-path:url(#SVGID_150_);}
	.st124{clip-path:url(#SVGID_152_);}
	.st125{clip-path:url(#SVGID_154_);}
	.st126{clip-path:url(#SVGID_156_);}
	.st127{clip-path:url(#SVGID_158_);}
	.st128{fill:none;stroke:#FF9300;stroke-width:4;}
	.st129{clip-path:url(#SVGID_160_);}
	.st130{clip-path:url(#SVGID_162_);}
	.st131{fill:none;stroke:#6BFDB9;stroke-width:4;}
	.st132{fill:#421F0C;}
	.st133{fill:none;stroke:#1DB100;stroke-width:5;}
	.st134{fill:none;stroke:#EE220C;stroke-width:5;}
	.st135{fill:none;stroke:#EE220C;stroke-width:2;}
	.st136{fill:#EE220C;}
	.st137{fill:none;stroke:#1DB100;stroke-width:2;}
	.st138{fill:#1DB100;}
	.st139{clip-path:url(#SVGID_164_);}
	.st140{clip-path:url(#SVGID_166_);}
	.st141{fill:none;stroke:#6BFCB9;stroke-width:5;}
	.st142{fill:#6BFCB9;}
	.st143{fill:none;stroke:#FF9300;stroke-width:6;}
	.st144{clip-path:url(#SVGID_168_);}
	.st145{clip-path:url(#SVGID_170_);}
	.st146{fill:none;stroke:#000000;stroke-miterlimit:10;}
</style>
<g>
	<defs>
		<rect id="SVGID_1_" x="811" width="810" height="540"/>
	</defs>
	<clipPath id="SVGID_2_">
		<use xlink:href="#SVGID_1_"  style="overflow:visible;"/>
	</clipPath>
	<g class="st0">
		<rect x="811" class="st1" width="810" height="540"/>
		<rect x="854.6" y="25.7" class="st2" width="468.1" height="486.9"/>
		<rect x="854.6" y="25.7" class="st3" width="468.1" height="486.9"/>
	</g>
</g>
<g>
	<defs>
		<rect id="SVGID_3_" x="852.8" y="24" width="471.6" height="486.6"/>
	</defs>
	<clipPath id="SVGID_4_">
		<use xlink:href="#SVGID_3_"  style="overflow:visible;"/>
	</clipPath>
	<g class="st4">
		<text transform="matrix(1 0 0 1 922.2928 52.094)" class="st5 st6">OptimizationCont</text>
		<text transform="matrix(1 0 0 1 1106.364 52.094)" class="st5 st6">r</text>
		<text transform="matrix(1 0 0 1 1114.548 52.094)" class="st5 st6">olMechanism</text>
	</g>
</g>
<g>
	<defs>
		<rect id="SVGID_5_" x="811" width="810" height="540"/>
	</defs>
	<clipPath id="SVGID_6_">
		<use xlink:href="#SVGID_5_"  style="overflow:visible;"/>
	</clipPath>
	<g class="st7">
		<rect x="870.8" y="86.5" class="st8" width="176.4" height="407.7"/>
		<rect x="870.8" y="86.5" class="st9" width="176.4" height="407.7"/>
		<rect x="1351.9" y="53.2" class="st10" width="226.6" height="320.8"/>
		<rect x="1351.9" y="53.2" class="st11" width="226.6" height="320.8"/>
	</g>
</g>
<g>
	<defs>
		<rect id="SVGID_7_" x="1351.1" y="52.5" width="228" height="318.6"/>
	</defs>
	<clipPath id="SVGID_8_">
		<use xlink:href="#SVGID_7_"  style="overflow:visible;"/>
	</clipPath>
	<g class="st12">
		<text transform="matrix(1 0 0 1 1398.16 80.607)" class="st5 st6">Composition</text>
	</g>
</g>
<g>
	<defs>
		<rect id="SVGID_9_" x="811" width="810" height="540"/>
	</defs>
	<clipPath id="SVGID_10_">
		<use xlink:href="#SVGID_9_"  style="overflow:visible;"/>
	</clipPath>
	<g class="st13">
		<polygon class="st10" points="1329.5,92.9 1329.5,102.9 1301.4,82 1329.5,61.1 1329.5,71.1 1350.8,71.1 1350.8,92.9 		"/>
		<polygon class="st11" points="1329.5,92.9 1329.5,102.9 1301.4,82 1329.5,61.1 1329.5,71.1 1350.8,71.1 1350.8,92.9 		"/>
		<rect x="1124.2" y="357.7" class="st14" width="188.5" height="139.9"/>
		<rect x="1124.2" y="357.7" class="st15" width="188.5" height="139.9"/>
	</g>
</g>
<g>
	<defs>
		<rect id="SVGID_11_" x="1123.2" y="358.7" width="190.4" height="140.6"/>
	</defs>
	<clipPath id="SVGID_12_">
		<use xlink:href="#SVGID_11_"  style="overflow:visible;"/>
	</clipPath>
	<g class="st16">
		<text transform="matrix(1 0 0 1 1136.5149 490.545)" class="st5 st17">OptimizationFunction</text>
	</g>
</g>
<g>
	<defs>
		<rect id="SVGID_13_" x="811" width="810" height="540"/>
	</defs>
	<clipPath id="SVGID_14_">
		<use xlink:href="#SVGID_13_"  style="overflow:visible;"/>
	</clipPath>
	<g class="st18">
		<rect x="1150" y="407" class="st19" width="143.5" height="28.4"/>
		<rect x="1150" y="407" class="st20" width="143.5" height="28.4"/>
	</g>
</g>
<g>
	<defs>
		<rect id="SVGID_15_" x="1149" y="406" width="145.4" height="28.5"/>
	</defs>
	<clipPath id="SVGID_16_">
		<use xlink:href="#SVGID_15_"  style="overflow:visible;"/>
	</clipPath>
	<g class="st21">
		<text transform="matrix(1 0 0 1 1162.908 425.862)" class="st22 st17">sea</text>
		<text transform="matrix(1 0 0 1 1189.0039 425.862)" class="st22 st17">r</text>
		<text transform="matrix(1 0 0 1 1194.3639 425.862)" class="st22 st17">ch_function</text>
	</g>
</g>
<g>
	<defs>
		<rect id="SVGID_17_" x="811" width="810" height="540"/>
	</defs>
	<clipPath id="SVGID_18_">
		<use xlink:href="#SVGID_17_"  style="overflow:visible;"/>
	</clipPath>
	<g class="st23">
		<rect x="1150" y="439.5" class="st19" width="143.5" height="28.4"/>
		<rect x="1150" y="439.5" class="st20" width="143.5" height="28.4"/>
	</g>
</g>
<g>
	<defs>
		<rect id="SVGID_19_" x="1149" y="438.5" width="145.4" height="28.5"/>
	</defs>
	<clipPath id="SVGID_20_">
		<use xlink:href="#SVGID_19_"  style="overflow:visible;"/>
	</clipPath>
	<g class="st24">
		<text transform="matrix(1 0 0 1 1170.6029 458.362)" class="st22 st17">sea</text>
		<text transform="matrix(1 0 0 1 1196.699 458.362)" class="st22 st17">r</text>
		<text transform="matrix(1 0 0 1 1202.059 458.362)" class="st22 st17">ch_space</text>
	</g>
</g>
<g>
	<defs>
		<rect id="SVGID_21_" x="811" width="810" height="540"/>
	</defs>
	<clipPath id="SVGID_22_">
		<use xlink:href="#SVGID_21_"  style="overflow:visible;"/>
	</clipPath>
	<g class="st25">
		<rect x="1151" y="66.7" class="st26" width="143.5" height="29.5"/>
		<rect x="1151" y="66.7" class="st15" width="143.5" height="29.5"/>
	</g>
</g>
<g>
	<defs>
		<rect id="SVGID_23_" x="1150" y="65.7" width="145.4" height="29.4"/>
	</defs>
	<clipPath id="SVGID_24_">
		<use xlink:href="#SVGID_23_"  style="overflow:visible;"/>
	</clipPath>
	<g class="st27">
		<text transform="matrix(1 0 0 1 1185.8109 85.545)" class="st22 st17">agent_</text>
		<text transform="matrix(1 0 0 1 1235.6029 85.545)" class="st22 st17">r</text>
		<text transform="matrix(1 0 0 1 1240.9619 85.545)" class="st22 st17">ep</text>
	</g>
</g>
<g>
	<defs>
		<rect id="SVGID_25_" x="811" width="810" height="540"/>
	</defs>
	<clipPath id="SVGID_26_">
		<use xlink:href="#SVGID_25_"  style="overflow:visible;"/>
	</clipPath>
	<g class="st28">
		<g class="st29">
			<g>
				<defs>
					<rect id="SVGID_27_" x="1476" y="272" width="82" height="33"/>
				</defs>
				<clipPath id="SVGID_28_">
					<use xlink:href="#SVGID_27_"  style="overflow:visible;"/>
				</clipPath>
				<g class="st30">
					<g>
						<defs>
							<rect id="SVGID_29_" x="1476" y="272" width="82" height="33"/>
						</defs>
						<clipPath id="SVGID_30_">
							<use xlink:href="#SVGID_29_"  style="overflow:visible;"/>
						</clipPath>
						<g class="st31">
							<rect x="1477.2" y="273.7" class="st14" width="78.9" height="29.5"/>
							<rect x="1477.2" y="273.7" class="st15" width="78.9" height="29.5"/>
						</g>
					</g>
					<g>
						<defs>
							<rect id="SVGID_31_" x="1476.3" y="272.7" width="80.8" height="29.4"/>
						</defs>
						<clipPath id="SVGID_32_">
							<use xlink:href="#SVGID_31_"  style="overflow:visible;"/>
						</clipPath>
						<g class="st32">
							<text transform="matrix(1 0 0 1 1490.865 292.545)" class="st22 st17">(adapt)</text>
						</g>
					</g>
				</g>
			</g>
		</g>
		<polyline class="st33" points="1308.4,319.7 1457.3,319.7 1459.8,319.7 		"/>
		<polygon class="st34" points="1457.3,329.9 1477.7,319.8 1457.3,309.5 		"/>
		<line class="st33" x1="1366.6" y1="414.5" x2="1402" y2="414.5"/>
		<text transform="matrix(1 0 0 1 1412.472 419.197)" class="st34 st5 st17">call function</text>
		<line class="st35" x1="1366.5" y1="445.6" x2="1401.8" y2="445.7"/>
		<text transform="matrix(1 0 0 1 1408.33 450.308)" class="st36 st5 st17">pass a</text>
		<text transform="matrix(1 0 0 1 1458.105 450.308)" class="st36 st5 st17">r</text>
		<text transform="matrix(1 0 0 1 1463.897 450.308)" class="st36 st5 st17">gument</text>
		<polyline class="st33" points="1186.5,374.5 1186.5,363.3 1186.5,360.8 		"/>
		<polygon class="st34" points="1196.7,363.4 1186.6,342.9 1176.3,363.3 		"/>
		<rect x="1335.4" y="73.6" class="st10" width="46.6" height="16.7"/>
		<text transform="matrix(1 0 0 1 910.8268 114.901)" class="st37 st38">Execution</text>
		<line class="st39" x1="910.8" y1="116.7" x2="996.5" y2="116.7"/>
		<text transform="matrix(1 0 0 1 974.7928 149.058)" class="st37 st17">Update</text>
		<text transform="matrix(1 0 0 1 922.3289 168.058)" class="st37 st17">featu</text>
		<text transform="matrix(1 0 0 1 962.0239 168.058)" class="st37 st17">r</text>
		<text transform="matrix(1 0 0 1 967.9758 168.058)" class="st37 st17">e values</text>
	</g>
</g>
<g>
	<defs>
		<rect id="SVGID_33_" x="811" width="810" height="540"/>
	</defs>
	<clipPath id="SVGID_34_">
		<use xlink:href="#SVGID_33_"  style="overflow:visible;"/>
	</clipPath>
	<g class="st40">
		<g class="st29">
			<g>
				<defs>
					<rect id="SVGID_35_" x="974" y="279" width="83" height="20"/>
				</defs>
				<clipPath id="SVGID_36_">
					<use xlink:href="#SVGID_35_"  style="overflow:visible;"/>
				</clipPath>
				<g class="st41">
					<g>
						<defs>
							<rect id="SVGID_37_" x="974" y="279" width="83" height="20"/>
						</defs>
						<clipPath id="SVGID_38_">
							<use xlink:href="#SVGID_37_"  style="overflow:visible;"/>
						</clipPath>
						<g class="st42">
							<text transform="matrix(1 0 0 1 975.3409 292.558)" class="st43 st17">(Adapt)</text>
						</g>
					</g>
				</g>
			</g>
		</g>
		<text transform="matrix(1 0 0 1 962.3608 373.058)" class="st37 st17">Optimize</text>
		<text transform="matrix(1 0 0 1 894.4728 392.058)" class="st37 st17">cont</text>
		<text transform="matrix(1 0 0 1 928.5529 392.058)" class="st37 st17">r</text>
		<text transform="matrix(1 0 0 1 934.5038 392.058)" class="st37 st17">ol_allocation</text>
		<text transform="matrix(1 0 0 1 948.7449 460.058)" class="st37 st17">Implement</text>
		<text transform="matrix(1 0 0 1 894.4728 479.058)" class="st37 st17">cont</text>
		<text transform="matrix(1 0 0 1 928.5529 479.058)" class="st37 st17">r</text>
		<text transform="matrix(1 0 0 1 934.5038 479.058)" class="st37 st17">ol_allocation</text>
		<rect x="1150" y="374.5" class="st19" width="143.5" height="28.4"/>
		<rect x="1150" y="374.5" class="st20" width="143.5" height="28.4"/>
	</g>
</g>
<g>
	<defs>
		<rect id="SVGID_39_" x="1149" y="373.5" width="145.4" height="28.5"/>
	</defs>
	<clipPath id="SVGID_40_">
		<use xlink:href="#SVGID_39_"  style="overflow:visible;"/>
	</clipPath>
	<g class="st44">
		<text transform="matrix(1 0 0 1 1154.0199 393.362)" class="st22 st17">objective_function</text>
	</g>
</g>
<g>
	<defs>
		<rect id="SVGID_41_" x="811" width="810" height="540"/>
	</defs>
	<clipPath id="SVGID_42_">
		<use xlink:href="#SVGID_41_"  style="overflow:visible;"/>
	</clipPath>
	<g class="st45">
		<g class="st29">
			<g>
				<defs>
					<rect id="SVGID_43_" x="1043" y="278" width="435" height="22"/>
				</defs>
				<clipPath id="SVGID_44_">
					<use xlink:href="#SVGID_43_"  style="overflow:visible;"/>
				</clipPath>
				<g class="st46">
					<g>
						<defs>
							<rect id="SVGID_45_" x="1043" y="278" width="435" height="22"/>
						</defs>
						<clipPath id="SVGID_46_">
							<use xlink:href="#SVGID_45_"  style="overflow:visible;"/>
						</clipPath>
						<g class="st47">
							<polyline class="st33" points="1045.4,288.9 1457.6,289.3 1460.1,289.3 							"/>
							<polygon class="st34" points="1457.6,299.5 1478,289.3 1457.6,279.1 							"/>
						</g>
					</g>
				</g>
			</g>
		</g>
		<polyline class="st33" points="1047.3,380.4 1106.3,380 1108.8,380 		"/>
		<polygon class="st34" points="1106.3,390.2 1126.7,379.8 1106.2,369.8 		"/>
		<line class="st48" x1="1366.5" y1="475.6" x2="1401.8" y2="475.7"/>
		<text transform="matrix(1 0 0 1 1410.951 480.308)" class="st26 st5 st17">r</text>
		<text transform="matrix(1 0 0 1 1416.9031 480.308)" class="st26 st5 st17">etu</text>
		<text transform="matrix(1 0 0 1 1441.2061 480.308)" class="st26 st5 st17">r</text>
		<text transform="matrix(1 0 0 1 1447.718 480.308)" class="st26 st5 st17">n/assign value</text>
		<polyline class="st48" points="1328.3,336.6 1330.8,336.6 1486.9,335.8 		"/>
		<polygon class="st26" points="1330.8,326.4 1310.4,336.7 1330.9,346.8 		"/>
		<polyline class="st48" points="1263.5,355.6 1263.5,353.1 1263.6,341.9 		"/>
		<polygon class="st26" points="1253.3,353.1 1263.5,373.5 1273.7,353.2 		"/>
		<rect x="1476.2" y="310.6" class="st14" width="81.5" height="37.7"/>
		<rect x="1476.2" y="310.6" class="st15" width="81.5" height="37.7"/>
	</g>
</g>
<g>
	<defs>
		<rect id="SVGID_47_" x="1475.3" y="309.7" width="83.4" height="37.7"/>
	</defs>
	<clipPath id="SVGID_48_">
		<use xlink:href="#SVGID_47_"  style="overflow:visible;"/>
	</clipPath>
	<g class="st49">
		<text transform="matrix(1 0 0 1 1484.8199 329.494)" class="st5 st17">evaluate</text>
	</g>
</g>
<g>
	<defs>
		<rect id="SVGID_49_" x="811" width="810" height="540"/>
	</defs>
	<clipPath id="SVGID_50_">
		<use xlink:href="#SVGID_49_"  style="overflow:visible;"/>
	</clipPath>
	<g class="st50">
		<polyline class="st48" points="1311.6,256.3 1314.1,256.3 1387.1,256.3 		"/>
		<polygon class="st26" points="1314.1,246.1 1293.7,256.3 1314.1,266.5 		"/>
		<rect x="1130" y="313.2" class="st14" width="179.6" height="32"/>
		<rect x="1130" y="313.2" class="st15" width="179.6" height="32"/>
	</g>
</g>
<g>
	<defs>
		<rect id="SVGID_51_" x="1129" y="314.2" width="181.5" height="30"/>
	</defs>
	<clipPath id="SVGID_52_">
		<use xlink:href="#SVGID_51_"  style="overflow:visible;"/>
	</clipPath>
	<g class="st51">
		<text transform="matrix(1 0 0 1 1145.5339 335.123)" class="st5 st17">evaluate_agent_</text>
		<text transform="matrix(1 0 0 1 1269.1 335.123)" class="st5 st17">r</text>
		<text transform="matrix(1 0 0 1 1275.052 335.123)" class="st5 st17">ep</text>
	</g>
</g>
<g>
	<defs>
		<rect id="SVGID_53_" x="811" width="810" height="540"/>
	</defs>
	<clipPath id="SVGID_54_">
		<use xlink:href="#SVGID_53_"  style="overflow:visible;"/>
	</clipPath>
	<g class="st52">
		<rect x="1151" y="243.7" class="st26" width="143.5" height="29.5"/>
		<rect x="1151" y="243.7" class="st15" width="143.5" height="29.5"/>
	</g>
</g>
<g>
	<defs>
		<rect id="SVGID_55_" x="1150" y="242.7" width="145.4" height="29.4"/>
	</defs>
	<clipPath id="SVGID_56_">
		<use xlink:href="#SVGID_55_"  style="overflow:visible;"/>
	</clipPath>
	<g class="st53">
		<text transform="matrix(1 0 0 1 1190.115 262.545)" class="st22 st17">outcome</text>
	</g>
</g>
<g>
	<defs>
		<rect id="SVGID_57_" x="811" width="810" height="540"/>
	</defs>
	<clipPath id="SVGID_58_">
		<use xlink:href="#SVGID_57_"  style="overflow:visible;"/>
	</clipPath>
	<g class="st54">
		<text transform="matrix(1 0 0 1 1064.229 144.02)" class="st5 st17">State</text>
		<path class="st55" d="M1132,102.3c-2.8,0-5,2.2-5,5c0,0,0,0,0,0v24.6l-20.1,6.9l20.1,6.9v28.7c0,2.8,2.2,5,5,5c0,0,0,0,0,0h163.8
			c2.8,0,5-2.2,5-5c0,0,0,0,0,0v-67.1c0-2.8-2.2-5-5-5c0,0,0,0,0,0H1132z"/>
		<rect x="1363" y="239.7" class="st26" width="81.5" height="40.4"/>
		<rect x="1363" y="239.7" class="st15" width="81.5" height="40.4"/>
	</g>
</g>
<g>
	<defs>
		<rect id="SVGID_59_" x="1362.9" y="239.6" width="81.7" height="39.7"/>
	</defs>
	<clipPath id="SVGID_60_">
		<use xlink:href="#SVGID_59_"  style="overflow:visible;"/>
	</clipPath>
	<g class="st56">
		<text transform="matrix(1 0 0 1 1366.778 256.283)" class="st22 st57">Objective</text>
		<text transform="matrix(1 0 0 1 1366.778 272.283)" class="st22 st57">Mechanism</text>
	</g>
</g>
<g>
	<defs>
		<rect id="SVGID_61_" x="811" width="810" height="540"/>
	</defs>
	<clipPath id="SVGID_62_">
		<use xlink:href="#SVGID_61_"  style="overflow:visible;"/>
	</clipPath>
	<g class="st58">
		<polyline class="st59" points="1227.5,233.7 1227.5,235.7 1227.6,250.5 		"/>
		<polygon class="st26" points="1235.9,235.7 1227.5,218.9 1219.1,235.8 		"/>
		<polyline class="st48" points="1315.3,115.8 1317.8,115.8 1429.1,116.2 		"/>
		<polygon class="st26" points="1317.8,105.6 1297.4,115.7 1317.7,126 		"/>
		<rect x="1365.9" y="103.5" class="st26" width="119.7" height="25"/>
		<rect x="1365.9" y="103.5" class="st15" width="119.7" height="25"/>
	</g>
</g>
<g>
	<defs>
		<rect id="SVGID_63_" x="1366.1" y="103.8" width="119.3" height="23.8"/>
	</defs>
	<clipPath id="SVGID_64_">
		<use xlink:href="#SVGID_63_"  style="overflow:visible;"/>
	</clipPath>
	<g class="st60">
		<text transform="matrix(1 0 0 1 1371.3831 119.374)" class="st22 st61">Composition Inputs</text>
	</g>
</g>
<g>
	<defs>
		<rect id="SVGID_65_" x="811" width="810" height="540"/>
	</defs>
	<clipPath id="SVGID_66_">
		<use xlink:href="#SVGID_65_"  style="overflow:visible;"/>
	</clipPath>
	<g class="st62">
		<polyline class="st63" points="1403.6,227.9 1403.7,226.4 1403.7,209 		"/>
		<polygon class="st26" points="1397.1,226.4 1403.6,239.6 1410.3,226.5 		"/>
		<rect x="1366.6" y="184.8" class="st26" width="65.8" height="35.9"/>
		<rect x="1366.6" y="184.8" class="st15" width="65.8" height="35.9"/>
	</g>
</g>
<g>
	<defs>
		<rect id="SVGID_67_" x="1366.8" y="185" width="72.2" height="37.2"/>
	</defs>
	<clipPath id="SVGID_68_">
		<use xlink:href="#SVGID_67_"  style="overflow:visible;"/>
	</clipPath>
	<g class="st64">
		<text transform="matrix(1 0 0 1 1370.411 200.62)" class="st22 st61">Monito</text>
		<text transform="matrix(1 0 0 1 1409.0859 200.62)" class="st22 st61">r</text>
		<text transform="matrix(1 0 0 1 1413.106 200.62)" class="st22 st61">ed</text>
	</g>
</g>
<g>
	<defs>
		<rect id="SVGID_69_" x="1366.8" y="188.6" width="72.2" height="28.4"/>
	</defs>
	<clipPath id="SVGID_70_">
		<use xlink:href="#SVGID_69_"  style="overflow:visible;"/>
	</clipPath>
	<g class="st65">
		<text transform="matrix(1 0 0 1 1370.411 215.62)" class="st22 st61">V</text>
		<text transform="matrix(1 0 0 1 1377.095 215.62)" class="st22 st61">alues</text>
	</g>
</g>
<g>
	<defs>
		<rect id="SVGID_71_" x="811" width="810" height="540"/>
	</defs>
	<clipPath id="SVGID_72_">
		<use xlink:href="#SVGID_71_"  style="overflow:visible;"/>
	</clipPath>
	<g class="st66">
		<path class="st67" d="M1153.4,124c-3.5,0.3-7,1.2-10.3,2.5c-16.7,6.9-24.6,23.2-31.7,39.1c-13.1,29.1-26.5,59.3-31.6,91.2
			c-3.8,23.5-2.6,48.2,14.2,66.7c5.2,5.7,11.7,10.2,18.8,13.1l2,0.4"/>
		<polygon class="st68" points="1111,344.8 1129.2,340.2 1114.6,328.4 		"/>
		<path class="st67" d="M1155,156c-2.5,0.4-4.9,1.2-7.2,2.3c-11.8,5.9-17.8,18.6-23.3,31.2c-10,22.9-20.3,46.6-24.9,71.4
			c-3.4,18.2-3.3,37.3,7.7,51c2.2,2.7,4.8,5.1,7.8,7l1.9,0.6"/>
		<polygon class="st68" points="1112.8,326.8 1131.3,323.5 1117.5,310.7 		"/>
		<path class="st59" d="M1046.2,465.2c3.3,0.5,6.7-0.4,9.3-2.6c5.4-4.6,5.8-12,5.7-19.2c-0.3-50.9-1.5-106.7,0.6-156.7
			c1.6-37.7,6.3-72.6,28.5-104.1c11-15.7,26.4-28.2,43.8-31.9l2-0.1"/>
		<polygon class="st26" points="1134.5,159 1150.9,149.9 1133.7,142.2 		"/>
	</g>
</g>
<g>
	<defs>
		<rect id="SVGID_73_" x="811" width="810" height="540"/>
	</defs>
	<clipPath id="SVGID_74_">
		<use xlink:href="#SVGID_73_"  style="overflow:visible;"/>
	</clipPath>
	<g class="st69">
		<g class="st29">
			<g>
				<defs>
					<rect id="SVGID_75_" x="1287" y="160" width="218" height="114"/>
				</defs>
				<clipPath id="SVGID_76_">
					<use xlink:href="#SVGID_75_"  style="overflow:visible;"/>
				</clipPath>
				<g class="st70">
					<g>
						<defs>
							<rect id="SVGID_77_" x="1287" y="160" width="218" height="114"/>
						</defs>
						<clipPath id="SVGID_78_">
							<use xlink:href="#SVGID_77_"  style="overflow:visible;"/>
						</clipPath>
						<g class="st71">
							<path class="st72" d="M1289.6,205.6c11.6,0.2,23-3,32.9-9c12-7.2,21.8-17.1,34.3-23.3c17.8-8.8,37-9.5,54.8-8.7
								c17.3,0.8,34.5,3.4,49.3,13c25.3,16.4,35.4,48.2,35.9,83.2l0,1.5"/>
							<polygon class="st68" points="1490.2,260.6 1496.6,274 1503.4,260.9 							"/>
						</g>
					</g>
				</g>
			</g>
		</g>
		<rect x="1151" y="188.7" class="st26" width="143.5" height="29.5"/>
		<rect x="1151" y="188.7" class="st15" width="143.5" height="29.5"/>
	</g>
</g>
<g>
	<defs>
		<rect id="SVGID_79_" x="1150" y="187.7" width="145.4" height="29.4"/>
	</defs>
	<clipPath id="SVGID_80_">
		<use xlink:href="#SVGID_79_"  style="overflow:visible;"/>
	</clipPath>
	<g class="st73">
		<text transform="matrix(1 0 0 1 1174.411 207.545)" class="st22 st17">net_outcome</text>
	</g>
</g>
<g>
	<defs>
		<rect id="SVGID_81_" x="811" width="810" height="540"/>
	</defs>
	<clipPath id="SVGID_82_">
		<use xlink:href="#SVGID_81_"  style="overflow:visible;"/>
	</clipPath>
	<g class="st74">
		<g class="st29">
			<g>
				<defs>
					<rect id="SVGID_83_" x="1284" y="148" width="241" height="127"/>
				</defs>
				<clipPath id="SVGID_84_">
					<use xlink:href="#SVGID_83_"  style="overflow:visible;"/>
				</clipPath>
				<g class="st75">
					<g>
						<defs>
							<rect id="SVGID_85_" x="1284" y="148" width="241" height="127"/>
						</defs>
						<clipPath id="SVGID_86_">
							<use xlink:href="#SVGID_85_"  style="overflow:visible;"/>
						</clipPath>
						<g class="st76">
							<path class="st72" d="M1292.6,158.6c16.8,0.1,33.6-0.5,50.3-1.6c22.9-1.6,45.6-4.5,67.8-3.6c20.6,0.8,41.1,5.2,58.9,16.2
								c30.9,19.2,45.7,53.8,47,91.3l0,1.5"/>
							<polygon class="st68" points="1510,260.9 1516.5,274.1 1523.2,261 							"/>
						</g>
					</g>
				</g>
			</g>
		</g>
		<rect x="1151" y="141.7" class="st26" width="143.5" height="29.5"/>
		<rect x="1151" y="141.7" class="st15" width="143.5" height="29.5"/>
	</g>
</g>
<g>
	<defs>
		<rect id="SVGID_87_" x="1150" y="140.7" width="145.4" height="29.4"/>
	</defs>
	<clipPath id="SVGID_88_">
		<use xlink:href="#SVGID_87_"  style="overflow:visible;"/>
	</clipPath>
	<g class="st77">
		<text transform="matrix(1 0 0 1 1157.0509 160.545)" class="st22 st17">cont</text>
		<text transform="matrix(1 0 0 1 1189.9469 160.545)" class="st22 st17">r</text>
		<text transform="matrix(1 0 0 1 1195.3059 160.545)" class="st22 st17">ol_allocation</text>
	</g>
</g>
<g>
	<defs>
		<rect id="SVGID_89_" x="811" width="810" height="540"/>
	</defs>
	<clipPath id="SVGID_90_">
		<use xlink:href="#SVGID_89_"  style="overflow:visible;"/>
	</clipPath>
	<g class="st78">
		<g class="st29">
			<g>
				<defs>
					<rect id="SVGID_91_" x="1281" y="124" width="264" height="151"/>
				</defs>
				<clipPath id="SVGID_92_">
					<use xlink:href="#SVGID_91_"  style="overflow:visible;"/>
				</clipPath>
				<g class="st79">
					<g>
						<defs>
							<rect id="SVGID_93_" x="1281" y="124" width="264" height="151"/>
						</defs>
						<clipPath id="SVGID_94_">
							<use xlink:href="#SVGID_93_"  style="overflow:visible;"/>
						</clipPath>
						<g class="st80">
							<path class="st72" d="M1289.6,129c3.3-0.5,6.7-0.6,10.1-0.3c9.7,1,18.6,5.6,27.9,8.6c27.8,9,57.2,3.8,85.8,5.1
								c23.3,1,46.6,6.6,67,18.9c36,21.6,54.8,59.2,56.2,99.6l0,1.5"/>
							<polygon class="st68" points="1530.1,260.9 1536.5,274.1 1543.3,261 							"/>
						</g>
					</g>
				</g>
			</g>
		</g>
		<rect x="1151" y="107.7" class="st26" width="143.5" height="29.5"/>
		<rect x="1151" y="107.7" class="st15" width="143.5" height="29.5"/>
	</g>
</g>
<g>
	<defs>
		<rect id="SVGID_95_" x="1150" y="106.7" width="145.4" height="29.4"/>
	</defs>
	<clipPath id="SVGID_96_">
		<use xlink:href="#SVGID_95_"  style="overflow:visible;"/>
	</clipPath>
	<g class="st81">
		<text transform="matrix(1 0 0 1 1170.3949 126.545)" class="st22 st17">state_featu</text>
		<text transform="matrix(1 0 0 1 1252.49 126.545)" class="st22 st17">r</text>
		<text transform="matrix(1 0 0 1 1257.85 126.545)" class="st22 st17">es</text>
	</g>
</g>
<g>
	<defs>
		<rect id="SVGID_97_" x="35" y="2.5" width="810" height="540"/>
	</defs>
	<clipPath id="SVGID_98_">
		<use xlink:href="#SVGID_97_"  style="overflow:visible;"/>
	</clipPath>
	<g class="st82">
		<rect x="35" y="2.5" class="st1" width="810" height="540"/>
		<text transform="matrix(1 0 0 1 311.3894 54.468)" class="st34 st5 st83">Optimization</text>
		<ellipse class="st84" cx="208.8" cy="294.6" rx="140.7" ry="167.4"/>
		<ellipse class="st20" cx="208.8" cy="294.6" rx="140.7" ry="167.4"/>
	</g>
</g>
<g>
	<defs>
		<rect id="SVGID_99_" x="68.1" y="127.2" width="281.4" height="334.8"/>
	</defs>
	<clipPath id="SVGID_100_">
		<use xlink:href="#SVGID_99_"  style="overflow:visible;"/>
	</clipPath>
	<g class="st85">
		<text transform="matrix(1 0 0 1 141.0527 432.4996)" class="st22 st86">Composition</text>
	</g>
</g>
<g>
	<defs>
		<rect id="SVGID_101_" x="35" y="2.5" width="810" height="540"/>
	</defs>
	<clipPath id="SVGID_102_">
		<use xlink:href="#SVGID_101_"  style="overflow:visible;"/>
	</clipPath>
	<g class="st87">
		<g class="st88">
			<g>
				<defs>
					<rect id="SVGID_103_" x="83" y="137.5" width="207" height="272"/>
				</defs>
				<clipPath id="SVGID_104_">
					<use xlink:href="#SVGID_103_"  style="overflow:visible;"/>
				</clipPath>
				<g class="st89">
					<g>
						<defs>
							<rect id="SVGID_105_" x="83" y="137.5" width="207" height="272"/>
						</defs>
						<clipPath id="SVGID_106_">
							<use xlink:href="#SVGID_105_"  style="overflow:visible;"/>
						</clipPath>
						<g class="st90">
							<path class="st1" d="M286.3,186.6c-3.1,31.4-40.6,32.3-64.5,49.6c-17.6,12.7-27.1,32.8-20.8,53.6c7.3,24.3,35.3,36.4,43,60.6
								c4.1,12.7,2.1,26.5-5.5,37.5c-8.8,12.7-22.2,19.6-37.4,20.2c-15.5,0.6-31.6-5.8-45.6-14.7c-23.8-15.1-44.1-35.4-56.7-60.7
								c-7.5-15.3-12.1-31.8-13.6-48.8c-3.6-38.1,7.2-76,32.8-104.5c19.6-21.9,46.4-36,75.5-39.7c14.8-1.8,29.7-1.3,44.4,1.6
								C264.3,146.2,288.7,162.1,286.3,186.6z"/>
							<path class="st20" d="M286.3,186.6c-3.1,31.4-40.6,32.3-64.5,49.6c-17.6,12.7-27.1,32.8-20.8,53.6
								c7.3,24.3,35.3,36.4,43,60.6c4.1,12.7,2.1,26.5-5.5,37.5c-8.8,12.7-22.2,19.6-37.4,20.2c-15.5,0.6-31.6-5.8-45.6-14.7
								c-23.8-15.1-44.1-35.4-56.7-60.7c-7.5-15.3-12.1-31.8-13.6-48.8c-3.6-38.1,7.2-76,32.8-104.5c19.6-21.9,46.4-36,75.5-39.7
								c14.8-1.8,29.7-1.3,44.4,1.6C264.3,146.2,288.7,162.1,286.3,186.6z"/>
						</g>
					</g>
				</g>
			</g>
		</g>
		<ellipse class="st10" cx="150.3" cy="212" rx="33.2" ry="27.1"/>
		<ellipse class="st20" cx="150.3" cy="212" rx="33.2" ry="27.1"/>
	</g>
</g>
<g>
	<defs>
		<rect id="SVGID_107_" x="117.1" y="184.8" width="66.4" height="54.3"/>
	</defs>
	<clipPath id="SVGID_108_">
		<use xlink:href="#SVGID_107_"  style="overflow:visible;"/>
	</clipPath>
	<g class="st91">
		<text transform="matrix(1 0 0 1 123.6648 215.7296)" class="st22 st92">Mechanism</text>
	</g>
</g>
<g>
	<defs>
		<rect id="SVGID_109_" x="35" y="2.5" width="810" height="540"/>
	</defs>
	<clipPath id="SVGID_110_">
		<use xlink:href="#SVGID_109_"  style="overflow:visible;"/>
	</clipPath>
	<g class="st93">
		<ellipse class="st10" cx="131.2" cy="302.3" rx="33.2" ry="27.1"/>
		<ellipse class="st20" cx="131.2" cy="302.3" rx="33.2" ry="27.1"/>
	</g>
</g>
<g>
	<defs>
		<rect id="SVGID_111_" x="98" y="275.2" width="66.4" height="54.3"/>
	</defs>
	<clipPath id="SVGID_112_">
		<use xlink:href="#SVGID_111_"  style="overflow:visible;"/>
	</clipPath>
	<g class="st94">
		<text transform="matrix(1 0 0 1 104.5028 306.0636)" class="st22 st92">Mechanism</text>
	</g>
</g>
<g>
	<defs>
		<rect id="SVGID_113_" x="35" y="2.5" width="810" height="540"/>
	</defs>
	<clipPath id="SVGID_114_">
		<use xlink:href="#SVGID_113_"  style="overflow:visible;"/>
	</clipPath>
	<g class="st95">
		<ellipse class="st10" cx="197.9" cy="367" rx="33.2" ry="27.1"/>
		<ellipse class="st20" cx="197.9" cy="367" rx="33.2" ry="27.1"/>
	</g>
</g>
<g>
	<defs>
		<rect id="SVGID_115_" x="164.7" y="339.8" width="66.4" height="54.3"/>
	</defs>
	<clipPath id="SVGID_116_">
		<use xlink:href="#SVGID_115_"  style="overflow:visible;"/>
	</clipPath>
	<g class="st96">
		<text transform="matrix(1 0 0 1 171.2018 370.7176)" class="st22 st92">Mechanism</text>
	</g>
</g>
<g>
	<defs>
		<rect id="SVGID_117_" x="35" y="2.5" width="810" height="540"/>
	</defs>
	<clipPath id="SVGID_118_">
		<use xlink:href="#SVGID_117_"  style="overflow:visible;"/>
	</clipPath>
	<g class="st97">
		<path class="st9" d="M131.5,275c1.4-10.6,3.6-21.1,6.9-31.4l0.2-0.5"/>
		<polygon points="141.2,244.6 140.2,237.9 135.5,242.7 		"/>
		<path class="st9" d="M169.4,352.7c-8.3-5.6-15.7-12.5-22-20.4l-0.3-0.4"/>
		<polygon points="149.9,330.5 143.9,327.5 145,334.1 		"/>
		<path class="st98" d="M243.3,279.5c-25.2,0.6-47.2,2.8-66,6.7l-1.9,0.5"/>
		<polygon class="st99" points="175.3,278 161,290.1 179.3,294.3 		"/>
		<path class="st9" d="M173.9,192.7c8.7-3.5,17.8-6.1,27.1-7.7l0.5-0.1"/>
		<polygon points="201.5,187.9 206.9,183.9 200.5,182 		"/>
		<path class="st9" d="M148.8,279.2c20.2-25.9,41.9-50.6,65-73.9l0.4-0.4"/>
		<polygon points="216,207.4 218.1,201 211.8,203.2 		"/>
		<polyline class="st98" points="249.8,261 194,233.5 192.2,232.6 		"/>
		<polygon class="st99" points="197.7,226 178.9,226.1 190.2,241 		"/>
		<path class="st100" d="M270.5,305.5c-3.2,8.6-7.2,16.8-12,24.6l-2.1,2.2"/>
		<polygon class="st101" points="249.9,321.8 241.8,347.4 267.2,338.5 		"/>
		<text transform="matrix(1 0 0 1 137.2437 106.529)" class="st34 st37 st102">Model-based</text>
	</g>
</g>
<g>
	<defs>
		<rect id="SVGID_119_" x="412.1" y="455" width="24.6" height="7"/>
	</defs>
	<clipPath id="SVGID_120_">
		<use xlink:href="#SVGID_119_"  style="overflow:visible;"/>
	</clipPath>
	<g class="st103">
		<line class="st104" x1="413.1" y1="458.5" x2="435.7" y2="458.5"/>
	</g>
</g>
<g>
	<defs>
		<rect id="SVGID_121_" x="350" y="444.1" width="59.7" height="25.3"/>
	</defs>
	<clipPath id="SVGID_122_">
		<use xlink:href="#SVGID_121_"  style="overflow:visible;"/>
	</clipPath>
	<g class="st105">
		<text transform="matrix(1 0 0 1 355.9608 461.8456)" class="st34 st37 st106">Cont</text>
		<text transform="matrix(1 0 0 1 388.3708 461.8456)" class="st34 st37 st106">r</text>
		<text transform="matrix(1 0 0 1 393.5788 461.8456)" class="st34 st37 st106">ol</text>
	</g>
</g>
<g>
	<defs>
		<rect id="SVGID_123_" x="35" y="2.5" width="810" height="540"/>
	</defs>
	<clipPath id="SVGID_124_">
		<use xlink:href="#SVGID_123_"  style="overflow:visible;"/>
	</clipPath>
	<g class="st107">
		<line class="st108" x1="413.1" y1="497.2" x2="435.7" y2="497.2"/>
		<text transform="matrix(1 0 0 1 334.9747 500.5296)" class="st109 st37 st106">Evaluation</text>
	</g>
</g>
<g>
	<defs>
		<rect id="SVGID_125_" x="412.1" y="432.9" width="24.6" height="5"/>
	</defs>
	<clipPath id="SVGID_126_">
		<use xlink:href="#SVGID_125_"  style="overflow:visible;"/>
	</clipPath>
	<g class="st110">
		<line class="st3" x1="413.1" y1="435.4" x2="435.7" y2="435.4"/>
	</g>
</g>
<g>
	<defs>
		<rect id="SVGID_127_" x="324.6" y="421.1" width="85.1" height="25.3"/>
	</defs>
	<clipPath id="SVGID_128_">
		<use xlink:href="#SVGID_127_"  style="overflow:visible;"/>
	</clipPath>
	<g class="st111">
		<text transform="matrix(1 0 0 1 333.3928 438.7816)" class="st43 st106">Processing</text>
	</g>
</g>
<g>
	<defs>
		<rect id="SVGID_129_" x="35" y="2.5" width="810" height="540"/>
	</defs>
	<clipPath id="SVGID_130_">
		<use xlink:href="#SVGID_129_"  style="overflow:visible;"/>
	</clipPath>
	<g class="st112">
		<path class="st84" d="M608.9,127.4c42.6,8.9,84,25.3,116.1,49.9c33.2,25.4,56.4,59.6,61.1,102.5c5.9,53.4-21,103.5-66,138
			c-76.7,58.9-189.9,59.8-266.8,0c-55.5-43.2-78.9-112.1-61.3-180.7c9.2-36.1,27.5-68.4,56.5-89.2
			C494.1,115.2,553.1,115.8,608.9,127.4z"/>
		<path class="st20" d="M608.9,127.4c42.6,8.9,84,25.3,116.1,49.9c33.2,25.4,56.4,59.6,61.1,102.5c5.9,53.4-21,103.5-66,138
			c-76.7,58.9-189.9,59.8-266.8,0c-55.5-43.2-78.9-112.1-61.3-180.7c9.2-36.1,27.5-68.4,56.5-89.2
			C494.1,115.2,553.1,115.8,608.9,127.4z"/>
	</g>
</g>
<g>
	<defs>
		<rect id="SVGID_131_" x="386.3" y="120.2" width="400.6" height="342.2"/>
	</defs>
	<clipPath id="SVGID_132_">
		<use xlink:href="#SVGID_131_"  style="overflow:visible;"/>
	</clipPath>
	<g class="st113">
		<text transform="matrix(1 0 0 1 518.6677 443.7786)" class="st22 st86">Composition</text>
	</g>
</g>
<g>
	<defs>
		<rect id="SVGID_133_" x="35" y="2.5" width="810" height="540"/>
	</defs>
	<clipPath id="SVGID_134_">
		<use xlink:href="#SVGID_133_"  style="overflow:visible;"/>
	</clipPath>
	<g class="st114">
		<g class="st88">
			<g>
				<defs>
					<rect id="SVGID_135_" x="413" y="137.5" width="207" height="277"/>
				</defs>
				<clipPath id="SVGID_136_">
					<use xlink:href="#SVGID_135_"  style="overflow:visible;"/>
				</clipPath>
				<g class="st115">
					<g>
						<defs>
							<rect id="SVGID_137_" x="413" y="137.5" width="207" height="277"/>
						</defs>
						<clipPath id="SVGID_138_">
							<use xlink:href="#SVGID_137_"  style="overflow:visible;"/>
						</clipPath>
						<g class="st116">
							<path class="st1" d="M616.3,188.2c-3.1,31.9-40.6,32.7-64.5,50.3c-17.6,12.9-27.1,33.2-20.8,54.4c7.3,24.7,35.3,36.9,43,61.5
								c4.1,12.8,2.1,26.9-5.5,38c-8.8,12.9-22.2,19.9-37.4,20.5c-15.5,0.6-31.6-5.9-45.6-14.9c-23.8-15.3-44.1-35.9-56.6-61.5
								c-7.5-15.5-12.1-32.3-13.6-49.5c-3.6-38.6,7.2-77.1,32.8-106c19.4-22.2,46.3-36.5,75.5-40.3c14.8-1.8,29.7-1.3,44.4,1.6
								C594.3,147.2,618.7,163.3,616.3,188.2z"/>
							<path class="st20" d="M616.3,188.2c-3.1,31.9-40.6,32.7-64.5,50.3c-17.6,12.9-27.1,33.2-20.8,54.4
								c7.3,24.7,35.3,36.9,43,61.5c4.1,12.8,2.1,26.9-5.5,38c-8.8,12.9-22.2,19.9-37.4,20.5c-15.5,0.6-31.6-5.9-45.6-14.9
								c-23.8-15.3-44.1-35.9-56.6-61.5c-7.5-15.5-12.1-32.3-13.6-49.5c-3.6-38.6,7.2-77.1,32.8-106c19.4-22.2,46.3-36.5,75.5-40.3
								c14.8-1.8,29.7-1.3,44.4,1.6C594.3,147.2,618.7,163.3,616.3,188.2z"/>
						</g>
					</g>
				</g>
			</g>
		</g>
		<ellipse class="st10" cx="608.9" cy="285.8" rx="44.9" ry="37.3"/>
		<ellipse class="st20" cx="608.9" cy="285.8" rx="44.9" ry="37.3"/>
	</g>
</g>
<g>
	<defs>
		<rect id="SVGID_139_" x="564" y="248.6" width="89.8" height="74.5"/>
	</defs>
	<clipPath id="SVGID_140_">
		<use xlink:href="#SVGID_139_"  style="overflow:visible;"/>
	</clipPath>
	<g class="st117">
		<text transform="matrix(1 0 0 1 575.5518 276.7166)" class="st5 st118">Optimization</text>
		<text transform="matrix(1 0 0 1 589.4838 289.7166)" class="st5 st118">Cont</text>
		<text transform="matrix(1 0 0 1 614.7509 289.7166)" class="st5 st118">r</text>
		<text transform="matrix(1 0 0 1 618.8418 289.7166)" class="st5 st118">ol</text>
		<text transform="matrix(1 0 0 1 578.5988 302.7166)" class="st5 st118">Mechanism</text>
	</g>
</g>
<g>
	<defs>
		<rect id="SVGID_141_" x="35" y="2.5" width="810" height="540"/>
	</defs>
	<clipPath id="SVGID_142_">
		<use xlink:href="#SVGID_141_"  style="overflow:visible;"/>
	</clipPath>
	<g class="st119">
		<ellipse class="st10" cx="480.3" cy="213.9" rx="33.2" ry="27.5"/>
		<ellipse class="st20" cx="480.3" cy="213.9" rx="33.2" ry="27.5"/>
	</g>
</g>
<g>
	<defs>
		<rect id="SVGID_143_" x="447.1" y="186.4" width="66.4" height="55.1"/>
	</defs>
	<clipPath id="SVGID_144_">
		<use xlink:href="#SVGID_143_"  style="overflow:visible;"/>
	</clipPath>
	<g class="st120">
		<text transform="matrix(1 0 0 1 453.6608 217.0506)" class="st22 st92">Mechanism</text>
	</g>
</g>
<g>
	<defs>
		<rect id="SVGID_145_" x="35" y="2.5" width="810" height="540"/>
	</defs>
	<clipPath id="SVGID_146_">
		<use xlink:href="#SVGID_145_"  style="overflow:visible;"/>
	</clipPath>
	<g class="st121">
		<ellipse class="st10" cx="461.2" cy="305.5" rx="33.2" ry="27.5"/>
		<ellipse class="st20" cx="461.2" cy="305.5" rx="33.2" ry="27.5"/>
	</g>
</g>
<g>
	<defs>
		<rect id="SVGID_147_" x="428" y="278" width="66.4" height="55.1"/>
	</defs>
	<clipPath id="SVGID_148_">
		<use xlink:href="#SVGID_147_"  style="overflow:visible;"/>
	</clipPath>
	<g class="st122">
		<text transform="matrix(1 0 0 1 434.4998 308.6956)" class="st22 st92">Mechanism</text>
	</g>
</g>
<g>
	<defs>
		<rect id="SVGID_149_" x="35" y="2.5" width="810" height="540"/>
	</defs>
	<clipPath id="SVGID_150_">
		<use xlink:href="#SVGID_149_"  style="overflow:visible;"/>
	</clipPath>
	<g class="st123">
		<ellipse class="st10" cx="527.9" cy="362" rx="33.2" ry="27.5"/>
		<ellipse class="st20" cx="527.9" cy="362" rx="33.2" ry="27.5"/>
	</g>
</g>
<g>
	<defs>
		<rect id="SVGID_151_" x="494.7" y="334.5" width="66.4" height="55.1"/>
	</defs>
	<clipPath id="SVGID_152_">
		<use xlink:href="#SVGID_151_"  style="overflow:visible;"/>
	</clipPath>
	<g class="st124">
		<text transform="matrix(1 0 0 1 501.1978 365.1586)" class="st22 st92">Mechanism</text>
	</g>
</g>
<g>
	<defs>
		<rect id="SVGID_153_" x="35" y="2.5" width="810" height="540"/>
	</defs>
	<clipPath id="SVGID_154_">
		<use xlink:href="#SVGID_153_"  style="overflow:visible;"/>
	</clipPath>
	<g class="st125">
		<path class="st9" d="M461.5,277.9c1.4-10.8,3.7-21.5,6.9-31.9l0.2-0.5"/>
		<polygon points="471.2,246.9 470.2,240.2 465.5,245.1 		"/>
		<path class="st9" d="M497.9,349.8c-6.8-4.1-13-9.1-18.4-14.8l-0.3-0.4"/>
		<polygon points="481.8,333 475.6,330.5 477.3,337 		"/>
		<path class="st98" d="M563.9,284.4c-21.3,0.2-40.2,1.9-56.5,5l-2,0.5"/>
		<polygon class="st99" points="505.5,281.2 491,293.2 509.3,297.6 		"/>
		<ellipse class="st10" cx="569.9" cy="181.9" rx="33.2" ry="27.5"/>
		<ellipse class="st20" cx="569.9" cy="181.9" rx="33.2" ry="27.5"/>
	</g>
</g>
<g>
	<defs>
		<rect id="SVGID_155_" x="536.7" y="154.3" width="66.4" height="55.1"/>
	</defs>
	<clipPath id="SVGID_156_">
		<use xlink:href="#SVGID_155_"  style="overflow:visible;"/>
	</clipPath>
	<g class="st126">
		<text transform="matrix(1 0 0 1 548.0718 179.0677)" class="st22 st92">Objective</text>
		<text transform="matrix(1 0 0 1 543.2717 191.0677)" class="st22 st92">Mechanism</text>
	</g>
</g>
<g>
	<defs>
		<rect id="SVGID_157_" x="35" y="2.5" width="810" height="540"/>
	</defs>
	<clipPath id="SVGID_158_">
		<use xlink:href="#SVGID_157_"  style="overflow:visible;"/>
	</clipPath>
	<g class="st127">
		<path class="st9" d="M503.8,194.3c8.7-3.6,17.8-6.2,27.1-7.9l0.5-0.1"/>
		<polygon points="531.5,189.4 536.9,185.4 530.5,183.5 		"/>
		<path class="st9" d="M478.8,282.1c20.2-26.2,42-51.3,65.1-75l0.4-0.4"/>
		<polygon points="546.1,209.2 548.1,202.8 541.8,204.9 		"/>
		<polyline class="st98" points="571.6,264.9 522.6,237.6 520.9,236.6 		"/>
		<polygon class="st99" points="526.7,230.2 508,229.4 518.5,244.9 		"/>
		<path class="st128" d="M656.7,315.5l1.9,0.7c12,2,24.1-1.6,36.3-10.9"/>
		<polygon class="st109" points="661.5,308.4 642.8,310.4 655.7,324.1 		"/>
		<ellipse class="st10" cx="718.9" cy="276.7" rx="44.9" ry="37.3"/>
		<ellipse class="st20" cx="718.9" cy="276.7" rx="44.9" ry="37.3"/>
	</g>
</g>
<g>
	<defs>
		<rect id="SVGID_159_" x="674" y="239.4" width="89.8" height="74.5"/>
	</defs>
	<clipPath id="SVGID_160_">
		<use xlink:href="#SVGID_159_"  style="overflow:visible;"/>
	</clipPath>
	<g class="st129">
		<text transform="matrix(1 0 0 1 686.5415 267.4796)" class="st22 st118">Composition</text>
		<text transform="matrix(1 0 0 1 696.7274 280.4796)" class="st22 st118">Function</text>
		<text transform="matrix(1 0 0 1 684.2975 293.4796)" class="st22 st118">App</text>
		<text transform="matrix(1 0 0 1 705.0764 293.4796)" class="st22 st118">r</text>
		<text transform="matrix(1 0 0 1 708.7615 293.4796)" class="st22 st118">oximator</text>
	</g>
</g>
<g>
	<defs>
		<rect id="SVGID_161_" x="35" y="2.5" width="810" height="540"/>
	</defs>
	<clipPath id="SVGID_162_">
		<use xlink:href="#SVGID_161_"  style="overflow:visible;"/>
	</clipPath>
	<g class="st130">
		<path class="st131" d="M693.9,322.2l-1.6,1.2c-21.8,14.4-42,12.6-60.5-5.5"/>
		<polygon class="st101" points="697.5,330.1 705.4,313 687.1,316.9 		"/>
		<text transform="matrix(1 0 0 1 507.9158 106.529)" class="st34 st37 st102">“Model-f</text>
		<text transform="matrix(1 0 0 1 608.3297 106.529)" class="st34 st37 st102">r</text>
		<text transform="matrix(1 0 0 1 617.2578 106.529)" class="st34 st37 st102">ee”</text>
		<text transform="matrix(1 0 0 1 331.8807 526.4546)" class="st132 st37 st106">Adaptation</text>
		<line class="st133" x1="413.1" y1="518" x2="435.7" y2="518"/>
		<text transform="matrix(1 0 0 1 443.7528 521.7016)" class="st132 st43 st118">Features</text>
		<line class="st134" x1="413.1" y1="529.2" x2="435.7" y2="529.2"/>
		<text transform="matrix(1 0 0 1 442.5318 532.9046)" class="st132 st43 st118">Outcome</text>
		<path class="st135" d="M614.1,173.7c34.6,6.6,39.5,29.3,14.6,68.1l-0.6,0.8"/>
		<polygon class="st136" points="624.7,239.1 623.4,249.7 632.7,244.4 		"/>
		<path class="st135" d="M638.4,255.7c8.9-9.4,20.5-11.9,35-7.6l0.9,0.4"/>
		<polygon class="st136" points="671.7,252.6 682.4,251.5 675.1,243.6 		"/>
		<path class="st137" d="M561.7,368.1c18.9-4,33-17.2,42.2-39.5l0.3-0.9"/>
		<polygon class="st138" points="608.4,330.2 607.2,319.5 599.4,326.9 		"/>
		<path class="st137" d="M646,262.2c5.3-7.2,13-8.9,22.9-5.2l0.9,0.4"/>
		<polygon class="st138" points="666.8,261.3 677.5,261.3 671,252.7 		"/>
		<path class="st135" d="M615.5,170.5c15-3.8,23.7-11.9,26.2-24.2l0.1-1"/>
		<polygon class="st136" points="646.5,146.6 642.4,136.7 636.9,145.9 		"/>
		<path class="st137" d="M230.4,367.4c24.6-6.8,40.9-20.9,48.8-42l0.3-1"/>
		<polygon class="st138" points="283.7,326.8 281.9,316.2 274.5,324 		"/>
		<path class="st137" d="M234,352.6l0.9-0.4c16.1-9.4,27.7-24.7,35-46"/>
		<polygon class="st138" points="232.7,347.9 226.3,356.4 237,356.5 		"/>
		<path class="st137" d="M608.9,416.8c-5.9-18.7-20.5-31.8-43.9-39.3l-1-0.3"/>
		<polygon class="st138" points="566.3,372.9 555.7,375 563.7,382.2 		"/>
		<path class="st137" d="M268.5,411.2c-1.7-16.2-11.5-27.5-29.5-33.6l-1-0.3"/>
		<polygon class="st138" points="240.3,372.9 229.7,375 237.7,382.2 		"/>
		<ellipse class="st10" cx="288.3" cy="280" rx="44.9" ry="36.7"/>
		<ellipse class="st20" cx="288.3" cy="280" rx="44.9" ry="36.7"/>
	</g>
</g>
<g>
	<defs>
		<rect id="SVGID_163_" x="243.4" y="243.3" width="89.8" height="73.4"/>
	</defs>
	<clipPath id="SVGID_164_">
		<use xlink:href="#SVGID_163_"  style="overflow:visible;"/>
	</clipPath>
	<g class="st139">
		<text transform="matrix(1 0 0 1 254.9728 270.6116)" class="st5 st118">Optimization</text>
		<text transform="matrix(1 0 0 1 268.8937 283.6116)" class="st5 st118">Cont</text>
		<text transform="matrix(1 0 0 1 294.1608 283.6116)" class="st5 st118">r</text>
		<text transform="matrix(1 0 0 1 298.2517 283.6116)" class="st5 st118">ol</text>
		<text transform="matrix(1 0 0 1 258.0078 296.6106)" class="st5 st118">Mechanism</text>
	</g>
</g>
<g>
	<defs>
		<rect id="SVGID_165_" x="35" y="2.5" width="810" height="540"/>
	</defs>
	<clipPath id="SVGID_166_">
		<use xlink:href="#SVGID_165_"  style="overflow:visible;"/>
	</clipPath>
	<g class="st140">
		<line class="st141" x1="413.1" y1="477.2" x2="435.7" y2="477.2"/>
		<text transform="matrix(1 0 0 1 338.8528 480.5296)" class="st142 st37 st106">Execution</text>
		<path class="st143" d="M278.6,204.4c4.8,6.4,8,14.4,9.6,24l0.1,3"/>
		<polygon class="st109" points="276.2,228.8 289.3,252.3 300.2,227.8 		"/>
		<ellipse class="st10" cx="239.9" cy="180.4" rx="33.2" ry="27.1"/>
		<ellipse class="st20" cx="239.9" cy="180.4" rx="33.2" ry="27.1"/>
	</g>
</g>
<g>
	<defs>
		<rect id="SVGID_167_" x="206.7" y="153.3" width="66.4" height="54.3"/>
	</defs>
	<clipPath id="SVGID_168_">
		<use xlink:href="#SVGID_167_"  style="overflow:visible;"/>
	</clipPath>
	<g class="st144">
		<text transform="matrix(1 0 0 1 218.0808 177.2826)" class="st22 st92">Objective</text>
		<text transform="matrix(1 0 0 1 213.2718 189.2826)" class="st22 st92">Mechanism</text>
	</g>
</g>
<g>
	<defs>
		<rect id="SVGID_169_" x="35" y="2.5" width="810" height="540"/>
	</defs>
	<clipPath id="SVGID_170_">
		<use xlink:href="#SVGID_169_"  style="overflow:visible;"/>
	</clipPath>
	<g class="st145">
		<path class="st135" d="M288.8,234.8l0-1c-0.7-18.2-7.8-31-21.2-38.5"/>
		<polygon class="st136" points="284,233.8 288.6,243.4 293.6,233.9 		"/>
	</g>
</g>
<line class="st146" x1="823.7" y1="2.5" x2="823.7" y2="540"/>
</svg>
