<?xml version="1.0" encoding="utf-8"?>
<!-- Generator: Adobe Illustrator 25.3.1, SVG Export Plug-In . SVG Version: 6.00 Build 0)  -->
<svg version="1.1" id="Layer_1" xmlns="http://www.w3.org/2000/svg" xmlns:xlink="http://www.w3.org/1999/xlink" x="0px" y="0px"
	 viewBox="0 0 807.1 712.5" style="enable-background:new 0 0 807.1 712.5;" xml:space="preserve">
<style type="text/css">
	.st0{display:none;}
	.st1{font-family:'MyriadPro-Regular';}
	.st2{font-size:12px;}
	.st3{enable-background:new    ;}
	.st4{clip-path:url(#SVGID_2_);fill:#FFFFFF;}
	.st5{clip-path:url(#SVGID_2_);}
	.st6{font-family:'TimesNewRomanPSMT';}
	.st7{font-size:14.0002px;}
	.st8{clip-path:url(#SVGID_2_);fill:none;stroke:#00FF00;stroke-width:3;stroke-miterlimit:10;}
	.st9{font-family:'ArialMT';}
	.st10{clip-path:url(#SVGID_2_);fill:none;stroke:#FF0000;stroke-width:3;stroke-miterlimit:10;}
	.st11{clip-path:url(#SVGID_2_);fill:none;stroke:#000000;stroke-miterlimit:10;}
	.st12{clip-path:url(#SVGID_2_);fill:none;stroke:#A52A2A;stroke-width:3;stroke-miterlimit:10;}
	.st13{fill:none;stroke:#000000;stroke-width:2;stroke-miterlimit:10;}
	.st14{clip-path:url(#SVGID_4_);fill:#FFFFFF;}
	.st15{clip-path:url(#SVGID_4_);}
	.st16{clip-path:url(#SVGID_4_);fill:none;stroke:#A52A2A;stroke-width:3;stroke-miterlimit:10;}
	.st17{font-family:'Arial-ItalicMT';}
	.st18{font-size:18px;}
	.st19{clip-path:url(#SVGID_6_);fill:#FFFFFF;}
	.st20{clip-path:url(#SVGID_6_);}
	.st21{clip-path:url(#SVGID_6_);fill:none;stroke:#00FF00;stroke-width:3;stroke-miterlimit:10;}
	.st22{clip-path:url(#SVGID_6_);fill:none;stroke:#000000;stroke-miterlimit:10;}
	.st23{clip-path:url(#SVGID_6_);fill:none;stroke:#FF0000;stroke-width:3;stroke-miterlimit:10;}
	.st24{clip-path:url(#SVGID_8_);fill:#FFFFFF;}
	.st25{clip-path:url(#SVGID_8_);}
	.st26{clip-path:url(#SVGID_8_);fill:none;stroke:#00FF00;stroke-width:3;stroke-miterlimit:10;}
	.st27{clip-path:url(#SVGID_8_);fill:none;stroke:#FF0000;stroke-width:3;stroke-miterlimit:10;}
	.st28{clip-path:url(#SVGID_8_);fill:none;stroke:#000000;stroke-miterlimit:10;}
	.st29{clip-path:url(#SVGID_10_);fill:#FFFFFF;}
	.st30{clip-path:url(#SVGID_10_);}
	.st31{clip-path:url(#SVGID_10_);fill:none;stroke:#00FF00;stroke-width:3;stroke-miterlimit:10;}
	.st32{clip-path:url(#SVGID_10_);fill:none;stroke:#FF0000;stroke-width:3;stroke-miterlimit:10;}
	.st33{clip-path:url(#SVGID_10_);fill:none;stroke:#000000;stroke-miterlimit:10;}
	.st34{clip-path:url(#SVGID_12_);fill:#FFFFFF;}
	.st35{clip-path:url(#SVGID_12_);}
	.st36{fill:none;stroke:#00FF00;stroke-width:3;stroke-miterlimit:10;}
	.st37{fill:none;stroke:#FF0000;stroke-width:3;stroke-miterlimit:10;}
	.st38{fill:none;stroke:#000000;stroke-miterlimit:10;}
	.st39{font-size:14px;}
	.st40{fill:none;stroke:#A52A2A;stroke-width:3;stroke-miterlimit:10;}
	.st41{clip-path:url(#SVGID_14_);fill:#FFFFFF;}
	.st42{clip-path:url(#SVGID_14_);}
	.st43{clip-path:url(#SVGID_14_);fill:none;stroke:#00FF00;stroke-width:3;stroke-miterlimit:10;}
	.st44{clip-path:url(#SVGID_14_);fill:none;stroke:#000000;stroke-miterlimit:10;}
	.st45{clip-path:url(#SVGID_14_);fill:none;stroke:#FF0000;stroke-width:3;stroke-miterlimit:10;}
	.st46{clip-path:url(#SVGID_16_);fill:#FFFFFF;}
	.st47{clip-path:url(#SVGID_16_);fill:none;stroke:#00FF00;stroke-width:3;stroke-miterlimit:10;}
	.st48{clip-path:url(#SVGID_16_);}
	.st49{clip-path:url(#SVGID_16_);fill:none;stroke:#000000;stroke-miterlimit:10;}
	.st50{clip-path:url(#SVGID_16_);fill:none;stroke:#FF0000;stroke-width:3;stroke-miterlimit:10;}
	.st51{clip-path:url(#SVGID_18_);}
	.st52{font-family:'Times-Roman';}
	.st53{clip-path:url(#SVGID_18_);fill:none;stroke:#000000;stroke-miterlimit:10;}
	.st54{clip-path:url(#SVGID_18_);fill:none;stroke:#00FF00;stroke-width:3;stroke-miterlimit:10;}
	.st55{clip-path:url(#SVGID_18_);fill:none;stroke:#A52A2A;stroke-width:3;stroke-miterlimit:10;}
	.st56{clip-path:url(#SVGID_18_);fill:none;stroke:#FF0000;stroke-width:3;stroke-miterlimit:10;}
</style>
<text transform="matrix(1 0 0 1 805.9997 35.0679)" class="st0 st1 st2">[{A,B},C]</text>
<g>
	<g class="st3">
		<g>
			<defs>
				<rect id="SVGID_1_" x="101.1" y="219.3" width="350" height="241"/>
			</defs>
			<clipPath id="SVGID_2_">
				<use xlink:href="#SVGID_1_"  style="overflow:visible;"/>
			</clipPath>
			<rect x="137.1" y="255.3" class="st4" width="278" height="169"/>
			<g class="st5">
				<text transform="matrix(1 0 0 1 219.0673 382.5083)" class="st6 st7">[A,</text>
			</g>
			<g class="st5">
				<text transform="matrix(1 0 0 1 240.8378 382.5083)" class="st6 st7">B],</text>
			</g>
			<g class="st5">
				<text transform="matrix(1 0 0 1 261.8236 382.5083)" class="st6 st7">[C,</text>
			</g>
			<g class="st5">
				<text transform="matrix(1 0 0 1 282.81 382.5083)" class="st6 st7">D],</text>
			</g>
			<g class="st5">
				<text transform="matrix(1 0 0 1 304.5805 382.5083)" class="st6 st7">E,</text>
			</g>
			<g class="st5">
				<text transform="matrix(1 0 0 1 320.1205 382.5083)" class="st6 st7">F]</text>
			</g>
			<g class="st5">
				<text transform="matrix(1 0 0 1 214.0673 397.5083)" class="st6 st7">[A,</text>
			</g>
			<g class="st5">
				<text transform="matrix(1 0 0 1 235.8378 397.5083)" class="st6 st7">B],</text>
			</g>
			<g class="st5">
				<text transform="matrix(1 0 0 1 256.8236 397.5083)" class="st6 st7">[C,D],</text>
			</g>
			<g class="st5">
				<text transform="matrix(1 0 0 1 296.0805 397.5083)" class="st6 st7">{E,</text>
			</g>
			<g class="st5">
				<text transform="matrix(1 0 0 1 318.3266 397.5083)" class="st6 st7">F}]</text>
			</g>
			<g class="st5">
				<text transform="matrix(1 0 0 1 204.0673 412.5083)" class="st6 st7">[A,</text>
			</g>
			<g class="st5">
				<text transform="matrix(1 0 0 1 225.8378 412.5083)" class="st6 st7">B],</text>
			</g>
			<g class="st5">
				<text transform="matrix(1 0 0 1 246.8236 412.5083)" class="st6 st7">[C,D],</text>
			</g>
			<g class="st5">
				<text transform="matrix(1 0 0 1 286.0805 412.5083)" class="st6 st7">{E},</text>
			</g>
			<g class="st5">
				<text transform="matrix(1 0 0 1 315.0331 412.5083)" class="st6 st7">{F}}]</text>
			</g>
			<path class="st8" d="M195.1,349.3c0,9.9-12.1,18-27,18c-14.9,0-27-8.1-27-18s12.1-18,27-18C183,331.3,195.1,339.4,195.1,349.3"/>
			<g class="st5">
				<text transform="matrix(1 0 0 1 163.5673 352.4111)" class="st9 st2">A</text>
			</g>
			<path class="st10" d="M195.1,277.3c0,9.9-12.1,18-27,18c-14.9,0-27-8.1-27-18c0-9.9,12.1-18,27-18
				C183,259.3,195.1,267.4,195.1,277.3"/>
			<g class="st5">
				<text transform="matrix(1 0 0 1 163.5673 280.4111)" class="st9 st2">B</text>
			</g>
			<path class="st11" d="M168.1,331.1c0-7.7,0-16.9,0-25.4"/>
			<polygon class="st5" points="164.6,305.7 168.1,295.7 171.6,305.7 			"/>
			<polygon class="st11" points="164.6,305.7 168.1,295.7 171.6,305.7 			"/>
			<path class="st8" d="M267.1,349.3c0,9.9-12.1,18-27,18s-27-8.1-27-18s12.1-18,27-18S267.1,339.4,267.1,349.3"/>
			<g class="st5">
				<text transform="matrix(1 0 0 1 235.5673 352.4111)" class="st9 st2">C</text>
			</g>
			<path class="st10" d="M267.1,277.3c0,9.9-12.1,18-27,18s-27-8.1-27-18c0-9.9,12.1-18,27-18S267.1,267.4,267.1,277.3"/>
			<g class="st5">
				<text transform="matrix(1 0 0 1 235.5673 280.4111)" class="st9 st2">D</text>
			</g>
			<path class="st11" d="M240.1,331.1c0-7.7,0-16.9,0-25.4"/>
			<polygon class="st5" points="236.6,305.7 240.1,295.7 243.6,305.7 			"/>
			<polygon class="st11" points="236.6,305.7 240.1,295.7 243.6,305.7 			"/>
			<path class="st12" d="M339.1,349.3c0,9.9-12.1,18-27,18s-27-8.1-27-18s12.1-18,27-18S339.1,339.4,339.1,349.3"/>
			<g class="st5">
				<text transform="matrix(1 0 0 1 307.5673 352.4111)" class="st9 st2">E</text>
			</g>
			<path class="st12" d="M411.1,349.3c0,9.9-12.1,18-27,18s-27-8.1-27-18s12.1-18,27-18S411.1,339.4,411.1,349.3"/>
			<g class="st5">
				<text transform="matrix(1 0 0 1 380.0673 352.4111)" class="st9 st2">F</text>
			</g>
		</g>
	</g>
</g>
<rect y="0.5" class="st13" width="807.1" height="712"/>
<g>
	<g>
		<g>
			<g class="st3">
				<g>
					<defs>
						<rect id="SVGID_3_" x="26.9" y="7" width="278" height="139"/>
					</defs>
					<clipPath id="SVGID_4_">
						<use xlink:href="#SVGID_3_"  style="overflow:visible;"/>
					</clipPath>
					<rect x="62.9" y="43" class="st14" width="206" height="67"/>
					<g class="st15">
						<text transform="matrix(1 0 0 1 131.9072 98.1787)"><tspan x="0" y="0" class="st6 st7">  {A, B, C}</tspan><tspan x="0" y="16.8" class="st6 st7">[[A],{B,C}]</tspan></text>
					</g>
					<path class="st16" d="M120.9,65c0,9.9-12.1,18-27,18s-27-8.1-27-18s12.1-18,27-18S120.9,55,120.9,65"/>
					<g class="st15">
						<text transform="matrix(1 0 0 1 89.4072 68.0816)" class="st9 st2">A</text>
					</g>
					<path class="st16" d="M192.9,65c0,9.9-12.1,18-27,18s-27-8.1-27-18s12.1-18,27-18S192.9,55,192.9,65"/>
					<g class="st15">
						<text transform="matrix(1 0 0 1 161.4072 68.0816)" class="st9 st2">B</text>
					</g>
					<path class="st16" d="M264.9,65c0,9.9-12.1,18-27,18s-27-8.1-27-18s12.1-18,27-18S264.9,55,264.9,65"/>
					<g class="st15">
						<text transform="matrix(1 0 0 1 233.4072 68.0816)" class="st9 st2">C</text>
					</g>
				</g>
			</g>
		</g>
	</g>
	<text transform="matrix(1 0 0 1 43.6736 52.9363)" class="st17 st18">i</text>
</g>
<g>
	<g>
		<g class="st3">
			<g>
				<defs>
					<rect id="SVGID_5_" x="11.8" y="111.1" width="314" height="154"/>
				</defs>
				<clipPath id="SVGID_6_">
					<use xlink:href="#SVGID_5_"  style="overflow:visible;"/>
				</clipPath>
				<rect x="47.8" y="147.1" class="st19" width="242" height="82"/>
				<g class="st20">
					<text transform="matrix(1 0 0 1 142.2753 202.2887)" class="st6 st7">[A,</text>
				</g>
				<g class="st20">
					<text transform="matrix(1 0 0 1 164.0458 202.2887)" class="st6 st7">B,</text>
				</g>
				<g class="st20">
					<text transform="matrix(1 0 0 1 180.3701 202.2887)" class="st6 st7">C]</text>
				</g>
				<g class="st20">
					<text transform="matrix(1 0 0 1 129.2753 217.2887)" class="st6 st7">[{A},</text>
				</g>
				<g class="st20">
					<text transform="matrix(1 0 0 1 164.4579 217.2887)" class="st6 st7">B,</text>
				</g>
				<g class="st20">
					<text transform="matrix(1 0 0 1 180.7822 217.2887)" class="st6 st7">{C}]</text>
				</g>
				<path class="st21" d="M105.8,169.1c0,9.9-12.1,18-27,18s-27-8.1-27-18s12.1-18,27-18S105.8,159.1,105.8,169.1"/>
				<g class="st20">
					<text transform="matrix(1 0 0 1 74.2753 172.1915)" class="st9 st2">A</text>
				</g>
				<path class="st22" d="M195.8,169.1c0,9.9-12.1,18-27,18s-27-8.1-27-18s12.1-18,27-18S195.8,159.1,195.8,169.1"/>
				<g class="st20">
					<text transform="matrix(1 0 0 1 164.2753 172.1915)" class="st9 st2">B</text>
				</g>
				<path class="st22" d="M105.8,169.1c8,0,17,0,25.5,0"/>
				<polygon class="st20" points="131.5,165.6 141.5,169.1 131.5,172.6 				"/>
				<polygon class="st22" points="131.5,165.6 141.5,169.1 131.5,172.6 				"/>
				<path class="st23" d="M285.8,169.1c0,9.9-12.1,18-27,18s-27-8.1-27-18s12.1-18,27-18S285.8,159.1,285.8,169.1"/>
				<g class="st20">
					<text transform="matrix(1 0 0 1 254.2753 172.1915)" class="st9 st2">C</text>
				</g>
				<path class="st22" d="M195.8,169.1c8,0,17,0,25.5,0"/>
				<polygon class="st20" points="221.5,165.6 231.5,169.1 221.5,172.6 				"/>
				<polygon class="st22" points="221.5,165.6 231.5,169.1 221.5,172.6 				"/>
			</g>
		</g>
	</g>
	<text transform="matrix(1 0 0 1 45.0413 139.5001)" class="st17 st18">ii</text>
</g>
<g>
	<g>
		<g>
			<g class="st3">
				<g>
					<defs>
						<rect id="SVGID_7_" x="324.7" y="15.2" width="206" height="226"/>
					</defs>
					<clipPath id="SVGID_8_">
						<use xlink:href="#SVGID_7_"  style="overflow:visible;"/>
					</clipPath>
					<rect x="360.7" y="51.2" class="st24" width="134" height="154"/>
					<g class="st25">
						<text transform="matrix(1 0 0 1 398.1858 178.3903)" class="st6 st7">[A,{B,C}]</text>
					</g>
					<g class="st25">
						<text transform="matrix(1 0 0 1 391.6858 193.3903)" class="st6 st7">[{A},{B,C}]</text>
					</g>
					<path class="st26" d="M454.7,145.2c0,9.9-12.1,18-27,18s-27-8.1-27-18c0-9.9,12.1-18,27-18S454.7,135.3,454.7,145.2"/>
					<g class="st25">
						<text transform="matrix(1 0 0 1 423.1858 148.2932)" class="st9 st2">A</text>
					</g>
					<path class="st27" d="M418.7,73.2c0,9.9-12.1,18-27,18s-27-8.1-27-18s12.1-18,27-18S418.7,63.3,418.7,73.2"/>
					<g class="st25">
						<text transform="matrix(1 0 0 1 459.9024 76.2932)" class="st9 st2">C</text>
					</g>
					<path class="st28" d="M419,127.8c-4.2-8.5-9.4-18.9-14.2-28.3"/>
					<polygon class="st25" points="401.7,101 400.3,90.5 407.9,97.8 					"/>
					<polygon class="st28" points="401.7,101 400.3,90.5 407.9,97.8 					"/>
					<path class="st27" d="M490.7,73.2c0,9.9-12.1,18-27,18s-27-8.1-27-18s12.1-18,27-18S490.7,63.3,490.7,73.2"/>
					<g class="st25">
						<text transform="matrix(1 0 0 1 387.9087 76.2932)" class="st9 st2">B</text>
					</g>
					<path class="st28" d="M436.4,127.8c4.2-8.5,9.4-18.9,14.2-28.3"/>
					<polygon class="st25" points="447.4,97.8 455.1,90.5 453.7,101 					"/>
					<polygon class="st28" points="447.4,97.8 455.1,90.5 453.7,101 					"/>
				</g>
			</g>
		</g>
	</g>
	<text transform="matrix(1 0 0 1 344.1529 52.9361)" class="st17 st18">iii</text>
</g>
<g>
	<g>
		<g class="st3">
			<g>
				<defs>
					<rect id="SVGID_9_" x="527.4" y="15.2" width="206" height="226"/>
				</defs>
				<clipPath id="SVGID_10_">
					<use xlink:href="#SVGID_9_"  style="overflow:visible;"/>
				</clipPath>
				<rect x="563.4" y="51.2" class="st29" width="134" height="154"/>
				<g class="st30">
					<text transform="matrix(1 0 0 1 597.4194 178.3903)" class="st6 st7">[{A,</text>
				</g>
				<g class="st30">
					<text transform="matrix(1 0 0 1 625.896 178.3903)" class="st6 st7">B},</text>
				</g>
				<g class="st30">
					<text transform="matrix(1 0 0 1 648.9263 178.3903)" class="st6 st7">C]</text>
				</g>
				<g class="st30">
					<text transform="matrix(1 0 0 1 590.9194 193.3903)" class="st6 st7">[{A,</text>
				</g>
				<g class="st30">
					<text transform="matrix(1 0 0 1 619.396 193.3903)" class="st6 st7">B},</text>
				</g>
				<g class="st30">
					<text transform="matrix(1 0 0 1 642.4263 193.3903)" class="st6 st7">{C}]</text>
				</g>
				<path class="st31" d="M621.4,145.2c0,9.9-12.1,18-27,18c-14.9,0-27-8.1-27-18c0-9.9,12.1-18,27-18
					C609.3,127.2,621.4,135.3,621.4,145.2"/>
				<g class="st30">
					<text transform="matrix(1 0 0 1 589.9194 148.2932)" class="st9 st2">A</text>
				</g>
				<path class="st32" d="M657.4,73.2c0,9.9-12.1,18-27,18c-14.9,0-27-8.1-27-18s12.1-18,27-18C645.3,55.2,657.4,63.3,657.4,73.2"/>
				<g class="st30">
					<text transform="matrix(1 0 0 1 625.9194 76.2932)" class="st9 st2">C</text>
				</g>
				<path class="st33" d="M603.1,127.8c4.2-8.5,9.4-18.9,14.2-28.3"/>
				<polygon class="st30" points="614.2,97.8 621.8,90.5 620.4,101 				"/>
				<polygon class="st33" points="614.2,97.8 621.8,90.5 620.4,101 				"/>
				<path class="st31" d="M693.4,145.2c0,9.9-12.1,18-27,18c-14.9,0-27-8.1-27-18c0-9.9,12.1-18,27-18
					C681.3,127.2,693.4,135.3,693.4,145.2"/>
				<g class="st30">
					<text transform="matrix(1 0 0 1 661.9194 148.2932)" class="st9 st2">B</text>
				</g>
				<path class="st33" d="M657.7,127.8c-4.2-8.5-9.4-18.9-14.2-28.3"/>
				<polygon class="st30" points="640.4,101 639.1,90.5 646.7,97.8 				"/>
				<polygon class="st33" points="640.4,101 639.1,90.5 646.7,97.8 				"/>
			</g>
		</g>
	</g>
	<text transform="matrix(1 0 0 1 583.4542 52.8657)" class="st17 st18">iv</text>
</g>
<text transform="matrix(1 0 0 1 120.5723 257.1804)" class="st17 st18">v</text>
<g>
	<g>
		<g>
			<g class="st3">
				<g>
					<defs>
						<rect id="SVGID_11_" x="423.7" y="219.3" width="336" height="241"/>
					</defs>
					<clipPath id="SVGID_12_">
						<use xlink:href="#SVGID_11_"  style="overflow:visible;"/>
					</clipPath>
					<rect x="459.7" y="255.3" class="st34" width="264" height="169"/>
					<g class="st35">
						<text transform="matrix(1 0 0 1 478.2359 382.5083)" class="st6 st7">[{A,B},</text>
					</g>
					<g class="st35">
						<text transform="matrix(1 0 0 1 526.2427 382.5083)" class="st6 st7">{MappingProjection(B,D)}, C, D]</text>
					</g>
					<g id="B_x2C_C_x2C_D" class="st35">
						<path class="st36" d="M618,349.4c0,9.9-12.1,18-27,18c-14.9,0-27-8.1-27-18c0-9.9,12.1-18,27-18
							C605.9,331.4,618,339.4,618,349.4"/>
						<text transform="matrix(1 0 0 1 659.9491 352.4832)" class="st9 st2">C</text>
						<path class="st37" d="M654,277.4c0,9.9-12.1,18-27,18c-14.9,0-27-8.1-27-18c0-9.9,12.1-18,27-18
							C641.9,259.4,654,267.4,654,277.4"/>
						<text transform="matrix(1 0 0 1 622.5121 280.4832)" class="st9 st2">D</text>
						<path class="st38" d="M599.7,332c4.2-8.5,9.4-18.9,14.2-28.3"/>
						<polygon points="610.8,302 618.4,294.7 617,305.2 						"/>
						<polygon class="st38" points="610.8,302 618.4,294.7 617,305.2 						"/>
						<path class="st36" d="M690,349.4c0,9.9-12.1,18-27,18c-14.9,0-27-8.1-27-18c0-9.9,12.1-18,27-18
							C677.9,331.4,690,339.4,690,349.4"/>
						<text transform="matrix(1 0 0 1 586.5159 352.8433)" class="st9 st39">B</text>
						<path class="st38" d="M654.3,332c-4.2-8.5-9.4-18.9-14.2-28.3"/>
						<polygon points="637,305.2 635.7,294.7 643.3,302 						"/>
						<polygon class="st38" points="637,305.2 635.7,294.7 643.3,302 						"/>
					</g>
					<g class="st35">
						<text transform="matrix(1 0 0 1 515.9632 352.4111)" class="st9 st2">A</text>
					</g>
					<g id="A_2_" class="st35">
						<path class="st40" d="M546.7,349.3c0,9.9-12.1,18-27,18c-14.9,0-27-8.1-27-18s12.1-18,27-18
							C534.6,331.3,546.7,339.4,546.7,349.3"/>
						<text transform="matrix(1 0 0 1 515.2432 352.4111)" class="st9 st2">A</text>
					</g>
				</g>
			</g>
		</g>
	</g>
	<text transform="matrix(1 0 0 1 583.4539 252.1403)" class="st17 st18">vi</text>
</g>
<g>
	<g>
		<g class="st3">
			<g>
				<defs>
					<rect id="SVGID_13_" x="17.9" y="423.3" width="278" height="283"/>
				</defs>
				<clipPath id="SVGID_14_">
					<use xlink:href="#SVGID_13_"  style="overflow:visible;"/>
				</clipPath>
				<rect x="53.9" y="459.3" class="st41" width="206" height="211"/>
				<g class="st42">
					<text transform="matrix(1 0 0 1 114.3878 658.5131)" class="st6 st7">[A,{B,C,D},E]</text>
				</g>
				<path class="st43" d="M183.9,625.3c0,9.9-12.1,18-27,18s-27-8.1-27-18c0-9.9,12.1-18,27-18S183.9,615.4,183.9,625.3"/>
				<g class="st42">
					<text transform="matrix(1 0 0 1 152.3878 628.4159)" class="st9 st2">A</text>
				</g>
				<path class="st44" d="M111.9,553.3c0,9.9-12.1,18-27,18s-27-8.1-27-18c0-9.9,12.1-18,27-18S111.9,543.4,111.9,553.3"/>
				<g class="st42">
					<text transform="matrix(1 0 0 1 80.3878 556.4159)" class="st9 st2">B</text>
				</g>
				<path class="st44" d="M141.6,610c-9.9-9.9-23-23-34.2-34.2"/>
				<polygon class="st42" points="104.7,578.1 100.1,568.6 109.7,573.2 				"/>
				<polygon class="st44" points="104.7,578.1 100.1,568.6 109.7,573.2 				"/>
				<path class="st44" d="M183.9,553.3c0,9.9-12.1,18-27,18s-27-8.1-27-18c0-9.9,12.1-18,27-18S183.9,543.4,183.9,553.3"/>
				<g class="st42">
					<text transform="matrix(1 0 0 1 152.3878 556.4159)" class="st9 st2">C</text>
				</g>
				<path class="st44" d="M156.9,607.1c0-7.7,0-16.9,0-25.4"/>
				<polygon class="st42" points="153.4,581.7 156.9,571.7 160.4,581.7 				"/>
				<polygon class="st44" points="153.4,581.7 156.9,571.7 160.4,581.7 				"/>
				<path class="st44" d="M255.9,553.3c0,9.9-12.1,18-27,18s-27-8.1-27-18c0-9.9,12.1-18,27-18S255.9,543.4,255.9,553.3"/>
				<g class="st42">
					<text transform="matrix(1 0 0 1 224.3878 556.4159)" class="st9 st2">D</text>
				</g>
				<path class="st44" d="M172.2,610c9.9-9.9,23-23,34.2-34.2"/>
				<polygon class="st42" points="204.1,573.2 213.6,568.6 209,578.1 				"/>
				<polygon class="st44" points="204.1,573.2 213.6,568.6 209,578.1 				"/>
				<path class="st45" d="M183.9,481.3c0,9.9-12.1,18-27,18s-27-8.1-27-18s12.1-18,27-18S183.9,471.4,183.9,481.3"/>
				<g class="st42">
					<text transform="matrix(1 0 0 1 152.3878 484.4159)" class="st9 st2">E</text>
				</g>
				<path class="st44" d="M100.2,538c9.9-9.9,23-23,34.2-34.2"/>
				<polygon class="st42" points="132.1,501.2 141.6,496.6 137,506.1 				"/>
				<polygon class="st44" points="132.1,501.2 141.6,496.6 137,506.1 				"/>
				<path class="st44" d="M156.9,535.1c0-7.7,0-16.9,0-25.4"/>
				<polygon class="st42" points="153.4,509.7 156.9,499.7 160.4,509.7 				"/>
				<polygon class="st44" points="153.4,509.7 156.9,499.7 160.4,509.7 				"/>
				<path class="st44" d="M213.6,538c-9.9-9.9-23-23-34.2-34.2"/>
				<polygon class="st42" points="176.7,506.1 172.1,496.6 181.7,501.2 				"/>
				<polygon class="st44" points="176.7,506.1 172.1,496.6 181.7,501.2 				"/>
			</g>
		</g>
	</g>
	<text transform="matrix(1 0 0 1 90.015 460.3094)" class="st17 st18">vii</text>
	<text transform="matrix(1 0 0 1 271.7087 460.3094)" class="st17 st18">viii</text>
</g>
<g>
	<g>
		<g class="st3">
			<g>
				<defs>
					<rect id="SVGID_15_" x="256.7" y="423.3" width="278" height="283"/>
				</defs>
				<clipPath id="SVGID_16_">
					<use xlink:href="#SVGID_15_"  style="overflow:visible;"/>
				</clipPath>
				<rect x="292.7" y="459.3" class="st46" width="206" height="211"/>
				<path class="st47" d="M350.7,625.3c0,9.9-12.1,18-27,18s-27-8.1-27-18c0-9.9,12.1-18,27-18S350.7,615.4,350.7,625.3"/>
				<g class="st48">
					<text transform="matrix(1 0 0 1 319.1613 628.416)" class="st9 st2">A</text>
				</g>
				<path class="st49" d="M422.7,553.3c0,9.9-12.1,18-27,18s-27-8.1-27-18c0-9.9,12.1-18,27-18S422.7,543.4,422.7,553.3"/>
				<g class="st48">
					<text transform="matrix(1 0 0 1 391.1613 556.416)" class="st9 st2">D</text>
				</g>
				<path class="st49" d="M338.9,610c9.9-9.9,23-23,34.2-34.2"/>
				<polygon class="st48" points="370.9,573.2 380.4,568.6 375.8,578.1 				"/>
				<polygon class="st49" points="370.9,573.2 380.4,568.6 375.8,578.1 				"/>
				<path class="st47" d="M422.7,625.3c0,9.9-12.1,18-27,18s-27-8.1-27-18c0-9.9,12.1-18,27-18S422.7,615.4,422.7,625.3"/>
				<g class="st48">
					<text transform="matrix(1 0 0 1 391.1613 628.416)" class="st9 st2">B</text>
				</g>
				<path class="st49" d="M395.7,607.1c0-7.7,0-16.9,0-25.4"/>
				<polygon class="st48" points="392.2,581.7 395.7,571.7 399.2,581.7 				"/>
				<polygon class="st49" points="392.2,581.7 395.7,571.7 399.2,581.7 				"/>
				<path class="st47" d="M494.7,625.3c0,9.9-12.1,18-27,18s-27-8.1-27-18c0-9.9,12.1-18,27-18S494.7,615.4,494.7,625.3"/>
				<g class="st48">
					<text transform="matrix(1 0 0 1 463.1613 628.416)" class="st9 st2">C</text>
				</g>
				<path class="st49" d="M452.4,610c-9.9-9.9-23-23-34.2-34.2"/>
				<polygon class="st48" points="415.5,578.1 410.9,568.6 420.5,573.2 				"/>
				<polygon class="st49" points="415.5,578.1 410.9,568.6 420.5,573.2 				"/>
				<path class="st50" d="M350.7,481.3c0,9.9-12.1,18-27,18s-27-8.1-27-18s12.1-18,27-18S350.7,471.4,350.7,481.3"/>
				<g class="st48">
					<text transform="matrix(1 0 0 1 319.1613 484.416)" class="st9 st2">E</text>
				</g>
				<path class="st49" d="M380.4,538c-9.9-9.9-23-23-34.2-34.2"/>
				<polygon class="st48" points="343.5,506.1 338.9,496.6 348.5,501.2 				"/>
				<polygon class="st49" points="343.5,506.1 338.9,496.6 348.5,501.2 				"/>
				<path class="st50" d="M422.7,481.3c0,9.9-12.1,18-27,18s-27-8.1-27-18s12.1-18,27-18S422.7,471.4,422.7,481.3"/>
				<g class="st48">
					<text transform="matrix(1 0 0 1 391.6613 484.416)" class="st9 st2">F</text>
				</g>
				<path class="st49" d="M395.7,535.1c0-7.7,0-16.9,0-25.4"/>
				<polygon class="st48" points="392.2,509.7 395.7,499.7 399.2,509.7 				"/>
				<polygon class="st49" points="392.2,509.7 395.7,499.7 399.2,509.7 				"/>
				<path class="st50" d="M494.7,481.3c0,9.9-12.1,18-27,18s-27-8.1-27-18s12.1-18,27-18S494.7,471.4,494.7,481.3"/>
				<g class="st48">
					<text transform="matrix(1 0 0 1 462.6613 484.416)" class="st9 st2">G</text>
				</g>
				<path class="st49" d="M410.9,538c9.9-9.9,23-23,34.2-34.2"/>
				<polygon class="st48" points="442.9,501.2 452.4,496.6 447.8,506.1 				"/>
				<polygon class="st49" points="442.9,501.2 452.4,496.6 447.8,506.1 				"/>
				<g class="st48">
					<text transform="matrix(1 0 0 1 337.2222 661.285)" class="st6 st7">[{A,B,C},D,{E,F,G}]</text>
				</g>
			</g>
		</g>
	</g>
	<text transform="matrix(1 0 0 1 598.5674 460.3094)" class="st17 st18">ix</text>
</g>
<g>
	<g>
		<defs>
			<rect id="SVGID_17_" x="497.1" y="414.5" width="310" height="298"/>
		</defs>
		<clipPath id="SVGID_18_">
			<use xlink:href="#SVGID_17_"  style="overflow:visible;"/>
		</clipPath>
		<g class="st51">
			<text transform="matrix(1 0 0 1 606.0312 651.681)" class="st52 st39">icomp={B,C,D}</text>
		</g>
		<g class="st51">
			<text transform="matrix(1 0 0 1 600.1592 665.681)" class="st52 st39">[A, {icomp}, {E}]</text>
		</g>
		<rect x="545.1" y="518.5" class="st53" width="214" height="74"/>
		<g class="st51">
			<text transform="matrix(1 0 0 1 634.5918 585.681)" class="st52 st39">icomp</text>
		</g>
		<ellipse class="st54" cx="652.1" cy="618.5" rx="27" ry="18"/>
		<g class="st51">
			<text transform="matrix(1 0 0 1 648.0864 621.1815)" class="st9 st2">A</text>
		</g>
		<ellipse class="st55" cx="724.1" cy="544.5" rx="27" ry="18"/>
		<g class="st51">
			<text transform="matrix(1 0 0 1 719.7554 547.1815)" class="st9 st2">D</text>
		</g>
		<path class="st53" d="M671.6,606c5.6-4,11.5-8.7,16.5-13.5c6.8-6.7,13.4-14.8,19-22.4"/>
		<polygon class="st51" points="704.6,567.6 713.2,561.5 710.3,571.7 		"/>
		<polygon class="st53" points="704.6,567.6 713.2,561.5 710.3,571.7 		"/>
		<ellipse class="st55" cx="652.1" cy="544.5" rx="27" ry="18"/>
		<g class="st51">
			<text transform="matrix(1 0 0 1 647.7554 547.1815)" class="st9 st2">C</text>
		</g>
		<path class="st53" d="M652.1,600.2c0-8.2,0-18.2,0-27.3"/>
		<polygon class="st51" points="648.6,572.6 652.1,562.6 655.6,572.6 		"/>
		<polygon class="st53" points="648.6,572.6 652.1,562.6 655.6,572.6 		"/>
		<ellipse class="st55" cx="580.1" cy="544.5" rx="27" ry="18"/>
		<g class="st51">
			<text transform="matrix(1 0 0 1 576.0864 547.1815)" class="st9 st2">B</text>
		</g>
		<path class="st53" d="M632.6,606c-5.6-4-11.5-8.7-16.5-13.5c-6.8-6.7-13.4-14.8-19-22.4"/>
		<polygon class="st51" points="593.9,571.7 591,561.5 599.6,567.6 		"/>
		<polygon class="st53" points="593.9,571.7 591,561.5 599.6,567.6 		"/>
		<ellipse class="st56" cx="652.1" cy="472.5" rx="27" ry="18"/>
		<g class="st51">
			<text transform="matrix(1 0 0 1 648.0864 475.1815)" class="st9 st2">E</text>
		</g>
		<path class="st53" d="M708.8,529.2c-9.9-9.9-23-23-34.2-34.2"/>
		<polygon class="st51" points="671.9,497.3 667.3,487.7 676.9,492.3 		"/>
		<polygon class="st53" points="671.9,497.3 667.3,487.7 676.9,492.3 		"/>
		<path class="st53" d="M652.1,526.3c0-7.7,0-16.9,0-25.4"/>
		<polygon class="st51" points="648.6,500.9 652.1,490.9 655.6,500.9 		"/>
		<polygon class="st53" points="648.6,500.9 652.1,490.9 655.6,500.9 		"/>
		<path class="st53" d="M595.4,529.2c9.9-9.9,23-23,34.2-34.2"/>
		<polygon class="st51" points="627.3,492.3 636.8,487.7 632.2,497.3 		"/>
		<polygon class="st53" points="627.3,492.3 636.8,487.7 632.2,497.3 		"/>
	</g>
</g>
</svg>
