<?xml version="1.0" encoding="UTF-8" standalone="no"?>
<svg
   xmlns:dc="http://purl.org/dc/elements/1.1/"
   xmlns:cc="http://creativecommons.org/ns#"
   xmlns:rdf="http://www.w3.org/1999/02/22-rdf-syntax-ns#"
   xmlns:svg="http://www.w3.org/2000/svg"
   xmlns="http://www.w3.org/2000/svg"
   viewBox="0 0 816 1056"
   height="1056"
   width="816"
   xml:space="preserve"
   id="svg2"
   version="1.1"><metadata
     id="metadata8"><rdf:RDF><cc:Work
         rdf:about=""><dc:format>image/svg+xml</dc:format><dc:type
           rdf:resource="http://purl.org/dc/dcmitype/StillImage" /></cc:Work></rdf:RDF></metadata><defs
     id="defs6"><clipPath
       id="clipPath20"
       clipPathUnits="userSpaceOnUse"><path
         id="path18"
         d="M 0,224 H 612 V 568 H 0 Z" /></clipPath></defs><g
     transform="matrix(1.3333333,0,0,-1.3333333,0,1056)"
     id="g10"><g
       id="g12" /><g
       id="g14"><g
         clip-path="url(#clipPath20)"
         id="g16"><g
           transform="matrix(1.728814,0,0,1.728814,69.15254,293.1525)"
           id="g22"><path
             id="path24"
             style="fill:none;stroke:#00ff00;stroke-width:3;stroke-linecap:butt;stroke-linejoin:round;stroke-miterlimit:1;stroke-dasharray:none;stroke-opacity:1"
             d="M 54,18 C 54,27.94113 41.91169,36 27,36 12.08831,36 0,27.94113 0,18 0,8.058875 12.08831,0 27,0 41.91169,0 54,8.058875 54,18 Z" /></g><g
           transform="matrix(1.728814,0,0,1.728814,69.15254,293.1525)"
           id="g26"><text
             id="text30"
             style="font-variant:normal;font-weight:normal;font-size:12px;font-family:ArialMT;-inkscape-font-specification:ArialMT;writing-mode:lr-tb;fill:#000000;fill-opacity:1;fill-rule:nonzero;stroke:none"
             transform="matrix(1,0,0,-1,22.99805,15.29941)"><tspan
               id="tspan28"
               y="0"
               x="0">A</tspan></text>
</g><g
           transform="matrix(1.728814,0,0,1.728814,69.15254,293.1525)"
           id="g32"><path
             id="path34"
             style="fill:none;stroke:#ff0000;stroke-width:3;stroke-linecap:butt;stroke-linejoin:round;stroke-miterlimit:1;stroke-dasharray:none;stroke-opacity:1"
             d="m 54,101.499 c 0,9.9411 -12.08831,18 -27,18 -14.91169,0 -27,-8.0589 -27,-18 0,-9.9411 12.08831,-17.99998 27,-17.99998 14.91169,0 27,8.05888 27,17.99998 z" /></g><g
           transform="matrix(1.728814,0,0,1.728814,69.15254,293.1525)"
           id="g36"><text
             id="text40"
             style="font-variant:normal;font-weight:normal;font-size:12px;font-family:ArialMT;-inkscape-font-specification:ArialMT;writing-mode:lr-tb;fill:#000000;fill-opacity:1;fill-rule:nonzero;stroke:none"
             transform="matrix(1,0,0,-1,22.99805,98.79844)"><tspan
               id="tspan38"
               y="0"
               x="0">B</tspan></text>
</g><g
           transform="matrix(1.728814,0,0,1.728814,69.15254,293.1525)"
           id="g42"><path
             id="path44"
             style="fill:none;stroke:#000000;stroke-width:1;stroke-linecap:butt;stroke-linejoin:round;stroke-miterlimit:1;stroke-dasharray:none;stroke-opacity:1"
             d="m 27,36.28385 c 0,10.69715 0,24.66699 0,36.84403" /></g><g
           transform="matrix(1.728814,0,0,1.728814,69.15254,293.1525)"
           id="g46"><path
             id="path48"
             style="fill:#000000;fill-opacity:1;fill-rule:nonzero;stroke:#000000;stroke-width:1;stroke-linecap:butt;stroke-linejoin:round;stroke-miterlimit:1;stroke-dasharray:none;stroke-opacity:1"
             d="M 23.5001,73.24006 27,83.24009 30.5001,73.24013 Z" /></g><g
           transform="matrix(1.728814,0,0,1.728814,69.15254,293.1525)"
           id="g50"><text
             id="text54"
             style="font-variant:normal;font-weight:normal;font-size:10px;font-family:ArialMT;-inkscape-font-specification:ArialMT;writing-mode:lr-tb;fill:#000000;fill-opacity:1;fill-rule:nonzero;stroke:none"
             transform="matrix(1,0,0,-1,27,57.49902)"><tspan
               id="tspan52"
               y="0"
               x="0 3.3299999 10 13.33 18.892 23.892 29.454 34.453999 39.453999 41.675999 47.237999 52.799999 61.130001 66.692001 71.692001 77.253998 82.816002 88.377998 90.599998 95.599998 103.93 106.157 112.827 116.157 118.935 121.713 127.275 130.05299 133.383 140.05299 143.383 148.94501 153.94501 159.507 164.507 169.507 171.729 177.291 182.853 191.183 196.745 201.745 207.30701 212.869 218.431 220.653 225.653 233.983 236.761 243.431">(ProcessingMechanism A) to (ProcessingMechanism B)</tspan></text>
</g></g></g></g></svg>