<?xml version="1.0" encoding="UTF-8" standalone="no"?>
<svg
   xmlns:dc="http://purl.org/dc/elements/1.1/"
   xmlns:cc="http://creativecommons.org/ns#"
   xmlns:rdf="http://www.w3.org/1999/02/22-rdf-syntax-ns#"
   xmlns:svg="http://www.w3.org/2000/svg"
   xmlns="http://www.w3.org/2000/svg"
   viewBox="0 0 816 1056"
   height="1056"
   width="816"
   xml:space="preserve"
   id="svg2"
   version="1.1"><metadata
     id="metadata8"><rdf:RDF><cc:Work
         rdf:about=""><dc:format>image/svg+xml</dc:format><dc:type
           rdf:resource="http://purl.org/dc/dcmitype/StillImage" /></cc:Work></rdf:RDF></metadata><defs
     id="defs6"><clipPath
       id="clipPath20"
       clipPathUnits="userSpaceOnUse"><path
         id="path18"
         d="M 0,40 H 612 V 752 H 0 Z" /></clipPath></defs><g
     transform="matrix(1.3333333,0,0,-1.3333333,0,1056)"
     id="g10"><g
       id="g12" /><g
       id="g14"><g
         clip-path="url(#clipPath20)"
         id="g16"><g
           transform="matrix(1.640751,0,0,1.640751,65.63003,105.63)"
           id="g22"><path
             id="path24"
             style="fill:none;stroke:#00ff00;stroke-width:3;stroke-linecap:butt;stroke-linejoin:round;stroke-miterlimit:1;stroke-dasharray:none;stroke-opacity:1"
             d="M 0,0.5 V 158.8906 H 292.7109 V 0.5 Z" /></g><g
           transform="matrix(1.640751,0,0,1.640751,65.63003,105.63)"
           id="g26"><text
             id="text30"
             style="font-variant:normal;font-weight:normal;font-size:12px;font-family:ArialMT;-inkscape-font-specification:ArialMT;writing-mode:lr-tb;fill:#000000;fill-opacity:1;fill-rule:nonzero;stroke:none"
             transform="matrix(1,0,0,-1,108.5,145.2906)"><tspan
               id="tspan28"
               y="0"
               x="0 9.3336 16.007999 19.3416 26.016001 32.690399 36.023998 44.028 47.361599 54.035999 57.369598 64.043999 68.040001">OutputState-0</tspan></text>
</g><g
           transform="matrix(1.640751,0,0,1.640751,65.63003,105.63)"
           id="g32"><path
             id="path34"
             style="fill:none;stroke:#00ff00;stroke-width:3;stroke-linecap:butt;stroke-linejoin:round;stroke-miterlimit:1;stroke-dasharray:none;stroke-opacity:1"
             d="M 0,137.0918 H 292.7109" /></g><g
           transform="matrix(1.640751,0,0,1.640751,65.63003,105.63)"
           id="g36"><text
             id="text40"
             style="font-variant:normal;font-weight:normal;font-size:12px;font-family:ArialMT;-inkscape-font-specification:ArialMT;writing-mode:lr-tb;fill:#000000;fill-opacity:1;fill-rule:nonzero;stroke:none"
             transform="matrix(1,0,0,-1,54.63574,123.4918)"><tspan
               id="tspan38"
               y="0"
               x="0 3.3336 10.0032 16.6728 23.3424 30.011999 36.681599 43.3512 140.0256 146.69521 153.36481 160.03439 166.70399 173.3736 180.0432">\______ ______/</tspan></text>
</g><g
           transform="matrix(1.640751,0,0,1.640751,65.63003,105.63)"
           id="g42"><text
             id="text46"
             style="font-variant:normal;font-weight:normal;font-size:12px;font-family:ArialMT;-inkscape-font-specification:ArialMT;writing-mode:lr-tb;fill:#000000;fill-opacity:1;fill-rule:nonzero;stroke:none"
             transform="matrix(1,0,0,-1,97.57617,109.693)"><tspan
               id="tspan44"
               y="0"
               x="0 9.3336 18 25.329599 33.333599 42 49.329601 57.333599 63.7728 70.886398 78.216003 86.220001 94.223999">OUTPUTSTATES </tspan></text>
</g><g
           transform="matrix(1.640751,0,0,1.640751,65.63003,105.63)"
           id="g48"><path
             id="path50"
             style="fill:none;stroke:#00ff00;stroke-width:3;stroke-linecap:butt;stroke-linejoin:round;stroke-miterlimit:1;stroke-dasharray:none;stroke-opacity:1"
             d="M 0,101.4941 H 292.7109" /></g><g
           transform="matrix(1.640751,0,0,1.640751,65.63003,105.63)"
           id="g52"><text
             id="text56"
             style="font-variant:normal;font-weight:normal;font-size:12px;font-family:ArialMT;-inkscape-font-specification:ArialMT;writing-mode:lr-tb;fill:#000000;fill-opacity:1;fill-rule:nonzero;stroke:none"
             transform="matrix(1,0,0,-1,8,83.89414)"><tspan
               id="tspan54"
               y="0"
               x="0 9.9960003 18 26.666401 35.332802 43.3368 52.003201 55.3368 63.340801 73.3368">MECHANISM:</tspan></text>
</g><g
           transform="matrix(1.640751,0,0,1.640751,65.63003,105.63)"
           id="g58"><text
             id="text62"
             style="font-variant:normal;font-weight:normal;font-size:12px;font-family:ArialMT;-inkscape-font-specification:ArialMT;writing-mode:lr-tb;fill:#000000;fill-opacity:1;fill-rule:nonzero;stroke:none"
             transform="matrix(1,0,0,-1,42.33301,70.09531)"><tspan
               id="tspan60"
               y="0"
               x="0">A</tspan></text>
</g><g
           transform="matrix(1.640751,0,0,1.640751,65.63003,105.63)"
           id="g64"><path
             id="path66"
             style="fill:none;stroke:#00ff00;stroke-width:3;stroke-linecap:butt;stroke-linejoin:round;stroke-miterlimit:1;stroke-dasharray:none;stroke-opacity:1"
             d="M 92.66992,57.89648 V 101.4941" /></g><g
           transform="matrix(1.640751,0,0,1.640751,65.63003,105.63)"
           id="g68"><text
             id="text72"
             style="font-variant:normal;font-weight:normal;font-size:12px;font-family:ArialMT;-inkscape-font-specification:ArialMT;writing-mode:lr-tb;fill:#000000;fill-opacity:1;fill-rule:nonzero;stroke:none"
             transform="matrix(1,0,0,-1,100.6699,76.99473)"><tspan
               id="tspan70"
               y="0"
               x="0 7.1135998 15.1176 23.784 31.788 41.784 49.787998 57.117599 65.121597 73.788002 81.792 88.231201 95.344803 102.6744 110.6784 118.6824">PARAMETERSTATES:</tspan></text>
</g><g
           transform="matrix(1.640751,0,0,1.640751,65.63003,105.63)"
           id="g74"><path
             id="path76"
             style="fill:none;stroke:#00ff00;stroke-width:3;stroke-linecap:butt;stroke-linejoin:round;stroke-miterlimit:1;stroke-dasharray:none;stroke-opacity:1"
             d="M 230.6855,57.89648 V 101.4941" /></g><g
           transform="matrix(1.640751,0,0,1.640751,65.63003,105.63)"
           id="g78"><text
             id="text82"
             style="font-variant:normal;font-weight:normal;font-size:12px;font-family:ArialMT;-inkscape-font-specification:ArialMT;writing-mode:lr-tb;fill:#000000;fill-opacity:1;fill-rule:nonzero;stroke:none"
             transform="matrix(1,0,0,-1,238.6855,87.89414)"><tspan
               id="tspan80"
               y="0"
               x="0 2.6664 9.3408003 12.6744 19.348801 23.344801 29.344801 36.019199 42.6936">intercept</tspan></text>
</g><g
           transform="matrix(1.640751,0,0,1.640751,65.63003,105.63)"
           id="g84"><path
             id="path86"
             style="fill:none;stroke:#00ff00;stroke-width:3;stroke-linecap:butt;stroke-linejoin:round;stroke-miterlimit:1;stroke-dasharray:none;stroke-opacity:1"
             d="m 230.6855,79.69531 h 62.0254" /></g><g
           transform="matrix(1.640751,0,0,1.640751,65.63003,105.63)"
           id="g88"><text
             id="text92"
             style="font-variant:normal;font-weight:normal;font-size:12px;font-family:ArialMT;-inkscape-font-specification:ArialMT;writing-mode:lr-tb;fill:#000000;fill-opacity:1;fill-rule:nonzero;stroke:none"
             transform="matrix(1,0,0,-1,247.3545,66.09531)"><tspan
               id="tspan90"
               y="0"
               x="0 6 8.6664 15.3408 22.0152">slope</tspan></text>
</g><g
           transform="matrix(1.640751,0,0,1.640751,65.63003,105.63)"
           id="g94"><path
             id="path96"
             style="fill:none;stroke:#00ff00;stroke-width:3;stroke-linecap:butt;stroke-linejoin:round;stroke-miterlimit:1;stroke-dasharray:none;stroke-opacity:1"
             d="M 0,57.89648 H 292.7109" /></g><g
           transform="matrix(1.640751,0,0,1.640751,65.63003,105.63)"
           id="g98"><text
             id="text102"
             style="font-variant:normal;font-weight:normal;font-size:12px;font-family:ArialMT;-inkscape-font-specification:ArialMT;writing-mode:lr-tb;fill:#000000;fill-opacity:1;fill-rule:nonzero;stroke:none"
             transform="matrix(1,0,0,-1,65.86523,44.29648)"><tspan
               id="tspan100"
               y="0"
               x="0 6.6743999 13.3488 20.023199 26.697599 33.372002 40.046398 43.380001 52.046398 60.0504 68.716797 76.046402 84.0504 90.489601 97.603203 104.9328 112.9368 120.9408 127.6152 134.2896 140.964 147.6384 154.31281">______INPUTSTATES______</tspan></text>
</g><g
           transform="matrix(1.640751,0,0,1.640751,65.63003,105.63)"
           id="g104"><text
             id="text108"
             style="font-variant:normal;font-weight:normal;font-size:12px;font-family:ArialMT;-inkscape-font-specification:ArialMT;writing-mode:lr-tb;fill:#000000;fill-opacity:1;fill-rule:nonzero;stroke:none"
             transform="matrix(1,0,0,-1,61.33887,30.49766)"><tspan
               id="tspan106"
               y="0"
               x="0 3.3336 163.34641 166.67999">/ \ </tspan></text>
</g><g
           transform="matrix(1.640751,0,0,1.640751,65.63003,105.63)"
           id="g110"><path
             id="path112"
             style="fill:none;stroke:#00ff00;stroke-width:3;stroke-linecap:butt;stroke-linejoin:round;stroke-miterlimit:1;stroke-dasharray:none;stroke-opacity:1"
             d="M 0,22.29883 H 292.7109" /></g><g
           transform="matrix(1.640751,0,0,1.640751,65.63003,105.63)"
           id="g114"><text
             id="text118"
             style="font-variant:normal;font-weight:normal;font-size:12px;font-family:ArialMT;-inkscape-font-specification:ArialMT;writing-mode:lr-tb;fill:#000000;fill-opacity:1;fill-rule:nonzero;stroke:none"
             transform="matrix(1,0,0,-1,113.5,8.698828)"><tspan
               id="tspan116"
               y="0"
               x="0 3.3336 10.008 16.6824 23.3568 26.690399 34.694401 38.028 44.7024 48.035999 54.7104 58.706402">InputPort-0</tspan></text>
</g><g
           transform="matrix(1.640751,0,0,1.640751,65.63003,105.63)"
           id="g120"><path
             id="path122"
             style="fill:none;stroke:#ff0000;stroke-width:3;stroke-linecap:butt;stroke-linejoin:round;stroke-miterlimit:1;stroke-dasharray:none;stroke-opacity:1"
             d="M 0,195.8906 V 354.2812 H 292.7109 V 195.8906 Z" /></g><g
           transform="matrix(1.640751,0,0,1.640751,65.63003,105.63)"
           id="g124"><text
             id="text128"
             style="font-variant:normal;font-weight:normal;font-size:12px;font-family:ArialMT;-inkscape-font-specification:ArialMT;writing-mode:lr-tb;fill:#000000;fill-opacity:1;fill-rule:nonzero;stroke:none"
             transform="matrix(1,0,0,-1,108.5,340.6812)"><tspan
               id="tspan126"
               y="0"
               x="0 9.3336 16.007999 19.3416 26.016001 32.690399 36.023998 44.028 47.361599 54.035999 57.369598 64.043999 68.040001">OutputState-0</tspan></text>
</g><g
           transform="matrix(1.640751,0,0,1.640751,65.63003,105.63)"
           id="g130"><path
             id="path132"
             style="fill:none;stroke:#ff0000;stroke-width:3;stroke-linecap:butt;stroke-linejoin:round;stroke-miterlimit:1;stroke-dasharray:none;stroke-opacity:1"
             d="M 0,332.4824 H 292.7109" /></g><g
           transform="matrix(1.640751,0,0,1.640751,65.63003,105.63)"
           id="g134"><text
             id="text138"
             style="font-variant:normal;font-weight:normal;font-size:12px;font-family:ArialMT;-inkscape-font-specification:ArialMT;writing-mode:lr-tb;fill:#000000;fill-opacity:1;fill-rule:nonzero;stroke:none"
             transform="matrix(1,0,0,-1,54.63574,318.8824)"><tspan
               id="tspan136"
               y="0"
               x="0 3.3336 10.0032 16.6728 23.3424 30.011999 36.681599 43.3512 140.0256 146.69521 153.36481 160.03439 166.70399 173.3736 180.0432">\______ ______/</tspan></text>
</g><g
           transform="matrix(1.640751,0,0,1.640751,65.63003,105.63)"
           id="g140"><text
             id="text144"
             style="font-variant:normal;font-weight:normal;font-size:12px;font-family:ArialMT;-inkscape-font-specification:ArialMT;writing-mode:lr-tb;fill:#000000;fill-opacity:1;fill-rule:nonzero;stroke:none"
             transform="matrix(1,0,0,-1,97.57617,305.0836)"><tspan
               id="tspan142"
               y="0"
               x="0 9.3336 18 25.329599 33.333599 42 49.329601 57.333599 63.7728 70.886398 78.216003 86.220001 94.223999">OUTPUTSTATES </tspan></text>
</g><g
           transform="matrix(1.640751,0,0,1.640751,65.63003,105.63)"
           id="g146"><path
             id="path148"
             style="fill:none;stroke:#ff0000;stroke-width:3;stroke-linecap:butt;stroke-linejoin:round;stroke-miterlimit:1;stroke-dasharray:none;stroke-opacity:1"
             d="M 0,296.8848 H 292.7109" /></g><g
           transform="matrix(1.640751,0,0,1.640751,65.63003,105.63)"
           id="g150"><text
             id="text154"
             style="font-variant:normal;font-weight:normal;font-size:12px;font-family:ArialMT;-inkscape-font-specification:ArialMT;writing-mode:lr-tb;fill:#000000;fill-opacity:1;fill-rule:nonzero;stroke:none"
             transform="matrix(1,0,0,-1,8,279.2848)"><tspan
               id="tspan152"
               y="0"
               x="0 9.9960003 18 26.666401 35.332802 43.3368 52.003201 55.3368 63.340801 73.3368">MECHANISM:</tspan></text>
</g><g
           transform="matrix(1.640751,0,0,1.640751,65.63003,105.63)"
           id="g156"><text
             id="text160"
             style="font-variant:normal;font-weight:normal;font-size:12px;font-family:ArialMT;-inkscape-font-specification:ArialMT;writing-mode:lr-tb;fill:#000000;fill-opacity:1;fill-rule:nonzero;stroke:none"
             transform="matrix(1,0,0,-1,42.33301,265.4859)"><tspan
               id="tspan158"
               y="0"
               x="0">B</tspan></text>
</g><g
           transform="matrix(1.640751,0,0,1.640751,65.63003,105.63)"
           id="g162"><path
             id="path164"
             style="fill:none;stroke:#ff0000;stroke-width:3;stroke-linecap:butt;stroke-linejoin:round;stroke-miterlimit:1;stroke-dasharray:none;stroke-opacity:1"
             d="m 92.66992,253.2871 v 43.5977" /></g><g
           transform="matrix(1.640751,0,0,1.640751,65.63003,105.63)"
           id="g166"><text
             id="text170"
             style="font-variant:normal;font-weight:normal;font-size:12px;font-family:ArialMT;-inkscape-font-specification:ArialMT;writing-mode:lr-tb;fill:#000000;fill-opacity:1;fill-rule:nonzero;stroke:none"
             transform="matrix(1,0,0,-1,100.6699,272.3854)"><tspan
               id="tspan168"
               y="0"
               x="0 7.1135998 15.1176 23.784 31.788 41.784 49.787998 57.117599 65.121597 73.788002 81.792 88.231201 95.344803 102.6744 110.6784 118.6824">PARAMETERSTATES:</tspan></text>
</g><g
           transform="matrix(1.640751,0,0,1.640751,65.63003,105.63)"
           id="g172"><path
             id="path174"
             style="fill:none;stroke:#ff0000;stroke-width:3;stroke-linecap:butt;stroke-linejoin:round;stroke-miterlimit:1;stroke-dasharray:none;stroke-opacity:1"
             d="m 230.6855,253.2871 v 43.5977" /></g><g
           transform="matrix(1.640751,0,0,1.640751,65.63003,105.63)"
           id="g176"><text
             id="text180"
             style="font-variant:normal;font-weight:normal;font-size:12px;font-family:ArialMT;-inkscape-font-specification:ArialMT;writing-mode:lr-tb;fill:#000000;fill-opacity:1;fill-rule:nonzero;stroke:none"
             transform="matrix(1,0,0,-1,238.6855,283.2848)"><tspan
               id="tspan178"
               y="0"
               x="0 2.6664 9.3408003 12.6744 19.348801 23.344801 29.344801 36.019199 42.6936">intercept</tspan></text>
</g><g
           transform="matrix(1.640751,0,0,1.640751,65.63003,105.63)"
           id="g182"><path
             id="path184"
             style="fill:none;stroke:#ff0000;stroke-width:3;stroke-linecap:butt;stroke-linejoin:round;stroke-miterlimit:1;stroke-dasharray:none;stroke-opacity:1"
             d="m 230.6855,275.0859 h 62.0254" /></g><g
           transform="matrix(1.640751,0,0,1.640751,65.63003,105.63)"
           id="g186"><text
             id="text190"
             style="font-variant:normal;font-weight:normal;font-size:12px;font-family:ArialMT;-inkscape-font-specification:ArialMT;writing-mode:lr-tb;fill:#000000;fill-opacity:1;fill-rule:nonzero;stroke:none"
             transform="matrix(1,0,0,-1,247.3545,261.4859)"><tspan
               id="tspan188"
               y="0"
               x="0 6 8.6664 15.3408 22.0152">slope</tspan></text>
</g><g
           transform="matrix(1.640751,0,0,1.640751,65.63003,105.63)"
           id="g192"><path
             id="path194"
             style="fill:none;stroke:#ff0000;stroke-width:3;stroke-linecap:butt;stroke-linejoin:round;stroke-miterlimit:1;stroke-dasharray:none;stroke-opacity:1"
             d="M 0,253.2871 H 292.7109" /></g><g
           transform="matrix(1.640751,0,0,1.640751,65.63003,105.63)"
           id="g196"><text
             id="text200"
             style="font-variant:normal;font-weight:normal;font-size:12px;font-family:ArialMT;-inkscape-font-specification:ArialMT;writing-mode:lr-tb;fill:#000000;fill-opacity:1;fill-rule:nonzero;stroke:none"
             transform="matrix(1,0,0,-1,65.86523,239.6871)"><tspan
               id="tspan198"
               y="0"
               x="0 6.6743999 13.3488 20.023199 26.697599 33.372002 40.046398 43.380001 52.046398 60.0504 68.716797 76.046402 84.0504 90.489601 97.603203 104.9328 112.9368 120.9408 127.6152 134.2896 140.964 147.6384 154.31281">______INPUTSTATES______</tspan></text>
</g><g
           transform="matrix(1.640751,0,0,1.640751,65.63003,105.63)"
           id="g202"><text
             id="text206"
             style="font-variant:normal;font-weight:normal;font-size:12px;font-family:ArialMT;-inkscape-font-specification:ArialMT;writing-mode:lr-tb;fill:#000000;fill-opacity:1;fill-rule:nonzero;stroke:none"
             transform="matrix(1,0,0,-1,61.33887,225.8883)"><tspan
               id="tspan204"
               y="0"
               x="0 3.3336 163.34641 166.67999">/ \ </tspan></text>
</g><g
           transform="matrix(1.640751,0,0,1.640751,65.63003,105.63)"
           id="g208"><path
             id="path210"
             style="fill:none;stroke:#ff0000;stroke-width:3;stroke-linecap:butt;stroke-linejoin:round;stroke-miterlimit:1;stroke-dasharray:none;stroke-opacity:1"
             d="M 0,217.6895 H 292.7109" /></g><g
           transform="matrix(1.640751,0,0,1.640751,65.63003,105.63)"
           id="g212"><text
             id="text216"
             style="font-variant:normal;font-weight:normal;font-size:12px;font-family:ArialMT;-inkscape-font-specification:ArialMT;writing-mode:lr-tb;fill:#000000;fill-opacity:1;fill-rule:nonzero;stroke:none"
             transform="matrix(1,0,0,-1,113.5,204.0895)"><tspan
               id="tspan214"
               y="0"
               x="0 3.3336 10.008 16.6824 23.3568 26.690399 34.694401 38.028 44.7024 48.035999 54.7104 58.706402">InputPort-0</tspan></text>
</g><g
           transform="matrix(1.640751,0,0,1.640751,65.63003,105.63)"
           id="g218"><path
             id="path220"
             style="fill:none;stroke:#000000;stroke-width:1;stroke-linecap:butt;stroke-linejoin:round;stroke-miterlimit:1;stroke-dasharray:none;stroke-opacity:1"
             d="m 146.3555,159.3906 c 0,12 0,17.25 0,25.875" /></g><g
           transform="matrix(1.640751,0,0,1.640751,65.63003,105.63)"
           id="g222"><path
             id="path224"
             style="fill:#000000;fill-opacity:1;fill-rule:nonzero;stroke:#000000;stroke-width:1;stroke-linecap:butt;stroke-linejoin:round;stroke-miterlimit:1;stroke-dasharray:none;stroke-opacity:1"
             d="m 142.8556,185.3906 3.4999,10 3.5001,-9.9999 z" /></g></g></g></g></svg>