<?xml version="1.0" encoding="UTF-8" standalone="no"?>
<!-- Created with Inkscape (http://www.inkscape.org/) -->

<svg
   xmlns:dc="http://purl.org/dc/elements/1.1/"
   xmlns:cc="http://creativecommons.org/ns#"
   xmlns:rdf="http://www.w3.org/1999/02/22-rdf-syntax-ns#"
   xmlns:svg="http://www.w3.org/2000/svg"
   xmlns="http://www.w3.org/2000/svg"
   xmlns:sodipodi="http://sodipodi.sourceforge.net/DTD/sodipodi-0.dtd"
   xmlns:inkscape="http://www.inkscape.org/namespaces/inkscape"
   version="1.1"
   id="svg4241"
   xml:space="preserve"
   width="274.66666"
   height="250.66667"
   viewBox="0 0 274.66666 250.66667"
   sodipodi:docname="show_graph_basic.svg"
   inkscape:version="0.92.4 (5da689c313, 2019-01-14)"><metadata
     id="metadata4247"><rdf:RDF><cc:Work
         rdf:about=""><dc:format>image/svg+xml</dc:format><dc:type
           rdf:resource="http://purl.org/dc/dcmitype/StillImage" /><dc:title></dc:title></cc:Work></rdf:RDF></metadata><defs
     id="defs4245" /><sodipodi:namedview
     pagecolor="#ffffff"
     bordercolor="#666666"
     borderopacity="1"
     objecttolerance="10"
     gridtolerance="10"
     guidetolerance="10"
     inkscape:pageopacity="0"
     inkscape:pageshadow="2"
     inkscape:window-width="640"
     inkscape:window-height="480"
     id="namedview4243"
     showgrid="false"
     inkscape:zoom="3.199468"
     inkscape:cx="137.33333"
     inkscape:cy="125.33334"
     inkscape:window-x="0"
     inkscape:window-y="0"
     inkscape:window-maximized="0"
     inkscape:current-layer="g4249" /><g
     id="g4249"
     inkscape:groupmode="layer"
     inkscape:label="show_graph_basic"
     transform="matrix(1.3333333,0,0,-1.3333333,0,250.66667)"><g
       id="g4251"><path
         d="M 36,152 H 170 V 36 H 36 Z"
         style="fill:#ffffff;fill-opacity:1;fill-rule:nonzero;stroke:none"
         id="path4253"
         inkscape:connector-curvature="0" /><path
         d="M 94,58 C 94,48.059 81.91,40 67,40 52.09,40 40,48.059 40,58 c 0,9.941 12.09,18 27,18 14.91,0 27,-8.059 27,-18"
         style="fill:none;stroke:#00ff00;stroke-width:3;stroke-linecap:butt;stroke-linejoin:miter;stroke-miterlimit:10;stroke-dasharray:none;stroke-opacity:1"
         id="path4255"
         inkscape:connector-curvature="0" /><text
         transform="matrix(1,0,0,-1,62.5,54.898438)"
         style="font-variant:normal;font-weight:normal;font-size:12px;font-family:Arial;-inkscape-font-specification:ArialMT;writing-mode:lr-tb;fill:#000000;fill-opacity:1;fill-rule:nonzero;stroke:none"
         id="text4259"><tspan
           x="0"
           y="0"
           id="tspan4257">A</tspan></text>
<path
         d="m 130,130 c 0,-9.941 -12.09,-18 -27,-18 -14.91,0 -27,8.059 -27,18 0,9.941 12.09,18 27,18 14.91,0 27,-8.059 27,-18"
         style="fill:none;stroke:#ff0000;stroke-width:3;stroke-linecap:butt;stroke-linejoin:miter;stroke-miterlimit:10;stroke-dasharray:none;stroke-opacity:1"
         id="path4261"
         inkscape:connector-curvature="0" /><text
         transform="matrix(1,0,0,-1,98.5,126.89844)"
         style="font-variant:normal;font-weight:normal;font-size:12px;font-family:Arial;-inkscape-font-specification:ArialMT;writing-mode:lr-tb;fill:#000000;fill-opacity:1;fill-rule:nonzero;stroke:none"
         id="text4265"><tspan
           x="0"
           y="0"
           id="tspan4263">C</tspan></text>
<path
         d="m 75.715,75.43 c 4.246,8.488 9.437,18.879 14.152,28.304"
         style="fill:none;stroke:#000000;stroke-width:1;stroke-linecap:butt;stroke-linejoin:miter;stroke-miterlimit:10;stroke-dasharray:none;stroke-opacity:1"
         id="path4267"
         inkscape:connector-curvature="0" /><path
         d="m 86.762,105.352 7.605,7.378 -1.344,-10.507 z"
         style="fill:#000000;fill-opacity:1;fill-rule:nonzero;stroke:#000000;stroke-width:1;stroke-linecap:butt;stroke-linejoin:miter;stroke-miterlimit:10;stroke-dasharray:none;stroke-opacity:1"
         id="path4269"
         inkscape:connector-curvature="0" /><path
         d="m 166,58 c 0,-9.941 -12.09,-18 -27,-18 -14.91,0 -27,8.059 -27,18 0,9.941 12.09,18 27,18 14.91,0 27,-8.059 27,-18"
         style="fill:none;stroke:#00ff00;stroke-width:3;stroke-linecap:butt;stroke-linejoin:miter;stroke-miterlimit:10;stroke-dasharray:none;stroke-opacity:1"
         id="path4271"
         inkscape:connector-curvature="0" /><text
         transform="matrix(1,0,0,-1,134.5,54.898438)"
         style="font-variant:normal;font-weight:normal;font-size:12px;font-family:Arial;-inkscape-font-specification:ArialMT;writing-mode:lr-tb;fill:#000000;fill-opacity:1;fill-rule:nonzero;stroke:none"
         id="text4275"><tspan
           x="0"
           y="0"
           id="tspan4273">B</tspan></text>
<path
         d="m 130.285,75.43 c -4.246,8.488 -9.437,18.879 -14.152,28.304"
         style="fill:none;stroke:#000000;stroke-width:1;stroke-linecap:butt;stroke-linejoin:miter;stroke-miterlimit:10;stroke-dasharray:none;stroke-opacity:1"
         id="path4277"
         inkscape:connector-curvature="0" /><path
         d="m 112.977,102.223 -1.344,10.507 7.605,-7.378 z"
         style="fill:#000000;fill-opacity:1;fill-rule:nonzero;stroke:#000000;stroke-width:1;stroke-linecap:butt;stroke-linejoin:miter;stroke-miterlimit:10;stroke-dasharray:none;stroke-opacity:1"
         id="path4279"
         inkscape:connector-curvature="0" /></g></g></svg>