<?xml version="1.0" encoding="UTF-8" standalone="no"?>
<!-- Created with Inkscape (http://www.inkscape.org/) -->

<svg
   xmlns:dc="http://purl.org/dc/elements/1.1/"
   xmlns:cc="http://creativecommons.org/ns#"
   xmlns:rdf="http://www.w3.org/1999/02/22-rdf-syntax-ns#"
   xmlns:svg="http://www.w3.org/2000/svg"
   xmlns="http://www.w3.org/2000/svg"
   xmlns:sodipodi="http://sodipodi.sourceforge.net/DTD/sodipodi-0.dtd"
   xmlns:inkscape="http://www.inkscape.org/namespaces/inkscape"
   version="1.1"
   id="svg3732"
   xml:space="preserve"
   width="468"
   height="624"
   viewBox="0 0 468 624"
   sodipodi:docname="show_graph_show_node_structure.svg"
   inkscape:version="0.92.4 (5da689c313, 2019-01-14)"><metadata
     id="metadata3738"><rdf:RDF><cc:Work
         rdf:about=""><dc:format>image/svg+xml</dc:format><dc:type
           rdf:resource="http://purl.org/dc/dcmitype/StillImage" /><dc:title></dc:title></cc:Work></rdf:RDF></metadata><defs
     id="defs3736" /><sodipodi:namedview
     pagecolor="#ffffff"
     bordercolor="#666666"
     borderopacity="1"
     objecttolerance="10"
     gridtolerance="10"
     guidetolerance="10"
     inkscape:pageopacity="0"
     inkscape:pageshadow="2"
     inkscape:window-width="640"
     inkscape:window-height="480"
     id="namedview3734"
     showgrid="false"
     inkscape:zoom="1.2852564"
     inkscape:cx="234"
     inkscape:cy="312"
     inkscape:window-x="0"
     inkscape:window-y="0"
     inkscape:window-maximized="0"
     inkscape:current-layer="g3740" /><g
     id="g3740"
     inkscape:groupmode="layer"
     inkscape:label="show_graph_show_node_structure"
     transform="matrix(1.3333333,0,0,-1.3333333,0,624)"><g
       id="g3742"><path
         d="M 36,432 H 315 V 36 H 36 Z"
         style="fill:#ffffff;fill-opacity:1;fill-rule:nonzero;stroke:none"
         id="path3744"
         inkscape:connector-curvature="0" /><path
         d="M 48,212 H 303 V 44 H 48 Z"
         style="fill:#fffff0;fill-opacity:1;fill-rule:nonzero;stroke:none"
         id="path3746"
         inkscape:connector-curvature="0" /><path
         d="m 54.5,206 h 243 v -48 h -243 z"
         style="fill:#fafad0;fill-opacity:1;fill-rule:nonzero;stroke:none"
         id="path3748"
         inkscape:connector-curvature="0" /><path
         d="m 58.5,202 h 235 v -21 h -235 z"
         style="fill:#eee8aa;fill-opacity:1;fill-rule:nonzero;stroke:none"
         id="path3750"
         inkscape:connector-curvature="0" /><path
         d="m 59.5,201 h 233 v -19 h -233 z"
         style="fill:none;stroke:#fafad2;stroke-width:2;stroke-linecap:butt;stroke-linejoin:miter;stroke-miterlimit:10;stroke-dasharray:none;stroke-opacity:1"
         id="path3752"
         inkscape:connector-curvature="0" /><text
         transform="matrix(1,0,0,-1,136,189.39844)"
         style="font-variant:normal;font-weight:bold;font-size:12px;font-family:Arial;-inkscape-font-specification:Arial-BoldMT;writing-mode:lr-tb;fill:#000000;fill-opacity:1;fill-rule:nonzero;stroke:none"
         id="text3756"><tspan
           x="0 9.3240004 16.643999 20.639999 27.959999 35.279999 39.276001 47.268002 51.264 57.936001 61.931999 68.603996 72.599998"
           y="0"
           sodipodi:role="line"
           id="tspan3754">OutputState-0</tspan></text>
<text
         transform="matrix(1,0,0,-1,138,166.39843)"
         style="font-style:italic;font-variant:normal;font-weight:bold;font-size:12px;font-family:Arial;-inkscape-font-specification:Arial-BoldItalicMT;writing-mode:lr-tb;fill:#000000;fill-opacity:1;fill-rule:nonzero;stroke:none"
         id="text3762"><tspan
           x="0 9.3240004 16.643999 20.639999 27.959999 35.279999 39.276001 47.268002 51.264 57.936001 61.931999 68.603996"
           y="0"
           sodipodi:role="line"
           id="tspan3758">OutputStates</tspan><tspan
           x="-83.499992 -73.503998 -66.831993 -60.159996 -52.839996 -46.167995 -38.847996 -35.523994 -28.851995"
           y="33"
           sodipodi:role="line"
           id="tspan3760">Mechanism</tspan></text>
<text
         transform="matrix(1,0,0,-1,120.46401,133.39843)"
         style="font-variant:normal;font-weight:bold;font-size:12px;font-family:Arial;-inkscape-font-specification:Arial-BoldMT;writing-mode:lr-tb;fill:#000000;fill-opacity:1;fill-rule:nonzero;stroke:none"
         id="text3766"><tspan
           x="0"
           y="0"
           id="tspan3764">:</tspan></text>
<text
         transform="matrix(1,0,0,-1,83.5,118.19922)"
         style="font-variant:normal;font-weight:bold;font-size:15.99975586px;font-family:Arial;-inkscape-font-specification:Arial-BoldMT;writing-mode:lr-tb;fill:#000000;fill-opacity:1;fill-rule:nonzero;stroke:none"
         id="text3770"><tspan
           x="0"
           y="0"
           id="tspan3768">A</tspan></text>
<path
         d="m 129.5,153 h 168 v -50 h -168 z"
         style="fill:#fafad0;fill-opacity:1;fill-rule:nonzero;stroke:none"
         id="path3772"
         inkscape:connector-curvature="0" /><text
         transform="matrix(1,0,0,-1,133.5,125.89844)"
         style="font-style:italic;font-variant:normal;font-weight:bold;font-size:12px;font-family:Arial;-inkscape-font-specification:Arial-BoldItalicMT;writing-mode:lr-tb;fill:#000000;fill-opacity:1;fill-rule:nonzero;stroke:none"
         id="text3776"><tspan
           x="0 7.9920001 14.664 19.332001 26.004 36.672001 43.344002 47.34 54.012001 58.68 66.671997 70.667999 77.339996 81.335999 88.008003"
           y="0"
           sodipodi:role="line"
           id="tspan3774">ParameterStates</tspan></text>
<path
         d="m 234.5,149 h 59 v -42 h -59 z"
         style="fill:#eee8aa;fill-opacity:1;fill-rule:nonzero;stroke:none"
         id="path3778"
         inkscape:connector-curvature="0" /><path
         d="m 235.5,148 h 57 v -19 h -57 z"
         style="fill:none;stroke:#fafad2;stroke-width:2;stroke-linecap:butt;stroke-linejoin:miter;stroke-miterlimit:10;stroke-dasharray:none;stroke-opacity:1"
         id="path3780"
         inkscape:connector-curvature="0" /><text
         transform="matrix(1,0,0,-1,238.5,136.39844)"
         style="font-variant:normal;font-weight:bold;font-size:12px;font-family:Arial;-inkscape-font-specification:Arial-BoldMT;writing-mode:lr-tb;fill:#000000;fill-opacity:1;fill-rule:nonzero;stroke:none"
         id="text3784"><tspan
           x="0 3.3239999 10.644 14.64 21.312 25.98 32.652 39.324001 46.644001"
           y="0"
           sodipodi:role="line"
           id="tspan3782">intercept</tspan></text>
<path
         d="m 235.5,127 h 57 v -19 h -57 z"
         style="fill:none;stroke:#fafad2;stroke-width:2;stroke-linecap:butt;stroke-linejoin:miter;stroke-miterlimit:10;stroke-dasharray:none;stroke-opacity:1"
         id="path3786"
         inkscape:connector-curvature="0" /><text
         transform="matrix(1,0,0,-1,248,115.39844)"
         style="font-variant:normal;font-weight:bold;font-size:12px;font-family:Arial;-inkscape-font-specification:Arial-BoldMT;writing-mode:lr-tb;fill:#000000;fill-opacity:1;fill-rule:nonzero;stroke:none"
         id="text3790"><tspan
           x="0 6.6719999 9.9960003 17.316 24.636"
           y="0"
           sodipodi:role="line"
           id="tspan3788">slope</tspan></text>
<path
         d="m 54.5,98 h 243 V 50 h -243 z"
         style="fill:#fafad0;fill-opacity:1;fill-rule:nonzero;stroke:none"
         id="path3792"
         inkscape:connector-curvature="0" /><text
         transform="matrix(1,0,0,-1,143,85.398438)"
         style="font-style:italic;font-variant:normal;font-weight:bold;font-size:12px;font-family:Arial;-inkscape-font-specification:Arial-BoldItalicMT;writing-mode:lr-tb;fill:#000000;fill-opacity:1;fill-rule:nonzero;stroke:none"
         id="text3796"><tspan
           x="0 3.3239999 10.644 17.964001 25.284 29.280001 37.271999 41.268002 47.939999 51.936001 58.608002"
           y="0"
           sodipodi:role="line"
           id="tspan3794">InputStates</tspan></text>
<path
         d="m 58.5,75 h 235 V 54 h -235 z"
         style="fill:#eee8aa;fill-opacity:1;fill-rule:nonzero;stroke:none"
         id="path3798"
         inkscape:connector-curvature="0" /><path
         d="m 59.5,74 h 233 V 55 h -233 z"
         style="fill:none;stroke:#fafad2;stroke-width:2;stroke-linecap:butt;stroke-linejoin:miter;stroke-miterlimit:10;stroke-dasharray:none;stroke-opacity:1"
         id="path3800"
         inkscape:connector-curvature="0" /><text
         transform="matrix(1,0,0,-1,141,62.398438)"
         style="font-variant:normal;font-weight:bold;font-size:12px;font-family:Arial;-inkscape-font-specification:Arial-BoldMT;writing-mode:lr-tb;fill:#000000;fill-opacity:1;fill-rule:nonzero;stroke:none"
         id="text3804"><tspan
           x="0 3.3239999 10.644 17.964001 25.284 29.280001 37.271999 41.268002 47.939999 51.936001 58.608002 62.604"
           y="0"
           sodipodi:role="line"
           id="tspan3802">InputState-0</tspan></text>
<path
         d="m 49.5,210.5 h 252 v -165 h -252 z"
         style="fill:none;stroke:#00ff00;stroke-width:3;stroke-linecap:butt;stroke-linejoin:miter;stroke-miterlimit:10;stroke-dasharray:none;stroke-opacity:1"
         id="path3806"
         inkscape:connector-curvature="0" /><path
         d="M 48,424 H 303 V 256 H 48 Z"
         style="fill:#fffff0;fill-opacity:1;fill-rule:nonzero;stroke:none"
         id="path3808"
         inkscape:connector-curvature="0" /><path
         d="m 54.5,418 h 243 v -48 h -243 z"
         style="fill:#fafad0;fill-opacity:1;fill-rule:nonzero;stroke:none"
         id="path3810"
         inkscape:connector-curvature="0" /><path
         d="m 58.5,414 h 235 v -21 h -235 z"
         style="fill:#eee8aa;fill-opacity:1;fill-rule:nonzero;stroke:none"
         id="path3812"
         inkscape:connector-curvature="0" /><path
         d="m 59.5,413 h 233 v -19 h -233 z"
         style="fill:none;stroke:#fafad2;stroke-width:2;stroke-linecap:butt;stroke-linejoin:miter;stroke-miterlimit:10;stroke-dasharray:none;stroke-opacity:1"
         id="path3814"
         inkscape:connector-curvature="0" /><text
         transform="matrix(1,0,0,-1,136,401.39844)"
         style="font-variant:normal;font-weight:bold;font-size:12px;font-family:Arial;-inkscape-font-specification:Arial-BoldMT;writing-mode:lr-tb;fill:#000000;fill-opacity:1;fill-rule:nonzero;stroke:none"
         id="text3818"><tspan
           x="0 9.3240004 16.643999 20.639999 27.959999 35.279999 39.276001 47.268002 51.264 57.936001 61.931999 68.603996 72.599998"
           y="0"
           sodipodi:role="line"
           id="tspan3816">OutputState-0</tspan></text>
<text
         transform="matrix(1,0,0,-1,138,378.39843)"
         style="font-style:italic;font-variant:normal;font-weight:bold;font-size:12px;font-family:Arial;-inkscape-font-specification:Arial-BoldItalicMT;writing-mode:lr-tb;fill:#000000;fill-opacity:1;fill-rule:nonzero;stroke:none"
         id="text3824"><tspan
           x="0 9.3240004 16.643999 20.639999 27.959999 35.279999 39.276001 47.268002 51.264 57.936001 61.931999 68.603996"
           y="0"
           sodipodi:role="line"
           id="tspan3820">OutputStates</tspan><tspan
           x="-83.499992 -73.503998 -66.831993 -60.159996 -52.839996 -46.167995 -38.847996 -35.523994 -28.851995"
           y="33"
           sodipodi:role="line"
           id="tspan3822">Mechanism</tspan></text>
<text
         transform="matrix(1,0,0,-1,120.46401,345.39843)"
         style="font-variant:normal;font-weight:bold;font-size:12px;font-family:Arial;-inkscape-font-specification:Arial-BoldMT;writing-mode:lr-tb;fill:#000000;fill-opacity:1;fill-rule:nonzero;stroke:none"
         id="text3828"><tspan
           x="0"
           y="0"
           id="tspan3826">:</tspan></text>
<text
         transform="matrix(1,0,0,-1,83.5,330.19922)"
         style="font-variant:normal;font-weight:bold;font-size:15.99975586px;font-family:Arial;-inkscape-font-specification:Arial-BoldMT;writing-mode:lr-tb;fill:#000000;fill-opacity:1;fill-rule:nonzero;stroke:none"
         id="text3832"><tspan
           x="0"
           y="0"
           id="tspan3830">B</tspan></text>
<path
         d="m 129.5,365 h 168 v -50 h -168 z"
         style="fill:#fafad0;fill-opacity:1;fill-rule:nonzero;stroke:none"
         id="path3834"
         inkscape:connector-curvature="0" /><text
         transform="matrix(1,0,0,-1,133.5,337.89844)"
         style="font-style:italic;font-variant:normal;font-weight:bold;font-size:12px;font-family:Arial;-inkscape-font-specification:Arial-BoldItalicMT;writing-mode:lr-tb;fill:#000000;fill-opacity:1;fill-rule:nonzero;stroke:none"
         id="text3838"><tspan
           x="0 7.9920001 14.664 19.332001 26.004 36.672001 43.344002 47.34 54.012001 58.68 66.671997 70.667999 77.339996 81.335999 88.008003"
           y="0"
           sodipodi:role="line"
           id="tspan3836">ParameterStates</tspan></text>
<path
         d="m 234.5,361 h 59 v -42 h -59 z"
         style="fill:#eee8aa;fill-opacity:1;fill-rule:nonzero;stroke:none"
         id="path3840"
         inkscape:connector-curvature="0" /><path
         d="m 235.5,360 h 57 v -19 h -57 z"
         style="fill:none;stroke:#fafad2;stroke-width:2;stroke-linecap:butt;stroke-linejoin:miter;stroke-miterlimit:10;stroke-dasharray:none;stroke-opacity:1"
         id="path3842"
         inkscape:connector-curvature="0" /><text
         transform="matrix(1,0,0,-1,238.5,348.39844)"
         style="font-variant:normal;font-weight:bold;font-size:12px;font-family:Arial;-inkscape-font-specification:Arial-BoldMT;writing-mode:lr-tb;fill:#000000;fill-opacity:1;fill-rule:nonzero;stroke:none"
         id="text3846"><tspan
           x="0 3.3239999 10.644 14.64 21.312 25.98 32.652 39.324001 46.644001"
           y="0"
           sodipodi:role="line"
           id="tspan3844">intercept</tspan></text>
<path
         d="m 235.5,339 h 57 v -19 h -57 z"
         style="fill:none;stroke:#fafad2;stroke-width:2;stroke-linecap:butt;stroke-linejoin:miter;stroke-miterlimit:10;stroke-dasharray:none;stroke-opacity:1"
         id="path3848"
         inkscape:connector-curvature="0" /><text
         transform="matrix(1,0,0,-1,248,327.39844)"
         style="font-variant:normal;font-weight:bold;font-size:12px;font-family:Arial;-inkscape-font-specification:Arial-BoldMT;writing-mode:lr-tb;fill:#000000;fill-opacity:1;fill-rule:nonzero;stroke:none"
         id="text3852"><tspan
           x="0 6.6719999 9.9960003 17.316 24.636"
           y="0"
           sodipodi:role="line"
           id="tspan3850">slope</tspan></text>
<path
         d="m 54.5,310 h 243 v -48 h -243 z"
         style="fill:#fafad0;fill-opacity:1;fill-rule:nonzero;stroke:none"
         id="path3854"
         inkscape:connector-curvature="0" /><text
         transform="matrix(1,0,0,-1,143,297.39844)"
         style="font-style:italic;font-variant:normal;font-weight:bold;font-size:12px;font-family:Arial;-inkscape-font-specification:Arial-BoldItalicMT;writing-mode:lr-tb;fill:#000000;fill-opacity:1;fill-rule:nonzero;stroke:none"
         id="text3858"><tspan
           x="0 3.3239999 10.644 17.964001 25.284 29.280001 37.271999 41.268002 47.939999 51.936001 58.608002"
           y="0"
           sodipodi:role="line"
           id="tspan3856">InputStates</tspan></text>
<path
         d="m 58.5,287 h 235 v -21 h -235 z"
         style="fill:#eee8aa;fill-opacity:1;fill-rule:nonzero;stroke:none"
         id="path3860"
         inkscape:connector-curvature="0" /><path
         d="m 59.5,286 h 233 v -19 h -233 z"
         style="fill:none;stroke:#fafad2;stroke-width:2;stroke-linecap:butt;stroke-linejoin:miter;stroke-miterlimit:10;stroke-dasharray:none;stroke-opacity:1"
         id="path3862"
         inkscape:connector-curvature="0" /><text
         transform="matrix(1,0,0,-1,141,274.39844)"
         style="font-variant:normal;font-weight:bold;font-size:12px;font-family:Arial;-inkscape-font-specification:Arial-BoldMT;writing-mode:lr-tb;fill:#000000;fill-opacity:1;fill-rule:nonzero;stroke:none"
         id="text3866"><tspan
           x="0 3.3239999 10.644 17.964001 25.284 29.280001 37.271999 41.268002 47.939999 51.936001 58.608002 62.604"
           y="0"
           sodipodi:role="line"
           id="tspan3864">InputState-0</tspan></text>
<path
         d="m 49.5,422.5 h 252 v -165 h -252 z"
         style="fill:none;stroke:#ff0000;stroke-width:3;stroke-linecap:butt;stroke-linejoin:miter;stroke-miterlimit:10;stroke-dasharray:none;stroke-opacity:1"
         id="path3868"
         inkscape:connector-curvature="0" /><path
         d="m 176.5,202 c 0,24.777 0,33.367 0,53.973"
         style="fill:none;stroke:#000000;stroke-width:1;stroke-linecap:butt;stroke-linejoin:miter;stroke-miterlimit:10;stroke-dasharray:none;stroke-opacity:1"
         id="path3870"
         inkscape:connector-curvature="0" /><path
         d="m 173,256 3.5,10 3.5,-10 z"
         style="fill:#000000;fill-opacity:1;fill-rule:nonzero;stroke:#000000;stroke-width:1;stroke-linecap:butt;stroke-linejoin:miter;stroke-miterlimit:10;stroke-dasharray:none;stroke-opacity:1"
         id="path3872"
         inkscape:connector-curvature="0" /></g></g></svg>