<?xml version="1.0" encoding="UTF-8" standalone="no"?>
<!-- Created with Inkscape (http://www.inkscape.org/) -->

<svg
   xmlns:dc="http://purl.org/dc/elements/1.1/"
   xmlns:cc="http://creativecommons.org/ns#"
   xmlns:rdf="http://www.w3.org/1999/02/22-rdf-syntax-ns#"
   xmlns:svg="http://www.w3.org/2000/svg"
   xmlns="http://www.w3.org/2000/svg"
   xmlns:sodipodi="http://sodipodi.sourceforge.net/DTD/sodipodi-0.dtd"
   xmlns:inkscape="http://www.inkscape.org/namespaces/inkscape"
   version="1.1"
   id="svg169"
   xml:space="preserve"
   width="527.96515"
   height="359.06107"
   viewBox="0 0 527.96515 359.06107"
   sodipodi:docname="BasicsAndSampler_Stroop_Model.svg"
   inkscape:version="0.92.4 (5da689c313, 2019-01-14)"><metadata
     id="metadata175"><rdf:RDF><cc:Work
         rdf:about=""><dc:format>image/svg+xml</dc:format><dc:type
           rdf:resource="http://purl.org/dc/dcmitype/StillImage" /><dc:title></dc:title></cc:Work></rdf:RDF></metadata><defs
     id="defs173"><clipPath
       clipPathUnits="userSpaceOnUse"
       id="clipPath187"><path
         d="M 36,296 H 423.809 V 36 H 36 Z"
         id="path185"
         inkscape:connector-curvature="0" /></clipPath><clipPath
       clipPathUnits="userSpaceOnUse"
       id="clipPath193"><path
         d="M 0,0 H 460 V 332 H 0 Z"
         id="path191"
         inkscape:connector-curvature="0" /></clipPath></defs><sodipodi:namedview
     pagecolor="#ffffff"
     bordercolor="#666666"
     borderopacity="1"
     objecttolerance="10"
     gridtolerance="10"
     guidetolerance="10"
     inkscape:pageopacity="0"
     inkscape:pageshadow="2"
     inkscape:window-width="640"
     inkscape:window-height="480"
     id="namedview171"
     showgrid="false"
     inkscape:zoom="2.2336034"
     inkscape:cx="263.98257"
     inkscape:cy="179.53053"
     inkscape:window-x="0"
     inkscape:window-y="0"
     inkscape:window-maximized="0"
     inkscape:current-layer="g177" /><g
     id="g177"
     inkscape:groupmode="layer"
     inkscape:label="BasicsAndSampler_Stroop_Model"
     transform="matrix(1.3333333,0,0,-1.3333333,-42.135653,399.44867)"><g
       id="g179" /><g
       id="g181"><g
         id="g183"
         clip-path="url(#clipPath187)"><g
           id="g189"
           clip-path="url(#clipPath193)"><path
             d="M 36,296 H 423.809 V 36 H 36 Z"
             style="fill:#ffffff;fill-opacity:1;fill-rule:nonzero;stroke:none"
             id="path195"
             inkscape:connector-curvature="0" /><path
             d="m 286.555,58 c 0,-9.941 -24.004,-18 -53.614,-18 -29.609,0 -53.609,8.059 -53.609,18 0,9.941 24,18 53.609,18 29.61,0 53.614,-8.059 53.614,-18"
             style="fill:none;stroke:#01ff00;stroke-width:3;stroke-linecap:butt;stroke-linejoin:miter;stroke-miterlimit:10;stroke-dasharray:none;stroke-opacity:1"
             id="path197"
             inkscape:connector-curvature="0" /><text
             transform="matrix(1,0,0,-1,197.4414,54.89844)"
             style="font-variant:normal;font-weight:normal;font-size:12px;font-family:font0000000022a2d6b8;-inkscape-font-specification:font0000000022a2d6b8;writing-mode:lr-tb;fill:#000000;fill-opacity:1;fill-rule:nonzero;stroke:none"
             id="text201"><tspan
               x="0 7.3200002 15.312 23.304001"
               y="0"
               sodipodi:role="line"
               id="tspan199">TASK</tspan></text>
<text
             transform="matrix(1,0,0,-1,232.0714,54.89844)"
             style="font-variant:normal;font-weight:normal;font-size:12px;font-family:font0000000022a2d6b8;-inkscape-font-specification:font0000000022a2d6b8;writing-mode:lr-tb;fill:#000000;fill-opacity:1;fill-rule:nonzero;stroke:none"
             id="text205"><tspan
               x="0 3.3239999 11.988 19.98 28.643999"
               y="0"
               sodipodi:role="line"
               id="tspan203">INPUT</tspan></text>
<path
             d="m 224.141,130 c 0,-9.941 -30.086,-18 -67.2,-18 -37.109,0 -67.195,8.059 -67.195,18 0,9.941 30.086,18 67.195,18 37.114,0 67.2,-8.059 67.2,-18"
             style="fill:none;stroke:#000000;stroke-width:1;stroke-linecap:butt;stroke-linejoin:miter;stroke-miterlimit:10;stroke-dasharray:none;stroke-opacity:1"
             id="path207"
             inkscape:connector-curvature="0" /><text
             transform="matrix(1,0,0,-1,110.4414,126.8984)"
             style="font-variant:normal;font-weight:normal;font-size:12px;font-family:font0000000022a2d6b8;-inkscape-font-specification:font0000000022a2d6b8;writing-mode:lr-tb;fill:#000000;fill-opacity:1;fill-rule:nonzero;stroke:none"
             id="text211"><tspan
               x="0 8.6639996 17.988001 24.66 33.984001"
               y="0"
               sodipodi:role="line"
               id="tspan209">COLOR</tspan></text>
<text
             transform="matrix(1,0,0,-1,156.4234,126.8984)"
             style="font-variant:normal;font-weight:normal;font-size:12px;font-family:font0000000022a2d6b8;-inkscape-font-specification:font0000000022a2d6b8;writing-mode:lr-tb;fill:#000000;fill-opacity:1;fill-rule:nonzero;stroke:none"
             id="text215"><tspan
               x="0 8.6639996 11.988 20.652 29.316 37.307999"
               y="0"
               sodipodi:role="line"
               id="tspan213">HIDDEN</tspan></text>
<path
             d="m 214.934,75.062 c -9.61,9.102 -21.598,20.461 -32.18,30.485"
             style="fill:none;stroke:#000000;stroke-width:1;stroke-linecap:butt;stroke-linejoin:miter;stroke-miterlimit:10;stroke-dasharray:none;stroke-opacity:1"
             id="path217"
             inkscape:connector-curvature="0" /><path
             d="m 180.207,103.141 -4.855,9.418 9.668,-4.336 z"
             style="fill:#000000;fill-opacity:1;fill-rule:nonzero;stroke:#000000;stroke-width:1;stroke-linecap:butt;stroke-linejoin:miter;stroke-miterlimit:10;stroke-dasharray:none;stroke-opacity:1"
             id="path219"
             inkscape:connector-curvature="0" /><path
             d="m 369.984,130 c 0,-9.941 -28.672,-18 -64.043,-18 -35.367,0 -64.039,8.059 -64.039,18 0,9.941 28.672,18 64.039,18 35.371,0 64.043,-8.059 64.043,-18"
             style="fill:none;stroke:#000000;stroke-width:1;stroke-linecap:butt;stroke-linejoin:miter;stroke-miterlimit:10;stroke-dasharray:none;stroke-opacity:1"
             id="path221"
             inkscape:connector-curvature="0" /><text
             transform="matrix(1,0,0,-1,261.9414,126.8984)"
             style="font-variant:normal;font-weight:normal;font-size:12px;font-family:font0000000022a2d6b8;-inkscape-font-specification:font0000000022a2d6b8;writing-mode:lr-tb;fill:#000000;fill-opacity:1;fill-rule:nonzero;stroke:none"
             id="text225"><tspan
               x="0 11.316 20.639999 29.304001"
               y="0"
               sodipodi:role="line"
               id="tspan223">WORD</tspan></text>
<text
             transform="matrix(1,0,0,-1,303.2434,126.8984)"
             style="font-variant:normal;font-weight:normal;font-size:12px;font-family:font0000000022a2d6b8;-inkscape-font-specification:font0000000022a2d6b8;writing-mode:lr-tb;fill:#000000;fill-opacity:1;fill-rule:nonzero;stroke:none"
             id="text229"><tspan
               x="0 8.6639996 11.988 20.652 29.316 37.307999"
               y="0"
               sodipodi:role="line"
               id="tspan227">HIDDEN</tspan></text>
<path
             d="m 250.242,75.062 c 9.141,9.016 20.524,20.243 30.613,30.192"
             style="fill:none;stroke:#000000;stroke-width:1;stroke-linecap:butt;stroke-linejoin:miter;stroke-miterlimit:10;stroke-dasharray:none;stroke-opacity:1"
             id="path231"
             inkscape:connector-curvature="0" /><path
             d="m 278.684,108.027 9.578,4.532 -4.664,-9.512 z"
             style="fill:#000000;fill-opacity:1;fill-rule:nonzero;stroke:#000000;stroke-width:1;stroke-linecap:butt;stroke-linejoin:miter;stroke-miterlimit:10;stroke-dasharray:none;stroke-opacity:1"
             id="path233"
             inkscape:connector-curvature="0" /><path
             d="m 419.672,58 c 0,-9.941 -25.844,-18 -57.731,-18 -31.882,0 -57.73,8.059 -57.73,18 0,9.941 25.848,18 57.73,18 31.887,0 57.731,-8.059 57.731,-18"
             style="fill:none;stroke:#01ff00;stroke-width:3;stroke-linecap:butt;stroke-linejoin:miter;stroke-miterlimit:10;stroke-dasharray:none;stroke-opacity:1"
             id="path235"
             inkscape:connector-curvature="0" /><text
             transform="matrix(1,0,0,-1,322.9414,54.89844)"
             style="font-variant:normal;font-weight:normal;font-size:12px;font-family:font0000000022a2d6b8;-inkscape-font-specification:font0000000022a2d6b8;writing-mode:lr-tb;fill:#000000;fill-opacity:1;fill-rule:nonzero;stroke:none"
             id="text239"><tspan
               x="0 11.316 20.639999 29.304001"
               y="0"
               sodipodi:role="line"
               id="tspan237">WORD</tspan></text>
<text
             transform="matrix(1,0,0,-1,364.2434,54.89844)"
             style="font-variant:normal;font-weight:normal;font-size:12px;font-family:font0000000022a2d6b8;-inkscape-font-specification:font0000000022a2d6b8;writing-mode:lr-tb;fill:#000000;fill-opacity:1;fill-rule:nonzero;stroke:none"
             id="text243"><tspan
               x="0 3.3239999 11.988 19.98 28.643999"
               y="0"
               sodipodi:role="line"
               id="tspan241">INPUT</tspan></text>
<path
             d="m 348.102,75.797 c -6.715,8.633 -14.903,19.16 -22.27,28.633"
             style="fill:none;stroke:#000000;stroke-width:1;stroke-linecap:butt;stroke-linejoin:miter;stroke-miterlimit:10;stroke-dasharray:none;stroke-opacity:1"
             id="path245"
             inkscape:connector-curvature="0" /><path
             d="m 323.004,102.363 -3.379,10.043 8.902,-5.742 z"
             style="fill:#000000;fill-opacity:1;fill-rule:nonzero;stroke:#000000;stroke-width:1;stroke-linecap:butt;stroke-linejoin:miter;stroke-miterlimit:10;stroke-dasharray:none;stroke-opacity:1"
             id="path247"
             inkscape:connector-curvature="0" /><path
             d="m 161.828,58 c 0,-9.941 -27.258,-18 -60.887,-18 -33.625,0 -60.882,8.059 -60.882,18 0,9.941 27.257,18 60.882,18 33.629,0 60.887,-8.059 60.887,-18"
             style="fill:none;stroke:#01ff00;stroke-width:3;stroke-linecap:butt;stroke-linejoin:miter;stroke-miterlimit:10;stroke-dasharray:none;stroke-opacity:1"
             id="path249"
             inkscape:connector-curvature="0" /><text
             transform="matrix(1,0,0,-1,59.44141,54.89844)"
             style="font-variant:normal;font-weight:normal;font-size:12px;font-family:font0000000022a2d6b8;-inkscape-font-specification:font0000000022a2d6b8;writing-mode:lr-tb;fill:#000000;fill-opacity:1;fill-rule:nonzero;stroke:none"
             id="text253"><tspan
               x="0 8.6639996 17.988001 24.66 33.984001"
               y="0"
               sodipodi:role="line"
               id="tspan251">COLOR</tspan></text>
<text
             transform="matrix(1,0,0,-1,105.4234,54.89844)"
             style="font-variant:normal;font-weight:normal;font-size:12px;font-family:font0000000022a2d6b8;-inkscape-font-specification:font0000000022a2d6b8;writing-mode:lr-tb;fill:#000000;fill-opacity:1;fill-rule:nonzero;stroke:none"
             id="text257"><tspan
               x="0 3.3239999 11.988 19.98 28.643999"
               y="0"
               sodipodi:role="line"
               id="tspan255">INPUT</tspan></text>
<path
             d="m 114.785,75.797 c 6.664,8.566 14.781,19.004 22.106,28.418"
             style="fill:none;stroke:#000000;stroke-width:1;stroke-linecap:butt;stroke-linejoin:miter;stroke-miterlimit:10;stroke-dasharray:none;stroke-opacity:1"
             id="path259"
             inkscape:connector-curvature="0" /><path
             d="m 134.164,106.414 8.902,5.742 -3.378,-10.043 z"
             style="fill:#000000;fill-opacity:1;fill-rule:nonzero;stroke:#000000;stroke-width:1;stroke-linecap:butt;stroke-linejoin:miter;stroke-miterlimit:10;stroke-dasharray:none;stroke-opacity:1"
             id="path261"
             inkscape:connector-curvature="0" /><path
             d="m 271.699,202 c 0,-9.941 -18.246,-18 -40.758,-18 -22.507,0 -40.757,8.059 -40.757,18 0,9.941 18.25,18 40.757,18 22.512,0 40.758,-8.059 40.758,-18"
             style="fill:none;stroke:#000000;stroke-width:1;stroke-linecap:butt;stroke-linejoin:miter;stroke-miterlimit:10;stroke-dasharray:none;stroke-opacity:1"
             id="path263"
             inkscape:connector-curvature="0" /><text
             transform="matrix(1,0,0,-1,205.9414,198.8984)"
             style="font-variant:normal;font-weight:normal;font-size:12px;font-family:font0000000022a2d6b8;-inkscape-font-specification:font0000000022a2d6b8;writing-mode:lr-tb;fill:#000000;fill-opacity:1;fill-rule:nonzero;stroke:none"
             id="text267"><tspan
               x="0 9.3240004 17.988001 25.308001 33.299999 41.964001"
               y="0"
               sodipodi:role="line"
               id="tspan265">OUTPUT</tspan></text>
<path
             d="m 174.855,147.43 c 9.571,9.308 21.485,20.902 31.868,31.004"
             style="fill:none;stroke:#000000;stroke-width:1;stroke-linecap:butt;stroke-linejoin:miter;stroke-miterlimit:10;stroke-dasharray:none;stroke-opacity:1"
             id="path269"
             inkscape:connector-curvature="0" /><path
             d="m 204.348,181.008 9.609,4.465 -4.727,-9.481 z"
             style="fill:#000000;fill-opacity:1;fill-rule:nonzero;stroke:#000000;stroke-width:1;stroke-linecap:butt;stroke-linejoin:miter;stroke-miterlimit:10;stroke-dasharray:none;stroke-opacity:1"
             id="path271"
             inkscape:connector-curvature="0" /><path
             d="m 277.281,274 c 0,-9.941 -20.746,-18 -46.34,-18 -25.589,0 -46.336,8.059 -46.336,18 0,9.941 20.747,18 46.336,18 25.594,0 46.34,-8.059 46.34,-18"
             style="fill:none;stroke:#ff0000;stroke-width:3;stroke-linecap:butt;stroke-linejoin:miter;stroke-miterlimit:10;stroke-dasharray:none;stroke-opacity:1"
             id="path273"
             inkscape:connector-curvature="0" /><text
             transform="matrix(1,0,0,-1,201.4414,270.8984)"
             style="font-variant:normal;font-weight:normal;font-size:12px;font-family:font0000000022a2d6b8;-inkscape-font-specification:font0000000022a2d6b8;writing-mode:lr-tb;fill:#000000;fill-opacity:1;fill-rule:nonzero;stroke:none"
             id="text277"><tspan
               x="0 8.6639996 16.656 25.32 28.643999 36.636002 39.959999 49.284"
               y="0"
               sodipodi:role="line"
               id="tspan275">DECISION</tspan></text>
<path
             d="m 230.941,220.168 c 0,7.699 0,16.859 0,25.414"
             style="fill:none;stroke:#000000;stroke-width:1;stroke-linecap:butt;stroke-linejoin:miter;stroke-miterlimit:10;stroke-dasharray:none;stroke-opacity:1"
             id="path279"
             inkscape:connector-curvature="0" /><path
             d="m 227.441,245.586 3.5,10 3.5,-10 z"
             style="fill:#000000;fill-opacity:1;fill-rule:nonzero;stroke:#000000;stroke-width:1;stroke-linecap:butt;stroke-linejoin:miter;stroke-miterlimit:10;stroke-dasharray:none;stroke-opacity:1"
             id="path281"
             inkscape:connector-curvature="0" /><path
             d="m 287.789,147.43 c -9.699,9.308 -21.773,20.902 -32.297,31.004"
             style="fill:none;stroke:#000000;stroke-width:1;stroke-linecap:butt;stroke-linejoin:miter;stroke-miterlimit:10;stroke-dasharray:none;stroke-opacity:1"
             id="path283"
             inkscape:connector-curvature="0" /><path
             d="m 252.949,176.023 -4.789,9.45 9.637,-4.399 z"
             style="fill:#000000;fill-opacity:1;fill-rule:nonzero;stroke:#000000;stroke-width:1;stroke-linecap:butt;stroke-linejoin:miter;stroke-miterlimit:10;stroke-dasharray:none;stroke-opacity:1"
             id="path285"
             inkscape:connector-curvature="0" /></g></g></g></g></svg>