<?xml version="1.0" encoding="UTF-8" standalone="no"?>
<svg
   xmlns:dc="http://purl.org/dc/elements/1.1/"
   xmlns:cc="http://creativecommons.org/ns#"
   xmlns:rdf="http://www.w3.org/1999/02/22-rdf-syntax-ns#"
   xmlns:svg="http://www.w3.org/2000/svg"
   xmlns="http://www.w3.org/2000/svg"
   viewBox="0 0 816 1056"
   height="1056"
   width="816"
   xml:space="preserve"
   id="svg2"
   version="1.1"><metadata
     id="metadata8"><rdf:RDF><cc:Work
         rdf:about=""><dc:format>image/svg+xml</dc:format><dc:type
           rdf:resource="http://purl.org/dc/dcmitype/StillImage" /></cc:Work></rdf:RDF></metadata><defs
     id="defs6"><clipPath
       id="clipPath20"
       clipPathUnits="userSpaceOnUse"><path
         id="path18"
         d="M 1,1 H 611 V 792 H 1 Z" /></clipPath></defs><g
     transform="matrix(1.3333333,0,0,-1.3333333,0,1056)"
     id="g10"><g
       id="g12" /><g
       id="g14"><g
         clip-path="url(#clipPath20)"
         id="g16"><g
           transform="matrix(4.212766,0,0,4.212766,169.5106,169.5106)"
           id="g22"><path
             id="path24"
             style="fill:none;stroke:#00ff00;stroke-width:3;stroke-linecap:butt;stroke-linejoin:round;stroke-miterlimit:1;stroke-dasharray:none;stroke-opacity:1"
             d="m 65.5453,18 c 0,9.94113 -14.71366,18 -32.86387,18 C 14.53121,36 -0.1824408,27.94113 -0.1824408,18 -0.1824408,8.058875 14.53121,0 32.68143,0 50.83164,0 65.5453,8.058875 65.5453,18 Z" /></g><g
           transform="matrix(4.212766,0,0,4.212766,169.5106,169.5106)"
           id="g26"><text
             id="text30"
             style="font-variant:normal;font-weight:normal;font-size:12px;font-family:ArialMT;-inkscape-font-specification:ArialMT;writing-mode:lr-tb;fill:#000000;fill-opacity:1;fill-rule:nonzero;stroke:none"
             transform="matrix(1,0,0,-1,14.67264,15.29941)"><tspan
               id="tspan28"
               y="0"
               x="0 6 12.6744 22.670401 29.344801">comp1</tspan></text>
</g><g
           transform="matrix(4.212766,0,0,4.212766,169.5106,169.5106)"
           id="g32"><path
             id="path34"
             style="fill:none;stroke:#ff0000;stroke-width:3;stroke-linecap:butt;stroke-linejoin:round;stroke-miterlimit:1;stroke-dasharray:none;stroke-opacity:1"
             d="m 65.5453,90 c 0,9.94113 -14.71366,18 -32.86387,18 -18.15022,0 -32.8638708,-8.05887 -32.8638708,-18 0,-9.94113 14.7136508,-18 32.8638708,-18 18.15021,0 32.86387,8.05887 32.86387,18 z" /></g><g
           transform="matrix(4.212766,0,0,4.212766,169.5106,169.5106)"
           id="g36"><text
             id="text40"
             style="font-variant:normal;font-weight:normal;font-size:12px;font-family:ArialMT;-inkscape-font-specification:ArialMT;writing-mode:lr-tb;fill:#000000;fill-opacity:1;fill-rule:nonzero;stroke:none"
             transform="matrix(1,0,0,-1,14.67264,87.29941)"><tspan
               id="tspan38"
               y="0"
               x="0 6 12.6744 22.670401 29.344801">comp2</tspan></text>
</g><g
           transform="matrix(4.212766,0,0,4.212766,169.5106,169.5106)"
           id="g42"><path
             id="path44"
             style="fill:none;stroke:#000000;stroke-width:1;stroke-linecap:butt;stroke-linejoin:round;stroke-miterlimit:1;stroke-dasharray:none;stroke-opacity:1"
             d="m 32.68143,36.30338 c 0,7.71391 0,16.98416 0,25.5842" /></g><g
           transform="matrix(4.212766,0,0,4.212766,169.5106,169.5106)"
           id="g46"><path
             id="path48"
             style="fill:#000000;fill-opacity:1;fill-rule:nonzero;stroke:#000000;stroke-width:1;stroke-linecap:butt;stroke-linejoin:round;stroke-miterlimit:1;stroke-dasharray:none;stroke-opacity:1"
             d="m 29.18153,61.89563 3.4999,10.00004 3.5001,-9.99997 z" /></g></g></g></g></svg>