<?xml version="1.0" encoding="utf-8" standalone="no"?>
<!DOCTYPE svg PUBLIC "-//W3C//DTD SVG 1.1//EN"
  "http://www.w3.org/Graphics/SVG/1.1/DTD/svg11.dtd">
<svg xmlns:xlink="http://www.w3.org/1999/xlink" width="739.44pt" height="491.183719pt" viewBox="0 0 739.44 491.183719" xmlns="http://www.w3.org/2000/svg" version="1.1">
 <metadata>
  <rdf:RDF xmlns:dc="http://purl.org/dc/elements/1.1/" xmlns:cc="http://creativecommons.org/ns#" xmlns:rdf="http://www.w3.org/1999/02/22-rdf-syntax-ns#">
   <cc:Work>
    <dc:type rdf:resource="http://purl.org/dc/dcmitype/StillImage"/>
    <dc:date>2026-07-27T16:29:26.818019</dc:date>
    <dc:format>image/svg+xml</dc:format>
    <dc:creator>
     <cc:Agent>
      <dc:title>Matplotlib v3.10.8, https://matplotlib.org/</dc:title>
     </cc:Agent>
    </dc:creator>
   </cc:Work>
  </rdf:RDF>
 </metadata>
 <defs>
  <style type="text/css">*{stroke-linejoin: round; stroke-linecap: butt}</style>
 </defs>
 <g id="figure_1">
  <g id="patch_1">
   <path d="M 0 491.183719 
L 739.44 491.183719 
L 739.44 0 
L 0 0 
z
" style="fill: #ffffff"/>
  </g>
  <g id="axes_1">
   <g id="patch_2">
    <path d="M 83.52 420.912 
L 732.24 420.912 
L 732.24 78.192 
L 83.52 78.192 
z
" style="fill: #ffffff"/>
   </g>
   <g id="matplotlib.axis_1">
    <g id="xtick_1">
     <g id="line2d_1">
      <path d="M 253.093854 420.912 
L 253.093854 78.192 
" clip-path="url(#p8f3329461d)" style="fill: none; stroke: #e5e5e5; stroke-width: 0.8; stroke-linecap: square"/>
     </g>
     <g id="line2d_2">
      <defs>
       <path id="mf8cf65d3e5" d="M 0 0 
L 0 3.5 
" style="stroke: #666666; stroke-width: 0.8"/>
      </defs>
      <g>
       <use xlink:href="#mf8cf65d3e5" x="253.093854" y="420.912" style="fill: #666666; stroke: #666666; stroke-width: 0.8"/>
      </g>
     </g>
     <g id="text_1">
      <!-- $\mathdefault{10^{0}}$ -->
      <g style="fill: #666666" transform="translate(243.413854 436.270281) scale(0.11 -0.11)">
       <defs>
        <path id="DejaVuSans-31" d="M 794 531 
L 1825 531 
L 1825 4091 
L 703 3866 
L 703 4441 
L 1819 4666 
L 2450 4666 
L 2450 531 
L 3481 531 
L 3481 0 
L 794 0 
L 794 531 
z
" transform="scale(0.015625)"/>
        <path id="DejaVuSans-30" d="M 2034 4250 
Q 1547 4250 1301 3770 
Q 1056 3291 1056 2328 
Q 1056 1369 1301 889 
Q 1547 409 2034 409 
Q 2525 409 2770 889 
Q 3016 1369 3016 2328 
Q 3016 3291 2770 3770 
Q 2525 4250 2034 4250 
z
M 2034 4750 
Q 2819 4750 3233 4129 
Q 3647 3509 3647 2328 
Q 3647 1150 3233 529 
Q 2819 -91 2034 -91 
Q 1250 -91 836 529 
Q 422 1150 422 2328 
Q 422 3509 836 4129 
Q 1250 4750 2034 4750 
z
" transform="scale(0.015625)"/>
       </defs>
       <use xlink:href="#DejaVuSans-31" transform="translate(0 0.765625)"/>
       <use xlink:href="#DejaVuSans-30" transform="translate(63.623047 0.765625)"/>
       <use xlink:href="#DejaVuSans-30" transform="translate(128.203125 39.046875) scale(0.7)"/>
      </g>
     </g>
    </g>
    <g id="xtick_2">
     <g id="line2d_3">
      <path d="M 443.232914 420.912 
L 443.232914 78.192 
" clip-path="url(#p8f3329461d)" style="fill: none; stroke: #e5e5e5; stroke-width: 0.8; stroke-linecap: square"/>
     </g>
     <g id="line2d_4">
      <g>
       <use xlink:href="#mf8cf65d3e5" x="443.232914" y="420.912" style="fill: #666666; stroke: #666666; stroke-width: 0.8"/>
      </g>
     </g>
     <g id="text_2">
      <!-- $\mathdefault{10^{1}}$ -->
      <g style="fill: #666666" transform="translate(433.552914 436.270281) scale(0.11 -0.11)">
       <use xlink:href="#DejaVuSans-31" transform="translate(0 0.684375)"/>
       <use xlink:href="#DejaVuSans-30" transform="translate(63.623047 0.684375)"/>
       <use xlink:href="#DejaVuSans-31" transform="translate(128.203125 38.965625) scale(0.7)"/>
      </g>
     </g>
    </g>
    <g id="xtick_3">
     <g id="line2d_5">
      <path d="M 633.371974 420.912 
L 633.371974 78.192 
" clip-path="url(#p8f3329461d)" style="fill: none; stroke: #e5e5e5; stroke-width: 0.8; stroke-linecap: square"/>
     </g>
     <g id="line2d_6">
      <g>
       <use xlink:href="#mf8cf65d3e5" x="633.371974" y="420.912" style="fill: #666666; stroke: #666666; stroke-width: 0.8"/>
      </g>
     </g>
     <g id="text_3">
      <!-- $\mathdefault{10^{2}}$ -->
      <g style="fill: #666666" transform="translate(623.691974 436.270281) scale(0.11 -0.11)">
       <defs>
        <path id="DejaVuSans-32" d="M 1228 531 
L 3431 531 
L 3431 0 
L 469 0 
L 469 531 
Q 828 903 1448 1529 
Q 2069 2156 2228 2338 
Q 2531 2678 2651 2914 
Q 2772 3150 2772 3378 
Q 2772 3750 2511 3984 
Q 2250 4219 1831 4219 
Q 1534 4219 1204 4116 
Q 875 4013 500 3803 
L 500 4441 
Q 881 4594 1212 4672 
Q 1544 4750 1819 4750 
Q 2544 4750 2975 4387 
Q 3406 4025 3406 3419 
Q 3406 3131 3298 2873 
Q 3191 2616 2906 2266 
Q 2828 2175 2409 1742 
Q 1991 1309 1228 531 
z
" transform="scale(0.015625)"/>
       </defs>
       <use xlink:href="#DejaVuSans-31" transform="translate(0 0.765625)"/>
       <use xlink:href="#DejaVuSans-30" transform="translate(63.623047 0.765625)"/>
       <use xlink:href="#DejaVuSans-32" transform="translate(128.203125 39.046875) scale(0.7)"/>
      </g>
     </g>
    </g>
    <g id="xtick_4">
     <g id="line2d_7">
      <defs>
       <path id="mbc64ef362b" d="M 0 0 
L 0 2 
" style="stroke: #666666; stroke-width: 0.6"/>
      </defs>
      <g>
       <use xlink:href="#mbc64ef362b" x="120.192354" y="420.912" style="fill: #666666; stroke: #666666; stroke-width: 0.6"/>
      </g>
     </g>
    </g>
    <g id="xtick_5">
     <g id="line2d_8">
      <g>
       <use xlink:href="#mbc64ef362b" x="153.674181" y="420.912" style="fill: #666666; stroke: #666666; stroke-width: 0.6"/>
      </g>
     </g>
    </g>
    <g id="xtick_6">
     <g id="line2d_9">
      <g>
       <use xlink:href="#mbc64ef362b" x="177.429915" y="420.912" style="fill: #666666; stroke: #666666; stroke-width: 0.6"/>
      </g>
     </g>
    </g>
    <g id="xtick_7">
     <g id="line2d_10">
      <g>
       <use xlink:href="#mbc64ef362b" x="195.856293" y="420.912" style="fill: #666666; stroke: #666666; stroke-width: 0.6"/>
      </g>
     </g>
    </g>
    <g id="xtick_8">
     <g id="line2d_11">
      <g>
       <use xlink:href="#mbc64ef362b" x="210.911741" y="420.912" style="fill: #666666; stroke: #666666; stroke-width: 0.6"/>
      </g>
     </g>
    </g>
    <g id="xtick_9">
     <g id="line2d_12">
      <g>
       <use xlink:href="#mbc64ef362b" x="223.640941" y="420.912" style="fill: #666666; stroke: #666666; stroke-width: 0.6"/>
      </g>
     </g>
    </g>
    <g id="xtick_10">
     <g id="line2d_13">
      <g>
       <use xlink:href="#mbc64ef362b" x="234.667475" y="420.912" style="fill: #666666; stroke: #666666; stroke-width: 0.6"/>
      </g>
     </g>
    </g>
    <g id="xtick_11">
     <g id="line2d_14">
      <g>
       <use xlink:href="#mbc64ef362b" x="244.393568" y="420.912" style="fill: #666666; stroke: #666666; stroke-width: 0.6"/>
      </g>
     </g>
    </g>
    <g id="xtick_12">
     <g id="line2d_15">
      <g>
       <use xlink:href="#mbc64ef362b" x="310.331414" y="420.912" style="fill: #666666; stroke: #666666; stroke-width: 0.6"/>
      </g>
     </g>
    </g>
    <g id="xtick_13">
     <g id="line2d_16">
      <g>
       <use xlink:href="#mbc64ef362b" x="343.813241" y="420.912" style="fill: #666666; stroke: #666666; stroke-width: 0.6"/>
      </g>
     </g>
    </g>
    <g id="xtick_14">
     <g id="line2d_17">
      <g>
       <use xlink:href="#mbc64ef362b" x="367.568975" y="420.912" style="fill: #666666; stroke: #666666; stroke-width: 0.6"/>
      </g>
     </g>
    </g>
    <g id="xtick_15">
     <g id="line2d_18">
      <g>
       <use xlink:href="#mbc64ef362b" x="385.995354" y="420.912" style="fill: #666666; stroke: #666666; stroke-width: 0.6"/>
      </g>
     </g>
    </g>
    <g id="xtick_16">
     <g id="line2d_19">
      <g>
       <use xlink:href="#mbc64ef362b" x="401.050801" y="420.912" style="fill: #666666; stroke: #666666; stroke-width: 0.6"/>
      </g>
     </g>
    </g>
    <g id="xtick_17">
     <g id="line2d_20">
      <g>
       <use xlink:href="#mbc64ef362b" x="413.780001" y="420.912" style="fill: #666666; stroke: #666666; stroke-width: 0.6"/>
      </g>
     </g>
    </g>
    <g id="xtick_18">
     <g id="line2d_21">
      <g>
       <use xlink:href="#mbc64ef362b" x="424.806535" y="420.912" style="fill: #666666; stroke: #666666; stroke-width: 0.6"/>
      </g>
     </g>
    </g>
    <g id="xtick_19">
     <g id="line2d_22">
      <g>
       <use xlink:href="#mbc64ef362b" x="434.532628" y="420.912" style="fill: #666666; stroke: #666666; stroke-width: 0.6"/>
      </g>
     </g>
    </g>
    <g id="xtick_20">
     <g id="line2d_23">
      <g>
       <use xlink:href="#mbc64ef362b" x="500.470475" y="420.912" style="fill: #666666; stroke: #666666; stroke-width: 0.6"/>
      </g>
     </g>
    </g>
    <g id="xtick_21">
     <g id="line2d_24">
      <g>
       <use xlink:href="#mbc64ef362b" x="533.952301" y="420.912" style="fill: #666666; stroke: #666666; stroke-width: 0.6"/>
      </g>
     </g>
    </g>
    <g id="xtick_22">
     <g id="line2d_25">
      <g>
       <use xlink:href="#mbc64ef362b" x="557.708035" y="420.912" style="fill: #666666; stroke: #666666; stroke-width: 0.6"/>
      </g>
     </g>
    </g>
    <g id="xtick_23">
     <g id="line2d_26">
      <g>
       <use xlink:href="#mbc64ef362b" x="576.134414" y="420.912" style="fill: #666666; stroke: #666666; stroke-width: 0.6"/>
      </g>
     </g>
    </g>
    <g id="xtick_24">
     <g id="line2d_27">
      <g>
       <use xlink:href="#mbc64ef362b" x="591.189862" y="420.912" style="fill: #666666; stroke: #666666; stroke-width: 0.6"/>
      </g>
     </g>
    </g>
    <g id="xtick_25">
     <g id="line2d_28">
      <g>
       <use xlink:href="#mbc64ef362b" x="603.919061" y="420.912" style="fill: #666666; stroke: #666666; stroke-width: 0.6"/>
      </g>
     </g>
    </g>
    <g id="xtick_26">
     <g id="line2d_29">
      <g>
       <use xlink:href="#mbc64ef362b" x="614.945595" y="420.912" style="fill: #666666; stroke: #666666; stroke-width: 0.6"/>
      </g>
     </g>
    </g>
    <g id="xtick_27">
     <g id="line2d_30">
      <g>
       <use xlink:href="#mbc64ef362b" x="624.671688" y="420.912" style="fill: #666666; stroke: #666666; stroke-width: 0.6"/>
      </g>
     </g>
    </g>
    <g id="xtick_28">
     <g id="line2d_31">
      <g>
       <use xlink:href="#mbc64ef362b" x="690.609535" y="420.912" style="fill: #666666; stroke: #666666; stroke-width: 0.6"/>
      </g>
     </g>
    </g>
    <g id="xtick_29">
     <g id="line2d_32">
      <g>
       <use xlink:href="#mbc64ef362b" x="724.091361" y="420.912" style="fill: #666666; stroke: #666666; stroke-width: 0.6"/>
      </g>
     </g>
    </g>
    <g id="text_4">
     <!-- Median end-to-end allocation time (minutes, log scale) -->
     <g style="fill: #252525" transform="translate(257.064844 450.916219) scale(0.11 -0.11)">
      <defs>
       <path id="DejaVuSans-4d" d="M 628 4666 
L 1569 4666 
L 2759 1491 
L 3956 4666 
L 4897 4666 
L 4897 0 
L 4281 0 
L 4281 4097 
L 3078 897 
L 2444 897 
L 1241 4097 
L 1241 0 
L 628 0 
L 628 4666 
z
" transform="scale(0.015625)"/>
       <path id="DejaVuSans-65" d="M 3597 1894 
L 3597 1613 
L 953 1613 
Q 991 1019 1311 708 
Q 1631 397 2203 397 
Q 2534 397 2845 478 
Q 3156 559 3463 722 
L 3463 178 
Q 3153 47 2828 -22 
Q 2503 -91 2169 -91 
Q 1331 -91 842 396 
Q 353 884 353 1716 
Q 353 2575 817 3079 
Q 1281 3584 2069 3584 
Q 2775 3584 3186 3129 
Q 3597 2675 3597 1894 
z
M 3022 2063 
Q 3016 2534 2758 2815 
Q 2500 3097 2075 3097 
Q 1594 3097 1305 2825 
Q 1016 2553 972 2059 
L 3022 2063 
z
" transform="scale(0.015625)"/>
       <path id="DejaVuSans-64" d="M 2906 2969 
L 2906 4863 
L 3481 4863 
L 3481 0 
L 2906 0 
L 2906 525 
Q 2725 213 2448 61 
Q 2172 -91 1784 -91 
Q 1150 -91 751 415 
Q 353 922 353 1747 
Q 353 2572 751 3078 
Q 1150 3584 1784 3584 
Q 2172 3584 2448 3432 
Q 2725 3281 2906 2969 
z
M 947 1747 
Q 947 1113 1208 752 
Q 1469 391 1925 391 
Q 2381 391 2643 752 
Q 2906 1113 2906 1747 
Q 2906 2381 2643 2742 
Q 2381 3103 1925 3103 
Q 1469 3103 1208 2742 
Q 947 2381 947 1747 
z
" transform="scale(0.015625)"/>
       <path id="DejaVuSans-69" d="M 603 3500 
L 1178 3500 
L 1178 0 
L 603 0 
L 603 3500 
z
M 603 4863 
L 1178 4863 
L 1178 4134 
L 603 4134 
L 603 4863 
z
" transform="scale(0.015625)"/>
       <path id="DejaVuSans-61" d="M 2194 1759 
Q 1497 1759 1228 1600 
Q 959 1441 959 1056 
Q 959 750 1161 570 
Q 1363 391 1709 391 
Q 2188 391 2477 730 
Q 2766 1069 2766 1631 
L 2766 1759 
L 2194 1759 
z
M 3341 1997 
L 3341 0 
L 2766 0 
L 2766 531 
Q 2569 213 2275 61 
Q 1981 -91 1556 -91 
Q 1019 -91 701 211 
Q 384 513 384 1019 
Q 384 1609 779 1909 
Q 1175 2209 1959 2209 
L 2766 2209 
L 2766 2266 
Q 2766 2663 2505 2880 
Q 2244 3097 1772 3097 
Q 1472 3097 1187 3025 
Q 903 2953 641 2809 
L 641 3341 
Q 956 3463 1253 3523 
Q 1550 3584 1831 3584 
Q 2591 3584 2966 3190 
Q 3341 2797 3341 1997 
z
" transform="scale(0.015625)"/>
       <path id="DejaVuSans-6e" d="M 3513 2113 
L 3513 0 
L 2938 0 
L 2938 2094 
Q 2938 2591 2744 2837 
Q 2550 3084 2163 3084 
Q 1697 3084 1428 2787 
Q 1159 2491 1159 1978 
L 1159 0 
L 581 0 
L 581 3500 
L 1159 3500 
L 1159 2956 
Q 1366 3272 1645 3428 
Q 1925 3584 2291 3584 
Q 2894 3584 3203 3211 
Q 3513 2838 3513 2113 
z
" transform="scale(0.015625)"/>
       <path id="DejaVuSans-20" transform="scale(0.015625)"/>
       <path id="DejaVuSans-2d" d="M 313 2009 
L 1997 2009 
L 1997 1497 
L 313 1497 
L 313 2009 
z
" transform="scale(0.015625)"/>
       <path id="DejaVuSans-74" d="M 1172 4494 
L 1172 3500 
L 2356 3500 
L 2356 3053 
L 1172 3053 
L 1172 1153 
Q 1172 725 1289 603 
Q 1406 481 1766 481 
L 2356 481 
L 2356 0 
L 1766 0 
Q 1100 0 847 248 
Q 594 497 594 1153 
L 594 3053 
L 172 3053 
L 172 3500 
L 594 3500 
L 594 4494 
L 1172 4494 
z
" transform="scale(0.015625)"/>
       <path id="DejaVuSans-6f" d="M 1959 3097 
Q 1497 3097 1228 2736 
Q 959 2375 959 1747 
Q 959 1119 1226 758 
Q 1494 397 1959 397 
Q 2419 397 2687 759 
Q 2956 1122 2956 1747 
Q 2956 2369 2687 2733 
Q 2419 3097 1959 3097 
z
M 1959 3584 
Q 2709 3584 3137 3096 
Q 3566 2609 3566 1747 
Q 3566 888 3137 398 
Q 2709 -91 1959 -91 
Q 1206 -91 779 398 
Q 353 888 353 1747 
Q 353 2609 779 3096 
Q 1206 3584 1959 3584 
z
" transform="scale(0.015625)"/>
       <path id="DejaVuSans-6c" d="M 603 4863 
L 1178 4863 
L 1178 0 
L 603 0 
L 603 4863 
z
" transform="scale(0.015625)"/>
       <path id="DejaVuSans-63" d="M 3122 3366 
L 3122 2828 
Q 2878 2963 2633 3030 
Q 2388 3097 2138 3097 
Q 1578 3097 1268 2742 
Q 959 2388 959 1747 
Q 959 1106 1268 751 
Q 1578 397 2138 397 
Q 2388 397 2633 464 
Q 2878 531 3122 666 
L 3122 134 
Q 2881 22 2623 -34 
Q 2366 -91 2075 -91 
Q 1284 -91 818 406 
Q 353 903 353 1747 
Q 353 2603 823 3093 
Q 1294 3584 2113 3584 
Q 2378 3584 2631 3529 
Q 2884 3475 3122 3366 
z
" transform="scale(0.015625)"/>
       <path id="DejaVuSans-6d" d="M 3328 2828 
Q 3544 3216 3844 3400 
Q 4144 3584 4550 3584 
Q 5097 3584 5394 3201 
Q 5691 2819 5691 2113 
L 5691 0 
L 5113 0 
L 5113 2094 
Q 5113 2597 4934 2840 
Q 4756 3084 4391 3084 
Q 3944 3084 3684 2787 
Q 3425 2491 3425 1978 
L 3425 0 
L 2847 0 
L 2847 2094 
Q 2847 2600 2669 2842 
Q 2491 3084 2119 3084 
Q 1678 3084 1418 2786 
Q 1159 2488 1159 1978 
L 1159 0 
L 581 0 
L 581 3500 
L 1159 3500 
L 1159 2956 
Q 1356 3278 1631 3431 
Q 1906 3584 2284 3584 
Q 2666 3584 2933 3390 
Q 3200 3197 3328 2828 
z
" transform="scale(0.015625)"/>
       <path id="DejaVuSans-28" d="M 1984 4856 
Q 1566 4138 1362 3434 
Q 1159 2731 1159 2009 
Q 1159 1288 1364 580 
Q 1569 -128 1984 -844 
L 1484 -844 
Q 1016 -109 783 600 
Q 550 1309 550 2009 
Q 550 2706 781 3412 
Q 1013 4119 1484 4856 
L 1984 4856 
z
" transform="scale(0.015625)"/>
       <path id="DejaVuSans-75" d="M 544 1381 
L 544 3500 
L 1119 3500 
L 1119 1403 
Q 1119 906 1312 657 
Q 1506 409 1894 409 
Q 2359 409 2629 706 
Q 2900 1003 2900 1516 
L 2900 3500 
L 3475 3500 
L 3475 0 
L 2900 0 
L 2900 538 
Q 2691 219 2414 64 
Q 2138 -91 1772 -91 
Q 1169 -91 856 284 
Q 544 659 544 1381 
z
M 1991 3584 
L 1991 3584 
z
" transform="scale(0.015625)"/>
       <path id="DejaVuSans-73" d="M 2834 3397 
L 2834 2853 
Q 2591 2978 2328 3040 
Q 2066 3103 1784 3103 
Q 1356 3103 1142 2972 
Q 928 2841 928 2578 
Q 928 2378 1081 2264 
Q 1234 2150 1697 2047 
L 1894 2003 
Q 2506 1872 2764 1633 
Q 3022 1394 3022 966 
Q 3022 478 2636 193 
Q 2250 -91 1575 -91 
Q 1294 -91 989 -36 
Q 684 19 347 128 
L 347 722 
Q 666 556 975 473 
Q 1284 391 1588 391 
Q 1994 391 2212 530 
Q 2431 669 2431 922 
Q 2431 1156 2273 1281 
Q 2116 1406 1581 1522 
L 1381 1569 
Q 847 1681 609 1914 
Q 372 2147 372 2553 
Q 372 3047 722 3315 
Q 1072 3584 1716 3584 
Q 2034 3584 2315 3537 
Q 2597 3491 2834 3397 
z
" transform="scale(0.015625)"/>
       <path id="DejaVuSans-2c" d="M 750 794 
L 1409 794 
L 1409 256 
L 897 -744 
L 494 -744 
L 750 256 
L 750 794 
z
" transform="scale(0.015625)"/>
       <path id="DejaVuSans-67" d="M 2906 1791 
Q 2906 2416 2648 2759 
Q 2391 3103 1925 3103 
Q 1463 3103 1205 2759 
Q 947 2416 947 1791 
Q 947 1169 1205 825 
Q 1463 481 1925 481 
Q 2391 481 2648 825 
Q 2906 1169 2906 1791 
z
M 3481 434 
Q 3481 -459 3084 -895 
Q 2688 -1331 1869 -1331 
Q 1566 -1331 1297 -1286 
Q 1028 -1241 775 -1147 
L 775 -588 
Q 1028 -725 1275 -790 
Q 1522 -856 1778 -856 
Q 2344 -856 2625 -561 
Q 2906 -266 2906 331 
L 2906 616 
Q 2728 306 2450 153 
Q 2172 0 1784 0 
Q 1141 0 747 490 
Q 353 981 353 1791 
Q 353 2603 747 3093 
Q 1141 3584 1784 3584 
Q 2172 3584 2450 3431 
Q 2728 3278 2906 2969 
L 2906 3500 
L 3481 3500 
L 3481 434 
z
" transform="scale(0.015625)"/>
       <path id="DejaVuSans-29" d="M 513 4856 
L 1013 4856 
Q 1481 4119 1714 3412 
Q 1947 2706 1947 2009 
Q 1947 1309 1714 600 
Q 1481 -109 1013 -844 
L 513 -844 
Q 928 -128 1133 580 
Q 1338 1288 1338 2009 
Q 1338 2731 1133 3434 
Q 928 4138 513 4856 
z
" transform="scale(0.015625)"/>
      </defs>
      <use xlink:href="#DejaVuSans-4d"/>
      <use xlink:href="#DejaVuSans-65" transform="translate(86.279297 0)"/>
      <use xlink:href="#DejaVuSans-64" transform="translate(147.802734 0)"/>
      <use xlink:href="#DejaVuSans-69" transform="translate(211.279297 0)"/>
      <use xlink:href="#DejaVuSans-61" transform="translate(239.0625 0)"/>
      <use xlink:href="#DejaVuSans-6e" transform="translate(300.341797 0)"/>
      <use xlink:href="#DejaVuSans-20" transform="translate(363.720703 0)"/>
      <use xlink:href="#DejaVuSans-65" transform="translate(395.507812 0)"/>
      <use xlink:href="#DejaVuSans-6e" transform="translate(457.03125 0)"/>
      <use xlink:href="#DejaVuSans-64" transform="translate(520.410156 0)"/>
      <use xlink:href="#DejaVuSans-2d" transform="translate(583.886719 0)"/>
      <use xlink:href="#DejaVuSans-74" transform="translate(619.970703 0)"/>
      <use xlink:href="#DejaVuSans-6f" transform="translate(659.179688 0)"/>
      <use xlink:href="#DejaVuSans-2d" transform="translate(722.236328 0)"/>
      <use xlink:href="#DejaVuSans-65" transform="translate(758.320312 0)"/>
      <use xlink:href="#DejaVuSans-6e" transform="translate(819.84375 0)"/>
      <use xlink:href="#DejaVuSans-64" transform="translate(883.222656 0)"/>
      <use xlink:href="#DejaVuSans-20" transform="translate(946.699219 0)"/>
      <use xlink:href="#DejaVuSans-61" transform="translate(978.486328 0)"/>
      <use xlink:href="#DejaVuSans-6c" transform="translate(1039.765625 0)"/>
      <use xlink:href="#DejaVuSans-6c" transform="translate(1067.548828 0)"/>
      <use xlink:href="#DejaVuSans-6f" transform="translate(1095.332031 0)"/>
      <use xlink:href="#DejaVuSans-63" transform="translate(1156.513672 0)"/>
      <use xlink:href="#DejaVuSans-61" transform="translate(1211.494141 0)"/>
      <use xlink:href="#DejaVuSans-74" transform="translate(1272.773438 0)"/>
      <use xlink:href="#DejaVuSans-69" transform="translate(1311.982422 0)"/>
      <use xlink:href="#DejaVuSans-6f" transform="translate(1339.765625 0)"/>
      <use xlink:href="#DejaVuSans-6e" transform="translate(1400.947266 0)"/>
      <use xlink:href="#DejaVuSans-20" transform="translate(1464.326172 0)"/>
      <use xlink:href="#DejaVuSans-74" transform="translate(1496.113281 0)"/>
      <use xlink:href="#DejaVuSans-69" transform="translate(1535.322266 0)"/>
      <use xlink:href="#DejaVuSans-6d" transform="translate(1563.105469 0)"/>
      <use xlink:href="#DejaVuSans-65" transform="translate(1660.517578 0)"/>
      <use xlink:href="#DejaVuSans-20" transform="translate(1722.041016 0)"/>
      <use xlink:href="#DejaVuSans-28" transform="translate(1753.828125 0)"/>
      <use xlink:href="#DejaVuSans-6d" transform="translate(1792.841797 0)"/>
      <use xlink:href="#DejaVuSans-69" transform="translate(1890.253906 0)"/>
      <use xlink:href="#DejaVuSans-6e" transform="translate(1918.037109 0)"/>
      <use xlink:href="#DejaVuSans-75" transform="translate(1981.416016 0)"/>
      <use xlink:href="#DejaVuSans-74" transform="translate(2044.794922 0)"/>
      <use xlink:href="#DejaVuSans-65" transform="translate(2084.003906 0)"/>
      <use xlink:href="#DejaVuSans-73" transform="translate(2145.527344 0)"/>
      <use xlink:href="#DejaVuSans-2c" transform="translate(2197.626953 0)"/>
      <use xlink:href="#DejaVuSans-20" transform="translate(2229.414062 0)"/>
      <use xlink:href="#DejaVuSans-6c" transform="translate(2261.201172 0)"/>
      <use xlink:href="#DejaVuSans-6f" transform="translate(2288.984375 0)"/>
      <use xlink:href="#DejaVuSans-67" transform="translate(2350.166016 0)"/>
      <use xlink:href="#DejaVuSans-20" transform="translate(2413.642578 0)"/>
      <use xlink:href="#DejaVuSans-73" transform="translate(2445.429688 0)"/>
      <use xlink:href="#DejaVuSans-63" transform="translate(2497.529297 0)"/>
      <use xlink:href="#DejaVuSans-61" transform="translate(2552.509766 0)"/>
      <use xlink:href="#DejaVuSans-6c" transform="translate(2613.789062 0)"/>
      <use xlink:href="#DejaVuSans-65" transform="translate(2641.572266 0)"/>
      <use xlink:href="#DejaVuSans-29" transform="translate(2703.095703 0)"/>
     </g>
    </g>
   </g>
   <g id="matplotlib.axis_2">
    <g id="ytick_1">
     <g id="line2d_33">
      <path d="M 83.52 407.419087 
L 732.24 407.419087 
" clip-path="url(#p8f3329461d)" style="fill: none; stroke: #e5e5e5; stroke-width: 0.8; stroke-linecap: square"/>
     </g>
     <g id="line2d_34">
      <defs>
       <path id="maa032f08af" d="M 0 0 
L -3.5 0 
" style="stroke: #666666; stroke-width: 0.8"/>
      </defs>
      <g>
       <use xlink:href="#maa032f08af" x="83.52" y="407.419087" style="fill: #666666; stroke: #666666; stroke-width: 0.8"/>
      </g>
     </g>
     <g id="text_5">
      <!-- 0.04 -->
      <g style="fill: #666666" transform="translate(52.027812 411.598227) scale(0.11 -0.11)">
       <defs>
        <path id="DejaVuSans-2e" d="M 684 794 
L 1344 794 
L 1344 0 
L 684 0 
L 684 794 
z
" transform="scale(0.015625)"/>
        <path id="DejaVuSans-34" d="M 2419 4116 
L 825 1625 
L 2419 1625 
L 2419 4116 
z
M 2253 4666 
L 3047 4666 
L 3047 1625 
L 3713 1625 
L 3713 1100 
L 3047 1100 
L 3047 0 
L 2419 0 
L 2419 1100 
L 313 1100 
L 313 1709 
L 2253 4666 
z
" transform="scale(0.015625)"/>
       </defs>
       <use xlink:href="#DejaVuSans-30"/>
       <use xlink:href="#DejaVuSans-2e" transform="translate(63.623047 0)"/>
       <use xlink:href="#DejaVuSans-30" transform="translate(95.410156 0)"/>
       <use xlink:href="#DejaVuSans-34" transform="translate(159.033203 0)"/>
      </g>
     </g>
    </g>
    <g id="ytick_2">
     <g id="line2d_35">
      <path d="M 83.52 353.447433 
L 732.24 353.447433 
" clip-path="url(#p8f3329461d)" style="fill: none; stroke: #e5e5e5; stroke-width: 0.8; stroke-linecap: square"/>
     </g>
     <g id="line2d_36">
      <g>
       <use xlink:href="#maa032f08af" x="83.52" y="353.447433" style="fill: #666666; stroke: #666666; stroke-width: 0.8"/>
      </g>
     </g>
     <g id="text_6">
      <!-- 0.06 -->
      <g style="fill: #666666" transform="translate(52.027812 357.626574) scale(0.11 -0.11)">
       <defs>
        <path id="DejaVuSans-36" d="M 2113 2584 
Q 1688 2584 1439 2293 
Q 1191 2003 1191 1497 
Q 1191 994 1439 701 
Q 1688 409 2113 409 
Q 2538 409 2786 701 
Q 3034 994 3034 1497 
Q 3034 2003 2786 2293 
Q 2538 2584 2113 2584 
z
M 3366 4563 
L 3366 3988 
Q 3128 4100 2886 4159 
Q 2644 4219 2406 4219 
Q 1781 4219 1451 3797 
Q 1122 3375 1075 2522 
Q 1259 2794 1537 2939 
Q 1816 3084 2150 3084 
Q 2853 3084 3261 2657 
Q 3669 2231 3669 1497 
Q 3669 778 3244 343 
Q 2819 -91 2113 -91 
Q 1303 -91 875 529 
Q 447 1150 447 2328 
Q 447 3434 972 4092 
Q 1497 4750 2381 4750 
Q 2619 4750 2861 4703 
Q 3103 4656 3366 4563 
z
" transform="scale(0.015625)"/>
       </defs>
       <use xlink:href="#DejaVuSans-30"/>
       <use xlink:href="#DejaVuSans-2e" transform="translate(63.623047 0)"/>
       <use xlink:href="#DejaVuSans-30" transform="translate(95.410156 0)"/>
       <use xlink:href="#DejaVuSans-36" transform="translate(159.033203 0)"/>
      </g>
     </g>
    </g>
    <g id="ytick_3">
     <g id="line2d_37">
      <path d="M 83.52 299.47578 
L 732.24 299.47578 
" clip-path="url(#p8f3329461d)" style="fill: none; stroke: #e5e5e5; stroke-width: 0.8; stroke-linecap: square"/>
     </g>
     <g id="line2d_38">
      <g>
       <use xlink:href="#maa032f08af" x="83.52" y="299.47578" style="fill: #666666; stroke: #666666; stroke-width: 0.8"/>
      </g>
     </g>
     <g id="text_7">
      <!-- 0.08 -->
      <g style="fill: #666666" transform="translate(52.027812 303.65492) scale(0.11 -0.11)">
       <defs>
        <path id="DejaVuSans-38" d="M 2034 2216 
Q 1584 2216 1326 1975 
Q 1069 1734 1069 1313 
Q 1069 891 1326 650 
Q 1584 409 2034 409 
Q 2484 409 2743 651 
Q 3003 894 3003 1313 
Q 3003 1734 2745 1975 
Q 2488 2216 2034 2216 
z
M 1403 2484 
Q 997 2584 770 2862 
Q 544 3141 544 3541 
Q 544 4100 942 4425 
Q 1341 4750 2034 4750 
Q 2731 4750 3128 4425 
Q 3525 4100 3525 3541 
Q 3525 3141 3298 2862 
Q 3072 2584 2669 2484 
Q 3125 2378 3379 2068 
Q 3634 1759 3634 1313 
Q 3634 634 3220 271 
Q 2806 -91 2034 -91 
Q 1263 -91 848 271 
Q 434 634 434 1313 
Q 434 1759 690 2068 
Q 947 2378 1403 2484 
z
M 1172 3481 
Q 1172 3119 1398 2916 
Q 1625 2713 2034 2713 
Q 2441 2713 2670 2916 
Q 2900 3119 2900 3481 
Q 2900 3844 2670 4047 
Q 2441 4250 2034 4250 
Q 1625 4250 1398 4047 
Q 1172 3844 1172 3481 
z
" transform="scale(0.015625)"/>
       </defs>
       <use xlink:href="#DejaVuSans-30"/>
       <use xlink:href="#DejaVuSans-2e" transform="translate(63.623047 0)"/>
       <use xlink:href="#DejaVuSans-30" transform="translate(95.410156 0)"/>
       <use xlink:href="#DejaVuSans-38" transform="translate(159.033203 0)"/>
      </g>
     </g>
    </g>
    <g id="ytick_4">
     <g id="line2d_39">
      <path d="M 83.52 245.504126 
L 732.24 245.504126 
" clip-path="url(#p8f3329461d)" style="fill: none; stroke: #e5e5e5; stroke-width: 0.8; stroke-linecap: square"/>
     </g>
     <g id="line2d_40">
      <g>
       <use xlink:href="#maa032f08af" x="83.52" y="245.504126" style="fill: #666666; stroke: #666666; stroke-width: 0.8"/>
      </g>
     </g>
     <g id="text_8">
      <!-- 0.10 -->
      <g style="fill: #666666" transform="translate(52.027812 249.683267) scale(0.11 -0.11)">
       <use xlink:href="#DejaVuSans-30"/>
       <use xlink:href="#DejaVuSans-2e" transform="translate(63.623047 0)"/>
       <use xlink:href="#DejaVuSans-31" transform="translate(95.410156 0)"/>
       <use xlink:href="#DejaVuSans-30" transform="translate(159.033203 0)"/>
      </g>
     </g>
    </g>
    <g id="ytick_5">
     <g id="line2d_41">
      <path d="M 83.52 191.532472 
L 732.24 191.532472 
" clip-path="url(#p8f3329461d)" style="fill: none; stroke: #e5e5e5; stroke-width: 0.8; stroke-linecap: square"/>
     </g>
     <g id="line2d_42">
      <g>
       <use xlink:href="#maa032f08af" x="83.52" y="191.532472" style="fill: #666666; stroke: #666666; stroke-width: 0.8"/>
      </g>
     </g>
     <g id="text_9">
      <!-- 0.12 -->
      <g style="fill: #666666" transform="translate(52.027812 195.711613) scale(0.11 -0.11)">
       <use xlink:href="#DejaVuSans-30"/>
       <use xlink:href="#DejaVuSans-2e" transform="translate(63.623047 0)"/>
       <use xlink:href="#DejaVuSans-31" transform="translate(95.410156 0)"/>
       <use xlink:href="#DejaVuSans-32" transform="translate(159.033203 0)"/>
      </g>
     </g>
    </g>
    <g id="ytick_6">
     <g id="line2d_43">
      <path d="M 83.52 137.560819 
L 732.24 137.560819 
" clip-path="url(#p8f3329461d)" style="fill: none; stroke: #e5e5e5; stroke-width: 0.8; stroke-linecap: square"/>
     </g>
     <g id="line2d_44">
      <g>
       <use xlink:href="#maa032f08af" x="83.52" y="137.560819" style="fill: #666666; stroke: #666666; stroke-width: 0.8"/>
      </g>
     </g>
     <g id="text_10">
      <!-- 0.14 -->
      <g style="fill: #666666" transform="translate(52.027812 141.73996) scale(0.11 -0.11)">
       <use xlink:href="#DejaVuSans-30"/>
       <use xlink:href="#DejaVuSans-2e" transform="translate(63.623047 0)"/>
       <use xlink:href="#DejaVuSans-31" transform="translate(95.410156 0)"/>
       <use xlink:href="#DejaVuSans-34" transform="translate(159.033203 0)"/>
      </g>
     </g>
    </g>
    <g id="ytick_7">
     <g id="line2d_45">
      <path d="M 83.52 83.589165 
L 732.24 83.589165 
" clip-path="url(#p8f3329461d)" style="fill: none; stroke: #e5e5e5; stroke-width: 0.8; stroke-linecap: square"/>
     </g>
     <g id="line2d_46">
      <g>
       <use xlink:href="#maa032f08af" x="83.52" y="83.589165" style="fill: #666666; stroke: #666666; stroke-width: 0.8"/>
      </g>
     </g>
     <g id="text_11">
      <!-- 0.16 -->
      <g style="fill: #666666" transform="translate(52.027812 87.768306) scale(0.11 -0.11)">
       <use xlink:href="#DejaVuSans-30"/>
       <use xlink:href="#DejaVuSans-2e" transform="translate(63.623047 0)"/>
       <use xlink:href="#DejaVuSans-31" transform="translate(95.410156 0)"/>
       <use xlink:href="#DejaVuSans-36" transform="translate(159.033203 0)"/>
      </g>
     </g>
    </g>
    <g id="text_12">
     <!-- Mean participant-level RMSE -->
     <g style="fill: #252525" transform="translate(45.740156 328.495047) rotate(-90) scale(0.11 -0.11)">
      <defs>
       <path id="DejaVuSans-70" d="M 1159 525 
L 1159 -1331 
L 581 -1331 
L 581 3500 
L 1159 3500 
L 1159 2969 
Q 1341 3281 1617 3432 
Q 1894 3584 2278 3584 
Q 2916 3584 3314 3078 
Q 3713 2572 3713 1747 
Q 3713 922 3314 415 
Q 2916 -91 2278 -91 
Q 1894 -91 1617 61 
Q 1341 213 1159 525 
z
M 3116 1747 
Q 3116 2381 2855 2742 
Q 2594 3103 2138 3103 
Q 1681 3103 1420 2742 
Q 1159 2381 1159 1747 
Q 1159 1113 1420 752 
Q 1681 391 2138 391 
Q 2594 391 2855 752 
Q 3116 1113 3116 1747 
z
" transform="scale(0.015625)"/>
       <path id="DejaVuSans-72" d="M 2631 2963 
Q 2534 3019 2420 3045 
Q 2306 3072 2169 3072 
Q 1681 3072 1420 2755 
Q 1159 2438 1159 1844 
L 1159 0 
L 581 0 
L 581 3500 
L 1159 3500 
L 1159 2956 
Q 1341 3275 1631 3429 
Q 1922 3584 2338 3584 
Q 2397 3584 2469 3576 
Q 2541 3569 2628 3553 
L 2631 2963 
z
" transform="scale(0.015625)"/>
       <path id="DejaVuSans-76" d="M 191 3500 
L 800 3500 
L 1894 563 
L 2988 3500 
L 3597 3500 
L 2284 0 
L 1503 0 
L 191 3500 
z
" transform="scale(0.015625)"/>
       <path id="DejaVuSans-52" d="M 2841 2188 
Q 3044 2119 3236 1894 
Q 3428 1669 3622 1275 
L 4263 0 
L 3584 0 
L 2988 1197 
Q 2756 1666 2539 1819 
Q 2322 1972 1947 1972 
L 1259 1972 
L 1259 0 
L 628 0 
L 628 4666 
L 2053 4666 
Q 2853 4666 3247 4331 
Q 3641 3997 3641 3322 
Q 3641 2881 3436 2590 
Q 3231 2300 2841 2188 
z
M 1259 4147 
L 1259 2491 
L 2053 2491 
Q 2509 2491 2742 2702 
Q 2975 2913 2975 3322 
Q 2975 3731 2742 3939 
Q 2509 4147 2053 4147 
L 1259 4147 
z
" transform="scale(0.015625)"/>
       <path id="DejaVuSans-53" d="M 3425 4513 
L 3425 3897 
Q 3066 4069 2747 4153 
Q 2428 4238 2131 4238 
Q 1616 4238 1336 4038 
Q 1056 3838 1056 3469 
Q 1056 3159 1242 3001 
Q 1428 2844 1947 2747 
L 2328 2669 
Q 3034 2534 3370 2195 
Q 3706 1856 3706 1288 
Q 3706 609 3251 259 
Q 2797 -91 1919 -91 
Q 1588 -91 1214 -16 
Q 841 59 441 206 
L 441 856 
Q 825 641 1194 531 
Q 1563 422 1919 422 
Q 2459 422 2753 634 
Q 3047 847 3047 1241 
Q 3047 1584 2836 1778 
Q 2625 1972 2144 2069 
L 1759 2144 
Q 1053 2284 737 2584 
Q 422 2884 422 3419 
Q 422 4038 858 4394 
Q 1294 4750 2059 4750 
Q 2388 4750 2728 4690 
Q 3069 4631 3425 4513 
z
" transform="scale(0.015625)"/>
       <path id="DejaVuSans-45" d="M 628 4666 
L 3578 4666 
L 3578 4134 
L 1259 4134 
L 1259 2753 
L 3481 2753 
L 3481 2222 
L 1259 2222 
L 1259 531 
L 3634 531 
L 3634 0 
L 628 0 
L 628 4666 
z
" transform="scale(0.015625)"/>
      </defs>
      <use xlink:href="#DejaVuSans-4d"/>
      <use xlink:href="#DejaVuSans-65" transform="translate(86.279297 0)"/>
      <use xlink:href="#DejaVuSans-61" transform="translate(147.802734 0)"/>
      <use xlink:href="#DejaVuSans-6e" transform="translate(209.082031 0)"/>
      <use xlink:href="#DejaVuSans-20" transform="translate(272.460938 0)"/>
      <use xlink:href="#DejaVuSans-70" transform="translate(304.248047 0)"/>
      <use xlink:href="#DejaVuSans-61" transform="translate(367.724609 0)"/>
      <use xlink:href="#DejaVuSans-72" transform="translate(429.003906 0)"/>
      <use xlink:href="#DejaVuSans-74" transform="translate(470.117188 0)"/>
      <use xlink:href="#DejaVuSans-69" transform="translate(509.326172 0)"/>
      <use xlink:href="#DejaVuSans-63" transform="translate(537.109375 0)"/>
      <use xlink:href="#DejaVuSans-69" transform="translate(592.089844 0)"/>
      <use xlink:href="#DejaVuSans-70" transform="translate(619.873047 0)"/>
      <use xlink:href="#DejaVuSans-61" transform="translate(683.349609 0)"/>
      <use xlink:href="#DejaVuSans-6e" transform="translate(744.628906 0)"/>
      <use xlink:href="#DejaVuSans-74" transform="translate(808.007812 0)"/>
      <use xlink:href="#DejaVuSans-2d" transform="translate(847.216797 0)"/>
      <use xlink:href="#DejaVuSans-6c" transform="translate(883.300781 0)"/>
      <use xlink:href="#DejaVuSans-65" transform="translate(911.083984 0)"/>
      <use xlink:href="#DejaVuSans-76" transform="translate(972.607422 0)"/>
      <use xlink:href="#DejaVuSans-65" transform="translate(1031.787109 0)"/>
      <use xlink:href="#DejaVuSans-6c" transform="translate(1093.310547 0)"/>
      <use xlink:href="#DejaVuSans-20" transform="translate(1121.09375 0)"/>
      <use xlink:href="#DejaVuSans-52" transform="translate(1152.880859 0)"/>
      <use xlink:href="#DejaVuSans-4d" transform="translate(1222.363281 0)"/>
      <use xlink:href="#DejaVuSans-53" transform="translate(1308.642578 0)"/>
      <use xlink:href="#DejaVuSans-45" transform="translate(1372.119141 0)"/>
     </g>
    </g>
   </g>
   <g id="patch_3">
    <path d="M 83.52 420.912 
L 83.52 78.192 
" style="fill: none; stroke: #666666; stroke-width: 0.8; stroke-linejoin: miter; stroke-linecap: square"/>
   </g>
   <g id="patch_4">
    <path d="M 83.52 420.912 
L 732.24 420.912 
" style="fill: none; stroke: #666666; stroke-width: 0.8; stroke-linejoin: miter; stroke-linecap: square"/>
   </g>
   <g id="text_13">
    <!-- Exact -->
    <g style="fill: #252525" transform="translate(120.007273 367.974211) scale(0.1 -0.1)">
     <defs>
      <path id="DejaVuSans-78" d="M 3513 3500 
L 2247 1797 
L 3578 0 
L 2900 0 
L 1881 1375 
L 863 0 
L 184 0 
L 1544 1831 
L 300 3500 
L 978 3500 
L 1906 2253 
L 2834 3500 
L 3513 3500 
z
" transform="scale(0.015625)"/>
     </defs>
     <use xlink:href="#DejaVuSans-45"/>
     <use xlink:href="#DejaVuSans-78" transform="translate(63.183594 0)"/>
     <use xlink:href="#DejaVuSans-61" transform="translate(122.363281 0)"/>
     <use xlink:href="#DejaVuSans-63" transform="translate(183.642578 0)"/>
     <use xlink:href="#DejaVuSans-74" transform="translate(238.623047 0)"/>
    </g>
   </g>
   <g id="text_14">
    <!-- Neural likelihood -->
    <g style="fill: #252525" transform="translate(369.316969 389.606177) scale(0.1 -0.1)">
     <defs>
      <path id="DejaVuSans-4e" d="M 628 4666 
L 1478 4666 
L 3547 763 
L 3547 4666 
L 4159 4666 
L 4159 0 
L 3309 0 
L 1241 3903 
L 1241 0 
L 628 0 
L 628 4666 
z
" transform="scale(0.015625)"/>
      <path id="DejaVuSans-6b" d="M 581 4863 
L 1159 4863 
L 1159 1991 
L 2875 3500 
L 3609 3500 
L 1753 1863 
L 3688 0 
L 2938 0 
L 1159 1709 
L 1159 0 
L 581 0 
L 581 4863 
z
" transform="scale(0.015625)"/>
      <path id="DejaVuSans-68" d="M 3513 2113 
L 3513 0 
L 2938 0 
L 2938 2094 
Q 2938 2591 2744 2837 
Q 2550 3084 2163 3084 
Q 1697 3084 1428 2787 
Q 1159 2491 1159 1978 
L 1159 0 
L 581 0 
L 581 4863 
L 1159 4863 
L 1159 2956 
Q 1366 3272 1645 3428 
Q 1925 3584 2291 3584 
Q 2894 3584 3203 3211 
Q 3513 2838 3513 2113 
z
" transform="scale(0.015625)"/>
     </defs>
     <use xlink:href="#DejaVuSans-4e"/>
     <use xlink:href="#DejaVuSans-65" transform="translate(74.804688 0)"/>
     <use xlink:href="#DejaVuSans-75" transform="translate(136.328125 0)"/>
     <use xlink:href="#DejaVuSans-72" transform="translate(199.707031 0)"/>
     <use xlink:href="#DejaVuSans-61" transform="translate(240.820312 0)"/>
     <use xlink:href="#DejaVuSans-6c" transform="translate(302.099609 0)"/>
     <use xlink:href="#DejaVuSans-20" transform="translate(329.882812 0)"/>
     <use xlink:href="#DejaVuSans-6c" transform="translate(361.669922 0)"/>
     <use xlink:href="#DejaVuSans-69" transform="translate(389.453125 0)"/>
     <use xlink:href="#DejaVuSans-6b" transform="translate(417.236328 0)"/>
     <use xlink:href="#DejaVuSans-65" transform="translate(471.521484 0)"/>
     <use xlink:href="#DejaVuSans-6c" transform="translate(533.044922 0)"/>
     <use xlink:href="#DejaVuSans-69" transform="translate(560.828125 0)"/>
     <use xlink:href="#DejaVuSans-68" transform="translate(588.611328 0)"/>
     <use xlink:href="#DejaVuSans-6f" transform="translate(651.990234 0)"/>
     <use xlink:href="#DejaVuSans-6f" transform="translate(713.171875 0)"/>
     <use xlink:href="#DejaVuSans-64" transform="translate(774.353516 0)"/>
    </g>
    <!-- (training included) -->
    <g style="fill: #252525" transform="translate(369.316969 400.803989) scale(0.1 -0.1)">
     <use xlink:href="#DejaVuSans-28"/>
     <use xlink:href="#DejaVuSans-74" transform="translate(39.013672 0)"/>
     <use xlink:href="#DejaVuSans-72" transform="translate(78.222656 0)"/>
     <use xlink:href="#DejaVuSans-61" transform="translate(119.335938 0)"/>
     <use xlink:href="#DejaVuSans-69" transform="translate(180.615234 0)"/>
     <use xlink:href="#DejaVuSans-6e" transform="translate(208.398438 0)"/>
     <use xlink:href="#DejaVuSans-69" transform="translate(271.777344 0)"/>
     <use xlink:href="#DejaVuSans-6e" transform="translate(299.560547 0)"/>
     <use xlink:href="#DejaVuSans-67" transform="translate(362.939453 0)"/>
     <use xlink:href="#DejaVuSans-20" transform="translate(426.416016 0)"/>
     <use xlink:href="#DejaVuSans-69" transform="translate(458.203125 0)"/>
     <use xlink:href="#DejaVuSans-6e" transform="translate(485.986328 0)"/>
     <use xlink:href="#DejaVuSans-63" transform="translate(549.365234 0)"/>
     <use xlink:href="#DejaVuSans-6c" transform="translate(604.345703 0)"/>
     <use xlink:href="#DejaVuSans-75" transform="translate(632.128906 0)"/>
     <use xlink:href="#DejaVuSans-64" transform="translate(695.507812 0)"/>
     <use xlink:href="#DejaVuSans-65" transform="translate(758.984375 0)"/>
     <use xlink:href="#DejaVuSans-64" transform="translate(820.507812 0)"/>
     <use xlink:href="#DejaVuSans-29" transform="translate(883.984375 0)"/>
    </g>
   </g>
   <g id="text_15">
    <!-- Original local KDE -->
    <g style="fill: #252525" transform="translate(577.174234 107.754362) scale(0.1 -0.1)">
     <defs>
      <path id="DejaVuSans-4f" d="M 2522 4238 
Q 1834 4238 1429 3725 
Q 1025 3213 1025 2328 
Q 1025 1447 1429 934 
Q 1834 422 2522 422 
Q 3209 422 3611 934 
Q 4013 1447 4013 2328 
Q 4013 3213 3611 3725 
Q 3209 4238 2522 4238 
z
M 2522 4750 
Q 3503 4750 4090 4092 
Q 4678 3434 4678 2328 
Q 4678 1225 4090 567 
Q 3503 -91 2522 -91 
Q 1538 -91 948 565 
Q 359 1222 359 2328 
Q 359 3434 948 4092 
Q 1538 4750 2522 4750 
z
" transform="scale(0.015625)"/>
      <path id="DejaVuSans-4b" d="M 628 4666 
L 1259 4666 
L 1259 2694 
L 3353 4666 
L 4166 4666 
L 1850 2491 
L 4331 0 
L 3500 0 
L 1259 2247 
L 1259 0 
L 628 0 
L 628 4666 
z
" transform="scale(0.015625)"/>
      <path id="DejaVuSans-44" d="M 1259 4147 
L 1259 519 
L 2022 519 
Q 2988 519 3436 956 
Q 3884 1394 3884 2338 
Q 3884 3275 3436 3711 
Q 2988 4147 2022 4147 
L 1259 4147 
z
M 628 4666 
L 1925 4666 
Q 3281 4666 3915 4102 
Q 4550 3538 4550 2338 
Q 4550 1131 3912 565 
Q 3275 0 1925 0 
L 628 0 
L 628 4666 
z
" transform="scale(0.015625)"/>
     </defs>
     <use xlink:href="#DejaVuSans-4f"/>
     <use xlink:href="#DejaVuSans-72" transform="translate(78.710938 0)"/>
     <use xlink:href="#DejaVuSans-69" transform="translate(119.824219 0)"/>
     <use xlink:href="#DejaVuSans-67" transform="translate(147.607422 0)"/>
     <use xlink:href="#DejaVuSans-69" transform="translate(211.083984 0)"/>
     <use xlink:href="#DejaVuSans-6e" transform="translate(238.867188 0)"/>
     <use xlink:href="#DejaVuSans-61" transform="translate(302.246094 0)"/>
     <use xlink:href="#DejaVuSans-6c" transform="translate(363.525391 0)"/>
     <use xlink:href="#DejaVuSans-20" transform="translate(391.308594 0)"/>
     <use xlink:href="#DejaVuSans-6c" transform="translate(423.095703 0)"/>
     <use xlink:href="#DejaVuSans-6f" transform="translate(450.878906 0)"/>
     <use xlink:href="#DejaVuSans-63" transform="translate(512.060547 0)"/>
     <use xlink:href="#DejaVuSans-61" transform="translate(567.041016 0)"/>
     <use xlink:href="#DejaVuSans-6c" transform="translate(628.320312 0)"/>
     <use xlink:href="#DejaVuSans-20" transform="translate(656.103516 0)"/>
     <use xlink:href="#DejaVuSans-4b" transform="translate(687.890625 0)"/>
     <use xlink:href="#DejaVuSans-44" transform="translate(753.466797 0)"/>
     <use xlink:href="#DejaVuSans-45" transform="translate(830.46875 0)"/>
    </g>
   </g>
   <g id="text_16">
    <!-- Corrected pooled KDE -->
    <g style="fill: #252525" transform="translate(591.37682 405.431276) scale(0.1 -0.1)">
     <defs>
      <path id="DejaVuSans-43" d="M 4122 4306 
L 4122 3641 
Q 3803 3938 3442 4084 
Q 3081 4231 2675 4231 
Q 1875 4231 1450 3742 
Q 1025 3253 1025 2328 
Q 1025 1406 1450 917 
Q 1875 428 2675 428 
Q 3081 428 3442 575 
Q 3803 722 4122 1019 
L 4122 359 
Q 3791 134 3420 21 
Q 3050 -91 2638 -91 
Q 1578 -91 968 557 
Q 359 1206 359 2328 
Q 359 3453 968 4101 
Q 1578 4750 2638 4750 
Q 3056 4750 3426 4639 
Q 3797 4528 4122 4306 
z
" transform="scale(0.015625)"/>
     </defs>
     <use xlink:href="#DejaVuSans-43"/>
     <use xlink:href="#DejaVuSans-6f" transform="translate(69.824219 0)"/>
     <use xlink:href="#DejaVuSans-72" transform="translate(131.005859 0)"/>
     <use xlink:href="#DejaVuSans-72" transform="translate(170.369141 0)"/>
     <use xlink:href="#DejaVuSans-65" transform="translate(209.232422 0)"/>
     <use xlink:href="#DejaVuSans-63" transform="translate(270.755859 0)"/>
     <use xlink:href="#DejaVuSans-74" transform="translate(325.736328 0)"/>
     <use xlink:href="#DejaVuSans-65" transform="translate(364.945312 0)"/>
     <use xlink:href="#DejaVuSans-64" transform="translate(426.46875 0)"/>
     <use xlink:href="#DejaVuSans-20" transform="translate(489.945312 0)"/>
     <use xlink:href="#DejaVuSans-70" transform="translate(521.732422 0)"/>
     <use xlink:href="#DejaVuSans-6f" transform="translate(585.208984 0)"/>
     <use xlink:href="#DejaVuSans-6f" transform="translate(646.390625 0)"/>
     <use xlink:href="#DejaVuSans-6c" transform="translate(707.572266 0)"/>
     <use xlink:href="#DejaVuSans-65" transform="translate(735.355469 0)"/>
     <use xlink:href="#DejaVuSans-64" transform="translate(796.878906 0)"/>
     <use xlink:href="#DejaVuSans-20" transform="translate(860.355469 0)"/>
     <use xlink:href="#DejaVuSans-4b" transform="translate(892.142578 0)"/>
     <use xlink:href="#DejaVuSans-44" transform="translate(957.71875 0)"/>
     <use xlink:href="#DejaVuSans-45" transform="translate(1034.720703 0)"/>
    </g>
   </g>
   <g id="text_17">
    <!-- High-budget local KDE -->
    <g style="fill: #252525" transform="translate(582.469915 335.573906) scale(0.1 -0.1)">
     <defs>
      <path id="DejaVuSans-48" d="M 628 4666 
L 1259 4666 
L 1259 2753 
L 3553 2753 
L 3553 4666 
L 4184 4666 
L 4184 0 
L 3553 0 
L 3553 2222 
L 1259 2222 
L 1259 0 
L 628 0 
L 628 4666 
z
" transform="scale(0.015625)"/>
      <path id="DejaVuSans-62" d="M 3116 1747 
Q 3116 2381 2855 2742 
Q 2594 3103 2138 3103 
Q 1681 3103 1420 2742 
Q 1159 2381 1159 1747 
Q 1159 1113 1420 752 
Q 1681 391 2138 391 
Q 2594 391 2855 752 
Q 3116 1113 3116 1747 
z
M 1159 2969 
Q 1341 3281 1617 3432 
Q 1894 3584 2278 3584 
Q 2916 3584 3314 3078 
Q 3713 2572 3713 1747 
Q 3713 922 3314 415 
Q 2916 -91 2278 -91 
Q 1894 -91 1617 61 
Q 1341 213 1159 525 
L 1159 0 
L 581 0 
L 581 4863 
L 1159 4863 
L 1159 2969 
z
" transform="scale(0.015625)"/>
     </defs>
     <use xlink:href="#DejaVuSans-48"/>
     <use xlink:href="#DejaVuSans-69" transform="translate(75.195312 0)"/>
     <use xlink:href="#DejaVuSans-67" transform="translate(102.978516 0)"/>
     <use xlink:href="#DejaVuSans-68" transform="translate(166.455078 0)"/>
     <use xlink:href="#DejaVuSans-2d" transform="translate(229.833984 0)"/>
     <use xlink:href="#DejaVuSans-62" transform="translate(265.917969 0)"/>
     <use xlink:href="#DejaVuSans-75" transform="translate(329.394531 0)"/>
     <use xlink:href="#DejaVuSans-64" transform="translate(392.773438 0)"/>
     <use xlink:href="#DejaVuSans-67" transform="translate(456.25 0)"/>
     <use xlink:href="#DejaVuSans-65" transform="translate(519.726562 0)"/>
     <use xlink:href="#DejaVuSans-74" transform="translate(581.25 0)"/>
     <use xlink:href="#DejaVuSans-20" transform="translate(620.458984 0)"/>
     <use xlink:href="#DejaVuSans-6c" transform="translate(652.246094 0)"/>
     <use xlink:href="#DejaVuSans-6f" transform="translate(680.029297 0)"/>
     <use xlink:href="#DejaVuSans-63" transform="translate(741.210938 0)"/>
     <use xlink:href="#DejaVuSans-61" transform="translate(796.191406 0)"/>
     <use xlink:href="#DejaVuSans-6c" transform="translate(857.470703 0)"/>
     <use xlink:href="#DejaVuSans-20" transform="translate(885.253906 0)"/>
     <use xlink:href="#DejaVuSans-4b" transform="translate(917.041016 0)"/>
     <use xlink:href="#DejaVuSans-44" transform="translate(982.617188 0)"/>
     <use xlink:href="#DejaVuSans-45" transform="translate(1059.619141 0)"/>
    </g>
   </g>
   <g id="PathCollection_1">
    <defs>
     <path id="m4bf24b69eb" d="M 0 4.873397 
C 1.29244 4.873397 2.532119 4.359905 3.446012 3.446012 
C 4.359905 2.532119 4.873397 1.29244 4.873397 0 
C 4.873397 -1.29244 4.359905 -2.532119 3.446012 -3.446012 
C 2.532119 -4.359905 1.29244 -4.873397 0 -4.873397 
C -1.29244 -4.873397 -2.532119 -4.359905 -3.446012 -3.446012 
C -4.359905 -2.532119 -4.873397 -1.29244 -4.873397 0 
C -4.873397 1.29244 -4.359905 2.532119 -3.446012 3.446012 
C -2.532119 4.359905 -1.29244 4.873397 0 4.873397 
z
" style="stroke: #ffffff; stroke-width: 0.9"/>
    </defs>
    <g clip-path="url(#p8f3329461d)">
     <use xlink:href="#m4bf24b69eb" x="113.007273" y="351.974211" style="fill: #3f3f3f; stroke: #ffffff; stroke-width: 0.9"/>
    </g>
   </g>
   <g id="PathCollection_2">
    <defs>
     <path id="m4f737801ff" d="M 0 -6.708204 
L -1.506086 -2.072949 
L -6.379881 -2.072949 
L -2.436898 0.791796 
L -3.942983 5.427051 
L -0 2.562306 
L 3.942983 5.427051 
L 2.436898 0.791796 
L 6.379881 -2.072949 
L 1.506086 -2.072949 
z
" style="stroke: #ffffff; stroke-width: 0.9"/>
    </defs>
    <g clip-path="url(#p8f3329461d)">
     <use xlink:href="#m4f737801ff" x="361.316969" y="397.803989" style="fill: #0072b2; stroke: #ffffff; stroke-width: 0.9"/>
    </g>
   </g>
   <g id="PathCollection_3">
    <defs>
     <path id="m39d2f0f57c" d="M 0 4.873397 
C 1.29244 4.873397 2.532119 4.359905 3.446012 3.446012 
C 4.359905 2.532119 4.873397 1.29244 4.873397 0 
C 4.873397 -1.29244 4.359905 -2.532119 3.446012 -3.446012 
C 2.532119 -4.359905 1.29244 -4.873397 0 -4.873397 
C -1.29244 -4.873397 -2.532119 -4.359905 -3.446012 -3.446012 
C -4.359905 -2.532119 -4.873397 -1.29244 -4.873397 0 
C -4.873397 1.29244 -4.359905 2.532119 -3.446012 3.446012 
C -2.532119 4.359905 -1.29244 4.873397 0 4.873397 
z
" style="stroke: #ffffff; stroke-width: 0.9"/>
    </defs>
    <g clip-path="url(#p8f3329461d)">
     <use xlink:href="#m39d2f0f57c" x="569.174234" y="111.754362" style="fill: #e69f00; stroke: #ffffff; stroke-width: 0.9"/>
    </g>
   </g>
   <g id="PathCollection_4">
    <defs>
     <path id="m57338dda36" d="M 0 4.873397 
C 1.29244 4.873397 2.532119 4.359905 3.446012 3.446012 
C 4.359905 2.532119 4.873397 1.29244 4.873397 0 
C 4.873397 -1.29244 4.359905 -2.532119 3.446012 -3.446012 
C 2.532119 -4.359905 1.29244 -4.873397 0 -4.873397 
C -1.29244 -4.873397 -2.532119 -4.359905 -3.446012 -3.446012 
C -4.359905 -2.532119 -4.873397 -1.29244 -4.873397 0 
C -4.873397 1.29244 -4.359905 2.532119 -3.446012 3.446012 
C -2.532119 4.359905 -1.29244 4.873397 0 4.873397 
z
" style="stroke: #ffffff; stroke-width: 0.9"/>
    </defs>
    <g clip-path="url(#p8f3329461d)">
     <use xlink:href="#m57338dda36" x="583.37682" y="389.431276" style="fill: #7b3294; stroke: #ffffff; stroke-width: 0.9"/>
    </g>
   </g>
   <g id="PathCollection_5">
    <defs>
     <path id="m861f0c1bb6" d="M 0 4.873397 
C 1.29244 4.873397 2.532119 4.359905 3.446012 3.446012 
C 4.359905 2.532119 4.873397 1.29244 4.873397 0 
C 4.873397 -1.29244 4.359905 -2.532119 3.446012 -3.446012 
C 2.532119 -4.359905 1.29244 -4.873397 0 -4.873397 
C -1.29244 -4.873397 -2.532119 -4.359905 -3.446012 -3.446012 
C -4.359905 -2.532119 -4.873397 -1.29244 -4.873397 0 
C -4.873397 1.29244 -4.359905 2.532119 -3.446012 3.446012 
C -2.532119 4.359905 -1.29244 4.873397 0 4.873397 
z
" style="stroke: #ffffff; stroke-width: 0.9"/>
    </defs>
    <g clip-path="url(#p8f3329461d)">
     <use xlink:href="#m861f0c1bb6" x="702.752727" y="342.573906" style="fill: #d55e00; stroke: #ffffff; stroke-width: 0.9"/>
    </g>
   </g>
  </g>
  <g id="text_18">
   <!-- Neural likelihood reaches low error at much lower computational cost -->
   <g style="fill: #252525" transform="translate(7.2 20.877187) scale(0.18 -0.18)">
    <defs>
     <path id="DejaVuSans-77" d="M 269 3500 
L 844 3500 
L 1563 769 
L 2278 3500 
L 2956 3500 
L 3675 769 
L 4391 3500 
L 4966 3500 
L 4050 0 
L 3372 0 
L 2619 2869 
L 1863 0 
L 1184 0 
L 269 3500 
z
" transform="scale(0.015625)"/>
    </defs>
    <use xlink:href="#DejaVuSans-4e"/>
    <use xlink:href="#DejaVuSans-65" transform="translate(74.804688 0)"/>
    <use xlink:href="#DejaVuSans-75" transform="translate(136.328125 0)"/>
    <use xlink:href="#DejaVuSans-72" transform="translate(199.707031 0)"/>
    <use xlink:href="#DejaVuSans-61" transform="translate(240.820312 0)"/>
    <use xlink:href="#DejaVuSans-6c" transform="translate(302.099609 0)"/>
    <use xlink:href="#DejaVuSans-20" transform="translate(329.882812 0)"/>
    <use xlink:href="#DejaVuSans-6c" transform="translate(361.669922 0)"/>
    <use xlink:href="#DejaVuSans-69" transform="translate(389.453125 0)"/>
    <use xlink:href="#DejaVuSans-6b" transform="translate(417.236328 0)"/>
    <use xlink:href="#DejaVuSans-65" transform="translate(471.521484 0)"/>
    <use xlink:href="#DejaVuSans-6c" transform="translate(533.044922 0)"/>
    <use xlink:href="#DejaVuSans-69" transform="translate(560.828125 0)"/>
    <use xlink:href="#DejaVuSans-68" transform="translate(588.611328 0)"/>
    <use xlink:href="#DejaVuSans-6f" transform="translate(651.990234 0)"/>
    <use xlink:href="#DejaVuSans-6f" transform="translate(713.171875 0)"/>
    <use xlink:href="#DejaVuSans-64" transform="translate(774.353516 0)"/>
    <use xlink:href="#DejaVuSans-20" transform="translate(837.830078 0)"/>
    <use xlink:href="#DejaVuSans-72" transform="translate(869.617188 0)"/>
    <use xlink:href="#DejaVuSans-65" transform="translate(908.480469 0)"/>
    <use xlink:href="#DejaVuSans-61" transform="translate(970.003906 0)"/>
    <use xlink:href="#DejaVuSans-63" transform="translate(1031.283203 0)"/>
    <use xlink:href="#DejaVuSans-68" transform="translate(1086.263672 0)"/>
    <use xlink:href="#DejaVuSans-65" transform="translate(1149.642578 0)"/>
    <use xlink:href="#DejaVuSans-73" transform="translate(1211.166016 0)"/>
    <use xlink:href="#DejaVuSans-20" transform="translate(1263.265625 0)"/>
    <use xlink:href="#DejaVuSans-6c" transform="translate(1295.052734 0)"/>
    <use xlink:href="#DejaVuSans-6f" transform="translate(1322.835938 0)"/>
    <use xlink:href="#DejaVuSans-77" transform="translate(1384.017578 0)"/>
    <use xlink:href="#DejaVuSans-20" transform="translate(1465.804688 0)"/>
    <use xlink:href="#DejaVuSans-65" transform="translate(1497.591797 0)"/>
    <use xlink:href="#DejaVuSans-72" transform="translate(1559.115234 0)"/>
    <use xlink:href="#DejaVuSans-72" transform="translate(1598.478516 0)"/>
    <use xlink:href="#DejaVuSans-6f" transform="translate(1637.341797 0)"/>
    <use xlink:href="#DejaVuSans-72" transform="translate(1698.523438 0)"/>
    <use xlink:href="#DejaVuSans-20" transform="translate(1739.636719 0)"/>
    <use xlink:href="#DejaVuSans-61" transform="translate(1771.423828 0)"/>
    <use xlink:href="#DejaVuSans-74" transform="translate(1832.703125 0)"/>
    <use xlink:href="#DejaVuSans-20" transform="translate(1871.912109 0)"/>
    <use xlink:href="#DejaVuSans-6d" transform="translate(1903.699219 0)"/>
    <use xlink:href="#DejaVuSans-75" transform="translate(2001.111328 0)"/>
    <use xlink:href="#DejaVuSans-63" transform="translate(2064.490234 0)"/>
    <use xlink:href="#DejaVuSans-68" transform="translate(2119.470703 0)"/>
    <use xlink:href="#DejaVuSans-20" transform="translate(2182.849609 0)"/>
    <use xlink:href="#DejaVuSans-6c" transform="translate(2214.636719 0)"/>
    <use xlink:href="#DejaVuSans-6f" transform="translate(2242.419922 0)"/>
    <use xlink:href="#DejaVuSans-77" transform="translate(2303.601562 0)"/>
    <use xlink:href="#DejaVuSans-65" transform="translate(2385.388672 0)"/>
    <use xlink:href="#DejaVuSans-72" transform="translate(2446.912109 0)"/>
    <use xlink:href="#DejaVuSans-20" transform="translate(2488.025391 0)"/>
    <use xlink:href="#DejaVuSans-63" transform="translate(2519.8125 0)"/>
    <use xlink:href="#DejaVuSans-6f" transform="translate(2574.792969 0)"/>
    <use xlink:href="#DejaVuSans-6d" transform="translate(2635.974609 0)"/>
    <use xlink:href="#DejaVuSans-70" transform="translate(2733.386719 0)"/>
    <use xlink:href="#DejaVuSans-75" transform="translate(2796.863281 0)"/>
    <use xlink:href="#DejaVuSans-74" transform="translate(2860.242188 0)"/>
    <use xlink:href="#DejaVuSans-61" transform="translate(2899.451172 0)"/>
    <use xlink:href="#DejaVuSans-74" transform="translate(2960.730469 0)"/>
    <use xlink:href="#DejaVuSans-69" transform="translate(2999.939453 0)"/>
    <use xlink:href="#DejaVuSans-6f" transform="translate(3027.722656 0)"/>
    <use xlink:href="#DejaVuSans-6e" transform="translate(3088.904297 0)"/>
    <use xlink:href="#DejaVuSans-61" transform="translate(3152.283203 0)"/>
    <use xlink:href="#DejaVuSans-6c" transform="translate(3213.5625 0)"/>
    <use xlink:href="#DejaVuSans-20" transform="translate(3241.345703 0)"/>
    <use xlink:href="#DejaVuSans-63" transform="translate(3273.132812 0)"/>
    <use xlink:href="#DejaVuSans-6f" transform="translate(3328.113281 0)"/>
    <use xlink:href="#DejaVuSans-73" transform="translate(3389.294922 0)"/>
    <use xlink:href="#DejaVuSans-74" transform="translate(3441.394531 0)"/>
   </g>
  </g>
  <g id="text_19">
   <!-- One DDM fit; the neural-likelihood time includes simulation, training, and hierarchical fitting. -->
   <g style="fill: #666666" transform="translate(7.2 36.576) scale(0.105 -0.105)">
    <defs>
     <path id="DejaVuSans-66" d="M 2375 4863 
L 2375 4384 
L 1825 4384 
Q 1516 4384 1395 4259 
Q 1275 4134 1275 3809 
L 1275 3500 
L 2222 3500 
L 2222 3053 
L 1275 3053 
L 1275 0 
L 697 0 
L 697 3053 
L 147 3053 
L 147 3500 
L 697 3500 
L 697 3744 
Q 697 4328 969 4595 
Q 1241 4863 1831 4863 
L 2375 4863 
z
" transform="scale(0.015625)"/>
     <path id="DejaVuSans-3b" d="M 750 3309 
L 1409 3309 
L 1409 2516 
L 750 2516 
L 750 3309 
z
M 750 794 
L 1409 794 
L 1409 256 
L 897 -744 
L 494 -744 
L 750 256 
L 750 794 
z
" transform="scale(0.015625)"/>
    </defs>
    <use xlink:href="#DejaVuSans-4f"/>
    <use xlink:href="#DejaVuSans-6e" transform="translate(78.710938 0)"/>
    <use xlink:href="#DejaVuSans-65" transform="translate(142.089844 0)"/>
    <use xlink:href="#DejaVuSans-20" transform="translate(203.613281 0)"/>
    <use xlink:href="#DejaVuSans-44" transform="translate(235.400391 0)"/>
    <use xlink:href="#DejaVuSans-44" transform="translate(312.402344 0)"/>
    <use xlink:href="#DejaVuSans-4d" transform="translate(389.404297 0)"/>
    <use xlink:href="#DejaVuSans-20" transform="translate(475.683594 0)"/>
    <use xlink:href="#DejaVuSans-66" transform="translate(507.470703 0)"/>
    <use xlink:href="#DejaVuSans-69" transform="translate(542.675781 0)"/>
    <use xlink:href="#DejaVuSans-74" transform="translate(570.458984 0)"/>
    <use xlink:href="#DejaVuSans-3b" transform="translate(609.667969 0)"/>
    <use xlink:href="#DejaVuSans-20" transform="translate(643.359375 0)"/>
    <use xlink:href="#DejaVuSans-74" transform="translate(675.146484 0)"/>
    <use xlink:href="#DejaVuSans-68" transform="translate(714.355469 0)"/>
    <use xlink:href="#DejaVuSans-65" transform="translate(777.734375 0)"/>
    <use xlink:href="#DejaVuSans-20" transform="translate(839.257812 0)"/>
    <use xlink:href="#DejaVuSans-6e" transform="translate(871.044922 0)"/>
    <use xlink:href="#DejaVuSans-65" transform="translate(934.423828 0)"/>
    <use xlink:href="#DejaVuSans-75" transform="translate(995.947266 0)"/>
    <use xlink:href="#DejaVuSans-72" transform="translate(1059.326172 0)"/>
    <use xlink:href="#DejaVuSans-61" transform="translate(1100.439453 0)"/>
    <use xlink:href="#DejaVuSans-6c" transform="translate(1161.71875 0)"/>
    <use xlink:href="#DejaVuSans-2d" transform="translate(1189.501953 0)"/>
    <use xlink:href="#DejaVuSans-6c" transform="translate(1225.585938 0)"/>
    <use xlink:href="#DejaVuSans-69" transform="translate(1253.369141 0)"/>
    <use xlink:href="#DejaVuSans-6b" transform="translate(1281.152344 0)"/>
    <use xlink:href="#DejaVuSans-65" transform="translate(1335.4375 0)"/>
    <use xlink:href="#DejaVuSans-6c" transform="translate(1396.960938 0)"/>
    <use xlink:href="#DejaVuSans-69" transform="translate(1424.744141 0)"/>
    <use xlink:href="#DejaVuSans-68" transform="translate(1452.527344 0)"/>
    <use xlink:href="#DejaVuSans-6f" transform="translate(1515.90625 0)"/>
    <use xlink:href="#DejaVuSans-6f" transform="translate(1577.087891 0)"/>
    <use xlink:href="#DejaVuSans-64" transform="translate(1638.269531 0)"/>
    <use xlink:href="#DejaVuSans-20" transform="translate(1701.746094 0)"/>
    <use xlink:href="#DejaVuSans-74" transform="translate(1733.533203 0)"/>
    <use xlink:href="#DejaVuSans-69" transform="translate(1772.742188 0)"/>
    <use xlink:href="#DejaVuSans-6d" transform="translate(1800.525391 0)"/>
    <use xlink:href="#DejaVuSans-65" transform="translate(1897.9375 0)"/>
    <use xlink:href="#DejaVuSans-20" transform="translate(1959.460938 0)"/>
    <use xlink:href="#DejaVuSans-69" transform="translate(1991.248047 0)"/>
    <use xlink:href="#DejaVuSans-6e" transform="translate(2019.03125 0)"/>
    <use xlink:href="#DejaVuSans-63" transform="translate(2082.410156 0)"/>
    <use xlink:href="#DejaVuSans-6c" transform="translate(2137.390625 0)"/>
    <use xlink:href="#DejaVuSans-75" transform="translate(2165.173828 0)"/>
    <use xlink:href="#DejaVuSans-64" transform="translate(2228.552734 0)"/>
    <use xlink:href="#DejaVuSans-65" transform="translate(2292.029297 0)"/>
    <use xlink:href="#DejaVuSans-73" transform="translate(2353.552734 0)"/>
    <use xlink:href="#DejaVuSans-20" transform="translate(2405.652344 0)"/>
    <use xlink:href="#DejaVuSans-73" transform="translate(2437.439453 0)"/>
    <use xlink:href="#DejaVuSans-69" transform="translate(2489.539062 0)"/>
    <use xlink:href="#DejaVuSans-6d" transform="translate(2517.322266 0)"/>
    <use xlink:href="#DejaVuSans-75" transform="translate(2614.734375 0)"/>
    <use xlink:href="#DejaVuSans-6c" transform="translate(2678.113281 0)"/>
    <use xlink:href="#DejaVuSans-61" transform="translate(2705.896484 0)"/>
    <use xlink:href="#DejaVuSans-74" transform="translate(2767.175781 0)"/>
    <use xlink:href="#DejaVuSans-69" transform="translate(2806.384766 0)"/>
    <use xlink:href="#DejaVuSans-6f" transform="translate(2834.167969 0)"/>
    <use xlink:href="#DejaVuSans-6e" transform="translate(2895.349609 0)"/>
    <use xlink:href="#DejaVuSans-2c" transform="translate(2958.728516 0)"/>
    <use xlink:href="#DejaVuSans-20" transform="translate(2990.515625 0)"/>
    <use xlink:href="#DejaVuSans-74" transform="translate(3022.302734 0)"/>
    <use xlink:href="#DejaVuSans-72" transform="translate(3061.511719 0)"/>
    <use xlink:href="#DejaVuSans-61" transform="translate(3102.625 0)"/>
    <use xlink:href="#DejaVuSans-69" transform="translate(3163.904297 0)"/>
    <use xlink:href="#DejaVuSans-6e" transform="translate(3191.6875 0)"/>
    <use xlink:href="#DejaVuSans-69" transform="translate(3255.066406 0)"/>
    <use xlink:href="#DejaVuSans-6e" transform="translate(3282.849609 0)"/>
    <use xlink:href="#DejaVuSans-67" transform="translate(3346.228516 0)"/>
    <use xlink:href="#DejaVuSans-2c" transform="translate(3409.705078 0)"/>
    <use xlink:href="#DejaVuSans-20" transform="translate(3441.492188 0)"/>
    <use xlink:href="#DejaVuSans-61" transform="translate(3473.279297 0)"/>
    <use xlink:href="#DejaVuSans-6e" transform="translate(3534.558594 0)"/>
    <use xlink:href="#DejaVuSans-64" transform="translate(3597.9375 0)"/>
    <use xlink:href="#DejaVuSans-20" transform="translate(3661.414062 0)"/>
    <use xlink:href="#DejaVuSans-68" transform="translate(3693.201172 0)"/>
    <use xlink:href="#DejaVuSans-69" transform="translate(3756.580078 0)"/>
    <use xlink:href="#DejaVuSans-65" transform="translate(3784.363281 0)"/>
    <use xlink:href="#DejaVuSans-72" transform="translate(3845.886719 0)"/>
    <use xlink:href="#DejaVuSans-61" transform="translate(3887 0)"/>
    <use xlink:href="#DejaVuSans-72" transform="translate(3948.279297 0)"/>
    <use xlink:href="#DejaVuSans-63" transform="translate(3987.142578 0)"/>
    <use xlink:href="#DejaVuSans-68" transform="translate(4042.123047 0)"/>
    <use xlink:href="#DejaVuSans-69" transform="translate(4105.501953 0)"/>
    <use xlink:href="#DejaVuSans-63" transform="translate(4133.285156 0)"/>
    <use xlink:href="#DejaVuSans-61" transform="translate(4188.265625 0)"/>
    <use xlink:href="#DejaVuSans-6c" transform="translate(4249.544922 0)"/>
    <use xlink:href="#DejaVuSans-20" transform="translate(4277.328125 0)"/>
    <use xlink:href="#DejaVuSans-66" transform="translate(4309.115234 0)"/>
    <use xlink:href="#DejaVuSans-69" transform="translate(4344.320312 0)"/>
    <use xlink:href="#DejaVuSans-74" transform="translate(4372.103516 0)"/>
    <use xlink:href="#DejaVuSans-74" transform="translate(4411.3125 0)"/>
    <use xlink:href="#DejaVuSans-69" transform="translate(4450.521484 0)"/>
    <use xlink:href="#DejaVuSans-6e" transform="translate(4478.304688 0)"/>
    <use xlink:href="#DejaVuSans-67" transform="translate(4541.683594 0)"/>
    <use xlink:href="#DejaVuSans-2e" transform="translate(4605.160156 0)"/>
   </g>
  </g>
  <g id="text_20">
   <!-- Queue waiting time is excluded. Times are observed SLURM allocations, not hardware-normalized benchmarks. -->
   <g style="fill: #666666" transform="translate(7.2 482.112) scale(0.09 -0.09)">
    <defs>
     <path id="DejaVuSans-51" d="M 2522 4238 
Q 1834 4238 1429 3725 
Q 1025 3213 1025 2328 
Q 1025 1447 1429 934 
Q 1834 422 2522 422 
Q 3209 422 3611 934 
Q 4013 1447 4013 2328 
Q 4013 3213 3611 3725 
Q 3209 4238 2522 4238 
z
M 3406 84 
L 4238 -825 
L 3475 -825 
L 2784 -78 
Q 2681 -84 2626 -87 
Q 2572 -91 2522 -91 
Q 1538 -91 948 567 
Q 359 1225 359 2328 
Q 359 3434 948 4092 
Q 1538 4750 2522 4750 
Q 3503 4750 4090 4092 
Q 4678 3434 4678 2328 
Q 4678 1516 4351 937 
Q 4025 359 3406 84 
z
" transform="scale(0.015625)"/>
     <path id="DejaVuSans-54" d="M -19 4666 
L 3928 4666 
L 3928 4134 
L 2272 4134 
L 2272 0 
L 1638 0 
L 1638 4134 
L -19 4134 
L -19 4666 
z
" transform="scale(0.015625)"/>
     <path id="DejaVuSans-4c" d="M 628 4666 
L 1259 4666 
L 1259 531 
L 3531 531 
L 3531 0 
L 628 0 
L 628 4666 
z
" transform="scale(0.015625)"/>
     <path id="DejaVuSans-55" d="M 556 4666 
L 1191 4666 
L 1191 1831 
Q 1191 1081 1462 751 
Q 1734 422 2344 422 
Q 2950 422 3222 751 
Q 3494 1081 3494 1831 
L 3494 4666 
L 4128 4666 
L 4128 1753 
Q 4128 841 3676 375 
Q 3225 -91 2344 -91 
Q 1459 -91 1007 375 
Q 556 841 556 1753 
L 556 4666 
z
" transform="scale(0.015625)"/>
     <path id="DejaVuSans-7a" d="M 353 3500 
L 3084 3500 
L 3084 2975 
L 922 459 
L 3084 459 
L 3084 0 
L 275 0 
L 275 525 
L 2438 3041 
L 353 3041 
L 353 3500 
z
" transform="scale(0.015625)"/>
    </defs>
    <use xlink:href="#DejaVuSans-51"/>
    <use xlink:href="#DejaVuSans-75" transform="translate(78.710938 0)"/>
    <use xlink:href="#DejaVuSans-65" transform="translate(142.089844 0)"/>
    <use xlink:href="#DejaVuSans-75" transform="translate(203.613281 0)"/>
    <use xlink:href="#DejaVuSans-65" transform="translate(266.992188 0)"/>
    <use xlink:href="#DejaVuSans-20" transform="translate(328.515625 0)"/>
    <use xlink:href="#DejaVuSans-77" transform="translate(360.302734 0)"/>
    <use xlink:href="#DejaVuSans-61" transform="translate(442.089844 0)"/>
    <use xlink:href="#DejaVuSans-69" transform="translate(503.369141 0)"/>
    <use xlink:href="#DejaVuSans-74" transform="translate(531.152344 0)"/>
    <use xlink:href="#DejaVuSans-69" transform="translate(570.361328 0)"/>
    <use xlink:href="#DejaVuSans-6e" transform="translate(598.144531 0)"/>
    <use xlink:href="#DejaVuSans-67" transform="translate(661.523438 0)"/>
    <use xlink:href="#DejaVuSans-20" transform="translate(725 0)"/>
    <use xlink:href="#DejaVuSans-74" transform="translate(756.787109 0)"/>
    <use xlink:href="#DejaVuSans-69" transform="translate(795.996094 0)"/>
    <use xlink:href="#DejaVuSans-6d" transform="translate(823.779297 0)"/>
    <use xlink:href="#DejaVuSans-65" transform="translate(921.191406 0)"/>
    <use xlink:href="#DejaVuSans-20" transform="translate(982.714844 0)"/>
    <use xlink:href="#DejaVuSans-69" transform="translate(1014.501953 0)"/>
    <use xlink:href="#DejaVuSans-73" transform="translate(1042.285156 0)"/>
    <use xlink:href="#DejaVuSans-20" transform="translate(1094.384766 0)"/>
    <use xlink:href="#DejaVuSans-65" transform="translate(1126.171875 0)"/>
    <use xlink:href="#DejaVuSans-78" transform="translate(1185.945312 0)"/>
    <use xlink:href="#DejaVuSans-63" transform="translate(1243.375 0)"/>
    <use xlink:href="#DejaVuSans-6c" transform="translate(1298.355469 0)"/>
    <use xlink:href="#DejaVuSans-75" transform="translate(1326.138672 0)"/>
    <use xlink:href="#DejaVuSans-64" transform="translate(1389.517578 0)"/>
    <use xlink:href="#DejaVuSans-65" transform="translate(1452.994141 0)"/>
    <use xlink:href="#DejaVuSans-64" transform="translate(1514.517578 0)"/>
    <use xlink:href="#DejaVuSans-2e" transform="translate(1577.994141 0)"/>
    <use xlink:href="#DejaVuSans-20" transform="translate(1609.78125 0)"/>
    <use xlink:href="#DejaVuSans-54" transform="translate(1641.568359 0)"/>
    <use xlink:href="#DejaVuSans-69" transform="translate(1699.527344 0)"/>
    <use xlink:href="#DejaVuSans-6d" transform="translate(1727.310547 0)"/>
    <use xlink:href="#DejaVuSans-65" transform="translate(1824.722656 0)"/>
    <use xlink:href="#DejaVuSans-73" transform="translate(1886.246094 0)"/>
    <use xlink:href="#DejaVuSans-20" transform="translate(1938.345703 0)"/>
    <use xlink:href="#DejaVuSans-61" transform="translate(1970.132812 0)"/>
    <use xlink:href="#DejaVuSans-72" transform="translate(2031.412109 0)"/>
    <use xlink:href="#DejaVuSans-65" transform="translate(2070.275391 0)"/>
    <use xlink:href="#DejaVuSans-20" transform="translate(2131.798828 0)"/>
    <use xlink:href="#DejaVuSans-6f" transform="translate(2163.585938 0)"/>
    <use xlink:href="#DejaVuSans-62" transform="translate(2224.767578 0)"/>
    <use xlink:href="#DejaVuSans-73" transform="translate(2288.244141 0)"/>
    <use xlink:href="#DejaVuSans-65" transform="translate(2340.34375 0)"/>
    <use xlink:href="#DejaVuSans-72" transform="translate(2401.867188 0)"/>
    <use xlink:href="#DejaVuSans-76" transform="translate(2442.980469 0)"/>
    <use xlink:href="#DejaVuSans-65" transform="translate(2502.160156 0)"/>
    <use xlink:href="#DejaVuSans-64" transform="translate(2563.683594 0)"/>
    <use xlink:href="#DejaVuSans-20" transform="translate(2627.160156 0)"/>
    <use xlink:href="#DejaVuSans-53" transform="translate(2658.947266 0)"/>
    <use xlink:href="#DejaVuSans-4c" transform="translate(2722.423828 0)"/>
    <use xlink:href="#DejaVuSans-55" transform="translate(2773.136719 0)"/>
    <use xlink:href="#DejaVuSans-52" transform="translate(2846.330078 0)"/>
    <use xlink:href="#DejaVuSans-4d" transform="translate(2915.8125 0)"/>
    <use xlink:href="#DejaVuSans-20" transform="translate(3002.091797 0)"/>
    <use xlink:href="#DejaVuSans-61" transform="translate(3033.878906 0)"/>
    <use xlink:href="#DejaVuSans-6c" transform="translate(3095.158203 0)"/>
    <use xlink:href="#DejaVuSans-6c" transform="translate(3122.941406 0)"/>
    <use xlink:href="#DejaVuSans-6f" transform="translate(3150.724609 0)"/>
    <use xlink:href="#DejaVuSans-63" transform="translate(3211.90625 0)"/>
    <use xlink:href="#DejaVuSans-61" transform="translate(3266.886719 0)"/>
    <use xlink:href="#DejaVuSans-74" transform="translate(3328.166016 0)"/>
    <use xlink:href="#DejaVuSans-69" transform="translate(3367.375 0)"/>
    <use xlink:href="#DejaVuSans-6f" transform="translate(3395.158203 0)"/>
    <use xlink:href="#DejaVuSans-6e" transform="translate(3456.339844 0)"/>
    <use xlink:href="#DejaVuSans-73" transform="translate(3519.71875 0)"/>
    <use xlink:href="#DejaVuSans-2c" transform="translate(3571.818359 0)"/>
    <use xlink:href="#DejaVuSans-20" transform="translate(3603.605469 0)"/>
    <use xlink:href="#DejaVuSans-6e" transform="translate(3635.392578 0)"/>
    <use xlink:href="#DejaVuSans-6f" transform="translate(3698.771484 0)"/>
    <use xlink:href="#DejaVuSans-74" transform="translate(3759.953125 0)"/>
    <use xlink:href="#DejaVuSans-20" transform="translate(3799.162109 0)"/>
    <use xlink:href="#DejaVuSans-68" transform="translate(3830.949219 0)"/>
    <use xlink:href="#DejaVuSans-61" transform="translate(3894.328125 0)"/>
    <use xlink:href="#DejaVuSans-72" transform="translate(3955.607422 0)"/>
    <use xlink:href="#DejaVuSans-64" transform="translate(3994.970703 0)"/>
    <use xlink:href="#DejaVuSans-77" transform="translate(4058.447266 0)"/>
    <use xlink:href="#DejaVuSans-61" transform="translate(4140.234375 0)"/>
    <use xlink:href="#DejaVuSans-72" transform="translate(4201.513672 0)"/>
    <use xlink:href="#DejaVuSans-65" transform="translate(4240.376953 0)"/>
    <use xlink:href="#DejaVuSans-2d" transform="translate(4301.900391 0)"/>
    <use xlink:href="#DejaVuSans-6e" transform="translate(4337.984375 0)"/>
    <use xlink:href="#DejaVuSans-6f" transform="translate(4401.363281 0)"/>
    <use xlink:href="#DejaVuSans-72" transform="translate(4462.544922 0)"/>
    <use xlink:href="#DejaVuSans-6d" transform="translate(4501.908203 0)"/>
    <use xlink:href="#DejaVuSans-61" transform="translate(4599.320312 0)"/>
    <use xlink:href="#DejaVuSans-6c" transform="translate(4660.599609 0)"/>
    <use xlink:href="#DejaVuSans-69" transform="translate(4688.382812 0)"/>
    <use xlink:href="#DejaVuSans-7a" transform="translate(4716.166016 0)"/>
    <use xlink:href="#DejaVuSans-65" transform="translate(4768.65625 0)"/>
    <use xlink:href="#DejaVuSans-64" transform="translate(4830.179688 0)"/>
    <use xlink:href="#DejaVuSans-20" transform="translate(4893.65625 0)"/>
    <use xlink:href="#DejaVuSans-62" transform="translate(4925.443359 0)"/>
    <use xlink:href="#DejaVuSans-65" transform="translate(4988.919922 0)"/>
    <use xlink:href="#DejaVuSans-6e" transform="translate(5050.443359 0)"/>
    <use xlink:href="#DejaVuSans-63" transform="translate(5113.822266 0)"/>
    <use xlink:href="#DejaVuSans-68" transform="translate(5168.802734 0)"/>
    <use xlink:href="#DejaVuSans-6d" transform="translate(5232.181641 0)"/>
    <use xlink:href="#DejaVuSans-61" transform="translate(5329.59375 0)"/>
    <use xlink:href="#DejaVuSans-72" transform="translate(5390.873047 0)"/>
    <use xlink:href="#DejaVuSans-6b" transform="translate(5431.986328 0)"/>
    <use xlink:href="#DejaVuSans-73" transform="translate(5489.896484 0)"/>
    <use xlink:href="#DejaVuSans-2e" transform="translate(5541.996094 0)"/>
   </g>
  </g>
 </g>
 <defs>
  <clipPath id="p8f3329461d">
   <rect x="83.52" y="78.192" width="648.72" height="342.72"/>
  </clipPath>
 </defs>
</svg>
