<?xml version="1.0" encoding="UTF-8" standalone="no"?>
<!-- Created with Inkscape (http://www.inkscape.org/) -->

<svg
   xmlns:dc="http://purl.org/dc/elements/1.1/"
   xmlns:cc="http://creativecommons.org/ns#"
   xmlns:rdf="http://www.w3.org/1999/02/22-rdf-syntax-ns#"
   xmlns:svg="http://www.w3.org/2000/svg"
   xmlns="http://www.w3.org/2000/svg"
   xmlns:sodipodi="http://sodipodi.sourceforge.net/DTD/sodipodi-0.dtd"
   xmlns:inkscape="http://www.inkscape.org/namespaces/inkscape"
   id="svg4650"
   version="1.1"
   inkscape:version="0.91 r13725"
   xml:space="preserve"
   width="595.50897"
   height="1026.0334"
   viewBox="0 0 595.50897 1026.0334"
   sodipodi:docname="Process_Learning_fig.svg"><metadata
     id="metadata4656"><rdf:RDF><cc:Work
         rdf:about=""><dc:format>image/svg+xml</dc:format><dc:type
           rdf:resource="http://purl.org/dc/dcmitype/StillImage" /><dc:title></dc:title></cc:Work></rdf:RDF></metadata><defs
     id="defs4654"><clipPath
       clipPathUnits="userSpaceOnUse"
       id="clipPath4666"><path
         d="m 0,0 1500,0 0,1000 L 0,1000 0,0 Z"
         id="path4668"
         inkscape:connector-curvature="0" /></clipPath><clipPath
       clipPathUnits="userSpaceOnUse"
       id="clipPath4802"><path
         d="m 506.2563,127.8131 162.4047,0 0,67.55589 -162.4047,0 0,-67.55589 z"
         id="path4804"
         inkscape:connector-curvature="0" /></clipPath><clipPath
       clipPathUnits="userSpaceOnUse"
       id="clipPath4822"><path
         d="m 0,0 1500,0 0,1000 L 0,1000 0,0 Z"
         id="path4824"
         inkscape:connector-curvature="0" /></clipPath><clipPath
       clipPathUnits="userSpaceOnUse"
       id="clipPath4872"><path
         d="m 506.2563,347.532 162.4047,0 0,69.86384 -162.4047,0 0,-69.86384 z"
         id="path4874"
         inkscape:connector-curvature="0" /></clipPath><clipPath
       clipPathUnits="userSpaceOnUse"
       id="clipPath4892"><path
         d="m 0,0 1500,0 0,1000 L 0,1000 0,0 Z"
         id="path4894"
         inkscape:connector-curvature="0" /></clipPath><clipPath
       clipPathUnits="userSpaceOnUse"
       id="clipPath4906"><path
         d="m 506.2563,570.648 162.4047,0 0,69.86384 -162.4047,0 0,-69.86384 z"
         id="path4908"
         inkscape:connector-curvature="0" /></clipPath><clipPath
       clipPathUnits="userSpaceOnUse"
       id="clipPath4926"><path
         d="m 377.8393,910.2296 744.3214,0 0,64.28571 -744.3214,0 0,-64.28571 z"
         id="path4928"
         inkscape:connector-curvature="0" /></clipPath><clipPath
       clipPathUnits="userSpaceOnUse"
       id="clipPath4940"><path
         d="m 0,0 1500,0 0,1000 L 0,1000 0,0 Z"
         id="path4942"
         inkscape:connector-curvature="0" /></clipPath><clipPath
       clipPathUnits="userSpaceOnUse"
       id="clipPath4954"><path
         d="m 763.1668,725.4376 177.3867,0 0,67.55589 -177.3867,0 0,-67.55589 z"
         id="path4956"
         inkscape:connector-curvature="0" /></clipPath><clipPath
       clipPathUnits="userSpaceOnUse"
       id="clipPath4974"><path
         d="m 0,0 1500,0 0,1000 L 0,1000 0,0 Z"
         id="path4976"
         inkscape:connector-curvature="0" /></clipPath><clipPath
       clipPathUnits="userSpaceOnUse"
       id="clipPath4988"><path
         d="m 799.633,325.5928 164.6024,0 0,67.55589 -164.6024,0 0,-67.55589 z"
         id="path4990"
         inkscape:connector-curvature="0" /></clipPath><clipPath
       clipPathUnits="userSpaceOnUse"
       id="clipPath5008"><path
         d="m 0,0 1500,0 0,1000 L 0,1000 0,0 Z"
         id="path5010"
         inkscape:connector-curvature="0" /></clipPath><clipPath
       clipPathUnits="userSpaceOnUse"
       id="clipPath5022"><path
         d="m 770.359,556.0393 164.6024,0 0,67.55589 -164.6024,0 0,-67.55589 z"
         id="path5024"
         inkscape:connector-curvature="0" /></clipPath></defs><sodipodi:namedview
     pagecolor="#ffffff"
     bordercolor="#666666"
     borderopacity="1"
     objecttolerance="10"
     gridtolerance="10"
     guidetolerance="10"
     inkscape:pageopacity="0"
     inkscape:pageshadow="2"
     inkscape:window-width="640"
     inkscape:window-height="480"
     id="namedview4652"
     showgrid="false"
     inkscape:zoom="0.63350761"
     inkscape:cx="297.75449"
     inkscape:cy="513.01672"
     inkscape:window-x="0"
     inkscape:window-y="0"
     inkscape:window-maximized="0"
     inkscape:current-layer="g4658" /><g
     id="g4658"
     inkscape:groupmode="layer"
     inkscape:label="Process_Learning_fig"
     transform="matrix(1.25,0,0,-1.25,-615.06362,1108.8831)"><g
       id="g4660" /><g
       id="g4662"><g
         id="g4664"
         clip-path="url(#clipPath4666)"><path
           d="m 0,0 1500,0 0,1000 L 0,1000 0,0 Z"
           style="fill:#ffffff;fill-opacity:1;fill-rule:nonzero;stroke:none"
           id="path4670"
           inkscape:connector-curvature="0" /><path
           d="m 544.962,295.7441 -19.8474,0 61.2096,51.709 61.2095,-51.709 -19.8473,0 0,-99.18 -82.7244,0 0,99.18 z"
           style="fill:#de6a0f;fill-opacity:1;fill-rule:nonzero;stroke:none"
           id="path4672"
           inkscape:connector-curvature="0" /><g
           id="g4674"
           transform="matrix(0,-1,-1,0,647.5337,347.4531)"><path
             d="m 51.709,102.5717 0,19.8474 L 0,61.20953 51.709,0 l 0,19.84733 99.1799,0 0,82.72437 -99.1799,0 z"
             style="fill:none;stroke:#fdfdc5;stroke-width:0.25;stroke-linecap:butt;stroke-linejoin:round;stroke-miterlimit:4;stroke-dasharray:none;stroke-opacity:1"
             id="path4676"
             inkscape:connector-curvature="0" /></g><g
           id="g4678"
           transform="matrix(1,0,0,-1,851.897,725.3126)"><path
             d="M 0,0 0.1272591,22.59361 0.1863998,33.09345"
             style="fill:none;stroke:#de6a10;stroke-width:21;stroke-linecap:butt;stroke-linejoin:miter;stroke-miterlimit:4;stroke-dasharray:none;stroke-opacity:1"
             id="path4680"
             inkscape:connector-curvature="0" /></g><path
           d="m 813.0249,702.4993 39.4387,-77.7791 38.56,78.2184 -77.9987,-0.4393 z"
           style="fill:#de6a10;fill-opacity:1;fill-rule:nonzero;stroke:none"
           id="path4682"
           inkscape:connector-curvature="0" /><g
           id="g4684"
           transform="matrix(1,0,0,-1,586.5049,869.2355)"><path
             d="M 0.05085245,227.5987 C -1.944133,23.05445 54.75964,-43.62098 170.1622,27.57238 l 8.7813,6.64589"
             style="fill:none;stroke:#de6a10;stroke-width:22;stroke-linecap:butt;stroke-linejoin:miter;stroke-miterlimit:4;stroke-dasharray:none;stroke-opacity:1"
             id="path4686"
             inkscape:connector-curvature="0" /></g><path
           d="m 732.0554,809.1223 89.6882,-16.7104 -40.4446,81.7767 -49.2436,-65.0663 z"
           style="fill:#de6a10;fill-opacity:1;fill-rule:nonzero;stroke:none"
           id="path4688"
           inkscape:connector-curvature="0" /><g
           id="g4690"
           transform="translate(756,826)"><text
             transform="scale(1,-1)"
             style="font-variant:normal;font-weight:bold;font-size:10px;font-family:Arial;-inkscape-font-specification:Arial-BoldMT;writing-mode:lr-tb;fill:#fdfdc5;fill-opacity:1;fill-rule:nonzero;stroke:none"
             id="text4692"><tspan
               x="0 8.3299999 13.892 20 26.108 28.886 34.993999 41.102001"
               y="0"
               sodipodi:role="line"
               id="tspan4694">Mapping </tspan></text>
</g><g
           id="g4696"
           transform="translate(753,815)"><text
             transform="scale(1,-1)"
             style="font-variant:normal;font-weight:bold;font-size:10px;font-family:Arial;-inkscape-font-specification:Arial-BoldMT;writing-mode:lr-tb;fill:#fdfdc5;fill-opacity:1;fill-rule:nonzero;stroke:none"
             id="text4698"><tspan
               x="0 6.6700001 10.562 16.67 19.448 25.01 30.572001 33.902 36.68 42.787998"
               y="0"
               sodipodi:role="line"
               id="tspan4700">Projection</tspan></text>
</g><g
           id="g4702"
           transform="translate(849,829)"><text
             transform="scale(1,-1)"
             style="font-variant:normal;font-weight:bold;font-size:18px;font-family:Arial;-inkscape-font-specification:Arial-BoldMT;writing-mode:lr-tb;fill:#3e4348;fill-opacity:1;fill-rule:nonzero;stroke:none"
             id="text4704"><tspan
               x="0 9.6588001 19.677601 26.690399 37.681198 47.700001"
               y="0"
               sodipodi:role="line"
               id="tspan4706">Target</tspan></text>
</g><g
           id="g4708"
           transform="matrix(1,0,0,-1,875.1946,821.7077)"><path
             d="M 0.4096013,0 0.1300827,20.62637 0.1165323,21.62628"
             style="fill:none;stroke:#53585f;stroke-width:2;stroke-linecap:butt;stroke-linejoin:miter;stroke-miterlimit:4;stroke-dasharray:none;stroke-opacity:1"
             id="path4710"
             inkscape:connector-curvature="0" /></g><path
           d="m 870.5251,801.1463 4.6695,-9.6641 4.9296,9.5341 -9.5991,0.13 z"
           style="fill:#53585f;fill-opacity:1;fill-rule:nonzero;stroke:none"
           id="path4712"
           inkscape:connector-curvature="0" /><g
           id="g4714"
           transform="translate(832,688)"><text
             transform="scale(1,-1)"
             style="font-variant:normal;font-weight:bold;font-size:10px;font-family:Arial;-inkscape-font-specification:Arial-BoldMT;writing-mode:lr-tb;fill:#fdfdc5;fill-opacity:1;fill-rule:nonzero;stroke:none"
             id="text4716"><tspan
               x="0 8.3299999 13.892 20 26.108 28.886 34.993999 41.102001"
               y="0"
               sodipodi:role="line"
               id="tspan4718">Mapping </tspan></text>
</g><g
           id="g4720"
           transform="translate(828,677)"><text
             transform="scale(1,-1)"
             style="font-variant:normal;font-weight:bold;font-size:10px;font-family:Arial;-inkscape-font-specification:Arial-BoldMT;writing-mode:lr-tb;fill:#fdfdc5;fill-opacity:1;fill-rule:nonzero;stroke:none"
             id="text4722"><tspan
               x="0 6.6700001 10.562 16.67 19.448 25.01 30.572001 33.902 36.68 42.787998"
               y="0"
               sodipodi:role="line"
               id="tspan4724">Projection</tspan></text>
</g><path
           d="m 550.962,517.7441 -19.8474,0 61.2096,51.709 61.2095,-51.709 -19.8474,0 0,-99.18 -82.7243,0 0,99.18 z"
           style="fill:#de6a0f;fill-opacity:1;fill-rule:nonzero;stroke:none"
           id="path4726"
           inkscape:connector-curvature="0" /><g
           id="g4728"
           transform="matrix(0,-1,-1,0,653.5337,569.4531)"><path
             d="m 51.709,102.5717 0,19.8474 L 0,61.20953 51.709,0 l 0,19.84733 99.1799,0 0,82.72437 -99.1799,0 z"
             style="fill:none;stroke:#fdfdc5;stroke-width:0.25;stroke-linecap:butt;stroke-linejoin:round;stroke-miterlimit:4;stroke-dasharray:none;stroke-opacity:1"
             id="path4730"
             inkscape:connector-curvature="0" /></g><g
           id="g4732"
           transform="translate(570,484)"><text
             transform="scale(1,-1)"
             style="font-variant:normal;font-weight:bold;font-size:11px;font-family:Arial;-inkscape-font-specification:Arial-BoldMT;writing-mode:lr-tb;fill:#fdfdc5;fill-opacity:1;fill-rule:nonzero;stroke:none"
             id="text4734"><tspan
               x="0 9.1630001 15.2812 22 28.7188 31.774599 38.493401 45.2122"
               y="0"
               sodipodi:role="line"
               id="tspan4736">Mapping </tspan></text>
</g><g
           id="g4738"
           transform="translate(566,472)"><text
             transform="scale(1,-1)"
             style="font-variant:normal;font-weight:bold;font-size:11px;font-family:Arial;-inkscape-font-specification:Arial-BoldMT;writing-mode:lr-tb;fill:#fdfdc5;fill-opacity:1;fill-rule:nonzero;stroke:none"
             id="text4740"><tspan
               x="0 7.3369999 11.6182 18.337 21.392799 27.511 33.6292 37.292198 40.348 47.066799"
               y="0"
               sodipodi:role="line"
               id="tspan4742">Projection</tspan></text>
</g><g
           id="g4744"
           transform="matrix(1,0,0,-1,881.735,555.9143)"><path
             d="M 0,0 0.9589229,83.90576 1.078916,94.4051"
             style="fill:none;stroke:#de6a10;stroke-width:21;stroke-linecap:butt;stroke-linejoin:miter;stroke-miterlimit:4;stroke-dasharray:none;stroke-opacity:1"
             id="path4746"
             inkscape:connector-curvature="0" /></g><path
           d="m 843.6964,471.5628 39.8889,-77.5492 38.106,78.4406 -77.9949,-0.8914 z"
           style="fill:#de6a10;fill-opacity:1;fill-rule:nonzero;stroke:none"
           id="path4748"
           inkscape:connector-curvature="0" /><g
           id="g4750"
           transform="translate(863,458)"><text
             transform="scale(1,-1)"
             style="font-variant:normal;font-weight:bold;font-size:10px;font-family:Arial;-inkscape-font-specification:Arial-BoldMT;writing-mode:lr-tb;fill:#fdfdc5;fill-opacity:1;fill-rule:nonzero;stroke:none"
             id="text4752"><tspan
               x="0 8.3299999 13.892 20 26.108 28.886 34.993999 41.102001"
               y="0"
               sodipodi:role="line"
               id="tspan4754">Mapping </tspan></text>
</g><g
           id="g4756"
           transform="translate(859,447)"><text
             transform="scale(1,-1)"
             style="font-variant:normal;font-weight:bold;font-size:10px;font-family:Arial;-inkscape-font-specification:Arial-BoldMT;writing-mode:lr-tb;fill:#fdfdc5;fill-opacity:1;fill-rule:nonzero;stroke:none"
             id="text4758"><tspan
               x="0 6.6700001 10.562 16.67 19.448 25.01 30.572001 33.902 36.68 42.787998"
               y="0"
               sodipodi:role="line"
               id="tspan4760">Projection</tspan></text>
</g><g
           id="g4762"
           transform="matrix(1,0,0,-1,633.5242,555.9123)"><path
             d="m 189.3823,0 c -0.009,43.12125 -33.54,68.56565 -100.59216,76.33318 l -11.99872,0.17938"
             style="fill:none;stroke:#70bf41;stroke-width:24;stroke-linecap:butt;stroke-linejoin:miter;stroke-miterlimit:4;stroke-dasharray:none;stroke-opacity:1"
             id="path4764"
             inkscape:connector-curvature="0" /></g><path
           d="m 721.6506,523.9742 -88.1264,-45.7225 89.4538,-43.0676 -1.3274,88.7901 z"
           style="fill:#70bf41;fill-opacity:1;fill-rule:nonzero;stroke:none"
           id="path4766"
           inkscape:connector-curvature="0" /><g
           id="g4768"
           transform="matrix(1,0,0,-1,627.231,324.9118)"><path
             d="M 228.7869,0 C 228.3877,39.66384 179.3262,61.69855 81.60243,66.10413 L 70.6,66.10789"
             style="fill:none;stroke:#70bf41;stroke-width:22;stroke-linecap:butt;stroke-linejoin:miter;stroke-miterlimit:4;stroke-dasharray:none;stroke-opacity:1"
             id="path4770"
             inkscape:connector-curvature="0" /></g><path
           d="m 708.817,299.6077 -81.586,-40.828 81.6139,-40.772 -0.0279,81.6 z"
           style="fill:#70bf41;fill-opacity:1;fill-rule:nonzero;stroke:none"
           id="path4772"
           inkscape:connector-curvature="0" /><g
           id="g4774"
           transform="translate(671,482)"><text
             transform="scale(1,-1)"
             style="font-variant:normal;font-weight:bold;font-size:10px;font-family:Arial;-inkscape-font-specification:Arial-BoldMT;writing-mode:lr-tb;fill:#fdfdc5;fill-opacity:1;fill-rule:nonzero;stroke:none"
             id="text4776"><tspan
               x="0 6.1079998 11.666 17.224001 21.112 27.219999 29.997999 36.105999"
               y="0"
               sodipodi:role="line"
               id="tspan4778">Learning</tspan></text>
</g><g
           id="g4780"
           transform="translate(671,482)"><text
             transform="matrix(1,0,0,-1,42.22656,0)"
             style="font-variant:normal;font-weight:bold;font-size:10px;font-family:'Lucida Grande';-inkscape-font-specification:LucidaGrande-Bold;writing-mode:lr-tb;fill:#fdfdc5;fill-opacity:1;fill-rule:nonzero;stroke:none"
             id="text4782"><tspan
               x="0"
               y="0"
               id="tspan4784"> </tspan></text>
</g><g
           id="g4786"
           transform="translate(668,471)"><text
             transform="scale(1,-1)"
             style="font-variant:normal;font-weight:bold;font-size:10px;font-family:Arial;-inkscape-font-specification:Arial-BoldMT;writing-mode:lr-tb;fill:#fdfdc5;fill-opacity:1;fill-rule:nonzero;stroke:none"
             id="text4788"><tspan
               x="0 6.6700001 10.562 16.67 19.448 25.01 30.572001 33.902 36.68 42.787998"
               y="0"
               sodipodi:role="line"
               id="tspan4790">Projection</tspan></text>
</g><path
           d="m 506.7031,196.369 161.5111,0 0,-69.5559 -161.5111,0 0,69.5559 z"
           style="fill:#ffe792;fill-opacity:0.77509999;fill-rule:nonzero;stroke:none"
           id="path4792"
           inkscape:connector-curvature="0" /><g
           id="g4794"
           transform="matrix(1,0,0,-1,506.7031,196.369)"><path
             d="m 0,0 161.5111,0 0,69.55589 L 0,69.55589 0,0 Z"
             style="fill:none;stroke:#fdfdc5;stroke-width:0.25;stroke-linecap:butt;stroke-linejoin:round;stroke-miterlimit:4;stroke-dasharray:none;stroke-opacity:1"
             id="path4796"
             inkscape:connector-curvature="0" /></g></g></g><g
       id="g4798"><g
         id="g4800"
         clip-path="url(#clipPath4802)"><g
           id="g4806"
           transform="translate(516,165)"><text
             transform="scale(1,-1)"
             style="font-variant:normal;font-weight:bold;font-size:12px;font-family:Arial;-inkscape-font-specification:Arial-BoldMT;writing-mode:lr-tb;fill:#000000;fill-opacity:1;fill-rule:nonzero;stroke:none"
             id="text4808"><tspan
               x="0 8.0039997 12.6744 20.004 26.6784 33.352798 40.027199 46.701599 50.035198 57.364799 64.694397 74.690399 81.364799 88.0392 95.368797 102.0432 109.3728 112.7064 119.3808 130.05119"
               y="0"
               sodipodi:role="line"
               id="tspan4810">ProcessingMechanism </tspan></text>
</g><g
           id="g4812"
           transform="translate(568,149)"><text
             transform="scale(1,-1)"
             style="font-variant:normal;font-weight:normal;font-size:11px;font-family:Arial;-inkscape-font-specification:ArialMT;writing-mode:lr-tb;fill:#000000;fill-opacity:1;fill-rule:nonzero;stroke:none"
             id="text4814"><tspan
               x="0 8.5558004 16.4956 19.551399 28.107201 31.163"
               y="0"
               sodipodi:role="line"
               id="tspan4816">ORIGIN</tspan></text>
</g></g></g><g
       id="g4818"><g
         id="g4820"
         clip-path="url(#clipPath4822)"><g
           id="g4826"
           transform="translate(565,263)"><text
             transform="scale(1,-1)"
             style="font-variant:normal;font-weight:bold;font-size:11px;font-family:Arial;-inkscape-font-specification:Arial-BoldMT;writing-mode:lr-tb;fill:#fdfdc5;fill-opacity:1;fill-rule:nonzero;stroke:none"
             id="text4828"><tspan
               x="0 9.1630001 15.2812 22 28.7188 31.774599 38.493401 45.2122"
               y="0"
               sodipodi:role="line"
               id="tspan4830">Mapping </tspan></text>
</g><g
           id="g4832"
           transform="translate(561,251)"><text
             transform="scale(1,-1)"
             style="font-variant:normal;font-weight:bold;font-size:11px;font-family:Arial;-inkscape-font-specification:Arial-BoldMT;writing-mode:lr-tb;fill:#fdfdc5;fill-opacity:1;fill-rule:nonzero;stroke:none"
             id="text4834"><tspan
               x="0 7.3369999 11.6182 18.337 21.392799 27.511 33.6292 37.292198 40.348 47.066799"
               y="0"
               sodipodi:role="line"
               id="tspan4836">Projection</tspan></text>
</g><g
           id="g4838"
           transform="translate(566,76)"><text
             transform="scale(1,-1)"
             style="font-variant:normal;font-weight:bold;font-size:18px;font-family:Arial;-inkscape-font-specification:Arial-BoldMT;writing-mode:lr-tb;fill:#3e4348;fill-opacity:1;fill-rule:nonzero;stroke:none"
             id="text4840"><tspan
               x="0 5.0004001 15.9948 26.989201 37.983601"
               y="0"
               sodipodi:role="line"
               id="tspan4842">Input</tspan></text>
</g><g
           id="g4844"
           transform="matrix(1,0,0,-1,587.7273,126.6815)"><path
             d="M 0.242678,31.53094 0.07388427,9.599717 0.06618797,8.599745"
             style="fill:none;stroke:#53585f;stroke-width:2;stroke-linecap:butt;stroke-linejoin:miter;stroke-miterlimit:4;stroke-dasharray:none;stroke-opacity:1"
             id="path4846"
             inkscape:connector-curvature="0" /></g><path
           d="m 592.6011,117.1187 -4.8738,9.5628 -4.7259,-9.6367 9.5997,0.0739 z"
           style="fill:#53585f;fill-opacity:1;fill-rule:nonzero;stroke:none"
           id="path4848"
           inkscape:connector-curvature="0" /><g
           id="g4850"
           transform="translate(657,262)"><text
             transform="scale(1,-1)"
             style="font-variant:normal;font-weight:bold;font-size:10px;font-family:Arial;-inkscape-font-specification:Arial-BoldMT;writing-mode:lr-tb;fill:#fdfdc5;fill-opacity:1;fill-rule:nonzero;stroke:none"
             id="text4852"><tspan
               x="0 6.1079998 11.666 17.224001 21.112 27.219999 29.997999 36.105999 42.214001"
               y="0"
               sodipodi:role="line"
               id="tspan4854">Learning </tspan></text>
</g><g
           id="g4856"
           transform="translate(654,251)"><text
             transform="scale(1,-1)"
             style="font-variant:normal;font-weight:bold;font-size:10px;font-family:Arial;-inkscape-font-specification:Arial-BoldMT;writing-mode:lr-tb;fill:#fdfdc5;fill-opacity:1;fill-rule:nonzero;stroke:none"
             id="text4858"><tspan
               x="0 6.6700001 10.562 16.67 19.448 25.01 30.572001 33.902 36.68 42.787998"
               y="0"
               sodipodi:role="line"
               id="tspan4860">Projection</tspan></text>
</g><path
           d="m 506.7031,418.3959 161.5111,0 0,-71.8639 -161.5111,0 0,71.8639 z"
           style="fill:#ffe792;fill-opacity:0.77509999;fill-rule:nonzero;stroke:none"
           id="path4862"
           inkscape:connector-curvature="0" /><g
           id="g4864"
           transform="matrix(1,0,0,-1,506.7031,418.3959)"><path
             d="m 0,0 161.5111,0 0,71.86384 L 0,71.86384 0,0 Z"
             style="fill:none;stroke:#fdfdc5;stroke-width:0.25;stroke-linecap:butt;stroke-linejoin:round;stroke-miterlimit:4;stroke-dasharray:none;stroke-opacity:1"
             id="path4866"
             inkscape:connector-curvature="0" /></g></g></g><g
       id="g4868"><g
         id="g4870"
         clip-path="url(#clipPath4872)"><g
           id="g4876"
           transform="translate(531,386)"><text
             transform="scale(1,-1)"
             style="font-variant:normal;font-weight:bold;font-size:12px;font-family:Arial;-inkscape-font-specification:Arial-BoldMT;writing-mode:lr-tb;fill:#000000;fill-opacity:1;fill-rule:nonzero;stroke:none"
             id="text4878"><tspan
               x="0 6.6683998 11.3388 18.013201 25.3428 32.0172 36.013199 42.687599 47.358002 57.354 64.028397 70.702797 78.032402 84.706802 92.0364 95.370003 102.0444 112.7148"
               y="0"
               sodipodi:role="line"
               id="tspan4880">TransferMechanism </tspan></text>
</g><g
           id="g4882"
           transform="translate(560,370)"><text
             transform="scale(1,-1)"
             style="font-variant:normal;font-weight:normal;font-size:11px;font-family:Arial;-inkscape-font-specification:ArialMT;writing-mode:lr-tb;fill:#000000;fill-opacity:1;fill-rule:nonzero;stroke:none"
             id="text4884"><tspan
               x="0 3.0558 11 17.7188 25.055799 33 40.944199 48.2812"
               y="0"
               sodipodi:role="line"
               id="tspan4886">INTERNAL</tspan></text>
</g></g></g><g
       id="g4888"><g
         id="g4890"
         clip-path="url(#clipPath4892)"><path
           d="m 506.7031,641.5118 161.5111,0 0,-71.8638 -161.5111,0 0,71.8638 z"
           style="fill:#ffe792;fill-opacity:0.77509999;fill-rule:nonzero;stroke:none"
           id="path4896"
           inkscape:connector-curvature="0" /><g
           id="g4898"
           transform="matrix(1,0,0,-1,506.7031,641.5118)"><path
             d="m 0,0 161.5111,0 0,71.86384 L 0,71.86384 0,0 Z"
             style="fill:none;stroke:#fdfdc5;stroke-width:0.25;stroke-linecap:butt;stroke-linejoin:round;stroke-miterlimit:4;stroke-dasharray:none;stroke-opacity:1"
             id="path4900"
             inkscape:connector-curvature="0" /></g></g></g><g
       id="g4902"><g
         id="g4904"
         clip-path="url(#clipPath4906)"><g
           id="g4910"
           transform="translate(531,610)"><text
             transform="scale(1,-1)"
             style="font-variant:normal;font-weight:bold;font-size:12px;font-family:Arial;-inkscape-font-specification:Arial-BoldMT;writing-mode:lr-tb;fill:#000000;fill-opacity:1;fill-rule:nonzero;stroke:none"
             id="text4912"><tspan
               x="0 6.6683998 11.3388 18.013201 25.3428 32.0172 36.013199 42.687599 47.358002 57.354 64.028397 70.702797 78.032402 84.706802 92.0364 95.370003 102.0444 112.7148"
               y="0"
               sodipodi:role="line"
               id="tspan4914">TransferMechanism </tspan></text>
</g><g
           id="g4916"
           transform="translate(560,593)"><text
             transform="scale(1,-1)"
             style="font-variant:normal;font-weight:normal;font-size:11px;font-family:Arial;-inkscape-font-specification:ArialMT;writing-mode:lr-tb;fill:#000000;fill-opacity:1;fill-rule:nonzero;stroke:none"
             id="text4918"><tspan
               x="0 6.7188001 14.0558 22 31.163 34.2188 42.162998 49.5"
               y="0"
               sodipodi:role="line"
               id="tspan4920">TERMINAL</tspan></text>
</g></g></g><g
       id="g4922"><g
         id="g4924"
         clip-path="url(#clipPath4926)"><g
           id="g4930"
           transform="translate(418,922)"><text
             transform="scale(1,-1)"
             style="font-variant:normal;font-weight:bold;font-size:54px;font-family:Helvetica;-inkscape-font-specification:Helvetica-Bold;writing-mode:lr-tb;fill:#000000;fill-opacity:1;fill-rule:nonzero;stroke:none"
             id="text4932"><tspan
               x="0 36.018002 57.034801 90.017998 120.0528 150.0876 180.12241 210.1572 240.192 273.1752 303.20999 333.24481 354.2616 387.24481 402.246 435.22919 468.2124 498.24719 531.23041 546.23163 579.21478 612.198 633.21478"
               y="0"
               sodipodi:role="line"
               id="tspan4934">Process_Learning_Figure</tspan></text>
</g></g></g><g
       id="g4936"><g
         id="g4938"
         clip-path="url(#clipPath4940)"><path
           d="m 763.6136,793.9934 176.4931,0 0,-69.5558 -176.4931,0 0,69.5558 z"
           style="fill:#ffe792;fill-opacity:0.77509999;fill-rule:nonzero;stroke:none"
           id="path4944"
           inkscape:connector-curvature="0" /><g
           id="g4946"
           transform="matrix(1,0,0,-1,763.6136,793.9934)"><path
             d="m 0,0 176.4931,0 0,69.55589 L 0,69.55589 0,0 Z"
             style="fill:none;stroke:#fdfdc5;stroke-width:0.25;stroke-linecap:butt;stroke-linejoin:round;stroke-miterlimit:4;stroke-dasharray:none;stroke-opacity:1"
             id="path4948"
             inkscape:connector-curvature="0" /></g></g></g><g
       id="g4950"><g
         id="g4952"
         clip-path="url(#clipPath4954)"><g
           id="g4958"
           transform="translate(785,763)"><text
             transform="scale(1,-1)"
             style="font-variant:normal;font-weight:bold;font-size:12px;font-family:Arial;-inkscape-font-specification:Arial-BoldMT;writing-mode:lr-tb;fill:#000000;fill-opacity:1;fill-rule:nonzero;stroke:none"
             id="text4960"><tspan
               x="0 8.6664 15.996 26.666401 33.995998 40.670399 45.340801 52.015202 56.0112 63.340801 68.0112 78.007202 84.681602 91.356003 98.6856 105.36 112.6896 116.0232 122.6976 133.368"
               y="0"
               sodipodi:role="line"
               id="tspan4962">ComparatorMechanism </tspan></text>
</g><g
           id="g4964"
           transform="translate(799,746)"><text
             transform="scale(1,-1)"
             style="font-variant:normal;font-weight:normal;font-size:11px;font-family:Arial;-inkscape-font-specification:ArialMT;writing-mode:lr-tb;fill:#000000;fill-opacity:1;fill-rule:nonzero;stroke:none"
             id="text4966"><tspan
               x="0 6.1181998 13.4552 20.7922 28.736401 36.680599 39.736401 47.680599 56.236401 62.354599 68.257202 75.5942 83.538399 92.0942 99.431198"
               y="0"
               sodipodi:role="line"
               id="tspan4968">LEARNING_TARGET</tspan></text>
</g></g></g><g
       id="g4970"><g
         id="g4972"
         clip-path="url(#clipPath4974)"><path
           d="m 800.0798,394.1486 163.7088,0 0,-69.5558 -163.7088,0 0,69.5558 z"
           style="fill:#ffe792;fill-opacity:0.77509999;fill-rule:nonzero;stroke:none"
           id="path4978"
           inkscape:connector-curvature="0" /><g
           id="g4980"
           transform="matrix(1,0,0,-1,800.0798,394.1486)"><path
             d="m 0,0 163.7088,0 0,69.55589 L 0,69.55589 0,0 Z"
             style="fill:none;stroke:#fdfdc5;stroke-width:0.25;stroke-linecap:butt;stroke-linejoin:round;stroke-miterlimit:4;stroke-dasharray:none;stroke-opacity:1"
             id="path4982"
             inkscape:connector-curvature="0" /></g></g></g><g
       id="g4984"><g
         id="g4986"
         clip-path="url(#clipPath4988)"><g
           id="g4992"
           transform="translate(824,363)"><text
             transform="scale(1,-1)"
             style="font-variant:normal;font-weight:bold;font-size:12px;font-family:Arial;-inkscape-font-specification:Arial-BoldMT;writing-mode:lr-tb;fill:#000000;fill-opacity:1;fill-rule:nonzero;stroke:none"
             id="text4994"><tspan
               x="0 7.3295999 14.004 20.6784 25.348801 32.678398 36.012001 43.341599 50.6712 60.667198 67.341599 74.015999 81.345596 88.019997 95.349602 98.683197 105.3576 116.028"
               y="0"
               sodipodi:role="line"
               id="tspan4996">LearningMechanism </tspan></text>
</g><g
           id="g4998"
           transform="translate(854,347)"><text
             transform="scale(1,-1)"
             style="font-variant:normal;font-weight:normal;font-size:11px;font-family:Arial;-inkscape-font-specification:ArialMT;writing-mode:lr-tb;fill:#000000;fill-opacity:1;fill-rule:nonzero;stroke:none"
             id="text5000"><tspan
               x="0 6.1181998 13.4552 20.7922 28.736401 36.680599 39.736401 47.680599"
               y="0"
               sodipodi:role="line"
               id="tspan5002">LEARNING</tspan></text>
</g></g></g><g
       id="g5004"><g
         id="g5006"
         clip-path="url(#clipPath5008)"><path
           d="m 770.8058,624.5952 163.7088,0 0,-69.5559 -163.7088,0 0,69.5559 z"
           style="fill:#ffe792;fill-opacity:0.77509999;fill-rule:nonzero;stroke:none"
           id="path5012"
           inkscape:connector-curvature="0" /><g
           id="g5014"
           transform="matrix(1,0,0,-1,770.8058,624.5952)"><path
             d="m 0,0 163.7088,0 0,69.55589 L 0,69.55589 0,0 Z"
             style="fill:none;stroke:#fdfdc5;stroke-width:0.25;stroke-linecap:butt;stroke-linejoin:round;stroke-miterlimit:4;stroke-dasharray:none;stroke-opacity:1"
             id="path5016"
             inkscape:connector-curvature="0" /></g></g></g><g
       id="g5018"><g
         id="g5020"
         clip-path="url(#clipPath5022)"><g
           id="g5026"
           transform="translate(795,594)"><text
             transform="scale(1,-1)"
             style="font-variant:normal;font-weight:bold;font-size:12px;font-family:Arial;-inkscape-font-specification:Arial-BoldMT;writing-mode:lr-tb;fill:#000000;fill-opacity:1;fill-rule:nonzero;stroke:none"
             id="text5028"><tspan
               x="0 7.3295999 14.004 20.6784 25.348801 32.678398 36.012001 43.341599 50.6712 60.667198 67.341599 74.015999 81.345596 88.019997 95.349602 98.683197 105.3576 116.028"
               y="0"
               sodipodi:role="line"
               id="tspan5030">LearningMechanism </tspan></text>
</g><g
           id="g5032"
           transform="translate(825,577)"><text
             transform="scale(1,-1)"
             style="font-variant:normal;font-weight:normal;font-size:11px;font-family:Arial;-inkscape-font-specification:ArialMT;writing-mode:lr-tb;fill:#000000;fill-opacity:1;fill-rule:nonzero;stroke:none"
             id="text5034"><tspan
               x="0 6.1181998 13.4552 20.7922 28.736401 36.680599 39.736401 47.680599"
               y="0"
               sodipodi:role="line"
               id="tspan5036">LEARNING</tspan></text>
</g></g></g></g></svg>