<?xml version="1.0" encoding="UTF-8" standalone="no"?>
<!-- Created with Inkscape (http://www.inkscape.org/) -->

<svg
   xmlns:dc="http://purl.org/dc/elements/1.1/"
   xmlns:cc="http://creativecommons.org/ns#"
   xmlns:rdf="http://www.w3.org/1999/02/22-rdf-syntax-ns#"
   xmlns:svg="http://www.w3.org/2000/svg"
   xmlns="http://www.w3.org/2000/svg"
   xmlns:sodipodi="http://sodipodi.sourceforge.net/DTD/sodipodi-0.dtd"
   xmlns:inkscape="http://www.inkscape.org/namespaces/inkscape"
   id="svg3503"
   version="1.1"
   inkscape:version="0.91 r13725"
   xml:space="preserve"
   width="860.78284"
   height="126.33178"
   viewBox="0 0 860.78284 126.33178"
   sodipodi:docname="Simple_Stroop_Example_fig.svg"><metadata
     id="metadata3509"><rdf:RDF><cc:Work
         rdf:about=""><dc:format>image/svg+xml</dc:format><dc:type
           rdf:resource="http://purl.org/dc/dcmitype/StillImage" /><dc:title></dc:title></cc:Work></rdf:RDF></metadata><defs
     id="defs3507"><clipPath
       clipPathUnits="userSpaceOnUse"
       id="clipPath3519"><path
         d="M 0,0 764,0 764,170 0,170 0,0 Z"
         id="path3521"
         inkscape:connector-curvature="0" /></clipPath></defs><sodipodi:namedview
     pagecolor="#ffffff"
     bordercolor="#666666"
     borderopacity="1"
     objecttolerance="10"
     gridtolerance="10"
     guidetolerance="10"
     inkscape:pageopacity="0"
     inkscape:pageshadow="2"
     inkscape:window-width="640"
     inkscape:window-height="480"
     id="namedview3505"
     showgrid="false"
     inkscape:zoom="1.5114149"
     inkscape:cx="430.39142"
     inkscape:cy="63.16589"
     inkscape:window-x="0"
     inkscape:window-y="0"
     inkscape:window-maximized="0"
     inkscape:current-layer="g3511" /><g
     id="g3511"
     inkscape:groupmode="layer"
     inkscape:label="Simple_Stroop_Example_fig"
     transform="matrix(1.25,0,0,-1.25,-46.742775,168.56625)"><g
       id="g3513" /><g
       id="g3515"><g
         id="g3517"
         clip-path="url(#clipPath3519)"><g
           id="g3523"
           transform="translate(40,40)"><path
             d="m 133.3142,72 c 0,9.94113 -29.8669,18 -66.70952,18 -36.84265,0 -66.7095288,-8.05887 -66.7095288,-18 0,-9.94113 29.8668788,-18 66.7095288,-18 36.84262,0 66.70952,8.05887 66.70952,18 z"
             style="fill:none;stroke:#000000;stroke-width:1;stroke-linecap:butt;stroke-linejoin:miter;stroke-miterlimit:10;stroke-dasharray:none;stroke-opacity:1"
             id="path3525"
             inkscape:connector-curvature="0" /></g><g
           id="g3527"
           transform="translate(40,40)"><text
             transform="matrix(1,0,0,-1,21.59882,69.29941)"
             style="font-variant:normal;font-weight:normal;font-size:12px;font-family:Arial;-inkscape-font-specification:ArialMT;writing-mode:lr-tb;fill:#000000;fill-opacity:1;fill-rule:nonzero;stroke:none"
             id="text3529"><tspan
               x="0 8.6664 18 24.6744 34.007999 42.6744 50.678398 54.012001 57.3456 66.012001 74.015999 82.682404"
               y="0"
               sodipodi:role="line"
               id="tspan3531">COLORS INPUT</tspan></text>
</g><g
           id="g3533"
           transform="translate(40,40)"><path
             d="m 343.0642,45 c 0,9.94113 -18.3969,18 -41.0907,18 -22.6938,0 -41.0908,-8.05887 -41.0908,-18 0,-9.94113 18.397,-18 41.0908,-18 22.6938,0 41.0907,8.05887 41.0907,18 z"
             style="fill:none;stroke:#000000;stroke-width:1;stroke-linecap:butt;stroke-linejoin:miter;stroke-miterlimit:10;stroke-dasharray:none;stroke-opacity:1"
             id="path3535"
             inkscape:connector-curvature="0" /></g><g
           id="g3537"
           transform="translate(40,40)"><text
             transform="matrix(1,0,0,-1,277.3084,42.29941)"
             style="font-variant:normal;font-weight:normal;font-size:12px;font-family:Arial;-inkscape-font-specification:ArialMT;writing-mode:lr-tb;fill:#000000;fill-opacity:1;fill-rule:nonzero;stroke:none"
             id="text3539"><tspan
               x="0 9.3336 18 25.329599 33.333599 42"
               y="0"
               sodipodi:role="line"
               id="tspan3541">OUTPUT</tspan></text>
</g><g
           id="g3543"
           transform="translate(40,40)"><path
             d="M 128.1376,64.94133 C 166.692,60.51862 215.7484,54.89119 251.9109,50.74285"
             style="fill:none;stroke:#000000;stroke-width:1;stroke-linecap:butt;stroke-linejoin:miter;stroke-miterlimit:10;stroke-dasharray:none;stroke-opacity:1"
             id="path3545"
             inkscape:connector-curvature="0" /></g><g
           id="g3547"
           transform="translate(40,40)"><path
             d="m 262.2206,49.5602 -9.422,5.61043 4.4546,-5.04056 -4.9675,0.56987 0,0 0,0 9.9349,-1.13974 z"
             style="fill:#000000;fill-opacity:1;fill-rule:nonzero;stroke:#000000;stroke-width:1;stroke-linecap:butt;stroke-linejoin:miter;stroke-miterlimit:10;stroke-dasharray:none;stroke-opacity:1"
             id="path3549"
             inkscape:connector-curvature="0" /></g><g
           id="g3551"
           transform="translate(40,40)"><text
             transform="matrix(1,0,0,-1,151.2094,64.49902)"
             style="font-variant:normal;font-weight:normal;font-size:10px;font-family:Arial;-inkscape-font-specification:ArialMT;writing-mode:lr-tb;fill:#000000;fill-opacity:1;fill-rule:nonzero;stroke:none"
             id="text3553"><tspan
               x="0 8.3299999 13.892 19.454 25.016001 27.238001 32.799999 38.362 45.032001 48.362 53.924 56.146 61.708 66.708 69.486 71.708 77.269997 82.832001 86.162003"
               y="0"
               sodipodi:role="line"
               id="tspan3555">MappingProjection-1</tspan></text>
</g><g
           id="g3557"
           transform="translate(40,40)"><path
             d="m 683.5588,45 c 0,9.94113 -20.8164,18 -46.4947,18 -25.6784,0 -46.4948,-8.05887 -46.4948,-18 0,-9.94113 20.8164,-18 46.4948,-18 25.6783,0 46.4947,8.05887 46.4947,18 z"
             style="fill:none;stroke:#000000;stroke-width:1;stroke-linecap:butt;stroke-linejoin:miter;stroke-miterlimit:10;stroke-dasharray:none;stroke-opacity:1"
             id="path3559"
             inkscape:connector-curvature="0" /></g><g
           id="g3561"
           transform="translate(40,40)"><text
             transform="matrix(1,0,0,-1,608.0602,42.29941)"
             style="font-variant:normal;font-weight:normal;font-size:12px;font-family:Arial;-inkscape-font-specification:ArialMT;writing-mode:lr-tb;fill:#000000;fill-opacity:1;fill-rule:nonzero;stroke:none"
             id="text3563"><tspan
               x="0 8.6664 16.670401 25.3368 28.670401 36.6744 40.007999 49.341599"
               y="0"
               sodipodi:role="line"
               id="tspan3565">DECISION</tspan></text>
</g><g
           id="g3567"
           transform="translate(40,40)"><path
             d="m 343.0622,45 c 59.5934,0 170.2164,0 237.4634,0"
             style="fill:none;stroke:#000000;stroke-width:1;stroke-linecap:butt;stroke-linejoin:miter;stroke-miterlimit:10;stroke-dasharray:none;stroke-opacity:1"
             id="path3569"
             inkscape:connector-curvature="0" /></g><g
           id="g3571"
           transform="translate(40,40)"><path
             d="m 590.5262,45 -10,4.5001 5,-4.50005 -5,5e-5 0,0 0,0 10,-1e-4 z"
             style="fill:#000000;fill-opacity:1;fill-rule:nonzero;stroke:#000000;stroke-width:1;stroke-linecap:butt;stroke-linejoin:miter;stroke-miterlimit:10;stroke-dasharray:none;stroke-opacity:1"
             id="path3573"
             inkscape:connector-curvature="0" /></g><g
           id="g3575"
           transform="translate(40,40)"><text
             transform="matrix(1,0,0,-1,361.0188,48.49902)"
             style="font-variant:normal;font-weight:normal;font-size:10px;font-family:Arial;-inkscape-font-specification:ArialMT;writing-mode:lr-tb;fill:#000000;fill-opacity:1;fill-rule:nonzero;stroke:none"
             id="text3577"><tspan
               x="0 8.3299999 13.892 19.454 25.016001 27.238001 32.799999 38.362 45.032001 48.362 53.924 56.146 61.708 66.708 69.486 71.708 77.269997 82.832001 85.610001 88.388 91.718002 97.279999 105.61 108.388 116.166 123.388 129.496 136.166 143.388 149.31599 152.09399 154.87199 160.43401 163.21201 170.43401 177.104 184.326 187.104 193.774 196.552 204.33"
               y="0"
               sodipodi:role="line"
               id="tspan3579">MappingProjection from OUTPUT to DECISION</tspan></text>
</g><g
           id="g3581"
           transform="translate(40,40)"><path
             d="m 130.4317,18 c 0,9.94113 -28.5763,18 -63.82702,18 C 31.35397,36 2.777627,27.94113 2.777627,18 2.777627,8.058875 31.35397,0 66.60468,0 101.8554,0 130.4317,8.058875 130.4317,18 Z"
             style="fill:none;stroke:#000000;stroke-width:1;stroke-linecap:butt;stroke-linejoin:miter;stroke-miterlimit:10;stroke-dasharray:none;stroke-opacity:1"
             id="path3583"
             inkscape:connector-curvature="0" /></g><g
           id="g3585"
           transform="translate(40,40)"><text
             transform="matrix(1,0,0,-1,23.93964,15.29941)"
             style="font-variant:normal;font-weight:normal;font-size:12px;font-family:Arial;-inkscape-font-specification:ArialMT;writing-mode:lr-tb;fill:#000000;fill-opacity:1;fill-rule:nonzero;stroke:none"
             id="text3587"><tspan
               x="0 11.3256 20.659201 29.3256 37.992001 45.995998 49.329601 52.6632 61.329601 69.333603 78"
               y="0"
               sodipodi:role="line"
               id="tspan3589">WORDS INPUT</tspan></text>
</g><g
           id="g3591"
           transform="translate(40,40)"><path
             d="m 127.059,23.76385 c 34.0678,3.39335 77.3832,7.94999 115.8691,12.73713 3.2374,0.40268 6.572,0.83495 9.931,1.28342"
             style="fill:none;stroke:#000000;stroke-width:1;stroke-linecap:butt;stroke-linejoin:miter;stroke-miterlimit:10;stroke-dasharray:none;stroke-opacity:1"
             id="path3593"
             inkscape:connector-curvature="0" /></g><g
           id="g3595"
           transform="translate(40,40)"><path
             d="m 262.9361,39.16506 -10.5183,3.10083 5.5646,-3.77959 -4.9538,-0.67876 0,0 0,0 9.9075,1.35752 z"
             style="fill:#000000;fill-opacity:1;fill-rule:nonzero;stroke:#000000;stroke-width:1;stroke-linecap:butt;stroke-linejoin:miter;stroke-miterlimit:10;stroke-dasharray:none;stroke-opacity:1"
             id="path3597"
             inkscape:connector-curvature="0" /></g><g
           id="g3599"
           transform="translate(40,40)"><text
             transform="matrix(1,0,0,-1,151.2094,39.49902)"
             style="font-variant:normal;font-weight:normal;font-size:10px;font-family:Arial;-inkscape-font-specification:ArialMT;writing-mode:lr-tb;fill:#000000;fill-opacity:1;fill-rule:nonzero;stroke:none"
             id="text3601"><tspan
               x="0 8.3299999 13.892 19.454 25.016001 27.238001 32.799999 38.362 45.032001 48.362 53.924 56.146 61.708 66.708 69.486 71.708 77.269997 82.832001 86.162003"
               y="0"
               sodipodi:role="line"
               id="tspan3603">MappingProjection-2</tspan></text>
</g></g></g></g></svg>